<?xml version="1.0" standalone="no"?>
<!DOCTYPE svg PUBLIC "-//W3C//DTD SVG 1.1//EN" "http://www.w3.org/Graphics/SVG/1.1/DTD/svg11.dtd" >
<svg xmlns="http://www.w3.org/2000/svg">
<metadata></metadata>
<defs>
<font id="systopieregular" horiz-adv-x="1155" >
<font-face units-per-em="2048" ascent="1565" descent="-483" />
<missing-glyph horiz-adv-x="512" />
<glyph horiz-adv-x="2048" />
<glyph horiz-adv-x="2048" />
<glyph unicode="&#xd;" horiz-adv-x="0" />
<glyph unicode=" "  horiz-adv-x="512" />
<glyph unicode="&#x09;" horiz-adv-x="512" />
<glyph unicode="&#xa0;" horiz-adv-x="512" />
<glyph unicode="!" horiz-adv-x="512" d="M133 0v158q0 67 72 67h153v-155q0 -37 -15.5 -53.5t-51.5 -16.5h-158zM150 1360q0 61 21.5 81.5t84.5 20.5h123l-37 -1009q0 -38 -15 -54t-55 -16h-104z" />
<glyph unicode="&#x22;" horiz-adv-x="808" d="M100 1427q-3 70 72 70h156l-19 -453q0 -37 -14.5 -53t-52.5 -16h-123zM483 1427q-3 70 70 70h158l-19 -453q-2 -38 -16 -53.5t-51 -15.5h-123z" />
<glyph unicode="#" horiz-adv-x="1415" d="M98 434v141q0 36 16.5 52t53.5 16h1149v-137q0 -72 -72 -72h-225v-364q0 -70 -70 -70h-155v434h-177v-434h-155q-70 0 -70 70v364h-295zM98 784v140q0 69 70 69h225v434h158q37 0 52 -15t15 -52v-367h177v367q0 37 15 52t52 15h158v-434h297v-141q0 -36 -17.5 -52 t-54.5 -16h-1147z" />
<glyph unicode="$" d="M98 0v139q0 70 70 70h332q82 0 133 3t90.5 14.5t59 25.5t31.5 45.5t14.5 64t2.5 91.5v137l-475 96q-62 13 -98 25t-70.5 34t-52 55t-27.5 84.5t-10 125.5q0 125 19 206t65.5 133.5t117 77t181.5 33.5v211q0 72 70 72h123v-281h332v-137q0 -72 -72 -72h-311 q-55 0 -93.5 -1.5t-71.5 -7.5t-53.5 -13t-36.5 -22.5t-24 -30.5t-13 -43t-6 -55t-1 -70v-101l522 -110q82 -17 125.5 -50.5t64.5 -103t21 -192.5q0 -124 -23 -206t-76 -133.5t-128.5 -76t-190.5 -33.5v-213q0 -70 -72 -70h-121v279h-348z" />
<glyph unicode="%" horiz-adv-x="1034" d="M98 0v102q0 40 6.5 65.5t26.5 65.5l596 1143q27 51 60 68.5t77 17.5h72v-100q0 -42 -6 -68.5t-25 -62.5l-596 -1145q-27 -51 -60.5 -68.5t-78.5 -17.5h-72zM135 1237v156q0 69 70 69h155v-157q0 -68 -69 -68h-156zM674 70v155h157q37 0 52.5 -15t15.5 -52v-158h-154 q-71 0 -71 70z" />
<glyph unicode="&#x26;" horiz-adv-x="1378" d="M98 506q0 62 10.5 108.5t25 75.5t45.5 55.5t55.5 40.5t72.5 37l107 54l-158 258q-52 89 -50 162t58 119t148 46h557v-139q0 -70 -70 -70h-481l194 -317q82 -137 -39 -201l-266 -131v-98q0 -80 2 -123.5t14.5 -85t29.5 -58t56 -30.5t85.5 -16.5t126.5 -2.5q73 0 111.5 2 t75 15.5t50.5 30.5t26 60.5t13.5 90.5t1.5 135v51q0 151 63.5 215t198.5 64h156v-139q0 -70 -70 -70h-121v-123q0 -78 -3 -133.5t-12 -112t-25 -94.5t-42.5 -73.5t-63.5 -57t-89 -38.5t-118.5 -24t-151.5 -7q-115 0 -195.5 10.5t-140 37t-95 63.5t-57 99.5t-28.5 134.5 t-7 179z" />
<glyph unicode="'" horiz-adv-x="419" d="M100 1331q-4 62 18.5 83.5t86.5 21.5h117l-17 -392q-1 -61 -24.5 -81.5t-79.5 -20.5h-82z" />
<glyph unicode="(" horiz-adv-x="667" d="M74 16v1012q0 131 22.5 215.5t76 133t128 67t191.5 18.5h102v-139q0 -36 -16 -53t-52 -17q-132 0 -179.5 -46.5t-47.5 -178.5v-1012q0 -132 47.5 -178.5t179.5 -46.5q36 0 52 -17.5t16 -54.5v-137h-102q-117 0 -191.5 18.5t-128 67t-76 133t-22.5 215.5z" />
<glyph unicode=")" horiz-adv-x="667" d="M74 -281q0 37 15.5 54.5t51.5 17.5q132 0 180 46.5t48 178.5v1012q0 132 -48 178.5t-180 46.5q-36 0 -51.5 17t-15.5 53v139h102q117 0 191.5 -18.5t128 -67t76 -133t22.5 -215.5v-1012q0 -131 -22.5 -215.5t-76 -133t-128 -67t-191.5 -18.5h-102v137z" />
<glyph unicode="*" horiz-adv-x="946" d="M98 1270v123q0 50 10.5 59.5t61.5 9.5h182l-80 242l117 37q50 12 60.5 6.5t27.5 -51.5l55 -174l205 147l72 -98q21 -27 24.5 -40t-4.5 -24t-38 -32l-144 -109l201 -147l-72 -99q-29 -41 -43.5 -42.5t-52.5 28.5l-148 106l-77 -239l-115 37q-50 17 -56 29t11 59l57 172 h-254z" />
<glyph unicode="+" horiz-adv-x="839" d="M98 541v121q0 71 70 71h156v260h122q70 0 70 -69v-191h225v-123q0 -37 -15.5 -53t-51.5 -16h-158v-262h-121q-71 0 -71 69v193h-226z" />
<glyph unicode="," horiz-adv-x="372" d="M74 158q0 67 69 67h156v-190q0 -55 -29 -107l-59 -102q-18 -35 -68 -35h-69v367z" />
<glyph unicode="-" horiz-adv-x="806" d="M98 541v121q0 71 72 71h539v-123q0 -69 -70 -69h-541z" />
<glyph unicode="." horiz-adv-x="372" d="M74 0v158q0 67 71 67h154v-155q0 -37 -16 -53.5t-52 -16.5h-157z" />
<glyph unicode="/" horiz-adv-x="1034" d="M98 0v102q0 40 6.5 65.5t26.5 65.5l596 1143q27 51 60 68.5t77 17.5h72v-100q0 -42 -6 -68.5t-25 -62.5l-596 -1145q-27 -51 -60.5 -68.5t-78.5 -17.5h-72z" />
<glyph unicode="0" horiz-adv-x="1275" d="M98 766q0 171 15 286.5t50 201.5t98.5 133.5t153 69.5t222.5 22t223 -22t153.5 -69.5t98.5 -133.5t50.5 -201.5t15.5 -286.5q0 -160 -10 -274t-35 -204.5t-63.5 -146t-100.5 -92t-141.5 -51t-190.5 -14.5t-190 14.5t-141.5 51t-100.5 92t-63 146t-34.5 204.5t-9.5 274z M324 766q0 -91 1 -156t5.5 -125.5t8 -99.5t15.5 -74.5t21.5 -55.5t31 -37.5t39.5 -24.5t52 -12t62 -6t77 -1t77.5 1t62.5 6t52 12t39.5 24.5t31 37.5t21 55.5t15.5 74.5t8 99.5t5 125t1 156.5q0 102 -1.5 168.5t-9 126.5t-14 93.5t-27.5 62.5t-38 40.5t-56 20t-72 9.5t-95 1 t-94.5 -1t-71.5 -9.5t-56.5 -20.5t-38 -40t-27.5 -62t-14.5 -93.5t-9 -126.5t-1.5 -169z" />
<glyph unicode="1" horiz-adv-x="677" d="M82 1323v139h383q70 0 70 -69v-1393h-158q-70 0 -70 70v1183h-155q-70 0 -70 70z" />
<glyph unicode="2" horiz-adv-x="1179" d="M102 104v279q0 138 52 209t206 139l490 213v100q0 70 -8.5 107t-40 62t-83.5 32.5t-147 7.5h-348q-69 0 -69 70v139h417q149 0 241.5 -18t154 -66t86 -127.5t24.5 -206.5q0 -136 -44.5 -201.5t-172.5 -119.5l-532 -234v-280h680q69 0 69 -70v-139h-870q-63 0 -84 20.5 t-21 83.5z" />
<glyph unicode="3" horiz-adv-x="1179" d="M102 0v139q0 31 19 50.5t51 19.5h313q72 0 122 2t92.5 9.5t68.5 15.5t46 27.5t30 37.5t16 53t7 66.5t1 85.5v117l-336 82q-75 21 -75 90q0 40 26 73l275 385h-551q-70 0 -70 70v139h801q70 0 70 -69v-140l-281 -395l141 -35q110 -26 159.5 -97t49.5 -220q0 -74 -4 -127.5 t-15 -106t-30.5 -88.5t-51 -68.5t-75 -52.5t-104 -35t-137.5 -21.5t-175 -6.5h-383z" />
<glyph unicode="4" horiz-adv-x="1241" d="M61 418v123l553 868q19 27 43 40t68 13h193q67 0 67 -69v-836h86q72 0 72 -70v-139h-158v-278q0 -70 -67 -70h-158v348h-627q-72 0 -72 70zM324 557h436v684z" />
<glyph unicode="5" horiz-adv-x="1148" d="M109 899l73 510q9 53 80 53h731v-139q0 -70 -69 -70h-553l-47 -329l391 -66q72 -11 120.5 -24.5t88 -36t61.5 -51t37 -74.5t20 -101.5t5 -136.5q0 -69 -7.5 -125t-19.5 -98.5t-35 -75t-45.5 -54.5t-59.5 -37.5t-68 -24t-81.5 -13t-89.5 -5.5t-100 -1h-418v139q0 70 70 70 h348q53 0 87 1t66 5.5t49.5 10t33.5 19t23 27t12 40t6 53t1 69.5v195l-592 98q-76 13 -102.5 55t-15.5 117z" />
<glyph unicode="6" horiz-adv-x="1249" d="M102 713q0 129 4.5 218t20 170.5t38.5 132.5t66.5 95t96 66.5t135.5 39.5t177 22t228 5h174v-139q0 -70 -69 -70h-105q-81 0 -138 -1t-111.5 -5.5t-89.5 -9.5t-68 -17.5t-51.5 -24.5t-35 -35.5t-24 -46t-13 -60t-6.5 -73.5t-1 -91v-105l32 68q12 25 25 38t46.5 27 t97 19.5t163.5 5.5q137 0 219.5 -19.5t137.5 -74t75.5 -143.5t20.5 -236q0 -92 -11 -163t-31 -122.5t-54.5 -87.5t-73.5 -58.5t-97 -34.5t-116 -16.5t-139 -4.5q-93 0 -161 10t-125 31t-95.5 60.5t-67 93t-44 133t-23 176t-7.5 227.5zM330 471q0 -92 11 -144t46.5 -84.5 t91 -42.5t154.5 -10q52 0 85.5 1t66.5 6.5t51.5 12.5t36 22.5t25.5 34.5t14.5 50t8 66t1.5 86q0 69 -3 111t-16.5 76t-30 50t-55 27t-79 13t-113.5 2q-95 0 -147.5 -9t-88.5 -40t-47.5 -83t-11.5 -145z" />
<glyph unicode="7" horiz-adv-x="1134" d="M98 1325v137h871q36 0 51.5 -16t15.5 -53v-140l-434 -845v-338q0 -70 -70 -70h-155v346q0 52 11 89t42 95l371 723h-633q-70 0 -70 72z" />
<glyph unicode="8" horiz-adv-x="1206" d="M98 432q0 113 48.5 200.5t144.5 133.5q-83 35 -129.5 115t-46.5 180q0 106 20 178t72.5 129t150 84t244.5 27t245 -27t151 -84t73.5 -129.5t20.5 -177.5q0 -99 -47.5 -179.5t-126.5 -115.5q94 -46 142 -133.5t48 -200.5q0 -94 -12.5 -160.5t-45.5 -124t-89.5 -91.5 t-145.5 -53t-213 -19q-104 0 -183 12.5t-134.5 38.5t-92 61.5t-57.5 88.5t-29 111t-8 136zM324 432q0 -40 1 -65.5t5.5 -52.5t12.5 -43t22.5 -32t34.5 -24t49 -15t66 -9.5t87 -2.5t87.5 2.5t67 9.5t49.5 15t34.5 24t22.5 32t12.5 43t6 52.5t1.5 65.5q0 49 -2.5 78t-12 58.5 t-27.5 44.5t-50 27.5t-77.5 17t-111.5 4.5t-111 -4.5t-76.5 -17t-49 -27.5t-27 -44.5t-12 -58.5t-2.5 -78zM342 1061q0 -55 6 -89t21 -59.5t46 -37.5t74 -17.5t113 -5.5q88 0 136.5 7.5t78.5 32.5t38.5 62.5t8.5 106.5q0 72 -4 101.5t-28.5 60t-78 39t-151.5 8.5 t-150.5 -8.5t-77 -39t-28.5 -60t-4 -101.5z" />
<glyph unicode="9" horiz-adv-x="1216" d="M102 961q0 199 50.5 312t154.5 160.5t283 47.5q86 0 148 -5.5t117.5 -21t92 -39t67.5 -65t48.5 -93.5t29.5 -129.5t16.5 -167.5t4.5 -212q0 -110 -2.5 -186.5t-11.5 -151.5t-21 -123t-37.5 -94.5t-54 -73t-78.5 -51t-102 -35.5t-132.5 -20t-163 -11t-200.5 -2h-139v139 q0 70 70 70h69q93 0 151.5 0.5t121 4.5t97 7t72.5 14.5t55 21t35.5 31.5t24.5 41t12 55.5t6.5 68.5t0.5 86v123l-35 -68q-15 -29 -43.5 -47.5t-95.5 -30.5t-174 -12q-115 0 -194 22.5t-135 75t-82 140.5t-26 219zM330 995q0 -68 2 -105t12 -74t26 -53t49 -29.5t76.5 -17 t112.5 -3.5q70 0 110.5 2.5t75 13.5t50.5 25.5t27 47.5t13.5 70.5t2.5 102.5q0 67 -2.5 105.5t-12.5 76.5t-27 56.5t-49 33.5t-76.5 20t-111.5 5q-70 0 -113 -3t-76.5 -16.5t-49 -28.5t-25.5 -51.5t-12 -73t-2 -104.5z" />
<glyph unicode=":" horiz-adv-x="440" d="M98 662v157q0 36 17 52t53 16h156v-154q0 -37 -16 -54t-52 -17h-158zM115 70v155h155q72 0 72 -67v-158h-158q-69 0 -69 70z" />
<glyph unicode=";" horiz-adv-x="421" d="M98 158q0 67 70 67h156v-190q0 -55 -29 -107l-59 -102q-18 -35 -68 -35h-70v367zM98 662v157q0 36 16.5 52t53.5 16h156v-154q0 -71 -68 -71h-158z" />
<glyph unicode="&#x3c;" horiz-adv-x="1101" d="M98 678q0 114 72 160l565 317q62 33 91 43t75 10h103v-102q0 -66 -84 -119l-603 -303v-8l603 -305q84 -46 84 -117v-104h-103q-47 0 -77 10.5t-89 44.5l-565 313q-72 46 -72 160z" />
<glyph unicode="=" horiz-adv-x="843" d="M98 348v121q0 72 72 72h575v-123q0 -70 -71 -70h-576zM98 766v121q0 71 72 71h575v-122q0 -70 -71 -70h-576z" />
<glyph unicode="&#x3e;" horiz-adv-x="1101" d="M98 150v104q0 71 84 117l602 305v8l-602 303q-84 53 -84 119v102h103q46 0 75 -10t91 -43l565 -317q72 -46 72 -160t-72 -160l-565 -313q-59 -34 -89 -44.5t-77 -10.5h-103z" />
<glyph unicode="?" horiz-adv-x="1153" d="M98 975v139q0 98 20 162t73.5 112t149.5 69.5t245 21.5q138 0 227.5 -23t143.5 -77t76 -133.5t22 -201.5q0 -126 -32 -201t-105 -143l-316 -284v-346q0 -70 -70 -70h-139v418q0 63 15.5 96.5t54.5 67.5l289 264q75 69 75 198q0 79 -5.5 117t-31.5 66t-71.5 35.5 t-132.5 7.5q-69 0 -112.5 -3t-76.5 -14t-49.5 -24t-26.5 -42.5t-12 -59t-2 -83.5q0 -39 -15 -54t-56 -15h-138z" />
<glyph unicode="@" horiz-adv-x="1507" d="M74 348q0 157 13 270t46 203.5t85 147.5t133.5 95t186.5 53.5t250 15.5q126 0 216.5 -10t166 -35.5t123 -67t80.5 -106.5t46.5 -152t13.5 -205v-104q0 -112 -24.5 -195.5t-67 -135.5t-108.5 -83t-139 -43t-169 -12q-127 0 -210.5 24.5t-128.5 76.5t-62 118t-17 164v51 q0 148 88 222.5t227 74.5q45 0 127 -3t84 -3l178 -13q-3 50 -8.5 80.5t-21.5 61.5t-43.5 48t-74 31t-114 19.5t-162.5 5.5q-84 0 -144 -4.5t-112.5 -17.5t-86.5 -31.5t-61.5 -53.5t-42.5 -75.5t-25.5 -104.5t-13.5 -135t-3 -172q0 -96 5.5 -168t20.5 -131.5t36 -100.5 t57 -73t78 -50.5t104.5 -30t130.5 -15.5t162 -4h434q72 0 72 -70v-123h-506q-131 0 -230 9.5t-187.5 31.5t-150.5 61t-112 96.5t-79.5 139t-44.5 187t-15 241.5zM700 383q0 -57 6 -92t24.5 -63.5t53.5 -41t90 -12.5q63 0 99.5 1t77.5 7t62 15.5t43.5 29t32.5 44.5t18.5 65 t11 88.5t2.5 116.5h-381q-84 0 -112 -40.5t-28 -117.5z" />
<glyph unicode="A" horiz-adv-x="1398" d="M98 0v106q0 67 17 119l366 1135q18 50 36 69t55 26t126 7q54 0 84 -2t55 -7t38 -17.5t22.5 -29t20.5 -46.5l364 -1135q18 -48 18 -119v-106h-86q-73 0 -98 20.5t-43 85.5l-80 261h-587l-82 -261q-12 -37 -19 -52.5t-22 -30.5t-37.5 -19t-61.5 -4h-86zM465 557h469 l-221 713h-27z" />
<glyph unicode="B" horiz-adv-x="1259" d="M133 0v1393q0 69 70 69h450q187 0 287.5 -37t143 -122t42.5 -242q0 -142 -44 -211t-148 -88q75 -21 122.5 -57.5t76 -112t28.5 -191.5q0 -117 -28.5 -195.5t-90 -123.5t-146 -63.5t-206.5 -18.5h-557zM358 209h332q61 0 97.5 2t66.5 12t43.5 22t23 40t11.5 58.5t2 84.5 q0 53 -2 84t-9.5 60.5t-20.5 44t-37 26.5t-57 15.5t-83 3.5h-367v-453zM358 852h332q52 0 83 2t57 11t37.5 20.5t20 38t10 56t1.5 81.5q0 44 -2 69t-11 49.5t-24 36.5t-43.5 21.5t-67.5 12.5t-98 3h-295v-401z" />
<glyph unicode="C" horiz-adv-x="1120" d="M98 715v35q0 123 5.5 210t23 163.5t41.5 126t70 90t100 62t138.5 36.5t178.5 19.5t228 4.5h155v-139q0 -70 -69 -70h-51q-121 0 -186.5 -1t-140 -10t-107 -19t-70.5 -39.5t-49 -59.5t-23.5 -90.5t-14 -121t-1.5 -162.5v-35q0 -103 1.5 -164t14 -122t23.5 -91t49.5 -59.5 t70.5 -39.5t107 -19t139.5 -10t186.5 -1h51q69 0 69 -70v-139h-155q-134 0 -228 5t-178.5 20t-138.5 37t-99.5 62.5t-70 90t-42 126.5t-23 164t-5.5 210z" />
<glyph unicode="D" horiz-adv-x="1277" d="M133 0v1393q0 69 72 69h346q90 0 159 -6.5t137 -25t117 -49t91.5 -79t69 -116t41 -159.5t14.5 -208v-176q0 -116 -14.5 -208t-41 -159.5t-69 -116t-91.5 -79t-117 -49t-137 -25t-159 -6.5h-418zM358 209h193q89 0 145.5 5t105.5 22.5t74.5 45.5t44.5 79t25 116.5t6 165.5 v176q0 100 -6 165.5t-25 116.5t-44.5 79t-74.5 45.5t-105.5 22.5t-145.5 5h-193v-1044z" />
<glyph unicode="E" horiz-adv-x="1142" d="M133 0v1393q0 69 70 69h817v-139q0 -36 -16 -53t-52 -17h-594v-383h627v-137q0 -71 -70 -71h-557v-453h662v-139q0 -37 -16 -53.5t-52 -16.5h-819z" />
<glyph unicode="F" horiz-adv-x="1083" d="M133 0v1393q0 69 70 69h782v-139q0 -36 -15.5 -53t-51.5 -17h-560v-383h594v-137q0 -71 -69 -71h-525v-560q0 -62 -19.5 -82t-82.5 -20h-123z" />
<glyph unicode="G" horiz-adv-x="1249" d="M98 645v105q0 123 5.5 210t23 163.5t41.5 126t70 90t100 62t138.5 36.5t178.5 19.5t228 4.5h174v-139q0 -70 -70 -70h-69q-121 0 -186.5 -1t-140 -10t-107 -19t-70.5 -39.5t-49 -59.5t-23.5 -90.5t-14 -121t-1.5 -162.5v-105q0 -84 1.5 -140t8.5 -107t15.5 -81t27 -56 t38.5 -38t55.5 -20.5t72.5 -10.5t94 -2q170 0 262 70v471q0 70 70 70h155v-539q0 -65 -12 -89t-55 -58q-74 -57 -191 -95t-264 -38q-114 0 -191.5 16t-141 58t-99.5 117t-55 190.5t-19 281.5z" />
<glyph unicode="H" horiz-adv-x="1259" d="M133 70v1392h158q67 0 67 -69v-541h541v610h156q71 0 71 -69v-1393h-157q-70 0 -70 70v573h-541v-643h-155q-70 0 -70 70z" />
<glyph unicode="I" horiz-adv-x="491" d="M133 0v1393q0 69 70 69h155v-1392q0 -70 -69 -70h-156z" />
<glyph unicode="J" horiz-adv-x="1077" d="M98 383v104h140q69 0 69 -69q0 -54 3 -89t13 -61.5t23 -40t39 -22t54.5 -10.5t76.5 -2t76.5 2t54.5 10.5t39 22t23 40t13 61.5t3 89v975q0 69 72 69h157v-1044q0 -131 -21.5 -213.5t-75 -132.5t-134 -69t-207.5 -19q-165 0 -254 37t-126.5 121.5t-37.5 240.5z" />
<glyph unicode="K" horiz-adv-x="1169" d="M133 0v1393q0 69 70 69h155v-643h13l477 574q36 48 56.5 58.5t72.5 10.5h102v-102q0 -50 -12.5 -81t-38.5 -60l-455 -482l486 -512q23 -23 30 -47.5t7 -75.5v-102h-86q-47 0 -72.5 9.5t-54.5 43.5l-512 590h-13v-573q0 -37 -15.5 -53.5t-51.5 -16.5h-158z" />
<glyph unicode="L" horiz-adv-x="1067" d="M133 70v1392h158q67 0 67 -69v-1184h560q36 0 51.5 -17t15.5 -53v-139h-782q-70 0 -70 70z" />
<glyph unicode="M" horiz-adv-x="1624" d="M133 0v1393q0 69 70 69h225l385 -1030l383 1030h225q70 0 70 -69v-1393h-156q-69 0 -69 70v974l-344 -925q-15 -35 -109 -35q-96 0 -108 35l-345 925v-974q0 -70 -71 -70h-156z" />
<glyph unicode="N" horiz-adv-x="1380" d="M133 0v1462h244q50 0 71 -11.5t33 -41.5l539 -1112v1096q0 69 72 69h155v-1462h-243q-52 0 -72.5 11t-34.5 42l-539 1114v-1097q0 -70 -67 -70h-158z" />
<glyph unicode="O" horiz-adv-x="1277" d="M98 643v176q0 138 12 239.5t41 175.5t69 121t103.5 75t137.5 38.5t178 10.5t178 -10.5t137.5 -38.5t103.5 -75t69 -121t41 -175.5t12 -239.5v-176q0 -138 -12 -239.5t-41 -175.5t-69 -120.5t-103.5 -74.5t-137.5 -38.5t-178 -10.5t-178 10.5t-137.5 38.5t-103.5 74.5 t-69 120.5t-41 175.5t-12 239.5zM328 643q0 -84 1.5 -139.5t8 -106.5t14.5 -80.5t26.5 -55t38 -37t55.5 -19.5t72.5 -10t94.5 -2t94 2t72.5 10t56.5 19.5t39 37t27.5 55t15.5 80t8.5 107t1.5 139.5v176q0 83 -1.5 139.5t-8.5 107t-15.5 80.5t-27.5 55t-39 37t-56.5 20 t-72.5 10t-94 2t-94.5 -2t-72.5 -10.5t-55.5 -19.5t-38 -37t-26.5 -55t-14.5 -80.5t-8 -107t-1.5 -139.5v-176z" />
<glyph unicode="P" horiz-adv-x="1224" d="M133 0v1393q0 69 72 69h452q145 0 235 -24.5t143 -85t72 -148t19 -229.5t-19 -229.5t-72 -148.5t-143 -85.5t-235 -24.5h-299v-417q0 -37 -15.5 -53.5t-51.5 -16.5h-158zM358 696h299q59 0 95.5 3t66 15.5t43.5 28.5t23.5 51t11.5 74t2 107q0 67 -2 106t-11.5 74 t-23.5 51t-43.5 28.5t-66 15.5t-95.5 3h-299v-557z" />
<glyph unicode="Q" horiz-adv-x="1347" d="M98 643v176q0 138 12 239.5t41 175.5t69 121t103.5 75t137.5 38.5t178 10.5q103 0 177 -10.5t137 -38.5t103 -75t69 -121t41 -175.5t12 -239.5v-176q0 -185 -35 -291.5t-127 -142.5h162q71 0 71 -70v-139h-331q-28 0 -115 -8t-164 -8q-104 0 -178 10.5t-137.5 38.5 t-103.5 74.5t-69 120.5t-41 175.5t-12 239.5zM324 643q0 -83 1.5 -139.5t8.5 -107t15.5 -80t27.5 -55t39 -37t56.5 -19.5t72.5 -10t94 -2t94 2t72 10t55.5 19.5t38.5 37t27 55t14.5 80.5t8 106.5t1.5 139.5v176q0 67 -1 114.5t-5 92.5t-8.5 75t-15 57.5t-21 43t-30.5 29.5 t-39.5 20.5t-51 11.5t-62.5 6t-77 1q-58 0 -94 -2t-72.5 -10t-56.5 -20t-39 -37t-27.5 -55t-15.5 -80.5t-8.5 -107t-1.5 -139.5v-176z" />
<glyph unicode="R" horiz-adv-x="1224" d="M133 0v1393q0 69 70 69h450q115 0 197 -18.5t136 -53t84.5 -93t43 -130.5t12.5 -174q0 -208 -60.5 -313.5t-221.5 -140.5l186 -322q17 -31 23 -42t14 -37t8 -52v-86h-106q-74 0 -109 59l-256 465h-246v-454q0 -70 -67 -70h-158zM358 733h295q59 0 98 4t67.5 17.5 t43.5 29.5t24 49.5t11 67.5t2 92t-2 92t-11 67t-24 49t-43.5 29.5t-67.5 18t-98 4.5h-295v-520z" />
<glyph unicode="S" d="M98 0v139q0 70 70 70h332q82 0 133 3t90.5 14.5t59 25.5t31.5 45.5t14.5 64t2.5 91.5v137l-475 96q-62 13 -98 25t-70.5 34t-52 55t-27.5 84.5t-10 125.5q0 96 10.5 165t37.5 120.5t64.5 83t98.5 50.5t133.5 26t175.5 7h386v-137q0 -72 -70 -72h-316q-54 0 -92 -1.5 t-70 -7.5t-52.5 -13t-36 -22.5t-23.5 -30.5t-13 -43t-6 -55t-1 -70v-101l522 -110q82 -17 125.5 -50.5t64.5 -103t21 -192.5q0 -94 -13.5 -164t-44 -120.5t-73 -83t-108 -51.5t-140.5 -26.5t-178 -7.5h-402z" />
<glyph unicode="T" horiz-adv-x="1191" d="M74 1253v140q0 69 69 69h975v-137q0 -72 -71 -72h-347v-1183q0 -70 -71 -70h-154v1253h-401z" />
<glyph unicode="U" horiz-adv-x="1255" d="M123 487v975h158q36 0 51.5 -16t15.5 -53v-906q0 -77 2 -119.5t13.5 -80t25.5 -52.5t51 -27t75.5 -13.5t111.5 -1.5q55 0 87.5 1t66.5 6.5t50.5 11.5t33.5 23.5t23 35.5t11.5 53t6.5 70t1 93v906q0 37 15.5 53t52.5 16h158v-975q0 -146 -23 -238.5t-82 -153.5t-155 -86 t-246 -25t-245 25t-154 86t-82 153.5t-23 238.5z" />
<glyph unicode="V" horiz-adv-x="1398" d="M98 1360v102h88q50 0 77 -11t38 -29t27 -62l360 -1167h25l360 1167q18 60 44.5 81t96.5 21h86v-102q0 -75 -18 -123l-377 -1135q-19 -52 -33.5 -69.5t-49.5 -25t-122 -7.5q-45 0 -70.5 0.5t-48.5 6t-33 9.5t-21 19t-16 27t-15 40l-377 1135q-21 56 -21 123z" />
<glyph unicode="W" horiz-adv-x="1867" d="M98 1360v102h88q74 0 100 -20t38 -82l206 -1167h9l202 782q12 50 52 68t141 18q102 0 142 -18t52 -68l203 -782h8l205 1167q11 61 38 81.5t101 20.5h86v-102q0 -82 -8 -123l-217 -1116q-17 -71 -59.5 -96t-141.5 -25q-111 0 -154 24t-63 97l-192 723l-193 -723 q-20 -73 -62.5 -97t-152.5 -24q-100 0 -142.5 25t-59.5 96l-215 1116q-11 43 -11 123z" />
<glyph unicode="X" horiz-adv-x="1312" d="M98 0v106q0 37 29 82l391 570l-356 518q-29 42 -29 84v102h105q70 0 108 -51l309 -487l312 487q38 51 106 51h107v-102q0 -42 -29 -84l-356 -518l389 -570q30 -41 30 -82v-106h-106q-72 0 -109 53l-344 539l-344 -539q-37 -53 -106 -53h-107z" />
<glyph unicode="Y" horiz-adv-x="1314" d="M82 1360v102h106q39 0 62 -7.5t39 -33.5l368 -657l371 657q16 27 36.5 34t61.5 7h107v-102q0 -41 -31 -84l-432 -709v-497q0 -70 -70 -70h-155v567l-434 709q-29 52 -29 84z" />
<glyph unicode="Z" horiz-adv-x="1171" d="M98 70v120l713 1063h-608q-70 0 -70 70v139h871q69 0 69 -69v-121l-711 -1063h642q69 0 69 -70v-139h-905q-70 0 -70 70z" />
<glyph unicode="[" horiz-adv-x="686" d="M74 -348v1741q0 69 69 69h469v-139q0 -70 -69 -70h-244v-1462h244q69 0 69 -72v-137h-469q-69 0 -69 70z" />
<glyph unicode="\" horiz-adv-x="935" d="M49 1362v100h72q44 0 77 -17.5t60 -68.5l596 -1143q20 -40 26.5 -65.5t6.5 -65.5v-102h-72q-45 0 -78.5 17.5t-60.5 68.5l-596 1145q-19 36 -25 62.5t-6 68.5z" />
<glyph unicode="]" horiz-adv-x="686" d="M74 -281q0 72 69 72h244v1462h-244q-69 0 -69 70v139h469q69 0 69 -69v-1741q0 -70 -69 -70h-469v137z" />
<glyph unicode="^" horiz-adv-x="811" d="M74 1253v88q0 43 7.5 63t31.5 44l174 176q19 19 36.5 25t65.5 6h33q48 0 65.5 -6t36.5 -25l174 -176q24 -24 31.5 -44t7.5 -63v-88h-106q-29 0 -41 9.5t-45 50.5l-139 190l-140 -190q-35 -45 -47 -52q-14 -8 -39 -8h-106z" />
<glyph unicode="_" horiz-adv-x="980" d="M98 0h713q72 0 72 -70v-123h-715q-70 0 -70 70v123z" />
<glyph unicode="`" horiz-adv-x="495" d="M66 1550v105h104q31 0 45 -10t41 -50l131 -186q17 -23 22 -38t5 -46v-72h-70q-11 0 -18.5 1t-18 7.5t-12 7.5t-16.5 13l-175 160q-25 23 -31.5 42t-6.5 66z" />
<glyph unicode="a" horiz-adv-x="1093" d="M98 330v53q0 153 66 216t215 63q170 0 371 -19q0 85 -10 132t-41.5 73t-74 32.5t-124.5 6.5h-262q-70 0 -70 69v123h332q95 0 162.5 -8t122.5 -29t88.5 -54t56.5 -87t32 -124.5t9 -168.5v-608h-123q-35 0 -48.5 15t-21.5 55l-16 82l-41 -82q-24 -53 -81 -70.5t-191 -17.5 q-96 0 -159 15t-108 54t-64.5 107t-19.5 172zM291 330q0 -56 6 -86.5t26.5 -52t57.5 -28.5t102 -7q156 0 217.5 50t61.5 159v122h-313q-96 0 -127 -28t-31 -129z" />
<glyph unicode="b" horiz-adv-x="1161" d="M123 522v975h158q69 0 69 -70v-518l47 97q15 30 37.5 48t74.5 30t136 12q122 0 197.5 -23t127.5 -86t72.5 -169.5t20.5 -278.5q0 -116 -9 -199t-32.5 -146.5t-58.5 -103t-91.5 -64.5t-127 -34.5t-169.5 -9.5q-94 0 -161 12.5t-125 47t-92.5 94.5t-54 156t-19.5 230z M350 522q0 -109 9 -173t35.5 -105t68 -55.5t112.5 -14.5q47 0 74.5 1t58.5 7t47 15.5t33.5 28.5t24.5 44.5t14 65t9 87.5t2 116t-2 116.5t-9 88.5t-14 65t-24.5 44t-33.5 28.5t-47 15.5t-58.5 7t-74.5 1q-41 0 -72 -3.5t-54.5 -14.5t-40 -22.5t-27.5 -36t-17 -45.5 t-9.5 -61.5t-4 -74t-0.5 -90.5v-35z" />
<glyph unicode="c" horiz-adv-x="937" d="M98 539q0 117 9.5 197.5t36 143.5t66 99.5t107.5 60t151 31.5t206 8h192v-123q0 -69 -69 -69h-123q-70 0 -110.5 -1t-84.5 -7t-66 -14.5t-45 -27.5t-32 -41.5t-17.5 -62t-10 -83.5t-1.5 -111q0 -66 2 -110t10 -83.5t17 -62.5t32 -42t45 -27.5t65.5 -15t85 -7.5t110.5 -1 h123q69 0 69 -69v-121h-192q-123 0 -206.5 8t-151.5 31.5t-107 60t-65.5 99t-36 143t-9.5 197.5z" />
<glyph unicode="d" horiz-adv-x="1161" d="M98 539q0 172 20.5 278.5t72.5 169.5t127.5 86t197.5 23q91 0 143.5 -12t71.5 -29t35 -49l47 -97v588h156q69 0 69 -70v-1427h-120q-36 0 -50.5 16t-19.5 54l-19 116l-47 -96q-24 -44 -50.5 -66t-76 -32t-139.5 -10q-122 0 -197.5 23t-127.5 86t-72.5 169.5t-20.5 278.5z M324 539q0 -68 2 -116t8.5 -87.5t14 -65t24.5 -44.5t33 -28.5t47 -15.5t58.5 -7t74.5 -1q72 0 114.5 14.5t68.5 55.5t35 105t9 173v35q0 82 -6 137t-20.5 98t-40.5 66.5t-64.5 35t-95.5 11.5q-37 0 -60.5 -0.5t-50.5 -4t-42.5 -8.5t-33 -15t-26.5 -23.5t-19.5 -34.5 t-14.5 -46.5t-8.5 -61t-5.5 -77t-1 -95.5z" />
<glyph unicode="e" horiz-adv-x="1048" d="M98 539q0 211 44 332t137 173t253 52q109 0 184.5 -21.5t129.5 -73.5t79 -140t25 -218v-104q0 -37 -15.5 -53.5t-51.5 -16.5h-574q1 -52 4 -87.5t11.5 -66t17.5 -49t30 -33.5t41 -22t58 -11.5t73.5 -5.5t94.5 -1h209q70 0 70 -72v-121h-314q-93 0 -165.5 12t-125.5 34 t-91 58t-62 78t-38 100.5t-19 118t-5 138.5zM309 643h432v35q0 63 -4 98.5t-15 64t-36 40.5t-60 18t-94 6q-50 0 -79.5 -2.5t-57 -12.5t-41 -26t-25 -47t-15 -71t-5.5 -103z" />
<glyph unicode="f" horiz-adv-x="710" d="M72 887v123q0 69 69 69h68q0 98 7.5 163.5t27 117.5t55 80t89 42.5t132.5 14.5h142v-121q0 -71 -72 -71h-47t-37 -3.5t-29.5 -4.5t-21.5 -10.5t-16 -14t-10 -22.5t-6.5 -28t-3 -38t-1.5 -46v-59h244v-121q0 -71 -72 -71h-172v-817q0 -70 -72 -70h-137v887h-137z" />
<glyph unicode="g" horiz-adv-x="1159" d="M96 539q0 172 20.5 278.5t72.5 169.5t127.5 86t197.5 23q90 0 139.5 -10.5t76 -32t50.5 -66.5l47 -96l19 119q6 39 19.5 54t49.5 15h121v-975q0 -79 -5 -138.5t-19 -116.5t-38 -97t-61.5 -74t-90.5 -54t-125 -31t-165 -11h-313v121q0 70 70 70h243q65 0 103.5 3t74 16 t52 32.5t29.5 59t16.5 90t3.5 130.5v66l-47 -96q-16 -33 -35 -50.5t-71.5 -29.5t-143.5 -12q-122 0 -197.5 23t-127.5 86t-72.5 169.5t-20.5 278.5zM324 539q0 -68 2 -116t8.5 -87.5t14 -65t24.5 -44.5t33 -28.5t46.5 -15.5t58 -7t73.5 -1q57 0 95.5 11.5t64.5 35t40.5 66.5 t20.5 98t6 137v35q0 109 -9 173t-35 105t-68.5 55.5t-114.5 14.5q-47 0 -74 -1t-57.5 -7t-46.5 -15.5t-33 -28.5t-24.5 -44t-14 -65t-8.5 -88.5t-2 -116.5z" />
<glyph unicode="h" horiz-adv-x="1169" d="M123 70v1427h156q69 0 69 -70v-483l31 62q23 47 80.5 68.5t204.5 21.5q109 0 178 -15.5t117 -56.5t68 -111.5t20 -181.5v-731h-158q-70 0 -70 70v661q0 104 -42 139t-167 35q-82 0 -133 -13.5t-80 -47t-39 -79.5t-10 -122v-643h-155q-70 0 -70 70z" />
<glyph unicode="i" horiz-adv-x="471" d="M123 70v1009h156q69 0 69 -69v-1010h-155q-70 0 -70 70z" />
<glyph unicode="j" horiz-adv-x="495" d="M-131 -297q0 72 70 72q54 0 83 1.5t56 12t37.5 24t19.5 46.5t10.5 70.5t1.5 105.5v975q0 69 72 69h154v-1044q0 -89 -9.5 -154.5t-35.5 -124.5t-70 -95.5t-115.5 -57.5t-169.5 -21h-104v121z" />
<glyph unicode="k" horiz-adv-x="1005" d="M123 0v1427q0 70 70 70h155v-854h12l363 404q19 20 31.5 26t36.5 6h122v-121q0 -56 -30 -86l-338 -309l362 -375q25 -22 25 -67v-121h-123q-29 0 -47 7t-39 34l-363 446h-12v-417q0 -37 -15.5 -53.5t-51.5 -16.5h-158z" />
<glyph unicode="l" horiz-adv-x="598" d="M123 348v1149h158q36 0 51.5 -16.5t15.5 -53.5v-1079q0 -44 3 -71t9 -45t20 -26t30 -10.5t45 -2.5q69 0 69 -70v-123h-104q-74 0 -125.5 13.5t-85 39t-52.5 69.5t-26.5 97t-7.5 129z" />
<glyph unicode="m" horiz-adv-x="1726" d="M123 70v1009h123q35 0 49 -15t20 -54l17 -101l47 97q16 32 34 49t66.5 29t130.5 12q93 0 149 -8t92.5 -31.5t54.5 -54.5t38 -89l47 93q21 38 44 55.5t73 26t147 8.5q79 0 134.5 -7t95 -26t62.5 -44t36 -70t17 -93.5t4 -124.5v-731h-158q-70 0 -70 70v661q0 42 -2 68 t-10 47t-18.5 31.5t-32 17.5t-46 8.5t-65.5 1.5q-72 0 -112.5 -8t-67.5 -33.5t-36 -68t-9 -117.5v-678h-158q-69 0 -69 70v661q0 42 -2 68t-11 47t-20 31.5t-35 17.5t-51 8.5t-72 1.5q-68 0 -110 -12.5t-63.5 -43t-28.5 -68.5t-7 -103v-678h-157q-70 0 -70 70z" />
<glyph unicode="n" horiz-adv-x="1167" d="M123 70v1009h121q35 0 49 -15t20 -54l19 -101l47 97q15 31 39.5 48.5t84.5 29.5t159 12q115 0 185 -15t116 -57t63.5 -111t17.5 -182v-731h-155q-70 0 -70 70v661q0 74 -14.5 108.5t-58.5 50t-136 15.5q-82 0 -133 -13.5t-80 -47t-39 -79.5t-10 -122v-643h-155 q-70 0 -70 70z" />
<glyph unicode="o" horiz-adv-x="1101" d="M98 539q0 117 7.5 199t28.5 146.5t52.5 103.5t84 64t119 34.5t161.5 9.5t161.5 -9.5t119 -34.5t84 -64t52.5 -103.5t28.5 -146.5t7.5 -199t-7.5 -198t-28.5 -145.5t-52.5 -103.5t-84 -64t-119 -34.5t-161.5 -9.5t-161.5 9.5t-119 34.5t-84 64t-52.5 103.5t-28.5 145.5 t-7.5 198zM307 539q0 -92 2 -142.5t11.5 -97.5t23 -67t44 -36t66.5 -19t97 -3q46 0 75.5 1.5t57 9.5t43.5 17t30 31t20.5 45t11 65t5.5 85t1 111q0 92 -2 144t-12 98.5t-23.5 66.5t-44 35.5t-66 18.5t-96.5 3q-62 0 -97.5 -3t-66 -18.5t-44 -35.5t-23 -67t-11.5 -98t-2 -144 z" />
<glyph unicode="p" horiz-adv-x="1163" d="M123 -348v1427h123q35 0 49 -15t20 -54l17 -119l47 96q30 64 83.5 86.5t182.5 22.5q99 0 165.5 -15t118 -50.5t80 -100t42.5 -159t14 -232.5t-14 -232.5t-42.5 -159t-80 -100t-118 -50.5t-165.5 -15q-91 0 -143 12.5t-70.5 29.5t-34.5 50l-47 96v-588h-157q-70 0 -70 70z M350 522q0 -201 45.5 -274.5t179.5 -73.5q47 0 74.5 1t58.5 7t47 15.5t33.5 28.5t24.5 44.5t14 65t9 87.5t2 116t-2 116.5t-9 88.5t-14 65t-24.5 44t-33.5 28.5t-47 15.5t-58.5 7t-74.5 1q-71 0 -112.5 -14.5t-68 -55.5t-35.5 -105t-9 -173v-35z" />
<glyph unicode="q" horiz-adv-x="1161" d="M98 539q0 172 20.5 278.5t72.5 169.5t127.5 86t197.5 23q90 0 139.5 -10.5t76 -32t50.5 -66.5l47 -96l17 119q6 39 20 54t49 15h123v-1427q0 -70 -69 -70h-158v588l-47 -96q-16 -33 -34.5 -50t-70.5 -29.5t-143 -12.5q-122 0 -197.5 23t-127.5 86t-72.5 169.5 t-20.5 278.5zM324 539q0 -68 2 -116t8.5 -87.5t14 -65t24.5 -44.5t33 -28.5t47 -15.5t58.5 -7t74.5 -1q134 0 179.5 73.5t45.5 274.5v35q0 109 -9 173t-35.5 105t-68 55.5t-112.5 14.5q-37 0 -60.5 -0.5t-50.5 -4t-42.5 -8.5t-33 -15t-26.5 -23.5t-19.5 -34.5t-14.5 -46.5 t-8.5 -61t-5.5 -77t-1 -95.5z" />
<glyph unicode="r" horiz-adv-x="808" d="M123 70v1009h123q35 0 49 -15t20 -54l17 -107l47 96q21 44 62 62t134 18h193v-123q0 -69 -70 -69h-139q-118 0 -163.5 -60.5t-45.5 -214.5v-612h-157q-70 0 -70 70z" />
<glyph unicode="s" horiz-adv-x="962" d="M98 0v121q0 72 72 72h311q112 0 152.5 28t40.5 109v78l-342 75q-54 12 -91 25.5t-63.5 31.5t-42 37t-24 49.5t-11 61t-2.5 78.5q0 159 90 236t293 77h350v-121q0 -71 -69 -71h-281q-109 0 -149.5 -26t-40.5 -95v-78l344 -76q64 -15 105 -33t66.5 -39.5t38 -57.5t16 -72.5 t3.5 -98.5q0 -150 -90.5 -230.5t-292.5 -80.5h-383z" />
<glyph unicode="t" horiz-adv-x="700" d="M123 418v942h158q67 0 67 -72v-209h262v-121q0 -71 -69 -71h-193v-469q0 -43 1 -71t5.5 -53.5t9.5 -40.5t18 -27.5t26 -18t37.5 -9.5t48 -4t63.5 -1q70 0 70 -72v-121h-138q-94 0 -159 17.5t-105.5 48t-63 84.5t-30.5 115.5t-8 152.5z" />
<glyph unicode="u" horiz-adv-x="1134" d="M123 330v749h158q69 0 69 -69v-680q0 -37 2 -60t10.5 -42t20 -28.5t35 -16t51.5 -8t74 -1.5q125 0 184 54t59 171v680h156q70 0 70 -69v-1010h-140q-35 0 -49 15.5t-20 54.5l-17 100l-47 -96q-17 -38 -44 -56.5t-81.5 -27t-158.5 -8.5q-98 0 -156 13t-100.5 50.5 t-59 105.5t-16.5 179z" />
<glyph unicode="v" horiz-adv-x="1134" d="M98 1010v69h121q49 0 64.5 -13t31.5 -62l248 -846h10l248 846q14 48 30.5 61.5t66.5 13.5h118v-69q0 -72 -20 -133l-258 -791q-12 -35 -29.5 -52t-54.5 -25.5t-107 -8.5q-101 0 -135.5 17t-52.5 69l-258 791q-23 77 -23 133z" />
<glyph unicode="w" horiz-adv-x="1589" d="M98 1010v69h123q50 0 69 -13.5t29 -57.5l158 -850h10l115 575q9 44 23.5 64t52.5 29.5t117 9.5q78 0 115 -9.5t51.5 -29t23.5 -64.5l119 -575h10l156 850q10 44 29 57.5t69 13.5h123v-69q0 -57 -14 -123l-183 -801q-12 -51 -47 -68.5t-139 -17.5q-106 0 -148.5 23.5 t-54.5 95.5l-106 534h-8l-105 -534q-17 -73 -57.5 -96t-147.5 -23q-102 0 -138 17.5t-48 68.5l-182 801q-15 70 -15 123z" />
<glyph unicode="x" horiz-adv-x="1150" d="M123 0v86q0 42 8 68.5t31 56.5l280 338l-258 319q-24 26 -34.5 56.5t-10.5 85.5v69h105q50 0 72 -9.5t42 -41.5l211 -350h11l211 350q23 32 44 41.5t72 9.5h103v-69q0 -54 -9.5 -84.5t-31.5 -57.5l-260 -319l278 -338q24 -30 32.5 -56.5t8.5 -68.5v-86h-86 q-53 0 -76 11.5t-47 47.5l-239 342h-11l-237 -342q-26 -36 -48 -47.5t-75 -11.5h-86z" />
<glyph unicode="y" d="M98 1010v69h140q49 0 67 -15t29 -58l186 -832h152l149 825q8 45 28 62.5t69 17.5h139v-69q0 -58 -17 -158l-231 -1016q-30 -138 -102.5 -196t-225.5 -58h-297v121q0 72 72 72h201q92 0 120.5 18t40.5 92l21 111q-42 -10 -94 -10q-61 0 -103.5 17t-71 55t-44.5 78.5 t-35 107.5l-176 626q-17 52 -17 140z" />
<glyph unicode="z" horiz-adv-x="946" d="M98 70v104l486 715h-416q-70 0 -70 69v121h680q70 0 70 -69v-105l-488 -715h418q70 0 70 -69v-121h-680q-70 0 -70 70z" />
<glyph unicode="{" horiz-adv-x="886" d="M74 528v156h121q76 0 107.5 31t31.5 108v152q0 57 1.5 98.5t5 85.5t10.5 75t18.5 62.5t27.5 52.5t38.5 41.5t51 32.5t65.5 21.5t82.5 13.5t100.5 4h103v-139q0 -36 -16 -53t-52 -17q-113 0 -161 -35t-48 -139v-256q0 -110 -32.5 -170.5t-108.5 -72.5q76 -13 108.5 -73.5 t32.5 -170.5v-371q0 -104 48 -139t161 -35q36 0 52 -17.5t16 -54.5v-137h-103q-61 0 -110 5.5t-88.5 15.5t-69 28.5t-51 39t-36 53t-24 65t-14.5 80t-6.5 93t-1.5 108.5v231q0 158 -139 158h-52q-69 0 -69 69z" />
<glyph unicode="|" horiz-adv-x="372" d="M74 -348v1882h157q36 0 52 -17.5t16 -54.5v-1880h-154q-71 0 -71 70z" />
<glyph unicode="}" horiz-adv-x="886" d="M49 -281q0 37 16 54.5t52 17.5q113 0 161 35t48 139v371q0 110 32.5 170.5t108.5 73.5q-76 12 -108.5 72.5t-32.5 170.5v256q0 104 -48 139t-161 35q-36 0 -52 17t-16 53v139h103q55 0 100.5 -4t82.5 -13.5t65.5 -21.5t51 -32.5t38.5 -41.5t27.5 -52.5t18.5 -62.5 t10.5 -75t5 -85.5t1.5 -98.5v-152q0 -77 31.5 -108t107.5 -31h121v-156q0 -69 -70 -69h-51q-139 0 -139 -158v-231q0 -63 -1.5 -108.5t-6.5 -93t-14.5 -80t-24 -65t-36 -53t-51 -39t-69 -28.5t-88.5 -15.5t-110 -5.5h-103v137z" />
<glyph unicode="~" horiz-adv-x="1036" d="M74 487v105q0 186 59 266t201 80q46 0 90.5 -20.5t79 -50t66.5 -58.5t66.5 -49.5t65.5 -20.5q32 0 50 31t18 86q0 59 13 70.5t73 11.5h107v-102q0 -187 -58.5 -268t-202.5 -81q-48 0 -92 20.5t-78 49.5t-65 58.5t-65.5 50t-67.5 20.5q-66 0 -66 -113q0 -59 -15.5 -72.5 t-68.5 -13.5h-110z" />
<glyph unicode="&#xa2;" horiz-adv-x="978" d="M82 782q0 117 10 196.5t33.5 139.5t67 95.5t104.5 56t152 28.5v164q0 70 69 70h156v-225h244v-123q0 -70 -70 -70h-191q-70 0 -112.5 -1t-85.5 -7.5t-65.5 -14.5t-44.5 -27t-31 -40t-16.5 -59t-9 -79t-1.5 -104q0 -64 1.5 -104.5t9.5 -78.5t16.5 -59t31 -39.5t44 -26 t66 -13.5t85.5 -7t112 -1h191q70 0 70 -70v-123h-244v-190q0 -70 -70 -70h-155v268q-91 8 -152 28t-104.5 55.5t-67 95.5t-33.5 139t-10 196z" />
<glyph unicode="&#xa3;" horiz-adv-x="1241" d="M98 0v139q0 70 70 70q81 0 112.5 48.5t43.5 195.5l16 190h-172v123q0 70 70 70h116l27 370q8 127 81.5 191.5t227.5 64.5h383v-121q0 -37 -15.5 -54t-51.5 -17h-396l-32 -434h356v-121q0 -72 -70 -72h-299l-14 -190q-13 -190 -51 -244h643v-139q0 -70 -70 -70h-975z" />
<glyph unicode="&#xa5;" horiz-adv-x="1331" d="M74 1360v102h106q39 0 62 -7.5t39 -33.5l354 -602h63l357 602q12 27 35 34t65 7h102v-102q0 -40 -28 -84l-291 -457h221v-123q0 -36 -15.5 -52.5t-51.5 -16.5h-887v123q0 37 15.5 53t51.5 16h121l-291 457q-28 44 -28 84zM205 348v121q0 72 69 72h885v-123 q0 -37 -15.5 -53.5t-51.5 -16.5h-314v-278q0 -37 -15.5 -53.5t-51.5 -16.5h-158v348h-348z" />
<glyph unicode="&#xa8;" horiz-adv-x="739" d="M74 1325v154h157q36 0 52 -16t16 -52v-158h-156q-69 0 -69 72zM440 1253v158q0 37 15.5 52.5t52.5 15.5h158v-154q0 -72 -72 -72h-154z" />
<glyph unicode="&#xa9;" horiz-adv-x="2015" d="M102 557q0 212 53.5 377t163 284t283.5 181.5t406 62.5t406 -62.5t283 -181.5t162.5 -284t53.5 -377t-53.5 -377t-162.5 -284t-283 -181.5t-406 -62.5t-406 62.5t-283.5 181.5t-163 284t-53.5 377zM555 539q0 -88 5 -153.5t19 -121.5t33.5 -94.5t53.5 -69.5t75 -49 t101 -30t128 -16.5t160 -4.5h191v121q0 69 -70 69h-121q-70 0 -112 1t-85.5 7.5t-65.5 14.5t-44.5 28t-31 42t-16.5 62.5t-9.5 83.5t-1.5 110q0 68 1.5 111t9.5 83t16 62t31 42t44.5 28t66 14t85.5 7t112 1h121q70 0 70 69v123h-191q-92 0 -160 -4.5t-128 -16.5t-101 -30.5 t-75 -49t-53.5 -69.5t-33.5 -95t-19 -121.5t-5 -153.5z" />
<glyph unicode="&#xab;" horiz-adv-x="1280" d="M74 678q0 49 19 85t54 75l285 327q48 54 111 54h106v-103q0 -37 -11 -62t-42 -57l-297 -313v-8l297 -316q31 -31 42 -55t11 -61v-105h-106q-64 0 -111 56l-285 323q-36 44 -54.5 79t-18.5 81zM631 678q0 49 18 85.5t53 74.5l287 327q48 54 111 54h106v-103q0 -37 -11 -62 t-40 -57l-297 -313v-8l297 -316q29 -31 40 -55.5t11 -60.5v-105h-106q-64 0 -111 56l-287 323q-35 42 -53 78t-18 82z" />
<glyph unicode="&#xad;" horiz-adv-x="806" d="M98 541v121q0 71 72 71h539v-123q0 -69 -70 -69h-541z" />
<glyph unicode="&#xae;" horiz-adv-x="1982" d="M86 627q0 212 54 377.5t163 284.5t283.5 182t406.5 63q231 0 405 -63t282.5 -182t162 -284.5t53.5 -377.5q0 -169 -33.5 -308.5t-104 -251t-176.5 -188t-254.5 -117.5t-334.5 -41q-232 0 -406.5 63t-283.5 182t-163 284t-54 377zM627 70h157q37 0 52.5 16t15.5 53v348 h121l168 -337q28 -54 51 -67t78 -13h106v88q0 30 -5.5 52.5t-12 35t-23.5 39.5l-139 239q108 29 152.5 101.5t44.5 210.5q0 105 -19.5 172t-66 106.5t-112 54.5t-167.5 15h-330q-71 0 -71 -68v-1046zM852 678v315h176q104 0 130 -26.5t26 -130.5q0 -105 -26 -131.5 t-130 -26.5h-176z" />
<glyph unicode="&#xb4;" horiz-adv-x="495" d="M74 1253v72q0 31 4.5 46t21.5 38l131 186q27 40 41 50t45 10h105v-105q0 -47 -7 -65.5t-32 -42.5l-174 -160q-31 -24 -49 -28q-7 -1 -17 -1h-69z" />
<glyph unicode="&#xb8;" horiz-adv-x="616" d="M74 -279q0 70 67 70h158q45 0 66.5 23.5t21.5 79.5q0 61 -26 83.5t-97 22.5v70q85 0 140 -13t85.5 -42.5t42 -69.5t11.5 -103q0 -123 -64 -183t-215 -60h-190v122z" />
<glyph unicode="&#xbb;" horiz-adv-x="1280" d="M74 139v105q0 36 11 60.5t40 55.5l297 316v8l-297 313q-29 32 -40 57t-11 62v103h106q63 0 111 -54l287 -327q35 -38 53 -74.5t18 -85.5q0 -46 -18 -82t-53 -78l-287 -323q-47 -56 -111 -56h-106zM631 139v105q0 37 11 61t42 55l297 316v8l-297 313q-31 32 -42 57t-11 62 v103h106q63 0 111 -54l285 -327q35 -39 54 -75t19 -85q0 -46 -18.5 -81t-54.5 -79l-285 -323q-47 -56 -111 -56h-106z" />
<glyph unicode="&#x2c6;" horiz-adv-x="811" d="M74 1253v88q0 43 7.5 63t31.5 44l174 176q19 19 36.5 25t65.5 6h33q48 0 65.5 -6t36.5 -25l174 -176q24 -24 31.5 -44t7.5 -63v-88h-106q-29 0 -41 9.5t-45 50.5l-139 190l-140 -190q-35 -45 -47 -52q-14 -8 -39 -8h-106z" />
<glyph unicode="&#x2dc;" horiz-adv-x="757" d="M74 1253v107q0 36 16 51.5t53 15.5h297q44 0 56 12.5t12 57.5q0 72 70 72h106v-72q0 -129 -57 -186.5t-187 -57.5h-366z" />
<glyph unicode="&#x401;" horiz-adv-x="1142" d="M133 0v1393q0 69 70 69h817v-139q0 -36 -16 -53t-52 -17h-594v-383h627v-137q0 -71 -70 -71h-557v-453h662v-139q0 -37 -16 -53.5t-52 -16.5h-819zM285 1681v154h157q36 0 52 -16t16 -52v-157h-156q-69 0 -69 71zM651 1610v157q0 37 15.5 52.5t52.5 15.5h158v-154 q0 -71 -72 -71h-154z" />
<glyph unicode="&#x402;" horiz-adv-x="1449" d="M98 1253v140q0 69 70 69h975v-139q0 -70 -70 -70h-348v-413l31 61q24 48 74.5 70t173.5 22q96 0 158 -15.5t106.5 -56t64 -112t19.5 -182.5v-174q0 -112 -17 -190t-59.5 -140t-123 -92.5t-200.5 -30.5h-104v121q0 69 70 69q53 0 81.5 1.5t55.5 12t38 24.5t20 47t11 72 t2 106v174q0 104 -37 139t-137 35q-70 0 -114 -13.5t-69 -46.5t-34.5 -79.5t-9.5 -120.5v-471q0 -70 -70 -70h-155v1253h-402z" />
<glyph unicode="&#x403;" horiz-adv-x="1015" d="M133 0v1393q0 69 72 69h713v-137q0 -72 -70 -72h-486v-1183q0 -70 -71 -70h-158zM367 1614v72q0 31 4.5 45.5t21.5 37.5l131 187q27 39 41 49t45 10h105v-104q0 -47 -7 -66.5t-32 -42.5l-174 -160q-15 -11 -21.5 -15.5t-18 -8.5t-26.5 -4h-69z" />
<glyph unicode="&#x404;" horiz-adv-x="1120" d="M78 643v174q0 141 12.5 239.5t46 172.5t80.5 117.5t127.5 70.5t175.5 36t236 9h262v-139q0 -70 -70 -70h-192q-87 0 -136.5 -1t-104.5 -8t-81.5 -16t-55.5 -31.5t-39.5 -48.5t-21 -71.5t-12.5 -96.5t-2 -128h506v-139q0 -70 -70 -70h-436q0 -68 1 -114t6.5 -91.5 t10.5 -73t21.5 -54.5t30 -41t44 -27.5t56.5 -18t75.5 -9t92.5 -5t115 -0.5h192q70 0 70 -70v-139h-262q-141 0 -236 9t-175.5 35.5t-127.5 70t-80.5 117t-46 172t-12.5 239.5z" />
<glyph unicode="&#x405;" d="M98 0v139q0 70 70 70h332q82 0 133 3t90.5 14.5t59 25.5t31.5 45.5t14.5 64t2.5 91.5v137l-475 96q-62 13 -98 25t-70.5 34t-52 55t-27.5 84.5t-10 125.5q0 96 10.5 165t37.5 120.5t64.5 83t98.5 50.5t133.5 26t175.5 7h386v-137q0 -72 -70 -72h-316q-54 0 -92 -1.5 t-70 -7.5t-52.5 -13t-36 -22.5t-23.5 -30.5t-13 -43t-6 -55t-1 -70v-101l522 -110q82 -17 125.5 -50.5t64.5 -103t21 -192.5q0 -94 -13.5 -164t-44 -120.5t-73 -83t-108 -51.5t-140.5 -26.5t-178 -7.5h-402z" />
<glyph unicode="&#x406;" horiz-adv-x="491" d="M133 0v1393q0 69 70 69h155v-1392q0 -70 -69 -70h-156z" />
<glyph unicode="&#x407;" horiz-adv-x="491" d="M-49 1683v154h158q35 0 51 -15.5t16 -52.5v-157h-156q-69 0 -69 71zM133 0v1393q0 69 70 69h155v-1392q0 -70 -69 -70h-156zM317 1612v157q0 37 15.5 52.5t52.5 15.5h158v-154q0 -71 -72 -71h-154z" />
<glyph unicode="&#x408;" horiz-adv-x="1052" d="M98 383v104h140q69 0 69 -69q0 -54 3 -89t13 -61.5t23 -40t39 -22t54.5 -10.5t76.5 -2t76.5 2t54.5 10.5t39 22t23 40t13 61.5t3 89v975q0 69 72 69h157v-1044q0 -131 -21.5 -213.5t-75 -132.5t-134 -69t-207.5 -19q-165 0 -254 37t-126.5 121.5t-37.5 240.5z" />
<glyph unicode="&#x409;" horiz-adv-x="2035" d="M74 0v139q0 70 69 70h150l78 1184q5 38 19 53.5t50 15.5h729q72 0 72 -69v-486h225q99 0 169 -8.5t124 -30t87 -53.5t54 -85t29 -118t8 -159q0 -93 -8 -158t-29 -118t-54 -85t-87 -53.5t-124 -30t-169 -8.5h-383q-36 0 -51.5 16.5t-15.5 53.5v1183h-438l-60 -938 q-12 -180 -85 -247.5t-257 -67.5h-102zM1241 209h225q47 0 76 1t57.5 5.5t43.5 10.5t29.5 20.5t20.5 29.5t10.5 43.5t5.5 57.5t1 76q0 63 -1.5 97.5t-12 66t-23 44t-44 22.5t-66 11.5t-97.5 1.5h-225v-487z" />
<glyph unicode="&#x40a;" horiz-adv-x="1904" d="M133 70v1392h158q36 0 51.5 -16t15.5 -53v-541h525v610h157q68 0 68 -69v-486h227q99 0 169 -8.5t124 -30t87 -53.5t54 -85t29 -118t8 -159q0 -93 -8 -158t-29 -118t-54 -85t-87 -53.5t-124 -30t-169 -8.5h-383q-69 0 -69 70v573h-525v-643h-153q-72 0 -72 70zM1108 209 h227h62.5t49.5 2t41 4.5t30.5 9.5t24.5 14.5l15 22.5t11.5 30.5t5.5 41.5t4 52.5v66.5v66t-4 52.5t-5 41.5t-11 30.5t-15 22.5t-23.5 14t-29 9.5t-40 4.5t-48 2h-60.5h-8h-227v-487z" />
<glyph unicode="&#x40b;" horiz-adv-x="1449" d="M98 1253v140q0 69 70 69h975v-139q0 -70 -70 -70h-348v-413l31 61q24 48 74.5 70t173.5 22q96 0 158 -15.5t106.5 -56t64 -112t19.5 -182.5v-627h-156q-70 0 -70 70v557q0 104 -37 139t-137 35q-70 0 -114 -13.5t-69 -46.5t-34.5 -79.5t-9.5 -120.5v-471q0 -70 -70 -70 h-155v1253h-402z" />
<glyph unicode="&#x40c;" horiz-adv-x="1169" d="M133 0v1393q0 69 70 69h155v-643h13l477 574q36 48 56.5 58.5t72.5 10.5h102v-102q0 -50 -12.5 -81t-38.5 -60l-455 -482l486 -512q23 -23 30 -47.5t7 -75.5v-102h-86q-47 0 -72.5 9.5t-54.5 43.5l-512 590h-13v-573q0 -37 -15.5 -53.5t-51.5 -16.5h-158zM526 1614v72 q0 30 5 45t22 38l131 187q27 39 41 49t45 10h104v-104q0 -47 -6.5 -66.5t-31.5 -42.5l-174 -160q-15 -11 -21.5 -15.5t-18 -8.5t-26.5 -4h-70z" />
<glyph unicode="&#x40e;" horiz-adv-x="1206" d="M98 1360v102h123q49 0 70 -21t33 -81l168 -768h204l213 801q11 39 30 54t67 15h102v-102q0 -74 -16 -123l-244 -883q-14 -51 -23 -81.5t-22 -68.5t-25 -59t-28.5 -46t-35 -38t-43 -27t-55 -20t-68 -10t-83.5 -4h-281v139q0 70 72 70h209q77 0 108.5 22.5t51.5 90.5l24 92 q-81 -11 -137 -11q-55 0 -95.5 17t-66 52t-40.5 69.5t-29 87.5l-166 624q-17 57 -17 107zM330 1833v104h106q37 0 52.5 -15t15.5 -52q0 -82 20 -102.5t86 -20.5q43 0 62 6.5t30 33t11 83.5q0 36 16.5 51.5t52.5 15.5h105v-104q0 -131 -62 -187.5t-215 -56.5 q-156 0 -218 56.5t-62 187.5z" />
<glyph unicode="&#x40f;" horiz-adv-x="1259" d="M133 70v1392h158q36 0 51.5 -16t15.5 -53v-1184h541v1184q0 69 70 69h157v-1392q0 -70 -69 -70h-332v-209h-158q-36 0 -51.5 16.5t-15.5 53.5v139h-295q-72 0 -72 70z" />
<glyph unicode="&#x410;" horiz-adv-x="1398" d="M98 0v106q0 67 17 119l366 1135q18 50 36 69t55 26t126 7q54 0 84 -2t55 -7t38 -17.5t22.5 -29t20.5 -46.5l364 -1135q18 -48 18 -119v-106h-86q-73 0 -98 20.5t-43 85.5l-80 261h-587l-82 -261q-12 -37 -19 -52.5t-22 -30.5t-37.5 -19t-61.5 -4h-86zM465 557h469 l-221 713h-27z" />
<glyph unicode="&#x411;" horiz-adv-x="1173" d="M133 0v1393q0 69 72 69h747v-137q0 -72 -69 -72h-525v-311h265q122 0 202.5 -20.5t139 -73.5t84.5 -145.5t26 -233.5q0 -140 -26 -231.5t-84.5 -144t-139 -73t-202.5 -20.5h-490zM358 209h265q53 0 83 2t59 11.5t42 25t24 46t14 71t3 104.5t-3 105t-13.5 72.5t-24 47 t-42.5 25.5t-59 12t-83 2h-265v-524z" />
<glyph unicode="&#x412;" horiz-adv-x="1259" d="M133 0v1393q0 69 70 69h450q187 0 287.5 -37t143 -122t42.5 -242q0 -142 -44 -211t-148 -88q75 -21 122.5 -57.5t76 -112t28.5 -191.5q0 -117 -28.5 -195.5t-90 -123.5t-146 -63.5t-206.5 -18.5h-557zM358 209h332q61 0 97.5 2t66.5 12t43.5 22t23 40t11.5 58.5t2 84.5 q0 53 -2 84t-9.5 60.5t-20.5 44t-37 26.5t-57 15.5t-83 3.5h-367v-453zM358 852h332q52 0 83 2t57 11t37.5 20.5t20 38t10 56t1.5 81.5q0 44 -2 69t-11 49.5t-24 36.5t-43.5 21.5t-67.5 12.5t-98 3h-295v-401z" />
<glyph unicode="&#x413;" horiz-adv-x="1015" d="M133 0v1393q0 69 72 69h713v-137q0 -72 -70 -72h-486v-1183q0 -70 -71 -70h-158z" />
<glyph unicode="&#x414;" horiz-adv-x="1538" d="M74 0v139q0 70 71 70h148l80 1184q5 39 18.5 54t48.5 15h695q35 0 49 -16t16 -53l82 -1184h182v-139q0 -70 -69 -70h-1321zM500 209h571q-3 21 -7 62t-7 61l-62 921h-415l-64 -921q-1 -26 -16 -123z" />
<glyph unicode="&#x415;" horiz-adv-x="1142" d="M133 0v1393q0 69 70 69h817v-139q0 -36 -16 -53t-52 -17h-594v-383h627v-137q0 -71 -70 -71h-557v-453h662v-139q0 -37 -16 -53.5t-52 -16.5h-819z" />
<glyph unicode="&#x416;" horiz-adv-x="1900" d="M98 0v106q0 45 8.5 69.5t28.5 49.5l490 512l-455 482q-28 30 -41.5 60.5t-13.5 80.5v102h106q50 0 71 -10.5t56 -58.5l477 -574h13v574q0 69 69 69h158v-643h8l477 574q41 49 60 59t71 10h103v-102q0 -51 -12 -82t-39 -59l-455 -482l487 -512q21 -24 29 -48.5t8 -70.5 v-106h-86q-48 0 -73.5 9t-55.5 44l-514 590h-8v-573q0 -70 -72 -70h-155v643h-13l-510 -590q-30 -35 -55.5 -44t-73.5 -9h-88z" />
<glyph unicode="&#x417;" horiz-adv-x="1171" d="M98 0v139q0 70 70 70h608l-289 407q-35 50 -35 114.5t35 115.5l289 407h-608q-70 0 -70 70v139h906q69 0 69 -69v-113l-389 -549l389 -549v-112q0 -70 -69 -70h-906z" />
<glyph unicode="&#x418;" horiz-adv-x="1380" d="M133 0v1462h156q69 0 69 -69v-1096l539 1112q14 31 34.5 42t72.5 11h243v-1462h-157q-70 0 -70 70v1097l-539 -1114q-12 -30 -33 -41.5t-71 -11.5h-244z" />
<glyph unicode="&#x419;" horiz-adv-x="1380" d="M133 0v1462h156q69 0 69 -69v-1096l539 1112q14 31 34.5 42t72.5 11h243v-1462h-157q-70 0 -70 70v1097l-539 -1114q-12 -30 -33 -41.5t-71 -11.5h-244zM387 1853v105h107q37 0 52 -15.5t15 -52.5q0 -44 4.5 -68t19 -36.5t31.5 -15.5t52 -3q62 0 82 20.5t20 102.5 q0 36 17 52t53 16h104v-105q0 -131 -61.5 -187t-214.5 -56q-156 0 -218.5 56t-62.5 187z" />
<glyph unicode="&#x41a;" horiz-adv-x="1169" d="M133 0v1393q0 69 70 69h155v-643h13l477 574q36 48 56.5 58.5t72.5 10.5h102v-102q0 -50 -12.5 -81t-38.5 -60l-455 -482l486 -512q23 -23 30 -47.5t7 -75.5v-102h-86q-47 0 -72.5 9.5t-54.5 43.5l-512 590h-13v-573q0 -37 -15.5 -53.5t-51.5 -16.5h-158z" />
<glyph unicode="&#x41b;" horiz-adv-x="1390" d="M74 0v139q0 70 69 70h150l78 1184q5 38 19 53.5t50 15.5h748q69 0 69 -69v-1393h-155q-70 0 -70 70v1183h-454l-60 -938q-12 -180 -85 -247.5t-257 -67.5h-102z" />
<glyph unicode="&#x41c;" horiz-adv-x="1624" d="M133 0v1393q0 69 70 69h225l385 -1030l383 1030h225q70 0 70 -69v-1393h-156q-69 0 -69 70v974l-344 -925q-15 -35 -109 -35q-96 0 -108 35l-345 925v-974q0 -70 -71 -70h-156z" />
<glyph unicode="&#x41d;" horiz-adv-x="1259" d="M133 70v1392h158q67 0 67 -69v-541h541v610h156q71 0 71 -69v-1393h-157q-70 0 -70 70v573h-541v-643h-155q-70 0 -70 70z" />
<glyph unicode="&#x41e;" horiz-adv-x="1277" d="M98 643v176q0 138 12 239.5t41 175.5t69 121t103.5 75t137.5 38.5t178 10.5t178 -10.5t137.5 -38.5t103.5 -75t69 -121t41 -175.5t12 -239.5v-176q0 -138 -12 -239.5t-41 -175.5t-69 -120.5t-103.5 -74.5t-137.5 -38.5t-178 -10.5t-178 10.5t-137.5 38.5t-103.5 74.5 t-69 120.5t-41 175.5t-12 239.5zM328 643q0 -84 1.5 -139.5t8 -106.5t14.5 -80.5t26.5 -55t38 -37t55.5 -19.5t72.5 -10t94.5 -2t94 2t72.5 10t56.5 19.5t39 37t27.5 55t15.5 80t8.5 107t1.5 139.5v176q0 83 -1.5 139.5t-8.5 107t-15.5 80.5t-27.5 55t-39 37t-56.5 20 t-72.5 10t-94 2t-94.5 -2t-72.5 -10.5t-55.5 -19.5t-38 -37t-26.5 -55t-14.5 -80.5t-8 -107t-1.5 -139.5v-176z" />
<glyph unicode="&#x41f;" horiz-adv-x="1275" d="M133 0v1393q0 69 72 69h870q37 0 52.5 -16t15.5 -53v-1393h-154q-71 0 -71 70v1183h-560v-1183q0 -37 -15.5 -53.5t-51.5 -16.5h-158z" />
<glyph unicode="&#x420;" horiz-adv-x="1224" d="M133 0v1393q0 69 72 69h452q145 0 235 -24.5t143 -85t72 -148t19 -229.5t-19 -229.5t-72 -148.5t-143 -85.5t-235 -24.5h-299v-417q0 -37 -15.5 -53.5t-51.5 -16.5h-158zM358 696h299q59 0 95.5 3t66 15.5t43.5 28.5t23.5 51t11.5 74t2 107q0 67 -2 106t-11.5 74 t-23.5 51t-43.5 28.5t-66 15.5t-95.5 3h-299v-557z" />
<glyph unicode="&#x421;" horiz-adv-x="1120" d="M98 715v35q0 123 5.5 210t23 163.5t41.5 126t70 90t100 62t138.5 36.5t178.5 19.5t228 4.5h155v-139q0 -70 -69 -70h-51q-121 0 -186.5 -1t-140 -10t-107 -19t-70.5 -39.5t-49 -59.5t-23.5 -90.5t-14 -121t-1.5 -162.5v-35q0 -103 1.5 -164t14 -122t23.5 -91t49.5 -59.5 t70.5 -39.5t107 -19t139.5 -10t186.5 -1h51q69 0 69 -70v-139h-155q-134 0 -228 5t-178.5 20t-138.5 37t-99.5 62.5t-70 90t-42 126.5t-23 164t-5.5 210z" />
<glyph unicode="&#x422;" horiz-adv-x="1191" d="M74 1253v140q0 69 69 69h975v-137q0 -72 -71 -72h-347v-1183q0 -70 -71 -70h-154v1253h-401z" />
<glyph unicode="&#x423;" horiz-adv-x="1206" d="M98 1360v102h123q49 0 70 -21t33 -81l168 -768h204l213 801q11 39 30 54t67 15h102v-102q0 -74 -16 -123l-244 -883q-14 -51 -23 -81.5t-22 -68.5t-25 -59t-28.5 -46t-35 -38t-43 -27t-55 -20t-68 -10t-83.5 -4h-281v139q0 70 72 70h209q77 0 108.5 22.5t51.5 90.5l24 92 q-81 -11 -137 -11q-55 0 -95.5 17t-66 52t-40.5 69.5t-29 87.5l-166 624q-17 57 -17 107z" />
<glyph unicode="&#x424;" horiz-adv-x="1607" d="M98 958q0 140 22 231t77 154.5t149.5 91t239.5 27.5h434q144 0 238 -27.5t150 -91t78.5 -155t22.5 -230.5q0 -140 -22.5 -231.5t-78.5 -155t-150 -91t-238 -27.5h-102v-383q0 -70 -70 -70h-158v453h-104q-145 0 -239.5 27.5t-149.5 91t-77 155t-22 231.5zM324 958 q0 -73 2 -113.5t12 -78.5t25 -54.5t47 -30t71.5 -16.5t104.5 -3h104v591h-104q-65 0 -104.5 -3t-71.5 -16t-47 -29.5t-25 -54.5t-12 -78.5t-2 -113.5zM918 662h102q66 0 105.5 3t71.5 16.5t46.5 29.5t24.5 54.5t12 79t2 113.5t-2 113.5t-12 78.5t-24.5 54.5t-46.5 29.5 t-71.5 16t-105.5 3h-102v-591z" />
<glyph unicode="&#x425;" horiz-adv-x="1312" d="M98 0v106q0 37 29 82l391 570l-356 518q-29 42 -29 84v102h105q70 0 108 -51l309 -487l312 487q38 51 106 51h107v-102q0 -42 -29 -84l-356 -518l389 -570q30 -41 30 -82v-106h-106q-72 0 -109 53l-344 539l-344 -539q-37 -53 -106 -53h-107z" />
<glyph unicode="&#x426;" horiz-adv-x="1413" d="M133 70v1392h156q69 0 69 -69v-1184h576v1253h156q71 0 71 -69v-1184h86q36 0 52 -16.5t16 -53.5v-348h-154q-71 0 -71 70v139h-887q-70 0 -70 70z" />
<glyph unicode="&#x427;" horiz-adv-x="1153" d="M98 907v555h158q68 0 68 -69v-486q0 -56 3 -92t13.5 -65t26 -45t45 -26.5t65 -13.5t90.5 -3h228v800h155q70 0 70 -69v-1393h-156q-69 0 -69 70v383h-228q-110 0 -183 11t-131.5 39.5t-90.5 80.5t-48 130t-16 193z" />
<glyph unicode="&#x428;" horiz-adv-x="1886" d="M133 70v1392h158q36 0 51.5 -16t15.5 -53v-1184h471v1253h156q72 0 72 -69v-1184h469v1184q0 69 69 69h158v-1392q0 -70 -70 -70h-1480q-70 0 -70 70z" />
<glyph unicode="&#x429;" horiz-adv-x="2009" d="M133 70v1392h158q36 0 51.5 -16t15.5 -53v-1184h471v1253h156q72 0 72 -69v-1184h469v1184q0 69 69 69h158v-1253h86q72 0 72 -70v-348h-158q-70 0 -70 70v139h-1480q-70 0 -70 70z" />
<glyph unicode="&#x42a;" horiz-adv-x="1292" d="M98 1325v137h332q70 0 70 -69v-486h225q98 0 168 -8.5t124 -30t86.5 -53.5t53.5 -85t29 -118t8 -159q0 -112 -12.5 -185.5t-42 -128t-84.5 -83.5t-133.5 -42.5t-196.5 -13.5h-383q-70 0 -70 70v1183h-104q-70 0 -70 72zM500 209h225q62 0 96.5 1.5t66 11.5t44.5 23t23 44 t12 66.5t2 97.5t-2 97t-12 66t-23 44t-44.5 23t-65.5 11.5t-97 1.5h-225v-487z" />
<glyph unicode="&#x42b;" horiz-adv-x="1597" d="M133 70v1392h158q36 0 51.5 -16t15.5 -53v-486h230q98 0 168 -8.5t124 -30t86.5 -53.5t53.5 -85t29 -118t8 -159q0 -112 -12.5 -185.5t-42 -128t-84.5 -83.5t-133.5 -42.5t-196.5 -13.5h-383q-72 0 -72 70zM358 209h230q47 0 75.5 1t57 5.5t43.5 10.5t29.5 20.5 t20.5 29.5t10.5 43.5t5.5 57.5t1 76q0 63 -1.5 97.5t-12 65.5t-23 44t-44 23t-65.5 11.5t-97 1.5h-230v-487zM1237 0v1393q0 69 70 69h157v-1392q0 -70 -71 -70h-156z" />
<glyph unicode="&#x42c;" d="M133 70v1392h158q36 0 51.5 -16t15.5 -53v-486h230q98 0 168 -8.5t124 -30t86.5 -53.5t53.5 -85t29 -118t8 -159q0 -112 -12.5 -185.5t-42 -128t-84.5 -83.5t-133.5 -42.5t-196.5 -13.5h-383q-72 0 -72 70zM358 209h230q47 0 75.5 1t57 5.5t43.5 10.5t29.5 20.5 t20.5 29.5t10.5 43.5t5.5 57.5t1 76q0 63 -1.5 97.5t-12 65.5t-23 44t-44 23t-65.5 11.5t-97 1.5h-230v-487z" />
<glyph unicode="&#x42d;" horiz-adv-x="1120" d="M82 0v139q0 70 70 70h192q72 0 115 0.5t92.5 5t75.5 9t56.5 18t44 27.5t30 41t21.5 54.5t10.5 73t6.5 91.5t1 114h-437q-69 0 -69 70v139h506q0 77 -2 128t-12.5 96.5t-21 71.5t-39.5 48.5t-55.5 31.5t-81.5 16t-104.5 8t-136.5 1h-192q-70 0 -70 70v139h262 q141 0 236 -9t175.5 -36t127.5 -70.5t80.5 -117.5t46 -172.5t12.5 -239.5v-174q0 -141 -12.5 -239.5t-46 -172t-80.5 -117t-127.5 -70t-175.5 -35.5t-236 -9h-262z" />
<glyph unicode="&#x42e;" horiz-adv-x="1744" d="M133 0v1393q0 69 70 69h155v-626h209q2 136 14.5 234.5t41 171t68.5 117.5t102.5 72.5t136 37.5t176.5 10t176.5 -10.5t137 -38t104 -74.5t69.5 -121t41.5 -175.5t12.5 -240.5v-176q0 -138 -12 -239.5t-41 -175.5t-69 -120.5t-103.5 -74.5t-137.5 -38.5t-178 -10.5 q-103 0 -177 10.5t-137 38.5t-103 74.5t-69 120.5t-41 175.5t-12 239.5v19h-209v-592q0 -70 -69 -70h-156zM795 643q0 -112 3 -179.5t17 -122.5t31.5 -80.5t57 -43t82.5 -21t120 -3.5q58 0 94 2t72.5 10t56.5 19.5t39 37t27.5 55t15.5 80t8.5 107t1.5 139.5v176 q0 83 -1.5 139.5t-8.5 107t-15.5 80.5t-27.5 55t-39 37t-56.5 20t-72.5 10t-94 2q-57 0 -93 -2t-71.5 -10t-55.5 -20t-38.5 -37t-27 -55t-15.5 -80.5t-8.5 -106.5t-1.5 -140v-176z" />
<glyph unicode="&#x42f;" horiz-adv-x="1214" d="M78 993q0 102 12.5 174t43 130.5t84.5 93t136 53t197 18.5h450q70 0 70 -69v-1393h-158q-67 0 -67 70v454h-246l-256 -465q-35 -59 -108 -59h-107v86q0 26 8 52t14 37t23 42l186 322q-161 35 -221.5 140.5t-60.5 313.5zM305 993q0 -58 2 -92t11 -67.5t24 -49.5 t43.5 -29.5t67.5 -17.5t98 -4h295v520h-295q-59 0 -98 -4.5t-67.5 -18t-43.5 -29.5t-24 -49t-11 -67t-2 -92z" />
<glyph unicode="&#x430;" horiz-adv-x="1093" d="M102 330v53q0 153 66 216t215 63q170 0 371 -19q0 85 -10 132t-41.5 73t-74 32.5t-124.5 6.5h-262q-70 0 -70 69v123h332q95 0 162.5 -8t122.5 -29t88.5 -54t56.5 -87t32 -124.5t9 -168.5v-608h-123q-35 0 -48.5 15t-21.5 55l-16 82l-41 -82q-24 -53 -81 -70.5 t-191 -17.5q-96 0 -159 15t-108 54t-64.5 107t-19.5 172zM295 330q0 -56 6 -86.5t26.5 -52t57.5 -28.5t102 -7q156 0 217.5 50t61.5 159v122h-313q-96 0 -127 -28t-31 -129z" />
<glyph unicode="&#x431;" horiz-adv-x="1161" d="M123 522v314q0 139 7 231t27.5 171.5t54.5 124.5t92 77.5t135.5 44.5t189.5 12h313v-121q0 -69 -70 -69h-243q-66 0 -105 -3t-74 -16t-51.5 -33t-29 -60t-16 -90t-3.5 -130v-31l29 62q28 60 77.5 75t188.5 15q122 0 197.5 -23t127.5 -86t72.5 -169.5t20.5 -278.5 q0 -116 -9 -199t-32.5 -146.5t-58.5 -103t-91.5 -64.5t-127 -34.5t-169.5 -9.5q-94 0 -161 12.5t-125 47t-92.5 94.5t-54 156t-19.5 230zM350 522q0 -109 9 -173t35.5 -105t68 -55.5t112.5 -14.5q47 0 74.5 1t58.5 7t47 15.5t33.5 28.5t24.5 44.5t14 65t9 87.5t2 116 t-2 116.5t-9 88.5t-14 65t-24.5 44t-33.5 28.5t-47 15.5t-58.5 7t-74.5 1q-33 0 -60 -2t-48.5 -9.5t-37.5 -14t-28.5 -22t-21 -27.5t-14 -37.5t-8.5 -44.5t-4.5 -55t-2 -62t-0.5 -74v-35z" />
<glyph unicode="&#x432;" horiz-adv-x="1073" d="M123 0v1010q0 69 70 69h417q129 0 202 -31t101.5 -93.5t28.5 -170.5q0 -101 -35.5 -152t-122.5 -81q191 -11 191 -256q0 -145 -79.5 -220t-252.5 -75h-520zM348 193h295q77 0 100 28t23 111q0 78 -22 99.5t-101 21.5h-295v-260zM348 627h262q75 0 99 26t24 105 q0 78 -24 103.5t-99 25.5h-262v-260z" />
<glyph unicode="&#x433;" horiz-adv-x="839" d="M123 0v975q0 63 20 83.5t82 20.5h541v-121q0 -37 -16 -54t-52 -17h-350v-817q0 -37 -15.5 -53.5t-51.5 -16.5h-158z" />
<glyph unicode="&#x434;" horiz-adv-x="1269" d="M74 0v123q0 70 69 70h93l83 825q7 61 66 61h535q58 0 65 -61l86 -825h125v-123q0 -37 -16 -53.5t-52 -16.5h-1054zM446 193h414q-4 28 -4 32l-70 662h-268l-65 -662q-1 -6 -4 -15t-3 -17z" />
<glyph unicode="&#x435;" horiz-adv-x="1048" d="M98 539q0 211 44 332t137 173t253 52q109 0 184.5 -21.5t129.5 -73.5t79 -140t25 -218v-104q0 -37 -15.5 -53.5t-51.5 -16.5h-574q1 -52 4 -87.5t11.5 -66t17.5 -49t30 -33.5t41 -22t58 -11.5t73.5 -5.5t94.5 -1h209q70 0 70 -72v-121h-314q-93 0 -165.5 12t-125.5 34 t-91 58t-62 78t-38 100.5t-19 118t-5 138.5zM309 643h432v35q0 63 -4 98.5t-15 64t-36 40.5t-60 18t-94 6q-50 0 -79.5 -2.5t-57 -12.5t-41 -26t-25 -47t-15 -71t-5.5 -103z" />
<glyph unicode="&#x436;" horiz-adv-x="1634" d="M123 0v123q0 43 22 65l363 375l-336 309q-33 29 -33 86v121h121q25 0 38 -5.5t32 -24.5l362 -406h10v367q0 69 72 69h156v-436h12l361 406q19 19 31.5 24.5t37.5 5.5h123v-121q0 -57 -33 -86l-336 -309l363 -375q22 -22 22 -65v-123h-122q-27 0 -45 7t-41 34l-361 446 h-12v-417q0 -70 -70 -70h-158v487h-10l-362 -446q-21 -27 -39.5 -34t-46.5 -7h-121z" />
<glyph unicode="&#x437;" horiz-adv-x="944" d="M98 0v121q0 69 70 69h401l-219 281q-53 68 0 139l219 279h-401q-70 0 -70 69v121h678q70 0 70 -69v-101l-289 -368l289 -371v-100q0 -70 -70 -70h-678z" />
<glyph unicode="&#x438;" horiz-adv-x="1150" d="M123 70v1009h158q67 0 67 -69v-609l488 678h122q70 0 70 -69v-1010h-156q-71 0 -71 70v608l-486 -678h-122q-70 0 -70 70z" />
<glyph unicode="&#x439;" horiz-adv-x="1126" d="M123 70v1009h158q67 0 67 -69v-609l488 678h122q70 0 70 -69v-1010h-156q-71 0 -71 70v608l-486 -678h-122q-70 0 -70 70zM279 1497v105h106q37 0 52.5 -15.5t15.5 -52.5q0 -82 20 -102.5t86 -20.5q43 0 62 6.5t30 33t11 83.5q0 36 16.5 52t52.5 16h105v-105 q0 -131 -62 -187.5t-215 -56.5q-156 0 -218 56.5t-62 187.5z" />
<glyph unicode="&#x43a;" horiz-adv-x="1005" d="M123 0v1010q0 69 72 69h157v-436h8l365 406q17 19 30 24.5t36 5.5h122v-121q0 -58 -30 -86l-338 -309l364 -375q23 -23 23 -65v-123h-121q-29 0 -47 7t-39 34l-365 446h-8v-417q0 -70 -71 -70h-158z" />
<glyph unicode="&#x43b;" horiz-adv-x="1171" d="M74 0v123q0 70 69 70h95l84 815q4 41 21.5 56t45.5 15h592q68 0 68 -69v-1010h-156q-70 0 -70 70v817h-280l-64 -643q-5 -47 -14 -80t-29 -66t-51 -53t-82.5 -32.5t-122.5 -12.5h-106z" />
<glyph unicode="&#x43c;" horiz-adv-x="1361" d="M123 0v1010q0 69 70 69h174l313 -526l313 526h174q72 0 72 -69v-1010h-158q-71 0 -71 70v639l-250 -418q-14 -21 -30 -29t-50 -8t-50.5 8t-27.5 29l-254 418v-639q0 -36 -15.5 -53t-51.5 -17h-158z" />
<glyph unicode="&#x43d;" horiz-adv-x="1089" d="M123 70v1009h158q71 0 71 -69v-348h387v417h158q70 0 70 -69v-1010h-156q-72 0 -72 70v399h-387v-469h-157q-72 0 -72 70z" />
<glyph unicode="&#x43e;" horiz-adv-x="1101" d="M98 539q0 117 7.5 199t28.5 146.5t52.5 103.5t84 64t119 34.5t161.5 9.5t161.5 -9.5t119 -34.5t84 -64t52.5 -103.5t28.5 -146.5t7.5 -199t-7.5 -198t-28.5 -145.5t-52.5 -103.5t-84 -64t-119 -34.5t-161.5 -9.5t-161.5 9.5t-119 34.5t-84 64t-52.5 103.5t-28.5 145.5 t-7.5 198zM307 539q0 -92 2 -142.5t11.5 -97.5t23 -67t44 -36t66.5 -19t97 -3q46 0 75.5 1.5t57 9.5t43.5 17t30 31t20.5 45t11 65t5.5 85t1 111q0 92 -2 144t-12 98.5t-23.5 66.5t-44 35.5t-66 18.5t-96.5 3q-62 0 -97.5 -3t-66 -18.5t-44 -35.5t-23 -67t-11.5 -98t-2 -144 z" />
<glyph unicode="&#x43f;" horiz-adv-x="1046" d="M123 0v1010q0 69 72 69h661q37 0 52.5 -16t15.5 -53v-1010h-154q-72 0 -72 70v817h-346v-817q0 -70 -71 -70h-158z" />
<glyph unicode="&#x440;" horiz-adv-x="1163" d="M123 -348v1427h123q35 0 49 -15t20 -54l17 -119l47 96q30 64 83.5 86.5t182.5 22.5q99 0 165.5 -15t118 -50.5t80 -100t42.5 -159t14 -232.5t-14 -232.5t-42.5 -159t-80 -100t-118 -50.5t-165.5 -15q-91 0 -143 12.5t-70.5 29.5t-34.5 50l-47 96v-588h-157q-70 0 -70 70z M350 522q0 -201 45.5 -274.5t179.5 -73.5q47 0 74.5 1t58.5 7t47 15.5t33.5 28.5t24.5 44.5t14 65t9 87.5t2 116t-2 116.5t-9 88.5t-14 65t-24.5 44t-33.5 28.5t-47 15.5t-58.5 7t-74.5 1q-71 0 -112.5 -14.5t-68 -55.5t-35.5 -105t-9 -173v-35z" />
<glyph unicode="&#x441;" horiz-adv-x="937" d="M98 539q0 117 9.5 197.5t36 143.5t66 99.5t107.5 60t151 31.5t206 8h192v-123q0 -69 -69 -69h-123q-70 0 -110.5 -1t-84.5 -7t-66 -14.5t-45 -27.5t-32 -41.5t-17.5 -62t-10 -83.5t-1.5 -111q0 -66 2 -110t10 -83.5t17 -62.5t32 -42t45 -27.5t65.5 -15t85 -7.5t110.5 -1 h123q69 0 69 -69v-121h-192q-123 0 -206.5 8t-151.5 31.5t-107 60t-65.5 99t-36 143t-9.5 197.5z" />
<glyph unicode="&#x442;" horiz-adv-x="880" d="M74 887v123q0 69 71 69h662v-121q0 -71 -72 -71h-190v-817q0 -70 -70 -70h-158v887h-243z" />
<glyph unicode="&#x443;" d="M98 1010v69h140q49 0 67 -15t29 -58l186 -832h152l149 825q8 45 28 62.5t69 17.5h139v-69q0 -58 -17 -158l-231 -1016q-30 -138 -102.5 -196t-225.5 -58h-297v121q0 72 72 72h201q92 0 120.5 18t40.5 92l21 111q-42 -10 -94 -10q-61 0 -103.5 17t-71 55t-44.5 78.5 t-35 107.5l-176 626q-17 52 -17 140z" />
<glyph unicode="&#x444;" horiz-adv-x="1851" d="M98 539q0 172 20.5 278.5t72.5 169.5t127.5 86t197.5 23q131 0 183 -21.5t75 -68.5l37 -78v569h158q69 0 69 -70v-499l29 59q35 65 87 87t181 22q122 0 197.5 -23t127.5 -86t72.5 -169.5t20.5 -278.5t-20.5 -278.5t-72.5 -169.5t-127.5 -86t-197.5 -23q-93 0 -147 12 t-75 30t-36 50l-39 78v-570h-157q-70 0 -70 70v500l-29 -62q-24 -44 -50.5 -66t-76 -32t-139.5 -10q-122 0 -197.5 23t-127.5 86t-72.5 169.5t-20.5 278.5zM324 539q0 -68 2 -116t8.5 -87.5t14 -65t24.5 -44.5t33 -28.5t47 -15.5t58.5 -7t74.5 -1q58 0 95.5 10t64 31.5 t40 64t19.5 99t6 143.5v35q0 202 -44.5 275t-180.5 73q-37 0 -60.5 -0.5t-50.5 -4t-42.5 -8.5t-33 -15t-26.5 -23.5t-19.5 -34.5t-14.5 -46.5t-8.5 -61t-5.5 -77t-1 -95.5zM1038 522q0 -201 45.5 -274.5t182.5 -73.5q46 0 73.5 1t58 7t46.5 15.5t33 28.5t24.5 44.5t14 65 t8.5 87.5t2 116t-2 116.5t-8.5 88.5t-14 65t-24.5 44t-33 28.5t-46.5 15.5t-57.5 7t-74 1q-72 0 -114.5 -14.5t-69 -55.5t-35.5 -105t-9 -173v-35z" />
<glyph unicode="&#x445;" horiz-adv-x="1150" d="M123 0v86q0 42 8 68.5t31 56.5l280 338l-258 319q-24 26 -34.5 56.5t-10.5 85.5v69h105q50 0 72 -9.5t42 -41.5l211 -350h11l211 350q23 32 44 41.5t72 9.5h103v-69q0 -54 -9.5 -84.5t-31.5 -57.5l-260 -319l278 -338q24 -30 32.5 -56.5t8.5 -68.5v-86h-86 q-53 0 -76 11.5t-47 47.5l-239 342h-11l-237 -342q-26 -36 -48 -47.5t-75 -11.5h-86z" />
<glyph unicode="&#x446;" horiz-adv-x="1144" d="M123 70v1009h158q36 0 51.5 -16t15.5 -53v-817h332v817q0 69 70 69h157v-886h68q72 0 72 -70v-332h-158q-36 0 -52 16.5t-16 53.5v139h-626q-72 0 -72 70z" />
<glyph unicode="&#x447;" horiz-adv-x="995" d="M123 696v383h158q71 0 71 -69v-314q0 -56 3.5 -83.5t19.5 -45.5t40 -22t74 -4h158v538h156q69 0 69 -69v-1010h-157q-68 0 -68 70v262h-158q-117 0 -189 19t-111.5 66t-52.5 110.5t-13 168.5z" />
<glyph unicode="&#x448;" horiz-adv-x="1515" d="M123 70v1009h156q69 0 69 -69v-817h295v886h158q69 0 69 -69v-817h297v817q0 69 70 69h156v-1009q0 -70 -68 -70h-1132q-70 0 -70 70z" />
<glyph unicode="&#x449;" horiz-adv-x="1632" d="M123 70v1009h158q36 0 51.5 -16t15.5 -53v-817h299v886h154q71 0 71 -69v-817h295v817q0 69 70 69h156v-886h71q70 0 70 -70v-332h-158q-69 0 -69 70v139h-1114q-70 0 -70 70z" />
<glyph unicode="&#x44a;" horiz-adv-x="1138" d="M98 958v121h332q70 0 70 -69v-314h174q87 0 146 -9.5t103.5 -32t69 -63.5t36 -99.5t11.5 -143.5q0 -104 -22 -172t-69.5 -106.5t-112.5 -54t-162 -15.5h-330q-72 0 -72 70v817h-102q-72 0 -72 71zM500 193h174q105 0 131 25.5t26 129.5t-26.5 131t-130.5 27h-174v-313z " />
<glyph unicode="&#x44b;" horiz-adv-x="1376" d="M123 70v1009h158q36 0 51.5 -16t15.5 -53v-314h176q109 0 175.5 -15t111 -55t61.5 -105.5t17 -172.5q0 -103 -22 -171.5t-70.5 -107t-113 -54t-159.5 -15.5h-329q-72 0 -72 70zM348 193h176q56 0 83.5 4t46 22t22.5 45.5t4 83.5q0 105 -26 131.5t-130 26.5h-176v-313z M1028 70v1009h156q69 0 69 -69v-1010h-157q-68 0 -68 70z" />
<glyph unicode="&#x44c;" horiz-adv-x="987" d="M123 70v1009h158q36 0 51.5 -16t15.5 -53v-314h176q109 0 175.5 -15t111 -55t61.5 -105.5t17 -172.5q0 -103 -22 -171.5t-70.5 -107t-113 -54t-159.5 -15.5h-329q-72 0 -72 70zM348 193h176q56 0 83.5 4t46 22t22.5 45.5t4 83.5q0 105 -26 131.5t-130 26.5h-176v-313z " />
<glyph unicode="&#x44d;" horiz-adv-x="831" d="M72 0v123q0 70 69 70h176q60 0 96.5 3t69.5 13t50.5 26.5t31 47t19 71t8.5 101.5h-299q-72 0 -72 71v121h371q-3 55 -9 92.5t-20 65t-32 43t-51 25t-69 12t-94 2.5h-176q-69 0 -69 71v121h245q145 0 240 -27t154.5 -92t84.5 -165t25 -254q0 -204 -47 -320t-155.5 -168.5 t-301.5 -52.5h-245z" />
<glyph unicode="&#x44e;" horiz-adv-x="1546" d="M123 70v1009h158q71 0 71 -69v-348h193q6 134 29.5 216t78 132t134 68t208.5 18q95 0 161.5 -9.5t119 -34.5t84 -64t52.5 -103.5t28.5 -145.5t7.5 -198t-7.5 -199t-28.5 -146.5t-52.5 -103.5t-84 -64t-119 -34.5t-161.5 -9.5q-90 0 -153.5 8.5t-115 30.5t-84 56t-54.5 90 t-32 127.5t-13 172.5h-191v-469h-157q-72 0 -72 70zM752 541q0 -69 1 -112t5.5 -85.5t10.5 -65.5t20 -45t30 -31.5t43.5 -17t57 -9t75.5 -1.5q61 0 96.5 3t66 18.5t44 36t23.5 67t12 98.5t2 144q0 90 -2 141.5t-11.5 98t-23.5 67t-44 36.5t-66 19.5t-97 3.5q-36 0 -61.5 -1 t-50 -5.5t-40.5 -10t-30.5 -18t-23.5 -25t-16.5 -36t-11 -46.5t-6 -60t-3 -73.5t-0.5 -90.5z" />
<glyph unicode="&#x44f;" horiz-adv-x="937" d="M74 733q0 104 19.5 170.5t66 106t112.5 54.5t168 15h330q70 0 70 -69v-1010h-156q-70 0 -70 70v313h-120l-166 -305q-31 -52 -54 -65t-77 -13h-107v86q0 44 8.5 68t34.5 63l137 203q-108 29 -152 101.5t-44 211.5zM283 733q0 -104 26.5 -131t130.5 -27h174v312h-174 q-104 0 -130.5 -25.5t-26.5 -128.5z" />
<glyph unicode="&#x451;" horiz-adv-x="1048" d="M98 539q0 211 44 332t137 173t253 52q109 0 184.5 -21.5t129.5 -73.5t79 -140t25 -218v-104q0 -37 -15.5 -53.5t-51.5 -16.5h-574q1 -52 4 -87.5t11.5 -66t17.5 -49t30 -33.5t41 -22t58 -11.5t73.5 -5.5t94.5 -1h209q70 0 70 -72v-121h-314q-93 0 -165.5 12t-125.5 34 t-91 58t-62 78t-38 100.5t-19 118t-5 138.5zM221 1325v154h158q35 0 51 -15.5t16 -52.5v-158h-155q-70 0 -70 72zM309 643h432v35q0 63 -4 98.5t-15 64t-36 40.5t-60 18t-94 6q-50 0 -79.5 -2.5t-57 -12.5t-41 -26t-25 -47t-15 -71t-5.5 -103zM588 1253v158q0 37 15 52.5 t52 15.5h158v-154q0 -72 -72 -72h-153z" />
<glyph unicode="&#x452;" horiz-adv-x="1218" d="M41 1376v121h313q70 0 70 -70v-483l31 62q15 31 39 48.5t84 29.5t159 12q109 0 178 -15.5t117 -56.5t68 -111.5t20 -181.5v-696q0 -112 -16.5 -189.5t-59.5 -140t-123 -93t-200 -30.5h-105v121q0 70 70 70q54 0 81.5 1.5t55.5 11.5t38.5 24t20 46.5t11.5 72t2 106.5v696 q0 104 -42 139t-167 35q-82 0 -133 -13.5t-80 -47t-39 -79.5t-10 -122v-643h-156q-71 0 -71 70v1237h-86q-70 0 -70 69z" />
<glyph unicode="&#x453;" horiz-adv-x="864" d="M123 0v975q0 63 20 83.5t82 20.5h541v-121q0 -37 -16 -54t-52 -17h-350v-817q0 -37 -15.5 -53.5t-51.5 -16.5h-158zM256 1253v72q0 31 5 46t22 38l131 186q27 40 41 50t45 10h104v-105q0 -47 -7 -65.5t-32 -42.5l-174 -160q-1 -1 -7 -5.5t-7 -5.5t-6 -4.5t-6.5 -4t-6 -3 t-7 -3t-7 -1.5t-9 -1.5t-9.5 -0.5h-70z" />
<glyph unicode="&#x454;" horiz-adv-x="919" d="M88 541q0 154 25 254t84.5 165t154.5 92t240 27h246v-121q0 -71 -70 -71h-176q-58 0 -94 -2.5t-69 -12t-51 -25t-32 -43t-20 -65t-9 -92.5h371v-121q0 -71 -72 -71h-299q2 -61 7.5 -101.5t19.5 -71t32 -47t51 -26.5t69.5 -13t95.5 -3h176q70 0 70 -70v-123h-246 q-193 0 -301.5 52.5t-155.5 168.5t-47 320z" />
<glyph unicode="&#x455;" horiz-adv-x="962" d="M98 0v121q0 72 72 72h311q112 0 152.5 28t40.5 109v78l-342 75q-54 12 -91 25.5t-63.5 31.5t-42 37t-24 49.5t-11 61t-2.5 78.5q0 159 90 236t293 77h350v-121q0 -71 -69 -71h-281q-109 0 -149.5 -26t-40.5 -95v-78l344 -76q64 -15 105 -33t66.5 -39.5t38 -57.5t16 -72.5 t3.5 -98.5q0 -150 -90.5 -230.5t-292.5 -80.5h-383z" />
<glyph unicode="&#x456;" horiz-adv-x="471" d="M123 70v1009h156q69 0 69 -69v-1010h-155q-70 0 -70 70z" />
<glyph unicode="&#x457;" horiz-adv-x="471" d="M-61 1325v154h157q36 0 52 -16t16 -52v-158h-156q-69 0 -69 72zM123 70v1009h156q69 0 69 -69v-1010h-155q-70 0 -70 70zM305 1253v158q0 37 15.5 52.5t52.5 15.5h157v-154q0 -72 -71 -72h-154z" />
<glyph unicode="&#x458;" horiz-adv-x="434" d="M-193 -297q0 72 70 72q54 0 83 1.5t56.5 12t38 24t19.5 46.5t10.5 70.5t1.5 105.5v975q0 69 72 69h153v-1044q0 -90 -9.5 -155t-35 -124t-69.5 -95.5t-115.5 -57.5t-169.5 -21h-105v121z" />
<glyph unicode="&#x459;" horiz-adv-x="1644" d="M49 0v123q0 70 70 70h94l82 815q6 41 22.5 56t42.5 15h576q70 0 70 -69v-314h174q87 0 146 -9.5t103.5 -32t69 -63.5t36 -99.5t11.5 -143.5q0 -104 -22 -172t-69.5 -106.5t-112.5 -54t-162 -15.5h-330q-72 0 -72 70v817h-260l-65 -643q-6 -56 -25 -98t-56.5 -76t-101 -52 t-151.5 -18h-70zM1006 193h174q105 0 131 25.5t26 129.5t-26.5 131t-130.5 27h-174v-313z" />
<glyph unicode="&#x45a;" horiz-adv-x="1562" d="M123 70v1009h158q36 0 51.5 -16t15.5 -53v-348h350v417h158q37 0 52.5 -16t15.5 -53v-314h174q87 0 146 -9.5t103.5 -32t69 -63.5t36 -99.5t11.5 -143.5q0 -104 -22 -172t-69.5 -106.5t-112.5 -54t-162 -15.5h-328q-72 0 -72 70v399h-350v-469h-153q-72 0 -72 70z M924 193h174q105 0 131 25.5t26 129.5t-26.5 131t-130.5 27h-174v-313z" />
<glyph unicode="&#x45b;" horiz-adv-x="1218" d="M41 1376v121h313q70 0 70 -70v-483l29 62q15 31 39.5 48.5t84.5 29.5t160 12q109 0 178 -15.5t117 -56.5t68 -111.5t20 -181.5v-731h-157q-70 0 -70 70v661q0 104 -41.5 139t-167.5 35q-82 0 -132.5 -13.5t-79 -47t-38.5 -79.5t-10 -122v-643h-158q-69 0 -69 70v1237h-86 q-70 0 -70 69z" />
<glyph unicode="&#x45c;" horiz-adv-x="1005" d="M123 0v1010q0 69 72 69h157v-436h8l365 406q17 19 30 24.5t36 5.5h122v-121q0 -58 -30 -86l-338 -309l364 -375q23 -23 23 -65v-123h-121q-29 0 -47 7t-39 34l-365 446h-8v-417q0 -70 -71 -70h-158zM356 1253v72q0 31 5 46t22 38l131 186q27 40 41 50t45 10h105v-105 q0 -47 -7 -65.5t-32 -42.5l-174 -160q-31 -24 -49 -28q-7 -1 -17 -1h-70z" />
<glyph unicode="&#x45e;" d="M98 1010v69h140q49 0 67 -15t29 -58l186 -832h152l149 825q8 45 28 62.5t69 17.5h139v-69q0 -58 -17 -158l-231 -1016q-30 -138 -102.5 -196t-225.5 -58h-297v121q0 72 72 72h201q92 0 120.5 18t40.5 92l21 111q-42 -10 -94 -10q-61 0 -103.5 17t-71 55t-44.5 78.5 t-35 107.5l-176 626q-17 52 -17 140zM301 1497v105h107q37 0 52 -15.5t15 -52.5q0 -44 4.5 -68t19 -36.5t31.5 -15.5t52 -3q62 0 82 20.5t20 102.5q0 36 17 52t53 16h104v-105q0 -131 -61.5 -187.5t-214.5 -56.5q-156 0 -218.5 56.5t-62.5 187.5z" />
<glyph unicode="&#x45f;" horiz-adv-x="1046" d="M123 70v1009h158q71 0 71 -69v-817h346v817q0 69 72 69h154v-1009q0 -37 -16 -53.5t-52 -16.5h-209v-209h-158q-69 0 -69 70v139h-225q-72 0 -72 70z" />
<glyph unicode="&#x490;" horiz-adv-x="1130" d="M133 0v1393q0 69 72 69h590v160q0 70 71 70h154v-369q0 -37 -16 -53.5t-52 -16.5h-594v-1183q0 -37 -15.5 -53.5t-51.5 -16.5h-158z" />
<glyph unicode="&#x491;" horiz-adv-x="1024" d="M143 0v1010q0 69 72 69h461v101q0 69 72 69h153v-293q0 -37 -15.5 -53t-51.5 -16h-461v-817q0 -70 -72 -70h-158z" />
<glyph unicode="&#x2000;" horiz-adv-x="1007" />
<glyph unicode="&#x2001;" horiz-adv-x="2015" />
<glyph unicode="&#x2002;" horiz-adv-x="1007" />
<glyph unicode="&#x2003;" horiz-adv-x="2015" />
<glyph unicode="&#x2004;" horiz-adv-x="671" />
<glyph unicode="&#x2005;" horiz-adv-x="503" />
<glyph unicode="&#x2006;" horiz-adv-x="335" />
<glyph unicode="&#x2007;" horiz-adv-x="335" />
<glyph unicode="&#x2008;" horiz-adv-x="251" />
<glyph unicode="&#x2009;" horiz-adv-x="403" />
<glyph unicode="&#x200a;" horiz-adv-x="111" />
<glyph unicode="&#x2010;" horiz-adv-x="806" d="M98 541v121q0 71 72 71h539v-123q0 -69 -70 -69h-541z" />
<glyph unicode="&#x2011;" horiz-adv-x="806" d="M98 541v121q0 71 72 71h539v-123q0 -69 -70 -69h-541z" />
<glyph unicode="&#x2012;" horiz-adv-x="806" d="M98 541v121q0 71 72 71h539v-123q0 -69 -70 -69h-541z" />
<glyph unicode="&#x2013;" horiz-adv-x="806" d="M98 541v121q0 71 72 71h539v-123q0 -69 -70 -69h-541z" />
<glyph unicode="&#x2014;" horiz-adv-x="1294" d="M98 541v121q0 71 72 71h1026v-123q0 -37 -15.5 -53t-52.5 -16h-1030z" />
<glyph unicode="&#x2018;" horiz-adv-x="372" d="M74 1028v191q0 56 28 106l60 102q18 35 69 35h68v-366q0 -36 -16 -52t-52 -16h-157z" />
<glyph unicode="&#x2019;" horiz-adv-x="372" d="M74 1028v367q0 36 15.5 51.5t51.5 15.5h158v-190q0 -55 -29 -107l-59 -102q-18 -35 -70 -35h-67z" />
<glyph unicode="&#x201a;" horiz-adv-x="372" d="M74 158q0 67 69 67h156v-190q0 -55 -29 -107l-59 -102q-18 -35 -68 -35h-69v367z" />
<glyph unicode="&#x201c;" horiz-adv-x="692" d="M74 1028v191q0 56 28 106l60 102q18 35 69 35h68v-366q0 -36 -16 -52t-52 -16h-157zM393 1028v191q0 54 29 106l59 102q18 35 70 35h67v-366q0 -36 -15.5 -52t-51.5 -16h-158z" />
<glyph unicode="&#x201d;" horiz-adv-x="692" d="M74 1028v367q0 36 15.5 51.5t51.5 15.5h158v-190q0 -55 -29 -107l-59 -102q-18 -35 -70 -35h-67zM393 1028v367q0 35 15.5 51t52.5 16h157v-190q0 -57 -28 -107l-60 -102q-18 -35 -69 -35h-68z" />
<glyph unicode="&#x201e;" horiz-adv-x="692" d="M74 158q0 67 69 67h156v-190q0 -55 -29 -107l-59 -102q-18 -35 -68 -35h-69v367zM393 158q0 67 70 67h155v-190q0 -57 -28 -107l-60 -102q-18 -35 -67 -35h-70v367z" />
<glyph unicode="&#x2022;" horiz-adv-x="935" d="M86 557q0 81 21 148.5t64.5 121.5t119 84.5t176.5 30.5q82 0 147.5 -20t109 -55t72.5 -84.5t41.5 -105t12.5 -120.5q0 -64 -12.5 -119.5t-41.5 -104.5t-72.5 -84t-109 -55t-147.5 -20q-101 0 -176.5 30t-119 84t-64.5 121t-21 148z" />
<glyph unicode="&#x2026;" horiz-adv-x="1071" d="M74 0v158q0 67 71 67h154v-155q0 -37 -16 -53.5t-52 -16.5h-157zM422 70v155h156q71 0 71 -67v-158h-157q-70 0 -70 70zM772 0v158q0 67 72 67h153v-155q0 -37 -15.5 -53.5t-51.5 -16.5h-158z" />
<glyph unicode="&#x202f;" horiz-adv-x="403" />
<glyph unicode="&#x2039;" horiz-adv-x="772" d="M98 678q0 49 18.5 85t53.5 75l287 327q25 29 50 41.5t60 12.5h107v-103q0 -37 -11 -62t-40 -57l-299 -313v-8l299 -316q29 -31 40 -55.5t11 -60.5v-105h-107q-63 0 -110 56l-287 323q-36 43 -54 78.5t-18 81.5z" />
<glyph unicode="&#x203a;" horiz-adv-x="772" d="M98 139v105q0 36 11 60.5t41 55.5l299 316v8l-299 313q-30 33 -41 58t-11 61v103h107q35 0 60 -12.5t50 -41.5l287 -327q35 -39 53.5 -75t18.5 -85q0 -46 -18 -81.5t-54 -78.5l-287 -323q-47 -56 -110 -56h-107z" />
<glyph unicode="&#x205f;" horiz-adv-x="503" />
<glyph unicode="&#x20ac;" horiz-adv-x="1294" d="M74 487v123q0 36 17 52t54 16h885v-121q0 -70 -69 -70h-441q3 -58 13 -98.5t32.5 -76.5t59.5 -57.5t95 -33.5t138 -12h295q36 0 52 -16.5t16 -53.5v-139h-363q-274 0 -414 117t-147 370h-223zM109 801v123q0 36 15.5 52.5t51.5 16.5h109q24 253 172.5 361t416.5 108h347 v-137q0 -37 -16 -54.5t-52 -17.5h-295q-181 0 -259 -62t-83 -198h586v-123q0 -69 -72 -69h-921z" />
<glyph unicode="&#x2122;" horiz-adv-x="1839" d="M74 1270v123q0 69 71 69h592v-121q0 -71 -71 -71h-158v-574q0 -36 -16 -52.5t-52 -16.5h-141v643h-225zM858 627v766q0 69 68 69h141l244 -420l245 420h138q71 0 71 -69v-766h-141q-36 0 -52 16.5t-16 52.5v418l-165 -295q-10 -23 -24 -29t-56 -6t-56 6t-24 29l-164 295 v-418q0 -69 -70 -69h-139z" />
<glyph unicode="&#x25fc;" horiz-adv-x="1075" d="M0 0v1075h1075v-1075h-1075z" />
</font>
</defs>
</svg>
