<?xml version="1.0" standalone="no"?>
<!DOCTYPE svg PUBLIC "-//W3C//DTD SVG 1.1//EN" "http://www.w3.org/Graphics/SVG/1.1/DTD/svg11.dtd" >
<svg xmlns="http://www.w3.org/2000/svg">
<metadata></metadata>
<defs>
<font id="waldorf_tl_proitalic" horiz-adv-x="655" >
<font-face units-per-em="2048" ascent="1536" descent="-512" />
<missing-glyph horiz-adv-x="563" />
<glyph unicode="IJ" horiz-adv-x="1318" d="M-31 0l8 53h160l240 1327h-158l10 54h521l-11 -54h-159l-238 -1327h158l-11 -53h-520zM457 -340q157 75 237 201q58 95 86 262l228 1257h-158l10 54h520l-10 -54h-160l-206 -1149q-27 -144 -69.5 -239.5t-115.5 -165.5q-64 -61 -145 -109.5t-201 -105.5z" />
<glyph unicode="ij" horiz-adv-x="1134" d="M109 125q0 43 16 125l141 700h-147l10 54h334l-162 -811q-8 -33 -8 -76q0 -70 90 -70q11 0 23.5 1t27.5 2.5t23 2.5l-13 -53q-91 -16 -176 -16q-74 0 -116.5 34.5t-42.5 106.5zM301 1276q0 53 37 90t92 37q39 0 66.5 -26.5t27.5 -65.5q0 -53 -36 -90t-91 -37 q-40 0 -68 27t-28 65zM416 -373q58 29 102 75t72 107t45 120.5t31 136.5l159 884h-145l10 54h332l-166 -908q-35 -206 -132 -319.5t-286 -196.5zM860 1276q0 53 37 90t92 37q40 0 68 -26.5t28 -65.5q0 -53 -37 -90t-92 -37q-40 0 -68 27t-28 65z" />
<glyph unicode="&#x22;n" horiz-adv-x="1177" d="M76 0l190 950h-147l12 54h326l-39 -189h4q131 215 356 215q234 0 234 -223q0 -42 -17 -133l-96 -481q-6 -37 -6 -76q0 -70 88 -70q3 0 72 6l-11 -53q-88 -16 -174 -16q-159 0 -159 141q0 29 14 125l84 420q20 98 20 145q0 143 -122 143q-135 0 -236 -143 q-66 -98 -92 -244l-113 -571h-188zM129 1081q105 95 123 201h-19q-32 0 -52.5 24t-20.5 58q0 45 27.5 72.5t66.5 27.5q42 0 65 -33.5t23 -82.5q0 -89 -52 -167t-136 -137z" />
<glyph unicode="ff" horiz-adv-x="1325" d="M-295 -211q0 39 6 80h86q-10 -78 -10 -92q0 -65 29.5 -106.5t93.5 -41.5q47 0 84 32.5t56 73t28 85.5q16 76 30.5 227t28.5 223l127 666h-162l13 68h161l29 147q26 132 117.5 220.5t222.5 88.5q193 0 193 -182q0 -49 -13 -109h-112q14 72 14 127q0 117 -96 117 q-70 0 -115 -67q-59 -86 -59 -269q0 -23 4 -73h477l31 147q26 133 117 221t223 88q192 0 192 -182q0 -44 -14 -109h-111q15 77 15 127q0 117 -99 117q-69 0 -114 -67q-58 -88 -58 -269q0 -23 4 -73h252l-12 -68h-250l-207 -1040q-27 -137 -114 -226.5t-222 -89.5 q-204 0 -204 209q0 26 8 80h84q-8 -62 -8 -92q0 -65 28.5 -106.5t91.5 -41.5q47 0 84 32.5t56 73t28 85.5q17 78 32 229.5t28 220.5l129 666h-477l-205 -1040q-28 -137 -114.5 -226.5t-221.5 -89.5q-205 0 -205 209z" />
<glyph unicode="fi" horiz-adv-x="1212" d="M-295 -211q0 39 6 80h86q-10 -78 -10 -92q0 -65 29.5 -106.5t93.5 -41.5q47 0 84 32.5t56 73t28 85.5q16 76 30.5 227t28.5 223l127 666h-162l13 68h161l29 147q26 132 117.5 220.5t222.5 88.5q193 0 193 -182q0 -49 -13 -109h-112q14 72 14 127q0 117 -96 117 q-83 0 -133 -94q-41 -84 -41 -242q0 -23 4 -73h624l-157 -811q-8 -33 -8 -76q0 -70 88 -70q11 0 23 1t26.5 2.5t23.5 2.5l-12 -53q-91 -16 -174 -16q-74 0 -117 34.5t-43 106.5q0 38 17 125l137 700q-278 0 -438 -14l-205 -1040q-28 -137 -114.5 -226.5t-221.5 -89.5 q-103 0 -154 54t-51 155zM926 1276q0 53 38.5 91t92.5 38q41 0 67.5 -27t26.5 -67q0 -52 -39 -90.5t-92 -38.5q-39 0 -66.5 27.5t-27.5 66.5z" />
<glyph unicode="fl" horiz-adv-x="1210" d="M-295 -211q0 39 6 80h86q-10 -78 -10 -92q0 -65 29.5 -106.5t93.5 -41.5q47 0 84 32.5t56 73t28 85.5q16 76 30.5 227t28.5 223l127 666h-162l13 68h161l29 147q26 132 117.5 220.5t222.5 88.5q73 0 121 -26h395l-243 -1241q-9 -37 -9 -76q0 -70 88 -70q11 0 23.5 1 t27.5 2.5t23 2.5l-12 -53q-91 -16 -174 -16q-160 0 -160 141q0 43 16 125l224 1130h-148q21 -44 21 -102q0 -49 -13 -109h-112q14 72 14 127q0 117 -96 117q-70 0 -115 -67q-59 -86 -59 -269q0 -23 4 -73h252l-13 -68h-249l-205 -1040q-28 -137 -114.5 -226.5t-221.5 -89.5 q-205 0 -205 209z" />
<glyph unicode="ffi" horiz-adv-x="1875" d="M-295 -211q0 39 6 80h86q-10 -78 -10 -92q0 -65 29.5 -106.5t93.5 -41.5q47 0 84 32.5t56 73t28 85.5q16 76 30.5 227t28.5 223l127 666h-162l13 68h161l29 147q26 132 117.5 220.5t222.5 88.5q193 0 193 -182q0 -49 -13 -109h-112q14 72 14 127q0 117 -96 117 q-70 0 -115 -67q-59 -86 -59 -269q0 -23 4 -73h477l31 147q26 133 117 221t223 88q192 0 192 -182q0 -44 -14 -109h-111q15 77 15 127q0 117 -99 117q-85 0 -131 -94q-41 -84 -41 -242q0 -23 4 -73h625l-160 -811q-8 -50 -8 -76q0 -70 90 -70q3 0 72 6l-10 -53 q-94 -16 -174 -16q-160 0 -160 141q0 29 14 125l139 700q-278 0 -438 -14l-207 -1040q-27 -137 -114 -226.5t-222 -89.5q-101 0 -152.5 54t-51.5 155q0 26 8 80h84q-8 -62 -8 -92q0 -65 28.5 -106.5t91.5 -41.5q47 0 84 32.5t56 73t28 85.5q17 78 32 229.5t28 220.5l129 666 h-477l-205 -1040q-28 -137 -114.5 -226.5t-221.5 -89.5q-205 0 -205 209zM1589 1276q0 53 37.5 91t91.5 38q42 0 68 -27t26 -67q0 -53 -38 -91t-91 -38q-41 0 -67.5 27.5t-26.5 66.5z" />
<glyph unicode="ffl" horiz-adv-x="1873" d="M-295 -211q0 39 6 80h86q-10 -78 -10 -92q0 -65 29.5 -106.5t93.5 -41.5q47 0 84 32.5t56 73t28 85.5q16 76 30.5 227t28.5 223l127 666h-162l13 68h161l29 147q26 132 117.5 220.5t222.5 88.5q193 0 193 -182q0 -49 -13 -109h-112q14 72 14 127q0 117 -96 117 q-70 0 -115 -67q-59 -86 -59 -269q0 -23 4 -73h477l31 147q26 133 117 221t223 88q73 0 118 -26h398l-246 -1241q-8 -50 -8 -76q0 -70 90 -70q3 0 72 6l-11 -53q-94 -16 -174 -16q-159 0 -159 141q0 29 14 125l223 1130h-147q22 -46 22 -102q0 -44 -14 -109h-111 q15 77 15 127q0 117 -99 117q-69 0 -114 -67q-58 -88 -58 -269q0 -23 4 -73h252l-12 -68h-250l-207 -1040q-27 -137 -114 -226.5t-222 -89.5q-204 0 -204 209q0 26 8 80h84q-8 -62 -8 -92q0 -65 28.5 -106.5t91.5 -41.5q47 0 84 32.5t56 73t28 85.5q17 78 32 229.5t28 220.5 l129 666h-477l-205 -1040q-28 -137 -114.5 -226.5t-221.5 -89.5q-205 0 -205 209z" />
<glyph unicode=" "  horiz-adv-x="563" />
<glyph unicode="&#x09;" horiz-adv-x="563" />
<glyph unicode="&#xa0;" horiz-adv-x="563" />
<glyph unicode="!" horiz-adv-x="591" d="M84 86q0 52 37.5 91.5t89.5 39.5q46 0 76 -30t30 -74q0 -52 -39 -92.5t-92 -40.5q-45 0 -73.5 30.5t-28.5 75.5zM225 416q23 189 29 233q7 67 13.5 159t12.5 198t9 153q3 48 7 84.5t14.5 78t25.5 68t40.5 44.5t59.5 18q46 0 72.5 -28.5t26.5 -75.5q-2 -66 -52 -218 q-149 -464 -200 -714h-58z" />
<glyph unicode="&#x22;" horiz-adv-x="673" d="M188 866l39 437q0 13 6 55q10 108 86 108q70 0 70 -82q0 -31 -16 -81l-123 -437h-62zM508 866l39 437q0 13 6 55q13 108 86 108q70 0 70 -82q0 -22 -19 -81l-121 -437h-61z" />
<glyph unicode="#" horiz-adv-x="1392" d="M59 442l35 119h281l106 311h-288l32 119h297l152 441h129l-154 -441h297l154 441h129l-156 -441h270l-32 -119h-277l-106 -311h274l-33 -119h-282l-154 -442h-129l156 442h-299l-154 -442h-127l152 442h-273zM500 561h301l108 311h-303z" />
<glyph unicode="$" horiz-adv-x="1126" d="M20 78l64 409h66q-3 -77 2 -141q2 -74 13 -127t38 -98.5t78.5 -69.5t128.5 -26l112 632q-144 61 -195 92q-139 85 -152 219q-1 15 -1 31q0 127 70.5 227t181 153.5t240.5 60.5l28 166h66l-29 -166q180 -3 320 -66q0 -191 -39 -395h-68q4 113 -6 178q-5 117 -54.5 171.5 t-162.5 57.5l-100 -552q151 -60 193 -83q146 -76 182 -189q14 -43 14 -93q0 -105 -45.5 -196.5t-121 -154t-173.5 -100.5t-205 -45l-29 -168h-65l28 166q-107 4 -212 29.5t-167 77.5zM352 1083q0 -82 53.5 -132t153.5 -91l94 524q-124 -16 -212.5 -98.5t-88.5 -202.5z M475 29q140 19 239 120.5t99 237.5q0 47 -17 85.5t-51 67.5t-70.5 49t-88.5 42z" />
<glyph unicode="%" horiz-adv-x="1417" d="M86 -20l1192 1454h80l-1190 -1454h-82zM156 909q0 131 44 249.5t125.5 193.5t180.5 75q50 0 89 -17t63.5 -45t40 -66.5t22 -78.5t6.5 -85q0 -135 -44.5 -253.5t-125 -192t-178.5 -73.5q-62 0 -107.5 25t-69.5 68.5t-35 92.5t-11 107zM279 817q0 -160 96 -160q37 0 68 31 t61 84q39 90 71.5 228t32.5 231q0 155 -96 155q-68 0 -125 -108q-43 -82 -75.5 -221t-32.5 -240zM719 279q0 131 44 249.5t125.5 193.5t180.5 75q62 0 107 -25.5t68.5 -69t34.5 -92.5t11 -106q0 -135 -44.5 -253.5t-125 -191.5t-178.5 -73q-62 0 -107.5 25t-69.5 68.5 t-35 92.5t-11 107zM842 186q0 -159 96 -159q63 0 129 114q39 90 71.5 228t32.5 231q0 156 -96 156q-68 0 -125 -109q-43 -82 -75.5 -221t-32.5 -240z" />
<glyph unicode="&#x26;" horiz-adv-x="1355" d="M27 326q0 84 25 155t63 121.5t101 98t120 78.5t139 69q-63 153 -63 248q0 150 96.5 255t247.5 105q100 0 168.5 -55t68.5 -152q0 -67 -26.5 -123.5t-76.5 -100.5t-99.5 -74t-118.5 -62q109 -244 297 -555q51 81 89 189t38 194q0 49 -9 92h-178l11 55h440l-10 -55h-152 q-58 -322 -201 -526q71 -113 158 -230h92l-10 -53h-307q-52 76 -82 125q-177 -152 -430 -152q-168 0 -279.5 96t-111.5 257zM223 375q0 -137 81.5 -228.5t217.5 -91.5q167 0 295 115q-175 295 -319 625q-275 -165 -275 -420zM590 1178q0 -103 63 -244q217 113 217 323 q0 63 -30 105.5t-90 42.5q-43 0 -75.5 -21t-50 -55.5t-26 -72.5t-8.5 -78z" />
<glyph unicode="'" horiz-adv-x="354" d="M188 866l39 437q0 13 6 55q10 108 86 108q70 0 70 -82q0 -31 -16 -81l-123 -437h-62z" />
<glyph unicode="(" horiz-adv-x="651" d="M31 274q0 121 22 250q54 302 216.5 540t428.5 398l17 -43q-92 -63 -166 -145t-123.5 -167t-88.5 -191.5t-62 -201t-44 -212.5q-41 -256 -41 -381q0 -324 197 -518l-37 -33q-319 257 -319 704z" />
<glyph unicode=")" horiz-adv-x="649" d="M-109 -391q94 66 168 148.5t123 166t87 189.5t60.5 199t43.5 214q45 218 45 394q0 157 -45.5 280.5t-155.5 218.5l33 43q165 -128 244 -310t79 -400q0 -123 -22 -252q-109 -603 -643 -934z" />
<glyph unicode="*" horiz-adv-x="917" d="M164 1161q0 37 22 63.5t58 26.5q44 0 133.5 -64t122.5 -75q-1 42 -32.5 124.5t-31.5 121.5t22.5 61.5t63.5 22.5q39 0 61.5 -22.5t22.5 -61.5q0 -38 -31 -121.5t-32 -124.5q33 11 82 46.5t94.5 64t79.5 28.5q36 0 58 -26.5t22 -63.5q0 -77 -121 -82q-23 -2 -75.5 0 t-78.5 0q-18 -2 -45 -10q17 -22 56 -51t73 -51.5t61 -53t27 -59.5q0 -33 -28.5 -58.5t-61.5 -25.5q-47 0 -73.5 48t-48 121.5t-42.5 102.5q-19 -26 -36.5 -77t-29.5 -91.5t-37.5 -72t-62.5 -31.5q-33 0 -61.5 25.5t-28.5 58.5q0 29 27.5 59.5t62 53t73.5 51.5t56 51 q-33 8 -47 10q-21 1 -76 -0.5t-75 0.5q-123 5 -123 82z" />
<glyph unicode="+" horiz-adv-x="1196" d="M68 440v144h434v440h145v-440h436v-144h-436v-440h-145v440h-434z" />
<glyph unicode="," horiz-adv-x="591" d="M20 -260q71 36 133 105t70 139v10q-20 -14 -49 -14q-45 0 -71.5 29.5t-26.5 74.5q0 53 38 93t91 40q65 0 93 -45t28 -111q0 -119 -83 -211.5t-208 -152.5z" />
<glyph unicode="-" horiz-adv-x="790" d="M72 414l26 164h570l-29 -164h-567z" />
<glyph unicode="." horiz-adv-x="591" d="M76 86q0 52 38 91.5t91 39.5q46 0 76 -30t30 -74q0 -52 -39 -92.5t-92 -40.5q-45 0 -74.5 30.5t-29.5 75.5z" />
<glyph unicode="/" horiz-adv-x="1015" d="M-59 -109l1032 1571h117l-1033 -1571h-116z" />
<glyph unicode="0" horiz-adv-x="1126" d="M84 500q0 239 76.5 453.5t217.5 350.5t312 136q85 0 152 -30.5t109 -80t69 -119.5t38 -142t11 -153q0 -245 -77 -460.5t-217 -348.5t-310 -133q-72 0 -131 21t-100 59t-70.5 87t-46.5 110t-25 122t-8 128zM272 332q0 -305 185 -305q131 0 241 215q74 150 130.5 406.5 t56.5 443.5q0 294 -183 294q-125 0 -235 -200q-78 -152 -136.5 -409t-58.5 -445z" />
<glyph unicode="1" horiz-adv-x="1126" d="M197 0l10 53h186l215 1184q-143 -129 -284 -215l-21 47q265 162 414 369h129l-252 -1385h180l-10 -53h-567z" />
<glyph unicode="2" horiz-adv-x="1126" d="M6 0l8 51q11 9 122.5 99t151 124t123.5 107.5t140 132.5t102 117q197 248 197 481q0 115 -61.5 186.5t-178.5 71.5q-153 0 -255.5 -115.5t-102.5 -267.5q0 -172 160 -272l-78 -62q-75 55 -116.5 139t-41.5 177q0 138 65 246t177.5 166.5t253.5 58.5q170 0 278.5 -92.5 t108.5 -255.5q0 -247 -277 -510q-55 -52 -129.5 -111.5t-132 -100.5t-150 -105.5t-137.5 -96.5h529q18 0 55 57q9 14 86 156l47 -8l-123 -373h-821z" />
<glyph unicode="3" horiz-adv-x="1126" d="M45 348l102 31q-8 -36 -8 -78q0 -272 254 -272q71 0 131.5 27.5t102 73.5t71.5 105.5t44 123t14 126.5q0 119 -64.5 171.5t-175.5 60.5q-49 7 -96 4l10 61h45q170 0 269.5 110t99.5 279q0 92 -55 150.5t-150 58.5q-57 0 -106.5 -23t-82.5 -55.5t-63 -84t-47.5 -93 t-36.5 -96.5l-90 25q59 187 168.5 287t288.5 100q77 0 144.5 -18.5t121 -55.5t84.5 -98t31 -140q0 -82 -36 -149t-98.5 -111t-134.5 -71.5t-155 -40.5q74 -9 133.5 -30.5t107.5 -57.5t74.5 -92.5t26.5 -129.5q0 -108 -47.5 -198.5t-127 -150t-179.5 -92t-207 -32.5 q-163 0 -259 82.5t-102 231.5q-4 39 -2 61z" />
<glyph unicode="4" horiz-adv-x="1126" d="M35 440l16 88l852 914h113l-166 -924h188l-14 -78h-188l-72 -387h158l-9 -53h-553l11 53h196l70 387h-602zM117 518h532l133 711z" />
<glyph unicode="5" horiz-adv-x="1126" d="M45 309v41l105 31q-9 -61 -9 -80q0 -130 61.5 -201t190.5 -71q82 0 149 38t109 97.5t70 136.5t39.5 151t11.5 146q0 120 -53.5 192t-173.5 72q-104 0 -197.5 -63t-130.5 -158l-55 16l223 756h698l-59 -176h-625l-135 -442q144 135 332 135q178 0 283.5 -100.5 t105.5 -274.5q0 -156 -73 -289t-204.5 -213t-291.5 -80q-162 0 -266.5 89t-104.5 247z" />
<glyph unicode="6" horiz-adv-x="1126" d="M66 426q0 201 77.5 383.5t209.5 316.5t313 220.5t383 103.5v-51q-269 -38 -447 -207.5t-260 -431.5q58 72 140.5 113.5t174.5 41.5q168 0 265.5 -98t97.5 -262q0 -152 -71.5 -285t-201 -215t-286.5 -82q-102 0 -179 35t-123.5 98t-69.5 143.5t-23 176.5zM256 281 q0 -53 11 -97t34 -80.5t64.5 -57.5t97.5 -21q152 0 250 184q47 84 69.5 190t22.5 207q0 244 -184 244q-82 0 -152 -47q-68 -43 -118.5 -139t-72.5 -195.5t-22 -187.5z" />
<glyph unicode="7" horiz-adv-x="1126" d="M195 1014l133 399h839l-6 -37q-586 -833 -684 -1380h-201q21 116 67 236t94.5 212t131.5 213.5t137 192t155.5 199.5t146.5 188h-650q-67 -108 -110 -233z" />
<glyph unicode="8" horiz-adv-x="1126" d="M39 338q0 148 103.5 249t258.5 132q-93 48 -144.5 126t-51.5 179q0 77 28 144.5t75 116t109 84t130.5 52.5t138.5 17q94 0 178.5 -40t139.5 -117t55 -173q0 -121 -87 -214.5t-208 -115.5q242 -132 242 -348q0 -106 -46 -194t-122 -144.5t-172.5 -87.5t-200.5 -31 q-109 0 -205.5 43t-158.5 128t-62 194zM207 305q0 -124 70.5 -200t199.5 -76q148 0 243 95t95 241q0 28 -5.5 53.5t-14 45.5t-24.5 39.5t-30 34t-37.5 30t-40.5 26t-46 24t-46.5 21t-49.5 21t-48 20.5q-126 -55 -196 -149t-70 -226zM383 1094q0 -25 5.5 -47.5t13.5 -41 t23 -36.5t27.5 -31t34.5 -27.5t37 -23.5t41.5 -22t41 -19.5t43 -19t40.5 -17.5q98 47 156.5 134.5t58.5 195.5q0 110 -60.5 178.5t-170.5 68.5q-122 0 -206.5 -84t-84.5 -208z" />
<glyph unicode="9" horiz-adv-x="1126" d="M80 14q284 44 458.5 206.5t266.5 432.5q-60 -72 -143.5 -113.5t-174.5 -41.5q-165 0 -259.5 94.5t-94.5 253.5q0 154 74 290t207 220t291 84q98 0 173.5 -33.5t121.5 -93.5t69 -137.5t23 -169.5q0 -202 -81 -387.5t-218 -323t-323 -226.5t-390 -106v51zM346 807 q0 -48 9 -89t29 -77t57.5 -57t88.5 -21q75 0 138 37.5t104 97t70 136t42 152t13 147.5q0 52 -11 96.5t-34.5 81t-64.5 57.5t-97 21q-74 0 -135 -41.5t-99 -105t-63.5 -144t-36 -153.5t-10.5 -138z" />
<glyph unicode=":" horiz-adv-x="591" d="M76 86q0 52 38 91.5t91 39.5q46 0 76 -30t30 -74q0 -52 -39 -92.5t-92 -40.5q-45 0 -74.5 30.5t-29.5 75.5zM195 748q0 52 38.5 91.5t92.5 39.5q45 0 74.5 -31t29.5 -76q0 -52 -38 -91.5t-91 -39.5q-45 0 -75.5 31t-30.5 76z" />
<glyph unicode=";" horiz-adv-x="591" d="M20 -260q71 36 133 105t70 139v10q-20 -14 -49 -14q-45 0 -71.5 29.5t-26.5 74.5q0 53 38 93t91 40q65 0 93 -45t28 -111q0 -119 -83 -211.5t-208 -152.5zM195 748q0 52 38.5 91.5t92.5 39.5q45 0 74.5 -31t29.5 -76q0 -52 -38 -91.5t-91 -39.5q-45 0 -75.5 31t-30.5 76z " />
<glyph unicode="&#x3c;" horiz-adv-x="1196" d="M68 438v148l1015 452v-153l-841 -373l841 -373v-153z" />
<glyph unicode="=" horiz-adv-x="1196" d="M68 256v143h1015v-143h-1015zM68 625v143h1015v-143h-1015z" />
<glyph unicode="&#x3e;" horiz-adv-x="1196" d="M68 -14v153l841 373l-841 373v153l1015 -452v-148z" />
<glyph unicode="?" horiz-adv-x="874" d="M154 86q0 52 38.5 91.5t90.5 39.5q46 0 76 -30t30 -74q0 -52 -39 -92.5t-92 -40.5q-45 0 -74.5 30.5t-29.5 75.5zM170 1020q27 153 66 229q110 211 346 211q143 0 228 -71t85 -209q0 -79 -20 -144t-58.5 -115t-79.5 -86t-98 -73q-10 -7 -52 -34t-56.5 -37t-47 -35.5 t-47.5 -44t-32 -45.5t-25 -56q-15 -42 -25 -107h-57q16 111 39 152q16 62 53 114t80.5 91.5t87 83t80.5 110t53 150.5q12 64 12 131q0 172 -143 172q-41 0 -76.5 -15t-61 -36t-48 -58.5t-36 -66.5t-28 -78t-21 -75t-16.5 -74z" />
<glyph unicode="@" horiz-adv-x="1617" d="M98 647q0 168 61.5 316t167.5 253.5t253.5 166.5t314.5 61q131 0 249 -41t208 -115t143 -186.5t53 -247.5q0 -96 -34.5 -193.5t-94.5 -177t-149.5 -130t-190.5 -50.5q-76 0 -121 44t-45 116v20h-4q-33 -40 -55.5 -63.5t-55.5 -49t-71 -37t-84 -11.5q-94 0 -142 60.5 t-48 158.5q0 66 23 141t66 145.5t97.5 128t124 92.5t139.5 35q67 0 108.5 -37.5t49.5 -103.5l45 123h123l-180 -516q-25 -69 -25 -107q0 -37 18 -61.5t54 -24.5q66 0 124.5 33t99.5 86t70.5 119t43.5 133.5t14 128.5q0 154 -73.5 277t-200.5 190.5t-281 67.5 q-201 0 -360.5 -103t-244.5 -271.5t-85 -367.5q0 -271 175 -439.5t447 -168.5q251 0 465 147l29 -53q-108 -72 -237.5 -110.5t-260.5 -38.5q-150 0 -281.5 45t-229.5 127.5t-155 208.5t-57 280zM582 535q0 -146 110 -146q61 0 123 56.5t105 136.5t70.5 163.5t27.5 139.5 q0 61 -25 99t-80 38q-63 0 -126 -54.5t-106.5 -131.5t-71 -159.5t-27.5 -141.5z" />
<glyph unicode="A" horiz-adv-x="1269" d="M-156 0l11 53h108q49 66 154 264l602 1129h129l237 -1393h121l-10 -53h-518l8 53h184l-79 475h-486l-63 -116q-36 -67 -78.5 -177.5t-59.5 -181.5h160l-12 -53h-408zM334 588h448l-108 629h-8q-20 -39 -144.5 -273.5t-187.5 -355.5z" />
<glyph unicode="B" horiz-adv-x="1320" d="M-39 0l10 53h158l240 1327h-158l10 54h563q453 0 453 -299q0 -165 -113 -265t-288 -122q67 -8 124 -28.5t105.5 -56.5t76 -93.5t27.5 -131.5q0 -99 -34.5 -176t-91 -125.5t-136.5 -80t-164 -44t-180 -12.5h-602zM334 53h194q205 0 316.5 108t111.5 310q0 59 -19 103 t-50 70t-77.5 42.5t-93 22t-106.5 6.5h-157zM463 768h141q195 0 312.5 107.5t117.5 300.5q0 62 -22.5 104t-64.5 63t-89 29t-110 8h-177z" />
<glyph unicode="C" horiz-adv-x="1273" d="M78 553q0 136 33 267t100.5 246.5t160.5 203.5t222 139t276 51q207 0 375 -76q0 -203 -45 -419h-59q5 52 5 101q0 21 -1 40q-7 301 -264 301q-293 0 -455 -317q-69 -137 -106 -309.5t-37 -331.5q0 -71 10.5 -131.5t35.5 -115.5t64 -93.5t99.5 -61t138.5 -22.5 q69 0 127 18.5t101 55t75.5 77.5t59.5 100.5t44.5 107.5t36.5 114h62l-76 -414q-215 -113 -443 -113q-135 0 -239.5 43.5t-169.5 122.5t-98 184t-33 232z" />
<glyph unicode="D" horiz-adv-x="1449" d="M-39 0l10 53h158l240 1327h-158l10 54h588q280 0 436 -140t156 -411q0 -89 -8 -154q-22 -159 -84.5 -291.5t-162.5 -230.5t-242.5 -152.5t-313.5 -54.5h-629zM334 53h207q102 0 190 30t152 79.5t116 120t85.5 145.5t58.5 162q51 173 51 373q0 417 -410 417h-213z" />
<glyph unicode="E" horiz-adv-x="1275" d="M-39 0l10 53h158l240 1327h-158l10 54h997q0 -206 -49 -449h-59q-1 43 -4.5 108.5t-3.5 69.5q-2 61 -10.5 98t-30.5 66t-61.5 41t-102.5 12h-326l-108 -612h145q69 0 111 32.5t72 96.5q22 52 53 162h59l-112 -637h-62q4 43 4 125v11q-1 79 -27 117q-28 40 -108 40h-145 l-119 -662h377q101 0 156.5 37t97.5 129q48 94 112 277h62l-101 -496h-1077z" />
<glyph unicode="F" horiz-adv-x="1179" d="M-39 0l10 53h158l240 1327h-158l10 54h979q0 -211 -47 -449h-59q-3 77 -9 117q-4 127 -12 161q-18 79 -87 103q-41 14 -105 14h-310l-114 -635h147q71 0 107.5 25.5t66.5 99.5q17 38 62 166h59l-115 -637h-59q2 42 1.5 83.5t-1.5 80.5q-4 77 -31.5 103t-99.5 26h-145 l-115 -639h190l-8 -53h-555z" />
<glyph unicode="G" horiz-adv-x="1353" d="M76 537q0 138 34 271.5t102.5 251t163 207t226 141.5t281.5 52q206 0 389 -78q0 -190 -43 -395h-62q0 8 0.5 21.5t0.5 25.5t-1 23v16q0 76 -9 129q-10 58 -39 107.5t-86.5 73.5t-145.5 24q-292 0 -455 -315q-72 -139 -110.5 -313.5t-38.5 -332.5q0 -74 11.5 -135.5 t38 -115.5t67.5 -91t103 -58t142 -21q116 0 256 53l96 522h-206l10 53h553l-11 -53h-145l-92 -516q-266 -111 -481 -111q-270 0 -409.5 151.5t-139.5 412.5z" />
<glyph unicode="H" horiz-adv-x="1490" d="M-39 0l10 53h158l240 1327h-158l10 54h516l-10 -54h-156l-108 -606h614l111 606h-156l10 54h519l-13 -54h-157l-238 -1327h156l-9 -53h-518l11 53h155l119 656h-616l-117 -656h155l-10 -53h-518z" />
<glyph unicode="I" horiz-adv-x="688" d="M-31 0l8 53h160l240 1327h-158l10 54h521l-11 -54h-159l-238 -1327h158l-11 -53h-520z" />
<glyph unicode="J" horiz-adv-x="688" d="M-174 -340q157 75 237 201q59 98 87 262l227 1257h-158l10 54h521l-11 -54h-159l-207 -1149q-27 -144 -69.5 -239.5t-115.5 -165.5q-64 -61 -145 -109.5t-201 -105.5z" />
<glyph unicode="K" horiz-adv-x="1318" d="M-39 0l10 53h158l240 1327h-158l10 54h516l-10 -54h-156l-108 -612l119 16l340 351q109 112 180 245h-150l11 54h428l-9 -54h-133q-51 -43 -217 -209q-26 -27 -141 -143t-154 -156l406 -819h117l-9 -53h-522l10 53h156l-328 676l-114 -14l-119 -662h155l-10 -53h-518z " />
<glyph unicode="L" horiz-adv-x="1169" d="M-39 0l10 53h158l240 1327h-158l10 54h547l-12 -54h-185l-237 -1327h350q96 0 146 31.5t98 132.5q75 163 114 279h62l-98 -496h-1045z" />
<glyph unicode="M" horiz-adv-x="1800" d="M-63 0l10 53h137q50 150 102 412l183 915h-158l10 54h397l201 -1176l629 1176h399l-8 -54h-160l-217 -1327h158l-8 -53h-557l8 53h197l210 1284l-718 -1347h-101l-227 1349h-2l-125 -626q-84 -432 -84 -660h158l-11 -53h-423z" />
<glyph unicode="N" horiz-adv-x="1433" d="M-61 0l8 53h147q45 175 90 408l185 919h-158l10 54h408l477 -1141l76 461q49 295 49 626h-158l8 54h430l-10 -54h-147q-32 -148 -72 -389l-164 -999h-117l-573 1374l-127 -633q-34 -170 -56 -361t-24 -319h162l-8 -53h-436z" />
<glyph unicode="O" horiz-adv-x="1378" d="M80 551q0 128 29.5 256t91.5 245.5t148 208.5t207.5 145t262.5 54q127 0 226.5 -45.5t160.5 -125.5t92 -182.5t31 -223.5q0 -128 -30 -256t-92 -246.5t-148.5 -209.5t-208 -145.5t-260.5 -54.5q-129 0 -228.5 46t-160 126.5t-91 183.5t-30.5 224zM279 408 q0 -383 301 -383q90 0 167 38.5t132 103t99.5 151t72 178.5t46 191t26 182.5t7.5 158.5q0 379 -303 379q-88 0 -164.5 -38.5t-131.5 -103t-99 -150.5t-72 -178t-47 -190t-26.5 -182t-7.5 -157z" />
<glyph unicode="P" horiz-adv-x="1257" d="M-39 0l10 53h158l240 1327h-158l10 54h563q74 0 134 -6t127 -25t112 -51.5t75 -90t30 -135.5q0 -104 -35.5 -185t-94.5 -132t-141.5 -84t-169.5 -46t-186 -13h-191l-110 -613h196l-10 -53h-559zM453 719h149q215 0 333 116t118 330q0 64 -23 107.5t-66.5 66.5t-93 32 t-114.5 9h-185z" />
<glyph unicode="Q" horiz-adv-x="1378" d="M39 -303l41 86q46 24 98 35q174 101 330 159q-109 13 -192.5 63.5t-134 128.5t-76 174t-25.5 208q0 128 29.5 256t91.5 245.5t148 208.5t207.5 145t262.5 54q127 0 226.5 -45.5t160.5 -125.5t92 -182.5t31 -223.5q0 -92 -14 -166q-90 -518 -520 -692q-40 -16 -117 -43.5 t-92 -32.5q-172 -60 -295 -123q79 12 160 12q195 0 499 -76l99 170h63l-192 -338q-341 113 -664 113q-97 0 -217 -10zM279 408q0 -383 301 -383h45q112 41 201.5 123.5t145 183.5t92.5 224t51.5 239t14.5 235q0 377 -303 377q-87 0 -163 -38t-130.5 -101.5t-99 -149 t-73 -177t-47.5 -189.5t-27 -183t-8 -161z" />
<glyph unicode="R" horiz-adv-x="1333" d="M-39 0l10 53h158l240 1327h-158l10 54h584q438 0 438 -279q0 -171 -111.5 -278.5t-289.5 -131.5q146 -18 201 -86.5t55 -214.5q0 -37 -4 -112t-4 -113q0 -130 47 -166h86l-11 -53h-286q-47 60 -47 211q0 43 7 130.5t7 131.5q0 127 -60.5 184.5t-191.5 57.5h-188 l-119 -662h168l-10 -53h-531zM463 768h172q136 0 232 67t139 179q30 82 30 166q0 200 -278 200h-187z" />
<glyph unicode="S" horiz-adv-x="1165" d="M35 78l63 416h64q1 -15 1.5 -65.5t2.5 -78.5q2 -62 9.5 -107.5t25.5 -88.5t48 -70t78.5 -43t114.5 -16q159 0 277.5 104t118.5 256q0 55 -22 97.5t-74.5 78t-89 54t-113.5 51.5q-6 3 -9 4q-45 19 -73 32.5t-68 35t-65 41t-53 47.5t-44 57t-26.5 67.5t-10.5 81.5 q0 82 30 152t81.5 120t119.5 86t145.5 53t158.5 17q197 0 354 -65q0 -200 -41 -402h-67q3 40 3 81t-3 83q-5 131 -60.5 190.5t-187.5 59.5q-89 0 -169 -37.5t-131.5 -108.5t-51.5 -159q0 -44 16.5 -80t45.5 -63t67.5 -50t82.5 -42t90 -38q24 -9 36 -14q73 -29 124 -57.5 t101 -71t76 -100.5t26 -131q0 -112 -50.5 -205.5t-134 -153t-190 -92.5t-221.5 -33q-109 0 -224 26t-181 81z" />
<glyph unicode="T" horiz-adv-x="1183" d="M113 975l96 459h1030q0 -229 -47 -459h-55q2 29 2 86q0 157 -36 238t-120 81h-156l-239 -1327h184l-8 -53h-576l11 53h186l240 1327h-158q-94 0 -158 -93t-139 -312h-57z" />
<glyph unicode="U" horiz-adv-x="1347" d="M160 477l172 903h-158l8 54h537l-10 -54h-172l-177 -925q-18 -95 -18 -162v-5q0 -251 283 -251q95 0 167.5 23t119.5 61t81 100.5t52 126t34 152.5l37 217q55 313 55 573q0 59 -2 90h-151l10 54h422l-10 -54h-142q-15 -57 -26.5 -117t-26.5 -152t-20 -120l-86 -499 q-19 -109 -43 -185.5t-65.5 -143.5t-100.5 -107t-145.5 -62.5t-202.5 -22.5q-206 1 -322 83t-115 267q0 64 15 156z" />
<glyph unicode="V" horiz-adv-x="1196" d="M94 1380l10 54h508l-8 -54h-178l166 -1149l383 758q107 212 145 391h-145l10 54h395l-12 -54h-108q-54 -77 -150 -262l-573 -1130h-121l-203 1392h-119z" />
<glyph unicode="W" horiz-adv-x="1789" d="M94 1380l10 54h504l-8 -54h-174l166 -1149l297 588l-80 561h-119l10 54h508l-10 -54h-178l164 -1149l385 758q105 202 145 391h-145l10 54h395l-10 -54h-111q-50 -71 -149 -262l-574 -1130h-120l-105 727l-368 -727h-121l-203 1392h-119z" />
<glyph unicode="X" horiz-adv-x="1271" d="M-94 0l8 53h119q107 118 248 309l268 353l-240 665h-129l8 54h541l-10 -54h-182l180 -508l254 349q60 84 86 159h-127l10 54h387l-10 -54h-123q-107 -113 -199 -239l-252 -338l269 -750h133l-10 -53h-543l10 53h184l-211 590l-276 -373q-81 -112 -131 -217h164l-10 -53 h-416z" />
<glyph unicode="Y" horiz-adv-x="1150" d="M119 1380l8 54h559l-10 -54h-197q107 -364 201 -616q224 326 268 395q70 106 107 221h-137l10 54h381l-9 -54h-114q-43 -51 -191 -258q-133 -190 -297 -436l-114 -633h178l-10 -53h-557l10 53h174l110 617l-237 710h-133z" />
<glyph unicode="Z" horiz-adv-x="1220" d="M-33 0l8 53l1026 1327h-399q-96 0 -144 -29t-91 -118q-60 -121 -101 -244h-61l84 445h960l-10 -54l-1026 -1327h463q98 0 156 34t102 130q72 148 115 285h65l-100 -502h-1047z" />
<glyph unicode="[" horiz-adv-x="702" d="M-53 -360l332 1847h499l-10 -55h-340l-313 -1739h340l-13 -53h-495z" />
<glyph unicode="\" horiz-adv-x="1015" d="M227 1462h109l465 -1571h-107z" />
<glyph unicode="]" horiz-adv-x="702" d="M-102 -360l8 53h340l315 1739h-340l8 55h502l-336 -1847h-497z" />
<glyph unicode="^" horiz-adv-x="1196" d="M86 852l418 592h141l420 -592h-162l-328 442l-327 -442h-162z" />
<glyph unicode="_" horiz-adv-x="1024" d="M-176 -365l20 113h1024l-20 -113h-1024z" />
<glyph unicode="`" horiz-adv-x="1024" d="M352 1438q0 31 25 52t55 21q22 0 40 -15.5t42 -49.5l186 -283l-49 -30l-260 231q-39 36 -39 74z" />
<glyph unicode="a" horiz-adv-x="1136" d="M29 344q0 90 23 185t70 184.5t110.5 160.5t152.5 113.5t188 42.5q89 0 152 -43t86 -125h6l70 142h135l-162 -811q-8 -33 -8 -76q0 -70 90 -70q11 0 23 1t26 2.5t23 2.5l-10 -53q-91 -16 -175 -16q-146 0 -157 122q0 38 4 56q-61 -93 -138.5 -141t-183.5 -48 q-85 0 -148.5 28.5t-101.5 80t-56.5 117t-18.5 145.5zM225 303q0 -49 7.5 -91t25 -84t54.5 -66.5t89 -24.5q47 0 89 18t72 46t57 71.5t44.5 83.5t34 93.5t25 90t18.5 84.5q31 164 31 217q0 36 -5 67.5t-17.5 61.5t-32 51t-50.5 33.5t-71 12.5q-52 0 -98.5 -25t-84 -70 t-67 -98.5t-53.5 -118.5q-68 -191 -68 -352z" />
<glyph unicode="b" horiz-adv-x="1105" d="M119 295q0 86 24 203l174 882h-145l12 54h330l-113 -578q118 174 312 174q163 0 243 -102.5t80 -268.5q0 -98 -23 -195t-70.5 -185.5t-113.5 -156.5t-159 -108.5t-199 -40.5q-174 0 -263 77.5t-89 244.5zM293 260q0 -48 9 -87.5t29 -73.5t56.5 -53t87.5 -19 q60 0 113.5 36t92.5 96.5t67 124.5t47 134q45 145 45 280q0 49 -7.5 91.5t-26 85t-55.5 67.5t-89 25q-65 0 -118.5 -31t-87 -75t-60.5 -110t-40.5 -117.5t-25.5 -115.5q-2 -13 -9.5 -49t-11 -55t-8 -48.5t-6.5 -55t-2 -50.5z" />
<glyph unicode="c" horiz-adv-x="950" d="M29 356q0 99 25.5 196t76 183t120 152t164 104.5t201.5 38.5q128 0 196.5 -61.5t68.5 -184.5q0 -75 -19 -153h-129q23 109 23 178q0 72 -32 122t-103 50q-79 0 -147 -48.5t-112.5 -123t-76.5 -165.5t-46 -174.5t-14 -152.5q0 -280 209 -280q133 0 224.5 73.5t160.5 204.5 l60 -28q-83 -153 -202 -233.5t-286 -80.5q-181 0 -271.5 101.5t-90.5 281.5z" />
<glyph unicode="d" horiz-adv-x="1136" d="M29 344q0 85 14 156q20 97 64.5 189t110 169.5t158 124.5t197.5 47q85 0 146.5 -41t87.5 -117l100 508h-153l8 54h344l-246 -1241q-8 -33 -8 -76q0 -70 90 -70q11 0 23 1t26 2.5t23 2.5l-10 -53q-91 -16 -175 -16q-146 0 -157 122q0 38 4 56q-61 -93 -138.5 -141 t-183.5 -48q-111 0 -186 50.5t-107 131.5t-32 189zM225 303q0 -48 7.5 -91t25.5 -84.5t54.5 -66t88.5 -24.5q47 0 89 17.5t72.5 45.5t57 70.5t44 82.5t34 93t25.5 91.5t18 86.5l8.5 42.5t9 47.5t6.5 40.5t5.5 46t1.5 40.5q0 36 -5 67.5t-17.5 61.5t-32 51t-50.5 33.5 t-71 12.5q-51 0 -98 -26t-84.5 -71.5t-66.5 -98t-54 -116.5q-68 -191 -68 -352z" />
<glyph unicode="e" horiz-adv-x="962" d="M29 356q0 96 25 192.5t74.5 183t117 153t160.5 106t198 39.5q127 0 209 -59t82 -178q0 -62 -24.5 -111.5t-63 -82t-95 -56t-111.5 -35.5t-122.5 -19.5t-118 -9.5t-106.5 -4h-10q-21 -86 -21 -151q0 -47 5 -85.5t19 -77.5t38 -65.5t65 -43.5t96 -17q238 0 392 280l59 -28 q-177 -314 -498 -314q-370 0 -370 383zM256 530q54 3 91.5 6.5t93.5 12.5t95.5 21.5t83 34.5t70 51t44.5 71.5t18 95.5q0 71 -39 113.5t-111 42.5q-252 0 -346 -449z" />
<glyph unicode="f" horiz-adv-x="663" d="M-295 -211q0 39 6 80h86q-10 -78 -10 -92q0 -65 29.5 -106.5t93.5 -41.5q47 0 84 32.5t56 73t28 85.5q16 76 30.5 227t28.5 223l127 666h-162l13 68h161l29 147q26 132 117.5 220.5t222.5 88.5q193 0 193 -182q0 -49 -13 -109h-112q14 72 14 127q0 117 -96 117 q-70 0 -115 -67q-59 -86 -59 -269q0 -23 4 -73h252l-13 -68h-249l-205 -1040q-28 -137 -114.5 -226.5t-221.5 -89.5q-205 0 -205 209z" />
<glyph unicode="g" horiz-adv-x="1038" d="M-88 -195q0 49 22 101h93q-21 -54 -21 -94q0 -43 20.5 -76t51 -51.5t73.5 -30t81.5 -15.5t80.5 -4q56 0 114.5 8t120 27.5t108.5 49t77.5 76t30.5 104.5q0 28 -12 49.5t-37 34.5t-51.5 21.5t-67.5 12t-72.5 4.5t-77.5 1q-108 0 -161 2q-63 1 -109.5 7t-90.5 20.5 t-68.5 44t-28.5 73.5q-1 7 -1 15q0 45 27 98q29 57 89 96.5t133 58.5q-89 80 -89 203q0 111 62.5 201.5t161 139t209.5 48.5q93 0 157 -26h307l-10 -68h-196q71 -77 71 -188q0 -110 -62.5 -201.5t-162 -142t-209.5 -50.5q-111 0 -186 47q-40 -7 -75 -20.5t-65 -42.5t-30 -66 q0 -38 42.5 -55t119.5 -20q47 -2 151 -2h12h74t71.5 -2t72.5 -5.5t64.5 -10t60.5 -16.5t48.5 -25t40.5 -34.5t23.5 -46.5t9.5 -59q0 -104 -57.5 -186.5t-149.5 -130.5t-195.5 -72.5t-207.5 -24.5q-48 0 -96.5 5.5t-102 21.5t-94.5 39.5t-67.5 64t-26.5 92.5zM340 604 q0 -42 10 -90q26 -106 125 -106q69 0 119 37t75 97t35.5 120.5t10.5 123.5q0 36 -6 67.5t-20 60.5t-42 46t-67 17q-64 0 -112.5 -36.5t-75 -95t-39 -119.5t-13.5 -122z" />
<glyph unicode="h" horiz-adv-x="1169" d="M66 0l274 1380h-143l8 54h332l-129 -619h4q131 215 356 215q233 0 233 -223q0 -47 -16 -133l-96 -481q-6 -25 -6 -76q0 -70 88 -70q2 0 71 6l-10 -53q-91 -16 -174 -16q-160 0 -160 141q0 23 15 125l84 420q20 98 20 145q0 143 -123 143q-134 0 -235 -143 q-66 -98 -92 -244l-113 -571h-188z" />
<glyph unicode="i" horiz-adv-x="585" d="M109 125q0 43 16 125l141 700h-147l10 54h334l-162 -811q-8 -33 -8 -76q0 -70 90 -70q11 0 23.5 1t27.5 2.5t23 2.5l-13 -53q-91 -16 -176 -16q-74 0 -116.5 34.5t-42.5 106.5zM301 1276q0 53 37 90t92 37q39 0 66.5 -26.5t27.5 -65.5q0 -53 -36 -90t-91 -37 q-40 0 -68 27t-28 65z" />
<glyph unicode="j" horiz-adv-x="585" d="M-133 -373q58 29 102 75t72 107t45 120.5t31 136.5l159 884h-145l10 54h332l-166 -908q-35 -206 -132 -319.5t-286 -196.5zM311 1276q0 53 37 90t92 37q40 0 68.5 -26.5t28.5 -65.5q0 -53 -37 -90t-92 -37q-40 0 -68.5 27t-28.5 65z" />
<glyph unicode="k" horiz-adv-x="1095" d="M66 0l272 1380h-143l10 54h332l-129 -619h4q125 215 350 215q109 0 180.5 -58.5t71.5 -162.5q0 -70 -30.5 -124.5t-83.5 -89t-110 -55.5t-126 -34q84 -193 194 -387q41 -70 111 -70q23 0 55 4l-10 -53q-82 -16 -164 -16q-146 0 -203 114q-112 219 -207 437q34 0 78 6 q53 5 98.5 15.5t91.5 31.5t78 50.5t52 75t20 101.5q0 68 -41 108t-110 40q-60 0 -112.5 -25t-89 -64.5t-66 -93t-46.5 -104.5t-28 -105l-111 -571h-188z" />
<glyph unicode="l" horiz-adv-x="585" d="M98 125q0 38 17 125l225 1130h-143l8 54h332l-246 -1241q-8 -50 -8 -76q0 -37 25 -53.5t63 -16.5q16 0 43 3t32 3l-14 -53q-88 -16 -174 -16q-74 0 -117 34.5t-43 106.5z" />
<glyph unicode="m" horiz-adv-x="1740" d="M76 0l190 950h-147l12 54h326l-39 -189h4q61 106 143.5 160.5t202.5 54.5q118 0 169.5 -56.5t53.5 -172.5q63 114 148 171.5t211 57.5q223 0 223 -221q0 -60 -14 -135l-97 -481q-8 -33 -8 -76q0 -70 88 -70q12 0 24.5 1t27 2.5t22.5 2.5l-12 -53q-88 -16 -174 -16 q-160 0 -160 141q0 43 16 125l84 420q19 93 19 147q0 141 -115 141q-56 0 -105 -26t-82.5 -65.5t-61 -93t-43.5 -102.5t-26 -100l-112 -571h-189l133 670q19 93 19 147q0 141 -113 141q-56 0 -105 -26t-82.5 -65.5t-61 -93t-43 -102.5t-25.5 -100l-113 -571h-188z" />
<glyph unicode="n" horiz-adv-x="1177" d="M76 0l190 950h-147l12 54h326l-39 -189h4q131 215 356 215q234 0 234 -223q0 -42 -17 -133l-96 -481q-6 -37 -6 -76q0 -70 88 -70q3 0 72 6l-11 -53q-88 -16 -174 -16q-159 0 -159 141q0 29 14 125l84 420q20 98 20 145q0 143 -122 143q-135 0 -236 -143 q-66 -98 -92 -244l-113 -571h-188z" />
<glyph unicode="o" horiz-adv-x="1038" d="M31 365q0 118 38.5 235t107 213.5t176 156.5t233.5 60q178 0 276.5 -114t98.5 -291q0 -94 -23.5 -187t-70.5 -177t-111.5 -148t-154 -102t-191.5 -38q-180 0 -279.5 108.5t-99.5 283.5zM221 262q0 -235 185 -235q77 0 143 55t107.5 137.5t71 182.5t42 187t12.5 154 q0 234 -186 234q-65 0 -122 -38.5t-96.5 -101.5t-70.5 -139.5t-49.5 -158.5t-27.5 -152t-9 -125z" />
<glyph unicode="p" horiz-adv-x="1136" d="M-2 -393l268 1343h-147l12 54h328l-33 -158q52 86 134 135t183 49q164 0 245 -103t81 -268q0 -89 -22 -183t-67.5 -184t-107.5 -161t-150 -114.5t-187 -43.5q-192 0 -246 156l-94 -469h157l-12 -53h-342zM326 268q0 -63 16 -112.5t59 -84t109 -34.5q59 0 111.5 34 t91 91.5t65.5 118t47 129.5q47 155 47 288q0 48 -7.5 91t-25.5 85.5t-54.5 67.5t-88.5 25q-48 0 -89.5 -16.5t-71.5 -41.5t-56.5 -65t-43.5 -76t-32.5 -86t-24 -84.5t-18.5 -81.5q-34 -170 -34 -248z" />
<glyph unicode="q" horiz-adv-x="1114" d="M29 344q0 90 22 184.5t67 184.5t107 160.5t150 113.5t188 43q201 0 248 -168h4l72 142h135l-268 -1344h145l-10 -53h-334l109 540q-112 -174 -310 -174q-112 0 -187 51t-106.5 132t-31.5 188zM225 303q0 -49 7.5 -91t25 -84t54.5 -66.5t89 -24.5q48 0 90 18.5t72.5 47 t57.5 72.5t44.5 84t33.5 94t24.5 89.5t17.5 81.5q2 11 8 41.5t9 45.5t7 39.5t5.5 45t1.5 41.5q0 49 -9.5 88.5t-30.5 72.5t-58 51t-88 18q-52 0 -100 -28.5t-84.5 -77t-63 -99t-47.5 -107.5q-66 -189 -66 -352z" />
<glyph unicode="r" horiz-adv-x="911" d="M76 0l190 950h-147l12 54h326l-41 -207h2q57 102 141 167.5t189 65.5q67 0 103 -40t36 -105q0 -30 -5.5 -68t-9.5 -57.5t-17 -70t-15 -58.5h-127q32 144 32 219q0 100 -67 100q-60 0 -115.5 -45t-93.5 -113t-63.5 -134t-36.5 -123l-105 -535h-188z" />
<glyph unicode="s" horiz-adv-x="901" d="M23 244q0 58 12 110h104q-4 -39 -4 -106q0 -108 47.5 -164.5t155.5 -56.5q109 0 194.5 66t85.5 171q0 32 -14 58.5t-32.5 44t-54.5 35.5t-61 27.5t-71 25.5q-59 19 -98.5 37t-82.5 47t-65 71.5t-22 96.5q0 101 60 176.5t150.5 111t196.5 35.5q61 0 110.5 -10.5t91.5 -35 t65.5 -69t23.5 -106.5q0 -41 -14 -123h-107q1 15 4 35.5t5 38t2 35.5q0 182 -187 182q-95 0 -170.5 -53.5t-75.5 -143.5q0 -30 14 -54.5t33.5 -41t55.5 -33t64 -26t75 -24.5q7 -2 10 -3q57 -19 97.5 -38t81 -50t62 -75t21.5 -101q0 -113 -67 -197t-167.5 -124t-215.5 -40 q-152 0 -232.5 64t-80.5 207z" />
<glyph unicode="t" horiz-adv-x="696" d="M92 936l14 68h168l93 290h145l-57 -290h250l-13 -68h-252l-137 -688q-12 -74 -12 -109q0 -43 19.5 -69.5t60.5 -26.5t79.5 16t73 46.5t58.5 57t53 64.5l43 -34q-80 -104 -165 -162t-198 -58q-94 0 -151.5 41t-57.5 129q0 52 15 129l133 664h-162z" />
<glyph unicode="u" horiz-adv-x="1175" d="M113 950l10 54h334l-135 -670q-19 -93 -19 -146q0 -139 117 -139q69 0 132.5 46.5t111.5 113.5q65 93 94 242l108 553h187l-160 -811q-8 -33 -8 -76q0 -70 90 -70q11 0 23 1t26 2.5t23 2.5l-11 -53q-94 -16 -176 -16q-142 0 -153 122q-1 9 -1 18q0 35 9 83 q-135 -234 -369 -234q-110 0 -167.5 57t-57.5 167q0 58 14 133l123 620h-145z" />
<glyph unicode="v" horiz-adv-x="987" d="M31 950l10 54h295l121 -869q158 155 262 368.5t143 446.5h-147l12 54h258q-59 -299 -205 -546t-385 -466h-112l-136 958h-116z" />
<glyph unicode="w" horiz-adv-x="1474" d="M31 950l10 54h295l121 -869q133 127 245 340l-69 475h-115l10 54h293l123 -869q158 155 261 368.5t143 446.5h-144l10 54h261q-60 -304 -205.5 -549t-386.5 -463h-113l-53 366q-128 -190 -322 -366h-112l-136 958h-116z" />
<glyph unicode="x" horiz-adv-x="1003" d="M-16 0q9 53 44.5 107t96.5 126q65 76 268 271l-180 446h-125l8 54h314l143 -379q102 106 154 180q77 99 92 199h143q-17 -78 -133 -211q-82 -91 -231 -228q49 -127 184 -452q25 -66 96 -66q6 0 66 6l-13 -53q-91 -16 -174 -16q-139 0 -180 106q-65 160 -139 350 q-144 -152 -219 -256q-60 -89 -76 -184h-139z" />
<glyph unicode="y" horiz-adv-x="987" d="M-188 -217q0 45 8 84h100q-6 -47 -6 -92q0 -137 115 -137q50 0 111 38.5t115 96.5t96.5 114.5t70.5 104.5h-45l-230 958h-116l10 54h289l205 -848q218 365 315 794h-137l8 54h266q-145 -498 -452 -961q-29 -44 -51 -75.5t-61 -83.5t-72 -89.5t-77 -80.5t-84 -70 t-86 -45.5t-88 -18.5q-98 0 -151 51t-53 152z" />
<glyph unicode="z" horiz-adv-x="944" d="M-41 45l776 819q-46 0 -147.5 2t-147.5 2q-33 0 -53.5 -0.5t-52 -5t-52 -12.5t-40.5 -24t-29 -38q-30 -68 -43 -112h-59l69 328h711l27 -48l-744 -778q68 10 137 10q35 0 74 -3t86.5 -8t73.5 -7q11 -1 35 -4.5t44 -5.5t38 -2q66 0 113 176q2 7 3 10h60l-80 -371 q-411 78 -586 78q-114 0 -182 -51z" />
<glyph unicode="{" horiz-adv-x="774" d="M59 539l11 47q76 12 124.5 29.5t80.5 50t48.5 75t28.5 111.5l56 305q15 86 41.5 144t75.5 102t128 64t193 20l-8 -47q-133 -9 -188 -65.5t-79 -192.5l-51 -297q-27 -153 -92.5 -220.5t-210.5 -101.5q108 -28 154.5 -77.5t46.5 -141.5q0 -39 -10 -104l-54 -295 q-10 -68 -10 -107q0 -74 41 -109t143 -42l-6 -47q-180 0 -257 53.5t-77 161.5q0 54 11 116l49 283q12 62 12 113q0 77 -43.5 115t-157.5 57z" />
<glyph unicode="|" horiz-adv-x="1081" d="M459 -408v2044h164v-2044h-164z" />
<glyph unicode="}" horiz-adv-x="774" d="M-96 -360l8 47q132 9 186 65.5t78 192.5l53 295q27 151 92.5 219t208.5 104q-106 29 -152 75.5t-46 139.5q0 25 12 107l51 297q11 72 11 102q0 76 -42 112.5t-145 43.5l8 47q182 0 259 -53.5t77 -163.5q0 -35 -12 -113l-55 -305q-11 -68 -11 -94q0 -78 45 -115.5 t158 -56.5l-8 -47q-148 -23 -205 -78.5t-82 -190.5l-51 -299q-16 -87 -41 -144t-74 -101.5t-128 -65t-195 -20.5z" />
<glyph unicode="~" horiz-adv-x="1196" d="M47 362q8 51 28.5 102t52.5 95.5t79.5 72t101.5 27.5q39 0 94 -13.5t94 -27.5t105 -40q2 -1 42.5 -15t55.5 -18.5t47.5 -14t55 -13t41.5 -3.5q62 0 104 42t58 106h98q-10 -53 -30 -102t-51.5 -94t-79 -72t-103.5 -27q-23 0 -48.5 4t-62.5 14.5t-55.5 16.5t-67.5 23.5 t-59 20.5q-180 66 -242 66q-61 0 -102.5 -43t-57.5 -107h-98z" />
<glyph unicode="&#xa1;" horiz-adv-x="591" d="M8 -342q0 16 2.5 35t8.5 46t9.5 41.5t13 49.5t11.5 41q17 58 68 216.5t84 275.5t55 225h57q-1 -9 -4 -31t-4 -35q-10 -89 -18 -188.5t-17 -232.5t-14 -195l-4.5 -57t-5.5 -57.5t-9 -60.5t-12.5 -54t-18.5 -50.5t-25 -37t-33.5 -27t-42.5 -8.5q-45 0 -73 29.5t-28 74.5z M225 891q0 53 39.5 93t93.5 40q44 0 73.5 -30.5t29.5 -73.5q0 -53 -38.5 -92.5t-90.5 -39.5q-44 0 -75.5 30t-31.5 73z" />
<glyph unicode="&#xa2;" horiz-adv-x="1126" d="M98 350q0 116 37 229.5t104 206.5t170.5 155t225.5 73l31 170h67l-33 -168q123 -3 188.5 -63.5t65.5 -178.5q0 -53 -20 -151h-125q18 110 18 155q0 50 -12 90q-31 89 -125 97l-166 -928q51 3 97 20t81 41t68.5 60t58 71.5t50.5 81.5l55 -28q-79 -134 -180 -213.5 t-240 -92.5l-33 -172h-65l33 168q-170 3 -260.5 106t-90.5 271zM291 309q0 -69 6 -100q25 -147 162 -166l166 918q-73 -16 -131.5 -70t-95 -124t-61 -156t-35 -160t-11.5 -142z" />
<glyph unicode="&#xa3;" horiz-adv-x="1126" d="M-29 0q10 46 11 53q148 99 209 215.5t61 292.5q0 30 -4 96h-168l10 64h154q-4 102 -4 156q0 258 132.5 408.5t379.5 150.5q183 0 321 -88l-49 -318h-88q8 94 8 144q0 98 -46 154t-142 56q-298 0 -303 -536v-127h407l-12 -64h-395q-2 -119 -29 -201.5t-78 -145.5 t-149 -144h702l51 270h62l-78 -436h-963z" />
<glyph unicode="&#xa4;" horiz-adv-x="1126" d="M20 156l160 155q-94 108 -94 273q0 162 94 270l-160 158l93 92l159 -158q121 92 281 92q162 0 283 -92l159 158l92 -92l-161 -158q96 -111 96 -270q0 -163 -96 -273l161 -155l-92 -93l-159 156q-119 -88 -283 -88q-162 0 -281 88l-159 -156zM227 586q0 -135 95.5 -231.5 t230.5 -96.5q136 0 232 96.5t96 231.5q0 134 -96 229.5t-232 95.5q-135 0 -230.5 -95.5t-95.5 -229.5z" />
<glyph unicode="&#xa5;" horiz-adv-x="1126" d="M102 524l13 62h348l16 73l-41 119h-288l10 62h258l-174 520h-133l8 53h553l-13 -53h-194l197 -606l266 389q25 38 57.5 103.5t50.5 113.5h-135l10 53h377l-10 -53h-115q-59 -71 -186 -254l-186 -266h249l-10 -62h-278l-70 -102l-16 -90h327l-10 -62h-328l-86 -471h174 l-8 -53h-549l9 53h174l84 471h-351z" />
<glyph unicode="&#xa6;" horiz-adv-x="1081" d="M459 -236v685h164v-685h-164zM459 782v684h164v-684h-164z" />
<glyph unicode="&#xa7;" horiz-adv-x="1085" d="M25 -297q5 48 41 326h88q-4 -70 -4 -105q0 -119 45.5 -173t164.5 -54q72 0 139 27t113.5 83t46.5 127q0 52 -33.5 90.5t-87 62t-118.5 45t-130 48t-118.5 62t-87 96t-33.5 141.5q0 140 85.5 248t223.5 172q-93 52 -120 141q-12 44 -9 95q6 109 76 190.5t170 119.5t211 38 q174 0 334 -58q0 -161 -35 -327h-84q1 12 2.5 33t2.5 38t1 33q0 118 -46.5 173t-164.5 55q-113 0 -206 -66t-93 -172q0 -52 33.5 -90t87 -62t118 -46t129.5 -49t118.5 -63t87 -96.5t33.5 -140.5q0 -142 -82.5 -248.5t-223.5 -169.5q92 -53 119 -141q13 -47 10 -94 q-4 -83 -46 -150.5t-107 -110t-144 -65t-161 -22.5q-199 0 -346 59zM236 535q4 -42 25.5 -77t49.5 -57.5t72.5 -44.5t78.5 -33.5t84.5 -28.5t74.5 -26q55 23 100.5 67t73.5 99q37 79 28 158q-3 42 -24.5 77t-50 57.5t-73 44t-79 33.5t-84 28.5t-74.5 25.5q-55 -23 -100 -67 t-72 -99q-36 -77 -30 -157z" />
<glyph unicode="&#xa8;" horiz-adv-x="1024" d="M365 1284q0 44 30.5 78.5t73.5 34.5q36 0 60 -25.5t24 -62.5q0 -44 -31 -78.5t-76 -34.5q-35 0 -58 25.5t-23 62.5zM702 1284q0 44 31 78.5t76 34.5q38 0 61 -25t23 -63q0 -44 -31 -78.5t-76 -34.5q-38 0 -61 25t-23 63z" />
<glyph unicode="&#xa9;" horiz-adv-x="1617" d="M92 717q0 148 58 283.5t156 233.5t233.5 156t283.5 58t283.5 -58t233.5 -156t156 -233.5t58 -283.5t-58 -283.5t-156 -233.5t-233.5 -156t-283.5 -58t-283.5 58t-233.5 156t-156 233.5t-58 283.5zM176 717q0 -133 51 -253.5t137 -207.5t206 -138.5t253 -51.5t252.5 51.5 t205.5 138.5t136.5 207.5t50.5 253.5t-50.5 253.5t-136.5 207.5t-205.5 138.5t-252.5 51.5t-253 -51.5t-206 -138.5t-137 -207.5t-51 -253.5zM469 731q0 176 104.5 294t288.5 118q125 0 246 -51v-234h-49q-9 101 -37 156q-49 86 -156 86q-62 0 -108.5 -21t-74 -54.5t-44 -83 t-22 -97.5t-5.5 -107q0 -60 5 -108t20.5 -101t42.5 -88t74.5 -58.5t111.5 -23.5q62 0 101.5 24t64.5 75q23 48 39 159h49v-237q-121 -64 -262 -64q-123 0 -213 58t-133 151t-43 207z" />
<glyph unicode="&#xaa;" horiz-adv-x="737" d="M172 1001q0 32 8 58.5t18.5 45t33 34t37.5 24.5t48 18.5t49 13t53 11.5q13 3 19 4q20 5 59 14.5t58 14.5q2 10 6.5 34.5t7 42t2.5 34.5q0 73 -84 73q-67 0 -96.5 -44.5t-42.5 -121.5h-80q17 108 51 142q58 61 173 61q188 0 188 -133q0 -31 -6 -55l-45 -254 q-11 -55 -11 -64q0 -12 7.5 -21t19.5 -9q27 0 52.5 28.5t39.5 59.5l27 -19q-68 -123 -168 -123q-41 0 -62.5 26.5t-21.5 70.5q-68 -99 -184 -99q-67 0 -111.5 35t-44.5 98zM287 1001q0 -37 20.5 -62.5t57.5 -25.5q68 0 109.5 58t55.5 135l19 94q-14 -5 -40.5 -12t-35.5 -10 q-4 -1 -28.5 -8.5t-29 -9.5t-25 -9.5t-25.5 -11t-21 -13t-20.5 -16.5t-14.5 -19.5t-13 -25t-6 -29t-3 -35.5z" />
<glyph unicode="&#xab;" horiz-adv-x="915" d="M76 496l432 430l37 -31l-291 -399l147 -398l-51 -32zM391 496l430 430l37 -31l-287 -399l146 -398l-51 -32z" />
<glyph unicode="&#xac;" horiz-adv-x="1196" d="M68 512v141h1015v-489h-147v348h-868z" />
<glyph unicode="&#xad;" horiz-adv-x="790" d="M72 414l26 164h570l-29 -164h-567z" />
<glyph unicode="&#xae;" horiz-adv-x="1617" d="M88 717q0 148 58 283.5t156 233.5t233.5 156t283.5 58t283.5 -58t233.5 -156t156 -233.5t58 -283.5t-58 -283.5t-156 -233.5t-233.5 -156t-283.5 -58t-283.5 58t-233.5 156t-156 233.5t-58 283.5zM174 717q0 -177 86 -327t234.5 -237t324.5 -87q133 0 253 51.5 t205.5 138.5t136 207.5t50.5 253.5t-50.5 253.5t-136 207.5t-205.5 138.5t-253 51.5q-176 0 -324.5 -87t-234.5 -237t-86 -327zM481 332v43h94v710h-94v43h355q282 0 282 -194q0 -143 -162 -186q40 -9 68.5 -27t44 -39t26 -52t14.5 -56t9.5 -62.5t11.5 -60.5q16 -60 39 -76 h58v-43h-189q-27 27 -41 90q-8 35 -16 121q-10 94 -46 137t-128 43h-96v-348h98v-43h-328zM711 766h84q100 0 142 43t42 125q0 79 -42 115t-136 36h-90v-319z" />
<glyph unicode="&#xaf;" horiz-adv-x="1024" d="M332 1253l20 119h578l-23 -119h-575z" />
<glyph unicode="&#xb0;" horiz-adv-x="786" d="M190 1143q0 120 85.5 203.5t205.5 83.5t205.5 -83.5t85.5 -203.5t-85.5 -205.5t-205.5 -85.5t-205.5 85.5t-85.5 205.5zM301 1143q0 -76 53 -128t127 -52q75 0 129 52.5t54 127.5q0 74 -53.5 127t-129.5 53q-73 0 -126.5 -53.5t-53.5 -126.5z" />
<glyph unicode="&#xb1;" horiz-adv-x="1196" d="M68 -33v144h1015v-144h-1015zM68 567v144h434v346h145v-346h436v-144h-436v-340h-145v340h-434z" />
<glyph unicode="&#xb2;" d="M111 870l4 37l82 66q53 42 85.5 68t78.5 66.5t74 70.5t60 69.5t49.5 74.5t29.5 76.5t12 82.5q0 58 -34 96.5t-93 38.5q-84 0 -139.5 -61t-55.5 -140q0 -90 92 -149l-53 -41q-44 30 -71 78t-27 102q0 116 81.5 189t207.5 73q98 0 161.5 -53t63.5 -144q0 -38 -11 -74 t-27 -66t-46.5 -64t-56.5 -58.5t-70.5 -59t-75 -56t-84 -59.5t-84.5 -60h262q22 0 43 28q23 36 47 89l46 -5l-76 -215h-475z" />
<glyph unicode="&#xb3;" d="M131 1069l76 23q-4 -29 -4 -54q0 -141 133 -141q91 0 143.5 75.5t52.5 168.5q0 61 -33.5 87.5t-92.5 31.5q-32 4 -64 4l6 45h33q94 0 147.5 57.5t53.5 146.5q0 47 -28.5 78t-78.5 31q-37 0 -67.5 -17.5t-52.5 -50t-36 -60.5t-28 -67l-68 19q75 221 269 221 q96 0 159.5 -45t63.5 -131q0 -84 -57.5 -134t-149.5 -69q75 -14 118.5 -56t43.5 -114q0 -80 -48 -141t-121 -91t-157 -30q-95 0 -151 46t-60 130q0 6 -1 18t-1 19z" />
<glyph unicode="&#xb4;" horiz-adv-x="1024" d="M508 1163q27 27 78 80t91.5 94t85 84t79 66.5t53.5 23.5q28 0 45.5 -17.5t17.5 -41.5q0 -38 -55 -80q-117 -84 -356 -239z" />
<glyph unicode="&#xb5;" horiz-adv-x="1175" d="M-12 -393l270 1343h-145l10 54h334l-135 -670q-19 -89 -19 -146q0 -61 29 -100t88 -39q69 0 132.5 46.5t111.5 113.5q67 99 100 274l102 521h187l-160 -811q-8 -33 -8 -76q0 -70 90 -70q11 0 23 1t26 2.5t23 2.5l-11 -53q-94 -16 -176 -16q-142 0 -153 122q-3 41 8 101 q-130 -224 -346 -230q-60 -3 -113 23l-80 -393h-188z" />
<glyph unicode="&#xb6;" horiz-adv-x="1409" d="M147 893q0 107 41 206t112.5 173t174 118t219.5 44h746l-10 -60h-148l-307 -1734h-168l307 1734h-289l-307 -1734h-139l151 868q-178 15 -280.5 118t-102.5 267zM305 893q0 -134 62 -221.5t174 -102.5l141 801q-88 -1 -161 -44t-119.5 -111.5t-71.5 -151.5t-25 -170z" />
<glyph unicode="&#xb7;" horiz-adv-x="591" d="M135 416q0 52 39 92.5t92 40.5q45 0 74 -31t29 -76q0 -52 -37.5 -91.5t-89.5 -39.5q-46 0 -76.5 30.5t-30.5 74.5z" />
<glyph unicode="&#xb8;" horiz-adv-x="1024" d="M113 -369l34 56q90 -54 185 -54q50 0 86.5 25.5t36.5 79.5q0 95 -168 100l67 162h64l-43 -109q36 -3 68.5 -12t66 -26.5t53 -49t19.5 -73.5q0 -86 -69 -128t-163 -42q-127 0 -237 71z" />
<glyph unicode="&#xb9;" d="M205 870l8 41h102q11 56 53.5 275t65.5 344q-73 -61 -153 -109l-17 39q151 88 240 205h86l-141 -754h98l-4 -41h-338z" />
<glyph unicode="&#xba;" horiz-adv-x="716" d="M190 1100q0 89 35.5 170t108 135.5t166.5 54.5q103 0 160 -64t57 -167q0 -88 -35.5 -169.5t-108 -136.5t-165.5 -55q-103 0 -160.5 65t-57.5 167zM305 1038q0 -133 101 -133q52 0 92 43.5t61.5 107.5t32 125t10.5 109q0 133 -102 133q-52 0 -92 -43.5t-61 -108 t-31.5 -125t-10.5 -108.5z" />
<glyph unicode="&#xbb;" horiz-adv-x="915" d="M4 98l289 398l-146 399l52 31l274 -430l-430 -430zM319 98l289 398l-145 399l51 31l274 -430l-432 -430z" />
<glyph unicode="&#xbc;" horiz-adv-x="1310" d="M70 -20l1192 1454h79l-1189 -1454h-82zM162 631l8 41h102q12 61 54 277t65 341q-68 -57 -153 -108l-17 41q151 85 240 202h86l-141 -753h98l-4 -41h-338zM565 240l8 55l486 502h76l-93 -504h107l-10 -53h-109l-37 -199h88l-6 -41h-327l6 41h112l37 199h-338zM635 293h276 l68 358z" />
<glyph unicode="&#xbd;" horiz-adv-x="1310" d="M29 -20l1192 1454h79l-1189 -1454h-82zM162 631l8 41h102q12 61 54 277t65 341q-68 -57 -153 -108l-17 41q151 85 240 202h86l-141 -753h98l-4 -41h-338zM612 0l4 37l82 65q53 42 85.5 68t78.5 66.5t74 70.5t60 69.5t49.5 74.5t29.5 76.5t12 82.5q0 58 -33.5 96.5 t-92.5 38.5q-84 0 -139.5 -60.5t-55.5 -139.5q0 -91 92 -150l-53 -41q-44 30 -71 78.5t-27 102.5q0 116 81.5 189t206.5 73q98 0 162 -53t64 -144q0 -38 -11 -74.5t-27 -66t-46.5 -64t-56 -58.5t-71 -59t-75 -55.5t-84 -59t-84.5 -59.5h262q23 0 43 27q25 39 47 88l45 -4 l-76 -215h-475z" />
<glyph unicode="&#xbe;" horiz-adv-x="1310" d="M78 -20l1192 1454h80l-1190 -1454h-82zM88 829l76 23q-4 -29 -4 -53q0 -140 133 -140q62 0 108 38t67 92t21 112q0 61 -33.5 87.5t-93.5 33.5q-6 0 -26.5 1t-36.5 1l6 45h33q94 0 147.5 58t53.5 149q0 46 -28.5 76t-78.5 30q-37 0 -67.5 -17t-52.5 -49.5t-35.5 -60 t-28.5 -65.5l-68 16q36 107 100.5 164t168.5 57q96 0 159.5 -44t63.5 -130q0 -85 -57.5 -135t-149.5 -69q75 -14 118.5 -56t43.5 -112q0 -120 -97.5 -192.5t-228.5 -72.5q-94 0 -150.5 46.5t-60.5 130.5q0 6 -1 18t-1 18zM565 240l8 55l486 502h76l-93 -504h107l-10 -53 h-109l-37 -199h88l-6 -41h-327l6 41h112l37 199h-338zM635 293h276l68 358z" />
<glyph unicode="&#xbf;" horiz-adv-x="874" d="M-68 -174q0 64 14 119.5t36.5 97.5t57 81t68.5 66.5t78 57.5q14 9 58 38.5t59.5 40t47.5 36t46 42t30 40.5t24 49q7 32 20 106h59q-8 -93 -32 -161t-74 -124q-28 -33 -81.5 -80.5t-86.5 -80.5t-67.5 -99t-49.5 -153q-16 -90 -16 -135q0 -168 141 -168q57 0 103.5 27 t73 58t51.5 95.5t33.5 97t24.5 104.5q3 14 5 21l100 -18q-21 -137 -67 -230q-105 -209 -342 -209q-144 0 -229 71.5t-85 209.5zM438 891q0 53 38.5 93t90.5 40q45 0 76 -30.5t31 -73.5q0 -53 -38.5 -92.5t-92.5 -39.5q-45 0 -75 30t-30 73z" />
<glyph unicode="&#xc0;" horiz-adv-x="1269" d="M-156 0l11 53h108q49 66 154 264l602 1129h129l237 -1393h121l-10 -53h-518l8 53h184l-79 475h-486l-63 -116q-36 -67 -78.5 -177.5t-59.5 -181.5h160l-12 -53h-408zM334 588h448l-108 629h-8q-20 -39 -144.5 -273.5t-187.5 -355.5zM539 1819q0 32 24.5 52.5t54.5 20.5 q21 0 39 -14t43 -45q129 -164 201 -258l-51 -29l-270 199q-41 33 -41 74z" />
<glyph unicode="&#xc1;" horiz-adv-x="1269" d="M-156 0l11 53h108q49 66 154 264l602 1129h129l237 -1393h121l-10 -53h-518l8 53h184l-79 475h-486l-63 -116q-36 -67 -78.5 -177.5t-59.5 -181.5h160l-12 -53h-408zM334 588h448l-108 629h-8q-20 -39 -144.5 -273.5t-187.5 -355.5zM680 1579l100 88q60 52 93 80.5t83 68 t82 58t49 18.5q24 0 43 -16.5t19 -40.5q0 -48 -59 -82q-121 -73 -365 -209z" />
<glyph unicode="&#xc2;" horiz-adv-x="1269" d="M-156 0l11 53h108q49 66 154 264l602 1129h129l237 -1393h121l-10 -53h-518l8 53h184l-79 475h-486l-63 -116q-36 -67 -78.5 -177.5t-59.5 -181.5h160l-12 -53h-408zM334 588h448l-108 629h-8q-20 -39 -144.5 -273.5t-187.5 -355.5zM496 1577l299 307h112l178 -311 l-51 -29l-198 215l-291 -217z" />
<glyph unicode="&#xc3;" horiz-adv-x="1269" d="M-156 0l11 53h108q49 66 154 264l602 1129h129l237 -1393h121l-10 -53h-518l8 53h184l-79 475h-486l-63 -116q-36 -67 -78.5 -177.5t-59.5 -181.5h160l-12 -53h-408zM334 588h448l-108 629h-8q-20 -39 -144.5 -273.5t-187.5 -355.5zM487 1614q37 83 97.5 139.5 t138.5 56.5q10 0 21.5 -2t20 -4.5t21.5 -8t19 -8.5l21 -10.5t20 -9.5t20 -9.5t23.5 -11t22 -8.5t27 -7t28.5 -2q87 0 135 90l53 -13q-93 -198 -235 -198q-56 0 -136 43q-6 3 -25 12t-28 13t-25.5 8t-31.5 4q-86 0 -139 -89z" />
<glyph unicode="&#xc4;" horiz-adv-x="1269" d="M-156 0l11 53h108q49 66 154 264l602 1129h129l237 -1393h121l-10 -53h-518l8 53h184l-79 475h-486l-63 -116q-36 -67 -78.5 -177.5t-59.5 -181.5h160l-12 -53h-408zM334 588h448l-108 629h-8q-20 -39 -144.5 -273.5t-187.5 -355.5zM549 1679q0 44 30.5 77.5t73.5 33.5 q36 0 60 -25.5t24 -62.5q0 -44 -30.5 -77.5t-73.5 -33.5q-36 0 -60 25.5t-24 62.5zM897 1679q0 44 30 77.5t74 33.5q38 0 61 -25t23 -63q0 -44 -30 -77.5t-74 -33.5q-38 0 -61 25t-23 63z" />
<glyph unicode="&#xc5;" horiz-adv-x="1269" d="M-156 0l11 53h108q49 66 154 264l602 1129h129l237 -1393h121l-10 -53h-518l8 53h184l-79 475h-486l-63 -116q-36 -67 -78.5 -177.5t-59.5 -181.5h160l-12 -53h-408zM334 588h448l-108 629h-8q-20 -39 -144.5 -273.5t-187.5 -355.5zM594 1702q0 91 67 154t162 63 q93 0 159.5 -63t66.5 -154t-66.5 -154t-159.5 -63q-95 0 -162 63t-67 154zM696 1702q0 -56 36 -93.5t91 -37.5q54 0 89.5 37.5t35.5 93.5q0 55 -36 93t-89 38q-55 0 -91 -38t-36 -93z" />
<glyph unicode="&#xc6;" horiz-adv-x="1824" d="M-184 0l10 53h108q69 88 166 228q58 83 358.5 527.5t385.5 571.5h-154l8 54h1078q0 -127 -58 -449h-59q-1 72 -2 113.5t-4.5 88.5t-9 70.5t-16 49.5t-23.5 36.5t-34 21t-46.5 13t-61.5 2.5h-340l-112 -612h137q56 0 91 12t63.5 57t41 76.5t43.5 125.5q5 13 7 20h61 l-117 -637h-59q4 126 0 164q-6 76 -33 101.5t-98 25.5h-146l-116 -660h356q53 0 107 8q38 6 71 29.5t57.5 56.5t48.5 84t42.5 99.5t42.5 114.5l18 51h62l-101 -496h-1077l10 53h158l84 475h-414q-45 -62 -53 -75q-175 -280 -219 -400h158l-11 -53h-409zM383 588h393 q24 132 71.5 396t70.5 396h-5q-356 -528 -530 -792z" />
<glyph unicode="&#xc7;" horiz-adv-x="1273" d="M78 553q0 136 33 267t100.5 246.5t160.5 203.5t222 139t276 51q207 0 375 -76q0 -203 -45 -419h-59q7 75 4 141q-7 301 -264 301q-293 0 -455 -317q-69 -137 -106 -309.5t-37 -331.5q0 -71 10.5 -131.5t35.5 -115.5t64 -93.5t99.5 -61t138.5 -22.5q69 0 127 18.5t101 55 t75.5 77.5t59.5 100.5t44.5 107.5t36.5 114h62l-76 -414q-215 -113 -443 -113h-26l-33 -80q37 -3 70 -12t66 -26.5t53 -49t20 -73.5q0 -59 -37 -99t-86.5 -55.5t-107.5 -15.5q-130 0 -240 71l35 56q93 -54 186 -54q50 0 86.5 25.5t36.5 79.5q0 95 -170 100l57 139 q-150 18 -252.5 97.5t-150 200.5t-47.5 278z" />
<glyph unicode="&#xc8;" horiz-adv-x="1275" d="M-39 0l10 53h158l240 1327h-158l10 54h996q0 -206 -48 -449h-59q-1 43 -4.5 108.5t-3.5 69.5q-2 61 -10.5 98t-30.5 66t-61.5 41t-102.5 12h-326l-108 -612h145q69 0 111 32.5t72 96.5q22 52 53 162h59l-112 -637h-62q4 43 4 125q2 88 -26.5 128t-108.5 40h-145 l-119 -662h377q101 0 156.5 37t97.5 129q48 94 112 277h62l-101 -496h-1077zM541 1819q0 32 25 52.5t55 20.5q21 0 38.5 -13.5t42.5 -45.5q129 -164 201 -258l-51 -29l-270 199q-41 33 -41 74z" />
<glyph unicode="&#xc9;" horiz-adv-x="1275" d="M-39 0l10 53h158l240 1327h-158l10 54h996q0 -206 -48 -449h-59q-1 43 -4.5 108.5t-3.5 69.5q-2 61 -10.5 98t-30.5 66t-61.5 41t-102.5 12h-326l-108 -612h145q69 0 111 32.5t72 96.5q22 52 53 162h59l-112 -637h-62q4 43 4 125q2 88 -26.5 128t-108.5 40h-145 l-119 -662h377q101 0 156.5 37t97.5 129q48 94 112 277h62l-101 -496h-1077zM682 1579l100 88q58 51 93 80.5t84 68t81.5 57.5t49.5 19q24 0 42.5 -16.5t18.5 -40.5q0 -48 -59 -82q-121 -73 -365 -209z" />
<glyph unicode="&#xca;" horiz-adv-x="1275" d="M-39 0l10 53h158l240 1327h-158l10 54h996q0 -206 -48 -449h-59q-1 43 -4.5 108.5t-3.5 69.5q-2 61 -10.5 98t-30.5 66t-61.5 41t-102.5 12h-326l-108 -612h145q69 0 111 32.5t72 96.5q22 52 53 162h59l-112 -637h-62q4 43 4 125q2 88 -26.5 128t-108.5 40h-145 l-119 -662h377q101 0 156.5 37t97.5 129q48 94 112 277h62l-101 -496h-1077zM498 1577l299 307h112l178 -311l-51 -29l-198 215l-291 -217z" />
<glyph unicode="&#xcb;" horiz-adv-x="1275" d="M-39 0l10 53h158l240 1327h-158l10 54h996q0 -206 -48 -449h-59q-1 43 -4.5 108.5t-3.5 69.5q-2 61 -10.5 98t-30.5 66t-61.5 41t-102.5 12h-326l-108 -612h145q69 0 111 32.5t72 96.5q22 52 53 162h59l-112 -637h-62q4 43 4 125q2 88 -26.5 128t-108.5 40h-145 l-119 -662h377q101 0 156.5 37t97.5 129q48 94 112 277h62l-101 -496h-1077zM551 1679q0 44 30.5 77.5t73.5 33.5q36 0 60 -25.5t24 -62.5q0 -44 -30.5 -77.5t-73.5 -33.5q-36 0 -60 25.5t-24 62.5zM899 1679q0 44 30 77.5t75 33.5q37 0 60 -25t23 -63q0 -44 -30 -77.5 t-74 -33.5q-38 0 -61 25t-23 63z" />
<glyph unicode="&#xcc;" horiz-adv-x="688" d="M-31 0l8 53h160l240 1327h-158l10 54h521l-11 -54h-159l-238 -1327h158l-11 -53h-520zM248 1819q0 32 25 52.5t55 20.5q21 0 39 -14t43 -45q86 -109 200 -258l-51 -29l-270 199q-41 33 -41 74z" />
<glyph unicode="&#xcd;" horiz-adv-x="688" d="M-31 0l8 53h160l240 1327h-158l10 54h521l-11 -54h-159l-238 -1327h158l-11 -53h-520zM389 1579l100 88q58 51 93 80.5t84 68t81.5 57.5t49.5 19q24 0 42.5 -16.5t18.5 -40.5q0 -48 -59 -82q-121 -73 -365 -209z" />
<glyph unicode="&#xce;" horiz-adv-x="688" d="M-31 0l8 53h160l240 1327h-158l10 54h521l-11 -54h-159l-238 -1327h158l-11 -53h-520zM205 1577l299 307h112l179 -311l-52 -29l-198 215l-291 -217z" />
<glyph unicode="&#xcf;" horiz-adv-x="688" d="M-31 0l8 53h160l240 1327h-158l10 54h521l-11 -54h-159l-238 -1327h158l-11 -53h-520zM258 1679q0 44 30.5 77.5t73.5 33.5q36 0 60 -25.5t24 -62.5q0 -44 -30.5 -77.5t-73.5 -33.5q-36 0 -60 25.5t-24 62.5zM606 1679q0 44 30 77.5t75 33.5q38 0 61 -25t23 -63 q0 -44 -30 -77.5t-75 -33.5q-38 0 -61 25t-23 63z" />
<glyph unicode="&#xd0;" horiz-adv-x="1449" d="M-39 0l10 53h158l119 649h-193l17 78h188l109 600h-158l10 54h588q280 0 436 -140t156 -411q0 -89 -8 -154q-22 -159 -84.5 -291.5t-162.5 -230.5t-242.5 -152.5t-313.5 -54.5h-629zM334 53h211q446 0 598 537q51 176 51 379q0 411 -406 411h-217l-108 -600h309l-16 -78 h-305z" />
<glyph unicode="&#xd1;" horiz-adv-x="1433" d="M-61 0l8 53h147q45 175 90 408l185 919h-158l10 54h408l477 -1141l76 461q49 295 49 626h-158l8 54h430l-10 -54h-147q-32 -148 -72 -389l-164 -999h-117l-573 1374l-127 -633q-34 -170 -56 -361t-24 -319h162l-8 -53h-436zM590 1614q37 84 97 140t138 56q10 0 21.5 -2 t20 -4.5t21.5 -8t19 -8.5l21 -10.5t20 -9.5t20 -9.5t23.5 -11t22 -8.5t27 -7t28.5 -2q87 0 135 90l53 -13q-93 -198 -235 -198q-55 0 -135 43q-4 2 -24.5 12t-29 13.5t-25.5 7.5t-32 4q-86 0 -139 -89z" />
<glyph unicode="&#xd2;" horiz-adv-x="1378" d="M80 551q0 128 29.5 256t91.5 245.5t148 208.5t207.5 145t262.5 54q127 0 226.5 -45.5t160.5 -125.5t92 -182.5t31 -223.5q0 -128 -30 -256t-92 -246.5t-148.5 -209.5t-208 -145.5t-260.5 -54.5q-129 0 -228.5 46t-160 126.5t-91 183.5t-30.5 224zM279 408 q0 -383 301 -383q90 0 167 38.5t132 103t99.5 151t72 178.5t46 191t26 182.5t7.5 158.5q0 379 -303 379q-88 0 -164.5 -38.5t-131.5 -103t-99 -150.5t-72 -178t-47 -190t-26.5 -182t-7.5 -157zM592 1819q0 32 25 52.5t55 20.5q21 0 39 -14t43 -45q86 -109 200 -258l-51 -29 l-270 199q-41 33 -41 74z" />
<glyph unicode="&#xd3;" horiz-adv-x="1378" d="M80 551q0 128 29.5 256t91.5 245.5t148 208.5t207.5 145t262.5 54q127 0 226.5 -45.5t160.5 -125.5t92 -182.5t31 -223.5q0 -128 -30 -256t-92 -246.5t-148.5 -209.5t-208 -145.5t-260.5 -54.5q-129 0 -228.5 46t-160 126.5t-91 183.5t-30.5 224zM279 408 q0 -383 301 -383q90 0 167 38.5t132 103t99.5 151t72 178.5t46 191t26 182.5t7.5 158.5q0 379 -303 379q-88 0 -164.5 -38.5t-131.5 -103t-99 -150.5t-72 -178t-47 -190t-26.5 -182t-7.5 -157zM733 1579l101 88q60 52 93 80.5t83 68t82 58t49 18.5q24 0 42.5 -16.5 t18.5 -40.5q0 -48 -59 -82q-121 -73 -365 -209z" />
<glyph unicode="&#xd4;" horiz-adv-x="1378" d="M80 551q0 128 29.5 256t91.5 245.5t148 208.5t207.5 145t262.5 54q127 0 226.5 -45.5t160.5 -125.5t92 -182.5t31 -223.5q0 -128 -30 -256t-92 -246.5t-148.5 -209.5t-208 -145.5t-260.5 -54.5q-129 0 -228.5 46t-160 126.5t-91 183.5t-30.5 224zM279 408 q0 -383 301 -383q90 0 167 38.5t132 103t99.5 151t72 178.5t46 191t26 182.5t7.5 158.5q0 379 -303 379q-88 0 -164.5 -38.5t-131.5 -103t-99 -150.5t-72 -178t-47 -190t-26.5 -182t-7.5 -157zM549 1577l299 307h113l178 -311l-52 -29l-198 215l-291 -217z" />
<glyph unicode="&#xd5;" horiz-adv-x="1378" d="M80 551q0 128 29.5 256t91.5 245.5t148 208.5t207.5 145t262.5 54q127 0 226.5 -45.5t160.5 -125.5t92 -182.5t31 -223.5q0 -128 -30 -256t-92 -246.5t-148.5 -209.5t-208 -145.5t-260.5 -54.5q-129 0 -228.5 46t-160 126.5t-91 183.5t-30.5 224zM279 408 q0 -383 301 -383q90 0 167 38.5t132 103t99.5 151t72 178.5t46 191t26 182.5t7.5 158.5q0 379 -303 379q-88 0 -164.5 -38.5t-131.5 -103t-99 -150.5t-72 -178t-47 -190t-26.5 -182t-7.5 -157zM541 1614q37 84 97 140t138 56q12 0 24 -2t27.5 -8t21.5 -8.5t27.5 -13 t22.5 -11.5q5 -2 20 -9.5t23.5 -11t22 -8.5t27 -7t28.5 -2q87 0 135 90l53 -13q-93 -198 -235 -198q-55 0 -135 43q-4 2 -24.5 12t-29 13.5t-25.5 7.5t-32 4q-86 0 -139 -89z" />
<glyph unicode="&#xd6;" horiz-adv-x="1378" d="M80 551q0 128 29.5 256t91.5 245.5t148 208.5t207.5 145t262.5 54q127 0 226.5 -45.5t160.5 -125.5t92 -182.5t31 -223.5q0 -128 -30 -256t-92 -246.5t-148.5 -209.5t-208 -145.5t-260.5 -54.5q-129 0 -228.5 46t-160 126.5t-91 183.5t-30.5 224zM279 408 q0 -383 301 -383q90 0 167 38.5t132 103t99.5 151t72 178.5t46 191t26 182.5t7.5 158.5q0 379 -303 379q-88 0 -164.5 -38.5t-131.5 -103t-99 -150.5t-72 -178t-47 -190t-26.5 -182t-7.5 -157zM602 1679q0 44 31 77.5t74 33.5q36 0 60 -25.5t24 -62.5q0 -44 -31 -77.5 t-74 -33.5q-36 0 -60 25.5t-24 62.5zM950 1679q0 44 30 77.5t75 33.5q38 0 61 -25t23 -63q0 -44 -30 -77.5t-75 -33.5q-38 0 -61 25t-23 63z" />
<glyph unicode="&#xd7;" horiz-adv-x="1196" d="M106 143l371 369l-371 369l101 100l368 -371l369 371l100 -100l-370 -369l370 -369l-100 -100l-369 371l-368 -371z" />
<glyph unicode="&#xd8;" horiz-adv-x="1378" d="M80 551q0 128 29.5 256t91.5 245.5t148 208.5t207.5 145t262.5 54q160 0 283 -76l162 248l63 -35l-168 -256q84 -78 127 -197t43 -261q0 -128 -30 -256t-92 -246.5t-148.5 -209.5t-208 -145.5t-260.5 -54.5q-162 0 -285 76l-162 -246l-61 35l166 256q-168 152 -168 459z M287 485q-7 -170 43 -278l712 1096q-72 104 -215 104q-85 0 -158 -33.5t-126 -89.5t-96.5 -132.5t-71.5 -159.5t-47.5 -175t-29 -173t-11.5 -159zM362 133q76 -108 218 -108q88 0 164 37t130.5 97.5t98.5 143.5t72 171t47 183.5t27 176.5t9 155q0 151 -47 240z" />
<glyph unicode="&#xd9;" horiz-adv-x="1347" d="M145 324q0 61 15 153l172 903h-158l8 54h537l-10 -54h-172l-177 -925q-18 -95 -18 -162q-3 -256 283 -256q95 0 167.5 23t119.5 61t81 100.5t52 126t34 152.5l37 217q55 313 55 573q0 59 -2 90h-151l10 54h422l-10 -54h-142q-15 -57 -26.5 -117t-26.5 -152t-20 -120 l-86 -499q-19 -109 -43 -185.5t-65.5 -143.5t-100.5 -107t-145.5 -62.5t-202.5 -22.5q-205 0 -321.5 82.5t-115.5 270.5zM618 1819q0 32 25 52.5t55 20.5q21 0 39 -14t43 -45q129 -164 201 -258l-51 -29l-271 199q-41 33 -41 74z" />
<glyph unicode="&#xda;" horiz-adv-x="1347" d="M145 324q0 61 15 153l172 903h-158l8 54h537l-10 -54h-172l-177 -925q-18 -95 -18 -162q-3 -256 283 -256q95 0 167.5 23t119.5 61t81 100.5t52 126t34 152.5l37 217q55 313 55 573q0 59 -2 90h-151l10 54h422l-10 -54h-142q-15 -57 -26.5 -117t-26.5 -152t-20 -120 l-86 -499q-19 -109 -43 -185.5t-65.5 -143.5t-100.5 -107t-145.5 -62.5t-202.5 -22.5q-205 0 -321.5 82.5t-115.5 270.5zM760 1579l100 88q60 52 93 80.5t83 68t82 58t49 18.5q24 0 43 -16.5t19 -40.5q0 -47 -60 -82q-134 -81 -364 -209z" />
<glyph unicode="&#xdb;" horiz-adv-x="1347" d="M145 324q0 61 15 153l172 903h-158l8 54h537l-10 -54h-172l-177 -925q-18 -95 -18 -162q-3 -256 283 -256q95 0 167.5 23t119.5 61t81 100.5t52 126t34 152.5l37 217q55 313 55 573q0 59 -2 90h-151l10 54h422l-10 -54h-142q-15 -57 -26.5 -117t-26.5 -152t-20 -120 l-86 -499q-19 -109 -43 -185.5t-65.5 -143.5t-100.5 -107t-145.5 -62.5t-202.5 -22.5q-205 0 -321.5 82.5t-115.5 270.5zM575 1577l299 307h113l178 -311l-51 -29l-199 215l-290 -217z" />
<glyph unicode="&#xdc;" horiz-adv-x="1347" d="M145 324q0 61 15 153l172 903h-158l8 54h537l-10 -54h-172l-177 -925q-18 -95 -18 -162q-3 -256 283 -256q95 0 167.5 23t119.5 61t81 100.5t52 126t34 152.5l37 217q55 313 55 573q0 59 -2 90h-151l10 54h422l-10 -54h-142q-15 -57 -26.5 -117t-26.5 -152t-20 -120 l-86 -499q-19 -109 -43 -185.5t-65.5 -143.5t-100.5 -107t-145.5 -62.5t-202.5 -22.5q-205 0 -321.5 82.5t-115.5 270.5zM629 1679q0 44 30.5 77.5t73.5 33.5q36 0 60 -25.5t24 -62.5q0 -44 -30.5 -77.5t-73.5 -33.5q-36 0 -60 25.5t-24 62.5zM977 1679q0 44 30 77.5 t74 33.5q38 0 61 -25t23 -63q0 -44 -30 -77.5t-74 -33.5q-38 0 -61 25t-23 63z" />
<glyph unicode="&#xdd;" horiz-adv-x="1150" d="M119 1380l8 54h559l-10 -54h-197q107 -364 201 -616q224 326 268 395q70 106 107 221h-137l10 54h381l-9 -54h-114q-43 -51 -191 -258q-133 -190 -297 -436l-114 -633h178l-10 -53h-557l10 53h174l110 617l-237 710h-133zM659 1579l101 88q60 52 93 80.5t83 68t82 58 t49 18.5q24 0 42.5 -16.5t18.5 -40.5q0 -48 -59 -82q-134 -81 -364 -209z" />
<glyph unicode="&#xde;" horiz-adv-x="1234" d="M-39 0l10 53h158l240 1327h-158l10 54h520l-12 -54h-158l-45 -256h181q75 0 135 -5.5t127 -25t112 -51.5t75 -89.5t30 -135.5q0 -104 -35.5 -185t-94.5 -132t-141.5 -84.5t-169.5 -46.5t-186 -13h-172l-53 -303h176l-10 -53h-539zM397 412h129q215 0 333 115t118 329 q0 64 -23 108t-66.5 66.5t-92.5 31.5t-113 9h-166z" />
<glyph unicode="&#xdf;" horiz-adv-x="1122" d="M-326 -211q0 33 7 80h83q-8 -62 -8 -92q0 -66 28.5 -107t94.5 -41q47 0 83.5 32.5t55 72.5t27.5 86q18 80 32.5 232t26.5 218l158 813q31 169 150.5 272t294.5 103q110 0 185 -52.5t75 -156.5q0 -74 -26.5 -130t-66.5 -93t-81 -70t-77 -80.5t-48 -105.5q-4 -24 -4 -37 q0 -38 20 -66.5t52 -47t71 -35t78 -37t71 -46t52 -69t20 -100.5q0 -154 -115 -256.5t-278 -102.5q-120 0 -178 56.5t-58 173.5q0 34 13 123h98q-21 -82 -21 -144q0 -155 144 -155q95 0 161 73.5t66 167.5q0 56 -37 93.5t-89.5 60.5t-105 48t-89.5 73t-37 119 q0 66 24.5 119.5t63.5 92.5t80 73.5t82 82t61 100.5q27 66 27 134q0 67 -36.5 105t-105.5 38q-58 0 -101 -21.5t-69.5 -61.5t-41.5 -81.5t-27 -97.5l-246 -1249q-27 -137 -113.5 -226.5t-220.5 -89.5q-103 0 -154 54t-51 155z" />
<glyph unicode="&#xe0;" horiz-adv-x="1136" d="M29 344q0 90 23 185t70 184.5t110.5 160.5t152.5 113.5t188 42.5q89 0 152 -43t86 -125h6l70 142h135l-162 -811q-8 -33 -8 -76q0 -70 90 -70q11 0 23 1t26 2.5t23 2.5l-10 -53q-91 -16 -175 -16q-146 0 -157 122q0 38 4 56q-61 -93 -138.5 -141t-183.5 -48 q-85 0 -148.5 28.5t-101.5 80t-56.5 117t-18.5 145.5zM225 303q0 -49 7.5 -91t25 -84t54.5 -66.5t89 -24.5q47 0 89 18t72 46t57 71.5t44.5 83.5t34 93.5t25 90t18.5 84.5q31 164 31 217q0 36 -5 67.5t-17.5 61.5t-32 51t-50.5 33.5t-71 12.5q-52 0 -98.5 -25t-84 -70 t-67 -98.5t-53.5 -118.5q-68 -191 -68 -352zM408 1438q0 31 25 52t54 21q22 0 40 -15.5t42 -49.5l187 -283l-49 -30l-261 231q-38 36 -38 74z" />
<glyph unicode="&#xe1;" horiz-adv-x="1136" d="M29 344q0 90 23 185t70 184.5t110.5 160.5t152.5 113.5t188 42.5q89 0 152 -43t86 -125h6l70 142h135l-162 -811q-8 -33 -8 -76q0 -70 90 -70q11 0 23 1t26 2.5t23 2.5l-10 -53q-91 -16 -175 -16q-146 0 -157 122q0 38 4 56q-61 -93 -138.5 -141t-183.5 -48 q-85 0 -148.5 28.5t-101.5 80t-56.5 117t-18.5 145.5zM225 303q0 -49 7.5 -91t25 -84t54.5 -66.5t89 -24.5q47 0 89 18t72 46t57 71.5t44.5 83.5t34 93.5t25 90t18.5 84.5q31 164 31 217q0 36 -5 67.5t-17.5 61.5t-32 51t-50.5 33.5t-71 12.5q-52 0 -98.5 -25t-84 -70 t-67 -98.5t-53.5 -118.5q-68 -191 -68 -352zM563 1163q27 27 78 80t91.5 94t85 84t79 66.5t53.5 23.5q28 0 46 -17.5t18 -41.5q0 -37 -56 -80q-117 -84 -356 -239z" />
<glyph unicode="&#xe2;" horiz-adv-x="1136" d="M29 344q0 90 23 185t70 184.5t110.5 160.5t152.5 113.5t188 42.5q89 0 152 -43t86 -125h6l70 142h135l-162 -811q-8 -33 -8 -76q0 -70 90 -70q11 0 23 1t26 2.5t23 2.5l-10 -53q-91 -16 -175 -16q-146 0 -157 122q0 38 4 56q-61 -93 -138.5 -141t-183.5 -48 q-85 0 -148.5 28.5t-101.5 80t-56.5 117t-18.5 145.5zM225 303q0 -49 7.5 -91t25 -84t54.5 -66.5t89 -24.5q47 0 89 18t72 46t57 71.5t44.5 83.5t34 93.5t25 90t18.5 84.5q31 164 31 217q0 36 -5 67.5t-17.5 61.5t-32 51t-50.5 33.5t-71 12.5q-52 0 -98.5 -25t-84 -70 t-67 -98.5t-53.5 -118.5q-68 -191 -68 -352zM379 1163l278 338h121l162 -338l-53 -33l-182 248l-281 -248z" />
<glyph unicode="&#xe3;" horiz-adv-x="1136" d="M29 344q0 90 23 185t70 184.5t110.5 160.5t152.5 113.5t188 42.5q89 0 152 -43t86 -125h6l70 142h135l-162 -811q-8 -33 -8 -76q0 -70 90 -70q11 0 23 1t26 2.5t23 2.5l-10 -53q-91 -16 -175 -16q-146 0 -157 122q0 38 4 56q-61 -93 -138.5 -141t-183.5 -48 q-85 0 -148.5 28.5t-101.5 80t-56.5 117t-18.5 145.5zM225 303q0 -49 7.5 -91t25 -84t54.5 -66.5t89 -24.5q47 0 89 18t72 46t57 71.5t44.5 83.5t34 93.5t25 90t18.5 84.5q31 164 31 217q0 36 -5 67.5t-17.5 61.5t-32 51t-50.5 33.5t-71 12.5q-52 0 -98.5 -25t-84 -70 t-67 -98.5t-53.5 -118.5q-68 -191 -68 -352zM365 1214q31 86 88.5 144.5t136.5 58.5q47 0 121 -46t120 -46q42 0 75.5 28t49.5 70l54 -14q-36 -87 -92 -144t-134 -57q-50 0 -126.5 44t-114.5 44q-84 0 -129 -96z" />
<glyph unicode="&#xe4;" horiz-adv-x="1136" d="M29 344q0 90 23 185t70 184.5t110.5 160.5t152.5 113.5t188 42.5q89 0 152 -43t86 -125h6l70 142h135l-162 -811q-8 -33 -8 -76q0 -70 90 -70q11 0 23 1t26 2.5t23 2.5l-10 -53q-91 -16 -175 -16q-146 0 -157 122q0 38 4 56q-61 -93 -138.5 -141t-183.5 -48 q-85 0 -148.5 28.5t-101.5 80t-56.5 117t-18.5 145.5zM225 303q0 -49 7.5 -91t25 -84t54.5 -66.5t89 -24.5q47 0 89 18t72 46t57 71.5t44.5 83.5t34 93.5t25 90t18.5 84.5q31 164 31 217q0 36 -5 67.5t-17.5 61.5t-32 51t-50.5 33.5t-71 12.5q-52 0 -98.5 -25t-84 -70 t-67 -98.5t-53.5 -118.5q-68 -191 -68 -352zM420 1284q0 44 30.5 78.5t73.5 34.5q36 0 60 -25.5t24 -62.5q0 -44 -31 -78.5t-75 -34.5q-35 0 -58.5 25.5t-23.5 62.5zM758 1284q0 44 31 78.5t75 34.5q38 0 61 -25t23 -63q0 -44 -31 -78.5t-75 -34.5q-38 0 -61 25t-23 63z" />
<glyph unicode="&#xe5;" horiz-adv-x="1136" d="M29 344q0 90 23 185t70 184.5t110.5 160.5t152.5 113.5t188 42.5q89 0 152 -43t86 -125h6l70 142h135l-162 -811q-8 -33 -8 -76q0 -70 90 -70q11 0 23 1t26 2.5t23 2.5l-10 -53q-91 -16 -175 -16q-146 0 -157 122q0 38 4 56q-61 -93 -138.5 -141t-183.5 -48 q-85 0 -148.5 28.5t-101.5 80t-56.5 117t-18.5 145.5zM225 303q0 -49 7.5 -91t25 -84t54.5 -66.5t89 -24.5q47 0 89 18t72 46t57 71.5t44.5 83.5t34 93.5t25 90t18.5 84.5q31 164 31 217q0 36 -5 67.5t-17.5 61.5t-32 51t-50.5 33.5t-71 12.5q-52 0 -98.5 -25t-84 -70 t-67 -98.5t-53.5 -118.5q-68 -191 -68 -352zM461 1323q0 91 67 154t162 63q93 0 159 -63t66 -154t-66 -154t-159 -63q-95 0 -162 63t-67 154zM563 1323q0 -55 36 -93t91 -38q52 0 88.5 38.5t36.5 92.5q0 55 -36 93t-89 38q-55 0 -91 -37.5t-36 -93.5z" />
<glyph unicode="&#xe6;" horiz-adv-x="1570" d="M8 211q0 44 8.5 82t21.5 67.5t37 55.5t46 44t57 35t62 27.5t70 22.5t71 18.5t74 16.5q48 10 71 16q29 6 85 17.5t85 17.5l23 110q10 45 10 103q0 137 -154 137q-147 0 -213 -129q-25 -48 -49 -176h-129q25 123 48 171q18 37 42 62q127 121 314 121q248 0 291 -137 q144 137 333 137q127 0 209 -59t82 -178q0 -62 -24.5 -111.5t-63 -82t-95.5 -56t-112 -35.5t-122.5 -19.5t-118.5 -9.5t-107 -4h-10q-16 -98 -16 -151q0 -47 5 -86t19 -78t37.5 -65.5t62.5 -43t91 -16.5q136 0 231.5 74.5t165.5 205.5l59 -28q-177 -314 -497 -314 q-147 0 -233 78t-109 209q-60 -142 -151.5 -214.5t-235.5 -72.5q-115 0 -193 64t-78 174zM188 201q0 -64 38 -111t104 -47q69 0 127 36.5t96 97t62 122.5t38 129l29 143q-94 -20 -139 -36q-39 -11 -60.5 -18t-57 -19t-56 -22t-49 -26.5t-45 -32.5t-35.5 -39t-29 -48.5 t-16.5 -58.5t-6.5 -70zM862 530q54 3 92 6.5t94 12.5t95.5 21.5t83 34.5t70.5 51t45 71.5t18 95.5q0 70 -39.5 113t-110.5 43q-246 0 -348 -449z" />
<glyph unicode="&#xe7;" horiz-adv-x="950" d="M29 356q0 99 25.5 196t76 183t120 152t164 104.5t201.5 38.5q128 0 196.5 -61.5t68.5 -184.5q0 -75 -19 -153h-129q23 109 23 178q0 72 -32 122t-103 50q-79 0 -147 -48.5t-112.5 -123t-76.5 -165.5t-46 -174.5t-14 -152.5q0 -280 209 -280q133 0 224.5 73.5t160.5 204.5 l60 -28q-167 -306 -469 -314l-33 -82q37 -3 70 -12t66 -26.5t53 -49t20 -73.5q0 -86 -69 -128t-163 -42q-127 0 -237 71l33 56q93 -54 186 -54q50 0 86.5 25.5t36.5 79.5q0 95 -168 100l57 137q-160 12 -239.5 112t-79.5 269z" />
<glyph unicode="&#xe8;" horiz-adv-x="962" d="M29 356q0 96 25 192.5t74.5 183t117 153t160.5 106t198 39.5q127 0 209 -59t82 -178q0 -62 -24.5 -111.5t-63 -82t-95 -56t-111.5 -35.5t-122.5 -19.5t-118 -9.5t-106.5 -4h-10q-21 -86 -21 -151q0 -47 5 -85.5t19 -77.5t38 -65.5t65 -43.5t96 -17q238 0 392 280l59 -28 q-177 -314 -498 -314q-370 0 -370 383zM256 530q54 3 91.5 6.5t93.5 12.5t95.5 21.5t83 34.5t70 51t44.5 71.5t18 95.5q0 71 -39 113.5t-111 42.5q-252 0 -346 -449zM342 1438q0 31 25 52t55 21q22 0 40 -15.5t42 -49.5l186 -283l-49 -30l-260 231q-39 36 -39 74z" />
<glyph unicode="&#xe9;" horiz-adv-x="962" d="M29 356q0 96 25 192.5t74.5 183t117 153t160.5 106t198 39.5q127 0 209 -59t82 -178q0 -62 -24.5 -111.5t-63 -82t-95 -56t-111.5 -35.5t-122.5 -19.5t-118 -9.5t-106.5 -4h-10q-21 -86 -21 -151q0 -47 5 -85.5t19 -77.5t38 -65.5t65 -43.5t96 -17q238 0 392 280l59 -28 q-177 -314 -498 -314q-370 0 -370 383zM256 530q54 3 91.5 6.5t93.5 12.5t95.5 21.5t83 34.5t70 51t44.5 71.5t18 95.5q0 71 -39 113.5t-111 42.5q-252 0 -346 -449zM498 1163q27 27 78 80t91.5 94t85 84t79 66.5t53.5 23.5q28 0 45.5 -17.5t17.5 -41.5q0 -38 -55 -80 q-117 -84 -356 -239z" />
<glyph unicode="&#xea;" horiz-adv-x="962" d="M29 356q0 96 25 192.5t74.5 183t117 153t160.5 106t198 39.5q127 0 209 -59t82 -178q0 -62 -24.5 -111.5t-63 -82t-95 -56t-111.5 -35.5t-122.5 -19.5t-118 -9.5t-106.5 -4h-10q-21 -86 -21 -151q0 -47 5 -85.5t19 -77.5t38 -65.5t65 -43.5t96 -17q238 0 392 280l59 -28 q-177 -314 -498 -314q-370 0 -370 383zM256 530q54 3 91.5 6.5t93.5 12.5t95.5 21.5t83 34.5t70 51t44.5 71.5t18 95.5q0 71 -39 113.5t-111 42.5q-252 0 -346 -449zM313 1163l279 338h121l161 -338l-53 -33l-182 248l-281 -248z" />
<glyph unicode="&#xeb;" horiz-adv-x="962" d="M29 356q0 96 25 192.5t74.5 183t117 153t160.5 106t198 39.5q127 0 209 -59t82 -178q0 -62 -24.5 -111.5t-63 -82t-95 -56t-111.5 -35.5t-122.5 -19.5t-118 -9.5t-106.5 -4h-10q-21 -86 -21 -151q0 -47 5 -85.5t19 -77.5t38 -65.5t65 -43.5t96 -17q238 0 392 280l59 -28 q-177 -314 -498 -314q-370 0 -370 383zM256 530q54 3 91.5 6.5t93.5 12.5t95.5 21.5t83 34.5t70 51t44.5 71.5t18 95.5q0 71 -39 113.5t-111 42.5q-252 0 -346 -449zM354 1284q0 44 31 78.5t74 34.5q36 0 60 -25.5t24 -62.5q0 -44 -31 -78.5t-76 -34.5q-35 0 -58.5 25.5 t-23.5 62.5zM692 1284q0 44 31 78.5t76 34.5q38 0 61 -25t23 -63q0 -44 -31 -78.5t-76 -34.5q-38 0 -61 25t-23 63z" />
<glyph unicode="&#xec;" horiz-adv-x="585" d="M109 125q0 43 16 125l141 700h-147l10 54h334l-162 -811q-8 -33 -8 -76q0 -70 90 -70q11 0 23.5 1t27.5 2.5t23 2.5l-13 -53q-91 -16 -176 -16q-74 0 -116.5 34.5t-42.5 106.5zM133 1438q0 31 25 52t55 21q22 0 40 -15.5t42 -49.5l186 -283l-49 -30l-260 231 q-39 36 -39 74z" />
<glyph unicode="&#xed;" horiz-adv-x="585" d="M109 125q0 43 16 125l141 700h-147l10 54h334l-162 -811q-8 -33 -8 -76q0 -70 90 -70q11 0 23.5 1t27.5 2.5t23 2.5l-13 -53q-91 -16 -176 -16q-74 0 -116.5 34.5t-42.5 106.5zM289 1163q27 27 78 80t91.5 94t85 84t79 66.5t53.5 23.5q28 0 45.5 -17.5t17.5 -41.5 q0 -38 -55 -80q-117 -84 -356 -239z" />
<glyph unicode="&#xee;" horiz-adv-x="585" d="M104 1163l279 338h121l162 -338l-54 -33l-182 248l-280 -248zM109 125q0 43 16 125l141 700h-147l10 54h334l-162 -811q-8 -33 -8 -76q0 -70 90 -70q11 0 23.5 1t27.5 2.5t23 2.5l-13 -53q-91 -16 -176 -16q-74 0 -116.5 34.5t-42.5 106.5z" />
<glyph unicode="&#xef;" horiz-adv-x="585" d="M109 125q0 43 16 125l141 700h-147l10 54h334l-162 -811q-8 -33 -8 -76q0 -70 90 -70q11 0 23.5 1t27.5 2.5t23 2.5l-13 -53q-91 -16 -176 -16q-74 0 -116.5 34.5t-42.5 106.5zM145 1284q0 44 31 78.5t74 34.5q36 0 60 -25.5t24 -62.5q0 -44 -31 -78.5t-76 -34.5 q-35 0 -58.5 25.5t-23.5 62.5zM483 1284q0 44 31 78.5t76 34.5q38 0 61 -25t23 -63q0 -44 -31 -78.5t-76 -34.5q-38 0 -61 25t-23 63z" />
<glyph unicode="&#xf0;" horiz-adv-x="1024" d="M31 369q0 118 40 235t110.5 211.5t179.5 153.5t235 59q97 0 154 -41q-59 153 -150 246l-291 -133l-26 57l270 123q-84 78 -186 129l51 51q122 -47 246 -131l282 131l25 -57l-252 -117q122 -104 188 -248t66 -305q0 -107 -23 -229q-21 -101 -66 -194t-112.5 -169.5 t-163.5 -122t-207 -45.5q-176 0 -273 110.5t-97 285.5zM217 262q0 -235 186 -235q251 0 347 483q28 152 28 231q0 234 -188 234q-249 0 -344 -479q-29 -141 -29 -234z" />
<glyph unicode="&#xf1;" horiz-adv-x="1177" d="M76 0l190 950h-147l12 54h326l-39 -189h4q131 215 356 215q234 0 234 -223q0 -42 -17 -133l-96 -481q-6 -37 -6 -76q0 -70 88 -70q3 0 72 6l-11 -53q-88 -16 -174 -16q-159 0 -159 141q0 29 14 125l84 420q20 98 20 145q0 143 -122 143q-135 0 -236 -143 q-66 -98 -92 -244l-113 -571h-188zM385 1214q31 86 88.5 144.5t136.5 58.5q47 0 121.5 -46t120.5 -46q42 0 75.5 28t49.5 70l53 -14q-36 -87 -91.5 -144t-133.5 -57q-50 0 -127 44t-115 44q-84 0 -129 -96z" />
<glyph unicode="&#xf2;" horiz-adv-x="1038" d="M31 365q0 118 38.5 235t107 213.5t176 156.5t233.5 60q178 0 276.5 -114t98.5 -291q0 -94 -23.5 -187t-70.5 -177t-111.5 -148t-154 -102t-191.5 -38q-180 0 -279.5 108.5t-99.5 283.5zM221 262q0 -235 185 -235q77 0 143 55t107.5 137.5t71 182.5t42 187t12.5 154 q0 234 -186 234q-65 0 -122 -38.5t-96.5 -101.5t-70.5 -139.5t-49.5 -158.5t-27.5 -152t-9 -125zM358 1438q0 31 25 52t55 21q22 0 40 -15.5t42 -49.5l187 -283l-50 -30l-260 231q-39 36 -39 74z" />
<glyph unicode="&#xf3;" horiz-adv-x="1038" d="M31 365q0 118 38.5 235t107 213.5t176 156.5t233.5 60q178 0 276.5 -114t98.5 -291q0 -94 -23.5 -187t-70.5 -177t-111.5 -148t-154 -102t-191.5 -38q-180 0 -279.5 108.5t-99.5 283.5zM221 262q0 -235 185 -235q77 0 143 55t107.5 137.5t71 182.5t42 187t12.5 154 q0 234 -186 234q-65 0 -122 -38.5t-96.5 -101.5t-70.5 -139.5t-49.5 -158.5t-27.5 -152t-9 -125zM514 1163q27 27 78 80t91.5 94t85 84t79 66.5t53.5 23.5q28 0 46 -17.5t18 -41.5q0 -37 -56 -80q-117 -84 -356 -239z" />
<glyph unicode="&#xf4;" horiz-adv-x="1038" d="M31 365q0 118 38.5 235t107 213.5t176 156.5t233.5 60q178 0 276.5 -114t98.5 -291q0 -94 -23.5 -187t-70.5 -177t-111.5 -148t-154 -102t-191.5 -38q-180 0 -279.5 108.5t-99.5 283.5zM221 262q0 -235 185 -235q77 0 143 55t107.5 137.5t71 182.5t42 187t12.5 154 q0 234 -186 234q-65 0 -122 -38.5t-96.5 -101.5t-70.5 -139.5t-49.5 -158.5t-27.5 -152t-9 -125zM330 1163l278 338h121l162 -338l-53 -33l-183 248l-280 -248z" />
<glyph unicode="&#xf5;" horiz-adv-x="1038" d="M31 365q0 118 38.5 235t107 213.5t176 156.5t233.5 60q178 0 276.5 -114t98.5 -291q0 -94 -23.5 -187t-70.5 -177t-111.5 -148t-154 -102t-191.5 -38q-180 0 -279.5 108.5t-99.5 283.5zM221 262q0 -235 185 -235q77 0 143 55t107.5 137.5t71 182.5t42 187t12.5 154 q0 234 -186 234q-65 0 -122 -38.5t-96.5 -101.5t-70.5 -139.5t-49.5 -158.5t-27.5 -152t-9 -125zM315 1214q31 86 89 144.5t137 58.5q47 0 121 -46t120 -46q42 0 75.5 28t49.5 70l54 -14q-36 -87 -92 -144t-134 -57q-50 0 -126.5 44t-114.5 44q-84 0 -129 -96z" />
<glyph unicode="&#xf6;" horiz-adv-x="1038" d="M31 365q0 118 38.5 235t107 213.5t176 156.5t233.5 60q178 0 276.5 -114t98.5 -291q0 -94 -23.5 -187t-70.5 -177t-111.5 -148t-154 -102t-191.5 -38q-180 0 -279.5 108.5t-99.5 283.5zM221 262q0 -235 185 -235q77 0 143 55t107.5 137.5t71 182.5t42 187t12.5 154 q0 234 -186 234q-65 0 -122 -38.5t-96.5 -101.5t-70.5 -139.5t-49.5 -158.5t-27.5 -152t-9 -125zM371 1284q0 44 30.5 78.5t73.5 34.5q36 0 60 -25.5t24 -62.5q0 -44 -31 -78.5t-75 -34.5q-35 0 -58.5 25.5t-23.5 62.5zM709 1284q0 44 31 78.5t75 34.5q38 0 61 -25t23 -63 q0 -44 -31 -78.5t-75 -34.5q-38 0 -61 25t-23 63z" />
<glyph unicode="&#xf7;" horiz-adv-x="1196" d="M68 449v126h1015v-126h-1015zM469 147q0 44 31 75.5t75 31.5q43 0 74 -32t31 -75q0 -42 -31 -74t-74 -32q-44 0 -75 31.5t-31 74.5zM469 877q0 43 31 73.5t75 30.5q43 0 74 -30.5t31 -73.5t-30.5 -75t-74.5 -32t-75 31.5t-31 75.5z" />
<glyph unicode="&#xf8;" horiz-adv-x="1038" d="M27 -141l133 198q-62 51 -95.5 131.5t-33.5 178.5q0 93 23.5 187.5t71.5 179.5t113 151.5t155 105.5t192 39q108 0 194 -47l129 193l58 -29l-133 -201q127 -121 127 -323q0 -93 -23.5 -186t-70.5 -176.5t-111.5 -147.5t-154 -102t-191.5 -38q-118 0 -195 47l-129 -190z M225 328q0 -82 21 -144l477 717q-55 76 -127 76q-74 0 -137 -46t-104 -117t-70.5 -160t-43 -171t-16.5 -155zM272 106q53 -79 134 -79q75 0 138.5 46t103.5 116.5t68.5 159.5t41.5 169.5t16 153.5q3 78 -20 155z" />
<glyph unicode="&#xf9;" horiz-adv-x="1175" d="M113 950l10 54h334l-135 -670q-19 -93 -19 -146q0 -139 117 -139q69 0 132.5 46.5t111.5 113.5q65 93 94 242l108 553h187l-160 -811q-8 -33 -8 -76q0 -70 90 -70q11 0 23 1t26 2.5t23 2.5l-11 -53q-94 -16 -176 -16q-142 0 -153 122q-3 41 8 101q-135 -234 -369 -234 q-110 0 -167.5 57t-57.5 167q0 58 14 133l123 620h-145zM426 1438q0 31 25 52t55 21q22 0 40 -15.5t42 -49.5l186 -283l-49 -30l-260 231q-39 36 -39 74z" />
<glyph unicode="&#xfa;" horiz-adv-x="1175" d="M113 950l10 54h334l-135 -670q-19 -93 -19 -146q0 -139 117 -139q69 0 132.5 46.5t111.5 113.5q65 93 94 242l108 553h187l-160 -811q-8 -33 -8 -76q0 -70 90 -70q11 0 23 1t26 2.5t23 2.5l-11 -53q-94 -16 -176 -16q-142 0 -153 122q-3 41 8 101q-135 -234 -369 -234 q-110 0 -167.5 57t-57.5 167q0 58 14 133l123 620h-145zM582 1163q27 27 78 80t91.5 94t85 84t79 66.5t53.5 23.5q28 0 45.5 -17.5t17.5 -41.5q0 -38 -55 -80q-117 -84 -356 -239z" />
<glyph unicode="&#xfb;" horiz-adv-x="1175" d="M113 950l10 54h334l-135 -670q-19 -93 -19 -146q0 -139 117 -139q69 0 132.5 46.5t111.5 113.5q65 93 94 242l108 553h187l-160 -811q-8 -33 -8 -76q0 -70 90 -70q11 0 23 1t26 2.5t23 2.5l-11 -53q-94 -16 -176 -16q-142 0 -153 122q-3 41 8 101q-135 -234 -369 -234 q-110 0 -167.5 57t-57.5 167q0 58 14 133l123 620h-145zM397 1163l279 338h121l161 -338l-53 -33l-182 248l-281 -248z" />
<glyph unicode="&#xfc;" horiz-adv-x="1175" d="M113 950l10 54h334l-135 -670q-19 -93 -19 -146q0 -139 117 -139q69 0 132.5 46.5t111.5 113.5q65 93 94 242l108 553h187l-160 -811q-8 -33 -8 -76q0 -70 90 -70q11 0 23 1t26 2.5t23 2.5l-11 -53q-94 -16 -176 -16q-142 0 -153 122q-3 41 8 101q-135 -234 -369 -234 q-110 0 -167.5 57t-57.5 167q0 58 14 133l123 620h-145zM438 1284q0 44 31 78.5t74 34.5q36 0 60 -25.5t24 -62.5q0 -44 -31 -78.5t-76 -34.5q-35 0 -58.5 25.5t-23.5 62.5zM776 1284q0 44 31 78.5t76 34.5q38 0 61 -25t23 -63q0 -44 -31 -78.5t-76 -34.5q-38 0 -61 25 t-23 63z" />
<glyph unicode="&#xfd;" horiz-adv-x="987" d="M-188 -217q0 45 8 84h100q-6 -47 -6 -92q0 -137 115 -137q50 0 111 38.5t115 96.5t96.5 114.5t70.5 104.5h-45l-230 958h-116l10 54h289l205 -848q218 365 315 794h-137l8 54h266q-145 -498 -452 -961q-29 -44 -51 -75.5t-61 -83.5t-72 -89.5t-77 -80.5t-84 -70 t-86 -45.5t-88 -18.5q-98 0 -151 51t-53 152zM489 1163q27 27 78 80t91.5 94t85.5 84t79.5 66.5t53.5 23.5q28 0 45.5 -17.5t17.5 -41.5q0 -38 -55 -80q-108 -77 -357 -239z" />
<glyph unicode="&#xfe;" horiz-adv-x="1136" d="M-2 -393l352 1773h-143l8 54h332l-115 -578q115 174 311 174q164 0 245 -103t81 -268q0 -112 -36.5 -230.5t-101.5 -221t-169.5 -168.5t-226.5 -66q-192 0 -246 156l-94 -469h157l-12 -53h-342zM326 268q0 -63 16 -112.5t59 -84t109 -34.5q140 0 248 199q54 102 84 230 t30 232q0 48 -7.5 91t-25.5 85.5t-54.5 67.5t-88.5 25q-48 0 -89.5 -16.5t-71.5 -41.5t-56.5 -65t-43.5 -76t-32.5 -86t-24 -84.5t-18.5 -81.5q-34 -170 -34 -248z" />
<glyph unicode="&#xff;" horiz-adv-x="987" d="M-188 -217q0 45 8 84h100q-6 -47 -6 -92q0 -137 115 -137q50 0 111 38.5t115 96.5t96.5 114.5t70.5 104.5h-45l-230 958h-116l10 54h289l205 -848q218 365 315 794h-137l8 54h266q-145 -498 -452 -961q-29 -44 -51 -75.5t-61 -83.5t-72 -89.5t-77 -80.5t-84 -70 t-86 -45.5t-88 -18.5q-98 0 -151 51t-53 152zM346 1284q0 44 31 78.5t74 34.5q36 0 60 -25.5t24 -62.5q0 -44 -31 -78.5t-76 -34.5q-35 0 -58.5 25.5t-23.5 62.5zM684 1284q0 44 31 78.5t76 34.5q37 0 60 -25t23 -63q0 -44 -31 -78.5t-75 -34.5q-38 0 -61 25t-23 63z" />
<glyph unicode="&#x100;" horiz-adv-x="1269" d="M-156 0l11 53h108q49 66 154 264l602 1129h129l237 -1393h121l-10 -53h-518l8 53h184l-79 475h-486l-63 -116q-36 -67 -78.5 -177.5t-59.5 -181.5h160l-12 -53h-408zM334 588h448l-108 629h-8q-20 -39 -144.5 -273.5t-187.5 -355.5zM514 1647l25 118h589l-26 -118h-588z " />
<glyph unicode="&#x101;" horiz-adv-x="1136" d="M29 344q0 90 23 185t70 184.5t110.5 160.5t152.5 113.5t188 42.5q89 0 152 -43t86 -125h6l70 142h135l-162 -811q-8 -33 -8 -76q0 -70 90 -70q11 0 23 1t26 2.5t23 2.5l-10 -53q-91 -16 -175 -16q-146 0 -157 122q0 38 4 56q-61 -93 -138.5 -141t-183.5 -48 q-85 0 -148.5 28.5t-101.5 80t-56.5 117t-18.5 145.5zM225 303q0 -49 7.5 -91t25 -84t54.5 -66.5t89 -24.5q47 0 89 18t72 46t57 71.5t44.5 83.5t34 93.5t25 90t18.5 84.5q31 164 31 217q0 36 -5 67.5t-17.5 61.5t-32 51t-50.5 33.5t-71 12.5q-52 0 -98.5 -25t-84 -70 t-67 -98.5t-53.5 -118.5q-68 -191 -68 -352zM387 1253l21 119h577l-22 -119h-576z" />
<glyph unicode="&#x102;" horiz-adv-x="1269" d="M-156 0l11 53h108q49 66 154 264l602 1129h129l237 -1393h121l-10 -53h-518l8 53h184l-79 475h-486l-63 -116q-36 -67 -78.5 -177.5t-59.5 -181.5h160l-12 -53h-408zM334 588h448l-108 629h-8q-20 -39 -144.5 -273.5t-187.5 -355.5zM555 1853l55 11q3 -82 55 -120 t156 -38q205 0 264 156l60 -9q-44 -138 -126.5 -208t-215.5 -70q-245 0 -248 278z" />
<glyph unicode="&#x103;" horiz-adv-x="1136" d="M29 344q0 90 23 185t70 184.5t110.5 160.5t152.5 113.5t188 42.5q89 0 152 -43t86 -125h6l70 142h135l-162 -811q-8 -33 -8 -76q0 -70 90 -70q11 0 23 1t26 2.5t23 2.5l-10 -53q-91 -16 -175 -16q-146 0 -157 122q0 38 4 56q-61 -93 -138.5 -141t-183.5 -48 q-85 0 -148.5 28.5t-101.5 80t-56.5 117t-18.5 145.5zM225 303q0 -49 7.5 -91t25 -84t54.5 -66.5t89 -24.5q47 0 89 18t72 46t57 71.5t44.5 83.5t34 93.5t25 90t18.5 84.5q31 164 31 217q0 36 -5 67.5t-17.5 61.5t-32 51t-50.5 33.5t-71 12.5q-52 0 -98.5 -25t-84 -70 t-67 -98.5t-53.5 -118.5q-68 -191 -68 -352zM426 1464l57 11q3 -94 54 -138.5t151 -44.5q198 0 254 183l62 -11q-79 -295 -334 -295q-69 0 -118 22t-75.5 63t-38.5 92t-12 118z" />
<glyph unicode="&#x104;" horiz-adv-x="1269" d="M-156 0l11 53h108q49 66 154 264l602 1129h129l237 -1393h121l-10 -53h-235q-37 -30 -65 -56t-58.5 -62t-47 -75.5t-16.5 -78.5q0 -44 28.5 -67t80.5 -23q36 0 106 16l12 -51q-87 -43 -182 -43q-79 0 -128.5 38.5t-49.5 108.5q0 50 20.5 95t58 81.5t75.5 63t88 53.5h-205 l8 53h184l-79 475h-486l-63 -116q-36 -67 -78.5 -177.5t-59.5 -181.5h160l-12 -53h-408zM334 588h448l-108 629h-8q-20 -39 -144.5 -273.5t-187.5 -355.5z" />
<glyph unicode="&#x105;" horiz-adv-x="1136" d="M29 344q0 90 23 185t70 184.5t110.5 160.5t152.5 113.5t188 42.5q89 0 152 -43t86 -125h6l70 142h135l-162 -811q-8 -33 -8 -76q0 -70 90 -70q11 0 23 1t26 2.5t23 2.5l-10 -53q-91 -16 -175 -16q-16 0 -24 2q-166 -140 -166 -258q0 -43 29 -66.5t80 -23.5q34 0 108 16 l12 -51q-90 -43 -182 -43q-79 0 -128.5 38.5t-49.5 108.5q0 50 19.5 95t56 81t73.5 62t86 53q-65 27 -71 108q0 38 4 56q-61 -93 -138.5 -141t-183.5 -48q-85 0 -148.5 28.5t-101.5 80t-56.5 117t-18.5 145.5zM225 303q0 -49 7.5 -91t25 -84t54.5 -66.5t89 -24.5q47 0 89 18 t72 46t57 71.5t44.5 83.5t34 93.5t25 90t18.5 84.5q31 164 31 217q0 36 -5 67.5t-17.5 61.5t-32 51t-50.5 33.5t-71 12.5q-52 0 -98.5 -25t-84 -70t-67 -98.5t-53.5 -118.5q-68 -191 -68 -352z" />
<glyph unicode="&#x106;" horiz-adv-x="1273" d="M78 553q0 136 33 267t100.5 246.5t160.5 203.5t222 139t276 51q207 0 375 -76q0 -203 -45 -419h-59q7 75 4 141q-7 301 -264 301q-293 0 -455 -317q-69 -137 -106 -309.5t-37 -331.5q0 -71 10.5 -131.5t35.5 -115.5t64 -93.5t99.5 -61t138.5 -22.5q69 0 127 18.5t101 55 t75.5 77.5t59.5 100.5t44.5 107.5t36.5 114h62l-76 -414q-215 -113 -443 -113q-135 0 -239.5 43.5t-169.5 122.5t-98 184t-33 232zM743 1579l101 88q60 52 93 80.5t83 68t82 58t49 18.5q24 0 42.5 -16.5t18.5 -40.5q0 -48 -59 -82q-121 -73 -365 -209z" />
<glyph unicode="&#x107;" horiz-adv-x="950" d="M29 356q0 99 25.5 196t76 183t120 152t164 104.5t201.5 38.5q128 0 196.5 -61.5t68.5 -184.5q0 -75 -19 -153h-129q23 109 23 178q0 72 -32 122t-103 50q-79 0 -147 -48.5t-112.5 -123t-76.5 -165.5t-46 -174.5t-14 -152.5q0 -280 209 -280q133 0 224.5 73.5t160.5 204.5 l60 -28q-83 -153 -202 -233.5t-286 -80.5q-181 0 -271.5 101.5t-90.5 281.5zM512 1163q27 27 78 80t91.5 94t85 84t79 66.5t53.5 23.5q28 0 46 -17.5t18 -41.5q0 -37 -56 -80q-117 -84 -356 -239z" />
<glyph unicode="&#x108;" horiz-adv-x="1273" d="M78 553q0 136 33 267t100.5 246.5t160.5 203.5t222 139t276 51q207 0 375 -76q0 -203 -45 -419h-59q7 75 4 141q-7 301 -264 301q-293 0 -455 -317q-69 -137 -106 -309.5t-37 -331.5q0 -71 10.5 -131.5t35.5 -115.5t64 -93.5t99.5 -61t138.5 -22.5q69 0 127 18.5t101 55 t75.5 77.5t59.5 100.5t44.5 107.5t36.5 114h62l-76 -414q-215 -113 -443 -113q-135 0 -239.5 43.5t-169.5 122.5t-98 184t-33 232zM559 1577l299 307h113l178 -311l-51 -29l-199 215l-291 -217z" />
<glyph unicode="&#x109;" horiz-adv-x="950" d="M29 356q0 99 25.5 196t76 183t120 152t164 104.5t201.5 38.5q128 0 196.5 -61.5t68.5 -184.5q0 -75 -19 -153h-129q23 109 23 178q0 72 -32 122t-103 50q-79 0 -147 -48.5t-112.5 -123t-76.5 -165.5t-46 -174.5t-14 -152.5q0 -280 209 -280q133 0 224.5 73.5t160.5 204.5 l60 -28q-83 -153 -202 -233.5t-286 -80.5q-181 0 -271.5 101.5t-90.5 281.5zM328 1163l278 338h121l162 -338l-53 -33l-183 248l-280 -248z" />
<glyph unicode="&#x10a;" horiz-adv-x="1273" d="M78 553q0 136 33 267t100.5 246.5t160.5 203.5t222 139t276 51q207 0 375 -76q0 -203 -45 -419h-59q7 75 4 141q-7 301 -264 301q-293 0 -455 -317q-69 -137 -106 -309.5t-37 -331.5q0 -71 10.5 -131.5t35.5 -115.5t64 -93.5t99.5 -61t138.5 -22.5q69 0 127 18.5t101 55 t75.5 77.5t59.5 100.5t44.5 107.5t36.5 114h62l-76 -414q-215 -113 -443 -113q-135 0 -239.5 43.5t-169.5 122.5t-98 184t-33 232zM778 1679q0 43 35 77t80 34q40 0 65 -25t25 -63q0 -45 -34 -79t-81 -34q-38 0 -64 26t-26 64z" />
<glyph unicode="&#x10b;" horiz-adv-x="950" d="M29 356q0 99 25.5 196t76 183t120 152t164 104.5t201.5 38.5q128 0 196.5 -61.5t68.5 -184.5q0 -75 -19 -153h-129q23 109 23 178q0 72 -32 122t-103 50q-79 0 -147 -48.5t-112.5 -123t-76.5 -165.5t-46 -174.5t-14 -152.5q0 -280 209 -280q133 0 224.5 73.5t160.5 204.5 l60 -28q-83 -153 -202 -233.5t-286 -80.5q-181 0 -271.5 101.5t-90.5 281.5zM530 1284q0 46 34 80.5t81 34.5q39 0 63.5 -25.5t24.5 -64.5q0 -45 -33 -80t-79 -35q-38 0 -64.5 26t-26.5 64z" />
<glyph unicode="&#x10c;" horiz-adv-x="1273" d="M78 553q0 136 33 267t100.5 246.5t160.5 203.5t222 139t276 51q207 0 375 -76q0 -203 -45 -419h-59q7 75 4 141q-7 301 -264 301q-293 0 -455 -317q-69 -137 -106 -309.5t-37 -331.5q0 -71 10.5 -131.5t35.5 -115.5t64 -93.5t99.5 -61t138.5 -22.5q69 0 127 18.5t101 55 t75.5 77.5t59.5 100.5t44.5 107.5t36.5 114h62l-76 -414q-215 -113 -443 -113q-135 0 -239.5 43.5t-169.5 122.5t-98 184t-33 232zM623 1868l51 28l196 -215l293 215l45 -34l-295 -308h-112z" />
<glyph unicode="&#x10d;" horiz-adv-x="950" d="M29 356q0 99 25.5 196t76 183t120 152t164 104.5t201.5 38.5q128 0 196.5 -61.5t68.5 -184.5q0 -75 -19 -153h-129q23 109 23 178q0 72 -32 122t-103 50q-79 0 -147 -48.5t-112.5 -123t-76.5 -165.5t-46 -174.5t-14 -152.5q0 -280 209 -280q133 0 224.5 73.5t160.5 204.5 l60 -28q-83 -153 -202 -233.5t-286 -80.5q-181 0 -271.5 101.5t-90.5 281.5zM387 1485l51 33l183 -248l282 248l43 -33l-276 -340h-123z" />
<glyph unicode="&#x10e;" horiz-adv-x="1449" d="M-39 0l10 53h158l240 1327h-158l10 54h588q280 0 436 -140t156 -411q0 -89 -8 -154q-22 -159 -84.5 -291.5t-162.5 -230.5t-242.5 -152.5t-313.5 -54.5h-629zM334 53h207q102 0 190 30t152 79.5t116 120t85.5 145.5t58.5 162q51 173 51 373q0 417 -410 417h-213z M641 1868l51 28l197 -215l293 215l45 -34l-295 -308h-113z" />
<glyph unicode="&#x10f;" horiz-adv-x="1218" d="M29 344q0 85 14 156q20 97 64.5 189t110 169.5t158 124.5t197.5 47q85 0 146.5 -41t87.5 -117l100 508h-153l8 54h344l-246 -1241q-8 -33 -8 -76q0 -70 90 -70q11 0 23 1t26 2.5t23 2.5l-10 -53q-91 -16 -175 -16q-146 0 -157 122q0 38 4 56q-61 -93 -138.5 -141 t-183.5 -48q-111 0 -186 50.5t-107 131.5t-32 189zM225 303q0 -48 7.5 -91t25.5 -84.5t54.5 -66t88.5 -24.5q47 0 89 17.5t72.5 45.5t57 70.5t44 82.5t34 93t25.5 91.5t18 86.5l8.5 42.5t9 47.5t6.5 40.5t5.5 46t1.5 40.5q0 36 -5 67.5t-17.5 61.5t-32 51t-50.5 33.5 t-71 12.5q-51 0 -98 -26t-84.5 -71.5t-66.5 -98t-54 -116.5q-68 -191 -68 -352zM1178 1081q104 94 122 201h-18q-32 0 -53 24t-21 58q0 44 28 72t67 28q42 0 65 -33.5t23 -82.5q0 -89 -52.5 -167t-136.5 -137z" />
<glyph unicode="&#x110;" horiz-adv-x="1449" d="M-39 0l10 53h158l119 649h-193l17 78h188l109 600h-158l10 54h588q280 0 436 -140t156 -411q0 -89 -8 -154q-22 -159 -84.5 -291.5t-162.5 -230.5t-242.5 -152.5t-313.5 -54.5h-629zM334 53h211q102 0 189 30t150.5 79.5t115 120.5t85 145.5t58.5 161.5q51 176 51 379 q0 411 -406 411h-217l-108 -600h309l-16 -78h-305z" />
<glyph unicode="&#x111;" horiz-adv-x="1136" d="M29 344q0 85 14 156q20 97 64.5 189t110 169.5t158 124.5t197.5 47q85 0 146.5 -41t87.5 -117l53 277h-332l17 72h332l30 159h-153l8 54h344l-43 -213h182l-16 -72h-180l-189 -956q-8 -33 -8 -76q0 -70 90 -70q11 0 23 1t26 2.5t23 2.5l-10 -53q-91 -16 -175 -16 q-146 0 -157 122q0 38 4 56q-61 -93 -138.5 -141t-183.5 -48q-111 0 -186 50.5t-107 131.5t-32 189zM225 303q0 -48 7.5 -91t25.5 -84.5t54.5 -66t88.5 -24.5q47 0 89 17.5t72.5 45.5t57 70.5t44 82.5t34 93t25.5 91.5t18 86.5l8.5 42.5t9 47.5t6.5 40.5t5.5 46t1.5 40.5 q0 36 -5 67.5t-17.5 61.5t-32 51t-50.5 33.5t-71 12.5q-51 0 -98 -26t-84.5 -71.5t-66.5 -98t-54 -116.5q-68 -191 -68 -352z" />
<glyph unicode="&#x112;" horiz-adv-x="1275" d="M-39 0l10 53h158l240 1327h-158l10 54h996q0 -206 -48 -449h-59q-1 43 -4.5 108.5t-3.5 69.5q-2 61 -10.5 98t-30.5 66t-61.5 41t-102.5 12h-326l-108 -612h145q69 0 111 32.5t72 96.5q22 52 53 162h59l-112 -637h-62q4 43 4 125q2 88 -26.5 128t-108.5 40h-145 l-119 -662h377q101 0 156.5 37t97.5 129q48 94 112 277h62l-101 -496h-1077zM516 1647l25 118h589l-26 -118h-588z" />
<glyph unicode="&#x113;" horiz-adv-x="962" d="M29 356q0 96 25 192.5t74.5 183t117 153t160.5 106t198 39.5q127 0 209 -59t82 -178q0 -62 -24.5 -111.5t-63 -82t-95 -56t-111.5 -35.5t-122.5 -19.5t-118 -9.5t-106.5 -4h-10q-21 -86 -21 -151q0 -47 5 -85.5t19 -77.5t38 -65.5t65 -43.5t96 -17q238 0 392 280l59 -28 q-177 -314 -498 -314q-370 0 -370 383zM256 530q54 3 91.5 6.5t93.5 12.5t95.5 21.5t83 34.5t70 51t44.5 71.5t18 95.5q0 71 -39 113.5t-111 42.5q-252 0 -346 -449zM322 1253l20 119h578l-23 -119h-575z" />
<glyph unicode="&#x114;" horiz-adv-x="1275" d="M-39 0l10 53h158l240 1327h-158l10 54h996q0 -206 -48 -449h-59q-1 43 -4.5 108.5t-3.5 69.5q-2 61 -10.5 98t-30.5 66t-61.5 41t-102.5 12h-326l-108 -612h145q69 0 111 32.5t72 96.5q22 52 53 162h59l-112 -637h-62q4 43 4 125q2 88 -26.5 128t-108.5 40h-145 l-119 -662h377q101 0 156.5 37t97.5 129q48 94 112 277h62l-101 -496h-1077zM557 1853l55 11q3 -82 55 -120t156 -38q205 0 264 156l60 -9q-44 -138 -126.5 -208t-215.5 -70q-245 0 -248 278z" />
<glyph unicode="&#x115;" horiz-adv-x="962" d="M29 356q0 96 25 192.5t74.5 183t117 153t160.5 106t198 39.5q127 0 209 -59t82 -178q0 -62 -24.5 -111.5t-63 -82t-95 -56t-111.5 -35.5t-122.5 -19.5t-118 -9.5t-106.5 -4h-10q-21 -86 -21 -151q0 -47 5 -85.5t19 -77.5t38 -65.5t65 -43.5t96 -17q238 0 392 280l59 -28 q-177 -314 -498 -314q-370 0 -370 383zM256 530q54 3 91.5 6.5t93.5 12.5t95.5 21.5t83 34.5t70 51t44.5 71.5t18 95.5q0 71 -39 113.5t-111 42.5q-252 0 -346 -449zM360 1464l58 11q3 -94 54 -138.5t151 -44.5q198 0 254 183l61 -11q-79 -295 -334 -295q-69 0 -118 22 t-75.5 63t-38.5 92t-12 118z" />
<glyph unicode="&#x116;" horiz-adv-x="1275" d="M-39 0l10 53h158l240 1327h-158l10 54h996q0 -206 -48 -449h-59q-1 43 -4.5 108.5t-3.5 69.5q-2 61 -10.5 98t-30.5 66t-61.5 41t-102.5 12h-326l-108 -612h145q69 0 111 32.5t72 96.5q22 52 53 162h59l-112 -637h-62q4 43 4 125q2 88 -26.5 128t-108.5 40h-145 l-119 -662h377q101 0 156.5 37t97.5 129q48 94 112 277h62l-101 -496h-1077zM717 1679q0 43 34.5 77t79.5 34q40 0 65.5 -25t25.5 -63q0 -45 -34 -79t-81 -34q-38 0 -64 26t-26 64z" />
<glyph unicode="&#x117;" horiz-adv-x="962" d="M29 356q0 96 25 192.5t74.5 183t117 153t160.5 106t198 39.5q127 0 209 -59t82 -178q0 -62 -24.5 -111.5t-63 -82t-95 -56t-111.5 -35.5t-122.5 -19.5t-118 -9.5t-106.5 -4h-10q-21 -86 -21 -151q0 -47 5 -85.5t19 -77.5t38 -65.5t65 -43.5t96 -17q238 0 392 280l59 -28 q-177 -314 -498 -314q-370 0 -370 383zM256 530q54 3 91.5 6.5t93.5 12.5t95.5 21.5t83 34.5t70 51t44.5 71.5t18 95.5q0 71 -39 113.5t-111 42.5q-252 0 -346 -449zM516 1284q0 46 34 80.5t81 34.5q39 0 63.5 -25.5t24.5 -64.5q0 -45 -33.5 -80t-79.5 -35q-38 0 -64 26 t-26 64z" />
<glyph unicode="&#x118;" horiz-adv-x="1275" d="M-39 0l10 53h158l240 1327h-158l10 54h996q0 -206 -48 -449h-59q-1 43 -4.5 108.5t-3.5 69.5q-2 61 -10.5 98t-30.5 66t-61.5 41t-102.5 12h-326l-108 -612h145q69 0 111 32.5t72 96.5q22 52 53 162h59l-112 -637h-62q4 43 4 125q0 89 -28 128.5t-107 39.5h-145 l-119 -662h377q101 0 156.5 37t97.5 129q48 94 112 277h62l-101 -496h-84q-81 -65 -133.5 -131.5t-52.5 -140.5q0 -44 28.5 -67t80.5 -23q36 0 106 16l12 -51q-87 -43 -182 -43q-79 0 -128.5 38.5t-49.5 108.5q0 50 20.5 95t58 81.5t75.5 63t88 53.5h-916z" />
<glyph unicode="&#x119;" horiz-adv-x="962" d="M29 356q0 96 25 192.5t74.5 183t117 153t160.5 106t198 39.5q127 0 209 -59t82 -178q0 -62 -24.5 -111.5t-63 -82t-95 -56t-111.5 -35.5t-122.5 -19.5t-118 -9.5t-106.5 -4h-10q-21 -86 -21 -151q0 -47 5 -85.5t19 -77.5t38 -65.5t65 -43.5t96 -17q238 0 392 280l59 -28 q-126 -222 -317 -287q-189 -142 -189 -272q0 -44 29.5 -67t81.5 -23q32 0 106 16l13 -51q-87 -43 -183 -43q-79 0 -128.5 38.5t-49.5 108.5q0 152 197 270q-36 -4 -58 -4q-370 0 -370 383zM256 530q54 3 91.5 6.5t93.5 12.5t95.5 21.5t83 34.5t70 51t44.5 71.5t18 95.5 q0 71 -39 113.5t-111 42.5q-63 0 -117 -31t-90 -77t-65.5 -109.5t-45.5 -118t-28 -113.5z" />
<glyph unicode="&#x11a;" horiz-adv-x="1275" d="M-39 0l10 53h158l240 1327h-158l10 54h996q0 -206 -48 -449h-59q-1 43 -4.5 108.5t-3.5 69.5q-2 61 -10.5 98t-30.5 66t-61.5 41t-102.5 12h-326l-108 -612h145q69 0 111 32.5t72 96.5q22 52 53 162h59l-112 -637h-62q4 43 4 125q2 88 -26.5 128t-108.5 40h-145 l-119 -662h377q101 0 156.5 37t97.5 129q48 94 112 277h62l-101 -496h-1077zM561 1868l51 28l197 -215l293 215l45 -34l-295 -308h-113z" />
<glyph unicode="&#x11b;" horiz-adv-x="962" d="M29 356q0 96 25 192.5t74.5 183t117 153t160.5 106t198 39.5q127 0 209 -59t82 -178q0 -62 -24.5 -111.5t-63 -82t-95 -56t-111.5 -35.5t-122.5 -19.5t-118 -9.5t-106.5 -4h-10q-21 -86 -21 -151q0 -47 5 -85.5t19 -77.5t38 -65.5t65 -43.5t96 -17q238 0 392 280l59 -28 q-177 -314 -498 -314q-370 0 -370 383zM256 530q54 3 91.5 6.5t93.5 12.5t95.5 21.5t83 34.5t70 51t44.5 71.5t18 95.5q0 71 -39 113.5t-111 42.5q-252 0 -346 -449zM373 1485l51 33l182 -248l283 248l43 -33l-277 -340h-123z" />
<glyph unicode="&#x11c;" horiz-adv-x="1353" d="M76 537q0 138 34 271.5t102.5 251t163 207t226 141.5t281.5 52q206 0 389 -78q0 -190 -43 -395h-62q0 8 0.5 21.5t0.5 25.5t-1 23q1 87 -9 145t-39 107.5t-86.5 73.5t-145.5 24q-292 0 -455 -315q-72 -139 -110.5 -313.5t-38.5 -332.5q0 -74 11.5 -135.5t38 -115.5 t67.5 -91t103 -58t142 -21q116 0 256 53l96 522h-206l10 53h553l-11 -53h-145l-92 -516q-266 -111 -481 -111q-270 0 -409.5 151.5t-139.5 412.5zM578 1577l299 307h112l178 -311l-51 -29l-198 215l-291 -217z" />
<glyph unicode="&#x11d;" horiz-adv-x="1038" d="M-88 -195q0 49 22 101h93q-21 -54 -21 -94q0 -43 20.5 -76t51 -51.5t73.5 -30t81.5 -15.5t80.5 -4q56 0 114.5 8t120 27.5t108.5 49t77.5 76t30.5 104.5q0 28 -12 49.5t-37 34.5t-51.5 21.5t-67.5 12t-72.5 4.5t-77.5 1q-108 0 -161 2q-63 1 -109.5 7t-90.5 20.5 t-68.5 44t-28.5 73.5q-5 52 26 113q29 57 89 96.5t133 58.5q-89 80 -89 203q0 111 62.5 201.5t161 139t209.5 48.5q93 0 157 -26h307l-10 -68h-196q71 -77 71 -188q0 -110 -62.5 -201.5t-162 -142t-209.5 -50.5q-111 0 -186 47q-40 -7 -75 -20.5t-65 -42.5t-30 -66 q0 -38 42.5 -55t119.5 -20q47 -2 151 -2h12h74t71.5 -2t72.5 -5.5t64.5 -10t60.5 -16.5t48.5 -25t40.5 -34.5t23.5 -46.5t9.5 -59q0 -104 -57.5 -186.5t-149.5 -130.5t-195.5 -72.5t-207.5 -24.5q-48 0 -96.5 5.5t-102 21.5t-94.5 39.5t-67.5 64t-26.5 92.5zM330 1163 l278 338h121l162 -338l-53 -33l-183 248l-280 -248zM340 604q0 -42 10 -90q26 -106 125 -106q69 0 119 37t75 97t35.5 120.5t10.5 123.5q0 36 -6 67.5t-20 60.5t-42 46t-67 17q-64 0 -112.5 -36.5t-75 -95t-39 -119.5t-13.5 -122z" />
<glyph unicode="&#x11e;" horiz-adv-x="1353" d="M76 537q0 138 34 271.5t102.5 251t163 207t226 141.5t281.5 52q206 0 389 -78q0 -190 -43 -395h-62q0 8 0.5 21.5t0.5 25.5t-1 23q1 87 -9 145t-39 107.5t-86.5 73.5t-145.5 24q-292 0 -455 -315q-72 -139 -110.5 -313.5t-38.5 -332.5q0 -74 11.5 -135.5t38 -115.5 t67.5 -91t103 -58t142 -21q116 0 256 53l96 522h-206l10 53h553l-11 -53h-145l-92 -516q-266 -111 -481 -111q-270 0 -409.5 151.5t-139.5 412.5zM637 1853l55 11q3 -82 55 -120t156 -38q205 0 264 156l60 -9q-44 -138 -126.5 -208t-215.5 -70q-245 0 -248 278z" />
<glyph unicode="&#x11f;" horiz-adv-x="1038" d="M-88 -195q0 49 22 101h93q-21 -54 -21 -94q0 -43 20.5 -76t51 -51.5t73.5 -30t81.5 -15.5t80.5 -4q56 0 114.5 8t120 27.5t108.5 49t77.5 76t30.5 104.5q0 28 -12 49.5t-37 34.5t-51.5 21.5t-67.5 12t-72.5 4.5t-77.5 1q-108 0 -161 2q-63 1 -109.5 7t-90.5 20.5 t-68.5 44t-28.5 73.5q-5 52 26 113q29 57 89 96.5t133 58.5q-89 80 -89 203q0 111 62.5 201.5t161 139t209.5 48.5q93 0 157 -26h307l-10 -68h-196q71 -77 71 -188q0 -110 -62.5 -201.5t-162 -142t-209.5 -50.5q-111 0 -186 47q-40 -7 -75 -20.5t-65 -42.5t-30 -66 q0 -38 42.5 -55t119.5 -20q47 -2 151 -2h12h74t71.5 -2t72.5 -5.5t64.5 -10t60.5 -16.5t48.5 -25t40.5 -34.5t23.5 -46.5t9.5 -59q0 -104 -57.5 -186.5t-149.5 -130.5t-195.5 -72.5t-207.5 -24.5q-48 0 -96.5 5.5t-102 21.5t-94.5 39.5t-67.5 64t-26.5 92.5zM340 604 q0 -42 10 -90q26 -106 125 -106q69 0 119 37t75 97t35.5 120.5t10.5 123.5q0 36 -6 67.5t-20 60.5t-42 46t-67 17q-64 0 -112.5 -36.5t-75 -95t-39 -119.5t-13.5 -122zM377 1464l57 11q3 -94 54 -138.5t151 -44.5q198 0 254 183l61 -11q-79 -295 -333 -295q-69 0 -118 22 t-75.5 63t-38.5 92t-12 118z" />
<glyph unicode="&#x120;" horiz-adv-x="1353" d="M76 537q0 138 34 271.5t102.5 251t163 207t226 141.5t281.5 52q206 0 389 -78q0 -190 -43 -395h-62q0 8 0.5 21.5t0.5 25.5t-1 23q1 87 -9 145t-39 107.5t-86.5 73.5t-145.5 24q-292 0 -455 -315q-72 -139 -110.5 -313.5t-38.5 -332.5q0 -74 11.5 -135.5t38 -115.5 t67.5 -91t103 -58t142 -21q116 0 256 53l96 522h-206l10 53h553l-11 -53h-145l-92 -516q-266 -111 -481 -111q-270 0 -409.5 151.5t-139.5 412.5zM797 1679q0 43 34.5 77t79.5 34q40 0 65 -25t25 -63q0 -45 -33.5 -79t-80.5 -34q-38 0 -64 26t-26 64z" />
<glyph unicode="&#x121;" horiz-adv-x="1038" d="M-88 -195q0 49 22 101h93q-21 -54 -21 -94q0 -43 20.5 -76t51 -51.5t73.5 -30t81.5 -15.5t80.5 -4q56 0 114.5 8t120 27.5t108.5 49t77.5 76t30.5 104.5q0 28 -12 49.5t-37 34.5t-51.5 21.5t-67.5 12t-72.5 4.5t-77.5 1q-108 0 -161 2q-63 1 -109.5 7t-90.5 20.5 t-68.5 44t-28.5 73.5q-5 52 26 113q29 57 89 96.5t133 58.5q-89 80 -89 203q0 111 62.5 201.5t161 139t209.5 48.5q93 0 157 -26h307l-10 -68h-196q71 -77 71 -188q0 -110 -62.5 -201.5t-162 -142t-209.5 -50.5q-111 0 -186 47q-40 -7 -75 -20.5t-65 -42.5t-30 -66 q0 -38 42.5 -55t119.5 -20q47 -2 151 -2h12h74t71.5 -2t72.5 -5.5t64.5 -10t60.5 -16.5t48.5 -25t40.5 -34.5t23.5 -46.5t9.5 -59q0 -104 -57.5 -186.5t-149.5 -130.5t-195.5 -72.5t-207.5 -24.5q-48 0 -96.5 5.5t-102 21.5t-94.5 39.5t-67.5 64t-26.5 92.5zM340 604 q0 -42 10 -90q26 -106 125 -106q69 0 119 37t75 97t35.5 120.5t10.5 123.5q0 36 -6 67.5t-20 60.5t-42 46t-67 17q-64 0 -112.5 -36.5t-75 -95t-39 -119.5t-13.5 -122zM532 1284q0 46 34 80.5t81 34.5q39 0 63.5 -25.5t24.5 -64.5q0 -45 -33 -80t-79 -35q-38 0 -64.5 26 t-26.5 64z" />
<glyph unicode="&#x122;" horiz-adv-x="1353" d="M76 537q0 138 34 271.5t102.5 251t163 207t226 141.5t281.5 52q206 0 389 -78q0 -190 -43 -395h-62q0 8 0.5 21.5t0.5 25.5t-1 23q1 87 -9 145t-39 107.5t-86.5 73.5t-145.5 24q-292 0 -455 -315q-72 -139 -110.5 -313.5t-38.5 -332.5q0 -74 11.5 -135.5t38 -115.5 t67.5 -91t103 -58t142 -21q116 0 256 53l96 522h-206l10 53h553l-11 -53h-145l-92 -516q-266 -111 -481 -111q-270 0 -409.5 151.5t-139.5 412.5zM442 -487q113 95 131 202h-18q-36 0 -57 23.5t-21 58.5q0 45 27.5 73t68.5 28q48 0 73.5 -34.5t25.5 -82.5 q0 -89 -56.5 -166.5t-148.5 -136.5z" />
<glyph unicode="&#x123;" horiz-adv-x="1038" d="M-88 -195q0 49 22 101h93q-21 -54 -21 -94q0 -43 20.5 -76t51 -51.5t73.5 -30t81.5 -15.5t80.5 -4q56 0 114.5 8t120 27.5t108.5 49t77.5 76t30.5 104.5q0 28 -12 49.5t-37 34.5t-51.5 21.5t-67.5 12t-72.5 4.5t-77.5 1q-108 0 -161 2q-63 1 -109.5 7t-90.5 20.5 t-68.5 44t-28.5 73.5q-5 52 26 113q29 57 89 96.5t133 58.5q-89 80 -89 203q0 111 62.5 201.5t161 139t209.5 48.5q93 0 157 -26h307l-10 -68h-196q71 -77 71 -188q0 -110 -62.5 -201.5t-162 -142t-209.5 -50.5q-111 0 -186 47q-40 -7 -75 -20.5t-65 -42.5t-30 -66 q0 -38 42.5 -55t119.5 -20q47 -2 151 -2h12h74t71.5 -2t72.5 -5.5t64.5 -10t60.5 -16.5t48.5 -25t40.5 -34.5t23.5 -46.5t9.5 -59q0 -104 -57.5 -186.5t-149.5 -130.5t-195.5 -72.5t-207.5 -24.5q-48 0 -96.5 5.5t-102 21.5t-94.5 39.5t-67.5 64t-26.5 92.5zM340 604 q0 -42 10 -90q26 -106 125 -106q69 0 119 37t75 97t35.5 120.5t10.5 123.5q0 36 -6 67.5t-20 60.5t-42 46t-67 17q-64 0 -112.5 -36.5t-75 -95t-39 -119.5t-13.5 -122zM512 1235q0 88 57 166t148 135l22 -35q-111 -96 -129 -203h19q35 0 56.5 -22.5t21.5 -58.5 q0 -45 -29 -73t-70 -28q-47 0 -71.5 34.5t-24.5 84.5z" />
<glyph unicode="&#x124;" horiz-adv-x="1490" d="M-39 0l10 53h158l240 1327h-158l10 54h516l-10 -54h-156l-108 -606h614l111 606h-156l10 54h519l-13 -54h-157l-238 -1327h156l-9 -53h-518l11 53h155l119 656h-616l-117 -656h155l-10 -53h-518zM606 1577l299 307h113l178 -311l-51 -29l-199 215l-291 -217z" />
<glyph unicode="&#x125;" horiz-adv-x="1169" d="M66 0l274 1380h-143l8 54h332l-129 -619h4q131 215 356 215q233 0 233 -223q0 -47 -16 -133l-96 -481q-6 -25 -6 -76q0 -70 88 -70q2 0 71 6l-10 -53q-91 -16 -174 -16q-160 0 -160 141q0 23 15 125l84 420q20 98 20 145q0 143 -123 143q-134 0 -235 -143 q-66 -98 -92 -244l-113 -571h-188zM463 1577l299 307h112l179 -311l-52 -29l-198 215l-291 -217z" />
<glyph unicode="&#x126;" horiz-adv-x="1490" d="M-39 0l10 53h158l176 983h-155l14 78h158l47 266h-158l10 54h516l-10 -54h-156l-47 -266h615l49 266h-156l10 54h519l-13 -54h-157l-48 -266h156l-14 -78h-156l-176 -983h156l-9 -53h-518l11 53h155l119 656h-616l-117 -656h155l-10 -53h-518zM463 774h614l47 262h-614z " />
<glyph unicode="&#x127;" horiz-adv-x="1169" d="M66 0l227 1149h-143l16 72h143l31 159h-143l8 54h332l-45 -213h374l-16 -72h-373l-69 -334h4q131 215 356 215q233 0 233 -223q0 -47 -16 -133l-96 -481q-6 -37 -6 -76q0 -70 88 -70q2 0 71 6l-10 -53q-91 -16 -174 -16q-160 0 -160 141q0 23 15 125l84 420q20 98 20 145 q0 143 -123 143q-134 0 -235 -143q-61 -90 -92 -244l-113 -571h-188z" />
<glyph unicode="&#x128;" horiz-adv-x="688" d="M-31 0l8 53h160l240 1327h-158l10 54h521l-11 -54h-159l-238 -1327h158l-11 -53h-520zM197 1614q37 84 97 140t138 56q10 0 21.5 -2t20 -4.5t21.5 -8t19 -8.5l21 -10.5t20 -9.5t20 -9.5t23.5 -11t22 -8.5t27 -7t28.5 -2q87 0 135 90l53 -13q-93 -198 -235 -198 q-55 0 -135 43q-4 2 -24.5 12t-29 13.5t-25.5 7.5t-32 4q-86 0 -139 -89z" />
<glyph unicode="&#x129;" horiz-adv-x="585" d="M90 1214q31 86 88.5 144.5t136.5 58.5q47 0 121.5 -46t120.5 -46q42 0 75.5 28t49.5 70l53 -14q-36 -87 -91.5 -144t-133.5 -57q-50 0 -127 44t-115 44q-84 0 -129 -96zM109 125q0 43 16 125l141 700h-147l10 54h334l-162 -811q-8 -33 -8 -76q0 -70 90 -70q11 0 23.5 1 t27.5 2.5t23 2.5l-13 -53q-91 -16 -176 -16q-74 0 -116.5 34.5t-42.5 106.5z" />
<glyph unicode="&#x12a;" horiz-adv-x="688" d="M-31 0l8 53h160l240 1327h-158l10 54h521l-11 -54h-159l-238 -1327h158l-11 -53h-520zM223 1647l25 118h590l-27 -118h-588z" />
<glyph unicode="&#x12b;" horiz-adv-x="585" d="M109 125q0 43 16 125l141 700h-147l10 54h334l-162 -811q-8 -33 -8 -76q0 -70 90 -70q11 0 23.5 1t27.5 2.5t23 2.5l-13 -53q-91 -16 -176 -16q-74 0 -116.5 34.5t-42.5 106.5zM113 1253l20 119h578l-23 -119h-575z" />
<glyph unicode="&#x12c;" horiz-adv-x="688" d="M-31 0l8 53h160l240 1327h-158l10 54h521l-11 -54h-159l-238 -1327h158l-11 -53h-520zM264 1853l55 11q3 -82 55 -120t156 -38q206 0 265 156l59 -9q-44 -138 -126.5 -208t-215.5 -70q-245 0 -248 278z" />
<glyph unicode="&#x12d;" horiz-adv-x="585" d="M109 125q0 43 16 125l141 700h-147l10 54h334l-162 -811q-8 -33 -8 -76q0 -70 90 -70q11 0 23.5 1t27.5 2.5t23 2.5l-13 -53q-91 -16 -176 -16q-74 0 -116.5 34.5t-42.5 106.5zM152 1464l57 11q3 -94 54 -138.5t151 -44.5q198 0 254 183l61 -11q-79 -295 -334 -295 q-133 0 -188 78t-55 217z" />
<glyph unicode="&#x12e;" horiz-adv-x="688" d="M-31 0l8 53h160l240 1327h-158l10 54h521l-11 -54h-159l-238 -1327h158l-11 -53h-145q-81 -65 -133.5 -131.5t-52.5 -140.5q0 -44 29 -67t79 -23q35 0 109 16l10 -51q-87 -43 -180 -43q-79 0 -128.5 38.5t-49.5 108.5q0 50 20 95.5t56.5 81.5t74.5 62.5t88 53.5h-297z " />
<glyph unicode="&#x12f;" horiz-adv-x="585" d="M-25 -293q0 93 62.5 161t163.5 124q-92 26 -92 133q0 33 18 125l139 700h-147l10 54h334l-162 -811q-8 -33 -8 -76q0 -70 90 -70q11 0 23.5 1t27.5 2.5t23 2.5l-13 -53q-110 -16 -172 -16q-166 -134 -166 -256q0 -43 29 -66.5t80 -23.5q35 0 109 16l12 -51 q-90 -43 -182 -43q-79 0 -129 38.5t-50 108.5zM301 1276q0 53 37 90t92 37q39 0 66.5 -26.5t27.5 -65.5q0 -53 -36 -90t-91 -37q-40 0 -68 27t-28 65z" />
<glyph unicode="&#x130;" horiz-adv-x="688" d="M-31 0l8 53h160l240 1327h-158l10 54h521l-11 -54h-159l-238 -1327h158l-11 -53h-520zM424 1679q0 43 35 77t80 34q40 0 65 -25t25 -63q0 -45 -34 -79t-81 -34q-38 0 -64 26t-26 64z" />
<glyph unicode="&#x131;" horiz-adv-x="585" d="M109 125q0 43 16 125l141 700h-147l10 54h334l-162 -811q-8 -33 -8 -76q0 -70 90 -70q11 0 23.5 1t27.5 2.5t23 2.5l-13 -53q-91 -16 -176 -16q-74 0 -116.5 34.5t-42.5 106.5z" />
<glyph unicode="&#x134;" horiz-adv-x="688" d="M-174 -340q157 75 237 201q59 98 87 262l227 1257h-158l10 54h521l-11 -54h-159l-207 -1149q-27 -144 -69.5 -239.5t-115.5 -165.5q-64 -61 -145 -109.5t-201 -105.5zM203 1577l299 307h112l179 -311l-52 -29l-198 215l-291 -217z" />
<glyph unicode="&#x135;" horiz-adv-x="585" d="M-133 -373q58 29 102 75t72 107t45 120.5t31 136.5l159 884h-145l10 54h332l-166 -908q-35 -206 -132 -319.5t-286 -196.5zM104 1163l279 338h121l162 -338l-54 -33l-182 248l-280 -248z" />
<glyph unicode="&#x136;" horiz-adv-x="1318" d="M-39 0l10 53h158l240 1327h-158l10 54h516l-10 -54h-156l-108 -612l119 16l340 351q109 112 180 245h-150l11 54h428l-9 -54h-133q-51 -43 -217 -209q-26 -27 -141 -143t-154 -156l406 -819h117l-9 -53h-522l10 53h156l-328 676l-114 -14l-119 -662h155l-10 -53h-518z M426 -487q113 95 131 202h-18q-36 0 -57 23.5t-21 58.5q0 45 27.5 73t68.5 28q48 0 73 -34.5t25 -82.5q0 -89 -56.5 -166.5t-147.5 -136.5z" />
<glyph unicode="&#x137;" horiz-adv-x="1095" d="M66 0l272 1380h-143l10 54h332l-129 -619h4q125 215 350 215q109 0 180.5 -58.5t71.5 -162.5q0 -70 -30.5 -124.5t-83.5 -89t-110 -55.5t-126 -34q84 -193 194 -387q41 -70 111 -70q23 0 55 4l-10 -53q-82 -16 -164 -16q-146 0 -203 114q-112 219 -207 437q34 0 78 6 q53 5 98.5 15.5t91.5 31.5t78 50.5t52 75t20 101.5q0 68 -41 108t-110 40q-60 0 -112.5 -25t-89 -64.5t-66 -93t-46.5 -104.5t-28 -105l-111 -571h-188zM293 -487q113 95 131 202h-18q-36 0 -57 23.5t-21 58.5q0 45 27.5 73t68.5 28q48 0 73 -34.5t25 -82.5 q0 -89 -56.5 -166.5t-148.5 -136.5z" />
<glyph unicode="&#x138;" horiz-adv-x="1095" d="M66 0l192 971h-145l10 53h328l-43 -209h4q125 215 350 215q109 0 180.5 -58.5t71.5 -162.5q0 -70 -30.5 -124.5t-83.5 -89t-110 -55.5t-126 -34q84 -193 194 -387q41 -70 111 -70q23 0 55 4l-10 -53q-82 -16 -164 -16q-146 0 -203 114q-112 219 -207 437q34 0 78 6 q53 5 98.5 15.5t91.5 31.5t78 50.5t52 75t20 101.5q0 68 -41 108t-110 40q-60 0 -112.5 -25t-89 -64.5t-66 -93t-46.5 -104.5t-28 -105l-111 -571h-188z" />
<glyph unicode="&#x139;" horiz-adv-x="1169" d="M-39 0l10 53h158l240 1327h-158l10 54h547l-12 -54h-185l-237 -1327h350q96 0 146 31.5t98 132.5q75 163 114 279h62l-98 -496h-1045zM629 1579l100 88q60 52 93 80.5t83 68t82 58t49 18.5q24 0 43 -16.5t19 -40.5q0 -47 -60 -82q-134 -81 -364 -209z" />
<glyph unicode="&#x13a;" horiz-adv-x="585" d="M98 125q0 38 17 125l225 1130h-143l8 54h332l-246 -1241q-8 -50 -8 -76q0 -37 25 -53.5t63 -16.5q16 0 43 3t32 3l-14 -53q-88 -16 -174 -16q-74 0 -117 34.5t-43 106.5zM338 1579l100 88q60 52 93 80.5t83 68t82 58t49 18.5q24 0 43 -16.5t19 -40.5q0 -48 -59 -82 q-121 -73 -365 -209z" />
<glyph unicode="&#x13b;" horiz-adv-x="1169" d="M-39 0l10 53h158l240 1327h-158l10 54h547l-12 -54h-185l-237 -1327h350q96 0 146 31.5t98 132.5q75 163 114 279h62l-98 -496h-1045zM350 -487q113 95 131 202h-18q-36 0 -57 23.5t-21 58.5q0 45 27.5 73t68.5 28q48 0 73.5 -34.5t25.5 -82.5q0 -89 -56.5 -166.5 t-148.5 -136.5z" />
<glyph unicode="&#x13c;" horiz-adv-x="585" d="M18 -487q114 96 132 202h-19q-36 0 -57 23.5t-21 58.5q0 45 28 73t69 28q48 0 73 -34.5t25 -82.5q0 -89 -56.5 -166.5t-148.5 -136.5zM98 125q0 38 17 125l225 1130h-143l8 54h332l-246 -1241q-8 -50 -8 -76q0 -37 25 -53.5t63 -16.5q16 0 43 3t32 3l-14 -53 q-88 -16 -174 -16q-74 0 -117 34.5t-43 106.5z" />
<glyph unicode="&#x13d;" horiz-adv-x="1169" d="M-39 0l10 53h158l240 1327h-158l10 54h547l-12 -54h-185l-237 -1327h350q96 0 146 31.5t98 132.5q75 163 114 279h62l-98 -496h-1045zM809 1081q105 95 123 201h-19q-32 0 -52.5 24t-20.5 58q0 45 27.5 72.5t66.5 27.5q42 0 65 -33.5t23 -82.5q0 -89 -52 -167t-136 -137z " />
<glyph unicode="&#x13e;" horiz-adv-x="667" d="M98 125q0 38 17 125l225 1130h-143l8 54h332l-246 -1241q-8 -50 -8 -76q0 -37 25 -53.5t63 -16.5q16 0 43 3t32 3l-14 -53q-88 -16 -174 -16q-74 0 -117 34.5t-43 106.5zM608 1081q105 95 123 201h-18q-32 0 -53 24t-21 58q0 45 27.5 72.5t66.5 27.5q42 0 65 -33.5 t23 -82.5q0 -89 -52 -167t-136 -137z" />
<glyph unicode="&#x13f;" horiz-adv-x="1169" d="M-39 0l10 53h158l240 1327h-158l10 54h547l-12 -54h-185l-237 -1327h350q96 0 146 31.5t98 132.5q75 163 114 279h62l-98 -496h-1045zM635 729q0 43 35 77t80 34q40 0 65 -25t25 -63q0 -45 -34 -79t-81 -34q-38 0 -64 26t-26 64z" />
<glyph unicode="&#x140;" horiz-adv-x="618" d="M98 125q0 38 17 125l225 1130h-143l8 54h332l-246 -1241q-8 -50 -8 -76q0 -37 25 -53.5t63 -16.5q16 0 43 3t32 3l-14 -53q-88 -16 -174 -16q-74 0 -117 34.5t-43 106.5zM522 731q0 46 34 80.5t81 34.5q39 0 63.5 -25.5t24.5 -64.5q0 -45 -33.5 -80t-79.5 -35 q-38 0 -64 26t-26 64z" />
<glyph unicode="&#x141;" horiz-adv-x="1169" d="M-39 0l10 53h158l94 520l-205 -133l17 101l207 133l127 706h-158l10 54h547l-12 -54h-185l-100 -567l424 272l-18 -102l-426 -272l-117 -658h350q96 0 146 31.5t98 132.5q75 163 114 279h62l-98 -496h-1045z" />
<glyph unicode="&#x142;" horiz-adv-x="591" d="M23 563l18 94l176 113l123 610h-143l8 54h332l-107 -539l180 117l-16 -92l-182 -117l-121 -610q-8 -33 -8 -76q0 -37 25 -53.5t63 -16.5q16 0 43 3t32 3l-14 -53q-88 -16 -174 -16q-74 0 -117 34.5t-43 106.5q0 38 17 125l86 428z" />
<glyph unicode="&#x143;" horiz-adv-x="1433" d="M-61 0l8 53h147q45 175 90 408l185 919h-158l10 54h408l477 -1141l76 461q49 295 49 626h-158l8 54h430l-10 -54h-147q-32 -148 -72 -389l-164 -999h-117l-573 1374l-127 -633q-34 -170 -56 -361t-24 -319h162l-8 -53h-436zM782 1579l101 88q60 52 93 80.5t83 68t82 58 t49 18.5q24 0 42.5 -16.5t18.5 -40.5q0 -48 -59 -82q-121 -73 -365 -209z" />
<glyph unicode="&#x144;" horiz-adv-x="1177" d="M76 0l190 950h-147l12 54h326l-39 -189h4q131 215 356 215q234 0 234 -223q0 -42 -17 -133l-96 -481q-6 -37 -6 -76q0 -70 88 -70q3 0 72 6l-11 -53q-88 -16 -174 -16q-159 0 -159 141q0 29 14 125l84 420q20 98 20 145q0 143 -122 143q-135 0 -236 -143 q-66 -98 -92 -244l-113 -571h-188zM584 1163q27 27 78 80t91.5 94t85 84t79 66.5t53.5 23.5q28 0 45.5 -17.5t17.5 -41.5q0 -38 -55 -80q-117 -84 -356 -239z" />
<glyph unicode="&#x145;" horiz-adv-x="1433" d="M-61 0l8 53h147q45 175 90 408l185 919h-158l10 54h408l477 -1141l76 461q49 295 49 626h-158l8 54h430l-10 -54h-147q-32 -148 -72 -389l-164 -999h-117l-573 1374l-127 -633q-34 -170 -56 -361t-24 -319h162l-8 -53h-436zM442 -487q113 95 131 202h-18q-36 0 -57 23.5 t-21 58.5q0 45 27.5 73t68.5 28q48 0 73.5 -34.5t25.5 -82.5q0 -89 -56.5 -166.5t-148.5 -136.5z" />
<glyph unicode="&#x146;" horiz-adv-x="1177" d="M76 0l190 950h-147l12 54h326l-39 -189h4q131 215 356 215q234 0 234 -223q0 -42 -17 -133l-96 -481q-6 -37 -6 -76q0 -70 88 -70q3 0 72 6l-11 -53q-88 -16 -174 -16q-159 0 -159 141q0 29 14 125l84 420q20 98 20 145q0 143 -122 143q-135 0 -236 -143 q-66 -98 -92 -244l-113 -571h-188zM313 -487q113 95 131 202h-18q-36 0 -57 23.5t-21 58.5q0 45 27.5 73t68.5 28q48 0 73.5 -34.5t25.5 -82.5q0 -89 -56.5 -166.5t-148.5 -136.5z" />
<glyph unicode="&#x147;" horiz-adv-x="1433" d="M-61 0l8 53h147q45 175 90 408l185 919h-158l10 54h408l477 -1141l76 461q49 295 49 626h-158l8 54h430l-10 -54h-147q-32 -148 -72 -389l-164 -999h-117l-573 1374l-127 -633q-34 -170 -56 -361t-24 -319h162l-8 -53h-436zM662 1868l51 28l196 -215l293 215l45 -34 l-295 -308h-112z" />
<glyph unicode="&#x148;" horiz-adv-x="1177" d="M76 0l190 950h-147l12 54h326l-39 -189h4q131 215 356 215q234 0 234 -223q0 -42 -17 -133l-96 -481q-6 -37 -6 -76q0 -70 88 -70q3 0 72 6l-11 -53q-88 -16 -174 -16q-159 0 -159 141q0 29 14 125l84 420q20 98 20 145q0 143 -122 143q-135 0 -236 -143 q-66 -98 -92 -244l-113 -571h-188zM459 1485l51 33l182 -248l283 248l43 -33l-277 -340h-123z" />
<glyph unicode="&#x14a;" horiz-adv-x="1433" d="M-61 0l8 53h147q45 175 90 408l185 919h-158l10 54h408l477 -1141l76 461q49 295 49 626h-158l8 54h430l-10 -54h-147q-32 -148 -72 -389l-145 -891q-31 -188 -149 -301.5t-326 -187.5l-17 49q303 116 393 338h-43l-567 1368l-127 -633q-34 -170 -56 -361t-24 -319h162 l-8 -53h-436z" />
<glyph unicode="&#x14b;" horiz-adv-x="1177" d="M76 0l190 950h-147l12 54h326l-39 -189h4q131 215 356 215q234 0 234 -223q0 -63 -13 -133l-98 -535q-30 -162 -81 -264t-131.5 -168t-217.5 -127l-20 47q59 30 102.5 76.5t72 111t45.5 124.5t34 145l106 586q16 98 16 145q0 143 -122 143q-69 0 -127.5 -37.5t-98.5 -101 t-66.5 -134t-43.5 -150.5l-105 -535h-188z" />
<glyph unicode="&#x14c;" horiz-adv-x="1378" d="M80 551q0 128 29.5 256t91.5 245.5t148 208.5t207.5 145t262.5 54q127 0 226.5 -45.5t160.5 -125.5t92 -182.5t31 -223.5q0 -128 -30 -256t-92 -246.5t-148.5 -209.5t-208 -145.5t-260.5 -54.5q-129 0 -228.5 46t-160 126.5t-91 183.5t-30.5 224zM279 408 q0 -383 301 -383q90 0 167 38.5t132 103t99.5 151t72 178.5t46 191t26 182.5t7.5 158.5q0 379 -303 379q-88 0 -164.5 -38.5t-131.5 -103t-99 -150.5t-72 -178t-47 -190t-26.5 -182t-7.5 -157zM567 1647l25 118h590l-27 -118h-588z" />
<glyph unicode="&#x14d;" horiz-adv-x="1038" d="M31 365q0 118 38.5 235t107 213.5t176 156.5t233.5 60q178 0 276.5 -114t98.5 -291q0 -94 -23.5 -187t-70.5 -177t-111.5 -148t-154 -102t-191.5 -38q-180 0 -279.5 108.5t-99.5 283.5zM221 262q0 -235 185 -235q77 0 143 55t107.5 137.5t71 182.5t42 187t12.5 154 q0 234 -186 234q-65 0 -122 -38.5t-96.5 -101.5t-70.5 -139.5t-49.5 -158.5t-27.5 -152t-9 -125zM338 1253l20 119h578l-23 -119h-575z" />
<glyph unicode="&#x14e;" horiz-adv-x="1378" d="M80 551q0 128 29.5 256t91.5 245.5t148 208.5t207.5 145t262.5 54q127 0 226.5 -45.5t160.5 -125.5t92 -182.5t31 -223.5q0 -128 -30 -256t-92 -246.5t-148.5 -209.5t-208 -145.5t-260.5 -54.5q-129 0 -228.5 46t-160 126.5t-91 183.5t-30.5 224zM279 408 q0 -383 301 -383q90 0 167 38.5t132 103t99.5 151t72 178.5t46 191t26 182.5t7.5 158.5q0 379 -303 379q-88 0 -164.5 -38.5t-131.5 -103t-99 -150.5t-72 -178t-47 -190t-26.5 -182t-7.5 -157zM608 1853l56 11q3 -82 54.5 -120t155.5 -38q206 0 265 156l59 -9 q-44 -138 -126.5 -208t-215.5 -70q-245 0 -248 278z" />
<glyph unicode="&#x14f;" horiz-adv-x="1038" d="M31 365q0 118 38.5 235t107 213.5t176 156.5t233.5 60q178 0 276.5 -114t98.5 -291q0 -94 -23.5 -187t-70.5 -177t-111.5 -148t-154 -102t-191.5 -38q-180 0 -279.5 108.5t-99.5 283.5zM221 262q0 -235 185 -235q77 0 143 55t107.5 137.5t71 182.5t42 187t12.5 154 q0 234 -186 234q-65 0 -122 -38.5t-96.5 -101.5t-70.5 -139.5t-49.5 -158.5t-27.5 -152t-9 -125zM377 1464l57 11q3 -94 54 -138.5t151 -44.5q198 0 254 183l61 -11q-79 -295 -333 -295q-69 0 -118 22t-75.5 63t-38.5 92t-12 118z" />
<glyph unicode="&#x150;" horiz-adv-x="1378" d="M80 551q0 128 29.5 256t91.5 245.5t148 208.5t207.5 145t262.5 54q127 0 226.5 -45.5t160.5 -125.5t92 -182.5t31 -223.5q0 -128 -30 -256t-92 -246.5t-148.5 -209.5t-208 -145.5t-260.5 -54.5q-129 0 -228.5 46t-160 126.5t-91 183.5t-30.5 224zM279 408 q0 -383 301 -383q90 0 167 38.5t132 103t99.5 151t72 178.5t46 191t26 182.5t7.5 158.5q0 379 -303 379q-88 0 -164.5 -38.5t-131.5 -103t-99 -150.5t-72 -178t-47 -190t-26.5 -182t-7.5 -157zM559 1577q14 15 86 92q11 11 32.5 34t34 35.5t32.5 33t32.5 32.5t29.5 28 t29.5 25t25.5 18t23.5 13t18.5 4q26 0 40.5 -15.5t14.5 -43.5q0 -37 -53 -76q-185 -134 -303 -211zM877 1577q15 17 44.5 48t36.5 38q132 137 172 172q65 57 95 57q51 0 51 -59q0 -18 -14.5 -39.5t-36.5 -36.5q-85 -61 -305 -211z" />
<glyph unicode="&#x151;" horiz-adv-x="1038" d="M31 365q0 118 38.5 235t107 213.5t176 156.5t233.5 60q178 0 276.5 -114t98.5 -291q0 -94 -23.5 -187t-70.5 -177t-111.5 -148t-154 -102t-191.5 -38q-180 0 -279.5 108.5t-99.5 283.5zM221 262q0 -235 185 -235q77 0 143 55t107.5 137.5t71 182.5t42 187t12.5 154 q0 234 -186 234q-65 0 -122 -38.5t-96.5 -101.5t-70.5 -139.5t-49.5 -158.5t-27.5 -152t-9 -125zM338 1163q22 27 64 81.5t74.5 95t69.5 83t67.5 65.5t50.5 23q28 0 43.5 -15.5t15.5 -41.5q0 -35 -51 -76q-56 -50 -295 -245zM651 1163q22 27 64 81.5t74.5 94.5t70 83t68 66 t51.5 23q26 0 41.5 -15.5t15.5 -41.5q0 -27 -49 -76q-96 -81 -297 -245z" />
<glyph unicode="&#x152;" horiz-adv-x="2054" d="M76 545q0 118 24 231t70 215t116.5 188.5t158.5 149t202 98t242 35.5q96 0 268 -28h848q0 -117 -59 -449h-60q-3 67 -10 117q-3 130 -16 174q-23 81 -107 98q-28 6 -63 6h-340l-111 -612h145q75 0 110.5 25.5t66.5 99.5q19 44 59 166h59l-112 -637h-62q2 27 2 74 q6 176 -59 204q-34 15 -94 15q-23 0 -63.5 -1t-61.5 -1l-119 -660h375q104 0 159.5 36t100.5 130q40 85 110 277h62l-100 -496h-918q-10 -2 -44.5 -8t-48.5 -8.5t-41 -6t-49 -5t-46 -1.5q-278 0 -436 151t-158 423zM281 449q0 -200 92.5 -312t288.5 -112q140 0 251 63 l226 1255q-85 66 -226 66q-97 0 -181 -32t-144.5 -84t-110.5 -126t-82.5 -148.5t-56.5 -160.5q-57 -205 -57 -409z" />
<glyph unicode="&#x153;" horiz-adv-x="1658" d="M31 365q0 94 23.5 188.5t71 180t112.5 152t155.5 105.5t192.5 39q113 0 195.5 -52.5t125.5 -150.5q156 203 393 203q126 0 207.5 -59t81.5 -178q0 -62 -24.5 -111.5t-62.5 -82t-94.5 -56t-111.5 -35.5t-122.5 -19.5t-117.5 -10t-106 -3.5h-10q-18 -88 -18 -151 q0 -47 5 -86t19 -78t37.5 -65.5t62.5 -43t91 -16.5q136 0 230.5 74.5t166.5 205.5l57 -28q-172 -314 -495 -314q-110 0 -190.5 47.5t-121.5 139.5q-149 -187 -374 -187q-178 0 -278.5 108t-100.5 284zM221 262q0 -235 185 -235q78 0 144 55t107.5 137.5t70.5 182.5t41.5 187 t12.5 154q0 234 -186 234q-65 0 -122 -38.5t-96.5 -101.5t-70.5 -139.5t-49.5 -158.5t-27.5 -152t-9 -125zM952 530q53 3 91 6.5t93.5 12.5t95 21.5t83 34.5t70.5 51t45 71.5t18 95.5q0 71 -40 113.5t-112 42.5q-45 0 -86 -16t-71.5 -42.5t-58 -64.5t-46.5 -76.5t-36 -85.5 t-27 -85t-19 -79z" />
<glyph unicode="&#x154;" horiz-adv-x="1333" d="M-39 0l10 53h158l240 1327h-158l10 54h584q438 0 438 -279q0 -171 -111.5 -278.5t-289.5 -131.5q146 -18 201 -86.5t55 -214.5q0 -37 -4 -112t-4 -113q0 -130 47 -166h86l-11 -53h-286q-47 60 -47 211q0 43 7 130.5t7 131.5q0 127 -60.5 184.5t-191.5 57.5h-188 l-119 -662h168l-10 -53h-531zM463 768h172q136 0 232 67t139 179q30 82 30 166q0 200 -278 200h-187zM711 1579l100 88q60 52 93 80.5t83 68t82 58t49 18.5q24 0 43 -16.5t19 -40.5q0 -47 -60 -82q-134 -81 -364 -209z" />
<glyph unicode="&#x155;" horiz-adv-x="911" d="M76 0l190 950h-147l12 54h326l-41 -207h2q57 102 141 167.5t189 65.5q67 0 103 -40t36 -105q0 -30 -5.5 -68t-9.5 -57.5t-17 -70t-15 -58.5h-127q32 144 32 219q0 100 -67 100q-60 0 -115.5 -45t-93.5 -113t-63.5 -134t-36.5 -123l-105 -535h-188zM451 1163q27 27 78 80 t91.5 94t85 84t79 66.5t53.5 23.5q28 0 45.5 -17.5t17.5 -41.5q0 -38 -55 -80q-108 -77 -357 -239z" />
<glyph unicode="&#x156;" horiz-adv-x="1333" d="M-39 0l10 53h158l240 1327h-158l10 54h584q438 0 438 -279q0 -171 -111.5 -278.5t-289.5 -131.5q146 -18 201 -86.5t55 -214.5q0 -37 -4 -112t-4 -113q0 -130 47 -166h86l-11 -53h-286q-47 60 -47 211q0 43 7 130.5t7 131.5q0 127 -60.5 184.5t-191.5 57.5h-188 l-119 -662h168l-10 -53h-531zM432 -487q113 95 131 202h-18q-36 0 -57 23.5t-21 58.5q0 45 27.5 73t68.5 28q48 0 73.5 -34.5t25.5 -82.5q0 -89 -56.5 -166.5t-148.5 -136.5zM463 768h172q136 0 232 67t139 179q30 82 30 166q0 200 -278 200h-187z" />
<glyph unicode="&#x157;" horiz-adv-x="911" d="M76 0l190 950h-147l12 54h326l-41 -207h2q57 102 141 167.5t189 65.5q67 0 103 -40t36 -105q0 -30 -5.5 -68t-9.5 -57.5t-17 -70t-15 -58.5h-127q32 144 32 219q0 100 -67 100q-60 0 -115.5 -45t-93.5 -113t-63.5 -134t-36.5 -123l-105 -535h-188zM180 -487 q113 95 131 202h-18q-36 0 -57 23.5t-21 58.5q0 45 27.5 73t68.5 28q48 0 73.5 -34.5t25.5 -82.5q0 -89 -56.5 -166.5t-148.5 -136.5z" />
<glyph unicode="&#x158;" horiz-adv-x="1333" d="M-39 0l10 53h158l240 1327h-158l10 54h584q438 0 438 -279q0 -171 -111.5 -278.5t-289.5 -131.5q146 -18 201 -86.5t55 -214.5q0 -37 -4 -112t-4 -113q0 -130 47 -166h86l-11 -53h-286q-47 60 -47 211q0 43 7 130.5t7 131.5q0 127 -60.5 184.5t-191.5 57.5h-188 l-119 -662h168l-10 -53h-531zM463 768h172q136 0 232 67t139 179q30 82 30 166q0 200 -278 200h-187zM590 1868l51 28l197 -215l292 215l46 -34l-295 -308h-113z" />
<glyph unicode="&#x159;" horiz-adv-x="911" d="M76 0l190 950h-147l12 54h326l-41 -207h2q57 102 141 167.5t189 65.5q67 0 103 -40t36 -105q0 -30 -5.5 -68t-9.5 -57.5t-17 -70t-15 -58.5h-127q32 144 32 219q0 100 -67 100q-60 0 -115.5 -45t-93.5 -113t-63.5 -134t-36.5 -123l-105 -535h-188zM326 1485l51 33 l182 -248l283 248l43 -33l-277 -340h-123z" />
<glyph unicode="&#x15a;" horiz-adv-x="1165" d="M35 78l63 416h64q1 -15 1.5 -65.5t2.5 -78.5q2 -62 9.5 -107.5t25.5 -88.5t48 -70t78.5 -43t114.5 -16q159 0 277.5 104t118.5 256q0 55 -22 97.5t-74.5 78t-89 54t-113.5 51.5q-6 3 -9 4q-45 19 -73 32.5t-68 35t-65 41t-53 47.5t-44 57t-26.5 67.5t-10.5 81.5 q0 82 30 152t81.5 120t119.5 86t145.5 53t158.5 17q197 0 354 -65q0 -200 -41 -402h-67q6 80 0 164q-5 131 -60.5 190.5t-187.5 59.5q-89 0 -169 -37.5t-131.5 -108.5t-51.5 -159q0 -44 16.5 -80t45.5 -63t67.5 -50t82.5 -42t90 -38q24 -9 36 -14q73 -29 124 -57.5t101 -71 t76 -100.5t26 -131q0 -112 -50.5 -205.5t-134 -153t-190 -92.5t-221.5 -33q-109 0 -224 26t-181 81zM627 1579l100 88q60 52 93 80.5t83 68t82 58t49 18.5q24 0 43 -16.5t19 -40.5q0 -47 -60 -82q-134 -81 -364 -209z" />
<glyph unicode="&#x15b;" horiz-adv-x="901" d="M23 244q0 58 12 110h104q-4 -39 -4 -106q0 -108 47.5 -164.5t155.5 -56.5q109 0 194.5 66t85.5 171q0 32 -14 58.5t-32.5 44t-54.5 35.5t-61 27.5t-71 25.5q-59 19 -98.5 37t-82.5 47t-65 71.5t-22 96.5q0 101 60 176.5t150.5 111t196.5 35.5q61 0 110.5 -10.5t91.5 -35 t65.5 -69t23.5 -106.5q0 -41 -14 -123h-107q1 15 4 35.5t5 38t2 35.5q0 182 -187 182q-95 0 -170.5 -53.5t-75.5 -143.5q0 -30 14 -54.5t33.5 -41t55.5 -33t64 -26t75 -24.5q7 -2 10 -3q57 -19 97.5 -38t81 -50t62 -75t21.5 -101q0 -113 -67 -197t-167.5 -124t-215.5 -40 q-152 0 -232.5 64t-80.5 207zM446 1163q27 27 78 80t91.5 94t85.5 84t79.5 66.5t53.5 23.5q28 0 45.5 -17.5t17.5 -41.5q0 -38 -55 -80q-108 -77 -357 -239z" />
<glyph unicode="&#x15c;" horiz-adv-x="1165" d="M35 78l63 416h64q1 -15 1.5 -65.5t2.5 -78.5q2 -62 9.5 -107.5t25.5 -88.5t48 -70t78.5 -43t114.5 -16q159 0 277.5 104t118.5 256q0 55 -22 97.5t-74.5 78t-89 54t-113.5 51.5q-6 3 -9 4q-45 19 -73 32.5t-68 35t-65 41t-53 47.5t-44 57t-26.5 67.5t-10.5 81.5 q0 82 30 152t81.5 120t119.5 86t145.5 53t158.5 17q197 0 354 -65q0 -200 -41 -402h-67q6 80 0 164q-5 131 -60.5 190.5t-187.5 59.5q-89 0 -169 -37.5t-131.5 -108.5t-51.5 -159q0 -44 16.5 -80t45.5 -63t67.5 -50t82.5 -42t90 -38q24 -9 36 -14q73 -29 124 -57.5t101 -71 t76 -100.5t26 -131q0 -112 -50.5 -205.5t-134 -153t-190 -92.5t-221.5 -33q-109 0 -224 26t-181 81zM442 1577l299 307h113l178 -311l-51 -29l-199 215l-290 -217z" />
<glyph unicode="&#x15d;" horiz-adv-x="901" d="M23 244q0 58 12 110h104q-4 -39 -4 -106q0 -108 47.5 -164.5t155.5 -56.5q109 0 194.5 66t85.5 171q0 32 -14 58.5t-32.5 44t-54.5 35.5t-61 27.5t-71 25.5q-59 19 -98.5 37t-82.5 47t-65 71.5t-22 96.5q0 101 60 176.5t150.5 111t196.5 35.5q61 0 110.5 -10.5t91.5 -35 t65.5 -69t23.5 -106.5q0 -41 -14 -123h-107q1 15 4 35.5t5 38t2 35.5q0 182 -187 182q-95 0 -170.5 -53.5t-75.5 -143.5q0 -30 14 -54.5t33.5 -41t55.5 -33t64 -26t75 -24.5q7 -2 10 -3q57 -19 97.5 -38t81 -50t62 -75t21.5 -101q0 -113 -67 -197t-167.5 -124t-215.5 -40 q-152 0 -232.5 64t-80.5 207zM262 1163l279 338h121l161 -338l-53 -33l-182 248l-281 -248z" />
<glyph unicode="&#x15e;" horiz-adv-x="1165" d="M35 78l63 416h64q1 -15 1.5 -65.5t2.5 -78.5q2 -62 9.5 -107.5t25.5 -88.5t48 -70t78.5 -43t114.5 -16q159 0 277.5 104t118.5 256q0 55 -22 97.5t-74.5 78t-89 54t-113.5 51.5q-6 3 -9 4q-45 19 -73 32.5t-68 35t-65 41t-53 47.5t-44 57t-26.5 67.5t-10.5 81.5 q0 82 30 152t81.5 120t119.5 86t145.5 53t158.5 17q197 0 354 -65q0 -200 -41 -402h-67q6 80 0 164q-5 131 -60.5 190.5t-187.5 59.5q-89 0 -169 -37.5t-131.5 -108.5t-51.5 -159q0 -44 16.5 -80t45.5 -63t67.5 -50t82.5 -42t90 -38q24 -9 36 -14q73 -29 124 -57.5t101 -71 t76 -100.5t26 -131q0 -108 -47 -198.5t-125.5 -150.5t-178.5 -95t-210 -40l-31 -75q36 -3 68.5 -12t65 -26.5t52 -48.5t19.5 -73q0 -58 -36 -97.5t-85.5 -55t-105.5 -15.5q-122 0 -236 70l35 55q90 -51 182 -51q49 0 85 24t36 76q0 95 -166 100l54 129q-108 4 -212.5 29.5 t-164.5 77.5z" />
<glyph unicode="&#x15f;" horiz-adv-x="901" d="M23 244q0 58 12 110h104q-4 -39 -4 -106q0 -108 47.5 -164.5t155.5 -56.5q109 0 194.5 66t85.5 171q0 32 -14 58.5t-32.5 44t-54.5 35.5t-61 27.5t-71 25.5q-59 19 -98.5 37t-82.5 47t-65 71.5t-22 96.5q0 101 60 176.5t150.5 111t196.5 35.5q61 0 110.5 -10.5t91.5 -35 t65.5 -69t23.5 -106.5q0 -41 -14 -123h-107q1 15 4 35.5t5 38t2 35.5q0 182 -187 182q-95 0 -170.5 -53.5t-75.5 -143.5q0 -29 15 -54t30.5 -40t56.5 -33.5t60 -25t72 -23.5l18 -6q45 -16 78 -30t70 -37t60 -49t38.5 -64t15.5 -84q0 -111 -66 -194.5t-165 -124.5t-213 -42 l-31 -77q36 -3 68.5 -12t65 -26.5t52 -48.5t19.5 -73q0 -44 -20 -78t-54 -52.5t-72.5 -28t-80.5 -9.5q-123 0 -234 70l33 55q90 -51 184 -51q48 0 83.5 24t35.5 76q0 95 -164 100l56 133q-127 11 -193.5 75t-66.5 194z" />
<glyph unicode="&#x160;" horiz-adv-x="1165" d="M35 78l63 416h64q1 -15 1.5 -65.5t2.5 -78.5q2 -62 9.5 -107.5t25.5 -88.5t48 -70t78.5 -43t114.5 -16q159 0 277.5 104t118.5 256q0 55 -22 97.5t-74.5 78t-89 54t-113.5 51.5q-6 3 -9 4q-45 19 -73 32.5t-68 35t-65 41t-53 47.5t-44 57t-26.5 67.5t-10.5 81.5 q0 82 30 152t81.5 120t119.5 86t145.5 53t158.5 17q197 0 354 -65q0 -200 -41 -402h-67q6 80 0 164q-5 131 -60.5 190.5t-187.5 59.5q-89 0 -169 -37.5t-131.5 -108.5t-51.5 -159q0 -44 16.5 -80t45.5 -63t67.5 -50t82.5 -42t90 -38q24 -9 36 -14q73 -29 124 -57.5t101 -71 t76 -100.5t26 -131q0 -112 -50.5 -205.5t-134 -153t-190 -92.5t-221.5 -33q-109 0 -224 26t-181 81zM506 1868l51 28l197 -215l293 215l45 -34l-295 -308h-113z" />
<glyph unicode="&#x161;" horiz-adv-x="901" d="M23 244q0 58 12 110h104q-4 -39 -4 -106q0 -108 47.5 -164.5t155.5 -56.5q109 0 194.5 66t85.5 171q0 32 -14 58.5t-32.5 44t-54.5 35.5t-61 27.5t-71 25.5q-59 19 -98.5 37t-82.5 47t-65 71.5t-22 96.5q0 101 60 176.5t150.5 111t196.5 35.5q61 0 110.5 -10.5t91.5 -35 t65.5 -69t23.5 -106.5q0 -41 -14 -123h-107q1 15 4 35.5t5 38t2 35.5q0 182 -187 182q-95 0 -170.5 -53.5t-75.5 -143.5q0 -30 14 -54.5t33.5 -41t55.5 -33t64 -26t75 -24.5q7 -2 10 -3q57 -19 97.5 -38t81 -50t62 -75t21.5 -101q0 -113 -67 -197t-167.5 -124t-215.5 -40 q-152 0 -232.5 64t-80.5 207zM322 1485l51 33l182 -248l283 248l43 -33l-277 -340h-123z" />
<glyph unicode="&#x162;" horiz-adv-x="1183" d="M113 975l96 459h1030q0 -229 -47 -459h-55q2 29 2 86q0 157 -36 238t-120 81h-156l-239 -1327h184l-8 -53h-576l11 53h186l240 1327h-158q-94 0 -158 -93t-139 -312h-57zM317 -487q114 96 132 202h-19q-36 0 -57 23.5t-21 58.5q0 45 28 73t69 28q48 0 73 -34.5t25 -82.5 q0 -89 -56.5 -166.5t-148.5 -136.5z" />
<glyph unicode="&#x163;" horiz-adv-x="696" d="M72 -487q113 95 131 202h-19q-36 0 -57 23.5t-21 58.5q0 45 28 73t69 28q48 0 73 -34.5t25 -82.5q0 -89 -56.5 -166.5t-148.5 -136.5zM92 936l14 68h168l93 290h145l-57 -290h250l-13 -68h-252l-137 -688q-12 -74 -12 -109q0 -43 19.5 -69.5t60.5 -26.5t79.5 16t73 46.5 t58.5 57t53 64.5l43 -34q-80 -104 -165 -162t-198 -58q-94 0 -151.5 41t-57.5 129q0 52 15 129l133 664h-162z" />
<glyph unicode="&#x164;" horiz-adv-x="1183" d="M113 975l96 459h1030q0 -229 -47 -459h-55q2 29 2 86q0 157 -36 238t-120 81h-156l-239 -1327h184l-8 -53h-576l11 53h186l240 1327h-158q-94 0 -158 -93t-139 -312h-57zM516 1868l51 28l197 -215l293 215l45 -34l-295 -308h-113z" />
<glyph unicode="&#x165;" horiz-adv-x="696" d="M92 936l14 68h168l93 290h145l-57 -290h250l-13 -68h-252l-137 -688q-12 -74 -12 -109q0 -43 19.5 -69.5t60.5 -26.5t79.5 16t73 46.5t58.5 57t53 64.5l43 -34q-80 -104 -165 -162t-198 -58q-94 0 -151.5 41t-57.5 129q0 52 15 129l133 664h-162zM606 1081 q105 95 123 201h-18q-32 0 -53 24t-21 58q0 45 27.5 72.5t66.5 27.5q42 0 65 -33.5t23 -82.5q0 -89 -52 -167t-136 -137z" />
<glyph unicode="&#x166;" horiz-adv-x="1183" d="M113 975l96 459h1030q0 -229 -47 -459h-55q2 31 2 86q0 157 -36 238t-120 81h-156l-108 -600h250l-15 -78h-249l-117 -649h184l-8 -53h-576l11 53h186l117 649h-248l16 78h246l109 600h-158q-94 0 -158 -93t-139 -312h-57z" />
<glyph unicode="&#x167;" horiz-adv-x="696" d="M47 705l16 73h158l33 158h-162l14 68h168l93 290h145l-57 -290h250l-13 -68h-252l-30 -158h252l-17 -73h-252l-90 -457q-12 -74 -12 -109q0 -43 19.5 -69.5t60.5 -26.5t79.5 16t73 46.5t58.5 57t53 64.5l43 -34q-80 -104 -165 -162t-198 -58q-94 0 -151.5 41t-57.5 129 q0 52 15 129l86 433h-160z" />
<glyph unicode="&#x168;" horiz-adv-x="1347" d="M145 324q0 61 15 153l172 903h-158l8 54h537l-10 -54h-172l-177 -925q-18 -95 -18 -162q-3 -256 283 -256q95 0 167.5 23t119.5 61t81 100.5t52 126t34 152.5l37 217q55 313 55 573q0 59 -2 90h-151l10 54h422l-10 -54h-142q-15 -57 -26.5 -117t-26.5 -152t-20 -120 l-86 -499q-19 -109 -43 -185.5t-65.5 -143.5t-100.5 -107t-145.5 -62.5t-202.5 -22.5q-205 0 -321.5 82.5t-115.5 270.5zM567 1614q37 83 97.5 139.5t138.5 56.5q10 0 21.5 -2t20 -4.5t21.5 -8t19 -8.5l21 -10.5t20 -9.5t20 -9.5t23.5 -11t22 -8.5t27 -7t28.5 -2 q87 0 135 90l53 -13q-93 -198 -236 -198q-55 0 -135 43q-6 3 -25 12t-28 13t-25.5 8t-31.5 4q-87 0 -140 -89z" />
<glyph unicode="&#x169;" horiz-adv-x="1175" d="M113 950l10 54h334l-135 -670q-19 -93 -19 -146q0 -139 117 -139q69 0 132.5 46.5t111.5 113.5q65 93 94 242l108 553h187l-160 -811q-8 -33 -8 -76q0 -70 90 -70q11 0 23 1t26 2.5t23 2.5l-11 -53q-94 -16 -176 -16q-142 0 -153 122q-3 41 8 101q-135 -234 -369 -234 q-110 0 -167.5 57t-57.5 167q0 58 14 133l123 620h-145zM383 1214q31 86 88.5 144.5t136.5 58.5q47 0 121.5 -46t120.5 -46q42 0 75.5 28t49.5 70l53 -14q-36 -87 -91.5 -144t-133.5 -57q-50 0 -127 44t-115 44q-84 0 -129 -96z" />
<glyph unicode="&#x16a;" horiz-adv-x="1347" d="M145 324q0 61 15 153l172 903h-158l8 54h537l-10 -54h-172l-177 -925q-18 -95 -18 -162q-3 -256 283 -256q95 0 167.5 23t119.5 61t81 100.5t52 126t34 152.5l37 217q55 313 55 573q0 59 -2 90h-151l10 54h422l-10 -54h-142q-15 -57 -26.5 -117t-26.5 -152t-20 -120 l-86 -499q-19 -109 -43 -185.5t-65.5 -143.5t-100.5 -107t-145.5 -62.5t-202.5 -22.5q-205 0 -321.5 82.5t-115.5 270.5zM594 1647l24 118h590l-26 -118h-588z" />
<glyph unicode="&#x16b;" horiz-adv-x="1175" d="M113 950l10 54h334l-135 -670q-19 -93 -19 -146q0 -139 117 -139q69 0 132.5 46.5t111.5 113.5q65 93 94 242l108 553h187l-160 -811q-8 -33 -8 -76q0 -70 90 -70q11 0 23 1t26 2.5t23 2.5l-11 -53q-94 -16 -176 -16q-142 0 -153 122q-3 41 8 101q-135 -234 -369 -234 q-110 0 -167.5 57t-57.5 167q0 58 14 133l123 620h-145zM406 1253l20 119h578l-23 -119h-575z" />
<glyph unicode="&#x16c;" horiz-adv-x="1347" d="M145 324q0 61 15 153l172 903h-158l8 54h537l-10 -54h-172l-177 -925q-18 -95 -18 -162q-3 -256 283 -256q95 0 167.5 23t119.5 61t81 100.5t52 126t34 152.5l37 217q55 313 55 573q0 59 -2 90h-151l10 54h422l-10 -54h-142q-15 -57 -26.5 -117t-26.5 -152t-20 -120 l-86 -499q-19 -109 -43 -185.5t-65.5 -143.5t-100.5 -107t-145.5 -62.5t-202.5 -22.5q-205 0 -321.5 82.5t-115.5 270.5zM635 1853l55 11q3 -82 55 -120t156 -38q205 0 264 156l60 -9q-44 -138 -126.5 -208t-215.5 -70q-245 0 -248 278z" />
<glyph unicode="&#x16d;" horiz-adv-x="1175" d="M113 950l10 54h334l-135 -670q-19 -93 -19 -146q0 -139 117 -139q69 0 132.5 46.5t111.5 113.5q65 93 94 242l108 553h187l-160 -811q-8 -33 -8 -76q0 -70 90 -70q11 0 23 1t26 2.5t23 2.5l-11 -53q-94 -16 -176 -16q-142 0 -153 122q-3 41 8 101q-135 -234 -369 -234 q-110 0 -167.5 57t-57.5 167q0 58 14 133l123 620h-145zM444 1464l58 11q3 -94 54 -138.5t151 -44.5q198 0 254 183l61 -11q-79 -295 -334 -295q-69 0 -118 22t-75.5 63t-38.5 92t-12 118z" />
<glyph unicode="&#x16e;" horiz-adv-x="1347" d="M145 324q0 61 15 153l172 903h-158l8 54h537l-10 -54h-172l-177 -925q-18 -95 -18 -162q-3 -256 283 -256q95 0 167.5 23t119.5 61t81 100.5t52 126t34 152.5l37 217q55 313 55 573q0 59 -2 90h-151l10 54h422l-10 -54h-142q-15 -57 -26.5 -117t-26.5 -152t-20 -120 l-86 -499q-19 -109 -43 -185.5t-65.5 -143.5t-100.5 -107t-145.5 -62.5t-202.5 -22.5q-205 0 -321.5 82.5t-115.5 270.5zM674 1702q0 91 67 154t162 63q93 0 159 -63t66 -154t-66 -154t-159 -63q-95 0 -162 63t-67 154zM776 1702q0 -56 36 -93.5t91 -37.5q54 0 89.5 37.5 t35.5 93.5q0 55 -36 93t-89 38q-55 0 -91 -38t-36 -93z" />
<glyph unicode="&#x16f;" horiz-adv-x="1175" d="M113 950l10 54h334l-135 -670q-19 -93 -19 -146q0 -139 117 -139q69 0 132.5 46.5t111.5 113.5q65 93 94 242l108 553h187l-160 -811q-8 -33 -8 -76q0 -70 90 -70q11 0 23 1t26 2.5t23 2.5l-11 -53q-94 -16 -176 -16q-142 0 -153 122q-3 41 8 101q-135 -234 -369 -234 q-110 0 -167.5 57t-57.5 167q0 58 14 133l123 620h-145zM479 1323q0 91 67.5 154t162.5 63q93 0 159 -63t66 -154t-66 -154t-159 -63q-95 0 -162.5 63t-67.5 154zM582 1323q0 -55 36 -93t91 -38q52 0 88.5 38.5t36.5 92.5q0 55 -36 93t-89 38q-55 0 -91 -37.5t-36 -93.5z " />
<glyph unicode="&#x170;" horiz-adv-x="1347" d="M145 324q0 61 15 153l172 903h-158l8 54h537l-10 -54h-172l-177 -925q-18 -95 -18 -162q-3 -256 283 -256q95 0 167.5 23t119.5 61t81 100.5t52 126t34 152.5l37 217q55 313 55 573q0 59 -2 90h-151l10 54h422l-10 -54h-142q-15 -57 -26.5 -117t-26.5 -152t-20 -120 l-86 -499q-19 -109 -43 -185.5t-65.5 -143.5t-100.5 -107t-145.5 -62.5t-202.5 -22.5q-205 0 -321.5 82.5t-115.5 270.5zM586 1577q14 15 86 92q11 11 32.5 34t34 35.5t32.5 33t32.5 32.5t29.5 28t29.5 25t25.5 18t23.5 13t18.5 4q26 0 40.5 -15.5t14.5 -43.5q0 -37 -53 -76 q-185 -134 -303 -211zM903 1577q14 17 43.5 46.5t38.5 39.5q11 11 33.5 35t34.5 36.5t33 34t34 33.5t31 28.5t30.5 25.5t26 18.5t24 13.5t19.5 4q25 0 38.5 -15.5t13.5 -43.5q0 -18 -15 -39.5t-37 -36.5q-85 -61 -305 -211z" />
<glyph unicode="&#x171;" horiz-adv-x="1175" d="M113 950l10 54h334l-135 -670q-19 -93 -19 -146q0 -139 117 -139q69 0 132.5 46.5t111.5 113.5q65 93 94 242l108 553h187l-160 -811q-8 -33 -8 -76q0 -70 90 -70q11 0 23 1t26 2.5t23 2.5l-11 -53q-94 -16 -176 -16q-142 0 -153 122q-3 41 8 101q-135 -234 -369 -234 q-110 0 -167.5 57t-57.5 167q0 58 14 133l123 620h-145zM406 1163q23 27 64.5 81t73.5 95t69 83t67.5 65.5t50.5 23.5q28 0 44 -15.5t16 -41.5q0 -34 -52 -76q-56 -50 -295 -245zM719 1163q22 27 64 81.5t74.5 94.5t70 83t68 66t51.5 23q26 0 41.5 -15.5t15.5 -41.5 q0 -27 -49 -76q-96 -81 -297 -245z" />
<glyph unicode="&#x172;" horiz-adv-x="1347" d="M145 324q0 61 15 153l172 903h-158l8 54h537l-10 -54h-172l-177 -925q-18 -95 -18 -162q0 -132 71 -194t212 -62q95 0 167.5 23t119.5 61t81 100.5t52 126t34 152.5l37 217q55 313 55 573q0 59 -2 90h-151l10 54h422l-10 -54h-142q-15 -57 -26.5 -117t-26.5 -152 t-20 -120l-86 -499q-38 -214 -109.5 -331t-218.5 -159q-186 -150 -186 -274q0 -44 29 -67t81 -23q33 0 107 16l12 -51q-87 -43 -182 -43q-79 0 -128.5 38.5t-49.5 108.5q0 153 196 270q-50 -6 -108 -6q-437 0 -437 353z" />
<glyph unicode="&#x173;" horiz-adv-x="1175" d="M113 950l10 54h334l-135 -670q-19 -93 -19 -146q0 -143 121 -143q137 0 238 143q57 85 92 244l112 572h187l-160 -811q-8 -33 -8 -76q0 -70 90 -70q3 0 72 6l-11 -53q-94 -16 -176 -16q-19 0 -29 2q-73 -62 -119 -125t-46 -133q0 -44 28 -67t80 -23q37 0 107 16l12 -51 q-87 -43 -182 -43q-79 0 -129 38.5t-50 108.5q0 50 20.5 95t57.5 81.5t75 63t87 53.5q-64 28 -67 111q0 37 6 75q-124 -213 -361 -213q-229 0 -229 224q0 58 14 133l123 620h-145z" />
<glyph unicode="&#x174;" horiz-adv-x="1789" d="M94 1380l10 54h504l-8 -54h-174l166 -1149l297 588l-80 561h-119l10 54h508l-10 -54h-178l164 -1149l385 758q105 202 145 391h-145l10 54h395l-10 -54h-111q-50 -71 -149 -262l-574 -1130h-120l-105 727l-368 -727h-121l-203 1392h-119zM776 1577l299 307h113l178 -311 l-51 -29l-199 215l-291 -217z" />
<glyph unicode="&#x175;" horiz-adv-x="1474" d="M31 950l10 54h295l121 -869q133 127 245 340l-69 475h-115l10 54h293l123 -869q158 155 261 368.5t143 446.5h-144l10 54h261q-60 -304 -205.5 -549t-386.5 -463h-113l-53 366q-128 -190 -322 -366h-112l-136 958h-116zM549 1163l278 338h121l162 -338l-53 -33l-183 248 l-280 -248z" />
<glyph unicode="&#x176;" horiz-adv-x="1150" d="M119 1380l8 54h559l-10 -54h-197q107 -364 201 -616q224 326 268 395q70 106 107 221h-137l10 54h381l-9 -54h-114q-43 -51 -191 -258q-133 -190 -297 -436l-114 -633h178l-10 -53h-557l10 53h174l110 617l-237 710h-133zM475 1577l299 307h113l178 -311l-51 -29 l-199 215l-291 -217z" />
<glyph unicode="&#x177;" horiz-adv-x="987" d="M-188 -217q0 45 8 84h100q-6 -47 -6 -92q0 -137 115 -137q50 0 111 38.5t115 96.5t96.5 114.5t70.5 104.5h-45l-230 958h-116l10 54h289l205 -848q218 365 315 794h-137l8 54h266q-145 -498 -452 -961q-29 -44 -51 -75.5t-61 -83.5t-72 -89.5t-77 -80.5t-84 -70 t-86 -45.5t-88 -18.5q-98 0 -151 51t-53 152zM305 1163l279 338h121l161 -338l-53 -33l-182 248l-281 -248z" />
<glyph unicode="&#x178;" horiz-adv-x="1150" d="M119 1380l8 54h559l-10 -54h-197q107 -364 201 -616q224 326 268 395q70 106 107 221h-137l10 54h381l-9 -54h-114q-43 -51 -191 -258q-133 -190 -297 -436l-114 -633h178l-10 -53h-557l10 53h174l110 617l-237 710h-133zM528 1679q0 44 31 77.5t74 33.5q36 0 60 -25.5 t24 -62.5q0 -44 -31 -77.5t-74 -33.5q-36 0 -60 25.5t-24 62.5zM877 1679q0 44 30 77.5t74 33.5q38 0 61 -25t23 -63q0 -44 -30 -77.5t-74 -33.5q-38 0 -61 25t-23 63z" />
<glyph unicode="&#x179;" horiz-adv-x="1220" d="M-33 0l8 53l1026 1327h-399q-96 0 -144 -29t-91 -118q-60 -121 -101 -244h-61l84 445h960l-10 -54l-1026 -1327h463q98 0 156 34t102 130q72 148 115 285h65l-100 -502h-1047zM653 1579l101 88q60 52 93 80.5t83 68t82 58t49 18.5q24 0 42.5 -16.5t18.5 -40.5 q0 -48 -59 -82q-121 -73 -365 -209z" />
<glyph unicode="&#x17a;" horiz-adv-x="944" d="M-41 45l776 819q-46 0 -147.5 2t-147.5 2q-33 0 -53.5 -0.5t-52 -5t-52 -12.5t-40.5 -24t-29 -38q-30 -68 -43 -112h-59l69 328h711l27 -48l-744 -778q68 10 137 10q35 0 74 -3t86.5 -8t73.5 -7q11 -1 35 -4.5t44 -5.5t38 -2q66 0 113 176q2 7 3 10h60l-80 -371 q-411 78 -586 78q-114 0 -182 -51zM469 1163q27 27 78 80t91.5 94t85 84t79 66.5t53.5 23.5q28 0 46 -17.5t18 -41.5q0 -37 -56 -80q-117 -84 -356 -239z" />
<glyph unicode="&#x17b;" horiz-adv-x="1220" d="M-33 0l8 53l1026 1327h-399q-96 0 -144 -29t-91 -118q-60 -121 -101 -244h-61l84 445h960l-10 -54l-1026 -1327h463q98 0 156 34t102 130q72 148 115 285h65l-100 -502h-1047zM688 1679q0 43 35 77t80 34q40 0 65 -25t25 -63q0 -45 -34 -79t-81 -34q-38 0 -64 26t-26 64z " />
<glyph unicode="&#x17c;" horiz-adv-x="944" d="M-41 45l776 819q-46 0 -147.5 2t-147.5 2q-33 0 -53.5 -0.5t-52 -5t-52 -12.5t-40.5 -24t-29 -38q-30 -68 -43 -112h-59l69 328h711l27 -48l-744 -778q68 10 137 10q35 0 74 -3t86.5 -8t73.5 -7q11 -1 35 -4.5t44 -5.5t38 -2q66 0 113 176q2 7 3 10h60l-80 -371 q-411 78 -586 78q-114 0 -182 -51zM487 1284q0 46 34 80.5t81 34.5q39 0 63.5 -25.5t24.5 -64.5q0 -45 -33 -80t-79 -35q-38 0 -64.5 26t-26.5 64z" />
<glyph unicode="&#x17d;" horiz-adv-x="1220" d="M-33 0l8 53l1026 1327h-399q-96 0 -144 -29t-91 -118q-60 -121 -101 -244h-61l84 445h960l-10 -54l-1026 -1327h463q98 0 156 34t102 130q72 148 115 285h65l-100 -502h-1047zM532 1868l52 28l196 -215l293 215l45 -34l-295 -308h-112z" />
<glyph unicode="&#x17e;" horiz-adv-x="944" d="M-41 45l776 819q-46 0 -147.5 2t-147.5 2q-33 0 -53.5 -0.5t-52 -5t-52 -12.5t-40.5 -24t-29 -38q-30 -68 -43 -112h-59l69 328h711l27 -48l-744 -778q68 10 137 10q35 0 74 -3t86.5 -8t73.5 -7q11 -1 35 -4.5t44 -5.5t38 -2q66 0 113 176q2 7 3 10h60l-80 -371 q-411 78 -586 78q-114 0 -182 -51zM344 1485l51 33l183 -248l282 248l43 -33l-276 -340h-123z" />
<glyph unicode="&#x192;" horiz-adv-x="1126" d="M-92 -244q0 54 16 113h86q-18 -55 -18 -117q0 -123 108 -123q36 0 68 18t54 48t37.5 60.5t25.5 64.5q22 73 50.5 224.5t49.5 225.5l121 432h-238l21 68h235l107 381q37 131 136.5 220t233.5 89q177 0 177 -153q0 -58 -25 -138h-111q27 95 27 150q0 94 -88 94 q-73 0 -127 -72q-32 -47 -49 -120t-27 -158.5t-20 -122.5l-49 -170h282l-20 -68h-279l-233 -806q-38 -136 -133 -226t-230 -90q-188 0 -188 176z" />
<glyph unicode="&#x1fc;" horiz-adv-x="1824" d="M-184 0l10 53h108q69 88 166 228q58 83 358.5 527.5t385.5 571.5h-154l8 54h1078q0 -127 -58 -449h-59q-1 72 -2 113.5t-4.5 88.5t-9 70.5t-16 49.5t-23.5 36.5t-34 21t-46.5 13t-61.5 2.5h-340l-112 -612h137q56 0 91 12t63.5 57t41 76.5t43.5 125.5q5 13 7 20h61 l-117 -637h-59q4 126 0 164q-6 76 -33 101.5t-98 25.5h-146l-116 -660h356q53 0 107 8q38 6 71 29.5t57.5 56.5t48.5 84t42.5 99.5t42.5 114.5l18 51h62l-101 -496h-1077l10 53h158l84 475h-414q-45 -62 -53 -75q-175 -280 -219 -400h158l-11 -53h-409zM383 588h393 q24 132 71.5 396t70.5 396h-5q-356 -528 -530 -792zM1067 1579l100 88q58 51 93 80.5t84 68t81.5 57.5t49.5 19q24 0 42.5 -16.5t18.5 -40.5q0 -48 -59 -82q-121 -73 -365 -209z" />
<glyph unicode="&#x1fd;" horiz-adv-x="1570" d="M8 211q0 44 8.5 82t21.5 67.5t37 55.5t46 44t57 35t62 27.5t70 22.5t71 18.5t74 16.5q48 10 71 16q29 6 85 17.5t85 17.5l23 110q10 45 10 103q0 137 -154 137q-147 0 -213 -129q-25 -48 -49 -176h-129q25 123 48 171q18 37 42 62q127 121 314 121q248 0 291 -137 q144 137 333 137q127 0 209 -59t82 -178q0 -62 -24.5 -111.5t-63 -82t-95.5 -56t-112 -35.5t-122.5 -19.5t-118.5 -9.5t-107 -4h-10q-16 -98 -16 -151q0 -47 5 -86t19 -78t37.5 -65.5t62.5 -43t91 -16.5q136 0 231.5 74.5t165.5 205.5l59 -28q-177 -314 -497 -314 q-147 0 -233 78t-109 209q-60 -142 -151.5 -214.5t-235.5 -72.5q-115 0 -193 64t-78 174zM188 201q0 -64 38 -111t104 -47q69 0 127 36.5t96 97t62 122.5t38 129l29 143q-94 -20 -139 -36q-39 -11 -60.5 -18t-57 -19t-56 -22t-49 -26.5t-45 -32.5t-35.5 -39t-29 -48.5 t-16.5 -58.5t-6.5 -70zM780 1163q27 27 78 80t91.5 94t85 84t79 66.5t53.5 23.5q28 0 46 -17.5t18 -41.5q0 -38 -55 -80q-108 -77 -357 -239zM862 530q54 3 92 6.5t94 12.5t95.5 21.5t83 34.5t70.5 51t45 71.5t18 95.5q0 70 -39.5 113t-110.5 43q-246 0 -348 -449z" />
<glyph unicode="&#x1fe;" horiz-adv-x="1378" d="M80 551q0 128 29.5 256t91.5 245.5t148 208.5t207.5 145t262.5 54q160 0 283 -76l162 248l63 -35l-168 -256q84 -78 127 -197t43 -261q0 -128 -30 -256t-92 -246.5t-148.5 -209.5t-208 -145.5t-260.5 -54.5q-162 0 -285 76l-162 -246l-61 35l166 256q-168 152 -168 459z M287 485q-7 -170 43 -278l712 1096q-72 104 -215 104q-85 0 -158 -33.5t-126 -89.5t-96.5 -132.5t-71.5 -159.5t-47.5 -175t-29 -173t-11.5 -159zM362 133q76 -108 218 -108q88 0 164 37t130.5 97.5t98.5 143.5t72 171t47 183.5t27 176.5t9 155q0 151 -47 240zM733 1579 l101 88q60 52 93 80.5t83 68t82 58t49 18.5q24 0 42.5 -16.5t18.5 -40.5q0 -48 -59 -82q-121 -73 -365 -209z" />
<glyph unicode="&#x1ff;" horiz-adv-x="1038" d="M27 -141l133 198q-62 51 -95.5 131.5t-33.5 178.5q0 93 23.5 187.5t71.5 179.5t113 151.5t155 105.5t192 39q108 0 194 -47l129 193l58 -29l-133 -201q127 -121 127 -323q0 -93 -23.5 -186t-70.5 -176.5t-111.5 -147.5t-154 -102t-191.5 -38q-118 0 -195 47l-129 -190z M225 328q0 -82 21 -144l477 717q-55 76 -127 76q-74 0 -137 -46t-104 -117t-70.5 -160t-43 -171t-16.5 -155zM272 106q53 -79 134 -79q75 0 138.5 46t103.5 116.5t68.5 159.5t41.5 169.5t16 153.5q3 78 -20 155zM514 1163q27 27 78 80t91.5 94t85 84t79 66.5t53.5 23.5 q28 0 46 -17.5t18 -41.5q0 -37 -56 -80q-117 -84 -356 -239z" />
<glyph unicode="&#x218;" horiz-adv-x="1165" d="M35 78l63 416h64q1 -15 1.5 -65.5t2.5 -78.5q2 -62 9.5 -107.5t25.5 -88.5t48 -70t78.5 -43t114.5 -16q159 0 277.5 104t118.5 256q0 55 -22 97.5t-74.5 78t-89 54t-113.5 51.5q-6 3 -9 4q-45 19 -73 32.5t-68 35t-65 41t-53 47.5t-44 57t-26.5 67.5t-10.5 81.5 q0 82 30 152t81.5 120t119.5 86t145.5 53t158.5 17q197 0 354 -65q0 -200 -41 -402h-67q6 80 0 164q-5 131 -60.5 190.5t-187.5 59.5q-89 0 -169 -37.5t-131.5 -108.5t-51.5 -159q0 -44 16.5 -80t45.5 -63t67.5 -50t82.5 -42t90 -38q24 -9 36 -14q73 -29 124 -57.5t101 -71 t76 -100.5t26 -131q0 -112 -50.5 -205.5t-134 -153t-190 -92.5t-221.5 -33q-109 0 -224 26t-181 81zM307 -487q113 95 131 202h-18q-36 0 -57 23.5t-21 58.5q0 45 27.5 73t68.5 28q48 0 73.5 -34.5t25.5 -82.5q0 -89 -56.5 -166.5t-148.5 -136.5z" />
<glyph unicode="&#x219;" horiz-adv-x="901" d="M23 244q0 58 12 110h104q-4 -39 -4 -106q0 -108 47.5 -164.5t155.5 -56.5q109 0 194.5 66t85.5 171q0 32 -14 58.5t-32.5 44t-54.5 35.5t-61 27.5t-71 25.5q-59 19 -98.5 37t-82.5 47t-65 71.5t-22 96.5q0 101 60 176.5t150.5 111t196.5 35.5q61 0 110.5 -10.5t91.5 -35 t65.5 -69t23.5 -106.5q0 -41 -14 -123h-107q1 15 4 35.5t5 38t2 35.5q0 182 -187 182q-95 0 -170.5 -53.5t-75.5 -143.5q0 -30 14 -54.5t33.5 -41t55.5 -33t64 -26t75 -24.5q7 -2 10 -3q57 -19 97.5 -38t81 -50t62 -75t21.5 -101q0 -113 -67 -197t-167.5 -124t-215.5 -40 q-152 0 -232.5 64t-80.5 207zM176 -487q113 95 131 202h-18q-36 0 -57 23.5t-21 58.5q0 45 27.5 73t68.5 28q48 0 73.5 -34.5t25.5 -82.5q0 -89 -56.5 -166.5t-148.5 -136.5z" />
<glyph unicode="&#x21a;" horiz-adv-x="1183" d="M113 975l96 459h1030q0 -229 -47 -459h-55q2 29 2 86q0 157 -36 238t-120 81h-156l-239 -1327h184l-8 -53h-576l11 53h186l240 1327h-158q-94 0 -158 -93t-139 -312h-57zM317 -487q114 96 132 202h-19q-36 0 -57 23.5t-21 58.5q0 45 28 73t69 28q48 0 73 -34.5t25 -82.5 q0 -89 -56.5 -166.5t-148.5 -136.5z" />
<glyph unicode="&#x21b;" horiz-adv-x="696" d="M72 -487q113 95 131 202h-19q-36 0 -57 23.5t-21 58.5q0 45 28 73t69 28q48 0 73 -34.5t25 -82.5q0 -89 -56.5 -166.5t-148.5 -136.5zM92 936l14 68h168l93 290h145l-57 -290h250l-13 -68h-252l-137 -688q-12 -74 -12 -109q0 -43 19.5 -69.5t60.5 -26.5t79.5 16t73 46.5 t58.5 57t53 64.5l43 -34q-80 -104 -165 -162t-198 -58q-94 0 -151.5 41t-57.5 129q0 52 15 129l133 664h-162z" />
<glyph unicode="&#x237;" horiz-adv-x="585" d="M-133 -373q58 29 102 75t72 107t45 120.5t31 136.5l159 884h-145l10 54h332l-166 -908q-35 -206 -132 -319.5t-286 -196.5z" />
<glyph unicode="&#x2c6;" horiz-adv-x="1024" d="M324 1163l278 338h121l162 -338l-54 -33l-182 248l-280 -248z" />
<glyph unicode="&#x2c7;" horiz-adv-x="1024" d="M383 1485l51 33l182 -248l283 248l43 -33l-276 -340h-123z" />
<glyph unicode="&#x2c9;" horiz-adv-x="1024" d="M332 1253l20 119h578l-23 -119h-575z" />
<glyph unicode="&#x2d8;" horiz-adv-x="1024" d="M371 1464l57 11q3 -94 54 -138.5t151 -44.5q198 0 254 183l61 -11q-79 -295 -334 -295q-133 0 -188 78t-55 217z" />
<glyph unicode="&#x2d9;" horiz-adv-x="1024" d="M526 1284q0 46 34 80.5t81 34.5q39 0 63.5 -25.5t24.5 -64.5q0 -45 -33.5 -80t-79.5 -35q-38 0 -64 26t-26 64z" />
<glyph unicode="&#x2da;" horiz-adv-x="1024" d="M406 1323q0 91 67 154t162 63q93 0 159 -63t66 -154t-66 -154t-159 -63q-95 0 -162 63t-67 154zM508 1323q0 -55 36 -93t91 -38q52 0 88.5 38.5t36.5 92.5q0 55 -36 93t-89 38q-55 0 -91 -37.5t-36 -93.5z" />
<glyph unicode="&#x2db;" horiz-adv-x="1024" d="M195 -293q0 50 20 95.5t56.5 81.5t74.5 62.5t88 53.5h80q-82 -64 -135 -131t-53 -141q0 -44 29 -67t81 -23q33 0 107 16l12 -51q-87 -43 -182 -43q-79 0 -128.5 38.5t-49.5 108.5z" />
<glyph unicode="&#x2dc;" horiz-adv-x="1024" d="M309 1214q31 86 89 144.5t137 58.5q47 0 121 -46t120 -46q42 0 75.5 28t49.5 70l53 -14q-36 -87 -91.5 -144t-133.5 -57q-50 0 -127 44t-115 44q-84 0 -129 -96z" />
<glyph unicode="&#x2dd;" horiz-adv-x="1024" d="M332 1163q23 27 64.5 81t73.5 95t69 83t67.5 65.5t50.5 23.5q28 0 44 -15.5t16 -41.5q0 -35 -51 -76q-56 -50 -295 -245zM645 1163q22 27 64 81.5t74.5 94.5t70 83t68 66t51.5 23q26 0 41.5 -15.5t15.5 -41.5q0 -27 -49 -76q-96 -81 -297 -245z" />
<glyph unicode="&#x384;" horiz-adv-x="1024" d="M569 1133l11 284q2 39 20.5 66.5t54.5 27.5q29 0 45.5 -18.5t16.5 -46.5q0 -34 -12 -64l-82 -249h-54z" />
<glyph unicode="&#x385;" horiz-adv-x="1024" d="M342 1286q0 41 29 73t69 32q35 0 57.5 -24t22.5 -60q0 -41 -29 -73t-71 -32q-34 0 -56 24t-22 60zM569 1133l11 284q2 40 20.5 67t54.5 27q29 0 45.5 -17.5t16.5 -45.5q0 -34 -12 -64l-82 -251h-54zM737 1286q0 41 29 73t72 32q33 0 54 -24t21 -60q0 -41 -28.5 -73 t-69.5 -32q-36 0 -57 24t-21 60z" />
<glyph unicode="&#x386;" horiz-adv-x="1269" d="M-156 0l11 53h108q49 66 154 264l602 1129h129l237 -1393h121l-10 -53h-518l8 53h184l-79 475h-486l-63 -116q-36 -67 -78.5 -177.5t-59.5 -181.5h160l-12 -53h-408zM315 1133l11 284q2 39 20.5 66.5t54.5 27.5q29 0 45.5 -18.5t16.5 -46.5q0 -34 -12 -64l-82 -249h-54z M334 588h448l-108 629h-8q-20 -39 -144.5 -273.5t-187.5 -355.5z" />
<glyph unicode="&#x388;" horiz-adv-x="1398" d="M84 0l10 53h158l240 1327h-158l10 54h995q0 -211 -47 -449h-59q-1 43 -4.5 108.5t-3.5 69.5q-2 61 -10.5 98t-30.5 66t-61.5 41t-102.5 12h-326l-108 -612h145q69 0 110.5 32.5t71.5 96.5q25 59 54 162h59l-113 -637h-61q4 43 4 125q2 88 -26.5 128t-108.5 40h-146 l-118 -662h377q101 0 156 37t97 129q51 100 113 277h62l-101 -496h-1077zM121 1133l10 284q2 39 21 66.5t55 27.5q29 0 45 -18t16 -47q0 -34 -12 -64l-82 -249h-53z" />
<glyph unicode="&#x389;" horiz-adv-x="1613" d="M84 0l10 53h158l240 1327h-158l10 54h516l-10 -54h-156l-108 -606h614l111 606h-156l10 54h518l-12 -54h-158l-237 -1327h156l-9 -53h-518l10 53h156l119 656h-617l-116 -656h155l-10 -53h-518zM121 1133l10 284q2 39 21 66.5t55 27.5q29 0 45 -18t16 -47q0 -34 -12 -64 l-82 -249h-53z" />
<glyph unicode="&#x38a;" horiz-adv-x="811" d="M92 0l8 53h160l240 1327h-158l10 54h520l-10 -54h-160l-237 -1327h158l-11 -53h-520zM129 1133l10 284q2 39 21 66.5t55 27.5q29 0 45 -18t16 -47q0 -34 -12 -64l-82 -249h-53z" />
<glyph unicode="&#x38c;" horiz-adv-x="1398" d="M100 551q0 106 21.5 213.5t62 209t104.5 189.5t144 154.5t185 104.5t223 38q127 0 226.5 -45.5t160.5 -125.5t92 -182.5t31 -223.5q0 -128 -30 -256t-92.5 -246.5t-148.5 -209.5t-208 -145.5t-261 -54.5q-129 0 -228.5 46t-160 126.5t-91 183.5t-30.5 224zM127 1133 l10 284q2 39 21 66.5t55 27.5q29 0 45 -18t16 -47q0 -34 -12 -64l-82 -249h-53zM299 408q0 -383 301 -383q90 0 167 38.5t132 103t99.5 151t72.5 178.5t46.5 191t26 182.5t7.5 158.5q0 379 -303 379q-88 0 -164.5 -38.5t-131.5 -103t-99.5 -150.5t-72.5 -178t-47 -190 t-26.5 -182t-7.5 -157z" />
<glyph unicode="&#x38e;" horiz-adv-x="1335" d="M102 1133l11 284q2 39 20.5 66.5t54.5 27.5q29 0 45.5 -18.5t16.5 -46.5q0 -34 -12 -64l-82 -249h-54zM303 1380l8 54h559l-10 -54h-196q111 -377 200 -616q239 349 269 395q68 103 106 221h-137l10 54h381l-8 -54h-115q-36 -43 -190 -258q-133 -190 -297 -436l-115 -633 h178l-10 -53h-557l10 53h174l111 617l-238 710h-133z" />
<glyph unicode="&#x38f;" horiz-adv-x="1515" d="M45 0l8 401l56 11q3 -128 24 -230h383l21 115q-173 48 -261 174.5t-88 300.5q0 143 54.5 270t148.5 219t228 145.5t286 53.5q126 0 228 -39.5t167 -108t99.5 -158.5t34.5 -193q0 -242 -153 -423.5t-402 -240.5l-21 -115h381q62 102 107 230l53 -11l-133 -401h-498l59 338 q88 21 155 69t109 117.5t67.5 142t41.5 162.5q21 129 21 222q0 76 -16 136.5t-52 112t-101.5 79.5t-156.5 28q-389 0 -475 -502q-23 -122 -23 -223q0 -289 203 -344l-59 -338h-496zM127 1133l10 284q2 39 21 66.5t55 27.5q29 0 45 -18t16 -47q0 -34 -12 -64l-82 -249h-53z " />
<glyph unicode="&#x390;" horiz-adv-x="585" d="M109 125q0 43 16 125l141 700h-147l10 54h334l-162 -811q-8 -33 -8 -76q0 -70 90 -70q11 0 23.5 1t27.5 2.5t23 2.5l-13 -53q-91 -16 -176 -16q-74 0 -116.5 34.5t-42.5 106.5zM123 1286q0 41 29 73t69 32q35 0 57.5 -24t22.5 -60q0 -41 -29 -73t-71 -32q-34 0 -56 24 t-22 60zM350 1133l10 284q2 40 21 67t55 27q29 0 45.5 -17.5t16.5 -45.5q0 -31 -13 -64l-82 -251h-53zM518 1286q0 41 28.5 73t71.5 32q33 0 54.5 -24t21.5 -60q0 -41 -28.5 -73t-69.5 -32q-36 0 -57 24t-21 60z" />
<glyph unicode="&#x391;" horiz-adv-x="1269" d="M-156 0l11 53h108q49 66 154 264l602 1129h129l237 -1393h121l-10 -53h-518l8 53h184l-79 475h-486l-63 -116q-36 -67 -78.5 -177.5t-59.5 -181.5h160l-12 -53h-408zM334 588h448l-108 629h-8q-20 -39 -144.5 -273.5t-187.5 -355.5z" />
<glyph unicode="&#x392;" horiz-adv-x="1320" d="M-39 0l10 53h158l240 1327h-158l10 54h563q453 0 453 -299q0 -165 -113 -265t-288 -122q67 -8 124 -28.5t105.5 -56.5t76 -93.5t27.5 -131.5q0 -99 -34.5 -176t-91 -125.5t-136.5 -80t-164 -44t-180 -12.5h-602zM334 53h194q205 0 316.5 108t111.5 310q0 59 -19 103 t-50 70t-77.5 42.5t-93 22t-106.5 6.5h-157zM463 768h141q195 0 312.5 107.5t117.5 300.5q0 62 -22.5 104t-64.5 63t-89 29t-110 8h-177z" />
<glyph unicode="&#x393;" horiz-adv-x="1142" d="M-39 0l10 53h158l240 1327h-158l10 54h979q0 -211 -47 -449h-59q0 56 -9 117q-2 71 -4.5 102.5t-13.5 74t-32 59t-58.5 29.5t-95.5 13h-310l-237 -1327h190l-8 -53h-555z" />
<glyph unicode="&#x394;" horiz-adv-x="1196" d="M-154 0l13 53h108q54 77 150 262l573 1131h121l203 -1393h119l-11 -53h-1276zM104 59h695l-164 1143l-383 -758q-114 -227 -148 -385z" />
<glyph unicode="&#x395;" horiz-adv-x="1275" d="M-39 0l10 53h158l240 1327h-158l10 54h996q0 -206 -48 -449h-59q-1 43 -4.5 108.5t-3.5 69.5q-2 61 -10.5 98t-30.5 66t-61.5 41t-102.5 12h-326l-108 -612h145q69 0 111 32.5t72 96.5q22 52 53 162h59l-112 -637h-62q4 43 4 125q2 88 -26.5 128t-108.5 40h-145 l-119 -662h377q101 0 156.5 37t97.5 129q48 94 112 277h62l-101 -496h-1077z" />
<glyph unicode="&#x396;" horiz-adv-x="1220" d="M-33 0l8 53l1026 1327h-399q-96 0 -144 -29t-91 -118q-60 -121 -101 -244h-61l84 445h960l-10 -54l-1026 -1327h463q98 0 156 34t102 130q72 148 115 285h65l-100 -502h-1047z" />
<glyph unicode="&#x397;" horiz-adv-x="1490" d="M-39 0l10 53h158l240 1327h-158l10 54h516l-10 -54h-156l-108 -606h614l111 606h-156l10 54h519l-13 -54h-157l-238 -1327h156l-9 -53h-518l11 53h155l119 656h-616l-117 -656h155l-10 -53h-518z" />
<glyph unicode="&#x398;" horiz-adv-x="1378" d="M80 551q0 128 29.5 256t91.5 245.5t148 208.5t207.5 145t262.5 54q127 0 226.5 -45.5t160.5 -125.5t92 -182.5t31 -223.5q0 -128 -30 -256t-92 -246.5t-148.5 -209.5t-208 -145.5t-260.5 -54.5q-129 0 -228.5 46t-160 126.5t-91 183.5t-30.5 224zM279 408 q0 -383 301 -383q90 0 167 38.5t132 103t99.5 151t72 178.5t46 191t26 182.5t7.5 158.5q0 379 -303 379q-88 0 -164.5 -38.5t-131.5 -103t-99 -150.5t-72 -178t-47 -190t-26.5 -182t-7.5 -157zM442 655l29 168h506l-29 -168h-506z" />
<glyph unicode="&#x399;" horiz-adv-x="688" d="M-31 0l8 53h160l240 1327h-158l10 54h521l-11 -54h-159l-238 -1327h158l-11 -53h-520z" />
<glyph unicode="&#x39a;" horiz-adv-x="1318" d="M-39 0l10 53h158l240 1327h-158l10 54h516l-10 -54h-156l-108 -612l119 16l340 351q109 112 180 245h-150l11 54h428l-9 -54h-133q-51 -43 -217 -209q-131 -131 -295 -299l406 -819h117l-9 -53h-522l10 53h156l-328 676l-114 -14l-119 -662h155l-10 -53h-518z" />
<glyph unicode="&#x39b;" horiz-adv-x="1196" d="M-154 0l13 53h108q54 77 150 262l573 1131h121l203 -1393h119l-11 -53h-508l9 53h178l-166 1149l-383 -758q-108 -215 -146 -391h146l-10 -53h-396z" />
<glyph unicode="&#x39c;" horiz-adv-x="1800" d="M-63 0l10 53h137q50 150 102 412l183 915h-158l10 54h397l201 -1176l629 1176h399l-8 -54h-160l-217 -1327h158l-8 -53h-557l8 53h197l210 1284l-718 -1347h-101l-227 1349h-2l-125 -626q-84 -432 -84 -660h158l-11 -53h-423z" />
<glyph unicode="&#x39d;" horiz-adv-x="1433" d="M-61 0l8 53h147q45 175 90 408l185 919h-158l10 54h408l477 -1141l76 461q49 295 49 626h-158l8 54h430l-10 -54h-147q-32 -148 -72 -389l-164 -999h-117l-573 1374l-127 -633q-34 -170 -56 -361t-24 -319h162l-8 -53h-436z" />
<glyph unicode="&#x39e;" horiz-adv-x="1273" d="M-27 0l76 496h57q-7 -128 0 -199q5 -83 21 -106t74 -23h690q44 0 65 25t54 104q16 36 71 199h58l-99 -496h-1067zM195 985q22 165 92 449h944q-22 -236 -66 -449h-55q3 102 -2 170t-16.5 89.5t-53.5 21.5h-620q-41 0 -61 -22.5t-44 -88.5q-32 -66 -63 -170h-55zM383 655 l31 168h477l-29 -168h-479z" />
<glyph unicode="&#x39f;" horiz-adv-x="1378" d="M80 551q0 128 29.5 256t91.5 245.5t148 208.5t207.5 145t262.5 54q127 0 226.5 -45.5t160.5 -125.5t92 -182.5t31 -223.5q0 -128 -30 -256t-92 -246.5t-148.5 -209.5t-208 -145.5t-260.5 -54.5q-129 0 -228.5 46t-160 126.5t-91 183.5t-30.5 224zM279 408 q0 -383 301 -383q90 0 167 38.5t132 103t99.5 151t72 178.5t46 191t26 182.5t7.5 158.5q0 379 -303 379q-88 0 -164.5 -38.5t-131.5 -103t-99 -150.5t-72 -178t-47 -190t-26.5 -182t-7.5 -157z" />
<glyph unicode="&#x3a0;" horiz-adv-x="1490" d="M-39 0l10 53h158l240 1327h-158l10 54h1340l-13 -54h-157l-238 -1327h156l-9 -53h-518l11 53h155l240 1321h-617l-237 -1321h155l-10 -53h-518z" />
<glyph unicode="&#x3a1;" horiz-adv-x="1257" d="M-39 0l10 53h158l240 1327h-158l10 54h563q74 0 134 -6t127 -25t112 -51.5t75 -90t30 -135.5q0 -104 -35.5 -185t-94.5 -132t-141.5 -84t-169.5 -46t-186 -13h-191l-110 -613h196l-10 -53h-559zM453 719h149q215 0 333 116t118 330q0 64 -23 107.5t-66.5 66.5t-93 32 t-114.5 9h-185z" />
<glyph unicode="&#x3a3;" horiz-adv-x="1234" d="M-25 0l9 53l538 695l-268 632l10 54h959l-74 -445h-59q0 118 -17 244q-9 85 -47.5 116t-132.5 31h-406l269 -632l-539 -695h465q99 0 157 33.5t103 130.5q67 137 113 285h67l-96 -502h-1051z" />
<glyph unicode="&#x3a4;" horiz-adv-x="1183" d="M113 975l96 459h1030q0 -229 -47 -459h-55q2 29 2 86q0 157 -36 238t-120 81h-156l-239 -1327h184l-8 -53h-576l11 53h186l240 1327h-158q-94 0 -158 -93t-139 -312h-57z" />
<glyph unicode="&#x3a5;" horiz-adv-x="1150" d="M119 1380l8 54h559l-10 -54h-197q107 -364 201 -616q224 326 268 395q70 106 107 221h-137l10 54h381l-9 -54h-114q-43 -51 -191 -258q-133 -190 -297 -436l-114 -633h178l-10 -53h-557l10 53h174l110 617l-237 710h-133z" />
<glyph unicode="&#x3a6;" horiz-adv-x="1634" d="M80 631q0 43 10 98q23 132 90.5 231t173.5 160q163 94 400 94h61l31 166h-158l10 54h521l-11 -54h-157l-29 -166h88q230 0 346 -86q129 -99 129 -280q0 -38 -10 -100q-42 -235 -216 -359.5t-441 -124.5h-68l-37 -211h158l-10 -53h-521l9 53h157l39 211h-94 q-95 0 -175.5 19t-149 59.5t-107.5 114t-39 174.5zM293 590q0 -132 68.5 -202.5t222.5 -70.5h69l152 844h-39q-383 0 -459 -426q-14 -74 -14 -145zM858 317h43q382 0 459 420q14 96 14 154q0 131 -70 200.5t-225 69.5h-69z" />
<glyph unicode="&#x3a7;" horiz-adv-x="1271" d="M-94 0l8 53h119q107 118 248 309l268 353l-240 665h-129l8 54h541l-10 -54h-182l180 -508l254 349q60 84 86 159h-127l10 54h387l-10 -54h-123q-107 -113 -199 -239l-252 -338l269 -750h133l-10 -53h-543l10 53h184l-211 590l-276 -373q-81 -112 -131 -217h164l-10 -53 h-416z" />
<glyph unicode="&#x3a8;" horiz-adv-x="1757" d="M127 1380l8 54h361l-105 -596q-16 -85 -16 -150q0 -272 291 -272h71l172 964h-157l10 54h518l-8 -54h-158l-172 -964h41q382 0 459 422l104 596h361l-11 -54h-155l-96 -542q-42 -234 -215 -355t-443 -121h-55l-53 -309h157l-10 -53h-518l8 53h158l53 309h-82 q-217 0 -342 91q-127 97 -127 282q0 45 10 103l97 542h-156z" />
<glyph unicode="&#x3a9;" horiz-adv-x="1495" d="M25 0l8 401l55 11q3 -123 25 -230h383l20 115q-173 48 -260.5 174.5t-87.5 300.5q0 143 54.5 270t148.5 219t228 145.5t286 53.5q126 0 228 -39.5t166.5 -108t99 -158.5t34.5 -193q0 -242 -153 -423.5t-402 -240.5l-20 -115h381q60 98 106 230l53 -11l-133 -401h-497 l59 338q88 21 155 69t109 117.5t67.5 142t41.5 162.5q20 123 20 222q0 76 -16 136.5t-52 112t-101.5 79.5t-156.5 28q-389 0 -475 -502q-22 -116 -22 -223q0 -289 203 -344l-60 -338h-495z" />
<glyph unicode="&#x3aa;" horiz-adv-x="688" d="M-31 0l8 53h160l240 1327h-158l10 54h521l-11 -54h-159l-238 -1327h158l-11 -53h-520zM258 1679q0 44 30.5 77.5t73.5 33.5q36 0 60 -25.5t24 -62.5q0 -44 -30.5 -77.5t-73.5 -33.5q-36 0 -60 25.5t-24 62.5zM606 1679q0 44 30 77.5t75 33.5q38 0 61 -25t23 -63 q0 -44 -30 -77.5t-75 -33.5q-38 0 -61 25t-23 63z" />
<glyph unicode="&#x3ab;" horiz-adv-x="1150" d="M119 1380l8 54h559l-10 -54h-197q107 -364 201 -616q224 326 268 395q70 106 107 221h-137l10 54h381l-9 -54h-114q-43 -51 -191 -258q-133 -190 -297 -436l-114 -633h178l-10 -53h-557l10 53h174l110 617l-237 710h-133zM528 1679q0 44 31 77.5t74 33.5q36 0 60 -25.5 t24 -62.5q0 -44 -31 -77.5t-74 -33.5q-36 0 -60 25.5t-24 62.5zM877 1679q0 44 30 77.5t74 33.5q38 0 61 -25t23 -63q0 -44 -30 -77.5t-74 -33.5q-38 0 -61 25t-23 63z" />
<glyph unicode="&#x3ac;" horiz-adv-x="1114" d="M29 344q0 90 23 185t70 184.5t110.5 160.5t152.5 113.5t188 42.5q89 0 152 -43t86 -125h6l70 142h135l-162 -811q-8 -33 -8 -76q0 -70 90 -70q11 0 23 1t26 2.5t23 2.5l-10 -53q-91 -16 -175 -16q-146 0 -157 122q0 38 4 56q-61 -93 -138.5 -141t-183.5 -48 q-85 0 -148.5 28.5t-101.5 80t-56.5 117t-18.5 145.5zM225 303q0 -49 7.5 -91t25 -84t54.5 -66.5t89 -24.5q47 0 89 18t72 46t57 71.5t44.5 83.5t34 93.5t25 90t18.5 84.5q31 164 31 217q0 36 -5 67.5t-17.5 61.5t-32 51t-50.5 33.5t-71 12.5q-52 0 -98.5 -25t-84 -70 t-67 -98.5t-53.5 -118.5q-68 -191 -68 -352zM625 1133l10 284q2 39 21 66.5t55 27.5q29 0 45 -18t16 -47q0 -34 -12 -64l-82 -249h-53z" />
<glyph unicode="&#x3ad;" horiz-adv-x="923" d="M25 238q0 132 93.5 207t241.5 94v4q-86 22 -143 74.5t-57 130.5q0 73 34 129t91 88.5t124 48.5t140 16q135 0 211 -67.5t76 -186.5q0 -44 -9 -88h-106q4 36 4 76q0 45 -6 79t-22 66.5t-49 50t-81 17.5q-96 0 -158.5 -75t-62.5 -171q0 -166 201 -166h53l-12 -65 q-46 8 -68 8q-128 0 -212.5 -83.5t-84.5 -205.5q0 -84 46.5 -137t133.5 -53q116 0 197 79t129 211l82 -14q-58 -173 -162 -252.5t-264 -79.5q-151 0 -255.5 73.5t-104.5 191.5zM518 1133l10 284q2 39 21 66.5t55 27.5q29 0 45.5 -18.5t16.5 -46.5q0 -32 -13 -64l-82 -249 h-53z" />
<glyph unicode="&#x3ae;" horiz-adv-x="1177" d="M76 0l190 950h-147l12 54h326l-39 -189h4q131 215 356 215q234 0 234 -223q0 -42 -17 -133l-172 -883q-6 -38 -6 -76q0 -69 88 -69q12 0 24.5 1t27 2.5t22.5 2.5l-12 -53q-94 -17 -174 -17q-75 0 -117.5 34t-42.5 105q0 31 14 127l160 822q20 98 20 145q0 143 -122 143 q-135 0 -236 -143q-66 -98 -92 -244l-113 -571h-188zM645 1133l10 284q2 39 21 66.5t55 27.5q29 0 45.5 -18.5t16.5 -46.5q0 -32 -13 -64l-82 -249h-53z" />
<glyph unicode="&#x3af;" horiz-adv-x="585" d="M109 125q0 43 16 125l141 700h-147l10 54h334l-162 -811q-8 -33 -8 -76q0 -70 90 -70q11 0 23.5 1t27.5 2.5t23 2.5l-13 -53q-91 -16 -176 -16q-74 0 -116.5 34.5t-42.5 106.5zM350 1133l10 284q2 39 21 66.5t55 27.5q29 0 45.5 -18.5t16.5 -46.5q0 -32 -13 -64l-82 -249 h-53z" />
<glyph unicode="&#x3b0;" horiz-adv-x="1089" d="M72 950l10 54h334l-113 -576q-27 -142 -27 -205q0 -196 158 -196q43 0 79.5 14.5t62.5 35t48.5 56.5t36 66t27 77t20 76t15.5 76l100 522h-141l12 54h328l-109 -545q-19 -95 -40.5 -163.5t-59 -132.5t-88.5 -103.5t-126.5 -63t-174.5 -23.5q-174 0 -248 79.5t-74 223.5 q0 74 27 224l88 450h-145zM383 1286q0 41 29 73t69 32q35 0 57.5 -24t22.5 -60q0 -41 -29 -73t-71 -32q-34 0 -56 24t-22 60zM610 1133l11 284q2 40 20.5 67t54.5 27q29 0 45.5 -17.5t16.5 -45.5q0 -31 -13 -64l-81 -251h-54zM778 1286q0 41 29 73t72 32q33 0 54 -24t21 -60 q0 -41 -28.5 -73t-69.5 -32q-36 0 -57 24t-21 60z" />
<glyph unicode="&#x3b1;" horiz-adv-x="1136" d="M29 344q0 90 23 185t70 184.5t110.5 160.5t152.5 113.5t188 42.5q89 0 152 -43t86 -125h6l70 142h135l-162 -811q-8 -33 -8 -76q0 -70 90 -70q11 0 23 1t26 2.5t23 2.5l-10 -53q-91 -16 -175 -16q-146 0 -157 122q0 38 4 56q-61 -93 -138.5 -141t-183.5 -48 q-85 0 -148.5 28.5t-101.5 80t-56.5 117t-18.5 145.5zM225 303q0 -49 7.5 -91t25 -84t54.5 -66.5t89 -24.5q47 0 89 18t72 46t57 71.5t44.5 83.5t34 93.5t25 90t18.5 84.5q31 164 31 217q0 36 -5 67.5t-17.5 61.5t-32 51t-50.5 33.5t-71 12.5q-52 0 -98.5 -25t-84 -70 t-67 -98.5t-53.5 -118.5q-68 -191 -68 -352z" />
<glyph unicode="&#x3b2;" horiz-adv-x="1101" d="M-18 -393l290 1497q15 77 48.5 138.5t77.5 101t99 66t111.5 37.5t116.5 11q134 0 218.5 -68t84.5 -182q0 -58 -20 -107t-52.5 -83.5t-71.5 -64.5t-78 -56.5t-71.5 -53t-52.5 -61t-20 -73.5q0 -33 18.5 -59.5t47.5 -45t64.5 -36t70.5 -39t64 -47.5t47.5 -67t18.5 -93 q0 -150 -116 -249.5t-277 -99.5q-119 0 -202.5 53t-116.5 162l-113 -581h-186zM313 297q0 -116 61.5 -184t168.5 -68t174 75t67 187q0 52 -24.5 91t-59 64.5t-69.5 51t-59.5 63.5t-24.5 89q0 60 27.5 113.5t68.5 97t84 86.5t79 99t48 116q8 39 8 75q0 71 -36.5 112.5 t-110.5 41.5q-195 0 -250 -262l-137 -717q-15 -74 -15 -131z" />
<glyph unicode="&#x3b3;" horiz-adv-x="987" d="M31 950l10 54h295l129 -869q157 154 257 366.5t140 448.5h-147l12 54h258q-55 -280 -181.5 -511t-332.5 -436l-90 -450h-188l88 444l-134 899h-116z" />
<glyph unicode="&#x3b4;" horiz-adv-x="1021" d="M27 358q0 149 69 277.5t195.5 206.5t283.5 78q86 0 152 -39q-58 135 -172.5 240.5t-259.5 152.5l31 160h702l-31 -160h-538q232 -103 364.5 -275t132.5 -409q0 -83 -14 -166q-38 -196 -186 -323.5t-361 -127.5q-171 0 -269.5 107.5t-98.5 277.5zM215 252q0 -225 193 -225 q61 0 110.5 24t84 63t61.5 96.5t44 115t31 129.5q23 117 23 190q0 98 -47 159.5t-146 61.5q-60 0 -109 -24t-83.5 -62.5t-62.5 -95.5t-45 -115t-31 -129q-23 -130 -23 -188z" />
<glyph unicode="&#x3b5;" horiz-adv-x="923" d="M25 238q0 132 93.5 207t241.5 94v4q-86 22 -143 74.5t-57 130.5q0 73 34 129t91 88.5t124 48.5t140 16q135 0 211 -67.5t76 -186.5q0 -44 -9 -88h-106q4 36 4 76q0 45 -6 79t-22 66.5t-49 50t-81 17.5q-96 0 -158.5 -75t-62.5 -171q0 -166 201 -166h53l-12 -65 q-46 8 -68 8q-128 0 -212.5 -83.5t-84.5 -205.5q0 -84 46.5 -137t133.5 -53q116 0 197 79t129 211l82 -14q-58 -173 -162 -252.5t-264 -79.5q-151 0 -255.5 73.5t-104.5 191.5z" />
<glyph unicode="&#x3b6;" horiz-adv-x="845" d="M4 256q0 52 16 108.5t39 107.5t66 111.5t79 107t98 109.5t102.5 102.5t112.5 102.5t109 94.5t109.5 92t98.5 82.5h-568l31 160h647l-33 -160q-81 -79 -126.5 -125t-129 -134.5t-135 -150.5t-116.5 -150t-102 -157.5t-63 -147.5t-26 -145q0 -107 75.5 -155t203.5 -48 l253 -2l-88 -452h-159l77 393h-213q-358 0 -358 256z" />
<glyph unicode="&#x3b7;" horiz-adv-x="1159" d="M76 0l190 950h-147l12 54h326l-39 -189h4q131 215 356 215q234 0 234 -223q0 -42 -17 -133l-172 -883q-6 -38 -6 -76q0 -69 88 -69q12 0 24.5 1t27 2.5t22.5 2.5l-12 -53q-94 -17 -174 -17q-75 0 -117.5 34t-42.5 105q0 31 14 127l160 822q20 98 20 145q0 143 -122 143 q-135 0 -236 -143q-66 -98 -92 -244l-113 -571h-188z" />
<glyph unicode="&#x3b8;" horiz-adv-x="1021" d="M59 471q0 117 25 256q19 98 50.5 193t82.5 191t114.5 167.5t151.5 116.5t187 45q92 0 160.5 -41.5t107 -114t56.5 -159t18 -187.5q0 -113 -25 -252q-65 -337 -221 -525t-358 -188q-77 0 -137.5 27.5t-99.5 74t-65 111.5t-36.5 135t-10.5 150zM231 299q0 -272 175 -272 q132 0 223.5 159.5t156.5 489.5h-512q-43 -201 -43 -377zM295 784h514q29 161 29 334q0 268 -168 268q-124 0 -217 -147t-158 -455z" />
<glyph unicode="&#x3b9;" horiz-adv-x="585" d="M109 125q0 43 16 125l141 700h-147l10 54h334l-162 -811q-8 -33 -8 -76q0 -70 90 -70q11 0 23.5 1t27.5 2.5t23 2.5l-13 -53q-91 -16 -176 -16q-74 0 -116.5 34.5t-42.5 106.5z" />
<glyph unicode="&#x3ba;" horiz-adv-x="1095" d="M76 0l190 950h-147l8 54h336l-92 -459l98 10q24 26 68 71.5t77 80t39 41.5q87 93 131 192q11 23 15 64h278l-20 -103q-68 0 -143 -33t-128 -82q-13 -11 -35.5 -32t-62.5 -58.5t-80 -74.5q44 -84 99 -190t93 -179t72 -135q41 -68 109 -68q25 0 57 4l-12 -53 q-102 -16 -164 -16q-74 0 -124 25.5t-81 86.5q-39 74 -202 408l-95 -12l-96 -492h-188z" />
<glyph unicode="&#x3bb;" horiz-adv-x="987" d="M2 0q99 498 518 979l-6 45q-37 327 -213 356l23 50q320 0 381 -418l135 -959h118l-12 -53h-295l-123 903q-149 -177 -256 -402t-145 -448h145l-12 -53h-258z" />
<glyph unicode="&#x3bc;" horiz-adv-x="1193" d="M-20 -340q0 28 14.5 79t36.5 113t28 85q12 44 24 98t20 93.5t20.5 103t19.5 96.5l125 622h-147l12 54h332l-133 -670q-19 -93 -19 -146q0 -143 121 -143q135 0 236 143q64 92 94 244l113 572h186l-162 -811q-6 -37 -6 -76q0 -70 90 -70q1 0 70 6l-8 -53q-94 -16 -177 -16 q-149 0 -155 127q-1 13 4 75q-124 -213 -357 -213q-152 0 -204 105q-19 -104 -19 -187q0 -27 19.5 -74t19.5 -73q0 -61 -29.5 -110.5t-85.5 -49.5q-38 0 -60.5 20t-22.5 56z" />
<glyph unicode="&#x3bd;" horiz-adv-x="987" d="M31 950l10 54h295l121 -869q158 155 262 368.5t143 446.5h-147l12 54h258q-59 -299 -205 -546t-385 -466h-112l-136 958h-116z" />
<glyph unicode="&#x3be;" horiz-adv-x="903" d="M-8 227q0 69 27.5 122.5t71 85.5t96.5 56.5t105.5 43.5t96 39.5t71 51t27.5 70.5q0 31 -21 61t-50.5 56.5t-59 55t-50.5 69.5t-21 88q0 86 71.5 149t180.5 99h-271l31 160h704l-32 -160h-232q-109 0 -189.5 -68.5t-80.5 -183.5q0 -39 14 -74.5t33.5 -62t39.5 -52.5 t34 -58t14 -66q0 -53 -21.5 -97.5t-56 -75.5t-76 -58.5t-83.5 -54.5t-76.5 -56t-56 -69t-21.5 -89q0 -38 13.5 -65t36.5 -43.5t60 -26t76.5 -12.5t94.5 -3h311l-88 -452h-160l78 393h-309q-165 0 -248.5 61t-83.5 166z" />
<glyph unicode="&#x3bf;" horiz-adv-x="1038" d="M31 365q0 118 38.5 235t107 213.5t176 156.5t233.5 60q178 0 276.5 -114t98.5 -291q0 -94 -23.5 -187t-70.5 -177t-111.5 -148t-154 -102t-191.5 -38q-180 0 -279.5 108.5t-99.5 283.5zM221 262q0 -235 185 -235q77 0 143 55t107.5 137.5t71 182.5t42 187t12.5 154 q0 234 -186 234q-65 0 -122 -38.5t-96.5 -101.5t-70.5 -139.5t-49.5 -158.5t-27.5 -152t-9 -125z" />
<glyph unicode="&#x3c0;" horiz-adv-x="1177" d="M76 0l190 950h-147l12 54h932l-164 -811q-6 -25 -6 -76q0 -70 90 -70q11 0 22.5 1t25 2.5l22.5 2.5l-11 -53q-91 -16 -174 -16q-159 0 -159 141q0 29 14 125l137 690h-411l-185 -940h-188z" />
<glyph unicode="&#x3c1;" horiz-adv-x="1116" d="M-27 -393l181 913q49 254 172 382t352 128q177 0 270.5 -106t93.5 -281q0 -99 -22 -195t-66.5 -182t-106.5 -151t-149 -103.5t-186 -38.5q-90 0 -155.5 38t-92.5 118l-94 -469h158l-13 -53h-342zM301 268q0 -63 15.5 -112t58.5 -84t110 -35q59 0 112 34t92 91.5 t66.5 118.5t47.5 129q47 155 47 288q0 34 -0.5 53t-3.5 53t-9.5 54t-19.5 45.5t-31 39.5t-46.5 24t-65.5 10q-47 0 -88.5 -16.5t-72 -42t-57 -65t-44 -77t-33 -86.5t-24 -85t-17.5 -81q-2 -10 -8 -41t-9 -44.5t-7.5 -41.5t-6.5 -45.5t-4 -40.5t-2 -43z" />
<glyph unicode="&#x3c2;" horiz-adv-x="950" d="M29 338q0 103 25.5 203t76 188.5t120 155.5t164 106t201.5 39q128 0 196.5 -61.5t68.5 -184.5q0 -75 -19 -153h-129q23 109 23 178q0 72 -32 122t-103 50q-79 0 -147 -48.5t-112.5 -123t-76.5 -166t-46 -176t-14 -154.5q0 -74 29.5 -124.5t76.5 -75.5t104 -41t114.5 -28 t104.5 -29t76.5 -52.5t29.5 -89.5q0 -65 -29 -114.5t-80 -79.5t-109 -47t-126 -23l10 51q72 7 127 50t55 116q0 36 -25 61t-65.5 37t-92.5 25.5t-106.5 26t-106.5 40t-92.5 65t-65.5 103.5t-25 154z" />
<glyph unicode="&#x3c3;" horiz-adv-x="1038" d="M31 365q0 118 38.5 235t107 213.5t176 156.5t233.5 60q80 0 153 -26h310l-23 -119h-152q87 -114 87 -295q0 -81 -23 -166.5t-70.5 -166t-112 -144t-154.5 -102t-191 -38.5q-180 0 -279.5 108.5t-99.5 283.5zM221 262q0 -235 185 -235q77 0 143 55t107.5 137.5t71 182.5 t42 187t12.5 154q0 234 -186 234q-65 0 -122 -38.5t-96.5 -101.5t-70.5 -139.5t-49.5 -158.5t-27.5 -152t-9 -125z" />
<glyph unicode="&#x3c4;" horiz-adv-x="966" d="M63 672l78 334h844l-57 -334h-68v51q-2 122 -23.5 174.5t-80.5 52.5h-111l-178 -895h143l-8 -55h-336l193 950h-109q-65 0 -111 -63t-106 -215h-70z" />
<glyph unicode="&#x3c5;" horiz-adv-x="1089" d="M72 950l10 54h334l-113 -576q-27 -142 -27 -205q0 -196 158 -196q43 0 79.5 14.5t62.5 35t48.5 56.5t36 66t27 77t20 76t15.5 76l100 522h-141l12 54h328l-109 -545q-19 -95 -40.5 -163.5t-59 -132.5t-88.5 -103.5t-126.5 -63t-174.5 -23.5q-174 0 -248 79.5t-74 223.5 q0 74 27 224l88 450h-145z" />
<glyph unicode="&#x3c6;" horiz-adv-x="1480" d="M33 403q0 263 165.5 431t442.5 196l-12 -63q-147 -28 -245.5 -146.5t-135.5 -308.5q-19 -93 -19 -164q0 -147 75.5 -230t232.5 -83l192 997h191q231 0 359 -118.5t128 -315.5q0 -145 -52 -262t-145.5 -194.5t-220.5 -120.5t-278 -48l-62 -313h144l-11 -53h-329l71 366 q-232 0 -361.5 117t-129.5 313zM723 35q192 0 310 121t159 336q20 98 20 167q0 145 -75.5 227.5t-231.5 82.5z" />
<glyph unicode="&#x3c7;" horiz-adv-x="1003" d="M-16 0q9 53 44.5 107t96.5 126q65 76 268 271l-180 446h-125l8 54h314l143 -379q102 106 154 180q77 99 92 199h143q-17 -78 -133 -211q-82 -91 -231 -228q49 -127 184 -452q25 -66 96 -66q6 0 66 6l-13 -53q-91 -16 -174 -16q-139 0 -180 106q-65 160 -139 350 q-144 -152 -219 -256q-60 -89 -76 -184h-139z" />
<glyph unicode="&#x3c8;" horiz-adv-x="1540" d="M45 950l12 54h334l-98 -500q-19 -100 -19 -176q0 -293 289 -293l178 915h-143l10 54h477l-12 -54h-143q-110 -569 -167 -859q-10 -50 -11 -56q187 0 297.5 124t152.5 345l98 500h336l-12 -54h-145l-93 -467q-98 -510 -647 -510l-61 -313h143l-10 -53h-332l72 366 q-224 0 -340.5 112t-116.5 304q0 47 15 135l81 426h-145z" />
<glyph unicode="&#x3c9;" horiz-adv-x="1462" d="M25 350q0 239 135 423.5t372 258.5l9 -51q-159 -116 -239.5 -299.5t-80.5 -400.5q0 -244 152 -244q76 0 136 82t85 213l115 594h186l-117 -594q-12 -73 -12 -125q0 -78 31 -124t88 -46q64 0 119 41t91.5 105t62.5 143.5t38 155.5t12 143q0 215 -123 356l29 51 q138 -61 213.5 -186.5t75.5 -284.5q0 -83 -20 -166t-62 -159t-100.5 -134.5t-141 -93.5t-178.5 -35q-90 0 -155 48t-93 133q-59 -86 -142.5 -133.5t-180.5 -47.5q-147 0 -226 104.5t-79 272.5z" />
<glyph unicode="&#x3ca;" horiz-adv-x="585" d="M109 125q0 43 16 125l141 700h-147l10 54h334l-162 -811q-8 -33 -8 -76q0 -70 90 -70q11 0 23.5 1t27.5 2.5t23 2.5l-13 -53q-91 -16 -176 -16q-74 0 -116.5 34.5t-42.5 106.5zM145 1284q0 44 31 78.5t74 34.5q36 0 60 -25.5t24 -62.5q0 -44 -31 -78.5t-76 -34.5 q-35 0 -58.5 25.5t-23.5 62.5zM483 1284q0 44 31 78.5t76 34.5q38 0 61 -25t23 -63q0 -44 -31 -78.5t-76 -34.5q-38 0 -61 25t-23 63z" />
<glyph unicode="&#x3cb;" horiz-adv-x="1089" d="M72 950l10 54h334l-113 -576q-27 -142 -27 -205q0 -196 158 -196q43 0 79.5 14.5t62.5 35t48.5 56.5t36 66t27 77t20 76t15.5 76l100 522h-141l12 54h328l-109 -545q-19 -95 -40.5 -163.5t-59 -132.5t-88.5 -103.5t-126.5 -63t-174.5 -23.5q-174 0 -248 79.5t-74 223.5 q0 74 27 224l88 450h-145zM406 1284q0 44 30.5 78.5t73.5 34.5q36 0 60 -25.5t24 -62.5q0 -44 -31 -78.5t-76 -34.5q-35 0 -58 25.5t-23 62.5zM743 1284q0 44 31 78.5t76 34.5q38 0 61 -25t23 -63q0 -44 -31 -78.5t-76 -34.5q-38 0 -61 25t-23 63z" />
<glyph unicode="&#x3cc;" horiz-adv-x="1038" d="M31 365q0 118 38.5 235t107 213.5t176 156.5t233.5 60q178 0 276.5 -114t98.5 -291q0 -94 -23.5 -187t-70.5 -177t-111.5 -148t-154 -102t-191.5 -38q-180 0 -279.5 108.5t-99.5 283.5zM221 262q0 -235 185 -235q77 0 143 55t107.5 137.5t71 182.5t42 187t12.5 154 q0 234 -186 234q-65 0 -122 -38.5t-96.5 -101.5t-70.5 -139.5t-49.5 -158.5t-27.5 -152t-9 -125zM575 1133l11 284q2 39 21 66.5t55 27.5q29 0 45 -18t16 -47q0 -34 -12 -64l-82 -249h-54z" />
<glyph unicode="&#x3cd;" horiz-adv-x="1089" d="M72 950l10 54h334l-113 -576q-27 -142 -27 -205q0 -196 158 -196q43 0 79.5 14.5t62.5 35t48.5 56.5t36 66t27 77t20 76t15.5 76l100 522h-141l12 54h328l-109 -545q-19 -95 -40.5 -163.5t-59 -132.5t-88.5 -103.5t-126.5 -63t-174.5 -23.5q-174 0 -248 79.5t-74 223.5 q0 74 27 224l88 450h-145zM614 1133l11 284q2 39 20.5 66.5t54.5 27.5q29 0 45.5 -18.5t16.5 -46.5q0 -34 -12 -64l-82 -249h-54z" />
<glyph unicode="&#x3ce;" horiz-adv-x="1708" d="M25 350q0 239 135 423.5t372 258.5l9 -51q-159 -116 -239.5 -299.5t-80.5 -400.5q0 -244 152 -244q76 0 136 82t85 213l115 594h186l-117 -594q-12 -73 -12 -125q0 -78 31 -124t88 -46q64 0 119 41t91.5 105t62.5 143.5t38 155.5t12 143q0 215 -123 356l29 51 q138 -61 213.5 -186.5t75.5 -284.5q0 -83 -20 -166t-62 -159t-100.5 -134.5t-141 -93.5t-178.5 -35q-90 0 -155 48t-93 133q-59 -86 -142.5 -133.5t-180.5 -47.5q-147 0 -226 104.5t-79 272.5zM791 1133l10 284q2 39 21 66.5t55 27.5q29 0 45 -18t16 -47q0 -34 -12 -64 l-82 -249h-53z" />
<glyph unicode="&#x401;" horiz-adv-x="1275" d="M-39 0l10 53h158l240 1327h-158l10 54h996q0 -206 -48 -449h-59q-1 43 -4.5 108.5t-3.5 69.5q-2 61 -10.5 98t-30.5 66t-61.5 41t-102.5 12h-326l-108 -612h145q69 0 111 32.5t72 96.5q22 52 53 162h59l-112 -637h-62q4 43 4 125q2 88 -26.5 128t-108.5 40h-145 l-119 -662h377q101 0 156.5 37t97.5 129q48 94 112 277h62l-101 -496h-1077zM551 1679q0 44 30.5 77.5t73.5 33.5q36 0 60 -25.5t24 -62.5q0 -44 -30.5 -77.5t-73.5 -33.5q-36 0 -60 25.5t-24 62.5zM899 1679q0 44 30 77.5t75 33.5q37 0 60 -25t23 -63q0 -44 -30 -77.5 t-74 -33.5q-38 0 -61 25t-23 63z" />
<glyph unicode="&#x402;" horiz-adv-x="1521" d="M113 975l96 459h1030q0 -229 -47 -459h-55q2 29 2 84q0 159 -36 240t-120 81h-156l-110 -612h182q238 0 361.5 -69t123.5 -228q0 -45 -10 -104q-45 -259 -193 -446.5t-417 -309.5l-19 41q190 115 282.5 276t139.5 418q17 90 17 139q0 120 -73.5 175t-233.5 55h-170 l-119 -662h149l-8 -53h-539l9 53h186l240 1327h-158q-94 0 -158 -93t-139 -312h-57z" />
<glyph unicode="&#x403;" horiz-adv-x="1142" d="M-39 0l10 53h158l240 1327h-158l10 54h979q0 -211 -47 -449h-59q0 56 -9 117q-2 71 -4.5 102.5t-13.5 74t-32 59t-58.5 29.5t-95.5 13h-310l-237 -1327h190l-8 -53h-555zM567 1573q27 27 78 80t91.5 94t85 84t79 66.5t53.5 23.5q28 0 46 -17.5t18 -41.5q0 -38 -55 -80 q-123 -88 -357 -240z" />
<glyph unicode="&#x404;" horiz-adv-x="1273" d="M80 553q0 136 33 267t100 246.5t160 203.5t221.5 139t275.5 51q210 0 375 -76q0 -203 -45 -419h-59q7 75 4 141q-7 301 -264 301q-295 0 -453 -317q-74 -137 -111 -314h566l-15 -74h-563q-22 -135 -22 -253q0 -90 18 -163t57 -133.5t109 -94t166 -33.5q59 0 110 15 t89.5 38.5t72.5 62.5t57.5 76t46.5 89.5t37 93.5t31 98h60l-76 -414q-215 -113 -443 -113q-134 0 -238 43.5t-169 122.5t-98 184t-33 232z" />
<glyph unicode="&#x405;" horiz-adv-x="1165" d="M35 78l63 416h64q1 -15 1.5 -65.5t2.5 -78.5q2 -62 9.5 -107.5t25.5 -88.5t48 -70t78.5 -43t114.5 -16q159 0 277.5 104t118.5 256q0 55 -22 97.5t-74.5 78t-89 54t-113.5 51.5q-6 3 -9 4q-45 19 -73 32.5t-68 35t-65 41t-53 47.5t-44 57t-26.5 67.5t-10.5 81.5 q0 82 30 152t81.5 120t119.5 86t145.5 53t158.5 17q197 0 354 -65q0 -200 -41 -402h-67q6 80 0 164q-5 131 -60.5 190.5t-187.5 59.5q-89 0 -169 -37.5t-131.5 -108.5t-51.5 -159q0 -44 19 -81.5t41 -61.5t72.5 -52t79 -40.5t94.5 -38.5q21 -9 32 -13q73 -29 124 -57.5 t101 -71t76 -100.5t26 -131q0 -112 -50.5 -205.5t-134 -153t-190 -92.5t-221.5 -33q-109 0 -224 26t-181 81z" />
<glyph unicode="&#x406;" horiz-adv-x="688" d="M-31 0l8 53h160l240 1327h-158l10 54h521l-11 -54h-159l-238 -1327h158l-11 -53h-520z" />
<glyph unicode="&#x407;" horiz-adv-x="688" d="M-31 0l8 53h160l240 1327h-158l10 54h521l-11 -54h-159l-238 -1327h158l-11 -53h-520zM258 1679q0 44 30.5 77.5t73.5 33.5q36 0 60 -25.5t24 -62.5q0 -44 -30.5 -77.5t-73.5 -33.5q-36 0 -60 25.5t-24 62.5zM606 1679q0 44 30 77.5t75 33.5q38 0 61 -25t23 -63 q0 -44 -30 -77.5t-75 -33.5q-38 0 -61 25t-23 63z" />
<glyph unicode="&#x408;" horiz-adv-x="688" d="M-174 -340q157 75 237 201q59 98 87 262l227 1257h-158l10 54h521l-11 -54h-159l-207 -1149q-27 -144 -69.5 -239.5t-115.5 -165.5q-64 -61 -145 -109.5t-201 -105.5z" />
<glyph unicode="&#x409;" horiz-adv-x="1841" d="M-84 -25l33 187q41 -23 80 -23q54 0 105 44.5t91 119.5t70 156t53 172l193 749h-142l13 54h983l-9 -54h-159l-111 -612h137q73 0 133 -6t125.5 -26t110.5 -52.5t74.5 -90.5t29.5 -136q0 -104 -35.5 -184.5t-94 -131t-141.5 -83t-169.5 -45.5t-185.5 -13h-484l9 53h159 l238 1319h-416l-203 -813q-22 -91 -48.5 -169.5t-66 -158t-85.5 -135t-109 -90.5t-135 -35q-27 0 -43 4zM987 53h98q200 0 316.5 115t116.5 317q0 128 -76 179t-217 51h-119z" />
<glyph unicode="&#x40a;" horiz-adv-x="1918" d="M-39 0l10 53h156l240 1327h-158l10 54h514l-12 -54h-152l-108 -606h530l109 606h-152l10 54h512l-8 -54h-159l-111 -612h137q73 0 133 -6t125.5 -26t110.5 -52.5t74.5 -90.5t29.5 -136q0 -104 -35.5 -184.5t-94 -131t-141.5 -83t-169.5 -45.5t-185.5 -13h-478l9 53h153 l117 654h-528l-117 -654h151l-10 -53h-512zM1065 53h96q201 0 316.5 115t115.5 317q0 128 -76 179t-217 51h-116z" />
<glyph unicode="&#x40b;" horiz-adv-x="1595" d="M113 975l94 459h1032q0 -233 -49 -459h-53q2 29 2 84q0 159 -36 240t-120 81h-156l-110 -612h182q237 0 361 -67.5t124 -225.5q0 -44 -8 -88l-59 -334h158l-9 -53h-512l11 53h149l60 332q10 62 10 100q0 120 -74.5 175t-235.5 55h-167l-119 -662h149l-10 -53h-539l11 53 h184l242 1327h-158q-94 0 -158 -93t-139 -312h-57z" />
<glyph unicode="&#x40c;" horiz-adv-x="1318" d="M-39 0l10 53h158l240 1327h-158l10 54h516l-10 -54h-156l-108 -612l119 16l340 351q109 112 180 245h-150l11 54h428l-9 -54h-133q-51 -43 -217 -209q-131 -131 -295 -299l406 -819h117l-9 -53h-522l10 53h156l-328 676l-114 -14l-119 -662h155l-10 -53h-518zM655 1573 q27 27 78 80t91.5 94t85 84t79 66.5t53.5 23.5q28 0 46 -17.5t18 -41.5q0 -38 -55 -80q-123 -88 -357 -240z" />
<glyph unicode="&#x40e;" horiz-adv-x="1292" d="M61 49l48 266h122q-14 -91 -16 -147q4 -127 86 -127q40 0 80.5 19.5t70.5 45t62.5 65.5t49.5 65t38 59l57 94h-55l-297 991h-117l11 54h516l-12 -54h-166l235 -802l338 555q59 91 102 247h-149l10 54h400l-11 -54h-108q-77 -98 -160 -231l-510 -832q-29 -46 -43.5 -68.5 t-46 -66.5t-54 -67.5t-58.5 -56t-69.5 -48.5t-77.5 -28.5t-91 -12.5q-58 0 -108 21t-77 59zM586 1874l57 10q3 -94 54 -138t151 -44q198 0 254 182l61 -10q-79 -295 -334 -295q-133 0 -188 78t-55 217z" />
<glyph unicode="&#x40f;" horiz-adv-x="1490" d="M-39 0l10 53h158l240 1327h-158l10 54h516l-10 -54h-156l-237 -1321h614l240 1321h-156l10 54h519l-13 -54h-157l-238 -1327h156l-9 -53h-595l-72 -403h-144l74 403h-602z" />
<glyph unicode="&#x410;" horiz-adv-x="1214" d="M-184 0l10 53h111q60 87 151 264l604 1129h127l238 -1393h121l-9 -53h-520l10 53h185l-82 475h-486l-63 -116q-37 -72 -79 -181.5t-56 -177.5h158l-11 -53h-409zM305 588h449l-109 629h-8q-20 -39 -144.5 -273.5t-187.5 -355.5z" />
<glyph unicode="&#x411;" horiz-adv-x="1294" d="M-39 0l8 53h160l240 1327h-158l10 54h987q0 -211 -47 -449h-59q-3 86 -8 117q-2 60 -4.5 94.5t-10 70.5t-20.5 54t-35.5 33.5t-55 20.5t-79.5 5h-318l-110 -612h229q51 0 95 -2.5t94.5 -11t90.5 -22t78.5 -37t64 -55t41 -77.5t15.5 -102q0 -104 -35.5 -185t-94.5 -132 t-141.5 -84.5t-169.5 -46.5t-185 -13h-582zM334 53h192q204 0 317 118t113 329q0 64 -23 107.5t-65.5 66.5t-92 32t-113.5 9h-209z" />
<glyph unicode="&#x412;" horiz-adv-x="1320" d="M-39 0l10 53h158l240 1327h-158l10 54h563q453 0 453 -299q0 -165 -113 -265t-288 -122q67 -8 124 -28.5t105.5 -56.5t76 -93.5t27.5 -131.5q0 -99 -34.5 -176t-91 -125.5t-136.5 -80t-164 -44t-180 -12.5h-602zM334 53h194q205 0 316.5 108t111.5 310q0 59 -19 103 t-50 70t-77.5 42.5t-93 22t-106.5 6.5h-157zM463 768h141q195 0 312.5 107.5t117.5 300.5q0 62 -22.5 104t-64.5 63t-89 29t-110 8h-177z" />
<glyph unicode="&#x413;" horiz-adv-x="1142" d="M-39 0l10 53h158l240 1327h-158l10 54h979q0 -211 -47 -449h-59q0 56 -9 117q-2 71 -4.5 102.5t-13.5 74t-32 59t-58.5 29.5t-95.5 13h-310l-237 -1327h190l-8 -53h-555z" />
<glyph unicode="&#x414;" horiz-adv-x="1449" d="M-162 -403l96 464h19q74 0 144 49.5t124.5 133t96.5 181t71 206.5l199 749h-156l10 54h1061l-10 -54h-158l-237 -1319h205l-74 -464h-58q3 35 3 67q-3 177 -33.5 256.5t-110.5 79.5h-837q-93 0 -155 -91.5t-140 -311.5h-60zM193 61h702l238 1311h-476l-208 -813 q-87 -347 -256 -498z" />
<glyph unicode="&#x415;" horiz-adv-x="1275" d="M-39 0l10 53h158l240 1327h-158l10 54h996q0 -206 -48 -449h-59q-1 43 -4.5 108.5t-3.5 69.5q-2 61 -10.5 98t-30.5 66t-61.5 41t-102.5 12h-326l-108 -612h145q69 0 111 32.5t72 96.5q22 52 53 162h59l-112 -637h-62q4 43 4 125q0 89 -28 128.5t-107 39.5h-145 l-119 -662h377q101 0 156.5 37t97.5 129q48 94 112 277h62l-101 -496h-1077z" />
<glyph unicode="&#x416;" horiz-adv-x="1882" d="M-123 0l12 53h113l635 826l-168 292q-79 139 -135 209h-131l10 54h430l-10 -54h-152q23 -137 86 -245l187 -351l112 -16l111 612h-154l11 54h514l-13 -54h-155l-109 -612l115 16l315 351q122 139 176 245h-151l12 54h428l-10 -54h-131q-50 -43 -211 -209 q-150 -161 -273 -292l338 -826h117l-10 -53h-508l8 53h154l-264 676l-115 -14l-119 -662h152l-9 -53h-505l8 53h151l119 662l-108 14l-508 -676h151l-8 -53h-508z" />
<glyph unicode="&#x417;" horiz-adv-x="1183" d="M23 78l59 416h68q-3 -53 -3 -107q5 -174 48 -246q34 -56 95.5 -86t131.5 -30q113 0 201.5 66.5t133 169t44.5 218.5q0 74 -28.5 127t-77.5 80t-101.5 39t-112.5 12q-5 0 -19 -2t-18 -2l9 60h51q174 0 278.5 104.5t104.5 282.5q0 105 -56.5 166t-154.5 61q-58 0 -107 -16 t-86 -47t-65 -67t-51.5 -87.5t-39 -94.5t-32.5 -102h-68l78 391q195 76 395 76q61 0 116 -9.5t107.5 -32.5t90.5 -57t61 -87.5t23 -120.5q0 -307 -424 -383l-2 -4q148 -16 245 -100.5t97 -229.5q0 -90 -34 -167.5t-92 -131t-134.5 -92t-161.5 -56.5t-172 -18 q-230 0 -397 107z" />
<glyph unicode="&#x418;" horiz-adv-x="1488" d="M119 -8l250 1388h-158l10 54h524l-12 -54h-162l-192 -1065l768 1119h412l-11 -54h-157l-240 -1327h158l-9 -53h-528l10 53h168l236 1311l-936 -1372h-131z" />
<glyph unicode="&#x419;" horiz-adv-x="1488" d="M119 -8l250 1388h-158l10 54h524l-12 -54h-162l-192 -1065l768 1119h412l-11 -54h-157l-240 -1327h158l-9 -53h-528l10 53h168l236 1311l-936 -1372h-131zM666 1853l55 11q3 -82 55 -120t156 -38q205 0 264 156l59 -9q-44 -138 -126.5 -208t-215.5 -70q-244 0 -247 278z " />
<glyph unicode="&#x41a;" horiz-adv-x="1318" d="M-39 0l10 53h158l240 1327h-158l10 54h516l-10 -54h-156l-108 -612l119 16l340 351q109 112 180 245h-150l11 54h428l-9 -54h-133q-51 -43 -217 -209q-131 -131 -295 -299l406 -819h117l-9 -53h-522l10 53h156l-328 676l-114 -14l-119 -662h155l-10 -53h-518z" />
<glyph unicode="&#x41b;" horiz-adv-x="1433" d="M-84 -25l33 187q48 -23 90 -23q61 0 117.5 44.5t100 119t76 156.5t56.5 172l199 749h-156l10 54h1061l-10 -54h-158l-237 -1327h155l-8 -53h-518l10 53h156l240 1319h-476l-208 -813q-151 -588 -484 -588q-31 0 -49 4z" />
<glyph unicode="&#x41c;" horiz-adv-x="1800" d="M-63 0l10 53h137q50 150 102 412l183 915h-158l10 54h397l201 -1176l629 1176h399l-8 -54h-160l-217 -1327h158l-8 -53h-557l8 53h197l210 1284l-718 -1347h-101l-227 1349h-2l-125 -626q-84 -432 -84 -660h158l-11 -53h-423z" />
<glyph unicode="&#x41d;" horiz-adv-x="1490" d="M-39 0l10 53h158l240 1327h-158l10 54h516l-10 -54h-156l-108 -606h614l111 606h-156l10 54h519l-13 -54h-157l-238 -1327h156l-9 -53h-518l11 53h155l119 656h-616l-117 -656h155l-10 -53h-518z" />
<glyph unicode="&#x41e;" horiz-adv-x="1378" d="M80 551q0 128 29.5 256t91.5 245.5t148 208.5t207.5 145t262.5 54q127 0 226.5 -45.5t160.5 -125.5t92 -182.5t31 -223.5q0 -128 -30 -256t-92 -246.5t-148.5 -209.5t-208 -145.5t-260.5 -54.5q-129 0 -228.5 46t-160 126.5t-91 183.5t-30.5 224zM279 408 q0 -383 301 -383q90 0 167 38.5t132 103t99.5 151t72 178.5t46 191t26 182.5t7.5 158.5q0 379 -303 379q-88 0 -164.5 -38.5t-131.5 -103t-99 -150.5t-72 -178t-47 -190t-26.5 -182t-7.5 -157z" />
<glyph unicode="&#x41f;" horiz-adv-x="1490" d="M-39 0l10 53h158l240 1327h-158l10 54h1340l-13 -54h-157l-238 -1327h156l-9 -53h-518l11 53h155l240 1321h-617l-237 -1321h155l-10 -53h-518z" />
<glyph unicode="&#x420;" horiz-adv-x="1257" d="M-39 0l10 53h158l240 1327h-158l10 54h563q74 0 134 -6t127 -25t112 -51.5t75 -90t30 -135.5q0 -104 -35.5 -185t-94.5 -132t-141.5 -84t-169.5 -46t-186 -13h-191l-110 -613h196l-10 -53h-559zM453 719h149q215 0 333 116t118 330q0 64 -23 107.5t-66.5 66.5t-93 32 t-114.5 9h-185z" />
<glyph unicode="&#x421;" horiz-adv-x="1273" d="M80 553q0 136 33 267t100 246.5t160 203.5t221.5 139t275.5 51q210 0 375 -76q0 -203 -45 -419h-59q7 75 4 141q-7 301 -264 301q-295 0 -453 -317q-71 -137 -108 -309t-37 -332q0 -90 18 -163t57 -133.5t109 -94t166 -33.5q59 0 110 15t89.5 38.5t72.5 62.5t57.5 76 t46.5 89.5t37 93.5t31 98h60l-76 -414q-215 -113 -443 -113q-134 0 -238 43.5t-169 122.5t-98 184t-33 232z" />
<glyph unicode="&#x422;" horiz-adv-x="1183" d="M113 975l96 459h1030q0 -229 -47 -459h-55q2 29 2 86q0 157 -36 238t-120 81h-156l-239 -1327h184l-8 -53h-576l11 53h186l240 1327h-158q-94 0 -158 -93t-139 -312h-57z" />
<glyph unicode="&#x423;" horiz-adv-x="1292" d="M61 49l48 266h122q-14 -91 -16 -147q4 -127 86 -127q40 0 80.5 19.5t70.5 45t62.5 65.5t49.5 65t38 59l57 94h-55l-297 991h-117l11 54h516l-12 -54h-166l235 -802l338 555q59 91 102 247h-149l10 54h400l-11 -54h-108q-77 -98 -160 -231l-510 -832q-29 -46 -43.5 -68.5 t-46 -66.5t-54 -67.5t-58.5 -56t-69.5 -48.5t-77.5 -28.5t-91 -12.5q-58 0 -108 21t-77 59z" />
<glyph unicode="&#x424;" horiz-adv-x="1634" d="M80 631q0 43 10 98q23 132 90.5 231t173.5 160q163 94 400 94h61l31 166h-158l10 54h521l-11 -54h-157l-29 -166h88q230 0 346 -86q129 -99 129 -280q0 -38 -10 -100q-42 -235 -216 -359.5t-441 -124.5h-68l-37 -211h158l-10 -53h-521l9 53h157l39 211h-94 q-95 0 -175.5 19t-149 59.5t-107.5 114t-39 174.5zM293 590q0 -132 68.5 -202.5t222.5 -70.5h69l152 844h-39q-383 0 -459 -426q-14 -74 -14 -145zM858 317h43q382 0 459 420q14 96 14 154q0 131 -70 200.5t-225 69.5h-69z" />
<glyph unicode="&#x425;" horiz-adv-x="1271" d="M-94 0l8 53h119q107 118 248 309l268 353l-240 665h-129l8 54h541l-10 -54h-182l180 -508l254 349q60 84 86 159h-127l10 54h387l-10 -54h-123q-107 -113 -199 -239l-252 -338l269 -750h133l-10 -53h-543l10 53h184l-211 590l-276 -373q-81 -112 -131 -217h164l-10 -53 h-416z" />
<glyph unicode="&#x426;" horiz-adv-x="1507" d="M-39 0l10 53h158l240 1327h-158l10 54h516l-10 -54h-156l-237 -1321h614l240 1321h-156l10 54h519l-13 -54h-157l-238 -1321h203l-72 -462h-55v55q-2 183 -32.5 265t-113.5 83h-1122z" />
<glyph unicode="&#x427;" horiz-adv-x="1353" d="M166 1380l10 54h508l-10 -54h-148l-59 -331q-10 -46 -10 -101q0 -119 73.5 -174t233.5 -55h168l119 661h-148l10 54h510l-10 -54h-158l-239 -1327h158l-9 -53h-518l10 53h156l111 613h-183q-237 0 -361 67t-124 225q0 45 8 89l60 333h-158z" />
<glyph unicode="&#x428;" horiz-adv-x="2062" d="M-39 0l10 53h156l240 1327h-158l10 54h512l-12 -54h-150l-237 -1319h491l240 1319h-148l11 54h499l-10 -54h-149l-238 -1319h494l237 1319h-149l10 54h510l-10 -54h-158l-240 -1327h158l-8 -53h-1911z" />
<glyph unicode="&#x429;" horiz-adv-x="2078" d="M-39 0l10 53h156l240 1327h-158l10 54h512l-12 -54h-150l-237 -1319h491l240 1319h-148l11 54h499l-10 -54h-149l-238 -1319h494l237 1319h-149l10 54h510l-10 -54h-158l-238 -1319h205l-71 -464h-56v41q-2 197 -32 279.5t-119 82.5h-1690z" />
<glyph unicode="&#x42a;" horiz-adv-x="1515" d="M113 975l96 459h788l-8 -54h-160l-110 -612h203q60 0 111 -4.5t108.5 -16t101 -34t80.5 -55.5t56.5 -84.5t19.5 -116.5q0 -104 -35.5 -184.5t-94.5 -131t-141.5 -83t-169.5 -45.5t-186 -13h-553l8 53h160l240 1327h-160q-94 0 -158 -93t-139 -312h-57zM590 53h168 q201 0 316.5 115t115.5 317q0 128 -76 179t-219 51h-186z" />
<glyph unicode="&#x42b;" horiz-adv-x="1880" d="M-39 0l8 53h160l240 1327h-158l10 54h520l-10 -54h-160l-110 -612h203q60 0 111 -4.5t108.5 -16t101 -34t80.5 -55.5t56.5 -84.5t19.5 -116.5q0 -104 -35.5 -184.5t-94.5 -131t-141.5 -83t-169.5 -45.5t-186 -13h-553zM334 53h166q201 0 316.5 115t115.5 317 q0 128 -76 179t-219 51h-184zM1169 0l11 53h159l238 1327h-158l11 54h520l-11 -54h-159l-238 -1327h158l-10 -53h-521z" />
<glyph unicode="&#x42c;" horiz-adv-x="1257" d="M-39 0l8 53h160l240 1327h-158l10 54h520l-10 -54h-160l-110 -612h203q60 0 111 -4.5t108.5 -16t101 -34t80.5 -55.5t56.5 -84.5t19.5 -116.5q0 -104 -35.5 -184.5t-94.5 -131t-141.5 -83t-169.5 -45.5t-186 -13h-553zM334 53h166q201 0 316.5 115t115.5 317 q0 128 -76 179t-219 51h-184z" />
<glyph unicode="&#x42d;" horiz-adv-x="1280" d="M23 84l63 414h61q-2 -31 -2 -95q0 -122 21 -194q25 -93 86.5 -138.5t171.5 -45.5q78 0 146 21.5t119.5 57.5t95.5 89t75 110t57 127.5t43 134.5t31 137h-565l12 74h566q20 130 20 223q0 408 -352 408q-184 0 -301 -162q-52 -73 -115 -280h-61l77 405q200 90 433 90 q132 0 233.5 -41t165 -115t95.5 -173t32 -220q0 -86 -19 -194q-22 -122 -65 -231.5t-110 -204t-152.5 -163.5t-198 -108t-240.5 -39q-120 0 -230 30.5t-193 82.5z" />
<glyph unicode="&#x42e;" horiz-adv-x="1943" d="M-39 0l10 53h156l238 1327h-156l10 54h520l-12 -54h-158l-110 -610h248q28 139 86 260.5t143.5 219t206.5 154t262 56.5q123 0 218.5 -45.5t153.5 -125t87.5 -181.5t29.5 -221q0 -104 -21 -211t-60.5 -209.5t-102.5 -192t-141 -157.5t-181 -107t-219 -39 q-100 0 -181.5 30t-137.5 83t-93.5 126t-55 157.5t-17.5 179.5q0 94 10 160h-245l-119 -654h159l-10 -53h-518zM885 399q0 -374 280 -374q92 0 167.5 40.5t130.5 116t94 167t69 208.5q66 252 66 479q0 371 -283 371q-322 0 -459 -528q-65 -248 -65 -480z" />
<glyph unicode="&#x42f;" horiz-adv-x="1335" d="M-109 0l11 53h88q48 29 86 117q26 58 67 195q29 93 57 152t73 109t110.5 77t159.5 38v9q-132 18 -208.5 85t-76.5 185q0 34 6 72q59 342 545 342h594l-10 -54h-158l-240 -1327h158l-8 -53h-531l11 53h168l118 662h-192q-85 0 -146.5 -22.5t-103 -70t-68 -105.5 t-49.5 -144q-30 -110 -45.5 -161t-46 -115t-67.5 -97h-302zM465 995q0 -107 69 -167t214 -60h172l112 612h-188q-165 0 -254 -70t-117 -218q-8 -44 -8 -97z" />
<glyph unicode="&#x430;" horiz-adv-x="1136" d="M29 344q0 90 23 185t70 184.5t110.5 160.5t152.5 113.5t188 42.5q89 0 152 -43t86 -125h6l70 142h135l-162 -811q-8 -33 -8 -76q0 -70 90 -70q11 0 23 1t26 2.5t23 2.5l-10 -53q-91 -16 -175 -16q-146 0 -157 122q0 38 4 56q-61 -93 -138.5 -141t-183.5 -48 q-85 0 -148.5 28.5t-101.5 80t-56.5 117t-18.5 145.5zM225 303q0 -49 7.5 -91t25 -84t54.5 -66.5t89 -24.5q47 0 89 18t72 46t57 71.5t44.5 83.5t34 93.5t25 90t18.5 84.5q31 164 31 217q0 36 -5 67.5t-17.5 61.5t-32 51t-50.5 33.5t-71 12.5q-52 0 -98.5 -25t-84 -70 t-67 -98.5t-53.5 -118.5q-68 -191 -68 -352z" />
<glyph unicode="&#x431;" horiz-adv-x="1038" d="M31 365q0 145 49 293t137 278q243 352 735 524l29 -49q-153 -63 -292.5 -170t-242.5 -240q73 29 150 29q169 0 267 -113.5t98 -291.5q0 -96 -23.5 -189.5t-71 -177t-112.5 -147t-154 -101t-190 -37.5q-177 0 -278 107t-101 285zM221 262q0 -235 185 -235q77 0 142.5 54 t107 136t71.5 181.5t42.5 187.5t12.5 157q0 50 -9.5 90t-30 73.5t-57.5 52t-89 18.5q-64 0 -120.5 -38t-96 -100.5t-71 -139t-50 -158t-28 -152.5t-9.5 -127z" />
<glyph unicode="&#x432;" horiz-adv-x="1071" d="M109 125q0 47 20 137l137 688h-147l10 54h469q202 0 281 -50q43 -26 68.5 -67t25.5 -90q0 -102 -78.5 -171t-194.5 -96v-8q108 -22 171 -68t63 -135q0 -83 -45 -148.5t-121 -107.5q-142 -79 -412 -79q-247 0 -247 141zM295 113q0 -66 111 -66q205 0 288 129q49 68 49 158 q0 160 -272 160h-109q-38 -188 -51 -248q-16 -75 -16 -133zM373 547h96q215 0 287 143q28 54 28 125q0 43 -17.5 71.5t-50.5 41.5t-64.5 17.5t-73.5 4.5h-125z" />
<glyph unicode="&#x433;" horiz-adv-x="964" d="M76 0l190 950h-147l10 54h836l-62 -326h-69q-6 134 -13 180q-10 57 -35.5 74.5t-91.5 17.5h-239l-181 -897h150l-10 -53h-338z" />
<glyph unicode="&#x434;" horiz-adv-x="1173" d="M-158 -342l95 401h32q66 0 132 61t112.5 145.5t75.5 178.5q70 217 151 506h-125l11 54h723l-187 -945h182l-63 -401h-61q2 12 2 39q0 303 -115 303h-662q-65 0 -119.5 -87.5t-119.5 -254.5h-64zM172 59h502l176 885h-342l-154 -551q-58 -204 -182 -334z" />
<glyph unicode="&#x435;" horiz-adv-x="964" d="M31 356q0 96 25 192.5t74.5 183t117 153t160.5 106t198 39.5q127 0 209 -59t82 -178q0 -62 -24.5 -111.5t-63 -82t-95 -56t-111.5 -35.5t-122.5 -19.5t-118 -10t-106.5 -3.5h-10q-21 -103 -21 -151q0 -47 5 -85.5t20 -77.5t39 -65.5t65.5 -43.5t96.5 -17 q130 0 223.5 74.5t165.5 205.5l59 -28q-177 -314 -498 -314q-370 0 -370 383zM258 530q54 3 91.5 6.5t93.5 12.5t95.5 21.5t83 34.5t70 51t44.5 71.5t18 95.5q0 71 -39 113.5t-111 42.5q-62 0 -115.5 -29.5t-89 -74t-65 -107.5t-46.5 -119t-30 -119z" />
<glyph unicode="&#x436;" horiz-adv-x="1691" d="M-59 0l12 53h108l527 563q-75 110 -120 167t-75 73q-67 42 -164 45l19 103h260l-10 -54q0 -97 41 -155l172 -238l75 -8l86 455h189l-92 -455l71 8l254 238q74 67 109 155l10 54h260l-18 -103q-115 -2 -193 -53q-34 -21 -79 -59t-195 -177q214 -389 272 -495 q38 -68 107 -68q25 0 57 4l-12 -53q-78 -16 -164 -16q-148 0 -201 104q-44 76 -215 414l-76 -10l-94 -492h-188l100 492l-67 8l-443 -500h-323z" />
<glyph unicode="&#x437;" horiz-adv-x="925" d="M12 236q0 49 15 118h77q-6 -93 -6 -94q0 -231 209 -231q128 0 208.5 86.5t80.5 212.5q0 55 -20.5 92.5t-58.5 55.5t-78 25t-93 7q-18 0 -45 -6l10 63h54q124 0 203 75t79 200q0 66 -40.5 101.5t-106.5 35.5q-42 0 -87 -13.5t-75 -37.5q-65 -56 -119 -238h-90l72 289 q151 53 309 53q330 0 330 -203q0 -62 -22.5 -110.5t-65 -82t-93.5 -55.5t-116 -38v-4q252 -46 252 -222q0 -85 -45 -153t-117.5 -108t-155.5 -60.5t-166 -20.5q-299 0 -299 263z" />
<glyph unicode="&#x438;" horiz-adv-x="1175" d="M113 950l10 54h334l-135 -670q-19 -93 -19 -146q0 -139 117 -139q69 0 132.5 46.5t111.5 113.5q65 93 94 242l108 553h187l-160 -811q-8 -33 -8 -76q0 -70 90 -70q11 0 23 1t26 2.5t23 2.5l-11 -53q-94 -16 -176 -16q-142 0 -153 122q-3 41 8 101q-135 -234 -369 -234 q-110 0 -167.5 57t-57.5 167q0 58 14 133l123 620h-145z" />
<glyph unicode="&#x439;" horiz-adv-x="1175" d="M113 950l10 54h334l-135 -670q-19 -93 -19 -146q0 -139 117 -139q69 0 132.5 46.5t111.5 113.5q65 93 94 242l108 553h187l-160 -811q-8 -33 -8 -76q0 -70 90 -70q11 0 23 1t26 2.5t23 2.5l-11 -53q-94 -16 -176 -16q-142 0 -153 122q-3 41 8 101q-135 -234 -369 -234 q-110 0 -167.5 57t-57.5 167q0 58 14 133l123 620h-145zM444 1464l58 11q3 -94 54 -138.5t151 -44.5q198 0 254 183l61 -11q-79 -295 -334 -295q-69 0 -118 22t-75.5 63t-38.5 92t-12 118z" />
<glyph unicode="&#x43a;" horiz-adv-x="1095" d="M76 0l190 950h-147l8 54h336l-92 -459l98 10q24 26 68 71.5t77 80t39 41.5q87 93 131 192q11 23 15 64h278l-20 -103q-68 0 -143 -33t-128 -82q-13 -11 -35.5 -32t-62.5 -58.5t-80 -74.5q44 -84 99 -190t93 -179t72 -135q41 -68 109 -68q25 0 57 4l-12 -53 q-102 -16 -164 -16q-74 0 -124 25.5t-81 86.5q-39 74 -202 408l-95 -12l-96 -492h-188z" />
<glyph unicode="&#x43b;" horiz-adv-x="1175" d="M-78 -14l29 151q44 -14 76 -14q85 0 154.5 95t107.5 226l151 506h-125l11 54h723l-162 -811q-8 -33 -8 -76q0 -70 90 -70q11 0 22.5 1t25.5 2.5t23 2.5l-12 -53q-91 -16 -174 -16q-74 0 -117 34.5t-43 106.5q0 38 17 125l139 694h-342l-154 -551q-18 -63 -40 -118.5 t-55.5 -111t-72.5 -95t-92 -64t-112 -24.5q-30 0 -60 6z" />
<glyph unicode="&#x43c;" horiz-adv-x="1540" d="M-78 -20l23 145q8 -2 26 -2q83 0 150.5 88.5t107.5 232.5l144 506h-152l10 54h359l131 -768l485 768h213l-157 -811q-9 -38 -9 -76q0 -70 88 -70q12 0 24.5 1t27 2.5t22.5 2.5l-12 -53q-88 -16 -174 -16q-160 0 -160 141q0 43 16 125l123 622l-546 -878h-97l-147 878 l-123 -479q-107 -413 -346 -413h-27z" />
<glyph unicode="&#x43d;" horiz-adv-x="1177" d="M76 0l190 950h-147l12 54h332l-90 -453h411l90 453h189l-164 -811q-6 -25 -6 -76q0 -70 90 -70q11 0 22.5 1t25 2.5l22.5 2.5l-11 -53q-91 -16 -174 -16q-159 0 -159 141q0 29 14 125l49 237h-412l-96 -487h-188z" />
<glyph unicode="&#x43e;" horiz-adv-x="1038" d="M31 365q0 118 38.5 235t107 213.5t176 156.5t233.5 60q178 0 276.5 -114t98.5 -291q0 -94 -23.5 -187t-70.5 -177t-111.5 -148t-154 -102t-191.5 -38q-180 0 -279.5 108.5t-99.5 283.5zM221 262q0 -235 185 -235q77 0 143 55t107.5 137.5t71 182.5t42 187t12.5 154 q0 234 -186 234q-65 0 -122 -38.5t-96.5 -101.5t-70.5 -139.5t-49.5 -158.5t-27.5 -152t-9 -125z" />
<glyph unicode="&#x43f;" horiz-adv-x="1177" d="M76 0l190 950h-147l12 54h326l-39 -189h4q131 215 356 215q234 0 234 -223q0 -42 -17 -133l-96 -481q-6 -37 -6 -76q0 -70 88 -70q3 0 72 6l-11 -53q-88 -16 -174 -16q-159 0 -159 141q0 29 14 125l84 420q20 98 20 145q0 143 -122 143q-135 0 -236 -143 q-66 -98 -92 -244l-113 -571h-188z" />
<glyph unicode="&#x440;" horiz-adv-x="1146" d="M-2 -393l268 1343h-147l12 54h328l-33 -158q52 86 134 135t183 49q164 0 245 -103t81 -268q0 -89 -22 -183t-67.5 -184t-107.5 -161t-150 -114.5t-187 -43.5q-192 0 -246 156l-94 -469h157l-12 -53h-342zM326 268q0 -63 16 -112.5t59 -84t109 -34.5q59 0 111.5 34 t91 91.5t65.5 118t47 129.5q47 155 47 288q0 48 -7.5 91t-25.5 85.5t-54.5 67.5t-88.5 25q-47 0 -88 -15.5t-71 -39.5t-56 -62.5t-43 -74.5t-33 -86t-25 -87t-20 -86q-34 -170 -34 -248z" />
<glyph unicode="&#x441;" horiz-adv-x="952" d="M31 356q0 99 25.5 196t77 183t121 152t164.5 104.5t202 38.5q128 0 195 -61.5t67 -184.5q0 -75 -19 -153h-129q23 109 23 178q0 72 -32 122t-101 50q-80 0 -148 -48.5t-113 -123t-77 -165.5t-46 -174.5t-14 -152.5q0 -280 209 -280q133 0 225.5 74t159.5 204l60 -28 q-83 -153 -202 -233.5t-286 -80.5q-181 0 -271.5 101.5t-90.5 281.5z" />
<glyph unicode="&#x442;" horiz-adv-x="966" d="M63 672l78 334h844l-57 -334h-68v51q-2 122 -23.5 174.5t-80.5 52.5h-111l-178 -895h143l-8 -55h-336l193 950h-109q-65 0 -111 -63t-106 -215h-70z" />
<glyph unicode="&#x443;" horiz-adv-x="987" d="M-188 -217q0 45 8 84h100q-6 -47 -6 -92q0 -137 115 -137q50 0 111 38.5t115 96.5t96.5 114.5t70.5 104.5h-45l-230 958h-116l10 54h289l205 -848q218 365 315 794h-137l8 54h266q-145 -498 -452 -961q-29 -44 -51 -75.5t-61 -83.5t-72 -89.5t-77 -80.5t-84 -70 t-86 -45.5t-88 -18.5q-98 0 -151 51t-53 152z" />
<glyph unicode="&#x444;" horiz-adv-x="1708" d="M29 344q0 85 14 156q20 97 64.5 189t110 169.5t158 124.5t197.5 47q84 0 146 -44t88 -122l100 516h-153l8 54h344l-117 -576q51 83 132 127.5t184 44.5q84 0 148 -29t102.5 -80t57.5 -117t19 -145q0 -112 -36.5 -230.5t-101.5 -221t-169.5 -168.5t-226.5 -66 q-193 0 -248 158l-92 -471h160l-15 -53h-344l109 536q-111 -170 -314 -170q-111 0 -186 50.5t-107 131.5t-32 189zM225 303q0 -48 7.5 -91t25.5 -84.5t54.5 -66t88.5 -24.5q61 0 111 26t85.5 73.5t60 98.5t44.5 117q42 177 46 201q24 126 24 188q0 36 -5 67.5t-17.5 61.5 t-32 51t-50.5 33.5t-71 12.5q-52 0 -99.5 -26.5t-85 -72.5t-66 -98.5t-52.5 -114.5q-68 -191 -68 -352zM889 268q0 -64 15.5 -113t58.5 -83.5t110 -34.5q48 0 91.5 23.5t76.5 59.5t62.5 87t49 100t36.5 103q47 165 47 288q0 48 -8 91.5t-26.5 85.5t-55.5 67t-89 25 q-238 0 -317 -371q-31 -144 -43 -217q-8 -47 -8 -111z" />
<glyph unicode="&#x445;" horiz-adv-x="1003" d="M-16 0q9 53 44.5 107t96.5 126q65 76 268 271l-180 446h-125l8 54h314l143 -379q102 106 154 180q77 99 92 199h143q-17 -78 -133 -211q-82 -91 -231 -228q49 -127 184 -452q25 -66 96 -66q6 0 66 6l-13 -53q-91 -16 -174 -16q-139 0 -180 106q-65 160 -139 350 q-144 -152 -219 -256q-60 -89 -76 -184h-139z" />
<glyph unicode="&#x446;" horiz-adv-x="1191" d="M113 950l10 54h334l-135 -670q-19 -93 -19 -146q0 -139 117 -139q69 0 132.5 46.5t111.5 113.5q65 93 94 242l108 553h187l-160 -811q-8 -33 -8 -76q0 -70 90 -70q38 0 98 12l-80 -401h-61q8 71 8 152q0 128 -33 174h-47q-142 0 -153 122q-3 41 8 101 q-135 -234 -369 -234q-110 0 -167.5 57t-57.5 167q0 58 14 133l123 620h-145z" />
<glyph unicode="&#x447;" horiz-adv-x="1091" d="M63 950l11 54h334l-58 -273q-6 -35 -6 -63q0 -154 229 -154h119l99 490h186l-164 -811q-6 -37 -6 -76q0 -70 90 -70q11 0 23 1t26 2.5t23 2.5l-11 -53q-91 -16 -176 -16q-159 0 -159 141q0 43 16 125l43 209q-106 -4 -164 -4q-358 5 -358 213q0 28 6 63l45 219h-148z" />
<glyph unicode="&#x448;" horiz-adv-x="1701" d="M115 950l12 54h332l-135 -674q-17 -80 -17 -142q0 -139 109 -139q120 0 229 160q56 87 86 242l109 553h190l-137 -674q-16 -94 -16 -142q0 -139 108 -139q66 0 125.5 46t103.5 114q60 93 89 242l108 553h186l-165 -828q-5 -50 -5 -59q0 -37 25.5 -53.5t63.5 -16.5 q4 0 73 6l-10 -53q-91 -16 -174 -16q-70 0 -111.5 31.5t-44.5 95.5q-3 33 4 75q-125 -213 -342 -213q-206 0 -215 203q0 17 -2 27q-59 -108 -148 -169t-204 -61q-219 0 -219 222q0 66 16 135l123 620h-147z" />
<glyph unicode="&#x449;" horiz-adv-x="1734" d="M115 950l12 54h332l-135 -674q-17 -80 -17 -142q0 -139 109 -139q120 0 229 160q56 87 86 242l109 553h190l-137 -674q-16 -94 -16 -142q0 -139 108 -139q66 0 125.5 46t103.5 114q60 93 89 242l108 553h186l-165 -828q-5 -50 -5 -59q0 -37 25.5 -53.5t63.5 -16.5 q40 0 102 12l-82 -401h-59q6 80 6 152q0 128 -33 174h-45q-70 0 -111.5 31.5t-44.5 95.5q-3 33 4 75q-125 -213 -342 -213q-206 0 -215 203q0 19 -2 27q-59 -108 -148 -169t-204 -61q-219 0 -219 222q0 66 16 135l123 620h-147z" />
<glyph unicode="&#x44a;" horiz-adv-x="1216" d="M68 672l73 332h518l-90 -457h154q189 0 260 -37q113 -58 113 -174q0 -82 -37.5 -146t-95.5 -102t-137.5 -63t-154 -34t-153.5 -9q-211 0 -211 143q0 38 17 125l139 700h-111q-64 0 -111 -63.5t-106 -214.5h-67zM489 115q0 -34 25.5 -53t67.5 -19q135 0 228 82t93 225 q0 75 -52 109.5t-165 34.5h-129l-59 -301q-9 -37 -9 -78z" />
<glyph unicode="&#x44b;" horiz-adv-x="1507" d="M111 125q0 43 16 125l139 700h-147l12 54h332l-90 -457h153q189 0 260 -37q115 -58 115 -174q0 -82 -37.5 -146t-95.5 -102t-137 -63t-153.5 -34t-153.5 -9q-213 0 -213 143zM293 115q0 -34 25.5 -53t66.5 -19q136 0 229 82t93 225q0 75 -52 109.5t-163 34.5h-132 l-59 -301q-8 -33 -8 -78zM1057 125q0 43 16 125l139 700h-145l10 54h334l-164 -811q-6 -25 -6 -76q0 -70 90 -70q11 0 23 1t26 2.5t23 2.5l-10 -53q-91 -16 -176 -16q-160 0 -160 141z" />
<glyph unicode="&#x44c;" horiz-adv-x="1019" d="M111 125q0 43 16 125l139 700h-147l12 54h332l-90 -457h153q189 0 260 -37q115 -58 115 -174q0 -82 -37.5 -146t-95.5 -102t-137 -63t-153.5 -34t-153.5 -9q-213 0 -213 143zM293 115q0 -34 25.5 -53t66.5 -19q136 0 229 82t93 225q0 75 -52 109.5t-163 34.5h-132 l-59 -301q-8 -33 -8 -78z" />
<glyph unicode="&#x44d;" horiz-adv-x="1003" d="M12 295l68 16q5 -132 69 -203t187 -71q77 0 140.5 37t108 102t74 141.5t48.5 167.5h-426l12 66h426q16 98 16 172q0 258 -211 258q-169 0 -254 -195q-22 -47 -43 -120h-116l63 245q174 119 375 119q181 0 280 -101t99 -280q0 -122 -41 -241.5t-113.5 -217t-184 -157.5 t-241.5 -60q-330 0 -336 322z" />
<glyph unicode="&#x44e;" horiz-adv-x="1556" d="M82 0l190 950h-120l8 54h311l-90 -455h168q54 211 200 344t357 133q183 0 279 -105t96 -278q0 -65 -15 -139q-22 -110 -70 -204.5t-118.5 -167t-168 -114t-210.5 -41.5q-186 0 -281.5 105.5t-95.5 277.5q0 57 13 127h-168l-95 -487h-190zM709 264q0 -231 198 -231 q66 0 120 26.5t90 67.5t65 103t46 121.5t32 135.5q32 164 32 254q0 230 -196 230q-66 0 -120.5 -26t-90.5 -67t-65.5 -103t-46.5 -121.5t-32 -135.5q-32 -160 -32 -254z" />
<glyph unicode="&#x44f;" horiz-adv-x="1083" d="M-98 0l10 53h74q14 11 33 35.5t26 42.5q26 60 45 125q42 120 101 180t176 82v8q-189 44 -189 185q0 24 6 51q47 242 437 242h356l-164 -811q-6 -37 -6 -76q0 -70 90 -70q11 0 23 1t26 2.5t23 2.5l-11 -53q-91 -16 -176 -16q-159 0 -159 141q0 43 16 125l49 244h-135 q-61 0 -105 -15.5t-74.5 -47.5t-50.5 -70t-38 -95q-32 -108 -59 -169t-70 -97h-254zM367 698q0 -71 52.5 -111t158.5 -40h120l80 403h-131q-118 0 -185 -46.5t-87 -141.5q-8 -31 -8 -64z" />
</font>
</defs>
</svg>
