<?xml version="1.0" encoding="iso-8859-1"?>
<!-- Generator: Adobe Illustrator 16.0.0, SVG Export Plug-In . SVG Version: 6.00 Build 0)  -->
<!DOCTYPE svg PUBLIC "-//W3C//DTD SVG 1.1//EN" "http://www.w3.org/Graphics/SVG/1.1/DTD/svg11.dtd">
<svg version="1.1" xmlns="http://www.w3.org/2000/svg" xmlns:xlink="http://www.w3.org/1999/xlink" x="0px" y="0px"
	 width="50px" height="40px" viewBox="0 0 77.971 65.815" style="enable-background:new 0 0 77.971 65.815;"
	 xml:space="preserve">
<g id="Layer_26">
	<path style="fill:#fba117;" d="M77.682,32.886l-7-12.125c-0.311-0.537-0.883-0.867-1.502-0.867c-0.621,0-1.193,0.33-1.504,0.867
		l-7.051,12.215c-0.311,0.537-0.311,1.198,0,1.734c0.311,0.537,0.883,0.868,1.502,0.868h5.242
		c-0.523,6.439-3.156,12.485-7.596,17.32c-5.275,5.743-12.473,9.089-20.264,9.42c-7.359,0.312-14.505-2.138-20.12-6.899
		c-0.731-0.62-1.826-0.529-2.446,0.201c-0.62,0.73-0.53,1.826,0.201,2.445c5.926,5.025,13.374,7.75,21.11,7.75
		c0.466,0,0.934-0.01,1.402-0.029c8.718-0.371,16.769-4.113,22.673-10.54c5.033-5.481,7.988-12.354,8.52-19.668h5.381
		c0.002,0,0.002,0,0.004,0c0.959,0,1.736-0.776,1.736-1.735C77.971,33.489,77.863,33.16,77.682,32.886z"/>
	<path style="fill:#fba117;" d="M61.588,8.409C54.4,1.935,44.789-1.017,35.216,0.312C19.276,2.526,7.601,15.958,7.061,31.521H1.735
		c-0.62,0-1.193,0.33-1.503,0.867s-0.31,1.199,0,1.736l7.052,12.214c0.31,0.536,0.883,0.867,1.503,0.867s1.193-0.331,1.503-0.867
		l7.052-12.214c0.31-0.537,0.31-1.199,0-1.736s-0.883-0.867-1.503-0.867h-5.306C11.072,17.664,21.489,5.724,35.694,3.75
		c8.556-1.188,17.148,1.45,23.572,7.237c0.711,0.642,1.809,0.585,2.451-0.127C62.357,10.147,62.301,9.051,61.588,8.409z"/>
</g>
<g id="Layer_1">
</g>
</svg>
