<?xml version="1.0" encoding="iso-8859-1"?>
<!-- Generator: Adobe Illustrator 16.0.0, SVG Export Plug-In . SVG Version: 6.00 Build 0)  -->
<!DOCTYPE svg PUBLIC "-//W3C//DTD SVG 1.1//EN" "http://www.w3.org/Graphics/SVG/1.1/DTD/svg11.dtd">
<svg version="1.1" xmlns="http://www.w3.org/2000/svg" xmlns:xlink="http://www.w3.org/1999/xlink" x="0px" y="0px"
	 width="20px" height="20px" viewBox="0 0 26.475 26.475" style="enable-background:new 0 0 26.475 26.475;"
	 xml:space="preserve">
<g id="Layer_30">
	<path style="fill:#F99F21;" d="M13.236,0C5.938,0,0,5.938,0,13.237s5.938,13.237,13.236,13.237s13.238-5.938,13.238-13.237
		S20.535,0,13.236,0z M13.236,24.892c-6.426,0-11.654-5.229-11.654-11.654S6.811,1.583,13.236,1.583s11.654,5.229,11.654,11.654
		S19.662,24.892,13.236,24.892z"/>
	<path style="fill:#F99F21;" d="M19.611,13.111H6.674c-0.451,0-0.816,0.366-0.816,0.815c0,4.017,3.268,7.284,7.285,7.284
		c4.016,0,7.283-3.268,7.283-7.284C20.426,13.478,20.061,13.111,19.611,13.111z M13.143,19.581c-2.814,0-5.195-2.07-5.596-4.84
		h11.191C18.336,17.511,15.955,19.581,13.143,19.581z"/>
	<circle style="fill:#F99F21;" cx="7.805" cy="9.748" r="1.56"/>
	<circle style="fill:#F99F21;" cx="18.646" cy="9.748" r="1.56"/>
</g>
<g id="Layer_1">
</g>
</svg>
