<?xml version="1.0" encoding="iso-8859-1"?>
<!-- Generator: Adobe Illustrator 16.0.0, SVG Export Plug-In . SVG Version: 6.00 Build 0)  -->
<!DOCTYPE svg PUBLIC "-//W3C//DTD SVG 1.1//EN" "http://www.w3.org/Graphics/SVG/1.1/DTD/svg11.dtd">
<svg version="1.1" xmlns="http://www.w3.org/2000/svg" xmlns:xlink="http://www.w3.org/1999/xlink" x="0px" y="0px"
	 width="27.816px" height="23.932px" viewBox="0 0 27.816 23.932" style="enable-background:new 0 0 27.816 23.932;"
	 xml:space="preserve">
<g id="Layer_39">
	<path style="fill:#949494;" d="M9.041,10.223c-0.393,0-0.753-0.259-0.866-0.654L5.97,1.801H0.9C0.403,1.801,0,1.397,0,0.9
		S0.403,0,0.9,0h5.749c0.402,0,0.756,0.268,0.866,0.654l2.392,8.422c0.136,0.479-0.143,0.977-0.62,1.112
		C9.205,10.211,9.122,10.223,9.041,10.223z"/>
	<path style="fill:#949494;" d="M12.149,23.932c-1.929,0-3.499-1.57-3.499-3.501c0-1.93,1.57-3.499,3.499-3.499
		c1.93,0,3.501,1.569,3.501,3.499C15.65,22.361,14.079,23.932,12.149,23.932z M12.149,18.842c-0.876,0-1.59,0.713-1.59,1.589
		c0,0.878,0.714,1.591,1.59,1.591c0.877,0,1.592-0.713,1.592-1.591C13.741,19.555,13.026,18.842,12.149,18.842z"/>
	<path style="fill:#949494;" d="M22.149,23.932c-1.929,0-3.499-1.57-3.499-3.501c0-1.93,1.57-3.499,3.499-3.499
		c1.93,0,3.501,1.569,3.501,3.499C25.65,22.361,24.079,23.932,22.149,23.932z M22.149,18.842c-0.876,0-1.59,0.713-1.59,1.589
		c0,0.878,0.714,1.591,1.59,1.591c0.877,0,1.592-0.713,1.592-1.591C23.741,19.555,23.026,18.842,22.149,18.842z"/>
	<path style="fill:#949494;" d="M24.752,14.932H10.296c-0.433,0-0.813-0.284-0.923-0.691L6.681,4.301
		C6.606,4.023,6.668,3.727,6.85,3.5c0.18-0.228,0.46-0.36,0.756-0.36h19.256c0.286,0,0.559,0.125,0.74,0.341
		c0.181,0.216,0.254,0.499,0.195,0.771l-2.109,9.939C25.597,14.622,25.205,14.932,24.752,14.932z M10.9,12.932h13l1.667-8H8.9
		L10.9,12.932z"/>
</g>
<g id="Layer_1">
</g>
</svg>
