<?xml version="1.0" encoding="iso-8859-1"?>
<!-- Generator: Adobe Illustrator 16.0.0, SVG Export Plug-In . SVG Version: 6.00 Build 0)  -->
<!DOCTYPE svg PUBLIC "-//W3C//DTD SVG 1.1//EN" "http://www.w3.org/Graphics/SVG/1.1/DTD/svg11.dtd">
<svg version="1.1" xmlns="http://www.w3.org/2000/svg" xmlns:xlink="http://www.w3.org/1999/xlink" x="0px" y="0px"
	 width="24.206px" height="24.153px" viewBox="0 0 24.206 24.153" style="enable-background:new 0 0 24.206 24.153;"
	 xml:space="preserve">
<g id="Layer_44">
	<path style="fill:#949494;" d="M22.4,7.266c0.308,0.308,0.307,0.807,0,1.114L11.17,19.609c-0.308,0.308-0.806,0.308-1.113,0
		l-5.461-5.46c-0.307-0.308-0.307-0.806,0-1.113l11.23-11.23c0.308-0.308,0.807-0.308,1.113-0.001L22.4,7.266 M23.515,6.152
		l-5.461-5.461c-0.921-0.921-2.42-0.922-3.342,0l-11.23,11.23c-0.921,0.921-0.921,2.421,0,3.342l5.461,5.461
		c0.921,0.921,2.42,0.92,3.341-0.001l11.23-11.23C24.436,8.571,24.436,7.073,23.515,6.152L23.515,6.152z"/>
	<path style="fill:#949494;" d="M0.231,23.923c-0.002-0.001-0.002-0.001-0.003-0.003c-0.2-0.203-0.276-0.497-0.197-0.771
		l2.784-9.769c0.12-0.418,0.556-0.66,0.974-0.542c0.418,0.12,0.661,0.556,0.541,0.975l-2.4,8.42l8.746-2.411
		c0.419-0.117,0.854,0.129,0.969,0.549c0.116,0.42-0.13,0.854-0.55,0.969L0.997,24.125C0.724,24.2,0.431,24.123,0.231,23.923z"/>
	<polyline style="fill:#949494;" points="2.141,20.121 1.369,22.832 4.17,22.06 	"/>
	<g>
		<line style="fill:#949494;" x1="19.701" y1="4.566" x2="7.095" y2="17.173"/>
		
			<rect x="12.721" y="1.845" transform="matrix(0.7074 0.7068 -0.7068 0.7074 11.5569 -6.4006)" style="fill:#949494;" width="1.576" height="17.828"/>
	</g>
</g>
<g id="Layer_1">
</g>
</svg>
