<?xml version="1.0" encoding="utf-8"?>
<!-- Generator: Adobe Illustrator 16.0.0, SVG Export Plug-In . SVG Version: 6.00 Build 0)  -->
<!DOCTYPE svg PUBLIC "-//W3C//DTD SVG 1.1//EN" "http://www.w3.org/Graphics/SVG/1.1/DTD/svg11.dtd">
<svg version="1.1" id="Layer_1" xmlns="http://www.w3.org/2000/svg" xmlns:xlink="http://www.w3.org/1999/xlink" x="0px" y="0px"
	 width="8px" height="13px" viewBox="0 0 8 13" enable-background="new 0 0 8 13" xml:space="preserve">
<path fill="#949494" d="M7,0H1C0.448,0,0,0.447,0,1v11c0,0.553,0.448,1,1,1h6c0.552,0,1-0.447,1-1V1C8,0.447,7.552,0,7,0z M4.5,12
	h-1C3.224,12,3,11.776,3,11.5S3.224,11,3.5,11h1C4.776,11,5,11.224,5,11.5S4.776,12,4.5,12z M7,9c0,0.553-0.448,1-1,1H2
	c-0.552,0-1-0.447-1-1V2c0-0.553,0.448-1,1-1h4c0.552,0,1,0.447,1,1V9z"/>
</svg>
