<?xml version="1.0" encoding="utf-8"?>
<!-- Generator: Adobe Illustrator 16.0.0, SVG Export Plug-In . SVG Version: 6.00 Build 0)  -->
<!DOCTYPE svg PUBLIC "-//W3C//DTD SVG 1.1//EN" "http://www.w3.org/Graphics/SVG/1.1/DTD/svg11.dtd">
<svg version="1.1" id="Layer_1" xmlns="http://www.w3.org/2000/svg" xmlns:xlink="http://www.w3.org/1999/xlink" x="0px" y="0px"
	 width="29px" height="29px" viewBox="0 0 29 29" enable-background="new 0 0 29 29" xml:space="preserve">
<g>
	<g>
		<path stroke="#000000" stroke-width="0.1937" stroke-miterlimit="10" d="M14.318,5.433H14.29c-4.953,0-9.021,4.056-9.067,9.043
			c-0.046,4.976,4.019,9.065,9.064,9.113l0.089,0.002c4.955,0,8.999-4.063,9.014-9.059C23.406,9.529,19.336,5.448,14.318,5.433z
			 M14.303,22.654L14.303,22.654c-2.18-0.001-4.229-0.851-5.771-2.393c-1.542-1.541-2.39-3.587-2.388-5.755
			C6.15,10.02,9.81,6.371,14.307,6.371c2.197,0.002,4.251,0.85,5.79,2.391c1.536,1.54,2.378,3.595,2.374,5.783
			C22.46,19.019,18.797,22.654,14.303,22.654z"/>
	</g>
	<path d="M14.374,20.164c-2.77,0-5.023-2.254-5.023-5.023c0-0.267,0.216-0.484,0.484-0.484h9.078c0.268,0,0.484,0.218,0.484,0.484
		C19.396,17.91,17.143,20.164,14.374,20.164z M10.347,15.626c0.241,2.007,1.955,3.568,4.027,3.568s3.786-1.562,4.026-3.568H10.347z"
		/>
	<path d="M10.138,12.965c-0.091,0-0.183-0.025-0.265-0.08c-0.152-0.1-0.229-0.27-0.217-0.439c-0.025-0.369-0.073-1.157,0.401-1.666
		c0.176-0.188,0.499-0.414,1.035-0.414c0.424,0,0.783,0.156,1.038,0.448c0.532,0.612,0.41,1.605,0.395,1.718
		c-0.038,0.264-0.283,0.438-0.545,0.412c-0.265-0.037-0.45-0.28-0.415-0.545c0.029-0.215,0.026-0.73-0.167-0.95
		c-0.046-0.053-0.123-0.113-0.306-0.113c-0.227,0-0.301,0.079-0.326,0.105c-0.195,0.208-0.158,0.727-0.146,0.896
		c0.01,0.131,0.019,0.267-0.076,0.41C10.451,12.889,10.296,12.965,10.138,12.965z"/>
	<path d="M16.603,13.02c-0.092,0-0.186-0.026-0.269-0.081c-0.15-0.1-0.227-0.271-0.214-0.438c-0.025-0.37-0.071-1.157,0.401-1.665
		c0.176-0.188,0.498-0.414,1.034-0.414c0.424,0,0.783,0.155,1.038,0.448c0.532,0.611,0.41,1.605,0.395,1.719
		c-0.037,0.263-0.283,0.446-0.544,0.411c-0.265-0.037-0.45-0.28-0.415-0.545c0.028-0.215,0.025-0.73-0.167-0.95
		c-0.047-0.053-0.124-0.113-0.307-0.113c-0.227,0-0.301,0.079-0.326,0.105c-0.194,0.208-0.158,0.726-0.146,0.896
		c0.009,0.132,0.018,0.268-0.079,0.412C16.913,12.944,16.759,13.02,16.603,13.02z"/>
	<g>
		<path d="M14.5,29c-0.267,0-0.484-0.217-0.484-0.484v-2.84c0-0.268,0.217-0.484,0.484-0.484s0.484,0.217,0.484,0.484v2.84
			C14.984,28.783,14.767,29,14.5,29z"/>
	</g>
	<g>
		<path d="M14.5,3.809c-0.267,0-0.484-0.217-0.484-0.484v-2.84C14.015,0.217,14.232,0,14.5,0s0.484,0.217,0.484,0.484v2.84
			C14.984,3.592,14.767,3.809,14.5,3.809z"/>
	</g>
	<g>
		<path d="M3.325,14.985h-2.84C0.217,14.985,0,14.768,0,14.501c0-0.268,0.217-0.484,0.484-0.484h2.84
			c0.268,0,0.484,0.217,0.484,0.484C3.809,14.768,3.592,14.985,3.325,14.985z"/>
	</g>
	<g>
		<path d="M28.515,14.985h-2.841c-0.268,0-0.484-0.218-0.484-0.484c0-0.268,0.217-0.484,0.484-0.484h2.841
			c0.267,0,0.484,0.217,0.484,0.484C28.999,14.768,28.782,14.985,28.515,14.985z"/>
	</g>
	<g>
		<path d="M4.589,24.896c-0.124,0-0.248-0.048-0.342-0.143c-0.189-0.188-0.189-0.495,0-0.684l2.008-2.011
			c0.189-0.189,0.496-0.189,0.685,0c0.189,0.188,0.189,0.496,0,0.685l-2.008,2.01C4.837,24.848,4.713,24.896,4.589,24.896z"/>
	</g>
	<g>
		<path d="M22.401,7.084c-0.124,0-0.248-0.049-0.342-0.143c-0.189-0.189-0.189-0.496,0-0.685l2.009-2.01
			c0.189-0.19,0.496-0.19,0.685,0c0.189,0.188,0.189,0.495,0,0.684l-2.009,2.011C22.649,7.035,22.525,7.084,22.401,7.084z"/>
	</g>
	<g>
		<path d="M6.598,7.084c-0.124,0-0.248-0.049-0.343-0.143L4.247,4.931c-0.189-0.188-0.189-0.495,0-0.684
			c0.189-0.19,0.496-0.19,0.685,0l2.009,2.01c0.189,0.188,0.189,0.495,0,0.685C6.846,7.035,6.722,7.084,6.598,7.084z"/>
	</g>
	<g>
		<path d="M24.41,24.896c-0.124,0-0.248-0.048-0.343-0.143l-2.009-2.01c-0.188-0.188-0.188-0.496,0-0.685
			c0.189-0.189,0.496-0.189,0.685,0l2.009,2.011c0.189,0.188,0.189,0.495,0,0.684C24.658,24.848,24.534,24.896,24.41,24.896z"/>
	</g>
</g>
</svg>
