<?xml version="1.0" encoding="iso-8859-1"?>
<!-- Generator: Adobe Illustrator 16.0.0, SVG Export Plug-In . SVG Version: 6.00 Build 0)  -->
<!DOCTYPE svg PUBLIC "-//W3C//DTD SVG 1.1//EN" "http://www.w3.org/Graphics/SVG/1.1/DTD/svg11.dtd">
<svg version="1.1" xmlns="http://www.w3.org/2000/svg" xmlns:xlink="http://www.w3.org/1999/xlink" x="0px" y="0px" width="33.02px"
	 height="33.02px" viewBox="0 0 33.02 33.02" style="enable-background:new 0 0 33.02 33.02;" xml:space="preserve">
<g id="Layer_41">
	<path style="fill:#949494;" d="M23.829,10.076c0,0.246-0.095,0.494-0.283,0.684c0,0-12.684,12.684-12.868,12.867
		c-0.378,0.379-0.99,0.379-1.367,0.001c-0.378-0.378-0.378-0.989,0-1.367C9.495,22.076,22.179,9.393,22.179,9.393
		c0.378-0.379,0.99-0.379,1.367,0C23.734,9.58,23.829,9.828,23.829,10.076z"/>
	<path style="fill:#949494;" d="M22.862,23.91c-0.247,0-0.494-0.094-0.684-0.283c0,0-12.684-12.684-12.868-12.868
		c-0.378-0.378-0.378-0.989,0-1.367c0.377-0.378,0.989-0.378,1.367,0C10.861,9.576,23.546,22.26,23.546,22.26
		c0.378,0.378,0.378,0.99,0,1.367C23.357,23.816,23.11,23.91,22.862,23.91z"/>
	<path style="fill:#949494;" d="M16.51,33.02c-4.41,0-8.556-1.717-11.674-4.836C1.717,25.065,0,20.92,0,16.51
		S1.717,7.953,4.836,4.835C7.954,1.717,12.1,0,16.51,0s8.557,1.717,11.675,4.835S33.02,12.1,33.02,16.51s-1.717,8.556-4.835,11.674
		C25.066,31.303,20.92,33.02,16.51,33.02z M16.51,1.933c-8.037,0-14.576,6.539-14.576,14.577c0,8.037,6.539,14.576,14.576,14.576
		c8.038,0,14.577-6.539,14.577-14.576C31.087,8.472,24.548,1.933,16.51,1.933z"/>
</g>
<g id="Layer_1">
</g>
</svg>
