<?xml version="1.0" encoding="utf-8"?>
<!-- Generator: Adobe Illustrator 16.0.0, SVG Export Plug-In . SVG Version: 6.00 Build 0)  -->
<!DOCTYPE svg PUBLIC "-//W3C//DTD SVG 1.1//EN" "http://www.w3.org/Graphics/SVG/1.1/DTD/svg11.dtd">
<svg version="1.1" id="Layer_1" xmlns="http://www.w3.org/2000/svg" xmlns:xlink="http://www.w3.org/1999/xlink" x="0px" y="0px"
	 width="22px" height="22px" viewBox="0 0 22 22" enable-background="new 0 0 22 22" xml:space="preserve">
<path fill="#231F20" d="M9.535,4.597c0.08,0,0.169,0.011,0.266,0.031c0.465,0.099,0.738,0.428,0.887,0.837
	c0.428,1.168,0.695,2.362,0.282,3.654c0.739-0.074,1.459-0.141,2.177-0.213c0.382-0.039,0.762-0.085,1.144-0.125
	c0.09-0.012,0.179-0.018,0.265-0.018c0.325,0,0.611,0.096,0.792,0.451c0.195,0.389,0.135,0.72-0.235,1.193
	c0.387,0.16,0.808,0.285,0.86,0.799c0.049,0.479-0.191,0.775-0.596,0.975c0.651,0.744,0.564,1.222-0.239,1.723
	c0.083,0.287,0.209,0.554,0.228,0.826c0.029,0.424-0.231,0.763-0.613,0.804c-1.552,0.163-3.103,0.364-4.659,0.427
	c-0.043,0.002-0.088,0.003-0.131,0.003c-0.719,0-1.447-0.222-2.17-0.341c-0.147-0.024-0.286-0.12-0.431-0.127
	c-0.945-0.048-1.261-0.656-1.301-1.477c-0.034-0.697-0.042-1.397-0.021-2.094c0.015-0.507,0.279-0.851,0.767-1.065
	c0.228-0.098,0.438-0.322,0.569-0.54c0.286-0.481,0.481-1.019,0.775-1.493c0.683-1.102,0.918-2.295,0.851-3.572
	C8.977,4.813,9.167,4.597,9.535,4.597 M9.535,3.529c-0.594,0-0.964,0.258-1.17,0.476C8.148,4.231,7.898,4.643,7.933,5.31
	c0.06,1.142-0.167,2.106-0.693,2.956C7.056,8.563,6.913,8.86,6.775,9.146c-0.108,0.228-0.21,0.441-0.322,0.629
	C6.419,9.832,6.37,9.882,6.352,9.894c-0.857,0.377-1.356,1.091-1.383,1.999c-0.021,0.717-0.015,1.449,0.021,2.179
	c0.1,2.045,1.508,2.425,2.213,2.484c0.094,0.037,0.235,0.092,0.413,0.122c0.214,0.034,0.429,0.08,0.642,0.124
	c0.541,0.114,1.099,0.229,1.701,0.229c0.058,0,0.116,0,0.173-0.004c1.271-0.051,2.54-0.189,3.767-0.326l0.963-0.104
	c0.96-0.101,1.634-0.935,1.567-1.938c-0.009-0.137-0.032-0.266-0.06-0.385c0.224-0.245,0.426-0.57,0.487-0.983
	c0.051-0.342-0.008-0.652-0.111-0.922c0.234-0.365,0.336-0.798,0.288-1.271c-0.053-0.521-0.276-0.876-0.542-1.124
	c0.067-0.357,0.041-0.777-0.192-1.24c-0.196-0.389-0.684-1.039-1.746-1.039c-0.125,0-0.253,0.009-0.384,0.024l-0.466,0.052
	c-0.222,0.025-0.443,0.05-0.665,0.072l-0.796,0.078c0.025-1.048-0.25-1.995-0.554-2.824c-0.293-0.811-0.887-1.349-1.667-1.516
	C9.851,3.547,9.688,3.529,9.535,3.529L9.535,3.529z"/>
<path fill="#231F20" d="M11,22C4.935,22,0,17.065,0,11C0,4.936,4.935,0,11,0s11,4.936,11,11C22,17.065,17.065,22,11,22z M11,1.068
	c-5.477,0-9.932,4.455-9.932,9.932S5.523,20.932,11,20.932s9.932-4.455,9.932-9.932S16.477,1.068,11,1.068z"/>
</svg>
