<?xml version="1.0" encoding="utf-8"?>
<!-- Generator: Adobe Illustrator 16.0.0, SVG Export Plug-In . SVG Version: 6.00 Build 0)  -->
<!DOCTYPE svg PUBLIC "-//W3C//DTD SVG 1.1//EN" "http://www.w3.org/Graphics/SVG/1.1/DTD/svg11.dtd">
<svg version="1.1" id="Layer_1" xmlns="http://www.w3.org/2000/svg" xmlns:xlink="http://www.w3.org/1999/xlink" x="0px" y="0px"
	 width="20px" height="14px" viewBox="0 0 20 14" enable-background="new 0 0 20 14" xml:space="preserve">
<g>
	<path fill-rule="evenodd" clip-rule="evenodd" d="M19.937,4.846c-0.438,0.432-0.842,0.83-1.278,1.261
		c-0.244-0.228-0.493-0.465-0.749-0.697c-1.545-1.404-3.239-2.569-5.262-3.188C9.656,1.307,6.881,1.866,4.329,3.556
		C3.277,4.253,2.345,5.125,1.308,5.958C0.945,5.673,0.483,5.309,0,4.929C1.13,3.627,2.409,2.56,3.866,1.702
		c2.12-1.248,4.402-1.85,6.869-1.671c2.116,0.153,4.017,0.929,5.789,2.051C17.764,2.866,18.886,3.793,19.937,4.846z"/>
	<path fill-rule="evenodd" clip-rule="evenodd" d="M20,9.154c-0.438-0.432-0.842-0.83-1.278-1.261
		c-0.244,0.228-0.493,0.465-0.749,0.697c-1.545,1.404-3.239,2.569-5.262,3.188c-2.991,0.915-5.768,0.356-8.318-1.334
		c-1.052-0.697-1.984-1.57-3.021-2.403c-0.362,0.286-0.825,0.65-1.308,1.03c1.129,1.302,2.41,2.369,3.866,3.227
		c2.12,1.248,4.401,1.85,6.869,1.671c2.116-0.153,4.017-0.929,5.789-2.051C17.826,11.134,18.949,10.207,20,9.154z"/>
	<path fill-rule="evenodd" clip-rule="evenodd" d="M6.729,6.872C6.739,5.058,8.172,3.652,10,3.662
		c1.789,0.01,3.218,1.455,3.208,3.244c-0.01,1.783-1.484,3.217-3.294,3.202C8.154,10.093,6.719,8.635,6.729,6.872z"/>
</g>
</svg>
