<?xml version="1.0" encoding="iso-8859-1"?>
<!-- Generator: Adobe Illustrator 16.0.0, SVG Export Plug-In . SVG Version: 6.00 Build 0)  -->
<!DOCTYPE svg PUBLIC "-//W3C//DTD SVG 1.1//EN" "http://www.w3.org/Graphics/SVG/1.1/DTD/svg11.dtd">
<svg version="1.1" xmlns="http://www.w3.org/2000/svg" xmlns:xlink="http://www.w3.org/1999/xlink" x="0px" y="0px"
	 width="16.228px" height="14.99px" viewBox="0 0 16.228 14.99" style="enable-background:new 0 0 16.228 14.99;"
	 xml:space="preserve">
<g id="Layer_7">
	<path style="fill-rule:evenodd;clip-rule:evenodd;fill:#949494;" d="M6.302,10.879c-1.458,1.263-2.918,2.523-4.372,3.79
		c-0.322,0.281-0.683,0.409-1.088,0.257c-0.427-0.161-0.71-0.489-0.814-0.935c-0.106-0.45,0.101-0.788,0.439-1.079
		c1.457-1.253,2.907-2.516,4.362-3.771c0.094-0.082,0.118-0.138,0.055-0.263c-0.945-1.87-0.973-3.752-0.027-5.625
		c1.141-2.261,3.719-3.572,6.215-3.185c3.378,0.523,5.624,3.616,5.072,6.983c-0.566,3.463-4.061,5.719-7.463,4.823
		c-0.819-0.217-1.561-0.588-2.234-1.116C6.396,10.8,6.348,10.838,6.302,10.879z M14.528,6.012c0-2.414-1.983-4.381-4.414-4.38
		c-2.451,0-4.394,1.98-4.392,4.477c0.002,2.372,1.994,4.33,4.405,4.33C12.572,10.438,14.529,8.471,14.528,6.012z"/>
</g>
<g id="Layer_1">
</g>
</svg>
