<?xml version="1.0" standalone="no"?>
<!DOCTYPE svg PUBLIC "-//W3C//DTD SVG 1.1//EN" "http://www.w3.org/Graphics/SVG/1.1/DTD/svg11.dtd" >
<svg xmlns="http://www.w3.org/2000/svg">
<metadata></metadata>
<defs>
<font id="daxlinepro-regularregular" horiz-adv-x="1193" >
<font-face units-per-em="2048" ascent="1587" descent="-461" />
<missing-glyph horiz-adv-x="555" />
<glyph horiz-adv-x="0" />
<glyph horiz-adv-x="0" />
<glyph horiz-adv-x="682" />
<glyph unicode="&#xd;" horiz-adv-x="555" />
<glyph unicode=" "  horiz-adv-x="555" />
<glyph unicode="&#x09;" horiz-adv-x="555" />
<glyph unicode="&#xa0;" horiz-adv-x="555" />
<glyph unicode="!" horiz-adv-x="563" d="M164 104q0 50 35 84.5t84 34.5t82.5 -34.5t33.5 -84.5t-33.5 -84t-82.5 -34q-50 0 -84.5 34.5t-34.5 83.5zM182 1483h199l-25 -1006h-149z" />
<glyph unicode="&#x22;" horiz-adv-x="907" d="M160 1454q30 43 84 43q56 0 86 -43l-33 -614h-107zM578 1454q30 43 86 43q54 0 84 -43l-31 -614h-107z" />
<glyph unicode="#" horiz-adv-x="1562" d="M145 432v123h279l55 389h-258v123h277l59 416h137l-59 -416h379l59 416h137l-57 -416h258v-123h-278l-56 -389h258v-123h-276l-60 -432h-139l62 432h-379l-62 -432h-137l62 432h-261zM561 555h379l55 389h-379z" />
<glyph unicode="$" horiz-adv-x="1196" d="M139 55l66 150q56 -28 146.5 -49t160.5 -21q165 0 258.5 65t93.5 189q0 45 -17.5 84t-42.5 66.5t-67.5 54.5t-77.5 43.5t-88 38.5q-50 21 -86 37.5t-82 41.5t-78.5 49t-66.5 57.5t-55 69t-34 81t-13 96.5q0 164 108.5 267t290.5 124l-6 295h145l-24 -289q180 -6 313 -78 l-61 -141q-49 27 -126 47.5t-151 20.5q-147 0 -229 -61.5t-82 -176.5q0 -44 19 -83.5t45.5 -67t72 -55.5t81.5 -45t91 -40q48 -20 81 -35.5t78 -40t76 -47.5t64.5 -56.5t53.5 -69t33 -81.5t13 -98q0 -174 -119.5 -283t-320.5 -130l8 -310h-149l26 303q-86 3 -184 25t-164 53 z" />
<glyph unicode="%" horiz-adv-x="1976" d="M139 1042q0 210 84.5 336.5t241.5 126.5t240 -126t83 -337t-83 -336.5t-240 -125.5t-241.5 126t-84.5 336zM281 1044q0 -160 46.5 -249.5t137.5 -89.5t137.5 89.5t46.5 249.5t-47 250t-137 90t-137 -90t-47 -250zM655 18l547 1483l119 -37l-549 -1482zM1186 440 q0 210 84 336.5t241 126.5t241.5 -126.5t84.5 -336.5t-84.5 -336.5t-241.5 -126.5t-241 126.5t-84 336.5zM1327 442q0 -160 47 -250t137 -90q91 0 138 90t47 250t-47 250t-138 90q-90 0 -137 -90t-47 -250z" />
<glyph unicode="&#x26;" horiz-adv-x="1462" d="M113 387q0 155 91 257t245 147v4q-135 35 -203 124t-68 207q0 171 124.5 275t338.5 104q184 0 336 -78l-57 -135q-50 28 -123.5 46t-141.5 18q-144 0 -224.5 -61.5t-80.5 -180.5q0 -111 77.5 -177.5t199.5 -66.5q80 0 170 15l565 98l22 -137l-266 -43v-748 q-74 -32 -191.5 -55t-238.5 -23q-273 0 -424 102t-151 308zM287 397q0 -280 405 -280q66 0 141 12t117 27v618l-301 -49q-362 -58 -362 -328z" />
<glyph unicode="'" horiz-adv-x="489" d="M160 1454q30 43 84 43q56 0 86 -43l-33 -614h-107z" />
<glyph unicode="(" horiz-adv-x="761" d="M135 608q0 205 57.5 399t146 344.5t216.5 305.5l129 -78q-365 -473 -365 -971q0 -500 365 -973l-129 -77q-95 114 -167 227t-131 243.5t-90.5 277t-31.5 302.5z" />
<glyph unicode=")" horiz-adv-x="761" d="M78 -365q364 472 364 973q0 499 -364 971l129 78q128 -155 216.5 -305.5t146 -344.5t57.5 -399q0 -156 -31.5 -302.5t-90.5 -277t-131 -243.5t-167 -227z" />
<glyph unicode="*" horiz-adv-x="1210" d="M143 1260q0 29 16 53.5t44 36.5l354 -138l-20 383q28 35 77 35q50 0 78 -35l-18 -383l352 138q28 -12 44.5 -36.5t16.5 -53.5q0 -30 -14 -52l-371 -98l240 -295q-3 -37 -32.5 -65.5t-65.5 -28.5q-21 0 -27 4l-203 315l-200 -315q-6 -4 -27 -4q-36 0 -65.5 28.5 t-32.5 65.5l239 295l-370 98q-15 24 -15 52z" />
<glyph unicode="+" horiz-adv-x="1157" d="M145 596v139h359v369h149v-369h359v-139h-359v-369h-149v369h-359z" />
<glyph unicode="," horiz-adv-x="516" d="M18 -346l177 508q44 61 114 61q73 0 84 -61l-250 -508h-125z" />
<glyph unicode="-" horiz-adv-x="841" d="M143 590v151h555v-151h-555z" />
<glyph unicode="." horiz-adv-x="516" d="M139 104q0 50 34.5 84.5t84.5 34.5t84.5 -34.5t34.5 -84.5q0 -49 -34.5 -83.5t-84.5 -34.5t-84.5 34.5t-34.5 83.5z" />
<glyph unicode="/" horiz-adv-x="942" d="M8 -350l690 1984l160 -51l-690 -1984z" />
<glyph unicode="0" d="M117 553q0 123 31 226.5t89.5 181t151 121.5t209.5 44t209 -43.5t150.5 -121.5t89 -181.5t30.5 -226.5q0 -165 -52 -293t-162 -205.5t-265 -77.5t-265.5 77.5t-163 205.5t-52.5 293zM291 555q0 -198 77.5 -316t229.5 -118q151 0 228 117.5t77 316.5q0 198 -77 315 t-228 117q-152 0 -229.5 -117t-77.5 -315z" />
<glyph unicode="1" horiz-adv-x="849" d="M61 891q132 24 268 85.5t193 127.5h137v-1104h-174v897q-62 -42 -174.5 -82t-220.5 -61z" />
<glyph unicode="2" horiz-adv-x="1017" d="M55 0l514 545q43 46 68.5 77t47.5 75t22 83q0 92 -64.5 146.5t-189.5 54.5q-152 0 -295 -68l-54 136q73 34 174 55.5t197 21.5q202 0 305 -90.5t103 -238.5q0 -147 -174 -314l-349 -338h564v-145h-869z" />
<glyph unicode="3" horiz-adv-x="1001" d="M37 -272l57 135q60 -28 140 -46t153 -18q156 0 251 74.5t95 204.5q0 141 -113 214t-296 73h-37v129q169 12 280 86.5t111 187.5q0 103 -69.5 158t-196.5 55q-69 0 -146 -19t-139 -49l-55 136q72 35 169.5 56t188.5 21q200 0 310 -92.5t110 -253.5q0 -79 -43.5 -148 t-104.5 -112t-131 -65v-4q65 -16 120 -43t106 -70.5t80.5 -111t29.5 -150.5q0 -189 -139.5 -306.5t-366.5 -117.5q-94 0 -192.5 20.5t-171.5 55.5z" />
<glyph unicode="4" horiz-adv-x="1202" d="M104 0v129l656 975h188v-977h154v-127h-154v-326h-160v326h-684zM262 127h533v625l4 194h-4q-46 -88 -101 -172z" />
<glyph unicode="5" horiz-adv-x="1019" d="M55 -272l56 135q52 -26 137.5 -45t161.5 -19q152 0 246 79t94 210q0 145 -100 227t-312 82q-83 0 -201 -16l78 723h672v-146h-525l-49 -434q32 4 80 4q260 0 395.5 -115t135.5 -321q0 -205 -142.5 -322.5t-365.5 -117.5q-96 0 -193 22t-168 54z" />
<glyph unicode="6" d="M117 520q0 156 55 303t155 270t249.5 216.5t330.5 140.5l47 -141q-232 -61 -387.5 -194t-226.5 -310q115 49 254 49q222 0 352.5 -113t130.5 -315q0 -90 -34 -171.5t-94.5 -143t-150 -98t-194.5 -36.5q-120 0 -214.5 43.5t-153 118.5t-89 172t-30.5 209zM283 520 q0 -176 84 -288.5t237 -112.5q135 0 220 91t85 216q0 146 -91.5 223.5t-244.5 77.5q-64 0 -142.5 -15t-131.5 -38q-16 -68 -16 -154z" />
<glyph unicode="7" horiz-adv-x="1089" d="M84 958v146h932l-635 -1430h-193l590 1284h-694z" />
<glyph unicode="8" d="M117 348q0 63 18.5 117t47 92.5t75 74.5t89.5 60t104 53q-68 33 -115.5 63.5t-90.5 73t-65 97t-22 121.5q0 156 119.5 254t320.5 98t319.5 -98t118.5 -254q0 -67 -22 -121.5t-65 -97t-90.5 -73t-115.5 -63.5q61 -29 104 -53t89.5 -60t75 -74.5t47 -92.5t18.5 -117 q0 -165 -132.5 -268t-346.5 -103q-215 0 -348 103t-133 268zM283 354q0 -109 86.5 -176t228.5 -67t227.5 67t85.5 176q0 37 -9.5 70t-23 58.5t-39.5 50.5t-47.5 41.5t-59.5 37.5t-63.5 33t-70.5 33q-46 -21 -70.5 -33t-63.5 -33t-60.5 -37.5t-48 -41.5t-40 -50.5t-23 -58.5 t-9.5 -70zM319 1098q0 -44 15.5 -82t37.5 -64t63.5 -54t74 -45t88.5 -44q55 26 88 43.5t73.5 45t62 54t37 64.5t15.5 82q0 104 -71 164.5t-205 60.5t-206.5 -61t-72.5 -164z" />
<glyph unicode="9" d="M117 678q0 90 34 171.5t94.5 142.5t150 97.5t194.5 36.5q120 0 214.5 -43t153 -118.5t89 -172t30.5 -208.5q0 -156 -55 -303t-155 -270t-249.5 -216.5t-330.5 -140.5l-47 141q232 61 387.5 194t226.5 310q-115 -49 -254 -49q-222 0 -352.5 113t-130.5 315zM285 680 q0 -147 91.5 -225t244.5 -78q63 0 141.5 16t132.5 39q16 68 16 154q0 176 -84 287.5t-237 111.5q-135 0 -220 -90t-85 -215z" />
<glyph unicode=":" horiz-adv-x="573" d="M168 104q0 50 35 84.5t84 34.5t84 -34.5t35 -84.5q0 -49 -34.5 -83.5t-84.5 -34.5t-84.5 34.5t-34.5 83.5zM168 766q0 50 35 84.5t84 34.5t84 -34.5t35 -84.5t-35 -84.5t-84 -34.5t-84 34.5t-35 84.5z" />
<glyph unicode=";" horiz-adv-x="573" d="M39 -346l176 508q44 61 115 61q73 0 84 -61l-250 -508h-125zM172 766q0 50 35 84.5t84 34.5t84 -34.5t35 -84.5t-35 -84.5t-84 -34.5t-84 34.5t-35 84.5z" />
<glyph unicode="&#x3c;" horiz-adv-x="1157" d="M145 606v119l867 422v-162l-703 -319l703 -320v-162z" />
<glyph unicode="=" horiz-adv-x="1157" d="M145 389v137h867v-137h-867zM145 805v137h867v-137h-867z" />
<glyph unicode="&#x3e;" horiz-adv-x="1157" d="M145 184v162l703 320l-703 319v162l867 -422v-119z" />
<glyph unicode="?" horiz-adv-x="978" d="M63 1427q68 35 166.5 56.5t196.5 21.5q216 0 334.5 -98.5t118.5 -273.5q0 -73 -32.5 -139.5t-85.5 -114.5t-111.5 -81.5t-119.5 -54.5l-10 -266h-143l-15 357q67 17 125 43t106.5 61.5t76.5 84t28 103.5q0 111 -72.5 172.5t-215.5 61.5q-73 0 -152 -19t-135 -47zM330 104 q0 50 35 84.5t84 34.5t83.5 -34.5t34.5 -84.5t-34.5 -84t-83.5 -34q-50 0 -84.5 34.5t-34.5 83.5z" />
<glyph unicode="@" horiz-adv-x="2115" d="M125 518q0 205 68 385t192.5 313.5t311.5 211t413 77.5q175 0 321 -44t248 -120.5t173.5 -181t105 -224.5t33.5 -251q0 -178 -57 -315.5t-158 -222t-232.5 -127t-288.5 -42.5q-296 0 -460 146t-164 416q0 247 132 390.5t355 143.5q198 0 320 -102v-842q399 95 399 555 q0 113 -26.5 213.5t-83.5 188t-141 150.5t-206 99.5t-270 36.5q-193 0 -351 -66t-262.5 -181.5t-161 -271t-56.5 -335.5q0 -144 37 -270.5t114 -232.5t187.5 -182t264.5 -118.5t339 -42.5q187 0 350.5 50t279.5 131l74 -115q-280 -201 -704 -201q-210 0 -387.5 48.5 t-307 137t-220.5 210.5t-136 270t-45 315zM784 539q0 -214 120.5 -321t340.5 -107h43v792q-71 43 -174 43q-154 0 -242 -107t-88 -300z" />
<glyph unicode="A" horiz-adv-x="1343" d="M41 0l530 1483h203l529 -1483h-185l-151 432h-590l-150 -432h-186zM418 567h508l-207 600q-12 36 -23 78.5t-16 66.5l-6 25h-4q-18 -90 -45 -170z" />
<glyph unicode="B" horiz-adv-x="1243" d="M166 55v1372q76 35 184 56.5t221 21.5q247 0 380.5 -105.5t133.5 -281.5q0 -135 -76.5 -226.5t-174.5 -115.5v-4q52 -13 101 -40t96.5 -71t76.5 -113.5t29 -154.5q0 -195 -147 -305.5t-412 -110.5q-108 0 -225 22.5t-187 55.5zM334 154q105 -37 244 -37q185 0 284 73 t99 211q0 169 -138 244q-54 29 -109.5 40t-154.5 11h-225v-542zM334 827h217q105 0 160.5 13t105.5 49q45 33 71.5 91t26.5 126q0 122 -89.5 191t-254.5 69q-139 0 -237 -37v-502z" />
<glyph unicode="C" horiz-adv-x="1105" d="M117 741q0 189 46 337.5t126 240.5t183.5 139t223.5 47q96 0 180.5 -21.5t137.5 -56.5l-60 -143q-39 28 -103.5 47t-137.5 19q-87 0 -161 -37t-131 -109.5t-89.5 -190.5t-32.5 -270t32.5 -270t89.5 -191t131 -110t161 -37q73 0 137.5 19t103.5 47l60 -146 q-53 -35 -137 -56.5t-181 -21.5q-120 0 -223.5 47t-183.5 139t-126 240.5t-46 337.5z" />
<glyph unicode="D" horiz-adv-x="1302" d="M162 55v1372q156 78 385 78q140 0 256.5 -48.5t202.5 -141.5t134 -240t48 -334t-48 -334t-134 -240t-202.5 -141.5t-256.5 -48.5q-114 0 -218 22t-167 56zM340 164q68 -35 215 -35q97 0 178 36t143.5 108.5t98 192t35.5 275.5t-35.5 275.5t-98 192t-143.5 109t-178 36.5 q-143 0 -215 -35v-1155z" />
<glyph unicode="E" horiz-adv-x="1032" d="M162 0v1483h768v-152h-594v-495h547v-148h-547v-536h594v-152h-768z" />
<glyph unicode="F" horiz-adv-x="1003" d="M162 0v1483h753v-152h-579v-495h532v-148h-532v-688h-174z" />
<glyph unicode="G" horiz-adv-x="1318" d="M117 741q0 182 51 328.5t141 241t210.5 144.5t262.5 50q108 0 205 -21.5t154 -56.5l-62 -139q-108 64 -293 64q-101 0 -188.5 -37t-156.5 -109.5t-108.5 -192t-39.5 -272.5t38.5 -273t105 -192.5t149 -109.5t176.5 -37q75 0 140.5 11t92.5 26v532h-315v140h485v-783 q-59 -34 -163 -56t-230 -22q-140 0 -259 50.5t-207.5 145t-138.5 240.5t-50 328z" />
<glyph unicode="H" horiz-adv-x="1308" d="M162 0v1483h178v-647h629v647h178v-1483h-178v688h-629v-688h-178z" />
<glyph unicode="I" horiz-adv-x="507" d="M166 0v1483h176v-1483h-176z" />
<glyph unicode="J" horiz-adv-x="507" d="M-137 -291q303 90 303 455v1319h176v-1319q0 -518 -479 -613v158z" />
<glyph unicode="K" horiz-adv-x="1179" d="M166 0v1483h176v-686h4l582 686h207l-600 -705l614 -778h-209l-594 760h-4v-760h-176z" />
<glyph unicode="L" horiz-adv-x="970" d="M166 0v1483h176v-1331h557v-152h-733z" />
<glyph unicode="M" horiz-adv-x="1777" d="M109 0l196 1483h211l328 -1065q11 -36 22 -80.5t16 -71.5l5 -26h4q18 96 43 178l328 1065h211l196 -1483h-166l-139 1112l-18 180h-5q-20 -96 -45 -180l-342 -1112h-131l-342 1112q-11 37 -22.5 82t-16.5 72l-6 26h-4q-6 -96 -16 -180l-142 -1112h-165z" />
<glyph unicode="N" horiz-adv-x="1409" d="M162 0v1483h174l668 -1067q21 -33 42.5 -73.5t32.5 -64.5l11 -24h4q-2 98 -2 186v1043h155v-1483h-166l-678 1087q-21 34 -42.5 74.5t-32.5 64.5l-11 23h-4q4 -94 4 -180v-1069h-155z" />
<glyph unicode="O" horiz-adv-x="1368" d="M117 741q0 160 36 297.5t105 242.5t178.5 164.5t247.5 59.5t247.5 -59.5t178.5 -164.5t105 -242.5t36 -297.5t-36 -297.5t-105 -242.5t-178.5 -164.5t-247.5 -59.5t-247.5 59.5t-178.5 164.5t-105 242.5t-36 297.5zM293 741q0 -174 43 -309t133 -216t215 -81t215 81 t133 216t43 309t-43 309t-133 216.5t-215 81.5t-215 -81.5t-133 -216.5t-43 -309z" />
<glyph unicode="P" horiz-adv-x="1165" d="M162 0v1427q162 78 389 78q252 0 390 -121t138 -331q0 -201 -149.5 -324t-419.5 -123q-110 0 -172 12v-618h-176zM338 760q62 -12 166 -12q192 0 296.5 82.5t104.5 224.5q0 152 -90.5 230.5t-261.5 78.5q-129 0 -215 -35v-569z" />
<glyph unicode="Q" horiz-adv-x="1368" d="M117 741q0 160 36 297.5t105 242.5t178.5 164.5t247.5 59.5t247.5 -59.5t178.5 -164.5t105 -242.5t36 -297.5q0 -217 -65.5 -391t-190.5 -270l258 -356l-135 -107l-260 389q-85 -29 -174 -29q-138 0 -247.5 59.5t-178.5 164.5t-105 242.5t-36 297.5zM293 741 q0 -174 43 -309t133 -216t215 -81t215 81t133 216t43 309t-43 309t-133 216.5t-215 81.5t-215 -81.5t-133 -216.5t-43 -309z" />
<glyph unicode="R" horiz-adv-x="1234" d="M166 0v1425q79 37 185 58.5t214 21.5q252 0 387 -114.5t135 -305.5q0 -168 -92 -261.5t-250 -121.5v-4q101 -49 175 -200l241 -498h-188l-232 483q-39 84 -100 126t-152 42h-151v-651h-172zM338 784h194q187 0 285 69.5t98 225.5q0 134 -87.5 210.5t-260.5 76.5 q-144 0 -229 -37v-545z" />
<glyph unicode="S" horiz-adv-x="1062" d="M98 55l62 154q56 -30 133.5 -51t155.5 -21q144 0 232.5 68.5t88.5 189.5q0 54 -21 97.5t-63.5 77.5t-83 56.5t-102.5 49.5q-56 25 -93.5 44t-87.5 48.5t-82.5 61t-63 72.5t-45.5 92t-15 110q0 184 125.5 292.5t330.5 108.5q97 0 182.5 -22t141.5 -56l-59 -145 q-49 28 -119.5 49t-139.5 21q-127 0 -205.5 -64t-78.5 -176q0 -42 17.5 -80t42 -65.5t66.5 -55t76 -44.5t85 -40q46 -20 76 -35t73 -39.5t71 -47t59.5 -55.5t50 -68t30.5 -81t12 -98q0 -194 -136 -310t-359 -116q-100 0 -196 21.5t-161 56.5z" />
<glyph unicode="T" horiz-adv-x="1048" d="M68 1331v152h913v-152h-369v-1331h-176v1331h-368z" />
<glyph unicode="U" horiz-adv-x="1286" d="M162 424v1059h178v-1059q0 -133 86.5 -212t216.5 -79t216.5 79t86.5 212v1059h178v-1059q0 -204 -136.5 -324t-344.5 -120t-344.5 120t-136.5 324z" />
<glyph unicode="V" horiz-adv-x="1255" d="M55 1483h191l329 -1098q12 -40 24.5 -90.5t18.5 -80.5l7 -30h4q22 111 49 201l332 1098h190l-479 -1483h-189z" />
<glyph unicode="W" horiz-adv-x="1859" d="M78 1483h178l254 -1080q9 -39 18 -88t14 -79l5 -29h4q17 108 37 196l264 1080h156l264 -1080q9 -39 18 -88t14 -79l5 -29h4q17 108 37 196l254 1080h178l-375 -1483h-178l-260 1049q-10 42 -19.5 92t-13.5 79l-4 29h-4q-14 -106 -37 -200l-260 -1049h-178z" />
<glyph unicode="X" horiz-adv-x="1198" d="M49 0l447 768l-416 715h192l326 -574h4l324 574h194l-415 -715l444 -768h-195l-352 625h-4l-354 -625h-195z" />
<glyph unicode="Y" horiz-adv-x="1214" d="M47 1483h193l366 -711h4l365 711h192l-471 -889v-594h-178v594z" />
<glyph unicode="Z" horiz-adv-x="1056" d="M59 0l648 1331h-609v152h860l-647 -1331h652v-152h-904z" />
<glyph unicode="[" horiz-adv-x="745" d="M180 -399v2007h457v-138h-289v-1732h289v-137h-457z" />
<glyph unicode="\" horiz-adv-x="942" d="M84 1583l162 51l688 -1984l-160 -51z" />
<glyph unicode="]" horiz-adv-x="745" d="M109 -262h288v1732h-288v138h456v-2007h-456v137z" />
<glyph unicode="^" d="M176 971l336 405q30 41 86 41q54 0 84 -41l336 -405l-109 -90l-311 379l-313 -379z" />
<glyph unicode="_" horiz-adv-x="1200" d="M-8 -281h1216v-127h-1216v127z" />
<glyph unicode="`" horiz-adv-x="632" d="M94 1501q6 22 27 34.5t49 12.5q60 0 104 -47l152 -266h-127z" />
<glyph unicode="a" horiz-adv-x="1081" d="M96 315q0 66 20.5 119.5t54 91t86.5 66t107 46t127.5 30t135.5 18.5t143 10v84q0 116 -68.5 165.5t-193.5 49.5q-74 0 -159 -19.5t-142 -47.5l-45 121q69 32 166.5 54.5t193.5 22.5q410 0 410 -360v-711q-60 -33 -167 -55.5t-214 -22.5q-223 0 -339 89t-116 249zM258 319 q0 -99 73.5 -156t215.5 -57q62 0 127.5 10.5t95.5 24.5v437q-82 -5 -125.5 -8.5t-114.5 -13.5t-110 -27t-81.5 -44t-61.5 -69t-19 -97z" />
<glyph unicode="b" horiz-adv-x="1136" d="M150 55v1553h172v-537q103 49 229 49q216 0 347.5 -147.5t131.5 -399.5q0 -152 -39 -268t-110.5 -187t-167 -106t-213.5 -35q-97 0 -190 22t-160 56zM322 152q72 -35 186 -35q158 0 254 110t96 336q0 196 -89.5 309t-240.5 113q-121 0 -206 -45v-788z" />
<glyph unicode="c" horiz-adv-x="942" d="M109 553q0 146 40 259.5t108.5 180t150.5 100t174 33.5q164 0 274 -75l-59 -125q-80 57 -197 57q-62 0 -116.5 -24t-100 -73t-72 -134.5t-26.5 -196.5t27 -197t72.5 -135.5t100 -74.5t115.5 -25q114 0 197 59l59 -129q-110 -76 -274 -76q-73 0 -140 20.5t-128 66 t-106.5 111t-72 163t-26.5 215.5z" />
<glyph unicode="d" horiz-adv-x="1136" d="M109 539q0 260 133.5 417.5t375.5 157.5q114 0 199 -29v523h170v-1553q-53 -31 -152 -54.5t-202 -23.5q-249 0 -386.5 151t-137.5 411zM279 539q0 -195 92 -308.5t260 -113.5q50 0 105.5 11t80.5 24v800q-25 11 -80.5 19t-105.5 8q-168 0 -260 -121.5t-92 -318.5z" />
<glyph unicode="e" horiz-adv-x="1138" d="M109 553q0 258 129.5 415.5t351.5 157.5q204 0 322 -126t118 -347q0 -46 -2 -73l-754 -109q13 -174 111 -264t260 -90q83 0 164 18t137 49l53 -129q-62 -35 -159 -56.5t-203 -21.5q-248 0 -388 152.5t-140 423.5zM264 590l602 86q-1 158 -75.5 238.5t-202.5 80.5 q-146 0 -233.5 -109t-90.5 -296z" />
<glyph unicode="f" horiz-adv-x="714" d="M74 975v129h155v149q0 175 106 266t275 91q39 0 49 -2v-138h-22q-109 0 -175.5 -53.5t-66.5 -163.5v-149h244v-129h-244v-975h-166v975h-155z" />
<glyph unicode="g" horiz-adv-x="1136" d="M109 567q0 142 39.5 250t111.5 175t167.5 100.5t211.5 33.5q204 0 348 -77v-1053q0 -218 -119.5 -337.5t-335.5 -119.5q-103 0 -201.5 23.5t-166.5 58.5l53 135q57 -30 139 -50.5t164 -20.5q148 0 223.5 80t75.5 231v94q-100 -49 -237 -49q-212 0 -342.5 139.5 t-130.5 386.5zM279 573q0 -192 89.5 -294.5t239.5 -102.5q57 0 116 11.5t95 31.5v735q-76 35 -190 35q-75 0 -137 -23.5t-110.5 -72t-75.5 -130t-27 -190.5z" />
<glyph unicode="h" horiz-adv-x="1144" d="M150 0v1608h172v-551q126 65 262 65q193 0 302 -95t109 -271v-756h-170v743q0 119 -72.5 179.5t-201.5 60.5q-128 0 -229 -61v-922h-172z" />
<glyph unicode="i" horiz-adv-x="487" d="M135 1432q0 43 32.5 74.5t76.5 31.5t76 -31.5t32 -74.5t-32 -74t-76 -31t-76.5 31t-32.5 74zM160 0v1104h170v-1104h-170z" />
<glyph unicode="j" horiz-adv-x="487" d="M-106 -307q118 39 192 143.5t74 280.5v987h170v-987q0 -107 -23.5 -195.5t-63 -150.5t-96.5 -108.5t-119 -73.5t-134 -42v146zM135 1432q0 43 32.5 74.5t76.5 31.5t76 -31.5t32 -74.5t-32 -74t-76 -31t-76.5 31t-32.5 74z" />
<glyph unicode="k" horiz-adv-x="1064" d="M156 0v1608h168v-1010h4l477 506h205l-496 -522l524 -582h-202l-508 567h-4v-567h-168z" />
<glyph unicode="l" horiz-adv-x="487" d="M160 0v1608h170v-1608h-170z" />
<glyph unicode="m" horiz-adv-x="1767" d="M150 0v1049q181 77 380 77q123 0 213.5 -35.5t137.5 -91.5q57 53 152 90t208 37q171 0 274 -95.5t103 -256.5v-774h-170v760q0 105 -67 166t-173 61q-152 0 -239 -94v-893h-170v786q0 93 -70.5 147t-187.5 54q-126 0 -219 -39v-948h-172z" />
<glyph unicode="n" horiz-adv-x="1144" d="M150 0v1049q181 77 405 77q216 0 328 -95.5t112 -270.5v-760h-170v745q0 113 -68.5 177.5t-199.5 64.5q-132 0 -235 -39v-948h-172z" />
<glyph unicode="o" horiz-adv-x="1155" d="M109 553q0 254 123.5 413.5t345.5 159.5t345.5 -159.5t123.5 -413.5q0 -124 -31 -228.5t-89 -182t-147.5 -121.5t-201.5 -44t-201.5 44t-147.5 121.5t-89 182t-31 228.5zM279 555q0 -198 76.5 -317t222.5 -119t222.5 119t76.5 317q0 197 -76.5 314.5t-222.5 117.5 t-222.5 -117.5t-76.5 -314.5z" />
<glyph unicode="p" horiz-adv-x="1136" d="M150 -440v1489q58 31 157.5 54t198.5 23q249 0 386.5 -151.5t137.5 -411.5t-135 -417.5t-377 -157.5q-114 0 -196 28v-456h-172zM322 152q26 -11 80.5 -20t103.5 -9q168 0 260 121.5t92 318.5q0 196 -91.5 311t-258.5 115q-52 0 -105 -11t-81 -26v-800z" />
<glyph unicode="q" horiz-adv-x="1136" d="M109 530q0 152 39 268t110.5 187t167 106t213.5 35q97 0 189 -21.5t159 -55.5v-1489h-170v473q-103 -49 -231 -49q-216 0 -346.5 146.5t-130.5 399.5zM279 543q0 -196 90 -309t241 -113q126 0 207 43v788q-76 37 -186 37q-158 0 -255 -110t-97 -336z" />
<glyph unicode="r" horiz-adv-x="722" d="M150 0v1049q77 35 184.5 56t218.5 21q47 0 109 -8l-33 -143q-39 8 -99 8q-130 0 -208 -35v-948h-172z" />
<glyph unicode="s" horiz-adv-x="927" d="M86 55l61 131q46 -27 123.5 -48t141.5 -21q106 0 170.5 48.5t64.5 129.5q0 42 -15.5 74.5t-49 57t-68 41t-90.5 36.5t-93 36.5t-82 45t-71.5 60t-44.5 78.5t-18 105q0 132 97.5 214.5t268.5 82.5q180 0 307 -77l-59 -121q-41 27 -105.5 46t-125.5 19q-97 0 -153 -46.5 t-56 -117.5q0 -42 14.5 -73.5t47.5 -55t64.5 -38.5t86.5 -35q44 -16 70.5 -27t64.5 -29.5t61.5 -35t50.5 -42t41.5 -53t24.5 -65t10 -80.5q0 -145 -109.5 -231.5t-301.5 -86.5q-86 0 -175.5 22t-152.5 56z" />
<glyph unicode="t" horiz-adv-x="710" d="M68 975v129h159v266l166 55v-321h238v-129h-238v-680q0 -80 46.5 -118t119.5 -38q43 0 72 11v-144q-41 -18 -113 -18q-138 0 -214.5 75.5t-76.5 223.5v688h-159z" />
<glyph unicode="u" horiz-adv-x="1128" d="M150 365v739h172v-742q0 -123 62.5 -182t190.5 -59q146 0 234 37v946h170v-1049q-66 -34 -176.5 -56t-227.5 -22q-425 0 -425 388z" />
<glyph unicode="v" horiz-adv-x="1126" d="M61 1104h187l266 -785q12 -34 23.5 -75t17.5 -66l6 -24h4q20 89 47 165l265 785h188l-403 -1104h-197z" />
<glyph unicode="w" horiz-adv-x="1693" d="M76 1104h172l217 -780q9 -33 17.5 -75t13.5 -67l4 -26h4q17 94 37 168l225 780h164l223 -780l39 -168h4q13 94 33 168l219 780h170l-336 -1104h-174l-225 770q-9 31 -17 69t-12 61l-4 22h-4q-15 -82 -35 -152l-225 -770h-174z" />
<glyph unicode="x" horiz-adv-x="1060" d="M47 0l379 573l-350 531h192l260 -416h4l261 416h192l-350 -531l379 -573h-195l-287 455h-4l-286 -455h-195z" />
<glyph unicode="y" horiz-adv-x="1126" d="M61 1104h187l274 -803q11 -32 21 -71.5t14 -63.5l4 -23h4q14 86 39 158l273 803h188l-578 -1544h-178l166 440z" />
<glyph unicode="z" horiz-adv-x="948" d="M66 0l532 965h-500v139h746l-531 -965h547v-139h-794z" />
<glyph unicode="{" horiz-adv-x="749" d="M86 532v144q79 6 125.5 64.5t46.5 154.5q0 81 -18.5 184t-18.5 193q0 159 87 247.5t247 88.5h68v-138h-48q-89 0 -138.5 -51t-49.5 -147q0 -88 19.5 -192t19.5 -185q0 -114 -48 -187t-134 -102v-4q86 -29 134 -102t48 -187q0 -81 -19.5 -184.5t-19.5 -191.5 q0 -96 49.5 -147.5t138.5 -51.5h48v-137h-68q-160 0 -247 88.5t-87 247.5q0 89 18.5 192t18.5 184q0 96 -46.5 154.5t-125.5 64.5z" />
<glyph unicode="|" horiz-adv-x="491" d="M160 -440v2048h172v-2048h-172z" />
<glyph unicode="}" horiz-adv-x="749" d="M127 -262h47q88 0 137 51.5t49 147.5q0 88 -18 191.5t-18 184.5q0 114 47.5 187.5t132.5 101.5v4q-85 28 -132.5 101.5t-47.5 187.5q0 81 18 185t18 192q0 96 -48.5 147t-137.5 51h-47v138h66q160 0 246.5 -88.5t86.5 -247.5q0 -90 -18.5 -193t-18.5 -184 q0 -96 48 -154.5t127 -64.5v-144q-79 -6 -127 -64.5t-48 -154.5q0 -81 18.5 -184t18.5 -192q0 -159 -86.5 -247.5t-246.5 -88.5h-66v137z" />
<glyph unicode="~" d="M164 674q25 90 91 145t157 55q50 0 101 -19.5t86 -42.5t80.5 -42.5t86.5 -19.5q59 0 103 34.5t67 92.5l96 -70q-26 -90 -91.5 -145.5t-156.5 -55.5q-50 0 -101 19.5t-86 43t-80.5 43t-86.5 19.5q-60 0 -104.5 -34.5t-67.5 -92.5z" />
<glyph unicode="&#xa2;" horiz-adv-x="980" d="M135 809q0 124 33 223t91 161.5t128.5 98.5t151.5 47l-17 269h144l-19 -265q135 -6 234 -69l-58 -121q-82 55 -196 55q-62 0 -116.5 -22.5t-100.5 -68t-72.5 -125t-26.5 -183.5t27 -183.5t73 -125t100.5 -68t115.5 -22.5q117 0 196 53l58 -121q-104 -66 -234 -72l19 -270 h-144l19 274q-81 10 -152 47t-129 100.5t-91.5 163.5t-33.5 224z" />
<glyph unicode="&#xa3;" horiz-adv-x="1316" d="M139 0q299 299 299 561q0 89 -24 166h-228v131h193q-41 125 -41 232q0 191 131 303t350 112q192 0 330 -78l-59 -137q-43 25 -113 43.5t-141 18.5q-149 0 -237.5 -73.5t-88.5 -197.5q0 -46 7 -90.5t13.5 -66t20.5 -66.5h414v-131h-383q20 -75 20 -166q0 -115 -52 -221.5 t-124 -187.5h729v-152h-1016z" />
<glyph unicode="&#xa5;" horiz-adv-x="1402" d="M139 1483h193l366 -701h4l367 701h193l-283 -522h256v-101h-309l-140 -248h449v-102h-449v-510h-172v510h-448v102h448l-137 248h-311v101h258z" />
<glyph unicode="&#xa8;" horiz-adv-x="634" d="M29 1370q0 38 29 66t69 28t69 -28t29 -66t-29 -66t-69 -28t-69 28t-29 66zM410 1370q0 38 29 66t69 28t69 -28t29 -66t-29 -66t-69 -28t-69 28t-29 66z" />
<glyph unicode="&#xa9;" horiz-adv-x="1785" d="M125 741q0 157 59.5 298t161.5 243.5t244.5 162.5t302.5 60t302.5 -60t244.5 -162.5t161.5 -243.5t59.5 -298t-59.5 -298t-161.5 -243.5t-244.5 -162.5t-302.5 -60t-302.5 60t-244.5 162.5t-161.5 243.5t-59.5 298zM248 741q0 -179 84.5 -328.5t233 -237t327.5 -87.5 t327.5 87.5t233 237t84.5 328.5t-84.5 329t-233 237.5t-327.5 87.5t-327.5 -87.5t-233 -237.5t-84.5 -329zM528 748q0 107 30.5 191.5t84 136.5t122 79t148.5 27q131 0 217 -58l-47 -92q-70 47 -161 47q-113 0 -189 -82t-76 -249t76 -249.5t189 -82.5q94 0 161 45l47 -92 q-89 -60 -217 -60q-80 0 -148.5 27.5t-122 80.5t-84 138.5t-30.5 192.5z" />
<glyph unicode="&#xab;" horiz-adv-x="1202" d="M125 625l375 495l106 -82l-315 -413l315 -414l-106 -82zM573 625l377 495l105 -82l-316 -413l316 -414l-105 -82z" />
<glyph unicode="&#xad;" horiz-adv-x="841" d="M143 590v151h555v-151h-555z" />
<glyph unicode="&#xae;" horiz-adv-x="1380" d="M117 940q0 117 44.5 222.5t120.5 181.5t182.5 120.5t225.5 44.5q159 0 291 -75.5t207.5 -206.5t75.5 -287t-75.5 -287t-207.5 -206.5t-291 -75.5q-119 0 -225.5 44.5t-182.5 120.5t-120.5 181.5t-44.5 222.5zM217 940q0 -200 136.5 -338.5t336.5 -138.5t336.5 138.5 t136.5 338.5t-136.5 338.5t-336.5 138.5t-336.5 -138.5t-136.5 -338.5zM485 629v610q82 37 189 37q118 0 183 -48.5t65 -135.5q0 -64 -40 -105t-104 -57v-4q39 -22 62 -66l118 -231h-108l-107 213q-15 31 -37.5 44t-60.5 13h-61v-270h-99zM584 975h78q81 0 121 27.5t40 87.5 q0 106 -147 106q-54 0 -92 -10v-211z" />
<glyph unicode="&#xb4;" horiz-adv-x="632" d="M207 1235l151 266q44 47 105 47q28 0 49 -12.5t27 -34.5l-205 -266h-127z" />
<glyph unicode="&#xb8;" horiz-adv-x="632" d="M68 -412l45 84q55 -6 106 -6q91 0 145 20t54 58q0 33 -31 47t-96 14q-49 0 -111 -6l41 80q59 6 105 6q227 0 227 -141q0 -81 -85.5 -122.5t-244.5 -41.5q-82 0 -155 8z" />
<glyph unicode="&#xbb;" horiz-adv-x="1202" d="M147 211l316 414l-316 413l107 82l375 -495l-375 -496zM596 211l315 414l-315 413l106 82l375 -495l-375 -496z" />
<glyph unicode="&#x2c6;" horiz-adv-x="632" d="M39 1288l205 207q35 35 73 35q37 0 72 -35l205 -207l-74 -63l-203 180l-204 -180z" />
<glyph unicode="&#x2da;" horiz-adv-x="632" d="M125 1405q0 76 56 129t136 53t135.5 -53t55.5 -129q0 -77 -56 -130.5t-135 -53.5q-80 0 -136 54t-56 130zM211 1405q0 -43 31.5 -74t74.5 -31t74 31t31 74q0 42 -31 72t-74 30t-74.5 -30t-31.5 -72z" />
<glyph unicode="&#x2dc;" horiz-adv-x="632" d="M37 1307q11 76 53.5 124t110.5 48q36 0 67.5 -16t51 -34.5t45 -34.5t49.5 -16q37 0 61.5 30t32.5 77l88 -53q-11 -76 -54 -125.5t-110 -49.5q-36 0 -67.5 16t-51 35.5t-45 35.5t-49.5 16q-37 0 -61.5 -30t-32.5 -77z" />
<glyph unicode="&#x401;" horiz-adv-x="1032" d="M162 0v1483h768v-152h-594v-495h547v-148h-547v-536h594v-152h-768zM256 1749q0 38 29 66t69 28t69.5 -28t29.5 -66t-29.5 -66t-69.5 -28t-69 28t-29 66zM635 1749q0 38 29 66t69 28t69 -28t29 -66t-29 -66t-69 -28t-69 28t-29 66z" />
<glyph unicode="&#x402;" horiz-adv-x="1421" d="M72 1331v152h972v-152h-505v-428q126 66 280 66q123 0 216.5 -43t152 -122.5t88 -186t29.5 -238.5q0 -259 -118 -463.5t-333 -304.5l-78 133q173 86 262.5 252.5t89.5 382.5q0 205 -85 325.5t-261 120.5q-61 0 -127.5 -17t-115.5 -46v-762h-177v1331h-290z" />
<glyph unicode="&#x403;" horiz-adv-x="980" d="M168 0v1483h747v-152h-573v-1331h-174zM438 1614l152 266q44 47 104 47q28 0 49 -12.5t27 -34.5l-205 -266h-127z" />
<glyph unicode="&#x404;" horiz-adv-x="1226" d="M117 741q0 188 52 335.5t143.5 240t210.5 140.5t259 48q222 0 357 -78l-64 -135q-47 28 -125 46t-164 18q-95 0 -177.5 -30.5t-149.5 -92t-110 -162.5t-54 -233h694v-150h-696q5 -143 46.5 -252.5t110 -175t153 -98.5t183.5 -33q86 0 164 17t125 44l64 -135 q-135 -78 -357 -78q-140 0 -259 48t-210.5 140.5t-143.5 240t-52 335.5z" />
<glyph unicode="&#x405;" horiz-adv-x="1062" d="M98 55l62 154q56 -30 133.5 -51t155.5 -21q144 0 232.5 68.5t88.5 189.5q0 54 -21 97.5t-63.5 77.5t-83 56.5t-102.5 49.5q-56 25 -93.5 44t-87.5 48.5t-82.5 61t-63 72.5t-45.5 92t-15 110q0 184 125.5 292.5t330.5 108.5q97 0 182.5 -22t141.5 -56l-59 -145 q-49 28 -119.5 49t-139.5 21q-127 0 -205.5 -64t-78.5 -176q0 -42 17.5 -80t42 -65.5t66.5 -55t76 -44.5t85 -40q46 -20 76 -35t73 -39.5t71 -47t59.5 -55.5t50 -68t30.5 -81t12 -98q0 -194 -136 -310t-359 -116q-100 0 -196 21.5t-161 56.5z" />
<glyph unicode="&#x406;" horiz-adv-x="507" d="M166 0v1483h176v-1483h-176z" />
<glyph unicode="&#x407;" horiz-adv-x="507" d="M-33 1749q0 38 29.5 66t69.5 28t69 -28t29 -66t-29 -66t-69 -28t-69.5 28t-29.5 66zM166 0v1483h176v-1483h-176zM344 1749q0 38 29 66t69 28t69.5 -28t29.5 -66t-29.5 -66t-69.5 -28t-69 28t-29 66z" />
<glyph unicode="&#x408;" horiz-adv-x="507" d="M-137 -291q303 90 303 455v1319h176v-1319q0 -518 -479 -613v158z" />
<glyph unicode="&#x409;" horiz-adv-x="1988" d="M41 119q57 40 103.5 89.5t79.5 100.5t59.5 119.5t43 127.5t31 145t23 151.5t18.5 165.5l50 465h692v-619q85 25 194 25q259 0 404 -124.5t145 -328.5q0 -211 -138.5 -335t-389.5 -124q-227 0 -389 78v1278h-361l-35 -334q-11 -105 -21.5 -183.5t-29 -172.5t-41 -165.5 t-57.5 -149.5t-79 -138.5t-105 -118t-136 -102.5zM1141 154q86 -35 215 -35q172 0 263 81.5t91 233.5q0 147 -100 230.5t-281 83.5q-103 0 -188 -25v-569z" />
<glyph unicode="&#x40a;" horiz-adv-x="1929" d="M162 0v1483h176v-647h569v647h174v-619q85 25 195 25q259 0 404 -124.5t145 -328.5q0 -211 -139 -335t-390 -124q-227 0 -389 78v633h-569v-688h-176zM1081 154q86 -35 215 -35q172 0 263.5 81.5t91.5 233.5q0 147 -100 230.5t-281 83.5q-104 0 -189 -25v-569z" />
<glyph unicode="&#x40b;" horiz-adv-x="1411" d="M72 1331v152h972v-152h-505v-428q126 66 284 66q202 0 318 -105t116 -299v-565h-176v557q0 135 -76.5 202.5t-213.5 67.5q-64 0 -133 -16.5t-119 -44.5v-766h-177v1331h-290z" />
<glyph unicode="&#x40c;" horiz-adv-x="1214" d="M166 0v1483h176v-690h4l586 690h215l-604 -684q236 -66 364 -303l264 -496h-200l-240 465q-58 113 -159.5 181.5t-229.5 68.5v-715h-176zM494 1614l151 266q44 47 105 47q28 0 48.5 -12.5t26.5 -34.5l-204 -266h-127z" />
<glyph unicode="&#x40e;" horiz-adv-x="1226" d="M84 1483h184q75 -422 367 -910h4q251 484 315 910h187q-64 -452 -385 -1030l-250 -453h-199l242 422q-385 583 -465 1061zM334 1880l106 18q14 -89 55.5 -133.5t116.5 -44.5t115.5 44t54.5 134l107 -18q-8 -128 -80 -201t-197 -73t-197.5 73.5t-80.5 200.5z" />
<glyph unicode="&#x40f;" horiz-adv-x="1294" d="M162 0v1483h178v-1331h616v1331h177v-1483h-412l-8 -299h-129l-11 299h-411z" />
<glyph unicode="&#x410;" horiz-adv-x="1343" d="M41 0l530 1483h203l529 -1483h-185l-151 432h-590l-150 -432h-186zM418 567h508l-207 600q-12 36 -23 78.5t-16 66.5l-6 25h-4q-18 -90 -45 -170z" />
<glyph unicode="&#x411;" horiz-adv-x="1208" d="M166 55v1428h782v-152h-612v-479q80 25 213 25q262 0 406.5 -121.5t144.5 -329.5q0 -207 -138 -328t-397 -121q-109 0 -217 21t-182 57zM336 154q86 -35 229 -35q175 0 267 81t92 230q0 147 -100.5 228t-288.5 81q-109 0 -199 -24v-561z" />
<glyph unicode="&#x412;" horiz-adv-x="1243" d="M166 55v1372q76 35 184 56.5t221 21.5q247 0 380.5 -105.5t133.5 -281.5q0 -135 -76.5 -226.5t-174.5 -115.5v-4q52 -13 101 -40t96.5 -71t76.5 -113.5t29 -154.5q0 -195 -147 -305.5t-412 -110.5q-108 0 -225 22.5t-187 55.5zM334 154q105 -37 244 -37q185 0 284 73 t99 211q0 169 -138 244q-54 29 -109.5 40t-154.5 11h-225v-542zM334 827h217q105 0 160.5 13t105.5 49q45 33 71.5 91t26.5 126q0 122 -89.5 191t-254.5 69q-139 0 -237 -37v-502z" />
<glyph unicode="&#x413;" horiz-adv-x="980" d="M168 0v1483h747v-152h-573v-1331h-174z" />
<glyph unicode="&#x414;" horiz-adv-x="1531" d="M78 115q314 259 399 995l43 373h658l151 -1331l92 -37l-10 -414h-129l-8 299h-1049l-8 -299h-129zM317 141h840l-133 1192h-352l-27 -239q-14 -128 -38.5 -252.5t-62.5 -257.5t-96.5 -249t-130.5 -194z" />
<glyph unicode="&#x415;" horiz-adv-x="1032" d="M162 0v1483h768v-152h-594v-495h547v-148h-547v-536h594v-152h-768z" />
<glyph unicode="&#x416;" horiz-adv-x="1794" d="M45 0l260 512q55 109 136.5 181.5t181.5 105.5l-551 684h209l528 -695h4v695h168v-695h4l528 695h209l-548 -684q204 -67 315 -287l260 -512h-190l-240 483q-53 107 -139 171.5t-199 64.5v-719h-168v719q-112 0 -197.5 -64.5t-138.5 -171.5l-241 -483h-191z" />
<glyph unicode="&#x417;" horiz-adv-x="1148" d="M76 55l59 140q152 -66 344 -66q180 0 281.5 77t101.5 212q0 99 -69 168t-177 99t-245 30l-62 -2v135q210 3 351 83.5t141 203.5q0 107 -83 164t-237 57q-168 0 -327 -66l-58 137q188 78 404 78q228 0 353.5 -95.5t125.5 -264.5q0 -83 -47.5 -154.5t-116 -116 t-147.5 -67.5v-4q53 -11 101.5 -29t99.5 -50t88 -73t61 -101.5t24 -131.5q0 -200 -151.5 -320.5t-411.5 -120.5q-215 0 -403 78z" />
<glyph unicode="&#x418;" horiz-adv-x="1415" d="M162 0v1483h162v-1043l-5 -186h5q41 88 88 162l667 1067h174v-1483h-159v1069l4 180h-4q-39 -88 -86 -162l-680 -1087h-166z" />
<glyph unicode="&#x419;" horiz-adv-x="1415" d="M162 0v1483h162v-1043l-5 -186h5q41 88 88 162l667 1067h174v-1483h-159v1069l4 180h-4q-39 -88 -86 -162l-680 -1087h-166zM426 1880l106 18q27 -178 173 -178q75 0 115 44t54 134l107 -18q-8 -128 -80 -201t-196 -73q-125 0 -198 73.5t-81 200.5z" />
<glyph unicode="&#x41a;" horiz-adv-x="1214" d="M166 0v1483h176v-690h4l586 690h215l-604 -684q236 -66 364 -303l264 -496h-200l-240 465q-58 113 -159.5 181.5t-229.5 68.5v-715h-176z" />
<glyph unicode="&#x41b;" horiz-adv-x="1423" d="M43 121q53 35 96.5 75.5t77 89.5t59 96t45.5 111t33.5 116t25.5 129.5t19 134t17 145.5l51 465h670l166 -1483h-181l-145 1333h-352l-35 -334q-11 -106 -21.5 -183.5t-29.5 -172.5t-42 -166.5t-59.5 -150t-82 -139t-109.5 -118t-142 -102.5z" />
<glyph unicode="&#x41c;" horiz-adv-x="1777" d="M109 0l196 1483h211l328 -1065q11 -36 22 -80.5t16 -71.5l5 -26h4q18 96 43 178l328 1065h211l196 -1483h-166l-139 1112l-18 180h-5q-20 -96 -45 -180l-342 -1112h-131l-342 1112q-11 37 -22.5 82t-16.5 72l-6 26h-4q-6 -96 -16 -180l-142 -1112h-165z" />
<glyph unicode="&#x41d;" horiz-adv-x="1308" d="M162 0v1483h178v-647h629v647h178v-1483h-178v688h-629v-688h-178z" />
<glyph unicode="&#x41e;" horiz-adv-x="1368" d="M117 741q0 160 36 297.5t105 242.5t178.5 164.5t247.5 59.5t247.5 -59.5t178.5 -164.5t105 -242.5t36 -297.5t-36 -297.5t-105 -242.5t-178.5 -164.5t-247.5 -59.5t-247.5 59.5t-178.5 164.5t-105 242.5t-36 297.5zM293 741q0 -174 43 -309t133 -216t215 -81t215 81 t133 216t43 309t-43 309t-133 216.5t-215 81.5t-215 -81.5t-133 -216.5t-43 -309z" />
<glyph unicode="&#x41f;" horiz-adv-x="1308" d="M162 0v1483h985v-1483h-178v1333h-629v-1333h-178z" />
<glyph unicode="&#x420;" horiz-adv-x="1165" d="M162 0v1427q162 78 389 78q252 0 390 -121t138 -331q0 -201 -149.5 -324t-419.5 -123q-110 0 -172 12v-618h-176zM338 760q62 -12 166 -12q192 0 296.5 82.5t104.5 224.5q0 152 -90.5 230.5t-261.5 78.5q-129 0 -215 -35v-569z" />
<glyph unicode="&#x421;" horiz-adv-x="1105" d="M117 741q0 189 46 337.5t126 240.5t183.5 139t223.5 47q96 0 180.5 -21.5t137.5 -56.5l-60 -143q-39 28 -103.5 47t-137.5 19q-87 0 -161 -37t-131 -109.5t-89.5 -190.5t-32.5 -270t32.5 -270t89.5 -191t131 -110t161 -37q73 0 137.5 19t103.5 47l60 -146 q-53 -35 -137 -56.5t-181 -21.5q-120 0 -223.5 47t-183.5 139t-126 240.5t-46 337.5z" />
<glyph unicode="&#x422;" horiz-adv-x="1048" d="M68 1331v152h913v-152h-369v-1331h-176v1331h-368z" />
<glyph unicode="&#x423;" horiz-adv-x="1226" d="M84 1483h184q75 -422 367 -910h4q251 484 315 910h187q-64 -452 -385 -1030l-250 -453h-199l242 422q-385 583 -465 1061z" />
<glyph unicode="&#x424;" horiz-adv-x="1681" d="M109 743q0 175 77 320t227.5 234.5t348.5 93.5v137h158v-137q198 -4 348.5 -93.5t227.5 -234.5t77 -320t-77 -319.5t-227.5 -234t-348.5 -93.5v-141h-158v141q-198 4 -348.5 93.5t-227.5 234t-77 319.5zM283 743q0 -140 55.5 -253.5t166 -183t257.5 -70.5v1015 q-147 -2 -257.5 -71.5t-166 -183.5t-55.5 -253zM920 236q147 1 257.5 70.5t166 183t55.5 253.5q0 139 -55.5 253t-166 183.5t-257.5 71.5v-1015z" />
<glyph unicode="&#x425;" horiz-adv-x="1198" d="M49 0l447 768l-416 715h192l326 -574h4l324 574h194l-415 -715l444 -768h-195l-352 625h-4l-354 -625h-195z" />
<glyph unicode="&#x426;" horiz-adv-x="1333" d="M162 0v1483h178v-1331h616v1331h177v-1331l90 -37l-11 -414h-129l-8 299h-913z" />
<glyph unicode="&#x427;" horiz-adv-x="1269" d="M154 1006v477h178v-467q0 -151 84.5 -233.5t236.5 -82.5q65 0 149 18.5t128 45.5v719h176v-1483h-176v610q-53 -27 -144 -46t-163 -19q-217 0 -343 123.5t-126 337.5z" />
<glyph unicode="&#x428;" horiz-adv-x="1900" d="M162 0v1483h172v-1333h530v1333h172v-1333h533v1333h170v-1483h-1577z" />
<glyph unicode="&#x429;" horiz-adv-x="1939" d="M162 0v1483h172v-1333h530v1333h172v-1333h533v1333h170v-1331l90 -37l-10 -414h-129l-9 299h-1519z" />
<glyph unicode="&#x42a;" horiz-adv-x="1398" d="M63 1331v152h488v-619q85 25 194 25q259 0 404 -124.5t145 -328.5q0 -211 -138.5 -335t-389.5 -124q-227 0 -389 78v1276h-314zM551 154q86 -35 215 -35q172 0 263 81.5t91 233.5q0 147 -100 230.5t-281 83.5q-103 0 -188 -25v-569z" />
<glyph unicode="&#x42b;" horiz-adv-x="1613" d="M162 55v1428h174v-619q85 25 194 25q259 0 404 -124.5t145 -328.5q0 -211 -138.5 -335t-389.5 -124q-227 0 -389 78zM336 154q86 -35 215 -35q172 0 263 81.5t91 233.5q0 147 -100 230.5t-281 83.5q-103 0 -188 -25v-569zM1270 0v1483h178v-1483h-178z" />
<glyph unicode="&#x42c;" horiz-adv-x="1183" d="M162 55v1428h174v-619q85 25 194 25q259 0 404 -124.5t145 -328.5q0 -211 -138.5 -335t-389.5 -124q-227 0 -389 78zM336 154q86 -35 215 -35q172 0 263 81.5t91 233.5q0 147 -100 230.5t-281 83.5q-103 0 -188 -25v-569z" />
<glyph unicode="&#x42d;" horiz-adv-x="1226" d="M88 55l66 135q47 -27 124 -44t162 -17q99 0 184 33t154 98.5t111 175t47 252.5h-698v150h696q-11 132 -54.5 233t-111 162.5t-150.5 92t-178 30.5q-86 0 -162.5 -17.5t-123.5 -46.5l-66 135q61 35 155 56.5t203 21.5q140 0 259.5 -48t211 -140.5t143.5 -240t52 -335.5 t-52 -335.5t-143.5 -240t-211 -140.5t-259.5 -48q-223 0 -358 78z" />
<glyph unicode="&#x42e;" horiz-adv-x="1826" d="M162 0v1483h176v-647h350q8 142 41.5 260.5t93.5 211.5t155.5 145t217.5 52q133 0 233.5 -60.5t160 -167t89 -241.5t29.5 -295t-29.5 -295t-89 -241.5t-160 -167t-233.5 -60.5q-102 0 -185.5 37t-141.5 102t-98.5 155.5t-60.5 194.5t-24 222h-348v-688h-176zM856 743 q0 -104 12 -195.5t38.5 -170.5t65.5 -135.5t96 -88.5t128 -32q88 0 154.5 48.5t106 135.5t58.5 196.5t19 241.5t-19 241.5t-58.5 196t-106 135t-154.5 48.5t-155 -48.5t-106.5 -135t-59 -196.5t-19.5 -241z" />
<glyph unicode="&#x42f;" horiz-adv-x="1259" d="M72 0l243 498q74 151 174 200v4q-159 28 -251.5 121.5t-92.5 261.5q0 195 139.5 307.5t399.5 112.5q242 0 412 -80v-1425h-174v651h-177q-91 0 -151.5 -42t-99.5 -126l-232 -483h-190zM319 1079q0 -156 98 -225.5t285 -69.5h220v545q-85 37 -242 37q-179 0 -270 -75 t-91 -212z" />
<glyph unicode="&#x430;" horiz-adv-x="1081" d="M96 315q0 66 20.5 119.5t54 91t86.5 66t107 46t127.5 30t135.5 18.5t143 10v84q0 116 -68.5 165.5t-193.5 49.5q-74 0 -159 -19.5t-142 -47.5l-45 121q69 32 166.5 54.5t193.5 22.5q410 0 410 -360v-711q-60 -33 -167 -55.5t-214 -22.5q-223 0 -339 89t-116 249zM258 319 q0 -99 73.5 -156t215.5 -57q62 0 127.5 10.5t95.5 24.5v437q-82 -5 -125.5 -8.5t-114.5 -13.5t-110 -27t-81.5 -44t-61.5 -69t-19 -97z" />
<glyph unicode="&#x431;" horiz-adv-x="1161" d="M123 672q0 175 27 312t87 249t156 190.5t234.5 130t322.5 74.5v-143q-267 -37 -413 -137.5t-203 -286.5q121 57 252 57q149 0 257 -75.5t160 -201t52 -286.5q0 -166 -52.5 -295.5t-158 -206t-250.5 -76.5q-155 0 -262 88.5t-158 242.5t-51 364zM287 666q0 -253 80 -400 t229 -147q138 0 213.5 122t75.5 314q0 193 -83.5 314.5t-236.5 121.5q-136 0 -260 -59q-18 -117 -18 -266z" />
<glyph unicode="&#x432;" horiz-adv-x="1087" d="M154 55v994q154 77 358 77q203 0 317.5 -78t114.5 -214q0 -99 -64 -168t-147 -88v-3q43 -9 84 -29.5t79 -53.5t61.5 -84.5t23.5 -114.5q0 -152 -122.5 -234t-342.5 -82q-209 0 -362 78zM315 131q33 -17 90.5 -28t110.5 -11q139 0 218 55t79 154q0 122 -104 176 q-39 21 -81 29t-116 8h-197v-383zM315 623h191q80 0 122.5 8.5t78.5 34.5q34 23 53.5 64.5t19.5 92.5q0 89 -70.5 139t-197.5 50q-52 0 -107.5 -11.5t-89.5 -27.5v-350z" />
<glyph unicode="&#x433;" horiz-adv-x="837" d="M156 0v1104h620v-137h-450v-967h-170z" />
<glyph unicode="&#x434;" horiz-adv-x="1302" d="M70 104q50 33 92 78.5t71.5 90.5t55 106t41 109t30 116.5t22 111t17.5 109.5l41 279h568l108 -965l86 -35l-10 -403h-125l-8 299h-842l-10 -299h-123zM293 131h665l-90 840h-290l-27 -176q-13 -86 -22.5 -139.5t-31 -140t-46.5 -147t-66 -126.5t-92 -111z" />
<glyph unicode="&#x435;" horiz-adv-x="1138" d="M109 553q0 258 129.5 415.5t351.5 157.5q204 0 322 -126t118 -347q0 -46 -2 -73l-754 -109q13 -174 111 -264t260 -90q83 0 164 18t137 49l53 -129q-62 -35 -159 -56.5t-203 -21.5q-248 0 -388 152.5t-140 423.5zM264 590l602 86q-1 158 -75.5 238.5t-202.5 80.5 q-146 0 -233.5 -109t-90.5 -296z" />
<glyph unicode="&#x436;" horiz-adv-x="1517" d="M41 0l195 362q98 185 262 242l-445 500h197l426 -510h4v510h158v-510h4l428 510h194l-444 -500q161 -52 262 -242l195 -362h-181l-176 340q-46 88 -117.5 144.5t-164.5 56.5v-541h-158v541q-93 0 -165 -56.5t-118 -144.5l-176 -340h-180z" />
<glyph unicode="&#x437;" horiz-adv-x="1009" d="M63 55l60 119q56 -28 140 -45.5t169 -17.5q130 0 214.5 51.5t84.5 148.5q0 91 -81 146t-240 55h-148v115h141q142 0 215.5 49t73.5 137q0 89 -72.5 135.5t-183.5 46.5q-76 0 -155.5 -17t-135.5 -46l-55 117q71 35 170.5 56t198.5 21q183 0 294 -79.5t111 -219.5 q0 -91 -58.5 -157t-154.5 -88v-4q108 -24 181 -96t73 -183q0 -153 -127.5 -237.5t-328.5 -84.5q-105 0 -208.5 21t-177.5 57z" />
<glyph unicode="&#x438;" d="M150 0v1104h153v-754l-4 -145h4q33 72 68 127l495 772h178v-1104h-151v774l4 141h-4q-31 -72 -68 -127l-506 -788h-169z" />
<glyph unicode="&#x439;" d="M150 0v1104h153v-754l-4 -145h4q33 72 68 127l495 772h178v-1104h-151v774l4 141h-4q-31 -72 -68 -127l-506 -788h-169zM315 1501l107 19q14 -90 55.5 -134.5t116.5 -44.5t115.5 44.5t54.5 134.5l106 -19q-8 -128 -80 -201t-196 -73q-125 0 -198 73.5t-81 200.5z" />
<glyph unicode="&#x43a;" horiz-adv-x="1046" d="M154 0v1104h168v-504h4l465 504h206l-487 -502q93 -28 160.5 -86.5t122.5 -150.5l217 -365h-191l-198 340q-50 86 -126.5 140.5t-172.5 54.5v-535h-168z" />
<glyph unicode="&#x43b;" horiz-adv-x="1230" d="M35 109q68 29 121 83t85 112t57 143.5t36.5 150t25.5 160.5l50 346h589l123 -1104h-170l-106 967h-287l-33 -228q-8 -58 -14.5 -99.5t-18.5 -100t-24.5 -102.5t-31.5 -98t-41 -95t-53 -85t-67 -77.5t-82.5 -63t-99.5 -49.5z" />
<glyph unicode="&#x43c;" horiz-adv-x="1521" d="M98 0l156 1104h207l264 -774q9 -27 17.5 -61.5t13.5 -54.5l4 -21h4q15 76 35 137l262 774h209l153 -1104h-161l-101 807l-12 147h-4q-16 -81 -39 -147l-277 -807h-137l-276 807q-10 29 -20 66t-14 59l-5 22h-4q-3 -79 -11 -147l-102 -807h-162z" />
<glyph unicode="&#x43d;" horiz-adv-x="1122" d="M150 0v1104h169v-479h484v479h170v-1104h-170v502h-484v-502h-169z" />
<glyph unicode="&#x43e;" horiz-adv-x="1155" d="M109 553q0 254 123.5 413.5t345.5 159.5t345.5 -159.5t123.5 -413.5q0 -124 -31 -228.5t-89 -182t-147.5 -121.5t-201.5 -44t-201.5 44t-147.5 121.5t-89 182t-31 228.5zM279 555q0 -198 76.5 -317t222.5 -119t222.5 119t76.5 317q0 197 -76.5 314.5t-222.5 117.5 t-222.5 -117.5t-76.5 -314.5z" />
<glyph unicode="&#x43f;" horiz-adv-x="1132" d="M150 0v1104h833v-1104h-170v967h-491v-967h-172z" />
<glyph unicode="&#x440;" horiz-adv-x="1136" d="M150 -440v1489q58 31 157.5 54t198.5 23q249 0 386.5 -151.5t137.5 -411.5t-135 -417.5t-377 -157.5q-114 0 -196 28v-456h-172zM322 152q26 -11 80.5 -20t103.5 -9q168 0 260 121.5t92 318.5q0 196 -91.5 311t-258.5 115q-52 0 -105 -11t-81 -26v-800z" />
<glyph unicode="&#x441;" horiz-adv-x="942" d="M109 553q0 146 40 259.5t108.5 180t150.5 100t174 33.5q164 0 274 -75l-59 -125q-80 57 -197 57q-62 0 -116.5 -24t-100 -73t-72 -134.5t-26.5 -196.5t27 -197t72.5 -135.5t100 -74.5t115.5 -25q114 0 197 59l59 -129q-110 -76 -274 -76q-73 0 -140 20.5t-128 66 t-106.5 111t-72 163t-26.5 215.5z" />
<glyph unicode="&#x442;" horiz-adv-x="917" d="M61 965v139h795v-139h-311v-965h-170v965h-314z" />
<glyph unicode="&#x443;" horiz-adv-x="1114" d="M82 1104h178q66 -429 311 -948h4q219 489 279 948h178q-63 -483 -354 -1073l-232 -471h-180l223 440q-159 297 -264 567t-143 537z" />
<glyph unicode="&#x444;" horiz-adv-x="1579" d="M111 553q0 89 14.5 170.5t47 154.5t80 127t118.5 85.5t157 31.5q106 0 181 -53v539h161v-539q75 53 183 53q86 0 156.5 -31.5t118 -85.5t79.5 -127t46.5 -154.5t14.5 -170.5t-14.5 -170.5t-46.5 -155t-79.5 -127.5t-118 -86t-156.5 -32q-108 0 -183 53v-475h-161v475 q-75 -53 -181 -53q-107 0 -189.5 48t-131 130t-72.5 181.5t-24 211.5zM272 553q0 -84 13.5 -157.5t43.5 -141t87 -106.5t135 -39q90 0 158 45v796q-71 47 -158 47q-78 0 -135 -39t-87 -106.5t-43.5 -141t-13.5 -157.5zM870 154q68 -45 158 -45q78 0 135 39t87 106.5 t43.5 141t13.5 157.5t-13.5 157.5t-43.5 141t-87 106.5t-135 39q-87 0 -158 -47v-796z" />
<glyph unicode="&#x445;" horiz-adv-x="1060" d="M47 0l379 573l-350 531h192l260 -416h4l261 416h192l-350 -531l379 -573h-195l-287 455h-4l-286 -455h-195z" />
<glyph unicode="&#x446;" horiz-adv-x="1157" d="M150 0v1104h172v-967h479v967h172v-965l82 -35l-11 -403h-124l-9 299h-761z" />
<glyph unicode="&#x447;" horiz-adv-x="1120" d="M139 768v336h172v-324q0 -254 264 -254q120 0 226 64v514h170v-1104h-170v453q-128 -66 -258 -66q-196 0 -300 98t-104 283z" />
<glyph unicode="&#x448;" horiz-adv-x="1697" d="M150 0v1104h172v-969h442v969h170v-969h444v969h170v-1104h-1398z" />
<glyph unicode="&#x449;" horiz-adv-x="1732" d="M150 0v1104h172v-969h442v969h170v-969h444v969h170v-965l82 -35l-10 -403h-125l-8 299h-1337z" />
<glyph unicode="&#x44a;" horiz-adv-x="1204" d="M57 967v137h428v-442q86 24 179 24q214 0 326 -94.5t112 -259.5q0 -166 -114.5 -260.5t-321.5 -94.5q-92 0 -186.5 21.5t-162.5 56.5v912h-260zM485 133q80 -37 181 -37q133 0 200.5 60.5t67.5 175.5q0 112 -69.5 173.5t-211.5 61.5q-90 0 -168 -24v-410z" />
<glyph unicode="&#x44b;" horiz-adv-x="1431" d="M150 55v1049h167v-442q86 24 181 24q214 0 326 -94.5t112 -259.5q0 -166 -115 -260.5t-323 -94.5q-92 0 -186 21.5t-162 56.5zM317 133q80 -37 181 -37q133 0 201.5 60.5t68.5 175.5q0 112 -70 173.5t-213 61.5q-90 0 -168 -24v-410zM1112 0v1104h170v-1104h-170z" />
<glyph unicode="&#x44c;" horiz-adv-x="1036" d="M150 55v1049h167v-442q86 24 181 24q214 0 326 -94.5t112 -259.5q0 -166 -115 -260.5t-323 -94.5q-92 0 -186 21.5t-162 56.5zM317 133q80 -37 181 -37q133 0 201.5 60.5t68.5 175.5q0 112 -70 173.5t-213 61.5q-90 0 -168 -24v-410z" />
<glyph unicode="&#x44d;" horiz-adv-x="1036" d="M84 55l53 117q40 -28 108.5 -47t131.5 -19q76 0 141 23.5t117.5 70.5t85 124.5t37.5 179.5h-555v125h553q-18 185 -122 276.5t-257 91.5q-64 0 -132.5 -18t-107.5 -45l-53 115q51 36 134.5 56.5t168.5 20.5q115 0 213 -35.5t172 -105t116 -180.5t42 -252t-42 -252.5 t-116 -181.5t-172 -106t-213 -36q-85 0 -167.5 21t-135.5 57z" />
<glyph unicode="&#x44e;" horiz-adv-x="1556" d="M150 0v1104h167v-471h254q18 223 129.5 358t303.5 135q141 0 241 -75.5t148.5 -203t48.5 -294.5t-48.5 -295t-148.5 -204.5t-241 -76.5q-196 0 -309.5 144t-125.5 377h-252v-498h-167zM729 555q0 -198 70.5 -318t204.5 -120q132 0 203 120.5t71 317.5t-70.5 315.5 t-203.5 118.5q-134 0 -204.5 -118.5t-70.5 -315.5z" />
<glyph unicode="&#x44f;" horiz-adv-x="1095" d="M76 0l166 348q24 50 62.5 93.5t80.5 64.5v4q-112 23 -183 99t-71 190q0 150 117 238.5t325 88.5q105 0 204 -21t165 -56v-1049h-166v465h-172q-131 0 -192 -131l-156 -334h-180zM297 793q0 -103 70 -159t211 -56h198v395q-76 37 -205 37q-132 0 -203 -58.5t-71 -158.5z " />
<glyph unicode="&#x451;" horiz-adv-x="1138" d="M109 553q0 258 129.5 415.5t351.5 157.5q204 0 322 -126t118 -347q0 -46 -2 -73l-754 -109q13 -174 111 -264t260 -90q83 0 164 18t137 49l53 -129q-62 -35 -159 -56.5t-203 -21.5q-248 0 -388 152.5t-140 423.5zM264 590l602 86q-1 158 -75.5 238.5t-202.5 80.5 q-146 0 -233.5 -109t-90.5 -296zM291 1370q0 38 29 66t69 28t69 -28t29 -66t-29 -66t-69 -28t-69 28t-29 66zM670 1370q0 38 29 66t69 28t69 -28t29 -66t-29 -66t-69 -28t-69 28t-29 66z" />
<glyph unicode="&#x452;" horiz-adv-x="1148" d="M-6 1296v107h160v205h165v-205h355v-107h-355v-237q107 63 234 63q122 0 215 -49.5t150.5 -139t86.5 -208.5t29 -264q0 -284 -117.5 -511t-324.5 -333l-86 119q178 99 268 287t90 438q0 112 -19.5 205t-59 165t-106 112t-153.5 40q-108 0 -207 -61v-922h-165v1296h-160z " />
<glyph unicode="&#x453;" horiz-adv-x="837" d="M156 0v1104h620v-137h-450v-967h-170zM356 1235l152 266q44 47 104 47q28 0 49 -12.5t27 -34.5l-205 -266h-127z" />
<glyph unicode="&#x454;" horiz-adv-x="1036" d="M109 553q0 141 42 252t116 180.5t171.5 105t212.5 35.5q85 0 167.5 -20.5t133.5 -56.5l-53 -115q-39 27 -107.5 45t-132.5 18q-152 0 -255 -91t-121 -277h551v-125h-553q10 -199 115 -298.5t263 -99.5q63 0 131.5 19t108.5 47l53 -117q-53 -36 -135 -57t-166 -21 q-115 0 -212.5 36t-171.5 106t-116 181.5t-42 252.5z" />
<glyph unicode="&#x455;" horiz-adv-x="927" d="M86 55l61 131q46 -27 123.5 -48t141.5 -21q106 0 170.5 48.5t64.5 129.5q0 42 -15.5 74.5t-49 57t-68 41t-90.5 36.5t-93 36.5t-82 45t-71.5 60t-44.5 78.5t-18 105q0 132 97.5 214.5t268.5 82.5q180 0 307 -77l-59 -121q-41 27 -105.5 46t-125.5 19q-97 0 -153 -46.5 t-56 -117.5q0 -42 14.5 -73.5t47.5 -55t64.5 -38.5t86.5 -35q44 -16 70.5 -27t64.5 -29.5t61.5 -35t50.5 -42t41.5 -53t24.5 -65t10 -80.5q0 -145 -109.5 -231.5t-301.5 -86.5q-86 0 -175.5 22t-152.5 56z" />
<glyph unicode="&#x456;" horiz-adv-x="487" d="M137 1380q0 43 32.5 73t76.5 30t75 -30t31 -73t-31 -72.5t-75 -29.5q-45 0 -77 30t-32 72zM160 0v1104h170v-1104h-170z" />
<glyph unicode="&#x457;" horiz-adv-x="487" d="M-43 1370q0 38 29 66t69 28t69.5 -28t29.5 -66t-29.5 -66t-69.5 -28t-69 28t-29 66zM160 0v1104h170v-1104h-170zM336 1370q0 38 29 66t69 28t69 -28t29 -66t-29 -66t-69 -28t-69 28t-29 66z" />
<glyph unicode="&#x458;" horiz-adv-x="487" d="M-106 -307q118 39 192 143.5t74 280.5v987h170v-987q0 -107 -23.5 -195.5t-63 -150.5t-96.5 -108.5t-119 -73.5t-134 -42v146zM139 1380q0 43 32.5 73t76.5 30t75 -30t31 -73t-31 -72.5t-75 -29.5q-45 0 -77 30t-32 72z" />
<glyph unicode="&#x459;" horiz-adv-x="1718" d="M35 109q47 21 86.5 55t68 72t52 89.5t39 98.5t29.5 109.5t21.5 111t16.5 113.5l47 346h604v-442q86 24 179 24q214 0 326 -94.5t112 -259.5q0 -172 -120.5 -263.5t-315.5 -91.5q-92 0 -186.5 21.5t-162.5 56.5v912h-286l-31 -228q-10 -74 -19 -129t-26 -128.5t-37 -129 t-52 -118t-71 -109t-93.5 -87.5t-119.5 -67zM999 133q80 -37 181 -37q133 0 200.5 60.5t67.5 175.5q0 112 -69.5 173.5t-211.5 61.5q-90 0 -168 -24v-410z" />
<glyph unicode="&#x45a;" horiz-adv-x="1669" d="M150 0v1104h167v-471h463v471h170v-442q86 24 178 24q214 0 326.5 -94.5t112.5 -259.5t-115.5 -260t-323.5 -95q-92 0 -186 21.5t-162 56.5v443h-463v-498h-167zM950 133q80 -37 180 -37q133 0 201 60.5t68 175.5q0 112 -70 173.5t-213 61.5q-88 0 -166 -24v-410z" />
<glyph unicode="&#x45b;" horiz-adv-x="1136" d="M-6 1296v107h160v205h165v-205h355v-107h-355v-239q120 65 261 65q192 0 299.5 -94.5t107.5 -271.5v-756h-170v743q0 120 -70.5 180t-199.5 60q-127 0 -228 -61v-922h-165v1296h-160z" />
<glyph unicode="&#x45c;" horiz-adv-x="1046" d="M154 0v1104h168v-504h4l465 504h206l-487 -502q93 -28 160.5 -86.5t122.5 -150.5l217 -365h-191l-198 340q-50 86 -126.5 140.5t-172.5 54.5v-535h-168zM422 1235l151 266q44 47 105 47q28 0 49 -12.5t27 -34.5l-205 -266h-127z" />
<glyph unicode="&#x45e;" horiz-adv-x="1114" d="M82 1104h178q66 -429 311 -948h4q219 489 279 948h178q-63 -483 -354 -1073l-232 -471h-180l223 440q-159 297 -264 567t-143 537zM281 1501l106 19q14 -90 55.5 -134.5t116.5 -44.5t115.5 44.5t54.5 134.5l107 -19q-8 -128 -80 -201t-197 -73t-197.5 73.5t-80.5 200.5z " />
<glyph unicode="&#x45f;" horiz-adv-x="1130" d="M150 0v1104h172v-967h489v967h170v-1104h-344l-10 -299h-123l-8 299h-346z" />
<glyph unicode="&#x490;" horiz-adv-x="1001" d="M168 0v1483h620v266h148v-418h-594v-1331h-174z" />
<glyph unicode="&#x491;" horiz-adv-x="864" d="M156 0v1104h506v252h141v-389h-477v-967h-170z" />
<glyph unicode="&#x4d9;" horiz-adv-x="1138" d="M109 451q0 46 2 73l753 109q-13 174 -110.5 264t-259.5 90q-83 0 -164 -18t-137 -49l-54 129q61 34 159.5 55.5t205.5 21.5q248 0 387 -152t139 -423q0 -258 -129.5 -416t-351.5 -158q-204 0 -322 126.5t-118 347.5zM272 428q1 -158 75.5 -238.5t203.5 -80.5 q146 0 233 109t90 296z" />
<glyph unicode="&#x2000;" horiz-adv-x="963" />
<glyph unicode="&#x2001;" horiz-adv-x="1927" />
<glyph unicode="&#x2002;" horiz-adv-x="963" />
<glyph unicode="&#x2003;" horiz-adv-x="1927" />
<glyph unicode="&#x2004;" horiz-adv-x="642" />
<glyph unicode="&#x2005;" horiz-adv-x="481" />
<glyph unicode="&#x2006;" horiz-adv-x="321" />
<glyph unicode="&#x2007;" horiz-adv-x="321" />
<glyph unicode="&#x2008;" horiz-adv-x="240" />
<glyph unicode="&#x2009;" horiz-adv-x="385" />
<glyph unicode="&#x200a;" horiz-adv-x="107" />
<glyph unicode="&#x2010;" horiz-adv-x="841" d="M143 590v151h555v-151h-555z" />
<glyph unicode="&#x2011;" horiz-adv-x="841" d="M143 590v151h555v-151h-555z" />
<glyph unicode="&#x2012;" horiz-adv-x="841" d="M143 590v151h555v-151h-555z" />
<glyph unicode="&#x2013;" horiz-adv-x="837" d="M-8 596v139h854v-139h-854z" />
<glyph unicode="&#x2014;" horiz-adv-x="1673" d="M166 596v139h1341v-139h-1341z" />
<glyph unicode="&#x2018;" horiz-adv-x="565" d="M98 1100l244 508h125l-180 -508q-44 -62 -107 -62q-35 0 -57 18.5t-25 43.5z" />
<glyph unicode="&#x2019;" horiz-adv-x="565" d="M98 1051l178 505q44 62 109 62q35 0 57 -18.5t25 -43.5l-246 -505h-123z" />
<glyph unicode="&#x201a;" horiz-adv-x="565" d="M98 -346l178 508q44 61 109 61q35 0 57 -18t25 -43l-246 -508h-123z" />
<glyph unicode="&#x201c;" horiz-adv-x="944" d="M98 1100l244 508h125l-180 -508q-44 -62 -107 -62q-35 0 -57 18.5t-25 43.5zM477 1100l244 508h125l-180 -508q-44 -62 -107 -62q-35 0 -57 18.5t-25 43.5z" />
<glyph unicode="&#x201d;" horiz-adv-x="944" d="M98 1051l178 505q44 62 109 62q35 0 57 -18.5t25 -43.5l-246 -505h-123zM477 1051l178 505q44 62 109 62q35 0 57 -18.5t25 -43.5l-246 -505h-123z" />
<glyph unicode="&#x201e;" horiz-adv-x="944" d="M98 -346l178 508q44 61 109 61q35 0 57 -18t25 -43l-246 -508h-123zM477 -346l178 508q44 61 109 61q35 0 57 -18t25 -43l-246 -508h-123z" />
<glyph unicode="&#x2022;" horiz-adv-x="720" d="M160 666q0 83 58.5 141.5t141.5 58.5t142 -58.5t59 -141.5t-59 -142t-142 -59t-141.5 59t-58.5 142z" />
<glyph unicode="&#x2026;" horiz-adv-x="1544" d="M139 104q0 50 34.5 84.5t84.5 34.5t84.5 -34.5t34.5 -84.5q0 -49 -34.5 -83.5t-84.5 -34.5t-84.5 34.5t-34.5 83.5zM655 104q0 50 34 84.5t83 34.5q50 0 84.5 -34.5t34.5 -84.5q0 -49 -34.5 -83.5t-84.5 -34.5q-49 0 -83 34t-34 84zM1169 104q0 50 34.5 84.5t84.5 34.5 q49 0 83 -34.5t34 -84.5t-34 -84t-83 -34q-50 0 -84.5 34.5t-34.5 83.5z" />
<glyph unicode="&#x202f;" horiz-adv-x="385" />
<glyph unicode="&#x2039;" horiz-adv-x="753" d="M125 625l375 495l106 -82l-315 -413l315 -414l-106 -82z" />
<glyph unicode="&#x203a;" horiz-adv-x="753" d="M147 211l316 414l-316 413l107 82l375 -495l-375 -496z" />
<glyph unicode="&#x205f;" horiz-adv-x="481" />
<glyph unicode="&#x20ac;" horiz-adv-x="1443" d="M131 522v103h217q-6 55 -6 116q0 69 6 131h-217v101h234q55 259 226.5 395.5t405.5 136.5q109 0 202.5 -21.5t152.5 -56.5l-64 -131q-46 28 -123 45t-164 17q-82 0 -154 -23t-134 -68.5t-107.5 -120.5t-68.5 -173h589v-101h-610q-8 -82 -8 -129q0 -44 8 -118h610v-103 h-591q44 -198 169.5 -296.5t296.5 -98.5q186 0 287 61l64 -133q-132 -78 -355 -78q-115 0 -217 34t-186.5 100.5t-145 171.5t-86.5 239h-231z" />
<glyph unicode="&#x2122;" horiz-adv-x="1947" d="M111 1372v111h620v-111h-244v-770h-133v770h-243zM793 602l120 881h166l199 -617q7 -22 14 -48.5t10 -41.5l3 -16h4q10 57 26 106l197 617h166l121 -881h-121l-86 645l-8 109h-5q-12 -60 -28 -109l-209 -645h-113l-209 645q-7 22 -14 49t-10 44l-4 16h-4q-3 -60 -9 -109 l-84 -645h-122z" />
<glyph unicode="&#x25fc;" horiz-adv-x="1105" d="M0 0v1106h1106v-1106h-1106z" />
</font>
</defs>
</svg>
