<?xml version="1.0" standalone="no"?>
<!DOCTYPE svg PUBLIC "-//W3C//DTD SVG 1.1//EN" "http://www.w3.org/Graphics/SVG/1.1/DTD/svg11.dtd" >
<svg xmlns="http://www.w3.org/2000/svg">
<metadata></metadata>
<defs>
<font id="samo_sans_pro_rgregular" horiz-adv-x="1126" >
<font-face units-per-em="2048" ascent="1509" descent="-539" />
<missing-glyph horiz-adv-x="512" />
<glyph unicode="&#x2e;&#x2e;&#x2e;" horiz-adv-x="1701" d="M174 84q0 50 34 84.5t83 34.5t84 -34.5t35 -84.5q0 -49 -34.5 -83t-84.5 -34q-49 0 -83 33.5t-34 83.5zM733 84q0 50 34 84.5t83 34.5q50 0 84.5 -34.5t34.5 -84.5q0 -49 -34.5 -83t-84.5 -34t-83.5 33.5t-33.5 83.5zM1292 84q0 50 34 84.5t83 34.5t84 -34.5t35 -84.5 q0 -49 -34.5 -83t-84.5 -34q-49 0 -83 33.5t-34 83.5z" />
<glyph unicode="ff" horiz-adv-x="1302" d="M51 813v90l156 39v174q0 188 93.5 298t256.5 110q72 0 129 -25l-31 -119q-49 11 -77 11q-113 0 -160 -71.5t-47 -236.5v-129h432v172q0 191 92.5 303.5t261.5 112.5q154 0 248 -67l-31 -119q-95 45 -196 45q-107 0 -159 -73t-52 -234v-140h315v-141h-315v-813h-164v813 h-432v-813h-164v813h-156z" />
<glyph unicode="fi" horiz-adv-x="1118" d="M51 813v90l156 39v174q0 189 119 307.5t313 118.5q107 0 184.5 -24.5t116.5 -53.5l-31 -118q-119 55 -270 55q-139 0 -203.5 -83t-64.5 -224v-140h594v-954h-164v813h-430v-813h-164v813h-156z" />
<glyph unicode="fl" horiz-adv-x="1138" d="M51 813v90l156 39v174q0 189 119 307.5t313 118.5q49 0 105 -5t135 -15t106 -13v-1509h-164v1384q-83 17 -182 17q-139 0 -203.5 -83t-64.5 -224v-140h315v-141h-315v-813h-164v813h-156z" />
<glyph unicode="ffi" horiz-adv-x="1714" d="M51 813v90l156 39v174q0 188 93.5 298t256.5 110q72 0 129 -25l-31 -119q-49 11 -77 11q-113 0 -160 -71.5t-47 -236.5v-129h432v162q0 189 119 307.5t313 118.5q107 0 184.5 -24.5t116.5 -53.5l-31 -118q-119 55 -270 55q-139 0 -203.5 -83t-64.5 -224v-140h594v-954 h-164v813h-430v-813h-164v813h-432v-813h-164v813h-156z" />
<glyph unicode="ffl" horiz-adv-x="1734" d="M51 813v90l156 39v174q0 188 93.5 298t256.5 110q72 0 129 -25l-31 -119q-49 11 -77 11q-113 0 -160 -71.5t-47 -236.5v-129h432v162q0 189 119 307.5t313 118.5q49 0 105 -5t135 -15t106 -13v-1509h-164v1384q-83 17 -182 17q-139 0 -203.5 -83t-64.5 -224v-140h331 v-141h-331v-813h-164v813h-432v-813h-164v813h-156z" />
<glyph unicode="&#x17f;t" horiz-adv-x="1282" d="M51 813v90l156 39v184q0 191 92.5 303.5t261.5 112.5q154 0 248 -67l-31 -119q-95 45 -196 45q-107 0 -159 -73t-52 -234v-1094h-164v813h-156zM553 813v90l164 41l74 254h81v-244h338v-141h-338v-502q0 -108 41.5 -158.5t128.5 -50.5q62 0 127 25l41 -74 q-35 -34 -97.5 -55t-127.5 -21q-138 0 -207 72t-69 225v539h-156z" />
<glyph unicode="f&#xed;" horiz-adv-x="1189" d="M51 813v90l156 39v174q0 202 86 314t246 112q122 0 229 -67l-31 -119q-92 45 -172 45q-104 0 -149 -72t-45 -235v-140h614v-954h-164v813h-450v-813h-164v813h-156zM795 1149l227 348l143 -92l-305 -299z" />
<glyph unicode="f&#x13e;" horiz-adv-x="1138" d="M51 813v90l156 39v174q0 189 119 307.5t313 118.5q49 0 105 -5t135 -15t106 -13v-1509h-164v1384q-83 17 -182 17q-139 0 -203.5 -83t-64.5 -224v-140h315v-141h-315v-813h-164v813h-156zM1108 1112v397h170l-88 -397h-82z" />
<glyph unicode="fj" horiz-adv-x="1118" d="M51 813v90l156 39v174q0 189 119 307.5t313 118.5q107 0 184.5 -24.5t116.5 -53.5l-31 -118q-119 55 -270 55q-139 0 -203.5 -83t-64.5 -224v-140h594v-1185q0 -79 -22.5 -138.5t-61 -93t-84 -49.5t-97.5 -16q-118 0 -196 69l41 74q67 -23 108 -23q73 0 110.5 54.5 t37.5 158.5v1008h-430v-813h-164v813h-156z" />
<glyph unicode="ffj" horiz-adv-x="1714" d="M51 813v90l156 39v174q0 188 93.5 298t256.5 110q72 0 129 -25l-31 -119q-49 11 -77 11q-113 0 -160 -71.5t-47 -236.5v-129h432v162q0 189 119 307.5t313 118.5q107 0 184.5 -24.5t116.5 -53.5l-31 -118q-119 55 -270 55q-139 0 -203.5 -83t-64.5 -224v-140h594v-1185 q0 -79 -22.5 -138.5t-61 -93t-84 -49.5t-97.5 -16q-118 0 -196 69l41 74q67 -23 108 -23q73 0 110.5 54.5t37.5 158.5v1008h-430v-813h-164v813h-432v-813h-164v813h-156z" />
<glyph unicode="fb" horiz-adv-x="1787" d="M51 813v90l156 39v174q0 189 119 307.5t313 118.5q49 0 105 -5t135 -15t106 -13v-624q121 102 281 102q99 0 181 -40.5t136 -109.5t83.5 -159.5t29.5 -192.5q0 -238 -124 -378t-308 -140q-83 0 -161.5 36t-139.5 110l-52 -113h-90v1384q-83 17 -182 17q-139 0 -203.5 -83 t-64.5 -224v-140h315v-141h-315v-813h-164v813h-156zM985 248q76 -135 252 -135q132 0 210.5 96.5t78.5 241.5q0 76 -16.5 143.5t-50 124.5t-92.5 90t-136 33q-70 0 -138 -27t-108 -70v-497z" />
<glyph unicode="ffb" horiz-adv-x="2383" d="M51 813v90l156 39v174q0 188 93.5 298t256.5 110q72 0 129 -25l-31 -119q-49 11 -77 11q-113 0 -160 -71.5t-47 -236.5v-129h432v162q0 189 119 307.5t313 118.5q49 0 105 -5t135 -15t106 -13v-624q121 102 281 102q99 0 181 -40.5t136 -109.5t83.5 -159.5t29.5 -192.5 q0 -238 -124 -378t-308 -140q-83 0 -161.5 36t-139.5 110l-52 -113h-90v1384q-83 17 -182 17q-139 0 -203.5 -83t-64.5 -224v-140h315v-141h-315v-813h-164v813h-432v-813h-164v813h-156zM1581 248q76 -135 252 -135q132 0 210.5 96.5t78.5 241.5q0 76 -16.5 143.5 t-50 124.5t-92.5 90t-136 33q-70 0 -138 -27t-108 -70v-497z" />
<glyph unicode="fh" horiz-adv-x="1769" d="M51 813v90l156 39v174q0 189 119 307.5t313 118.5q49 0 105 -5t135 -15t106 -13v-645q68 55 156.5 89t183.5 34q138 0 216.5 -79.5t78.5 -248.5v-659h-164v600q0 121 -44 181.5t-165 60.5q-65 0 -145 -40t-117 -83v-719h-164v1384q-83 17 -182 17q-139 0 -203.5 -83 t-64.5 -224v-140h315v-141h-315v-813h-164v813h-156z" />
<glyph unicode="ffh" horiz-adv-x="2365" d="M51 813v90l156 39v174q0 188 93.5 298t256.5 110q72 0 129 -25l-31 -119q-49 11 -77 11q-113 0 -160 -71.5t-47 -236.5v-129h432v162q0 189 119 307.5t313 118.5q49 0 105 -5t135 -15t106 -13v-645q68 55 156.5 89t183.5 34q138 0 216.5 -79.5t78.5 -248.5v-659h-164v600 q0 121 -44 181.5t-165 60.5q-65 0 -145 -40t-117 -83v-719h-164v1384q-83 17 -182 17q-139 0 -203.5 -83t-64.5 -224v-140h315v-141h-315v-813h-164v813h-432v-813h-164v813h-156z" />
<glyph unicode="fk" horiz-adv-x="1665" d="M51 813v90l156 39v174q0 189 119 307.5t313 118.5q49 0 105 -5t135 -15t106 -13v-948h102l328 393h199l-369 -430l369 -524h-195l-295 420h-139v-420h-164v1384q-83 17 -182 17q-139 0 -203.5 -83t-64.5 -224v-140h315v-141h-315v-813h-164v813h-156z" />
<glyph unicode="ffk" horiz-adv-x="2260" d="M51 813v90l156 39v174q0 188 93.5 298t256.5 110q72 0 129 -25l-31 -119q-49 11 -77 11q-113 0 -160 -71.5t-47 -236.5v-129h432v162q0 189 119 307.5t313 118.5q49 0 105 -5t135 -15t106 -13v-948h102l328 393h199l-369 -430l369 -524h-195l-295 420h-139v-420h-164 v1384q-83 17 -182 17q-139 0 -203.5 -83t-64.5 -224v-140h315v-141h-315v-813h-164v813h-432v-813h-164v813h-156z" />
<glyph unicode="ft" horiz-adv-x="1384" d="M51 813v90l156 39v184q0 191 92.5 303.5t261.5 112.5q154 0 248 -67l-31 -119q-95 45 -196 45q-107 0 -159 -73t-52 -234v-140h450l72 244h82v-244h338v-141h-338v-502q0 -108 41.5 -158.5t128.5 -50.5q62 0 127 25l41 -74q-35 -34 -98 -55t-128 -21q-138 0 -207 72 t-69 225v539h-440v-813h-164v813h-156z" />
<glyph unicode="&#x105;j" horiz-adv-x="1484" d="M96 250q0 74 30 130.5t75.5 88.5t109.5 52.5t122.5 27t123.5 6.5h139v41q0 129 -55 187.5t-178 58.5q-71 0 -152 -26.5t-129 -57.5l-30 119q71 50 165.5 80t174.5 30q107 0 180 -29t113.5 -86t57.5 -130.5t17 -174.5v-567q-107 -33 -173 -105.5t-66 -162.5q0 -51 36 -82 t99 -31q96 0 185 51t142.5 132t53.5 167v985h163v-960q0 -141 -85.5 -256t-222.5 -177.5t-294 -62.5q-106 0 -176.5 48t-70.5 137q0 63 26 119.5t70 100.5t95 77t110 57l-33 76q-50 -64 -132.5 -105t-185.5 -41q-136 0 -220.5 76.5t-84.5 206.5zM262 268q0 -73 50.5 -119.5 t144.5 -46.5q79 0 146 36t93 85v217h-104q-330 0 -330 -172zM1108 1262q0 46 32.5 79t78.5 33t79 -33t33 -79t-33 -78.5t-79 -32.5t-78.5 32.5t-32.5 78.5z" />
<glyph unicode="&#x17f;i" horiz-adv-x="1077" d="M51 813v90l156 39v174q0 194 100.5 310t290.5 116q176 0 281 -78l-31 -118q-119 55 -250 55q-125 0 -176 -75.5t-51 -231.5v-1094h-164v813h-156zM739 0v954h164v-954h-164z" />
<glyph unicode="&#x17f;l" horiz-adv-x="1077" d="M51 813v90l156 39v174q0 194 100.5 310t290.5 116q49 0 101.5 -5t121.5 -14.5t103 -13.5v-1509h-164v1384q-83 17 -162 17q-57 0 -98.5 -15.5t-66 -41t-38.5 -66.5t-19 -83.5t-5 -100.5v-1094h-164v813h-156z" />
<glyph unicode="&#x17f;&#x17f;" horiz-adv-x="1128" d="M51 813v90l156 39v174q0 192 100 304t291 112q158 0 270 -68q91 78 228 78q153 0 247 -67l-30 -119q-95 45 -197 45q-107 0 -159 -73t-52 -234v-1094h-164v813h-155v90l155 39v184q0 136 47 232q-88 39 -190 39q-126 0 -176.5 -74t-50.5 -229v-1094h-164v813h-156z" />
<glyph unicode="&#x17f;h" horiz-adv-x="1708" d="M51 813v90l156 39v174q0 194 100.5 310t290.5 116q49 0 101.5 -5t121.5 -14.5t103 -13.5v-645q68 55 156.5 89t183.5 34q138 0 216.5 -79.5t78.5 -248.5v-659h-164v600q0 121 -44 181.5t-165 60.5q-65 0 -145 -40t-117 -83v-719h-164v1384q-83 17 -162 17 q-57 0 -98.5 -15.5t-66 -41t-38.5 -66.5t-19 -83.5t-5 -100.5v-1094h-164v813h-156z" />
<glyph unicode=" "  horiz-adv-x="512" />
<glyph unicode="&#x09;" horiz-adv-x="512" />
<glyph unicode="&#xa0;" horiz-adv-x="512" />
<glyph unicode="!" horiz-adv-x="665" d="M215 84q0 50 34 84.5t83 34.5q50 0 84.5 -34.5t34.5 -84.5q0 -49 -34.5 -83t-84.5 -34t-83.5 33.5t-33.5 83.5zM236 1341h196l-45 -901h-106z" />
<glyph unicode="&#x22;" horiz-adv-x="645" d="M61 1509h197l-59 -456h-82zM387 1509h197l-60 -456h-82z" />
<glyph unicode="#" horiz-adv-x="1081" d="M72 315v121h139l82 463h-123v121h143l58 321h141l-57 -321h293l57 321h143l-57 -321h119v-121h-140l-82 -463h121v-121h-143l-55 -315h-142l56 315h-295l-56 -315h-141l55 315h-116zM352 436h293l82 463h-293z" />
<glyph unicode="$" horiz-adv-x="1067" d="M84 137l59 107q69 -53 166.5 -87t194.5 -34q51 0 99.5 11t93 34t71.5 65t27 97q0 53 -29.5 97.5t-77.5 75t-109.5 62t-125.5 58t-125.5 63.5t-109.5 78t-77.5 103t-29.5 137q0 159 100.5 253.5t263.5 112.5v180h121v-178q99 -8 193 -46t147 -81l-35 -135 q-84 52 -179 80.5t-179 28.5q-108 0 -180 -54.5t-72 -150.5q0 -43 23.5 -80t63 -65t91 -54t108 -51t113 -52.5t108 -62t91 -75t63 -96.5t23.5 -122q0 -76 -22.5 -139t-59 -105t-86.5 -72.5t-102 -46.5t-109 -22v-180h-121v180q-235 16 -391 166z" />
<glyph unicode="%" horiz-adv-x="1593" d="M102 999q0 162 87.5 253t224.5 91q150 0 229.5 -100t79.5 -272q0 -151 -87 -244.5t-222 -93.5q-148 0 -230 104t-82 262zM231 1010q0 -111 48 -186.5t145 -75.5q84 0 128 62t44 151q0 54 -9.5 100t-30.5 85.5t-59.5 62t-90.5 22.5q-81 0 -128 -66t-47 -155zM369 0 l725 1309h120l-725 -1309h-120zM870 346q0 162 87.5 253t224.5 91q150 0 229.5 -100.5t79.5 -272.5q0 -151 -87 -244t-222 -93q-148 0 -230 104t-82 262zM999 356q0 -111 48 -186.5t145 -75.5q84 0 128 62t44 151q0 54 -9.5 100t-30.5 85.5t-59.5 62.5t-90.5 23 q-80 0 -127.5 -66.5t-47.5 -155.5z" />
<glyph unicode="&#x26;" horiz-adv-x="1318" d="M113 326q0 57 19 109t45.5 88.5t67.5 71.5t72.5 55.5t73.5 43.5q-40 40 -56 57t-47.5 55t-45 66t-25.5 69.5t-12 84.5q0 109 53.5 190t134.5 119.5t176 38.5q167 0 276 -102t109 -256q0 -49 -20.5 -95t-49 -79.5t-74 -69t-80 -56.5t-83.5 -48l295 -301q98 140 109 385 h161q-17 -287 -163 -494l260 -258l-119 -113l-244 244q-178 -164 -405 -164q-75 0 -149 22.5t-137 65t-102.5 113.5t-39.5 158zM293 328q0 -57 23.5 -100t63.5 -67t87 -36t100 -12q75 0 150 33t125 90l-344 350q-10 -7 -36.5 -24t-37.5 -25t-33 -25t-32.5 -28t-25.5 -30 t-22 -36.5t-12.5 -41t-5.5 -48.5zM371 1067q0 -29 4 -54t15.5 -49.5t19.5 -40.5t28.5 -40.5t29.5 -35t36 -38t35 -35.5q132 69 192 126t60 140q0 75 -62 137t-160 62q-85 0 -141.5 -55t-56.5 -117z" />
<glyph unicode="'" horiz-adv-x="319" d="M61 1509h197l-59 -456h-82z" />
<glyph unicode="(" horiz-adv-x="718" d="M113 518q0 256 132 524t365 457l58 -102q-121 -106 -208.5 -254.5t-129 -303.5t-41.5 -304q0 -230 99 -470t280 -405l-50 -88q-249 186 -377 435.5t-128 510.5z" />
<glyph unicode=")" horiz-adv-x="739" d="M72 -340q181 165 280 405t99 470q0 149 -41.5 304t-129 303.5t-208.5 254.5l57 102q233 -189 365.5 -457t132.5 -524q0 -261 -128 -510.5t-378 -435.5z" />
<glyph unicode="*" horiz-adv-x="974" d="M113 1018l233 133l-178 184l35 62l233 -135l70 247h72v-270l247 64l37 -62l-233 -135l178 -182l-35 -62l-233 135l-70 -247h-72v268l-247 -62z" />
<glyph unicode="+" horiz-adv-x="1077" d="M72 473v141h395v396h141v-396h398v-141h-398v-397h-141v397h-395z" />
<glyph unicode="," horiz-adv-x="512" d="M170 170h197l-117 -489h-80v489z" />
<glyph unicode="-" horiz-adv-x="675" d="M92 420v141h492v-141h-492z" />
<glyph unicode="." horiz-adv-x="501" d="M133 84q0 50 34 84.5t83 34.5q50 0 84.5 -34.5t34.5 -84.5q0 -49 -34.5 -83t-84.5 -34t-83.5 33.5t-33.5 83.5z" />
<glyph unicode="/" horiz-adv-x="892" d="M113 -285l473 1626h153l-473 -1626h-153z" />
<glyph unicode="0" horiz-adv-x="1064" d="M82 664q0 107 15 203.5t49.5 184t85.5 151t128 101t172 37.5q102 0 182 -42.5t129.5 -111.5t82 -164.5t45 -194t12.5 -207.5q0 -96 -14.5 -186t-49 -176.5t-85 -150t-128.5 -102.5t-174 -39q-86 0 -156 30t-118 83.5t-83.5 121t-55 148t-28.5 157.5t-9 157zM262 694 q0 -49 2 -94.5t9.5 -105t20 -109t34.5 -99.5t51 -85t73 -56.5t97 -21.5q70 0 122 44.5t79.5 117.5t40 150.5t12.5 158.5q0 592 -287 592q-73 0 -126 -47t-79 -125t-37.5 -156.5t-11.5 -163.5z" />
<glyph unicode="1" horiz-adv-x="784" d="M72 1114v90l477 137v-1341h-174v1114h-303z" />
<glyph unicode="2" horiz-adv-x="1024" d="M86 0v121q75 52 151.5 114t162 147.5t150.5 171.5t107.5 185t42.5 187q0 117 -70 188.5t-210 71.5q-71 0 -149 -31.5t-142 -77.5l-35 135q64 52 158.5 90.5t204.5 38.5q179 0 301.5 -110.5t122.5 -298.5q0 -129 -77.5 -277.5t-194 -275t-255.5 -227.5h582v-152h-850z" />
<glyph unicode="3" horiz-adv-x="1013" d="M102 1212q59 53 152 91t199 38q162 0 274.5 -90.5t112.5 -234.5q0 -110 -82.5 -196t-202.5 -115q356 -38 356 -326q0 -123 -76 -215.5t-205 -139.5t-292 -47q-58 0 -116.5 6.5t-87.5 12.5l-30 6l35 135q88 -12 176 -12q187 0 301.5 69.5t114.5 198.5q0 49 -16.5 86.5 t-49 61t-69.5 39t-91 22.5t-99.5 9.5t-106.5 2.5v142q102 4 180.5 29t129 78t50.5 128q0 86 -69.5 140.5t-165.5 54.5q-152 0 -287 -109z" />
<glyph unicode="4" horiz-adv-x="1064" d="M72 324v120l551 865h165v-844h205v-141h-205v-324h-174v324h-542zM244 465h370v608z" />
<glyph unicode="5" horiz-adv-x="1024" d="M127 2l35 135q88 -12 176 -12q187 0 300.5 68.5t113.5 197.5q0 89 -40.5 150t-101 86.5t-135.5 25.5q-123 0 -244 -71l-73 41v686h688v-152h-527v-405q111 47 216 47q126 0 218 -53.5t135.5 -138t43.5 -187.5q0 -195 -152.5 -319t-419.5 -124q-58 0 -116.5 6.5 t-87.5 12.5z" />
<glyph unicode="6" horiz-adv-x="1044" d="M82 563q0 124 23 236.5t71 210t117 169t167.5 112t215.5 40.5q61 0 109.5 -7t66.5 -14l18 -7l-34 -136q-70 17 -138 17q-90 0 -165.5 -34t-125.5 -89t-85 -126.5t-50.5 -144.5t-15.5 -145q63 85 144.5 122.5t156.5 37.5q97 0 175 -32.5t127.5 -88.5t75.5 -128t26 -153 q0 -83 -27.5 -160t-79.5 -139t-136 -99.5t-188 -37.5q-201 0 -324.5 158.5t-123.5 437.5zM266 508q1 -78 18.5 -146.5t51 -123t90 -86t129.5 -31.5q108 0 167.5 76.5t59.5 183.5q0 113 -67 191.5t-183 78.5q-85 0 -155.5 -38.5t-110.5 -104.5z" />
<glyph unicode="7" horiz-adv-x="921" d="M41 1157v152h819v-152l-440 -1157h-184l458 1157h-653z" />
<glyph unicode="8" horiz-adv-x="1044" d="M88 344q0 206 240 340q-96 58 -149.5 131t-53.5 180q0 83 32.5 150t87.5 109t123.5 64.5t143.5 22.5q101 0 187 -37.5t143 -117t57 -187.5q0 -188 -221 -309q61 -31 105.5 -60t86.5 -70t64 -94t22 -116q0 -121 -64 -210t-161 -131t-211 -42q-84 0 -160 23t-137.5 68 t-98 119t-36.5 167zM264 360q0 -118 82 -182.5t193 -64.5q101 0 171 61t70 172q0 27 -8.5 51t-20 42.5t-35.5 38.5t-42 33t-53.5 31.5t-56 28t-63 28.5t-61.5 28q-74 -42 -125 -109t-51 -158zM301 995q0 -36 14.5 -68t36 -55.5t58 -48t69 -41.5t80.5 -39q164 101 164 232 q0 98 -57.5 159.5t-157.5 61.5q-88 0 -147.5 -55t-59.5 -146z" />
<glyph unicode="9" horiz-adv-x="1044" d="M82 924q0 180 114 298.5t308 118.5q94 0 171 -32t130 -88t89 -134t52.5 -167.5t16.5 -190.5q0 -112 -15 -211.5t-55 -201t-103.5 -174.5t-169 -119t-241.5 -46q-58 0 -106.5 6.5t-67.5 12.5l-19 6l35 135q47 -12 135 -12q428 0 432 512q-46 -70 -129.5 -106.5 t-166.5 -36.5q-97 0 -177 39t-129.5 102t-76.5 138t-27 151zM262 946q0 -141 77.5 -219t197.5 -78q85 0 153.5 38t95.5 87q0 192 -78 303t-208 111q-103 0 -170.5 -67.5t-67.5 -174.5z" />
<glyph unicode=":" horiz-adv-x="665" d="M215 84q0 50 34 84.5t83 34.5q50 0 84.5 -34.5t34.5 -84.5q0 -49 -34.5 -83t-84.5 -34t-83.5 33.5t-33.5 83.5zM215 868q0 50 34 84.5t83 34.5q50 0 84.5 -34.5t34.5 -84.5q0 -49 -34.5 -82.5t-84.5 -33.5t-83.5 33.5t-33.5 82.5z" />
<glyph unicode=";" horiz-adv-x="675" d="M215 868q0 50 34 84.5t83 34.5q50 0 84.5 -34.5t34.5 -84.5q0 -49 -34.5 -82.5t-84.5 -33.5t-83.5 33.5t-33.5 82.5zM242 170h196l-116 -489h-80v489z" />
<glyph unicode="&#x3c;" horiz-adv-x="1077" d="M72 483v131l934 412v-162l-740 -315l740 -316v-161z" />
<glyph unicode="=" horiz-adv-x="1077" d="M72 291v141h934v-141h-934zM72 655v142h934v-142h-934z" />
<glyph unicode="&#x3e;" horiz-adv-x="1077" d="M51 72v161l740 316l-740 315v162l934 -412v-131z" />
<glyph unicode="?" horiz-adv-x="897" d="M139 1339q96 17 170 17q216 0 351 -118.5t135 -285.5q0 -55 -21.5 -107t-63 -97t-111 -75.5t-157.5 -37.5v-195h-90l-71 312h49q146 3 216 60t70 142q0 124 -96.5 192t-234.5 68q-49 0 -111 -10zM262 84q0 50 34 84.5t83 34.5t84 -34.5t35 -84.5q0 -49 -34.5 -83 t-84.5 -34q-49 0 -83 33.5t-34 83.5z" />
<glyph unicode="@" horiz-adv-x="1372" d="M113 350q0 145 40.5 269.5t120.5 222.5t211 154.5t299 56.5q219 0 327 -110.5t108 -309.5v-567h-80l-62 112q-50 -63 -132 -104t-185 -41q-136 0 -220.5 76t-84.5 206q0 74 30 130.5t75.5 89t109 53t122 27t123.5 6.5h140v41q0 124 -81 184.5t-218 60.5 q-202 0 -337.5 -139.5t-135.5 -372.5q0 -99 16.5 -184.5t56 -164t100 -134t154.5 -88.5t213 -33q92 0 184.5 35t151.5 82l45 -86q-6 -7 -17 -19t-50.5 -42.5t-84.5 -53.5t-119.5 -42t-154.5 -19q-150 0 -268.5 44t-191 114t-120.5 164.5t-66.5 188t-18.5 193.5zM621 334 q0 -73 50 -119.5t144 -46.5q79 0 146.5 36t93.5 85v217h-105q-329 0 -329 -172z" />
<glyph unicode="A" horiz-adv-x="1294" d="M51 0l506 1341h184l502 -1341h-194l-125 348h-559l-123 -348h-191zM418 500h452l-227 637z" />
<glyph unicode="B" horiz-adv-x="1210" d="M174 0v1341h459q190 0 298.5 -92.5t108.5 -255.5q0 -122 -75 -198t-177 -101q43 -5 85 -16.5t87.5 -36t79.5 -58t56 -86t22 -116.5q0 -179 -132.5 -280t-364.5 -101h-447zM342 152h248q80 0 140 10.5t108.5 35t74 69t25.5 108.5q0 56 -21 97.5t-53.5 66t-80.5 39 t-94.5 19.5t-102.5 5h-244v-450zM342 754h225q136 0 214.5 57.5t78.5 157.5q0 109 -61 165t-219 56h-238v-436z" />
<glyph unicode="C" horiz-adv-x="1251" d="M98 672q0 115 25 218t77.5 192t128.5 153.5t184 101.5t237 37q124 0 224.5 -38.5t164.5 -90.5l-35 -135q-99 56 -187 82.5t-190 26.5q-186 0 -317 -141.5t-131 -360.5q0 -92 16.5 -175t55 -160.5t97 -133.5t148.5 -89.5t203 -33.5q94 0 182.5 36t128.5 81l49 -88 q-6 -8 -17 -20.5t-50.5 -44.5t-84.5 -57t-119.5 -45t-154.5 -20q-138 0 -249.5 44t-182 114.5t-117.5 164.5t-66.5 189t-19.5 193z" />
<glyph unicode="D" horiz-adv-x="1343" d="M174 0v1341h428q140 0 250.5 -38t183 -102.5t120.5 -154.5t68.5 -189.5t20.5 -213.5q0 -96 -23.5 -187t-75.5 -174.5t-127.5 -145.5t-185.5 -99t-243 -37h-416zM348 152h197q271 0 395.5 124t124.5 375q0 85 -13 158.5t-48 145.5t-88.5 122.5t-141.5 81.5t-201 31h-225 v-1038z" />
<glyph unicode="E" horiz-adv-x="1122" d="M174 0v1341h813v-151h-639v-436h500v-152h-500v-450h682v-152h-856z" />
<glyph unicode="F" horiz-adv-x="1038" d="M174 0v1341h813v-151h-639v-436h500v-152h-500v-602h-174z" />
<glyph unicode="G" horiz-adv-x="1382" d="M98 664q0 109 25 210.5t80 193t134.5 159t196.5 107.5t257 40q139 0 253.5 -39t176.5 -90l-35 -135q-195 109 -418 109q-138 0 -251 -69t-175.5 -186t-62.5 -255q0 -91 17.5 -174t56.5 -158.5t97.5 -131t146.5 -88t196 -32.5q85 0 155 28t107 68v320h-305v151h479v-692 h-90l-52 113q-55 -60 -155 -103t-219 -43q-130 0 -236 43t-175 112.5t-116 162t-67.5 187.5t-20.5 192z" />
<glyph unicode="H" horiz-adv-x="1380" d="M174 0v1341h174v-587h684v587h174v-1341h-174v602h-684v-602h-174z" />
<glyph unicode="I" horiz-adv-x="522" d="M174 0v1341h174v-1341h-174z" />
<glyph unicode="J" horiz-adv-x="569" d="M-66 -215l41 74q67 -23 109 -23q73 0 110 54.5t37 158.5v1292h175v-1329q0 -79 -24 -138.5t-64.5 -93t-87.5 -49.5t-99 -16q-118 0 -197 70z" />
<glyph unicode="K" horiz-adv-x="1212" d="M174 0v1341h174v-587h152l432 587h196l-471 -639l525 -702h-217l-437 602h-180v-602h-174z" />
<glyph unicode="L" horiz-adv-x="1021" d="M174 0v1341h174v-1189h623v-152h-797z" />
<glyph unicode="M" horiz-adv-x="1765" d="M174 0v1341h272l443 -1101l434 1101h268v-1341h-168v1190l-467 -1190h-147l-467 1190v-1190h-168z" />
<glyph unicode="N" horiz-adv-x="1400" d="M174 0v1341h244l641 -1050v1050h168v-1341h-174l-711 1163v-1163h-168z" />
<glyph unicode="O" horiz-adv-x="1443" d="M98 672q0 110 23 210t74 190.5t125 157t184.5 105.5t245.5 39q122 0 223 -41.5t169 -110t115 -160.5t68 -190.5t21 -201.5q0 -110 -23 -210t-74 -191t-125 -157.5t-184.5 -105.5t-245.5 -39q-122 0 -223 41.5t-169 110.5t-115 161t-68 190.5t-21 201.5zM279 717 q0 -104 15 -191.5t49.5 -163.5t87.5 -128.5t133 -82.5t181 -30q95 0 175.5 42.5t133 113t82 161t29.5 187.5q0 131 -25 235.5t-78 186.5t-145.5 127t-218.5 45t-223.5 -72.5t-146.5 -185.5t-49 -244z" />
<glyph unicode="P" horiz-adv-x="1132" d="M174 0v1341h447q98 0 179.5 -22.5t145.5 -69t99.5 -124t35.5 -179.5q0 -109 -38 -193.5t-105 -136t-152 -78t-184 -26.5h-254v-512h-174zM348 664h189q181 0 272.5 59.5t91.5 200.5q0 147 -88.5 206.5t-265.5 59.5h-199v-526z" />
<glyph unicode="Q" horiz-adv-x="1443" d="M98 672q0 110 23 210t74 190.5t125 157t184.5 105.5t245.5 39q122 0 223 -41.5t169 -110t115 -160.5t68 -190.5t21 -201.5q0 -204 -80.5 -372t-241.5 -255l281 -256l-166 -109l-211 324q-103 -35 -234 -35q-122 0 -223 41.5t-169 110.5t-115 161t-68 190.5t-21 201.5z M279 717q0 -104 15 -191.5t49.5 -163.5t87.5 -128.5t133 -82.5t181 -30q95 0 175.5 42.5t133 113t82 161t29.5 187.5q0 131 -25 235.5t-78 186.5t-145.5 127t-218.5 45t-223.5 -72.5t-146.5 -185.5t-49 -244z" />
<glyph unicode="R" horiz-adv-x="1220" d="M174 0v1341h447q91 0 170.5 -21.5t146 -65t105 -120.5t38.5 -178q0 -167 -91 -268.5t-236 -136.5l415 -551h-208l-394 532h-219v-532h-174zM348 680h189q84 0 146 11t113.5 38.5t78 78.5t26.5 126t-26 126.5t-76 79t-110.5 39t-141.5 11.5h-199v-510z" />
<glyph unicode="S" horiz-adv-x="1067" d="M84 137l59 107q69 -53 166.5 -87t194.5 -34q51 0 99.5 11t93 34t71.5 65t27 97q0 53 -29.5 97.5t-77.5 75t-109.5 62t-125.5 58t-125.5 63.5t-109.5 78t-77.5 103t-29.5 137q0 118 58.5 203t156 126t221.5 41q112 0 220.5 -40t168.5 -89l-35 -135q-83 53 -177.5 81 t-180.5 28q-108 0 -180 -54.5t-72 -150.5q0 -43 23.5 -80t63 -65t91 -54t108 -51t113 -52.5t108 -62t91 -75t63 -96.5t23.5 -122q0 -85 -28 -153.5t-72.5 -111.5t-103.5 -71.5t-118.5 -40.5t-120.5 -12q-269 0 -448 170z" />
<glyph unicode="T" horiz-adv-x="1136" d="M31 1190v151h1075v-151h-451v-1190h-174v1190h-450z" />
<glyph unicode="U" horiz-adv-x="1355" d="M154 502v839h174v-845q0 -174 92.5 -273.5t257.5 -99.5t257.5 99.5t92.5 273.5v845h174v-839q0 -242 -135.5 -388.5t-388.5 -146.5t-388.5 146.5t-135.5 388.5z" />
<glyph unicode="V" horiz-adv-x="1253" d="M31 1341h190l414 -1136l399 1136h189l-502 -1341h-184z" />
<glyph unicode="W" horiz-adv-x="2088" d="M31 1341h192l371 -1134l346 1134h215l354 -1134l363 1134h186l-463 -1341h-186l-367 1124l-362 -1124h-186z" />
<glyph unicode="X" horiz-adv-x="1175" d="M31 0l450 670l-450 671h202l355 -542l354 542h203l-451 -671l451 -670h-203l-354 541l-355 -541h-202z" />
<glyph unicode="Y" horiz-adv-x="1212" d="M31 1341h194l385 -634l385 634h187l-490 -772v-569h-174v567z" />
<glyph unicode="Z" horiz-adv-x="1124" d="M92 0v158l713 1032h-690v151h893v-153l-717 -1036h741v-152h-940z" />
<glyph unicode="[" horiz-adv-x="663" d="M154 -408v1876h438v-114h-279v-1647h279v-115h-438z" />
<glyph unicode="\" horiz-adv-x="892" d="M154 1341h153l473 -1626h-153z" />
<glyph unicode="]" horiz-adv-x="684" d="M92 -293h279v1647h-279v114h438v-1876h-438v115z" />
<glyph unicode="^" horiz-adv-x="1097" d="M72 575l411 934h131l412 -934h-162l-315 740l-316 -740h-161z" />
<glyph unicode="_" horiz-adv-x="983" d="M10 -141h963v-142h-963v142z" />
<glyph unicode="`" horiz-adv-x="831" d="M170 1405l143 92l228 -348l-66 -43z" />
<glyph unicode="a" horiz-adv-x="1003" d="M96 250q0 74 30 130.5t75.5 88.5t109.5 52.5t122.5 27t123.5 6.5h139v41q0 129 -55 187.5t-178 58.5q-71 0 -152 -26.5t-129 -57.5l-30 119q71 50 165.5 80t174.5 30q107 0 180 -29t113.5 -86t57.5 -130.5t17 -174.5v-567h-90l-51 113q-50 -64 -132.5 -105t-185.5 -41 q-136 0 -220.5 76.5t-84.5 206.5zM262 268q0 -73 50.5 -119.5t144.5 -46.5q79 0 146 36t93 85v217h-104q-330 0 -330 -172z" />
<glyph unicode="b" horiz-adv-x="1120" d="M154 0v1509h163v-624q121 102 281 102q99 0 181 -40.5t136 -109.5t83.5 -159.5t29.5 -192.5q0 -238 -124 -378t-308 -140q-83 0 -161.5 36t-139.5 110l-51 -113h-90zM317 248q76 -135 252 -135q132 0 210.5 96.5t78.5 241.5q0 76 -16.5 143.5t-50 124.5t-92.5 90t-136 33 q-70 0 -138 -27t-108 -70v-497z" />
<glyph unicode="c" horiz-adv-x="956" d="M92 473q0 118 37 216.5t99.5 162.5t144.5 99.5t172 35.5q92 0 175 -31t138 -79l-31 -119q-42 26 -70 40t-85.5 29t-120.5 15q-129 0 -209 -99.5t-80 -244.5q0 -176 90 -280.5t258 -104.5q60 0 128 21t106 52l41 -73q-60 -72 -152.5 -109t-187.5 -37q-106 0 -193.5 43 t-143.5 115t-86 161.5t-30 186.5z" />
<glyph unicode="d" horiz-adv-x="1118" d="M92 469q0 226 125 372t309 146q156 0 275 -94v616h164v-1509h-91l-51 113q-103 -146 -299 -146q-99 0 -181 40.5t-136.5 109.5t-84.5 160t-30 192zM262 504q0 -60 10 -115.5t33 -106t56.5 -88t84.5 -59.5t113 -22q90 0 151 37t91 98v497q-59 49 -113 73t-135 24 q-132 0 -211.5 -96.5t-79.5 -241.5z" />
<glyph unicode="e" horiz-adv-x="1019" d="M92 473q0 233 121.5 373.5t304.5 140.5q182 0 295.5 -115t114.5 -319l-51 -113h-621q16 -156 106.5 -243.5t258.5 -87.5q59 0 126.5 23t106.5 54l41 -73q-60 -72 -152.5 -109t-187.5 -37q-113 0 -203.5 43t-146 115t-84.5 161t-29 187zM258 559h516q0 142 -71.5 217.5 t-176.5 75.5q-118 0 -188.5 -82.5t-79.5 -210.5z" />
<glyph unicode="f" horiz-adv-x="706" d="M51 813v90l156 39v184q0 191 92.5 303.5t261.5 112.5q154 0 248 -67l-31 -119q-95 45 -196 45q-107 0 -159 -73t-52 -234v-140h315v-141h-315v-813h-164v813h-156z" />
<glyph unicode="g" horiz-adv-x="1050" d="M76 -248q0 77 53.5 148t132.5 104q-59 32 -89 83t-30 108q0 99 74 182q-102 99 -102 252q0 87 31.5 157t84 112.5t116.5 65.5t132 23q92 0 176 -33h324v-114l-215 30q113 -113 113 -266q0 -140 -108.5 -238t-274.5 -98q-120 0 -211 58q-25 -45 -25 -76q0 -79 58 -113.5 t196 -34.5q54 0 93.5 -1.5t92.5 -7.5t91 -17t78 -32t65 -49.5t41 -72t16 -98.5q0 -115 -67.5 -198.5t-179 -124t-253.5 -40.5q-192 0 -302.5 79.5t-110.5 211.5zM223 -207q0 -99 78 -151t213 -52q136 0 229 61.5t93 172.5q0 50 -27 79.5t-80 40t-107.5 13.5t-134.5 6 t-135 12q-54 -27 -91.5 -75.5t-37.5 -106.5zM262 639q0 -115 72 -177.5t172 -62.5q103 0 166 65t63 159q0 111 -70.5 173t-177.5 62q-97 0 -161 -61.5t-64 -157.5z" />
<glyph unicode="h" horiz-adv-x="1101" d="M154 0v1509h163v-645q68 55 156.5 89t183.5 34q138 0 216.5 -79.5t78.5 -248.5v-659h-164v600q0 122 -43.5 182t-164.5 60q-65 0 -146 -40t-117 -83v-719h-163z" />
<glyph unicode="i" horiz-adv-x="526" d="M154 1264q0 46 31 78t77 32t78.5 -32t32.5 -78t-32.5 -77.5t-78.5 -31.5t-77 31.5t-31 77.5zM180 0v954h164v-954h-164z" />
<glyph unicode="j" horiz-adv-x="520" d="M-102 -459q78 -69 196 -69q52 0 97 16t83.5 49.5t61 93t22.5 138.5v1185h-163v-1149q0 -104 -37.5 -158.5t-110.5 -54.5q-41 0 -108 23zM168 1264q0 46 31 78t77 32t78.5 -32t32.5 -78t-32.5 -77.5t-78.5 -31.5t-77 31.5t-31 77.5z" />
<glyph unicode="k" horiz-adv-x="997" d="M154 0v1509h163v-948h103l328 393h198l-368 -430l368 -524h-194l-295 420h-140v-420h-163z" />
<glyph unicode="l" horiz-adv-x="471" d="M154 0v1509h163v-1509h-163z" />
<glyph unicode="m" horiz-adv-x="1695" d="M154 0v954h90l51 -112q164 145 342 145q193 0 264 -153q163 153 350 153q138 0 216.5 -79.5t78.5 -248.5v-659h-164v600q0 122 -43.5 182t-164.5 60q-64 0 -134 -39t-108 -84v-719h-164v600q0 121 -44 181.5t-165 60.5q-64 0 -134 -39t-108 -84v-719h-163z" />
<glyph unicode="n" horiz-adv-x="1101" d="M154 0v954h90l51 -112q77 68 171.5 106.5t190.5 38.5q138 0 216.5 -79.5t78.5 -248.5v-659h-164v600q0 122 -43.5 182t-164.5 60q-65 0 -146 -40t-117 -83v-719h-163z" />
<glyph unicode="o" horiz-adv-x="1089" d="M92 469q0 240 130 379t345 139q99 0 181 -40.5t136 -109.5t83.5 -159.5t29.5 -192.5q0 -240 -130 -379t-345 -139q-99 0 -181 40.5t-136 109.5t-83.5 159.5t-29.5 192.5zM262 504q0 -77 16.5 -146t50 -127.5t92.5 -93.5t136 -35q86 0 149 53t92 130.5t29 165.5 q0 77 -16.5 145.5t-50 127.5t-92.5 93.5t-136 34.5q-86 0 -149 -53t-92 -130t-29 -165z" />
<glyph unicode="p" horiz-adv-x="1120" d="M154 -502v1456h90l51 -112q142 145 303 145q99 0 181 -40.5t136 -109.5t83.5 -159.5t29.5 -192.5q0 -240 -127.5 -379t-325.5 -139q-66 0 -136.5 26.5t-121.5 76.5v-572h-163zM317 227q50 -63 119 -88.5t133 -25.5q132 0 210.5 96.5t78.5 241.5q0 76 -16.5 143.5 t-50 124.5t-92.5 90t-136 33q-69 0 -144 -39.5t-102 -97.5v-478z" />
<glyph unicode="q" horiz-adv-x="1118" d="M92 469q0 224 123 371t297 147q91 0 174.5 -41.5t136.5 -103.5l51 112h91v-1456h-164v576q-39 -47 -115 -77t-162 -30q-99 0 -181 40.5t-136.5 109.5t-84.5 160t-30 192zM262 504q0 -61 10 -116t33.5 -106t58 -88t87.5 -59t118 -22q76 0 142 33t90 81v480 q-27 50 -94.5 92.5t-153.5 42.5q-132 0 -211.5 -96.5t-79.5 -241.5z" />
<glyph unicode="r" horiz-adv-x="757" d="M154 0v954h90l51 -112q56 66 136.5 99.5t156.5 33.5q95 0 149 -51l-35 -133q-85 30 -151 30q-145 0 -234 -102v-719h-163z" />
<glyph unicode="s" horiz-adv-x="892" d="M92 104l51 93q51 -45 127.5 -70t141.5 -25q99 0 161 37t62 105q0 34 -22.5 63.5t-59 49.5t-83 42t-95.5 40.5t-95.5 45.5t-83 56.5t-59 74t-22.5 97.5q0 124 93.5 199t240.5 75q85 0 169 -31.5t138 -78.5l-31 -119q-137 94 -270 94q-85 0 -133 -32.5t-48 -94.5 q0 -37 29 -66.5t75 -51.5t101.5 -44t111.5 -48.5t102 -59.5t75 -83.5t29 -113.5q0 -128 -94 -209.5t-269 -81.5q-93 0 -188.5 36.5t-153.5 100.5z" />
<glyph unicode="t" horiz-adv-x="770" d="M41 813v90l164 41l74 254h81v-244h338v-141h-338v-502q0 -108 41.5 -158.5t128.5 -50.5q62 0 127 25l41 -74q-35 -34 -97.5 -55t-127.5 -21q-138 0 -207 72t-69 225v539h-156z" />
<glyph unicode="u" horiz-adv-x="1099" d="M147 295v659h164v-600q0 -121 44 -181t165 -60q65 0 145 40t117 83v718h164v-954h-90l-51 113q-78 -68 -173 -107t-190 -39q-138 0 -216.5 79.5t-78.5 248.5z" />
<glyph unicode="v" horiz-adv-x="976" d="M31 954h180l285 -764l276 764h174l-385 -954h-145z" />
<glyph unicode="w" horiz-adv-x="1579" d="M31 954h180l244 -764l252 764h172l258 -764l237 764h174l-344 -954h-145l-273 776l-266 -776h-145z" />
<glyph unicode="x" horiz-adv-x="987" d="M31 0l362 475l-356 479h196l261 -370l260 370h196l-362 -473l368 -481h-208l-263 371l-266 -371h-188z" />
<glyph unicode="y" horiz-adv-x="987" d="M41 954h180l285 -764l276 764h174l-585 -1456h-170l221 512z" />
<glyph unicode="z" horiz-adv-x="937" d="M98 0v145l533 668h-522v141h714v-141l-526 -672h539v-141h-738z" />
<glyph unicode="{" horiz-adv-x="720" d="M31 475v111h12q83 3 125.5 49t42.5 147v430q0 89 51.5 152.5t129.5 92t173 28.5v-111q-194 0 -194 -198v-431q0 -144 -123 -219q123 -78 123 -227v-414q0 -198 194 -198v-111q-70 0 -132.5 16.5t-112.5 49t-79.5 86t-29.5 120.5v414q0 103 -44 158t-124 55h-12z" />
<glyph unicode="|" horiz-adv-x="583" d="M215 -285v1794h154v-1794h-154z" />
<glyph unicode="}" horiz-adv-x="741" d="M176 -313q195 0 195 198v414q0 150 121 227q-121 74 -121 219v431q0 198 -195 198v111q95 0 173 -28.5t129.5 -92t51.5 -152.5v-430q0 -105 45.5 -150.5t135.5 -45.5v-111q-181 0 -181 -213v-414q0 -67 -29.5 -120.5t-79.5 -86t-112.5 -49t-132.5 -16.5v111z" />
<glyph unicode="~" horiz-adv-x="1101" d="M72 434l114 176q2 3 4.5 7t13 15t22.5 19.5t31 15.5t40 7q70 0 262 -57.5t246 -57.5q9 0 18 2.5t20.5 10t20 13.5t24 20.5t24 22.5t29 28t30.5 30l59 -37l-115 -176q-4 -7 -12 -17.5t-36.5 -28t-61.5 -17.5q-70 0 -262 57t-246 57q-9 0 -18 -2.5t-20.5 -10t-20 -13.5 t-24 -20.5t-24 -22.5t-29 -28t-30.5 -30z" />
<glyph unicode="&#xa1;" horiz-adv-x="665" d="M215 870q0 50 33.5 83.5t83.5 33.5t84.5 -34t34.5 -83t-34.5 -83.5t-84.5 -34.5q-49 0 -83 34t-34 84zM236 -387l45 901h106l45 -901h-196z" />
<glyph unicode="&#xa2;" horiz-adv-x="987" d="M92 657q0 208 109.5 343t271.5 163v178h121v-172q79 -7 151 -37t119 -71l-30 -119q-40 24 -70.5 39t-89 30t-121.5 15q-126 0 -208.5 -100.5t-82.5 -243.5q0 -176 90 -280.5t258 -104.5q60 0 128 21.5t106 52.5l41 -74q-53 -63 -130.5 -99t-160.5 -44v-154h-121v156 q-119 19 -207.5 95t-131 181.5t-42.5 224.5z" />
<glyph unicode="&#xa3;" horiz-adv-x="1150" d="M96 0v90l156 39v485h-150v121h150v193q0 216 108.5 331t305.5 115q196 0 325 -129l-35 -135q-142 109 -290 109q-130 0 -185 -73.5t-55 -215.5v-195h389v-121h-389v-462h623v-152h-953z" />
<glyph unicode="&#xa4;" horiz-adv-x="1091" d="M57 229l136 136q-82 118 -82 256q0 141 79 251l-133 134l101 100l131 -133q106 80 276 80q52 0 118 -24t116 -58l135 135l100 -100l-137 -138q80 -116 80 -247q0 -136 -82 -252l139 -140l-100 -100l-139 137q-103 -80 -275 -80q-52 0 -115.5 23t-109.5 57l-137 -137z M260 621q0 -117 83 -200t200 -83t200.5 83t83.5 200t-83.5 199.5t-200.5 82.5t-200 -82.5t-83 -199.5z" />
<glyph unicode="&#xa5;" horiz-adv-x="1212" d="M31 1341h192l365 -604h45l360 604h189l-394 -604h238v-121h-840v121h240zM186 375v121h840v-121h-332v-375h-174v375h-334z" />
<glyph unicode="&#xa6;" horiz-adv-x="583" d="M215 -285v793h154v-793h-154zM215 711v798h154v-798h-154z" />
<glyph unicode="&#xa7;" horiz-adv-x="1077" d="M137 596q0 118 70 197l74 -41q-23 -67 -23 -109q0 -43 38 -77.5t99 -59t135 -47.5t148.5 -50t135.5 -60t99.5 -84t38.5 -115q0 -78 -34 -140.5t-92 -100.5t-129 -57.5t-150 -19.5q-114 0 -215 37.5t-174 107.5l53 97q145 -97 309 -97q112 0 184 38.5t72 107.5 q0 35 -35 63t-91.5 48.5t-124.5 40.5t-136.5 47t-125 61t-91.5 89t-35 124zM160 1083q0 131 100.5 211t257.5 80q103 0 203 -31t156 -79l-31 -121q-70 39 -158 62.5t-164 23.5q-50 0 -95 -13t-79.5 -48t-34.5 -87q0 -44 34.5 -76t89.5 -52.5t122 -38.5t133.5 -40.5 t121.5 -53t89.5 -82t34.5 -120.5q0 -115 -68 -192l-75 37q22 64 22 108q0 41 -28.5 71.5t-74.5 48.5t-105.5 36.5t-121 34t-121 43t-105.5 61t-74.5 89.5t-28.5 128z" />
<glyph unicode="&#xa8;" horiz-adv-x="917" d="M145 1264q0 43 33 76.5t76 33.5t77 -33.5t34 -76.5t-34 -76t-77 -33t-76 33t-33 76zM553 1264q0 43 33 76.5t76 33.5t76.5 -33.5t33.5 -76.5t-33.5 -76t-76.5 -33t-76 33t-33 76z" />
<glyph unicode="&#xa9;" horiz-adv-x="1404" d="M82 588q0 126 49 241t132 198t198 132t241 49q168 0 311 -83t226.5 -226t83.5 -311t-83.5 -311t-226.5 -226.5t-311 -83.5t-311 83.5t-226 226.5t-83 311zM205 588q0 -135 66.5 -249.5t181 -181.5t249.5 -67t250 67t182.5 181.5t67.5 249.5t-67.5 250t-182.5 182t-250 67 q-101 0 -193 -39.5t-158.5 -106.5t-106 -159.5t-39.5 -193.5zM344 575q0 181 109.5 286.5t275.5 105.5q71 0 138 -24.5t104 -59.5l-33 -99q-33 19 -54 29t-65.5 21.5t-93.5 11.5q-110 0 -176 -70.5t-66 -179.5q0 -58 15 -106.5t47 -89.5t89.5 -64t135.5 -23q96 0 164 54 l37 -64q-45 -56 -112.5 -83t-139.5 -27q-91 0 -164.5 32.5t-118.5 86.5t-68.5 121.5t-23.5 141.5z" />
<glyph unicode="&#xaa;" horiz-adv-x="780" d="M115 377v121h553v-121h-553zM127 768q0 61 28.5 103.5t76.5 63t95.5 28.5t102.5 8h80v18q0 76 -33 112t-106 36q-43 0 -96.5 -19t-90.5 -43l-24 99q45 33 110.5 54t118.5 21q136 0 190 -70.5t54 -205.5v-373h-68l-37 76q-63 -96 -196 -96q-91 0 -148 50t-57 138zM254 780 q0 -42 29 -68t84 -26q46 0 87 20t56 48v125h-57q-199 0 -199 -99z" />
<glyph unicode="&#xab;" horiz-adv-x="950" d="M92 494l354 356l50 -49l-166 -307l168 -308l-52 -47zM444 494l355 356l49 -49l-166 -307l168 -308l-51 -47z" />
<glyph unicode="&#xac;" horiz-adv-x="1077" d="M72 475v141h934v-477h-152v336h-782z" />
<glyph unicode="&#xad;" horiz-adv-x="675" d="M92 420v141h492v-141h-492z" />
<glyph unicode="&#xae;" horiz-adv-x="856" d="M72 1018q0 148 104 252t252 104t252 -104t104 -252t-104 -252t-252 -104t-252 104t-104 252zM137 1018q0 -120 85.5 -205.5t205.5 -85.5t204.5 85.5t84.5 205.5t-84.5 204.5t-204.5 84.5t-205.5 -84.5t-85.5 -204.5zM287 823v402h129q64 0 108.5 -33.5t44.5 -85.5 q0 -41 -26.5 -73t-69.5 -46l121 -164h-76l-108 156h-62v-156h-61zM348 1030h55q46 0 73.5 20t27.5 50q0 74 -107 74h-49v-144z" />
<glyph unicode="&#xaf;" horiz-adv-x="817" d="M123 1221v120h571v-120h-571z" />
<glyph unicode="&#xb0;" horiz-adv-x="647" d="M72 1133q0 106 73 173.5t179 67.5t178.5 -67.5t72.5 -173.5t-72.5 -174t-178.5 -68t-179 68t-73 174zM195 1137q0 -61 34.5 -103.5t98.5 -42.5q61 0 94 40t33 97q0 61 -36 103.5t-100 42.5q-61 0 -92.5 -40t-31.5 -97z" />
<glyph unicode="&#xb1;" horiz-adv-x="1077" d="M72 0v141h934v-141h-934zM72 676v141h395v395h141v-395h398v-141h-398v-397h-141v397h-395z" />
<glyph unicode="&#xb2;" horiz-adv-x="694" d="M78 649v92q62 42 123.5 94.5t125 120t103 144.5t39.5 145q0 71 -43 117.5t-125 46.5q-87 0 -192 -76l-29 105q42 37 106 62.5t136 25.5q119 0 200.5 -76t81.5 -201q0 -121 -90 -253t-225 -232h348v-115h-559z" />
<glyph unicode="&#xb3;" horiz-adv-x="714" d="M86 1438q40 38 102.5 63t133.5 25q107 0 181.5 -60t74.5 -155q0 -63 -40 -115.5t-104 -79.5q191 -33 191 -211q0 -122 -106.5 -193t-270.5 -71q-38 0 -78 4t-61 8l-21 4l27 105q70 -8 121 -8q113 0 183 41t70 118q0 35 -16.5 60.5t-41 39.5t-63 22t-73 10t-80.5 2v108 q99 3 163 38.5t64 100.5q0 51 -41.5 83t-97.5 32q-87 0 -188 -76z" />
<glyph unicode="&#xb4;" horiz-adv-x="831" d="M291 1149l227 348l144 -92l-306 -299z" />
<glyph unicode="&#xb5;" horiz-adv-x="1105" d="M154 -502v1456h163v-600q0 -121 44 -181t165 -60q65 0 145 40t117 83v718h164v-954h-90l-51 113q-78 -69 -172.5 -107.5t-189.5 -38.5q-77 0 -132 35v-504h-163z" />
<glyph unicode="&#xb6;" horiz-adv-x="1013" d="M113 956q0 160 112.5 272.5t272.5 112.5v-770q-161 0 -273 117t-112 268zM707 -260v1601h174v-1601h-174z" />
<glyph unicode="&#xb7;" horiz-adv-x="419" d="M92 514q0 50 34 84.5t83 34.5t84 -34.5t35 -84.5q0 -49 -34.5 -83t-84.5 -34q-49 0 -83 33.5t-34 83.5z" />
<glyph unicode="&#xb8;" horiz-adv-x="870" d="M285 -449q69 15 117.5 56t48.5 80q0 29 -33.5 49t-102.5 24l41 240h107l-27 -158q83 -13 125.5 -52t42.5 -91q0 -72 -75 -136t-203 -85z" />
<glyph unicode="&#xb9;" horiz-adv-x="518" d="M51 1356v76l322 92v-875h-129v707h-193z" />
<glyph unicode="&#xba;" horiz-adv-x="819" d="M111 909q0 158 86 249t227 91q129 0 207 -95t78 -232q0 -158 -86.5 -249t-227.5 -91q-129 0 -206.5 95t-77.5 232zM133 377v121h553v-121h-553zM240 932q0 -63 17 -117t59 -91.5t102 -37.5q77 0 119.5 64t42.5 149q0 64 -17 117.5t-59 91t-103 37.5q-77 0 -119 -63.5 t-42 -149.5z" />
<glyph unicode="&#xbb;" horiz-adv-x="950" d="M80 186l168 308l-166 307l49 49l354 -356l-354 -355zM432 186l168 308l-166 307l49 49l355 -356l-355 -355z" />
<glyph unicode="&#xbc;" horiz-adv-x="1447" d="M92 1159v76l322 92v-874h-129v706h-193zM270 0l725 1309h121l-725 -1309h-121zM750 205v90l366 557h121v-539h119v-108h-119v-205h-131v205h-356zM887 313h219v363z" />
<glyph unicode="&#xbd;" horiz-adv-x="1556" d="M92 1159v76l322 92v-874h-129v706h-193zM254 0l725 1309h121l-725 -1309h-121zM905 0h559v115h-348q135 100 225.5 232t90.5 253q0 125 -82 201t-201 76q-72 0 -136 -26t-106 -63l29 -104q105 76 192 76q82 0 125 -46.5t43 -117.5q0 -68 -39.5 -145t-103 -144.5 t-125 -120t-123.5 -94.5v-92z" />
<glyph unicode="&#xbe;" horiz-adv-x="1538" d="M106 1241q40 38 102.5 63t133.5 25q107 0 181.5 -60t74.5 -155q0 -63 -39.5 -115t-103.5 -79q190 -33 190 -211q0 -122 -106.5 -193.5t-270.5 -71.5q-38 0 -78 4t-60 8l-21 5l26 104q70 -8 121 -8q113 0 183.5 41.5t70.5 118.5q0 29 -10.5 51.5t-31.5 36.5t-45 23.5 t-57.5 14t-62.5 6t-67 1.5v108q99 3 163 38.5t64 101.5q0 51 -41.5 82.5t-97.5 31.5q-90 0 -189 -75zM401 0l725 1309h121l-725 -1309h-121zM840 205v90l366 557h121v-539h119v-108h-119v-205h-131v205h-356zM977 313h219v363z" />
<glyph unicode="&#xbf;" horiz-adv-x="897" d="M82 2q0 -167 134.5 -285t350.5 -118q79 0 170 16l-35 135q-62 -10 -110 -10q-138 0 -235 68t-97 192q0 86 70.5 143t216.5 60h49l-72 311h-90v-195q-88 -7 -157.5 -37.5t-110.5 -76t-62.5 -97t-21.5 -106.5zM379 870q0 49 34.5 83t84.5 34q49 0 82.5 -33.5t33.5 -83.5 t-33.5 -84t-82.5 -34q-50 0 -84.5 34.5t-34.5 83.5z" />
<glyph unicode="&#xc0;" horiz-adv-x="1294" d="M51 0l506 1341h184l502 -1341h-194l-125 348h-559l-123 -348h-191zM399 1651l111 125l328 -293l-54 -60zM418 500h452l-227 637z" />
<glyph unicode="&#xc1;" horiz-adv-x="1294" d="M51 0l506 1341h184l502 -1341h-194l-125 348h-559l-123 -348h-191zM418 500h452l-227 637zM440 1483l328 293l111 -125l-385 -228z" />
<glyph unicode="&#xc2;" horiz-adv-x="1294" d="M51 0l506 1341h184l502 -1341h-194l-125 348h-559l-123 -348h-191zM326 1483l288 293h70l289 -293l-53 -60l-271 205l-270 -205zM418 500h452l-227 637z" />
<glyph unicode="&#xc3;" horiz-adv-x="1294" d="M51 0l506 1341h184l502 -1341h-194l-125 348h-559l-123 -348h-191zM328 1462l102 156q3 6 10.5 15.5t36 25.5t64.5 16q37 0 114 -40t113 -40q20 0 45.5 19t43.5 39.5t56 66.5l66 -43l-100 -155q-1 -2 -3.5 -6t-12.5 -14t-21.5 -17.5t-31.5 -14t-42 -6.5q-37 0 -114 40 t-113 40q-29 0 -61 -29.5t-87 -95.5zM418 500h452l-227 637z" />
<glyph unicode="&#xc4;" horiz-adv-x="1294" d="M51 0l506 1341h184l502 -1341h-194l-125 348h-559l-123 -348h-191zM322 1579q0 46 31.5 78.5t76.5 32.5q46 0 78.5 -32.5t32.5 -78.5t-32.5 -77.5t-78.5 -31.5t-77 31.5t-31 77.5zM418 500h452l-227 637zM758 1579q0 46 31.5 78.5t76.5 32.5q46 0 78.5 -32.5t32.5 -78.5 t-32.5 -77.5t-78.5 -31.5t-77 31.5t-31 77.5z" />
<glyph unicode="&#xc5;" horiz-adv-x="1294" d="M51 0l504 1335q-52 22 -83.5 69t-31.5 109q0 85 59.5 140t145.5 55t145.5 -55t59.5 -140q0 -121 -109 -176l502 -1337h-194l-125 348h-559l-123 -348h-191zM418 500h452l-227 637zM532 1513q0 -53 31 -85.5t82 -32.5q52 0 81.5 32.5t29.5 85.5q0 52 -29.5 84.5 t-81.5 32.5q-51 0 -82 -33t-31 -84z" />
<glyph unicode="&#xc6;" horiz-adv-x="1705" d="M10 0l703 1341h848v-151h-639v-436h499v-152h-499v-450h682v-152h-856v348h-373l-172 -348h-193zM451 500h297v596z" />
<glyph unicode="&#xc7;" horiz-adv-x="1251" d="M98 672q0 115 25 218t77.5 192t128.5 153.5t184 101.5t237 37q124 0 224.5 -38.5t164.5 -90.5l-35 -135q-99 56 -187 82.5t-190 26.5q-186 0 -317 -141.5t-131 -360.5q0 -92 16.5 -175t55 -160.5t97 -133.5t148.5 -89.5t203 -33.5q94 0 182.5 36t128.5 81l49 -88 q-5 -7 -16 -19.5t-48.5 -43.5t-81 -55.5t-114 -45.5t-147.5 -23l-21 -125q83 -13 125.5 -52t42.5 -91q0 -72 -75 -136t-203 -85l-41 73q69 15 117 56t48 80q0 29 -33 49t-102 24l35 213q-119 12 -214.5 61t-156.5 119t-101.5 159.5t-57.5 178.5t-17 181z" />
<glyph unicode="&#xc8;" horiz-adv-x="1122" d="M174 0v1341h813v-151h-639v-436h500v-152h-500v-450h682v-152h-856zM338 1651l111 125l327 -293l-53 -60z" />
<glyph unicode="&#xc9;" horiz-adv-x="1122" d="M174 0v1341h813v-151h-639v-436h500v-152h-500v-450h682v-152h-856zM399 1483l328 293l111 -125l-385 -228z" />
<glyph unicode="&#xca;" horiz-adv-x="1122" d="M174 0v1341h813v-151h-639v-436h500v-152h-500v-450h682v-152h-856zM270 1483l289 293h70l289 -293l-54 -60l-270 205l-270 -205z" />
<glyph unicode="&#xcb;" horiz-adv-x="1122" d="M174 0v1341h813v-151h-639v-436h500v-152h-500v-450h682v-152h-856zM268 1579q0 46 31.5 78.5t77.5 32.5t78 -32.5t32 -78.5t-32 -77.5t-78 -31.5t-77.5 31.5t-31.5 77.5zM705 1579q0 46 31.5 78.5t76.5 32.5q46 0 78.5 -32.5t32.5 -78.5t-32.5 -77.5t-78.5 -31.5 t-77 31.5t-31 77.5z" />
<glyph unicode="&#xcc;" horiz-adv-x="522" d="M10 1651l111 125l328 -293l-54 -60zM174 0v1341h174v-1341h-174z" />
<glyph unicode="&#xcd;" horiz-adv-x="522" d="M74 1483l327 293l111 -125l-385 -228zM174 0v1341h174v-1341h-174z" />
<glyph unicode="&#xce;" horiz-adv-x="522" d="M-63 1483l288 293h70l289 -293l-54 -60l-270 205l-270 -205zM174 0v1341h174v-1341h-174z" />
<glyph unicode="&#xcf;" horiz-adv-x="522" d="M-27 1579q0 45 33 78t78 33t78 -33t33 -78q0 -44 -32.5 -76.5t-78.5 -32.5t-78.5 32.5t-32.5 76.5zM174 0v1341h174v-1341h-174zM328 1579q0 46 32 78.5t76 32.5q46 0 79.5 -33.5t33.5 -77.5t-33.5 -76.5t-79.5 -32.5q-45 0 -76.5 32t-31.5 77z" />
<glyph unicode="&#xd0;" horiz-adv-x="1343" d="M31 614v121h143v606h428q140 0 250.5 -38t183 -102.5t120.5 -154.5t68.5 -189.5t20.5 -213.5q0 -96 -23.5 -187t-75.5 -174.5t-127.5 -145.5t-185.5 -99t-243 -37h-416v614h-143zM348 152h197q271 0 395.5 124t124.5 375q0 85 -13 158.5t-48 145.5t-88.5 122.5 t-141.5 81.5t-201 31h-225v-455h344v-121h-344v-462z" />
<glyph unicode="&#xd1;" horiz-adv-x="1400" d="M174 0v1341h244l641 -1050v1050h168v-1341h-174l-711 1163v-1163h-168zM410 1462l102 156q3 6 10.5 15.5t36 25.5t64.5 16q37 0 114 -40t113 -40q20 0 45.5 19t43.5 39.5t56 66.5l66 -43l-100 -155q-1 -2 -3.5 -6t-12.5 -14t-21.5 -17.5t-31.5 -14t-42 -6.5 q-37 0 -114 40t-113 40q-29 0 -61 -29.5t-87 -95.5z" />
<glyph unicode="&#xd2;" horiz-adv-x="1443" d="M98 672q0 110 23 210t74 190.5t125 157t184.5 105.5t245.5 39q122 0 223 -41.5t169 -110t115 -160.5t68 -190.5t21 -201.5q0 -110 -23 -210t-74 -191t-125 -157.5t-184.5 -105.5t-245.5 -39q-122 0 -223 41.5t-169 110.5t-115 161t-68 190.5t-21 201.5zM279 717 q0 -104 15 -191.5t49.5 -163.5t87.5 -128.5t133 -82.5t181 -30q95 0 175.5 42.5t133 113t82 161t29.5 187.5q0 131 -25 235.5t-78 186.5t-145.5 127t-218.5 45t-223.5 -72.5t-146.5 -185.5t-49 -244zM498 1651l110 125l328 -293l-53 -60z" />
<glyph unicode="&#xd3;" horiz-adv-x="1443" d="M98 672q0 110 23 210t74 190.5t125 157t184.5 105.5t245.5 39q122 0 223 -41.5t169 -110t115 -160.5t68 -190.5t21 -201.5q0 -110 -23 -210t-74 -191t-125 -157.5t-184.5 -105.5t-245.5 -39q-122 0 -223 41.5t-169 110.5t-115 161t-68 190.5t-21 201.5zM279 717 q0 -104 15 -191.5t49.5 -163.5t87.5 -128.5t133 -82.5t181 -30q95 0 175.5 42.5t133 113t82 161t29.5 187.5q0 131 -25 235.5t-78 186.5t-145.5 127t-218.5 45t-223.5 -72.5t-146.5 -185.5t-49 -244zM508 1483l328 293l110 -125l-385 -228z" />
<glyph unicode="&#xd4;" horiz-adv-x="1443" d="M98 672q0 110 23 210t74 190.5t125 157t184.5 105.5t245.5 39q122 0 223 -41.5t169 -110t115 -160.5t68 -190.5t21 -201.5q0 -110 -23 -210t-74 -191t-125 -157.5t-184.5 -105.5t-245.5 -39q-122 0 -223 41.5t-169 110.5t-115 161t-68 190.5t-21 201.5zM279 717 q0 -104 15 -191.5t49.5 -163.5t87.5 -128.5t133 -82.5t181 -30q95 0 175.5 42.5t133 113t82 161t29.5 187.5q0 131 -25 235.5t-78 186.5t-145.5 127t-218.5 45t-223.5 -72.5t-146.5 -185.5t-49 -244zM397 1483l289 293h70l288 -293l-53 -60l-270 205l-270 -205z" />
<glyph unicode="&#xd5;" horiz-adv-x="1443" d="M98 672q0 110 23 210t74 190.5t125 157t184.5 105.5t245.5 39q122 0 223 -41.5t169 -110t115 -160.5t68 -190.5t21 -201.5q0 -110 -23 -210t-74 -191t-125 -157.5t-184.5 -105.5t-245.5 -39q-122 0 -223 41.5t-169 110.5t-115 161t-68 190.5t-21 201.5zM279 717 q0 -104 15 -191.5t49.5 -163.5t87.5 -128.5t133 -82.5t181 -30q95 0 175.5 42.5t133 113t82 161t29.5 187.5q0 131 -25 235.5t-78 186.5t-145.5 127t-218.5 45t-223.5 -72.5t-146.5 -185.5t-49 -244zM416 1462l102 156q3 6 10.5 15.5t36 25.5t64.5 16q37 0 114 -40t113 -40 q20 0 45.5 19t43.5 39.5t56 66.5l66 -43l-100 -155q-1 -2 -3.5 -6t-12.5 -14t-21.5 -17.5t-31.5 -14t-42 -6.5q-37 0 -114 40t-113 40q-29 0 -61 -29.5t-87 -95.5z" />
<glyph unicode="&#xd6;" horiz-adv-x="1443" d="M98 672q0 110 23 210t74 190.5t125 157t184.5 105.5t245.5 39q122 0 223 -41.5t169 -110t115 -160.5t68 -190.5t21 -201.5q0 -110 -23 -210t-74 -191t-125 -157.5t-184.5 -105.5t-245.5 -39q-122 0 -223 41.5t-169 110.5t-115 161t-68 190.5t-21 201.5zM279 717 q0 -104 15 -191.5t49.5 -163.5t87.5 -128.5t133 -82.5t181 -30q95 0 175.5 42.5t133 113t82 161t29.5 187.5q0 131 -25 235.5t-78 186.5t-145.5 127t-218.5 45t-223.5 -72.5t-146.5 -185.5t-49 -244zM393 1579q0 46 31.5 78.5t77.5 32.5t78 -32.5t32 -78.5t-32 -77.5 t-78 -31.5t-77.5 31.5t-31.5 77.5zM829 1579q0 46 31.5 78.5t77.5 32.5t78.5 -32.5t32.5 -78.5t-32.5 -77.5t-78.5 -31.5t-77.5 31.5t-31.5 77.5z" />
<glyph unicode="&#xd7;" horiz-adv-x="931" d="M86 274l279 279l-279 278l100 101l279 -279l280 281l101 -100l-281 -281l281 -281l-101 -100l-280 281l-279 -279z" />
<glyph unicode="&#xd8;" horiz-adv-x="1443" d="M98 672q0 110 23 210t74 190.5t125 157t184.5 105.5t245.5 39q187 0 325 -98l80 115l94 -66l-88 -125q92 -100 138.5 -240.5t46.5 -289.5q0 -110 -23 -210t-74 -191t-125 -157.5t-184.5 -105.5t-245.5 -39q-189 0 -329 99l-78 -113l-94 65l88 125q-91 99 -137 239 t-46 290zM279 717q0 -277 104 -426l594 846q-113 82 -279 82q-126 0 -223.5 -72.5t-146.5 -185.5t-49 -244zM463 205q111 -84 282 -84q95 0 175.5 42.5t133 113t82 161t29.5 187.5q0 277 -108 428z" />
<glyph unicode="&#xd9;" horiz-adv-x="1355" d="M154 502v839h174v-845q0 -174 92.5 -273.5t257.5 -99.5t257.5 99.5t92.5 273.5v845h174v-839q0 -242 -135.5 -388.5t-388.5 -146.5t-388.5 146.5t-135.5 388.5zM420 1651l110 125l328 -293l-53 -60z" />
<glyph unicode="&#xda;" horiz-adv-x="1355" d="M154 502v839h174v-845q0 -174 92.5 -273.5t257.5 -99.5t257.5 99.5t92.5 273.5v845h174v-839q0 -242 -135.5 -388.5t-388.5 -146.5t-388.5 146.5t-135.5 388.5zM502 1483l327 293l111 -125l-385 -228z" />
<glyph unicode="&#xdb;" horiz-adv-x="1355" d="M154 502v839h174v-845q0 -174 92.5 -273.5t257.5 -99.5t257.5 99.5t92.5 273.5v845h174v-839q0 -242 -135.5 -388.5t-388.5 -146.5t-388.5 146.5t-135.5 388.5zM358 1483l289 293h70l289 -293l-54 -60l-270 205l-270 -205z" />
<glyph unicode="&#xdc;" horiz-adv-x="1355" d="M154 502v839h174v-845q0 -174 92.5 -273.5t257.5 -99.5t257.5 99.5t92.5 273.5v845h174v-839q0 -242 -135.5 -388.5t-388.5 -146.5t-388.5 146.5t-135.5 388.5zM350 1579q0 46 31.5 78.5t77.5 32.5t78 -32.5t32 -78.5t-32 -77.5t-78 -31.5t-77.5 31.5t-31.5 77.5z M786 1579q0 46 31.5 78.5t77.5 32.5t78.5 -32.5t32.5 -78.5t-32.5 -77.5t-78.5 -31.5t-77.5 31.5t-31.5 77.5z" />
<glyph unicode="&#xdd;" horiz-adv-x="1212" d="M31 1341l487 -774v-567h174v569l490 772h-187l-385 -634l-385 634h-194zM461 1483l327 293l111 -125l-385 -228z" />
<glyph unicode="&#xde;" horiz-adv-x="1163" d="M174 0v1341h174v-288h250q74 0 140 -9.5t130.5 -34.5t110 -64t74 -102.5t28.5 -144.5q0 -92 -31.5 -163.5t-81.5 -115t-118 -71.5t-134 -38.5t-136 -10.5h-232v-299h-174zM348 451h166q66 0 113.5 3.5t102.5 17t90 36.5t58 66t23 102q0 57 -20.5 98.5t-53 65.5t-83.5 38 t-102 18.5t-118 4.5h-176v-450z" />
<glyph unicode="&#xdf;" horiz-adv-x="1138" d="M51 813v90l156 39v174q0 196 94.5 311t282.5 115q119 0 205.5 -50.5t126.5 -128.5t40 -173q0 -141 -64.5 -245.5t-184.5 -158.5q152 -53 246 -158t94 -255q0 -176 -96 -291t-259 -115q-58 0 -125 24.5t-104 67.5l47 84q51 -32 137 -32q111 0 170.5 66t59.5 181 q0 142 -100 239t-269 97v142q133 0 204.5 87t71.5 238q0 104 -50 175t-150 71q-42 0 -75.5 -12.5t-55.5 -31.5t-38 -50.5t-24.5 -61t-13 -72.5t-5.5 -75t-1 -78v-1026h-164v813h-156z" />
<glyph unicode="&#xe0;" horiz-adv-x="1003" d="M96 250q0 74 30 130.5t75.5 88.5t109.5 52.5t122.5 27t123.5 6.5h139v41q0 129 -55 187.5t-178 58.5q-71 0 -152 -26.5t-129 -57.5l-30 119q71 50 165.5 80t174.5 30q107 0 180 -29t113.5 -86t57.5 -130.5t17 -174.5v-567h-90l-51 113q-50 -64 -132.5 -105t-185.5 -41 q-136 0 -220.5 76.5t-84.5 206.5zM262 268q0 -73 50.5 -119.5t144.5 -46.5q79 0 146 36t93 85v217h-104q-330 0 -330 -172zM270 1405l144 92l227 -348l-66 -43z" />
<glyph unicode="&#xe1;" horiz-adv-x="1003" d="M96 250q0 74 30 130.5t75.5 88.5t109.5 52.5t122.5 27t123.5 6.5h139v41q0 129 -55 187.5t-178 58.5q-71 0 -152 -26.5t-129 -57.5l-30 119q71 50 165.5 80t174.5 30q107 0 180 -29t113.5 -86t57.5 -130.5t17 -174.5v-567h-90l-51 113q-50 -64 -132.5 -105t-185.5 -41 q-136 0 -220.5 76.5t-84.5 206.5zM262 268q0 -73 50.5 -119.5t144.5 -46.5q79 0 146 36t93 85v217h-104q-330 0 -330 -172zM387 1149l227 348l144 -92l-305 -299z" />
<glyph unicode="&#xe2;" horiz-adv-x="1003" d="M96 250q0 74 30 130.5t75.5 88.5t109.5 52.5t122.5 27t123.5 6.5h139v41q0 129 -55 187.5t-178 58.5q-71 0 -152 -26.5t-129 -57.5l-30 119q71 50 165.5 80t174.5 30q107 0 180 -29t113.5 -86t57.5 -130.5t17 -174.5v-567h-90l-51 113q-50 -64 -132.5 -105t-185.5 -41 q-136 0 -220.5 76.5t-84.5 206.5zM250 1149l227 348h72l227 -348l-65 -43l-199 219l-197 -219zM262 268q0 -73 50.5 -119.5t144.5 -46.5q79 0 146 36t93 85v217h-104q-330 0 -330 -172z" />
<glyph unicode="&#xe3;" horiz-adv-x="1003" d="M96 250q0 74 30 130.5t75.5 88.5t109.5 52.5t122.5 27t123.5 6.5h139v41q0 129 -55 187.5t-178 58.5q-71 0 -152 -26.5t-129 -57.5l-30 119q71 50 165.5 80t174.5 30q107 0 180 -29t113.5 -86t57.5 -130.5t17 -174.5v-567h-90l-51 113q-50 -64 -132.5 -105t-185.5 -41 q-136 0 -220.5 76.5t-84.5 206.5zM213 1149l111 170q4 7 12 17.5t36.5 28t61.5 17.5q37 0 90.5 -26.5t89.5 -26.5q29 0 67 35t97 104l66 -43l-111 -170q-4 -7 -12 -17.5t-36.5 -28t-61.5 -17.5q-37 0 -91 26.5t-90 26.5q-20 0 -49 -21.5t-52 -46.5t-62 -71zM262 268 q0 -73 50.5 -119.5t144.5 -46.5q79 0 146 36t93 85v217h-104q-330 0 -330 -172z" />
<glyph unicode="&#xe4;" horiz-adv-x="1003" d="M96 250q0 74 30 130.5t75.5 88.5t109.5 52.5t122.5 27t123.5 6.5h139v41q0 129 -55 187.5t-178 58.5q-71 0 -152 -26.5t-129 -57.5l-30 119q71 50 165.5 80t174.5 30q107 0 180 -29t113.5 -86t57.5 -130.5t17 -174.5v-567h-90l-51 113q-50 -64 -132.5 -105t-185.5 -41 q-136 0 -220.5 76.5t-84.5 206.5zM201 1264q0 43 32.5 76.5t75.5 33.5t77 -33.5t34 -76.5t-34 -76t-77 -33t-75.5 33t-32.5 76zM262 268q0 -73 50.5 -119.5t144.5 -46.5q79 0 146 36t93 85v217h-104q-330 0 -330 -172zM608 1264q0 43 33 76.5t76 33.5t76.5 -33.5t33.5 -76.5 t-33.5 -76t-76.5 -33t-76 33t-33 76z" />
<glyph unicode="&#xe5;" horiz-adv-x="1003" d="M96 250q0 74 30 130.5t75.5 88.5t109.5 52.5t122.5 27t123.5 6.5h139v41q0 129 -55 187.5t-178 58.5q-71 0 -152 -26.5t-129 -57.5l-30 119q71 50 165.5 80t174.5 30q107 0 180 -29t113.5 -86t57.5 -130.5t17 -174.5v-567h-90l-51 113q-50 -64 -132.5 -105t-185.5 -41 q-136 0 -220.5 76.5t-84.5 206.5zM262 268q0 -73 50.5 -119.5t144.5 -46.5q79 0 146 36t93 85v217h-104q-330 0 -330 -172zM307 1276q0 85 59.5 139.5t145.5 54.5t145.5 -54.5t59.5 -139.5q0 -86 -59.5 -141.5t-145.5 -55.5t-145.5 55.5t-59.5 141.5zM399 1276q0 -53 31 -86 t82 -33q52 0 81.5 33t29.5 86q0 52 -29.5 84.5t-81.5 32.5q-51 0 -82 -33t-31 -84z" />
<glyph unicode="&#xe6;" horiz-adv-x="1609" d="M96 250q0 74 30 130.5t75.5 88.5t109.5 52.5t122.5 27t123.5 6.5h139v41q0 129 -55 187.5t-178 58.5q-71 0 -152 -26.5t-129 -57.5l-30 119q71 50 165.5 80t174.5 30q235 0 307 -160q116 160 309 160q182 0 295.5 -115t114.5 -319l-52 -113h-620q16 -157 106 -244 t258 -87q59 0 127 23t107 54l41 -73q-60 -72 -152.5 -109t-187.5 -37q-129 0 -222 54.5t-147 148.5q-102 -203 -375 -203q-136 0 -220.5 76.5t-84.5 206.5zM262 268q0 -73 50.5 -119.5t144.5 -46.5q79 0 146 36t93 85v217h-104q-330 0 -330 -172zM848 559h516 q0 142 -71.5 217.5t-176.5 75.5q-118 0 -188.5 -82.5t-79.5 -210.5z" />
<glyph unicode="&#xe7;" horiz-adv-x="956" d="M92 473q0 118 37 216.5t99.5 162.5t144.5 99.5t172 35.5q92 0 175 -31t138 -79l-31 -119q-42 26 -70 40t-85.5 29t-120.5 15q-129 0 -209 -99.5t-80 -244.5q0 -176 90 -280.5t258 -104.5q60 0 128 21t106 52l41 -73q-56 -67 -141 -104t-175 -42l-20 -125 q83 -13 125.5 -52t42.5 -91q0 -72 -75.5 -136t-203.5 -85l-41 73q69 15 117.5 56t48.5 80q0 29 -33 49t-102 24l37 213q-88 15 -160 63t-118 116.5t-70.5 151t-24.5 169.5z" />
<glyph unicode="&#xe8;" horiz-adv-x="1019" d="M92 473q0 233 121.5 373.5t304.5 140.5q182 0 295.5 -115t114.5 -319l-51 -113h-621q16 -156 106.5 -243.5t258.5 -87.5q59 0 126.5 23t106.5 54l41 -73q-60 -72 -152.5 -109t-187.5 -37q-113 0 -203.5 43t-146 115t-84.5 161t-29 187zM258 559h516q0 142 -71.5 217.5 t-176.5 75.5q-118 0 -188.5 -82.5t-79.5 -210.5zM285 1405l143 92l227 -348l-65 -43z" />
<glyph unicode="&#xe9;" horiz-adv-x="1019" d="M92 473q0 233 121.5 373.5t304.5 140.5q182 0 295.5 -115t114.5 -319l-51 -113h-621q16 -156 106.5 -243.5t258.5 -87.5q59 0 126.5 23t106.5 54l41 -73q-60 -72 -152.5 -109t-187.5 -37q-113 0 -203.5 43t-146 115t-84.5 161t-29 187zM258 559h516q0 142 -71.5 217.5 t-176.5 75.5q-118 0 -188.5 -82.5t-79.5 -210.5zM385 1149l227 348l144 -92l-305 -299z" />
<glyph unicode="&#xea;" horiz-adv-x="1019" d="M92 473q0 233 121.5 373.5t304.5 140.5q182 0 295.5 -115t114.5 -319l-51 -113h-621q16 -156 106.5 -243.5t258.5 -87.5q59 0 126.5 23t106.5 54l41 -73q-60 -72 -152.5 -109t-187.5 -37q-113 0 -203.5 43t-146 115t-84.5 161t-29 187zM258 559h516q0 142 -71.5 217.5 t-176.5 75.5q-118 0 -188.5 -82.5t-79.5 -210.5zM268 1149l228 348h71l228 -348l-66 -43l-199 219l-196 -219z" />
<glyph unicode="&#xeb;" horiz-adv-x="1019" d="M92 473q0 233 121.5 373.5t304.5 140.5q182 0 295.5 -115t114.5 -319l-51 -113h-621q16 -156 106.5 -243.5t258.5 -87.5q59 0 126.5 23t106.5 54l41 -73q-60 -72 -152.5 -109t-187.5 -37q-113 0 -203.5 43t-146 115t-84.5 161t-29 187zM203 1264q0 43 32.5 76.5 t75.5 33.5t77 -33.5t34 -76.5t-34 -76t-77 -33t-75.5 33t-32.5 76zM258 559h516q0 142 -71.5 217.5t-176.5 75.5q-118 0 -188.5 -82.5t-79.5 -210.5zM610 1264q0 43 33 76.5t76 33.5t76.5 -33.5t33.5 -76.5t-33.5 -76t-76.5 -33t-76 33t-33 76z" />
<glyph unicode="&#xec;" horiz-adv-x="526" d="M37 1405l143 92l228 -348l-66 -43zM180 0v954h164v-954h-164z" />
<glyph unicode="&#xed;" horiz-adv-x="526" d="M127 1149l227 348l144 -92l-305 -299zM180 0v954h164v-954h-164z" />
<glyph unicode="&#xee;" horiz-adv-x="526" d="M2 1149l227 348h72l227 -348l-65 -43l-199 219l-196 -219zM182 0v954h164v-954h-164z" />
<glyph unicode="&#xef;" horiz-adv-x="526" d="M-20 1264q0 46 32 78t76 32q46 0 78.5 -33t32.5 -77t-32.5 -76.5t-78.5 -32.5q-45 0 -76.5 32t-31.5 77zM182 0v954h164v-954h-164zM328 1264q0 46 32 78t76 32q46 0 78.5 -33t32.5 -77t-32.5 -76.5t-78.5 -32.5q-45 0 -76.5 32t-31.5 77z" />
<glyph unicode="&#xf0;" d="M92 1456q135 72 281 72q164 0 295 -92l200 151l56 -74l-181 -139q138 -129 214.5 -345t76.5 -456q0 -103 -15.5 -191t-50.5 -165.5t-88.5 -132t-134 -86t-182.5 -31.5q-131 0 -231 67t-151.5 178t-51.5 247q0 222 122 354.5t308 132.5q163 0 285 -119q-27 134 -84 253 t-137 202l-228 -174l-61 76l215 162q-103 73 -221 73q-102 0 -195 -37zM299 494q0 -185 84 -288.5t197 -103.5q58 0 107 22.5t90 71.5t64 136.5t23 206.5q0 63 -6 127q-53 69 -132 107t-161 38q-128 0 -197 -91t-69 -226z" />
<glyph unicode="&#xf1;" horiz-adv-x="1101" d="M154 0v954h90l51 -112q77 68 171.5 106.5t190.5 38.5q138 0 216.5 -79.5t78.5 -248.5v-659h-164v600q0 122 -43.5 182t-164.5 60q-65 0 -146 -40t-117 -83v-719h-163zM246 1149l110 170q4 7 12.5 17.5t37 28t61.5 17.5q37 0 90.5 -26.5t89.5 -26.5q29 0 67 35t97 104 l66 -43l-111 -170q-4 -7 -12.5 -17.5t-37 -28t-61.5 -17.5q-37 0 -90.5 26.5t-89.5 26.5q-29 0 -67 -35t-97 -104z" />
<glyph unicode="&#xf2;" horiz-adv-x="1089" d="M92 469q0 240 130 379t345 139q99 0 181 -40.5t136 -109.5t83.5 -159.5t29.5 -192.5q0 -240 -130 -379t-345 -139q-99 0 -181 40.5t-136 109.5t-83.5 159.5t-29.5 192.5zM262 504q0 -77 16.5 -146t50 -127.5t92.5 -93.5t136 -35q86 0 149 53t92 130.5t29 165.5 q0 77 -16.5 145.5t-50 127.5t-92.5 93.5t-136 34.5q-86 0 -149 -53t-92 -130t-29 -165zM340 1405l143 92l228 -348l-66 -43z" />
<glyph unicode="&#xf3;" horiz-adv-x="1089" d="M92 469q0 240 130 379t345 139q99 0 181 -40.5t136 -109.5t83.5 -159.5t29.5 -192.5q0 -240 -130 -379t-345 -139q-99 0 -181 40.5t-136 109.5t-83.5 159.5t-29.5 192.5zM262 504q0 -77 16.5 -146t50 -127.5t92.5 -93.5t136 -35q86 0 149 53t92 130.5t29 165.5 q0 77 -16.5 145.5t-50 127.5t-92.5 93.5t-136 34.5q-86 0 -149 -53t-92 -130t-29 -165zM399 1149l228 348l143 -92l-305 -299z" />
<glyph unicode="&#xf4;" horiz-adv-x="1089" d="M92 469q0 240 130 379t345 139q99 0 181 -40.5t136 -109.5t83.5 -159.5t29.5 -192.5q0 -240 -130 -379t-345 -139q-99 0 -181 40.5t-136 109.5t-83.5 159.5t-29.5 192.5zM262 504q0 -77 16.5 -146t50 -127.5t92.5 -93.5t136 -35q86 0 149 53t92 130.5t29 165.5 q0 77 -16.5 145.5t-50 127.5t-92.5 93.5t-136 34.5q-86 0 -149 -53t-92 -130t-29 -165zM283 1149l227 348h72l227 -348l-66 -43l-198 219l-197 -219z" />
<glyph unicode="&#xf5;" horiz-adv-x="1089" d="M92 469q0 240 130 379t345 139q99 0 181 -40.5t136 -109.5t83.5 -159.5t29.5 -192.5q0 -240 -130 -379t-345 -139q-99 0 -181 40.5t-136 109.5t-83.5 159.5t-29.5 192.5zM238 1149l110 170q4 7 12.5 17.5t37 28t61.5 17.5q37 0 90.5 -26.5t89.5 -26.5q29 0 67 35t97 104 l65 -43l-110 -170q-4 -7 -12.5 -17.5t-37 -28t-61.5 -17.5q-37 0 -90.5 26.5t-89.5 26.5q-29 0 -67 -35t-97 -104zM262 504q0 -77 16.5 -146t50 -127.5t92.5 -93.5t136 -35q86 0 149 53t92 130.5t29 165.5q0 77 -16.5 145.5t-50 127.5t-92.5 93.5t-136 34.5q-86 0 -149 -53 t-92 -130t-29 -165z" />
<glyph unicode="&#xf6;" horiz-adv-x="1089" d="M92 469q0 240 130 379t345 139q99 0 181 -40.5t136 -109.5t83.5 -159.5t29.5 -192.5q0 -240 -130 -379t-345 -139q-99 0 -181 40.5t-136 109.5t-83.5 159.5t-29.5 192.5zM231 1264q0 43 33 76.5t76 33.5t77 -33.5t34 -76.5t-34 -76t-77 -33t-76 33t-33 76zM262 504 q0 -77 16.5 -146t50 -127.5t92.5 -93.5t136 -35q86 0 149 53t92 130.5t29 165.5q0 77 -16.5 145.5t-50 127.5t-92.5 93.5t-136 34.5q-86 0 -149 -53t-92 -130t-29 -165zM639 1264q0 43 33 76.5t76 33.5t76.5 -33.5t33.5 -76.5t-33.5 -76t-76.5 -33t-76 33t-33 76z" />
<glyph unicode="&#xf7;" horiz-adv-x="1077" d="M72 473v141h934v-141h-934zM422 170q0 50 34 84.5t83 34.5t83.5 -34.5t34.5 -84.5q0 -49 -34 -83t-84 -34q-49 0 -83 33.5t-34 83.5zM422 934q0 50 34 84.5t83 34.5t83.5 -34.5t34.5 -84.5q0 -49 -34 -83t-84 -34q-49 0 -83 33.5t-34 83.5z" />
<glyph unicode="&#xf8;" horiz-adv-x="1089" d="M92 469q0 240 130 379t345 139q137 0 242 -78l63 92l78 -53l-73 -104q120 -142 120 -359q0 -240 -130 -379t-345 -139q-118 0 -217 60l-55 -80l-78 53l59 86q-67 70 -103 169.5t-36 213.5zM262 504q0 -167 68 -277l387 551q-74 74 -185 74q-86 0 -149 -53t-92 -130 t-29 -165zM395 154q65 -52 162 -52q86 0 149 53t92 130.5t29 165.5q0 141 -53 247z" />
<glyph unicode="&#xf9;" horiz-adv-x="1099" d="M147 295v659h164v-600q0 -121 44 -181t165 -60q65 0 145 40t117 83v718h164v-954h-90l-51 113q-78 -68 -173 -107t-190 -39q-138 0 -216.5 79.5t-78.5 248.5zM307 1405l144 92l227 -348l-66 -43z" />
<glyph unicode="&#xfa;" horiz-adv-x="1099" d="M147 295v659h164v-600q0 -121 44 -181t165 -60q65 0 145 40t117 83v718h164v-954h-90l-51 113q-78 -68 -173 -107t-190 -39q-138 0 -216.5 79.5t-78.5 248.5zM422 1149l227 348l144 -92l-306 -299z" />
<glyph unicode="&#xfb;" horiz-adv-x="1099" d="M147 295v659h164v-600q0 -121 44 -181t165 -60q65 0 145 40t117 83v718h164v-954h-90l-51 113q-78 -68 -173 -107t-190 -39q-138 0 -216.5 79.5t-78.5 248.5zM287 1149l227 348h72l227 -348l-65 -43l-199 219l-197 -219z" />
<glyph unicode="&#xfc;" horiz-adv-x="1099" d="M147 295v659h164v-600q0 -121 44 -181t165 -60q65 0 145 40t117 83v718h164v-954h-90l-51 113q-78 -68 -173 -107t-190 -39q-138 0 -216.5 79.5t-78.5 248.5zM244 1264q0 43 32.5 76.5t75.5 33.5t77 -33.5t34 -76.5t-34 -76t-77 -33t-75.5 33t-32.5 76zM651 1264 q0 43 33 76.5t76 33.5t76.5 -33.5t33.5 -76.5t-33.5 -76t-76.5 -33t-76 33t-33 76z" />
<glyph unicode="&#xfd;" horiz-adv-x="987" d="M41 954h180l285 -764l276 764h174l-585 -1456h-170l221 512zM360 1149l228 348l143 -92l-305 -299z" />
<glyph unicode="&#xfe;" horiz-adv-x="1120" d="M154 -502v2011h163v-624q121 102 281 102q99 0 181 -40.5t136 -109.5t83.5 -159.5t29.5 -192.5q0 -240 -127.5 -379t-325.5 -139q-66 0 -136.5 26.5t-121.5 76.5v-572h-163zM317 227q50 -63 119 -88.5t133 -25.5q132 0 210.5 96.5t78.5 241.5q0 76 -16.5 143.5t-50 124.5 t-92.5 90t-136 33q-70 0 -138 -27t-108 -70v-518z" />
<glyph unicode="&#xff;" horiz-adv-x="987" d="M41 954h180l285 -764l276 764h174l-585 -1456h-170l221 512zM186 1264q0 43 33 76.5t76 33.5t77 -33.5t34 -76.5t-34 -76t-77 -33t-76 33t-33 76zM594 1264q0 43 32.5 76.5t75.5 33.5t77 -33.5t34 -76.5t-34 -76t-77 -33t-75.5 33t-32.5 76z" />
<glyph unicode="&#x100;" horiz-adv-x="1294" d="M51 0l506 1341h184l502 -1341h-194l-125 348h-559l-123 -348h-191zM342 1509v121h612v-121h-612zM418 500h452l-227 637z" />
<glyph unicode="&#x101;" horiz-adv-x="1003" d="M96 250q0 74 30 130.5t75.5 88.5t109.5 52.5t122.5 27t123.5 6.5h139v41q0 129 -55 187.5t-178 58.5q-71 0 -152 -26.5t-129 -57.5l-30 119q71 50 165.5 80t174.5 30q107 0 180 -29t113.5 -86t57.5 -130.5t17 -174.5v-567h-90l-51 113q-50 -64 -132.5 -105t-185.5 -41 q-136 0 -220.5 76.5t-84.5 206.5zM225 1221v120h572v-120h-572zM262 268q0 -73 50.5 -119.5t144.5 -46.5q79 0 146 36t93 85v217h-104q-330 0 -330 -172z" />
<glyph unicode="&#x102;" horiz-adv-x="1294" d="M51 0l506 1341h184l502 -1341h-194l-125 348h-559l-123 -348h-191zM373 1696h90q13 -64 59 -104t121 -40t121 40t59 104h90q0 -107 -77.5 -190t-192.5 -83t-192.5 83t-77.5 190zM418 500h452l-227 637z" />
<glyph unicode="&#x103;" horiz-adv-x="1003" d="M96 250q0 74 30 130.5t75.5 88.5t109.5 52.5t122.5 27t123.5 6.5h139v41q0 129 -55 187.5t-178 58.5q-71 0 -152 -26.5t-129 -57.5l-30 119q71 50 165.5 80t174.5 30q107 0 180 -29t113.5 -86t57.5 -130.5t17 -174.5v-567h-90l-51 113q-50 -64 -132.5 -105t-185.5 -41 q-136 0 -220.5 76.5t-84.5 206.5zM250 1413h90q12 -75 56 -116.5t114 -41.5t114 41.5t56 116.5h90q0 -115 -73 -201t-187 -86q-80 0 -141 44t-90 108t-29 135zM262 268q0 -73 50.5 -119.5t144.5 -46.5q79 0 146 36t93 85v217h-104q-330 0 -330 -172z" />
<glyph unicode="&#x104;" horiz-adv-x="1294" d="M51 0l506 1341h184l502 -1341q-116 -43 -187 -116t-71 -160q0 -61 40 -94t93 -33q59 0 105 22l41 -74q-37 -32 -92.5 -49.5t-110.5 -17.5q-113 0 -172.5 63t-59.5 152q0 84 59.5 170t155.5 145l-120 340h-559l-123 -348h-191zM418 500h452l-227 637z" />
<glyph unicode="&#x105;" horiz-adv-x="1003" d="M96 250q0 74 30 130.5t75.5 88.5t109.5 52.5t122.5 27t123.5 6.5h139v41q0 129 -55 187.5t-178 58.5q-71 0 -152 -26.5t-129 -57.5l-30 119q71 50 165.5 80t174.5 30q107 0 180 -29t113.5 -86t57.5 -130.5t17 -174.5v-567q-89 -45 -153 -124t-64 -163q0 -59 35.5 -87.5 t87.5 -28.5q48 0 94 22l41 -74q-79 -67 -194 -67q-91 0 -153 49.5t-62 146.5q0 95 70 190t196 163l-39 86q-50 -64 -132.5 -105t-185.5 -41q-136 0 -220.5 76.5t-84.5 206.5zM262 268q0 -73 50.5 -119.5t144.5 -46.5q79 0 146 36t93 85v217h-104q-330 0 -330 -172z" />
<glyph unicode="&#x106;" horiz-adv-x="1251" d="M98 672q0 115 25 218t77.5 192t128.5 153.5t184 101.5t237 37q124 0 224.5 -38.5t164.5 -90.5l-35 -135q-99 56 -187 82.5t-190 26.5q-186 0 -317 -141.5t-131 -360.5q0 -92 16.5 -175t55 -160.5t97 -133.5t148.5 -89.5t203 -33.5q94 0 182.5 36t128.5 81l49 -88 q-6 -8 -17 -20.5t-50.5 -44.5t-84.5 -57t-119.5 -45t-154.5 -20q-138 0 -249.5 44t-182 114.5t-117.5 164.5t-66.5 189t-19.5 193zM528 1483l328 293l111 -125l-385 -228z" />
<glyph unicode="&#x107;" horiz-adv-x="956" d="M92 473q0 118 37 216.5t99.5 162.5t144.5 99.5t172 35.5q92 0 175 -31t138 -79l-31 -119q-42 26 -70 40t-85.5 29t-120.5 15q-129 0 -209 -99.5t-80 -244.5q0 -176 90 -280.5t258 -104.5q60 0 128 21t106 52l41 -73q-60 -72 -152.5 -109t-187.5 -37q-106 0 -193.5 43 t-143.5 115t-86 161.5t-30 186.5zM383 1149l227 348l144 -92l-305 -299z" />
<glyph unicode="&#x108;" horiz-adv-x="1251" d="M98 672q0 115 25 218t77.5 192t128.5 153.5t184 101.5t237 37q124 0 224.5 -38.5t164.5 -90.5l-35 -135q-99 56 -187 82.5t-190 26.5q-186 0 -317 -141.5t-131 -360.5q0 -92 16.5 -175t55 -160.5t97 -133.5t148.5 -89.5t203 -33.5q94 0 182.5 36t128.5 81l49 -88 q-6 -8 -17 -20.5t-50.5 -44.5t-84.5 -57t-119.5 -45t-154.5 -20q-138 0 -249.5 44t-182 114.5t-117.5 164.5t-66.5 189t-19.5 193zM387 1483l289 293h69l289 -293l-53 -60l-270 205l-271 -205z" />
<glyph unicode="&#x109;" horiz-adv-x="956" d="M92 473q0 118 37 216.5t99.5 162.5t144.5 99.5t172 35.5q92 0 175 -31t138 -79l-31 -119q-42 26 -70 40t-85.5 29t-120.5 15q-129 0 -209 -99.5t-80 -244.5q0 -176 90 -280.5t258 -104.5q60 0 128 21t106 52l41 -73q-60 -72 -152.5 -109t-187.5 -37q-106 0 -193.5 43 t-143.5 115t-86 161.5t-30 186.5zM283 1149l227 348h72l227 -348l-66 -43l-198 219l-197 -219z" />
<glyph unicode="&#x10a;" horiz-adv-x="1251" d="M98 672q0 115 25 218t77.5 192t128.5 153.5t184 101.5t237 37q124 0 224.5 -38.5t164.5 -90.5l-35 -135q-99 56 -187 82.5t-190 26.5q-186 0 -317 -141.5t-131 -360.5q0 -92 16.5 -175t55 -160.5t97 -133.5t148.5 -89.5t203 -33.5q94 0 182.5 36t128.5 81l49 -88 q-6 -8 -17 -20.5t-50.5 -44.5t-84.5 -57t-119.5 -45t-154.5 -20q-138 0 -249.5 44t-182 114.5t-117.5 164.5t-66.5 189t-19.5 193zM594 1579q0 46 31.5 78.5t76.5 32.5q46 0 78.5 -32.5t32.5 -78.5t-32.5 -77.5t-78.5 -31.5t-77 31.5t-31 77.5z" />
<glyph unicode="&#x10b;" horiz-adv-x="956" d="M92 473q0 118 37 216.5t99.5 162.5t144.5 99.5t172 35.5q92 0 175 -31t138 -79l-31 -119q-42 26 -70 40t-85.5 29t-120.5 15q-129 0 -209 -99.5t-80 -244.5q0 -176 90 -280.5t258 -104.5q60 0 128 21t106 52l41 -73q-60 -72 -152.5 -109t-187.5 -37q-106 0 -193.5 43 t-143.5 115t-86 161.5t-30 186.5zM434 1264q0 43 33 76.5t76 33.5t76.5 -33.5t33.5 -76.5t-33.5 -76t-76.5 -33t-76 33t-33 76z" />
<glyph unicode="&#x10c;" horiz-adv-x="1251" d="M98 672q0 115 25 218t77.5 192t128.5 153.5t184 101.5t237 37q124 0 224.5 -38.5t164.5 -90.5l-35 -135q-99 56 -187 82.5t-190 26.5q-186 0 -317 -141.5t-131 -360.5q0 -92 16.5 -175t55 -160.5t97 -133.5t148.5 -89.5t203 -33.5q94 0 182.5 36t128.5 81l49 -88 q-6 -8 -17 -20.5t-50.5 -44.5t-84.5 -57t-119.5 -45t-154.5 -20q-138 0 -249.5 44t-182 114.5t-117.5 164.5t-66.5 189t-19.5 193zM379 1716l53 60l270 -205l271 205l53 -60l-289 -293h-69z" />
<glyph unicode="&#x10d;" horiz-adv-x="956" d="M92 473q0 118 37 216.5t99.5 162.5t144.5 99.5t172 35.5q92 0 175 -31t138 -79l-31 -119q-42 26 -70 40t-85.5 29t-120.5 15q-129 0 -209 -99.5t-80 -244.5q0 -176 90 -280.5t258 -104.5q60 0 128 21t106 52l41 -73q-60 -72 -152.5 -109t-187.5 -37q-106 0 -193.5 43 t-143.5 115t-86 161.5t-30 186.5zM272 1454l66 43l197 -219l198 219l66 -43l-228 -348h-71z" />
<glyph unicode="&#x10e;" horiz-adv-x="1343" d="M174 0v1341h428q140 0 250.5 -38t183 -102.5t120.5 -154.5t68.5 -189.5t20.5 -213.5q0 -96 -23.5 -187t-75.5 -174.5t-127.5 -145.5t-185.5 -99t-243 -37h-416zM270 1716l54 60l270 -205l270 205l54 -60l-289 -293h-70zM348 152h197q271 0 395.5 124t124.5 375 q0 85 -13 158.5t-48 145.5t-88.5 122.5t-141.5 81.5t-201 31h-225v-1038z" />
<glyph unicode="&#x10f;" horiz-adv-x="1132" d="M88 469q0 226 125 372t309 146q156 0 275 -94v616h164v-1509h-91l-51 113q-103 -146 -299 -146q-99 0 -181 40.5t-136.5 109.5t-84.5 160t-30 192zM258 504q0 -60 10 -115.5t33 -106t56.5 -88t84.5 -59.5t113 -22q90 0 151 37t91 98v497q-59 49 -113 73t-135 24 q-132 0 -211.5 -96.5t-79.5 -241.5zM1102 1112v397h170l-90 -397h-80z" />
<glyph unicode="&#x110;" horiz-adv-x="1343" d="M31 614v121h143v606h428q140 0 250.5 -38t183 -102.5t120.5 -154.5t68.5 -189.5t20.5 -213.5q0 -96 -23.5 -187t-75.5 -174.5t-127.5 -145.5t-185.5 -99t-243 -37h-416v614h-143zM348 152h197q271 0 395.5 124t124.5 375q0 85 -13 158.5t-48 145.5t-88.5 122.5 t-141.5 81.5t-201 31h-225v-455h344v-121h-344v-462z" />
<glyph unicode="&#x111;" horiz-adv-x="1118" d="M88 469q0 226 125 372t309 146q156 0 275 -94v285h-334v100h334v231h164v-231h143v-100h-143v-1178h-91l-51 113q-103 -146 -299 -146q-99 0 -181 40.5t-136.5 109.5t-84.5 160t-30 192zM258 504q0 -60 10 -115.5t33 -106t56.5 -88t84.5 -59.5t113 -22q90 0 151 37t91 98 v497q-59 49 -113 73t-135 24q-132 0 -211.5 -96.5t-79.5 -241.5z" />
<glyph unicode="&#x112;" horiz-adv-x="1122" d="M174 0v1341h813v-151h-639v-436h500v-152h-500v-450h682v-152h-856zM276 1509v121h613v-121h-613z" />
<glyph unicode="&#x113;" horiz-adv-x="1019" d="M92 473q0 233 121.5 373.5t304.5 140.5q182 0 295.5 -115t114.5 -319l-51 -113h-621q16 -156 106.5 -243.5t258.5 -87.5q59 0 126.5 23t106.5 54l41 -73q-60 -72 -152.5 -109t-187.5 -37q-113 0 -203.5 43t-146 115t-84.5 161t-29 187zM238 1221v120h571v-120h-571z M258 559h516q0 142 -71.5 217.5t-176.5 75.5q-118 0 -188.5 -82.5t-79.5 -210.5z" />
<glyph unicode="&#x114;" horiz-adv-x="1122" d="M174 0v1341h813v-151h-639v-436h500v-152h-500v-450h682v-152h-856zM332 1696h90q13 -64 59 -104t121 -40t121 40t59 104h90q0 -107 -77.5 -190t-192.5 -83t-192.5 83t-77.5 190z" />
<glyph unicode="&#x115;" horiz-adv-x="1019" d="M92 473q0 233 121.5 373.5t304.5 140.5q182 0 295.5 -115t114.5 -319l-51 -113h-621q16 -156 106.5 -243.5t258.5 -87.5q59 0 126.5 23t106.5 54l41 -73q-60 -72 -152.5 -109t-187.5 -37q-113 0 -203.5 43t-146 115t-84.5 161t-29 187zM258 559h516q0 142 -71.5 217.5 t-176.5 75.5q-118 0 -188.5 -82.5t-79.5 -210.5zM281 1413h90q12 -75 56 -116.5t114 -41.5t114 41.5t56 116.5h90q0 -115 -73 -201t-187 -86q-80 0 -141 44t-90 108t-29 135z" />
<glyph unicode="&#x116;" horiz-adv-x="1122" d="M174 0v1341h813v-151h-639v-436h500v-152h-500v-450h682v-152h-856zM494 1579q0 46 31.5 78.5t76.5 32.5q46 0 78.5 -32.5t32.5 -78.5t-32.5 -77.5t-78.5 -31.5t-77 31.5t-31 77.5z" />
<glyph unicode="&#x117;" horiz-adv-x="1019" d="M92 473q0 233 121.5 373.5t304.5 140.5q182 0 295.5 -115t114.5 -319l-51 -113h-621q16 -156 106.5 -243.5t258.5 -87.5q59 0 126.5 23t106.5 54l41 -73q-60 -72 -152.5 -109t-187.5 -37q-113 0 -203.5 43t-146 115t-84.5 161t-29 187zM258 559h516q0 142 -71.5 217.5 t-176.5 75.5q-118 0 -188.5 -82.5t-79.5 -210.5zM420 1264q0 43 32.5 76.5t75.5 33.5t77 -33.5t34 -76.5t-34 -76t-77 -33t-75.5 33t-32.5 76z" />
<glyph unicode="&#x118;" horiz-adv-x="1122" d="M174 0v1341h813v-151h-639v-436h500v-152h-500v-450h682v-152q-118 -43 -198 -122t-80 -165q0 -59 35 -87.5t87 -28.5q49 0 95 22l41 -74q-79 -67 -195 -67q-91 0 -153 49.5t-62 146.5q0 86 68 173t192 153h-686z" />
<glyph unicode="&#x119;" horiz-adv-x="1019" d="M92 473q0 233 121.5 373.5t304.5 140.5q182 0 295.5 -115t114.5 -319l-51 -113h-621q16 -156 106.5 -243.5t258.5 -87.5q59 0 126.5 23t106.5 54l41 -73q-24 -29 -65.5 -58.5t-81.5 -51.5t-83 -52.5t-75 -61t-53 -76.5t-21 -100q0 -59 35.5 -87.5t87.5 -28.5q48 0 94 22 l41 -74q-79 -67 -194 -67q-91 0 -153 49.5t-62 146.5q0 76 45 152.5t129 140.5q-110 3 -197 47t-140.5 115.5t-81.5 159.5t-28 184zM258 559h516q0 142 -71.5 217.5t-176.5 75.5q-118 0 -188.5 -82.5t-79.5 -210.5z" />
<glyph unicode="&#x11a;" horiz-adv-x="1122" d="M174 0v1341h813v-151h-639v-436h500v-152h-500v-450h682v-152h-856zM270 1716l54 60l270 -205l270 205l54 -60l-289 -293h-70z" />
<glyph unicode="&#x11b;" horiz-adv-x="1019" d="M92 473q0 233 121.5 373.5t304.5 140.5q182 0 295.5 -115t114.5 -319l-51 -113h-621q16 -156 106.5 -243.5t258.5 -87.5q59 0 126.5 23t106.5 54l41 -73q-60 -72 -152.5 -109t-187.5 -37q-113 0 -203.5 43t-146 115t-84.5 161t-29 187zM258 559h516q0 142 -71.5 217.5 t-176.5 75.5q-118 0 -188.5 -82.5t-79.5 -210.5zM274 1454l66 43l197 -219l198 219l66 -43l-228 -348h-71z" />
<glyph unicode="&#x11c;" horiz-adv-x="1382" d="M98 664q0 109 25 210.5t80 193t134.5 159t196.5 107.5t257 40q139 0 253.5 -39t176.5 -90l-35 -135q-195 109 -418 109q-138 0 -251 -69t-175.5 -186t-62.5 -255q0 -91 17.5 -174t56.5 -158.5t97.5 -131t146.5 -88t196 -32.5q85 0 155 28t107 68v320h-305v151h479v-692 h-90l-52 113q-55 -60 -155 -103t-219 -43q-130 0 -236 43t-175 112.5t-116 162t-67.5 187.5t-20.5 192zM430 1483l289 293h69l289 -293l-53 -60l-270 205l-271 -205z" />
<glyph unicode="&#x11d;" horiz-adv-x="1050" d="M76 -248q0 77 53.5 148t132.5 104q-59 32 -89 83t-30 108q0 99 74 182q-102 99 -102 252q0 87 31.5 157t84 112.5t116.5 65.5t132 23q92 0 176 -33h324v-114l-215 30q113 -113 113 -266q0 -140 -108.5 -238t-274.5 -98q-120 0 -211 58q-25 -45 -25 -76q0 -79 58 -113.5 t196 -34.5q54 0 93.5 -1.5t92.5 -7.5t91 -17t78 -32t65 -49.5t41 -72t16 -98.5q0 -115 -67.5 -198.5t-179 -124t-253.5 -40.5q-192 0 -302.5 79.5t-110.5 211.5zM223 -207q0 -99 78 -151t213 -52q136 0 229 61.5t93 172.5q0 50 -27 79.5t-80 40t-107.5 13.5t-134.5 6 t-135 12q-54 -27 -91.5 -75.5t-37.5 -106.5zM231 1149l228 348h71l228 -348l-66 -43l-198 219l-197 -219zM262 639q0 -115 72 -177.5t172 -62.5q103 0 166 65t63 159q0 111 -70.5 173t-177.5 62q-97 0 -161 -61.5t-64 -157.5z" />
<glyph unicode="&#x11e;" horiz-adv-x="1382" d="M98 664q0 109 25 210.5t80 193t134.5 159t196.5 107.5t257 40q139 0 253.5 -39t176.5 -90l-35 -135q-195 109 -418 109q-138 0 -251 -69t-175.5 -186t-62.5 -255q0 -91 17.5 -174t56.5 -158.5t97.5 -131t146.5 -88t196 -32.5q85 0 155 28t107 68v320h-305v151h479v-692 h-90l-52 113q-55 -60 -155 -103t-219 -43q-130 0 -236 43t-175 112.5t-116 162t-67.5 187.5t-20.5 192zM461 1696h90q13 -64 59 -104t121 -40t121 40t59 104h90q0 -107 -77.5 -190t-192.5 -83t-192.5 83t-77.5 190z" />
<glyph unicode="&#x11f;" horiz-adv-x="1050" d="M76 -248q0 77 53.5 148t132.5 104q-59 32 -89 83t-30 108q0 99 74 182q-102 99 -102 252q0 87 31.5 157t84 112.5t116.5 65.5t132 23q92 0 176 -33h324v-114l-215 30q113 -113 113 -266q0 -140 -108.5 -238t-274.5 -98q-120 0 -211 58q-25 -45 -25 -76q0 -79 58 -113.5 t196 -34.5q54 0 93.5 -1.5t92.5 -7.5t91 -17t78 -32t65 -49.5t41 -72t16 -98.5q0 -115 -67.5 -198.5t-179 -124t-253.5 -40.5q-192 0 -302.5 79.5t-110.5 211.5zM223 -207q0 -99 78 -151t213 -52q136 0 229 61.5t93 172.5q0 50 -27 79.5t-80 40t-107.5 13.5t-134.5 6 t-135 12q-54 -27 -91.5 -75.5t-37.5 -106.5zM244 1413h90q12 -75 56 -116.5t114 -41.5t114 41.5t56 116.5h90q0 -115 -73 -201t-187 -86q-80 0 -141 44t-90 108t-29 135zM262 639q0 -115 72 -177.5t172 -62.5q103 0 166 65t63 159q0 111 -70.5 173t-177.5 62 q-97 0 -161 -61.5t-64 -157.5z" />
<glyph unicode="&#x120;" horiz-adv-x="1382" d="M98 664q0 109 25 210.5t80 193t134.5 159t196.5 107.5t257 40q139 0 253.5 -39t176.5 -90l-35 -135q-195 109 -418 109q-138 0 -251 -69t-175.5 -186t-62.5 -255q0 -91 17.5 -174t56.5 -158.5t97.5 -131t146.5 -88t196 -32.5q85 0 155 28t107 68v320h-305v151h479v-692 h-90l-52 113q-55 -60 -155 -103t-219 -43q-130 0 -236 43t-175 112.5t-116 162t-67.5 187.5t-20.5 192zM641 1579q0 46 31.5 78.5t77.5 32.5t78 -32.5t32 -78.5t-32 -77.5t-78 -31.5t-77.5 31.5t-31.5 77.5z" />
<glyph unicode="&#x121;" horiz-adv-x="1050" d="M76 -248q0 77 53.5 148t132.5 104q-59 32 -89 83t-30 108q0 99 74 182q-102 99 -102 252q0 87 31.5 157t84 112.5t116.5 65.5t132 23q92 0 176 -33h324v-114l-215 30q113 -113 113 -266q0 -140 -108.5 -238t-274.5 -98q-120 0 -211 58q-25 -45 -25 -76q0 -79 58 -113.5 t196 -34.5q54 0 93.5 -1.5t92.5 -7.5t91 -17t78 -32t65 -49.5t41 -72t16 -98.5q0 -115 -67.5 -198.5t-179 -124t-253.5 -40.5q-192 0 -302.5 79.5t-110.5 211.5zM223 -207q0 -99 78 -151t213 -52q136 0 229 61.5t93 172.5q0 50 -27 79.5t-80 40t-107.5 13.5t-134.5 6 t-135 12q-54 -27 -91.5 -75.5t-37.5 -106.5zM262 639q0 -115 72 -177.5t172 -62.5q103 0 166 65t63 159q0 111 -70.5 173t-177.5 62q-97 0 -161 -61.5t-64 -157.5zM383 1264q0 43 33 76.5t76 33.5t76.5 -33.5t33.5 -76.5t-33.5 -76t-76.5 -33t-76 33t-33 76z" />
<glyph unicode="&#x122;" horiz-adv-x="1382" d="M98 664q0 109 25 210.5t80 193t134.5 159t196.5 107.5t257 40q139 0 253.5 -39t176.5 -90l-35 -135q-195 109 -418 109q-138 0 -251 -69t-175.5 -186t-62.5 -255q0 -91 17.5 -174t56.5 -158.5t97.5 -131t146.5 -88t196 -32.5q85 0 155 28t107 68v320h-305v151h479v-692 h-90l-52 113q-55 -60 -155 -103t-219 -43q-130 0 -236 43t-175 112.5t-116 162t-67.5 187.5t-20.5 192zM662 -170h174l-95 -369h-79v369z" />
<glyph unicode="&#x123;" horiz-adv-x="1050" d="M76 -248q0 77 53.5 148t132.5 104q-59 32 -89 83t-30 108q0 99 74 182q-102 99 -102 252q0 87 31.5 157t84 112.5t116.5 65.5t132 23q92 0 176 -33h324v-114l-215 30q113 -113 113 -266q0 -140 -108.5 -238t-274.5 -98q-120 0 -211 58q-25 -45 -25 -76q0 -79 58 -113.5 t196 -34.5q54 0 93.5 -1.5t92.5 -7.5t91 -17t78 -32t65 -49.5t41 -72t16 -98.5q0 -115 -67.5 -198.5t-179 -124t-253.5 -40.5q-192 0 -302.5 79.5t-110.5 211.5zM223 -207q0 -99 78 -151t213 -52q136 0 229 61.5t93 172.5q0 50 -27 79.5t-80 40t-107.5 13.5t-134.5 6 t-135 12q-54 -27 -91.5 -75.5t-37.5 -106.5zM262 639q0 -115 72 -177.5t172 -62.5q103 0 166 65t63 159q0 111 -70.5 173t-177.5 62q-97 0 -161 -61.5t-64 -157.5zM371 1141l94 368h80v-368h-174z" />
<glyph unicode="&#x124;" horiz-adv-x="1380" d="M174 0v1341h174v-587h684v587h174v-1341h-174v602h-684v-602h-174zM360 1483l289 293h70l289 -293l-54 -60l-270 205l-270 -205z" />
<glyph unicode="&#x125;" horiz-adv-x="1101" d="M-86 1575l289 293h69l289 -293l-53 -59l-270 204l-271 -204zM154 0v1509h163v-645q68 55 156.5 89t183.5 34q138 0 216.5 -79.5t78.5 -248.5v-659h-164v600q0 122 -43.5 182t-164.5 60q-65 0 -146 -40t-117 -83v-719h-163z" />
<glyph unicode="&#x126;" horiz-adv-x="1380" d="M23 987v111h151v243h174v-243h684v243h174v-243h152v-111h-152v-987h-174v602h-684v-602h-174v987h-151zM348 754h684v233h-684v-233z" />
<glyph unicode="&#x127;" horiz-adv-x="1101" d="M31 1178v100h123v231h163v-231h355v-100h-355v-314q68 55 156.5 89t183.5 34q138 0 216.5 -79.5t78.5 -248.5v-659h-164v600q0 122 -43.5 182t-164.5 60q-65 0 -146 -40t-117 -83v-719h-163v1178h-123z" />
<glyph unicode="&#x128;" horiz-adv-x="522" d="M-68 1462l103 156q3 6 10.5 15.5t35.5 25.5t64 16q37 0 114.5 -40t113.5 -40q20 0 45.5 19t43.5 39.5t56 66.5l66 -43l-101 -155q-3 -6 -10.5 -16t-35.5 -26t-64 -16q-37 0 -114.5 40t-113.5 40q-29 0 -60.5 -29t-86.5 -96zM174 0v1341h174v-1341h-174z" />
<glyph unicode="&#x129;" horiz-adv-x="526" d="M-31 1149l111 170q4 7 12 17.5t36.5 28t61.5 17.5q37 0 91 -26.5t90 -26.5q29 0 67 35t97 104l65 -43l-111 -170q-4 -7 -12 -17.5t-36.5 -28t-61.5 -17.5q-37 0 -90.5 26.5t-89.5 26.5q-29 0 -67 -35t-97 -104zM180 0v954h164v-954h-164z" />
<glyph unicode="&#x12a;" horiz-adv-x="522" d="M-45 1509v121h612v-121h-612zM174 0v1341h174v-1341h-174z" />
<glyph unicode="&#x12b;" horiz-adv-x="526" d="M31 1221v120h481v-120h-481zM180 0v954h164v-954h-164z" />
<glyph unicode="&#x12c;" horiz-adv-x="522" d="M-6 1696h90q13 -64 59 -104t121 -40t121 40t59 104h91q0 -107 -78 -190t-193 -83t-192.5 83t-77.5 190zM174 0v1341h174v-1341h-174z" />
<glyph unicode="&#x12d;" horiz-adv-x="526" d="M2 1413h90q12 -75 56 -116.5t114 -41.5t114 41.5t56 116.5h90q0 -115 -73 -201t-187 -86q-80 0 -141 44t-90 108t-29 135zM180 0v954h164v-954h-164z" />
<glyph unicode="&#x12e;" horiz-adv-x="522" d="M20 -326q0 76 40 154.5t114 142.5v1370h174v-1341q-72 -45 -124 -124t-52 -163q0 -59 35.5 -87.5t87.5 -28.5q48 0 94 22l41 -74q-79 -67 -194 -67q-91 0 -153.5 49.5t-62.5 146.5z" />
<glyph unicode="&#x12f;" horiz-adv-x="526" d="M16 -326q0 79 43 160t121 146v974h164v-954q-72 -45 -124 -124t-52 -163q0 -59 35.5 -87.5t87.5 -28.5q48 0 94 22l41 -74q-79 -67 -195 -67q-91 0 -153 49.5t-62 146.5zM154 1264q0 46 31 78t77 32t78.5 -32t32.5 -78t-32.5 -77.5t-78.5 -31.5t-77 31.5t-31 77.5z" />
<glyph unicode="&#x130;" horiz-adv-x="522" d="M152 1579q0 46 31.5 78.5t76.5 32.5q46 0 78.5 -32.5t32.5 -78.5t-32.5 -77.5t-78.5 -31.5t-77 31.5t-31 77.5zM174 0v1341h174v-1341h-174z" />
<glyph unicode="&#x131;" horiz-adv-x="526" d="M180 0v954h164v-954h-164z" />
<glyph unicode="&#x132;" horiz-adv-x="1062" d="M174 0v1341h174v-1341h-174zM418 -215q79 -70 196 -70q52 0 99 16t87.5 49.5t64.5 93t24 138.5v1329h-174v-1292q0 -104 -37.5 -158.5t-110.5 -54.5q-41 0 -108 23z" />
<glyph unicode="&#x133;" horiz-adv-x="1005" d="M154 1264q0 46 31 78t77 32t78.5 -32t32.5 -78t-32.5 -77.5t-78.5 -31.5t-77 31.5t-31 77.5zM180 0v954h164v-954h-164zM383 -459q78 -69 197 -69q52 0 97 16t83.5 49.5t61 93t22.5 138.5v1185h-164v-1149q0 -104 -37.5 -158.5t-110.5 -54.5q-41 0 -108 23zM653 1264 q0 46 31.5 78t77.5 32t78 -32t32 -78t-32 -77.5t-78 -31.5t-77.5 31.5t-31.5 77.5z" />
<glyph unicode="&#x134;" horiz-adv-x="569" d="M-66 -215q79 -70 197 -70q52 0 99 16t87.5 49.5t64.5 93t24 138.5v1329h-175v-1292q0 -104 -37 -158.5t-110 -54.5q-42 0 -109 23zM-12 1483l288 293h70l289 -293l-53 -60l-271 205l-270 -205z" />
<glyph unicode="&#x135;" horiz-adv-x="520" d="M-102 -459l41 74q67 -23 108 -23q73 0 110.5 54.5t37.5 158.5v1149h163v-1185q0 -79 -22.5 -138.5t-61 -93t-83.5 -49.5t-97 -16q-118 0 -196 69zM16 1149l228 348h71l228 -348l-66 -43l-198 219l-197 -219z" />
<glyph unicode="&#x136;" horiz-adv-x="1212" d="M174 0v1341h174v-587h152l432 587h196l-471 -639l525 -702h-217l-437 602h-180v-602h-174zM477 -170h174l-94 -369h-80v369z" />
<glyph unicode="&#x137;" horiz-adv-x="997" d="M154 0v1509h163v-948h103l328 393h198l-368 -430l368 -524h-194l-295 420h-140v-420h-163zM385 -170h174l-94 -369h-80v369z" />
<glyph unicode="&#x138;" horiz-adv-x="997" d="M154 0v954h163v-393h103l328 393h198l-368 -430l368 -524h-194l-295 420h-140v-420h-163z" />
<glyph unicode="&#x139;" horiz-adv-x="1021" d="M92 1483l328 293l110 -125l-385 -228zM174 0v1341h174v-1189h623v-152h-797z" />
<glyph unicode="&#x13a;" horiz-adv-x="471" d="M84 1647l328 292l110 -124l-385 -228zM154 0v1509h163v-1509h-163z" />
<glyph unicode="&#x13b;" horiz-adv-x="1021" d="M174 0v1341h174v-1189h623v-152h-797zM459 -170h174l-94 -369h-80v369z" />
<glyph unicode="&#x13c;" horiz-adv-x="471" d="M154 0v1509h163v-1509h-163zM154 -170h174l-95 -369h-79v369z" />
<glyph unicode="&#x13d;" horiz-adv-x="1021" d="M174 0v1341h174v-1189h623v-152h-797zM498 1112v397h180l-100 -397h-80z" />
<glyph unicode="&#x13e;" horiz-adv-x="491" d="M154 0v1509h163v-1509h-163zM461 1112v397h170l-90 -397h-80z" />
<glyph unicode="&#x13f;" horiz-adv-x="1021" d="M174 0v1341h174v-1189h623v-152h-797zM528 733q0 43 33 77t76 34t77 -34t34 -77q0 -42 -34 -75t-77 -33t-76 32.5t-33 75.5z" />
<glyph unicode="&#x140;" horiz-adv-x="661" d="M154 0v1509h163v-1509h-163zM432 733q0 43 33 77t76 34t76.5 -34t33.5 -77t-33.5 -75.5t-76.5 -32.5t-76 32.5t-33 75.5z" />
<glyph unicode="&#x141;" horiz-adv-x="1032" d="M31 483v131l143 84v643h174v-540l346 205v-134l-346 -202v-518h623v-152h-797v567z" />
<glyph unicode="&#x142;" horiz-adv-x="593" d="M72 483v131l143 113v782h164v-651l184 148v-134l-184 -145v-727h-164v596z" />
<glyph unicode="&#x143;" horiz-adv-x="1400" d="M174 0v1341h244l641 -1050v1050h168v-1341h-174l-711 1163v-1163h-168zM532 1483l328 293l111 -125l-385 -228z" />
<glyph unicode="&#x144;" horiz-adv-x="1101" d="M154 0v954h90l51 -112q77 68 171.5 106.5t190.5 38.5q138 0 216.5 -79.5t78.5 -248.5v-659h-164v600q0 122 -43.5 182t-164.5 60q-65 0 -146 -40t-117 -83v-719h-163zM412 1149l227 348l143 -92l-305 -299z" />
<glyph unicode="&#x145;" horiz-adv-x="1400" d="M174 0v1341h244l641 -1050v1050h168v-1341h-174l-711 1163v-1163h-168zM608 -170h174l-94 -369h-80v369z" />
<glyph unicode="&#x146;" horiz-adv-x="1101" d="M154 0v954h90l51 -112q77 68 171.5 106.5t190.5 38.5q138 0 216.5 -79.5t78.5 -248.5v-659h-164v600q0 122 -43.5 182t-164.5 60q-65 0 -146 -40t-117 -83v-719h-163zM471 -170h174l-94 -369h-80v369z" />
<glyph unicode="&#x147;" horiz-adv-x="1400" d="M174 0v1341h244l641 -1050v1050h168v-1341h-174l-711 1163v-1163h-168zM393 1716l53 60l271 -205l270 205l53 -60l-288 -293h-70z" />
<glyph unicode="&#x148;" horiz-adv-x="1101" d="M154 0v954h90l51 -112q77 68 171.5 106.5t190.5 38.5q138 0 216.5 -79.5t78.5 -248.5v-659h-164v600q0 122 -43.5 182t-164.5 60q-65 0 -146 -40t-117 -83v-719h-163zM281 1454l65 43l197 -219l198 219l66 -43l-227 -348h-72z" />
<glyph unicode="&#x149;" horiz-adv-x="1173" d="M10 1020v489h197l-117 -489h-80zM225 0v954h90l52 -112q77 68 171.5 106.5t190.5 38.5q138 0 216.5 -79.5t78.5 -248.5v-659h-164v600q0 121 -44 181.5t-165 60.5q-65 0 -145 -40t-117 -83v-719h-164z" />
<glyph unicode="&#x14a;" horiz-adv-x="1400" d="M174 0v1341h244l641 -1050v1050h168v-1572q0 -64 -15.5 -115t-41.5 -84.5t-61 -56t-72.5 -32t-78.5 -9.5q-118 0 -196 69l41 74q67 -23 108 -23q73 0 110.5 54.5t37.5 158.5v189l-717 1169v-1163h-168z" />
<glyph unicode="&#x14b;" horiz-adv-x="1101" d="M154 0v954h90l51 -112q77 68 171.5 106.5t190.5 38.5q138 0 216.5 -79.5t78.5 -248.5v-890q0 -79 -22.5 -138.5t-61 -93t-83.5 -49.5t-97 -16q-118 0 -196 69l40 74q67 -23 109 -23q73 0 110 54.5t37 158.5v795q0 122 -43.5 182t-164.5 60q-65 0 -146 -40t-117 -83v-719 h-163z" />
<glyph unicode="&#x14c;" horiz-adv-x="1443" d="M98 672q0 110 23 210t74 190.5t125 157t184.5 105.5t245.5 39q122 0 223 -41.5t169 -110t115 -160.5t68 -190.5t21 -201.5q0 -110 -23 -210t-74 -191t-125 -157.5t-184.5 -105.5t-245.5 -39q-122 0 -223 41.5t-169 110.5t-115 161t-68 190.5t-21 201.5zM279 717 q0 -104 15 -191.5t49.5 -163.5t87.5 -128.5t133 -82.5t181 -30q95 0 175.5 42.5t133 113t82 161t29.5 187.5q0 131 -25 235.5t-78 186.5t-145.5 127t-218.5 45t-223.5 -72.5t-146.5 -185.5t-49 -244zM416 1509v121h612v-121h-612z" />
<glyph unicode="&#x14d;" horiz-adv-x="1089" d="M92 469q0 240 130 379t345 139q99 0 181 -40.5t136 -109.5t83.5 -159.5t29.5 -192.5q0 -240 -130 -379t-345 -139q-99 0 -181 40.5t-136 109.5t-83.5 159.5t-29.5 192.5zM258 1221v120h571v-120h-571zM262 504q0 -77 16.5 -146t50 -127.5t92.5 -93.5t136 -35q86 0 149 53 t92 130.5t29 165.5q0 77 -16.5 145.5t-50 127.5t-92.5 93.5t-136 34.5q-86 0 -149 -53t-92 -130t-29 -165z" />
<glyph unicode="&#x14e;" horiz-adv-x="1443" d="M98 672q0 110 23 210t74 190.5t125 157t184.5 105.5t245.5 39q122 0 223 -41.5t169 -110t115 -160.5t68 -190.5t21 -201.5q0 -110 -23 -210t-74 -191t-125 -157.5t-184.5 -105.5t-245.5 -39q-122 0 -223 41.5t-169 110.5t-115 161t-68 190.5t-21 201.5zM279 717 q0 -104 15 -191.5t49.5 -163.5t87.5 -128.5t133 -82.5t181 -30q95 0 175.5 42.5t133 113t82 161t29.5 187.5q0 131 -25 235.5t-78 186.5t-145.5 127t-218.5 45t-223.5 -72.5t-146.5 -185.5t-49 -244zM451 1696h90q13 -64 59 -104t121 -40t121 40t59 104h90 q0 -107 -77.5 -190t-192.5 -83t-192.5 83t-77.5 190z" />
<glyph unicode="&#x14f;" horiz-adv-x="1089" d="M92 469q0 240 130 379t345 139q99 0 181 -40.5t136 -109.5t83.5 -159.5t29.5 -192.5q0 -240 -130 -379t-345 -139q-99 0 -181 40.5t-136 109.5t-83.5 159.5t-29.5 192.5zM262 504q0 -77 16.5 -146t50 -127.5t92.5 -93.5t136 -35q86 0 149 53t92 130.5t29 165.5 q0 77 -16.5 145.5t-50 127.5t-92.5 93.5t-136 34.5q-86 0 -149 -53t-92 -130t-29 -165zM285 1413h90q12 -75 56 -116.5t114 -41.5t114 41.5t56 116.5h90q0 -115 -73 -201t-187 -86q-80 0 -141 44t-90 108t-29 135z" />
<glyph unicode="&#x150;" horiz-adv-x="1443" d="M98 672q0 110 23 210t74 190.5t125 157t184.5 105.5t245.5 39q122 0 223 -41.5t169 -110t115 -160.5t68 -190.5t21 -201.5q0 -110 -23 -210t-74 -191t-125 -157.5t-184.5 -105.5t-245.5 -39q-122 0 -223 41.5t-169 110.5t-115 161t-68 190.5t-21 201.5zM279 717 q0 -104 15 -191.5t49.5 -163.5t87.5 -128.5t133 -82.5t181 -30q95 0 175.5 42.5t133 113t82 161t29.5 187.5q0 131 -25 235.5t-78 186.5t-145.5 127t-218.5 45t-223.5 -72.5t-146.5 -185.5t-49 -244zM330 1483l327 293l111 -125l-385 -228zM705 1483l327 293l111 -125 l-385 -228z" />
<glyph unicode="&#x151;" horiz-adv-x="1089" d="M92 469q0 240 130 379t345 139q99 0 181 -40.5t136 -109.5t83.5 -159.5t29.5 -192.5q0 -240 -130 -379t-345 -139q-99 0 -181 40.5t-136 109.5t-83.5 159.5t-29.5 192.5zM238 1149l227 348l143 -92l-305 -299zM262 504q0 -77 16.5 -146t50 -127.5t92.5 -93.5t136 -35 q86 0 149 53t92 130.5t29 165.5q0 77 -16.5 145.5t-50 127.5t-92.5 93.5t-136 34.5q-86 0 -149 -53t-92 -130t-29 -165zM561 1149l227 348l144 -92l-305 -299z" />
<glyph unicode="&#x152;" horiz-adv-x="1910" d="M98 672q0 110 23 210t74 190.5t125 157t184.5 105.5t245.5 39q91 0 192 -33h834v-151h-639v-436h499v-152h-499v-450h682v-152h-908q-101 -33 -219 -33q-121 0 -222 43.5t-168.5 115t-114.5 164.5t-68 189.5t-21 192.5zM279 717q0 -127 25.5 -231t79 -187.5t146 -129.5 t218.5 -46q130 0 215 53v989q-114 54 -265 54q-126 0 -223.5 -74.5t-146.5 -187.5t-49 -240z" />
<glyph unicode="&#x153;" horiz-adv-x="1757" d="M92 469q0 241 128.5 379.5t342.5 138.5q120 0 208.5 -58t141.5 -159q53 103 141.5 160t200.5 57q182 0 295.5 -115t114.5 -319l-51 -113h-621q16 -156 106.5 -243.5t258.5 -87.5q59 0 126.5 23t106.5 54l41 -73q-60 -72 -152.5 -109t-187.5 -37q-136 0 -231.5 59.5 t-147.5 161.5q-56 -107 -154.5 -164t-232.5 -57q-99 0 -181.5 40.5t-137 109.5t-85 160t-30.5 192zM262 504q0 -76 17 -145.5t51.5 -128t94 -93.5t136.5 -35q86 0 148 53t90 130.5t28 165.5q0 76 -17 145.5t-51.5 128t-94 93t-136.5 34.5q-86 0 -148 -53t-90 -130t-28 -165z M995 559h516q0 142 -71 217.5t-176 75.5q-118 0 -189 -82.5t-80 -210.5z" />
<glyph unicode="&#x154;" horiz-adv-x="1220" d="M174 0v1341h447q91 0 170.5 -21.5t146 -65t105 -120.5t38.5 -178q0 -167 -91 -268.5t-236 -136.5l415 -551h-208l-394 532h-219v-532h-174zM348 680h189q84 0 146 11t113.5 38.5t78 78.5t26.5 126t-26 126.5t-76 79t-110.5 39t-141.5 11.5h-199v-510zM420 1483l328 293 l110 -125l-385 -228z" />
<glyph unicode="&#x155;" horiz-adv-x="757" d="M154 0v954h90l51 -112q56 66 136.5 99.5t156.5 33.5q95 0 149 -51l-35 -133q-85 30 -151 30q-145 0 -234 -102v-719h-163zM260 1149l227 348l144 -92l-305 -299z" />
<glyph unicode="&#x156;" horiz-adv-x="1220" d="M174 0v1341h447q91 0 170.5 -21.5t146 -65t105 -120.5t38.5 -178q0 -167 -91 -268.5t-236 -136.5l415 -551h-208l-394 532h-219v-532h-174zM348 680h189q84 0 146 11t113.5 38.5t78 78.5t26.5 126t-26 126.5t-76 79t-110.5 39t-141.5 11.5h-199v-510zM477 -170h174 l-94 -369h-80v369z" />
<glyph unicode="&#x157;" horiz-adv-x="757" d="M154 0v954h90l51 -112q56 66 136.5 99.5t156.5 33.5q95 0 149 -51l-35 -133q-85 30 -151 30q-145 0 -234 -102v-719h-163zM154 -170h174l-95 -369h-79v369z" />
<glyph unicode="&#x158;" horiz-adv-x="1220" d="M174 0v1341h447q91 0 170.5 -21.5t146 -65t105 -120.5t38.5 -178q0 -167 -91 -268.5t-236 -136.5l415 -551h-208l-394 532h-219v-532h-174zM270 1716l54 60l270 -205l270 205l54 -60l-289 -293h-70zM348 680h189q84 0 146 11t113.5 38.5t78 78.5t26.5 126t-26 126.5 t-76 79t-110.5 39t-141.5 11.5h-199v-510z" />
<glyph unicode="&#x159;" horiz-adv-x="757" d="M154 0v954h90l51 -112q56 66 136.5 99.5t156.5 33.5q95 0 149 -51l-35 -133q-85 30 -151 30q-145 0 -234 -102v-719h-163zM164 1454l65 43l197 -219l199 219l65 -43l-227 -348h-72z" />
<glyph unicode="&#x15a;" horiz-adv-x="1067" d="M84 137l59 107q69 -53 166.5 -87t194.5 -34q51 0 99.5 11t93 34t71.5 65t27 97q0 53 -29.5 97.5t-77.5 75t-109.5 62t-125.5 58t-125.5 63.5t-109.5 78t-77.5 103t-29.5 137q0 118 58.5 203t156 126t221.5 41q112 0 220.5 -40t168.5 -89l-35 -135q-83 53 -177.5 81 t-180.5 28q-108 0 -180 -54.5t-72 -150.5q0 -43 23.5 -80t63 -65t91 -54t108 -51t113 -52.5t108 -62t91 -75t63 -96.5t23.5 -122q0 -85 -28 -153.5t-72.5 -111.5t-103.5 -71.5t-118.5 -40.5t-120.5 -12q-269 0 -448 170zM317 1483l328 293l111 -125l-385 -228z" />
<glyph unicode="&#x15b;" horiz-adv-x="892" d="M92 104l51 93q51 -45 127.5 -70t141.5 -25q99 0 161 37t62 105q0 34 -22.5 63.5t-59 49.5t-83 42t-95.5 40.5t-95.5 45.5t-83 56.5t-59 74t-22.5 97.5q0 124 93.5 199t240.5 75q85 0 169 -31.5t138 -78.5l-31 -119q-137 94 -270 94q-85 0 -133 -32.5t-48 -94.5 q0 -37 29 -66.5t75 -51.5t101.5 -44t111.5 -48.5t102 -59.5t75 -83.5t29 -113.5q0 -128 -94 -209.5t-269 -81.5q-93 0 -188.5 36.5t-153.5 100.5zM293 1149l227 348l144 -92l-306 -299z" />
<glyph unicode="&#x15c;" horiz-adv-x="1067" d="M84 137l59 107q69 -53 166.5 -87t194.5 -34q51 0 99.5 11t93 34t71.5 65t27 97q0 53 -29.5 97.5t-77.5 75t-109.5 62t-125.5 58t-125.5 63.5t-109.5 78t-77.5 103t-29.5 137q0 118 58.5 203t156 126t221.5 41q112 0 220.5 -40t168.5 -89l-35 -135q-83 53 -177.5 81 t-180.5 28q-108 0 -180 -54.5t-72 -150.5q0 -43 23.5 -80t63 -65t91 -54t108 -51t113 -52.5t108 -62t91 -75t63 -96.5t23.5 -122q0 -85 -28 -153.5t-72.5 -111.5t-103.5 -71.5t-118.5 -40.5t-120.5 -12q-269 0 -448 170zM209 1483l289 293h69l289 -293l-53 -60l-271 205 l-270 -205z" />
<glyph unicode="&#x15d;" horiz-adv-x="892" d="M92 104l51 93q51 -45 127.5 -70t141.5 -25q99 0 161 37t62 105q0 34 -22.5 63.5t-59 49.5t-83 42t-95.5 40.5t-95.5 45.5t-83 56.5t-59 74t-22.5 97.5q0 124 93.5 199t240.5 75q85 0 169 -31.5t138 -78.5l-31 -119q-137 94 -270 94q-85 0 -133 -32.5t-48 -94.5 q0 -37 29 -66.5t75 -51.5t101.5 -44t111.5 -48.5t102 -59.5t75 -83.5t29 -113.5q0 -128 -94 -209.5t-269 -81.5q-93 0 -188.5 36.5t-153.5 100.5zM178 1149l228 348h71l228 -348l-66 -43l-199 219l-196 -219z" />
<glyph unicode="&#x15e;" horiz-adv-x="1067" d="M84 137l59 107q69 -53 166.5 -87t194.5 -34q51 0 99.5 11t93 34t71.5 65t27 97q0 53 -29.5 97.5t-77.5 75t-109.5 62t-125.5 58t-125.5 63.5t-109.5 78t-77.5 103t-29.5 137q0 118 58.5 203t156 126t221.5 41q112 0 220.5 -40t168.5 -89l-35 -135q-83 53 -177.5 81 t-180.5 28q-108 0 -180 -54.5t-72 -150.5q0 -43 23.5 -80t63 -65t91 -54t108 -51t113 -52.5t108 -62t91 -75t63 -96.5t23.5 -122q0 -80 -24.5 -145t-64.5 -107.5t-94 -72.5t-109 -44t-114 -18l-20 -127q83 -13 125.5 -52t42.5 -91q0 -72 -75.5 -136t-203.5 -85l-41 73 q69 15 117.5 56t48.5 80q0 29 -33 49t-102 24l35 211q-226 19 -379 166z" />
<glyph unicode="&#x15f;" horiz-adv-x="892" d="M92 104l51 93q51 -45 127.5 -70t141.5 -25q99 0 161 37t62 105q0 34 -22.5 63.5t-59 49.5t-83 42t-95.5 40.5t-95.5 45.5t-83 56.5t-59 74t-22.5 97.5q0 124 93.5 199t240.5 75q85 0 169 -31.5t138 -78.5l-31 -119q-137 94 -270 94q-85 0 -133 -32.5t-48 -94.5 q0 -37 29 -66.5t75 -51.5t101.5 -44t111.5 -48.5t102 -59.5t75 -83.5t29 -113.5q0 -118 -82.5 -197.5t-235.5 -91.5l-20 -127q83 -13 125.5 -52t42.5 -91q0 -72 -75.5 -136t-203.5 -85l-41 73q69 15 117.5 56t48.5 80q0 29 -33 49t-102 24l35 211q-82 11 -158 45.5 t-123 87.5z" />
<glyph unicode="&#x160;" horiz-adv-x="1067" d="M84 137l59 107q69 -53 166.5 -87t194.5 -34q51 0 99.5 11t93 34t71.5 65t27 97q0 53 -29.5 97.5t-77.5 75t-109.5 62t-125.5 58t-125.5 63.5t-109.5 78t-77.5 103t-29.5 137q0 118 58.5 203t156 126t221.5 41q112 0 220.5 -40t168.5 -89l-35 -135q-83 53 -177.5 81 t-180.5 28q-108 0 -180 -54.5t-72 -150.5q0 -43 23.5 -80t63 -65t91 -54t108 -51t113 -52.5t108 -62t91 -75t63 -96.5t23.5 -122q0 -85 -28 -153.5t-72.5 -111.5t-103.5 -71.5t-118.5 -40.5t-120.5 -12q-269 0 -448 170zM209 1716l53 60l270 -205l271 205l53 -60l-289 -293 h-69z" />
<glyph unicode="&#x161;" horiz-adv-x="892" d="M92 104l51 93q51 -45 127.5 -70t141.5 -25q99 0 161 37t62 105q0 34 -22.5 63.5t-59 49.5t-83 42t-95.5 40.5t-95.5 45.5t-83 56.5t-59 74t-22.5 97.5q0 124 93.5 199t240.5 75q85 0 169 -31.5t138 -78.5l-31 -119q-137 94 -270 94q-85 0 -133 -32.5t-48 -94.5 q0 -37 29 -66.5t75 -51.5t101.5 -44t111.5 -48.5t102 -59.5t75 -83.5t29 -113.5q0 -128 -94 -209.5t-269 -81.5q-93 0 -188.5 36.5t-153.5 100.5zM164 1454l65 43l197 -219l199 219l65 -43l-227 -348h-72z" />
<glyph unicode="&#x162;" horiz-adv-x="1136" d="M31 1190v151h1075v-151h-451v-1190h-174v1190h-450zM481 -170h174l-94 -369h-80v369z" />
<glyph unicode="&#x163;" horiz-adv-x="770" d="M41 813v90l164 41l74 254h81v-244h338v-141h-338v-502q0 -108 41.5 -158.5t128.5 -50.5q62 0 127 25l41 -74q-35 -34 -97.5 -55t-127.5 -21q-138 0 -207 72t-69 225v539h-156zM293 -170h174l-94 -369h-80v369z" />
<glyph unicode="&#x164;" horiz-adv-x="1136" d="M31 1190v151h1075v-151h-451v-1190h-174v1190h-450zM250 1716l53 60l270 -205l271 205l53 -60l-289 -293h-69z" />
<glyph unicode="&#x165;" horiz-adv-x="770" d="M41 813v90l164 41l74 254h81v-244h338v-141h-338v-502q0 -108 41.5 -158.5t128.5 -50.5q62 0 127 25l41 -74q-35 -34 -97.5 -55t-127.5 -21q-138 0 -207 72t-69 225v539h-156zM502 1112v397h168l-90 -397h-78z" />
<glyph unicode="&#x166;" horiz-adv-x="1136" d="M31 1190v151h1075v-151h-451v-455h308v-121h-308v-614h-174v614h-309v121h309v455h-450z" />
<glyph unicode="&#x167;" horiz-adv-x="770" d="M41 813v90l164 41l74 254h81v-244h338v-141h-338v-235h254v-101h-254v-166q0 -108 41.5 -158.5t128.5 -50.5q62 0 127 25l41 -74q-35 -34 -97.5 -55t-127.5 -21q-138 0 -207 72t-69 225v203h-131v101h131v235h-156z" />
<glyph unicode="&#x168;" horiz-adv-x="1355" d="M154 502v839h174v-845q0 -174 92.5 -273.5t257.5 -99.5t257.5 99.5t92.5 273.5v845h174v-839q0 -242 -135.5 -388.5t-388.5 -146.5t-388.5 146.5t-135.5 388.5zM377 1462l102 156q3 6 10.5 15.5t36 25.5t64.5 16q37 0 114 -40t113 -40q29 0 60 29t86 96l65 -43l-100 -155 q-1 -2 -3.5 -6t-12.5 -14t-21.5 -17.5t-31.5 -14t-42 -6.5q-37 0 -114 40t-113 40q-29 0 -61 -29.5t-87 -95.5z" />
<glyph unicode="&#x169;" horiz-adv-x="1099" d="M147 295v659h164v-600q0 -121 44 -181t165 -60q65 0 145 40t117 83v718h164v-954h-90l-51 113q-78 -68 -173 -107t-190 -39q-138 0 -216.5 79.5t-78.5 248.5zM242 1149l110 170q4 7 12.5 17.5t37 28t61.5 17.5q37 0 90.5 -26.5t89.5 -26.5q29 0 67 35t97 104l65 -43 l-110 -170q-4 -7 -12.5 -17.5t-37 -28t-61.5 -17.5q-37 0 -90.5 26.5t-89.5 26.5q-29 0 -67 -35t-97 -104z" />
<glyph unicode="&#x16a;" horiz-adv-x="1355" d="M154 502v839h174v-845q0 -174 92.5 -273.5t257.5 -99.5t257.5 99.5t92.5 273.5v845h174v-839q0 -242 -135.5 -388.5t-388.5 -146.5t-388.5 146.5t-135.5 388.5zM379 1509v121h612v-121h-612z" />
<glyph unicode="&#x16b;" horiz-adv-x="1099" d="M147 295v659h164v-600q0 -121 44 -181t165 -60q65 0 145 40t117 83v718h164v-954h-90l-51 113q-78 -68 -173 -107t-190 -39q-138 0 -216.5 79.5t-78.5 248.5zM262 1221v120h572v-120h-572z" />
<glyph unicode="&#x16c;" horiz-adv-x="1355" d="M154 502v839h174v-845q0 -174 92.5 -273.5t257.5 -99.5t257.5 99.5t92.5 273.5v845h174v-839q0 -242 -135.5 -388.5t-388.5 -146.5t-388.5 146.5t-135.5 388.5zM414 1696h90q13 -64 59 -104t121 -40t121 40t59 104h90q0 -107 -77.5 -190t-192.5 -83t-192.5 83t-77.5 190z " />
<glyph unicode="&#x16d;" horiz-adv-x="1099" d="M147 295v659h164v-600q0 -121 44 -181t165 -60q65 0 145 40t117 83v718h164v-954h-90l-51 113q-78 -68 -173 -107t-190 -39q-138 0 -216.5 79.5t-78.5 248.5zM295 1413h90q12 -75 56 -116.5t114 -41.5t114 41.5t56 116.5h90q0 -115 -73 -201t-187 -86q-80 0 -141 44 t-90 108t-29 135z" />
<glyph unicode="&#x16e;" horiz-adv-x="1355" d="M154 502v839h174v-845q0 -174 92.5 -273.5t257.5 -99.5t257.5 99.5t92.5 273.5v845h174v-839q0 -242 -135.5 -388.5t-388.5 -146.5t-388.5 146.5t-135.5 388.5zM473 1513q0 85 59.5 140t145.5 55t145.5 -55t59.5 -140q0 -86 -59.5 -141t-145.5 -55t-145.5 55t-59.5 141z M565 1513q0 -53 31 -85.5t82 -32.5q52 0 81 32.5t29 85.5q0 52 -29.5 84.5t-80.5 32.5t-82 -33t-31 -84z" />
<glyph unicode="&#x16f;" horiz-adv-x="1099" d="M147 295v659h164v-600q0 -121 44 -181t165 -60q65 0 145 40t117 83v718h164v-954h-90l-51 113q-78 -68 -173 -107t-190 -39q-138 0 -216.5 79.5t-78.5 248.5zM346 1276q0 85 59.5 139.5t145.5 54.5t145.5 -54.5t59.5 -139.5q0 -86 -59.5 -141.5t-145.5 -55.5t-145.5 55.5 t-59.5 141.5zM438 1276q0 -53 31 -86t82 -33q52 0 81.5 33t29.5 86q0 52 -29.5 84.5t-81.5 32.5q-51 0 -82 -33t-31 -84z" />
<glyph unicode="&#x170;" horiz-adv-x="1355" d="M154 502v839h174v-845q0 -174 92.5 -273.5t257.5 -99.5t257.5 99.5t92.5 273.5v845h174v-839q0 -242 -135.5 -388.5t-388.5 -146.5t-388.5 146.5t-135.5 388.5zM303 1483l328 293l110 -125l-385 -228zM678 1483l328 293l110 -125l-385 -228z" />
<glyph unicode="&#x171;" horiz-adv-x="1128" d="M147 295v659h164v-600q0 -121 44 -181t165 -60q65 0 145 40t117 83v718h164v-954h-90l-51 113q-78 -68 -173 -107t-190 -39q-138 0 -216.5 79.5t-78.5 248.5zM281 1149l227 348l143 -92l-305 -299zM604 1149l227 348l144 -92l-305 -299z" />
<glyph unicode="&#x172;" horiz-adv-x="1355" d="M154 502v839h174v-845q0 -174 92.5 -273.5t257.5 -99.5t257.5 99.5t92.5 273.5v845h174v-839q0 -186 -81.5 -318.5t-237.5 -185.5q-88 -44 -150.5 -122t-62.5 -163q0 -59 35.5 -87.5t87.5 -28.5q48 0 94 22l41 -74q-79 -67 -195 -67q-91 0 -153 49.5t-62 146.5 q0 76 45 152.5t129 140.5h-14q-253 0 -388.5 146.5t-135.5 388.5z" />
<glyph unicode="&#x173;" horiz-adv-x="1099" d="M147 295v659h164v-600q0 -121 44 -181t165 -60q65 0 145 40t117 83v718h164v-954q-89 -45 -153 -124t-64 -163q0 -59 35.5 -87.5t87.5 -28.5q48 0 94 22l41 -74q-79 -67 -194 -67q-91 0 -153 49.5t-62 146.5q0 95 70 190t196 163l-39 86q-78 -68 -173 -107t-190 -39 q-138 0 -216.5 79.5t-78.5 248.5z" />
<glyph unicode="&#x174;" horiz-adv-x="2088" d="M31 1341h192l371 -1134l346 1134h215l354 -1134l363 1134h186l-463 -1341h-186l-367 1124l-362 -1124h-186zM721 1483l289 293h69l289 -293l-53 -60l-271 205l-270 -205z" />
<glyph unicode="&#x175;" horiz-adv-x="1579" d="M31 954h180l244 -764l252 764h172l258 -764l237 764h174l-344 -954h-145l-273 776l-266 -776h-145zM530 1149l228 348h71l228 -348l-66 -43l-198 219l-197 -219z" />
<glyph unicode="&#x176;" horiz-adv-x="1212" d="M31 1341l487 -774v-567h174v569l490 772h-187l-385 -634l-385 634h-194zM287 1483l288 293h70l289 -293l-53 -60l-271 205l-270 -205z" />
<glyph unicode="&#x177;" horiz-adv-x="987" d="M41 954h180l285 -764l276 764h174l-585 -1456h-170l221 512zM238 1149l227 348h72l227 -348l-66 -43l-198 219l-197 -219z" />
<glyph unicode="&#x178;" horiz-adv-x="1212" d="M31 1341l487 -774v-567h174v569l490 772h-187l-385 -634l-385 634h-194zM279 1579q0 46 31.5 78.5t76.5 32.5q46 0 78.5 -32.5t32.5 -78.5t-32.5 -77.5t-78.5 -31.5t-77 31.5t-31 77.5zM715 1579q0 46 31.5 78.5t76.5 32.5q46 0 78.5 -32.5t32.5 -78.5t-32.5 -77.5 t-78.5 -31.5t-77 31.5t-31 77.5z" />
<glyph unicode="&#x179;" horiz-adv-x="1124" d="M92 0v158l713 1032h-690v151h893v-153l-717 -1036h741v-152h-940zM336 1483l328 293l110 -125l-385 -228z" />
<glyph unicode="&#x17a;" horiz-adv-x="937" d="M98 0v145l533 668h-522v141h714v-141l-526 -672h539v-141h-738zM307 1149l228 348l143 -92l-305 -299z" />
<glyph unicode="&#x17b;" horiz-adv-x="1124" d="M92 0v158l713 1032h-690v151h893v-153l-717 -1036h741v-152h-940zM463 1579q0 46 31.5 78.5t76.5 32.5q46 0 78.5 -32.5t32.5 -78.5t-32.5 -77.5t-78.5 -31.5t-77 31.5t-31 77.5z" />
<glyph unicode="&#x17c;" horiz-adv-x="937" d="M98 0v145l533 668h-522v141h714v-141l-526 -672h539v-141h-738zM362 1264q0 43 33 76.5t76 33.5t77 -33.5t34 -76.5t-34 -76t-77 -33t-76 33t-33 76z" />
<glyph unicode="&#x17d;" horiz-adv-x="1124" d="M92 0v158l713 1032h-690v151h893v-153l-717 -1036h741v-152h-940zM248 1716l53 60l270 -205l271 205l53 -60l-289 -293h-69z" />
<glyph unicode="&#x17e;" horiz-adv-x="937" d="M98 0v145l533 668h-522v141h714v-141l-526 -672h539v-141h-738zM211 1454l65 43l197 -219l199 219l65 -43l-227 -348h-72z" />
<glyph unicode="&#x17f;" horiz-adv-x="593" d="M51 813v90l156 39v184q0 191 92.5 303.5t261.5 112.5q154 0 248 -67l-31 -119q-95 45 -196 45q-107 0 -159 -73t-52 -234v-1094h-164v813h-156z" />
<glyph unicode="&#x192;" horiz-adv-x="1003" d="M-297 -449l41 74q91 -33 190 -33q128 0 197 77t92 241l99 706h-193v142h213l27 190q28 197 135.5 311.5t294.5 114.5q62 0 132.5 -19.5t123.5 -54.5l-31 -120q-135 49 -246 49q-63 0 -108.5 -21.5t-73 -65t-43 -94t-25.5 -122.5l-24 -168h311v-142h-330l-102 -729 q-28 -197 -135 -311.5t-293 -114.5q-73 0 -145.5 26.5t-106.5 63.5z" />
<glyph unicode="&#x1fc;" horiz-adv-x="1705" d="M10 0l703 1341h848v-151h-639v-436h499v-152h-499v-450h682v-152h-856v348h-373l-172 -348h-193zM451 500h297v596zM707 1483l327 293l111 -125l-385 -228z" />
<glyph unicode="&#x1fd;" horiz-adv-x="1609" d="M96 250q0 74 30 130.5t75.5 88.5t109.5 52.5t122.5 27t123.5 6.5h139v41q0 129 -55 187.5t-178 58.5q-71 0 -152 -26.5t-129 -57.5l-30 119q71 50 165.5 80t174.5 30q235 0 307 -160q116 160 309 160q182 0 295.5 -115t114.5 -319l-52 -113h-620q16 -157 106 -244 t258 -87q59 0 127 23t107 54l41 -73q-60 -72 -152.5 -109t-187.5 -37q-129 0 -222 54.5t-147 148.5q-102 -203 -375 -203q-136 0 -220.5 76.5t-84.5 206.5zM262 268q0 -73 50.5 -119.5t144.5 -46.5q79 0 146 36t93 85v217h-104q-330 0 -330 -172zM688 1149l227 348l144 -92 l-305 -299zM848 559h516q0 142 -71.5 217.5t-176.5 75.5q-118 0 -188.5 -82.5t-79.5 -210.5z" />
<glyph unicode="&#x1fe;" horiz-adv-x="1443" d="M98 672q0 110 23 210t74 190.5t125 157t184.5 105.5t245.5 39q187 0 325 -98l80 115l94 -66l-88 -125q92 -100 138.5 -240.5t46.5 -289.5q0 -110 -23 -210t-74 -191t-125 -157.5t-184.5 -105.5t-245.5 -39q-189 0 -329 99l-78 -113l-94 65l88 125q-91 99 -137 239 t-46 290zM279 717q0 -277 104 -426l594 846q-113 82 -279 82q-126 0 -223.5 -72.5t-146.5 -185.5t-49 -244zM463 205q111 -84 282 -84q95 0 175.5 42.5t133 113t82 161t29.5 187.5q0 277 -108 428zM508 1483l328 293l110 -125l-385 -228z" />
<glyph unicode="&#x1ff;" horiz-adv-x="1089" d="M92 469q0 240 130 379t345 139q137 0 242 -78l63 92l78 -53l-73 -104q120 -142 120 -359q0 -240 -130 -379t-345 -139q-118 0 -217 60l-55 -80l-78 53l59 86q-67 70 -103 169.5t-36 213.5zM262 504q0 -167 68 -277l387 551q-74 74 -185 74q-86 0 -149 -53t-92 -130 t-29 -165zM395 154q65 -52 162 -52q86 0 149 53t92 130.5t29 165.5q0 141 -53 247zM399 1149l228 348l143 -92l-305 -299z" />
<glyph unicode="&#x218;" horiz-adv-x="1067" d="M84 137l59 107q69 -53 166.5 -87t194.5 -34q51 0 99.5 11t93 34t71.5 65t27 97q0 53 -29.5 97.5t-77.5 75t-109.5 62t-125.5 58t-125.5 63.5t-109.5 78t-77.5 103t-29.5 137q0 118 58.5 203t156 126t221.5 41q112 0 220.5 -40t168.5 -89l-35 -135q-83 53 -177.5 81 t-180.5 28q-108 0 -180 -54.5t-72 -150.5q0 -43 23.5 -80t63 -65t91 -54t108 -51t113 -52.5t108 -62t91 -75t63 -96.5t23.5 -122q0 -85 -28 -153.5t-72.5 -111.5t-103.5 -71.5t-118.5 -40.5t-120.5 -12q-269 0 -448 170zM459 -170h174l-94 -369h-80v369z" />
<glyph unicode="&#x219;" horiz-adv-x="892" d="M92 104l51 93q51 -45 127.5 -70t141.5 -25q99 0 161 37t62 105q0 34 -22.5 63.5t-59 49.5t-83 42t-95.5 40.5t-95.5 45.5t-83 56.5t-59 74t-22.5 97.5q0 124 93.5 199t240.5 75q85 0 169 -31.5t138 -78.5l-31 -119q-137 94 -270 94q-85 0 -133 -32.5t-48 -94.5 q0 -37 29 -66.5t75 -51.5t101.5 -44t111.5 -48.5t102 -59.5t75 -83.5t29 -113.5q0 -128 -94 -209.5t-269 -81.5q-93 0 -188.5 36.5t-153.5 100.5zM362 -170h175l-95 -369h-80v369z" />
<glyph unicode="&#x21a;" horiz-adv-x="1136" d="M31 1190v151h1075v-151h-451v-1190h-174v1190h-450zM481 -170h174l-94 -369h-80v369z" />
<glyph unicode="&#x21b;" horiz-adv-x="770" d="M41 813v90l164 41l74 254h81v-244h338v-141h-338v-502q0 -108 41.5 -158.5t128.5 -50.5q62 0 127 25l41 -74q-35 -34 -97.5 -55t-127.5 -21q-138 0 -207 72t-69 225v539h-156zM293 -170h174l-94 -369h-80v369z" />
<glyph unicode="&#x237;" horiz-adv-x="512" d="M-102 -459l41 74q67 -23 108 -23q73 0 110.5 54.5t37.5 158.5v1149h163v-1185q0 -79 -22.5 -138.5t-61 -93t-83.5 -49.5t-97 -16q-118 0 -196 69z" />
<glyph unicode="&#x2b0;" horiz-adv-x="804" d="M150 649v981h124v-401q89 69 207 69q92 0 144.5 -53t52.5 -166v-430h-123v391q0 73 -26.5 109.5t-98.5 36.5q-34 0 -82 -24t-74 -50v-463h-124z" />
<glyph unicode="&#x2b2;" horiz-adv-x="446" d="M-16 369l34 59q50 -16 72 -16q84 0 84 127v739h125v-764q0 -102 -51.5 -150.5t-126.5 -48.5q-80 0 -137 54zM160 1464q0 35 22 57.5t56 22.5t56.5 -22.5t22.5 -57.5q0 -32 -22.5 -55t-56.5 -23q-33 0 -55.5 22.5t-22.5 55.5z" />
<glyph unicode="&#x2b3;" horiz-adv-x="612" d="M147 649v629h68l37 -76q37 43 87 66.5t95 23.5q66 0 107 -41l-27 -102q-70 25 -104 25q-82 0 -138 -62v-463h-125z" />
<glyph unicode="&#x2b7;" horiz-adv-x="1134" d="M68 1276h139l145 -461l154 461h125l157 -463l142 463h135l-227 -627h-109l-164 467l-162 -467h-108z" />
<glyph unicode="&#x2b8;" horiz-adv-x="743" d="M68 1278h137l174 -467l170 467h133l-381 -948h-131l143 336z" />
<glyph unicode="&#x2bc;" horiz-adv-x="368" d="M119 1020v489h196l-116 -489h-80z" />
<glyph unicode="&#x2c6;" horiz-adv-x="884" d="M180 1149l228 348h71l228 -348l-66 -43l-199 219l-196 -219z" />
<glyph unicode="&#x2c7;" horiz-adv-x="884" d="M180 1454l66 43l196 -219l199 219l66 -43l-228 -348h-71z" />
<glyph unicode="&#x2d8;" horiz-adv-x="856" d="M168 1413h90q12 -75 56 -116.5t114 -41.5t114 41.5t56 116.5h90q0 -115 -73 -201t-187 -86q-80 0 -141 44t-90 108t-29 135z" />
<glyph unicode="&#x2d9;" horiz-adv-x="727" d="M254 1264q0 43 32.5 76.5t75.5 33.5t77 -33.5t34 -76.5t-34 -76t-77 -33t-75.5 33t-32.5 76z" />
<glyph unicode="&#x2da;" horiz-adv-x="753" d="M172 1276q0 85 59.5 139.5t145.5 54.5t145.5 -54.5t59.5 -139.5q0 -86 -59.5 -141.5t-145.5 -55.5t-145.5 55.5t-59.5 141.5zM264 1276q0 -53 31 -86t82 -33q52 0 81 32.5t29 86.5q0 52 -29.5 84.5t-80.5 32.5t-82 -33t-31 -84z" />
<glyph unicode="&#x2db;" horiz-adv-x="702" d="M246 -326q0 108 90.5 214.5t247.5 172.5l30 -61q-89 -45 -153 -124t-64 -163q0 -59 35.5 -87.5t87.5 -28.5q48 0 94 22l41 -74q-79 -67 -194 -67q-91 0 -153 49.5t-62 146.5z" />
<glyph unicode="&#x2dc;" horiz-adv-x="876" d="M123 1149l110 170q4 7 12.5 17.5t37 28t61.5 17.5q37 0 90.5 -26.5t89.5 -26.5q29 0 67 35t97 104l66 -43l-111 -170q-4 -7 -12.5 -17.5t-37 -28t-61.5 -17.5q-37 0 -90.5 26.5t-89.5 26.5q-29 0 -67 -35t-97 -104z" />
<glyph unicode="&#x2dd;" horiz-adv-x="931" d="M158 1149l227 348l143 -92l-305 -299zM481 1149l228 348l143 -92l-305 -299z" />
<glyph unicode="&#x2e3;" horiz-adv-x="747" d="M59 649l238 312l-234 315h150l162 -227l160 227h149l-238 -311l242 -316h-158l-161 228l-164 -228h-146z" />
<glyph unicode="&#x326;" horiz-adv-x="727" d="M279 -170h174l-95 -369h-79v369z" />
<glyph unicode="&#x384;" horiz-adv-x="831" d="M358 1096l95 405l165 -37l-184 -387z" />
<glyph unicode="&#x385;" horiz-adv-x="917" d="M90 1264q0 46 31.5 78t77.5 32t78 -32t32 -78t-32 -77.5t-78 -31.5t-77.5 31.5t-31.5 77.5zM348 1096l94 405l166 -37l-184 -387zM608 1264q0 46 31.5 78t77.5 32t78 -32t32 -78t-32 -77.5t-78 -31.5t-77.5 31.5t-31.5 77.5z" />
<glyph unicode="&#x386;" horiz-adv-x="1294" d="M51 0l506 1341h184l502 -1341h-194l-125 348h-559l-123 -348h-191zM102 1004l95 405l165 -37l-184 -387zM418 500h452l-227 637z" />
<glyph unicode="&#x387;" horiz-adv-x="419" d="M100 516q0 43 33 77t76 34t76.5 -34t33.5 -77t-33.5 -75.5t-76.5 -32.5t-76 32.5t-33 75.5z" />
<glyph unicode="&#x388;" horiz-adv-x="1286" d="M20 1004l95 405l166 -37l-185 -387zM338 0v1341h813v-151h-639v-436h500v-152h-500v-450h682v-152h-856z" />
<glyph unicode="&#x389;" horiz-adv-x="1564" d="M20 1004l95 405l166 -37l-185 -387zM358 0v1341h174v-587h685v587h174v-1341h-174v602h-685v-602h-174z" />
<glyph unicode="&#x38a;" horiz-adv-x="706" d="M20 1004l95 405l166 -37l-185 -387zM358 0v1341h174v-1341h-174z" />
<glyph unicode="&#x38c;" horiz-adv-x="1519" d="M20 1004l95 405l166 -37l-185 -387zM174 672q0 110 23 210t73.5 190.5t125 157t184.5 105.5t245 39q122 0 223 -41.5t169 -110t115 -160.5t68 -190.5t21 -201.5q0 -110 -23 -210t-73.5 -191t-125 -157.5t-184.5 -105.5t-245 -39q-122 0 -223 41.5t-169 110.5t-115 161 t-68 190.5t-21 201.5zM354 717q0 -104 15 -191.5t50 -163.5t88 -128.5t133 -82.5t181 -30q95 0 175.5 42.5t133 113t82 161t29.5 187.5q0 131 -25 235.5t-78 186.5t-145.5 127t-218.5 45q-95 0 -175.5 -42t-133 -112.5t-82 -160.5t-29.5 -187z" />
<glyph unicode="&#x38e;" horiz-adv-x="1521" d="M20 1004l95 405l166 -37l-185 -387zM340 1341l487 -774v-567h174v569l490 772h-186l-385 -634l-385 634h-195z" />
<glyph unicode="&#x38f;" horiz-adv-x="1519" d="M20 1004l95 405l166 -37l-185 -387zM154 0v152h286q-266 242 -266 606q0 117 40 226t114 196.5t190.5 140.5t257.5 53q122 0 223.5 -36t171 -98t117.5 -146.5t70 -180t22 -200.5q0 -157 -72 -303.5t-194 -257.5h293v-152h-502v152q136 86 215.5 241.5t79.5 337.5 q0 90 -29 176.5t-81.5 156.5t-135 112.5t-180.5 42.5q-85 0 -156.5 -31.5t-119 -83.5t-81 -120.5t-48.5 -141.5t-15 -148q0 -163 86.5 -315t214.5 -229v-150h-501z" />
<glyph unicode="&#x390;" horiz-adv-x="624" d="M-86 1264q0 46 31.5 78t77.5 32t78 -32t32 -78t-32 -77.5t-78 -31.5t-77.5 31.5t-31.5 77.5zM143 274v680h164v-643q0 -107 33.5 -154.5t105.5 -47.5q57 0 117 32l41 -73q-79 -91 -215 -91q-123 0 -184.5 72t-61.5 225zM172 1096l94 405l166 -37l-184 -387zM432 1264 q0 46 31.5 78t77.5 32t78 -32t32 -78t-32 -77.5t-78 -31.5t-77.5 31.5t-31.5 77.5z" />
<glyph unicode="&#x391;" horiz-adv-x="1294" d="M51 0l506 1341h184l502 -1341h-194l-125 348h-559l-123 -348h-191zM418 500h452l-227 637z" />
<glyph unicode="&#x392;" horiz-adv-x="1210" d="M174 0v1341h459q190 0 298.5 -92.5t108.5 -255.5q0 -122 -75 -198t-177 -101q43 -5 85 -16.5t87.5 -36t79.5 -58t56 -86t22 -116.5q0 -179 -132.5 -280t-364.5 -101h-447zM342 152h248q80 0 140 10.5t108.5 35t74 69t25.5 108.5q0 56 -21 97.5t-53.5 66t-80.5 39 t-94.5 19.5t-102.5 5h-244v-450zM342 754h225q136 0 214.5 57.5t78.5 157.5q0 109 -61 165t-219 56h-238v-436z" />
<glyph unicode="&#x393;" horiz-adv-x="1017" d="M174 0v1341h813v-151h-639v-1190h-174z" />
<glyph unicode="&#x394;" horiz-adv-x="1294" d="M51 0l506 1341h184l502 -1341h-1192zM295 152h698l-350 985z" />
<glyph unicode="&#x395;" horiz-adv-x="1122" d="M174 0v1341h813v-151h-639v-436h500v-152h-500v-450h682v-152h-856z" />
<glyph unicode="&#x396;" horiz-adv-x="1124" d="M92 0v158l713 1032h-690v151h893v-153l-717 -1036h741v-152h-940z" />
<glyph unicode="&#x397;" horiz-adv-x="1380" d="M174 0v1341h174v-587h684v587h174v-1341h-174v602h-684v-602h-174z" />
<glyph unicode="&#x398;" horiz-adv-x="1443" d="M98 672q0 110 23 210t74 190.5t125 157t184.5 105.5t245.5 39q122 0 223 -41.5t169 -110t115 -160.5t68 -190.5t21 -201.5q0 -110 -23 -210t-74 -191t-125 -157.5t-184.5 -105.5t-245.5 -39q-122 0 -223 41.5t-169 110.5t-115 161t-68 190.5t-21 201.5zM279 717 q0 -104 15 -191.5t49.5 -163.5t87.5 -128.5t133 -82.5t181 -30q95 0 175.5 42.5t133 113t82 161t29.5 187.5q0 131 -25 235.5t-78 186.5t-145.5 127t-218.5 45t-223.5 -72.5t-146.5 -185.5t-49 -244zM449 604v141h540v-141h-540z" />
<glyph unicode="&#x399;" horiz-adv-x="522" d="M174 0v1341h174v-1341h-174z" />
<glyph unicode="&#x39a;" horiz-adv-x="1212" d="M174 0v1341h174v-587h152l432 587h196l-471 -639l525 -702h-217l-437 602h-180v-602h-174z" />
<glyph unicode="&#x39b;" horiz-adv-x="1294" d="M51 0l506 1341h184l502 -1341h-194l-406 1137l-401 -1137h-191z" />
<glyph unicode="&#x39c;" horiz-adv-x="1765" d="M174 0v1341h272l443 -1101l434 1101h268v-1341h-168v1190l-467 -1190h-147l-467 1190v-1190h-168z" />
<glyph unicode="&#x39d;" horiz-adv-x="1400" d="M174 0v1341h244l641 -1050v1050h168v-1341h-174l-711 1163v-1163h-168z" />
<glyph unicode="&#x39e;" horiz-adv-x="1101" d="M92 0v152h918v-152h-918zM113 1190v151h874v-151h-874zM266 602v152h561v-152h-561z" />
<glyph unicode="&#x39f;" horiz-adv-x="1443" d="M98 672q0 110 23 210t74 190.5t125 157t184.5 105.5t245.5 39q122 0 223 -41.5t169 -110t115 -160.5t68 -190.5t21 -201.5q0 -110 -23 -210t-74 -191t-125 -157.5t-184.5 -105.5t-245.5 -39q-122 0 -223 41.5t-169 110.5t-115 161t-68 190.5t-21 201.5zM279 717 q0 -104 15 -191.5t49.5 -163.5t87.5 -128.5t133 -82.5t181 -30q95 0 175.5 42.5t133 113t82 161t29.5 187.5q0 131 -25 235.5t-78 186.5t-145.5 127t-218.5 45t-223.5 -72.5t-146.5 -185.5t-49 -244z" />
<glyph unicode="&#x3a0;" horiz-adv-x="1339" d="M174 0v1341h991v-1341h-174v1190h-643v-1190h-174z" />
<glyph unicode="&#x3a1;" horiz-adv-x="1132" d="M174 0v1341h447q98 0 179.5 -22.5t145.5 -69t99.5 -124t35.5 -179.5q0 -109 -38 -193.5t-105 -136t-152 -78t-184 -26.5h-254v-512h-174zM348 664h189q181 0 272.5 59.5t91.5 200.5q0 147 -88.5 206.5t-265.5 59.5h-199v-526z" />
<glyph unicode="&#x3a3;" horiz-adv-x="1128" d="M113 0v152l446 522l-446 516v151h882v-151h-682l445 -516l-445 -522h723v-152h-923z" />
<glyph unicode="&#x3a4;" horiz-adv-x="1136" d="M31 1190v151h1075v-151h-451v-1190h-174v1190h-450z" />
<glyph unicode="&#x3a5;" horiz-adv-x="1212" d="M31 1341h194l385 -634l385 634h187l-490 -772v-569h-174v567z" />
<glyph unicode="&#x3a6;" horiz-adv-x="1517" d="M82 686q0 114 49.5 211t132.5 162t189.5 103t222.5 42v170h166v-170q119 -4 225 -41.5t189 -104.5t131.5 -171t48.5 -232q0 -114 -49.5 -211.5t-132.5 -162.5t-189.5 -102.5t-222.5 -41.5v-170h-166v170q-119 3 -225 40.5t-189 104.5t-131.5 171.5t-48.5 232.5zM262 664 q0 -168 109 -267t305 -116v778q-199 -19 -306.5 -120t-107.5 -275zM842 281q200 19 306.5 120t106.5 277q0 168 -108.5 266t-304.5 115v-778z" />
<glyph unicode="&#x3a7;" horiz-adv-x="1175" d="M31 0l450 670l-450 671h202l355 -542l354 542h203l-451 -671l451 -670h-203l-354 541l-355 -541h-202z" />
<glyph unicode="&#x3a8;" horiz-adv-x="1415" d="M72 997v344h180v-366q0 -161 92.5 -258.5t280.5 -114.5v739h166v-739q191 18 281.5 118.5t90.5 268.5v352h180v-374q0 -144 -74 -261.5t-199.5 -184.5t-278.5 -72v-449h-166v449q-157 4 -282 70.5t-198 191t-73 286.5z" />
<glyph unicode="&#x3aa;" horiz-adv-x="522" d="M-27 1579q0 45 33 78t78 33t78 -33t33 -78q0 -44 -32.5 -76.5t-78.5 -32.5t-78.5 32.5t-32.5 76.5zM174 0v1341h174v-1341h-174zM328 1579q0 46 32 78.5t76 32.5q46 0 79.5 -33.5t33.5 -77.5t-33.5 -76.5t-79.5 -32.5q-45 0 -76.5 32t-31.5 77z" />
<glyph unicode="&#x3ab;" horiz-adv-x="1212" d="M31 1341l487 -774v-567h174v569l490 772h-187l-385 -634l-385 634h-194zM279 1579q0 46 31.5 78.5t76.5 32.5q46 0 78.5 -32.5t32.5 -78.5t-32.5 -77.5t-78.5 -31.5t-77 31.5t-31 77.5zM715 1579q0 46 31.5 78.5t76.5 32.5q46 0 78.5 -32.5t32.5 -78.5t-32.5 -77.5 t-78.5 -31.5t-77 31.5t-31 77.5z" />
<glyph unicode="&#x3ac;" horiz-adv-x="1222" d="M92 473q0 243 116.5 378.5t299.5 135.5q91 0 178 -41.5t139 -103.5l52 112h90v-643q0 -108 31 -155t102 -47q49 0 92 32l41 -73q-68 -93 -191 -93q-167 0 -219 156q-54 -85 -127.5 -124.5t-177.5 -39.5q-83 0 -158.5 33t-135.5 94.5t-96 160t-36 218.5zM262 498 q0 -79 19 -146.5t57.5 -122t104 -85.5t151.5 -31q66 0 127.5 38t81.5 97v459q-27 49 -96 92t-150 43q-79 0 -138.5 -29.5t-92.5 -80t-48.5 -109t-15.5 -125.5zM524 1096l94 405l166 -37l-184 -387z" />
<glyph unicode="&#x3ad;" horiz-adv-x="956" d="M102 274q0 -77 33 -136.5t90 -96.5t130 -55.5t157 -18.5q100 0 205 34t168 101l-47 84q-128 -73 -289 -73q-128 0 -202.5 43.5t-74.5 111.5q0 41 18 70t45 44.5t73 24.5t86 11t100 2h39v141q-162 0 -246 39t-84 111q0 67 58.5 101t154.5 34q62 0 141 -23t140 -65l30 119 q-55 50 -148 80t-179 30q-172 0 -269.5 -68t-97.5 -184q0 -91 65.5 -150.5t155.5 -72.5q-37 -2 -78.5 -18t-81.5 -44t-66 -74.5t-26 -101.5zM397 1096l95 405l165 -37l-184 -387z" />
<glyph unicode="&#x3ae;" horiz-adv-x="1101" d="M154 0v954h90l51 -112q77 68 171.5 106.5t190.5 38.5q138 0 216.5 -79.5t78.5 -248.5v-1161h-164v1102q0 122 -43.5 182t-164.5 60q-65 0 -146 -40t-117 -83v-719h-163zM459 1096l94 405l166 -37l-184 -387z" />
<glyph unicode="&#x3af;" horiz-adv-x="624" d="M143 274v680h164v-643q0 -107 33.5 -154.5t105.5 -47.5q57 0 117 32l41 -73q-79 -91 -215 -91q-123 0 -184.5 72t-61.5 225zM174 1096l94 405l166 -37l-184 -387z" />
<glyph unicode="&#x3b0;" horiz-adv-x="1075" d="M147 295v659h164v-600q0 -132 57.5 -186.5t157.5 -54.5q130 0 203.5 97t73.5 255q0 264 -82 489h164q82 -219 82 -454q0 -255 -114.5 -394t-340.5 -139q-166 0 -265.5 87.5t-99.5 240.5zM197 1264q0 46 31 78t77 32t78.5 -32t32.5 -78t-32.5 -77.5t-78.5 -31.5t-77 31.5 t-31 77.5zM455 1096l94 405l166 -37l-185 -387zM715 1264q0 46 31 78t77 32t78.5 -32t32.5 -78t-32.5 -77.5t-78.5 -31.5t-77 31.5t-31 77.5z" />
<glyph unicode="&#x3b1;" horiz-adv-x="1222" d="M92 473q0 243 116.5 378.5t299.5 135.5q91 0 178 -41.5t139 -103.5l52 112h90v-643q0 -108 31 -155t102 -47q49 0 92 32l41 -73q-68 -93 -191 -93q-167 0 -219 156q-54 -85 -127.5 -124.5t-177.5 -39.5q-83 0 -158.5 33t-135.5 94.5t-96 160t-36 218.5zM262 498 q0 -79 19 -146.5t57.5 -122t104 -85.5t151.5 -31q66 0 127.5 38t81.5 97v459q-27 49 -96 92t-150 43q-79 0 -138.5 -29.5t-92.5 -80t-48.5 -109t-15.5 -125.5z" />
<glyph unicode="&#x3b2;" horiz-adv-x="1085" d="M154 -500v1616q0 196 94 311t282 115q177 0 275 -102.5t98 -249.5q0 -137 -63 -235t-187 -169q152 -53 246 -158t94 -255q0 -178 -99 -292t-276 -114q-90 0 -171.5 35.5t-129.5 81.5v-584h-163zM317 211q37 -33 116.5 -66.5t160.5 -33.5q111 0 170 66t59 181 q0 142 -99.5 239t-268.5 97v142q59 0 107.5 21.5t79 55.5t51.5 76.5t29.5 82.5t8.5 77q0 248 -201 248q-49 0 -86 -16.5t-59.5 -49t-37 -67.5t-20.5 -86.5t-8 -90t-2 -92.5v-784z" />
<glyph unicode="&#x3b3;" horiz-adv-x="1007" d="M20 954h181l295 -802q163 295 219.5 454.5t56.5 347.5h164q0 -199 -86 -415t-291 -527v-514h-164v527z" />
<glyph unicode="&#x3b4;" horiz-adv-x="1089" d="M92 473q0 224 103.5 353t283.5 155q-64 31 -105.5 55.5t-86.5 62t-67.5 84t-22.5 103.5q0 125 101.5 190.5t264.5 65.5q65 0 146 -19t137 -53l-31 -118q-148 51 -242 51q-213 0 -213 -127q0 -44 38.5 -88.5t100.5 -84t126.5 -75t129.5 -76.5t97 -75q70 -67 107.5 -168 t37.5 -220q0 -83 -17 -159.5t-53.5 -142.5t-89 -115t-127.5 -77t-165 -28q-97 0 -175 30.5t-129 80.5t-85.5 116.5t-49 136t-14.5 142.5zM262 498q0 -60 10 -114.5t32.5 -104.5t56 -86.5t84.5 -58t114 -21.5q84 0 147 54.5t92 133t29 164.5q0 128 -52.5 240.5t-156.5 160.5 q-79 0 -141.5 -22.5t-102 -58.5t-65.5 -85t-36.5 -99t-10.5 -103z" />
<glyph unicode="&#x3b5;" horiz-adv-x="956" d="M102 274q0 55 26 101.5t66 74.5t81.5 44t78.5 18q-90 13 -155.5 72.5t-65.5 150.5q0 116 97.5 184t269.5 68q86 0 179 -30t148 -80l-30 -119q-61 42 -140 65t-141 23q-96 0 -154.5 -34t-58.5 -101q0 -72 84 -111t246 -39v-141h-39q-60 0 -100 -2t-86 -11t-73 -24.5 t-45 -44.5t-18 -70q0 -68 74.5 -111.5t202.5 -43.5q161 0 289 73l47 -84q-63 -67 -168 -101t-205 -34q-84 0 -157 18.5t-130 55.5t-90 96.5t-33 136.5z" />
<glyph unicode="&#x3b6;" horiz-adv-x="892" d="M92 473q0 111 35.5 223.5t91 205.5t132.5 183t152 157t156 126h-475v141h654v-141q-88 -57 -184 -148.5t-186 -206.5t-148 -252.5t-58 -262.5q0 -77 20.5 -136.5t55 -97t80 -65t95 -45t99 -32t95 -30.5t80 -37t55 -55t20.5 -80q0 -73 -40 -138t-107 -104l-74 41 q94 81 94 164q0 22 -22 38.5t-59 29.5t-85.5 26t-101.5 31t-106.5 42t-102 61.5t-85.5 85.5t-59 119t-22 157z" />
<glyph unicode="&#x3b7;" horiz-adv-x="1101" d="M154 0v954h90l51 -112q77 68 171.5 106.5t190.5 38.5q138 0 216.5 -79.5t78.5 -248.5v-1161h-164v1102q0 122 -43.5 182t-164.5 60q-65 0 -146 -40t-117 -83v-719h-163z" />
<glyph unicode="&#x3b8;" horiz-adv-x="1089" d="M92 768q0 378 123 576t352 198q213 0 321.5 -200t108.5 -558q0 -178 -25 -322.5t-77.5 -257.5t-141 -175t-208.5 -62q-103 0 -182.5 44t-130 117t-82.5 178t-45 217.5t-13 244.5zM262 819h565q-3 109 -12.5 194.5t-31 159t-54.5 122t-82.5 75.5t-114.5 27 q-263 0 -270 -578zM264 688q4 -129 20.5 -228.5t49.5 -180t90 -123.5t135 -43q66 0 116.5 44.5t81.5 125t47.5 181.5t20.5 224h-561z" />
<glyph unicode="&#x3b9;" horiz-adv-x="624" d="M143 274v680h164v-643q0 -107 33.5 -154.5t105.5 -47.5q57 0 117 32l41 -73q-79 -91 -215 -91q-123 0 -184.5 72t-61.5 225z" />
<glyph unicode="&#x3ba;" horiz-adv-x="997" d="M154 0v954h163v-475l431 475h198l-381 -403l381 -551h-194l-303 442l-132 -139v-303h-163z" />
<glyph unicode="&#x3bb;" horiz-adv-x="1005" d="M-31 1452q78 90 215 90q41 0 76 -10t60.5 -23.5t50.5 -41t39.5 -47.5t33.5 -59.5t27.5 -60.5t26.5 -65l497 -1235h-168l-288 764l-279 -764h-180l381 944l-119 281q-40 96 -92 141t-123 45q-55 0 -117 -33z" />
<glyph unicode="&#x3bc;" horiz-adv-x="1099" d="M147 295v659h164v-600q0 -121 44 -181t165 -60q65 0 145 40t117 83v718h164v-954h-90l-51 113q-78 -68 -173 -107t-190 -39q-138 0 -216.5 79.5t-78.5 248.5z" />
<glyph unicode="&#x3bd;" horiz-adv-x="1007" d="M20 954h181l295 -802q163 295 219.5 454.5t56.5 347.5h164q0 -201 -88 -419.5t-297 -534.5h-145z" />
<glyph unicode="&#x3be;" horiz-adv-x="892" d="M92 473q0 181 96.5 293.5t262.5 161.5q-150 46 -219.5 130t-69.5 183q0 135 106 218t279 83q65 0 144.5 -19t135.5 -53l-30 -118q-148 51 -242 51q-99 0 -161 -45.5t-62 -140.5q0 -37 25.5 -76t73.5 -74t130 -57.5t182 -22.5v-141q-96 0 -182 -22.5t-153 -65t-106.5 -110 t-39.5 -150.5q0 -77 20.5 -136.5t55 -97t80 -65t95 -45t99 -32t95 -30.5t80 -37t55 -55t20.5 -80q0 -73 -40 -138t-107 -104l-74 41q94 81 94 164q0 22 -22 38.5t-59 29.5t-85.5 26t-101.5 31t-106.5 42t-102 61.5t-85.5 85.5t-59 119t-22 157z" />
<glyph unicode="&#x3bf;" horiz-adv-x="1089" d="M92 469q0 240 130 379t345 139q99 0 181 -40.5t136 -109.5t83.5 -159.5t29.5 -192.5q0 -240 -130 -379t-345 -139q-99 0 -181 40.5t-136 109.5t-83.5 159.5t-29.5 192.5zM262 504q0 -77 16.5 -146t50 -127.5t92.5 -93.5t136 -35q86 0 149 53t92 130.5t29 165.5 q0 77 -16.5 145.5t-50 127.5t-92.5 93.5t-136 34.5q-86 0 -149 -53t-92 -130t-29 -165z" />
<glyph unicode="&#x3c0;" horiz-adv-x="1210" d="M31 813v141h1093v-141h-262v-502q0 -107 33.5 -154.5t105.5 -47.5q57 0 117 32l41 -73q-79 -91 -215 -91q-123 0 -184.5 72t-61.5 225v539h-309v-813h-164v813h-194z" />
<glyph unicode="&#x3c1;" horiz-adv-x="1089" d="M123 453q0 534 440 534q198 0 316 -141.5t118 -360.5q0 -240 -127 -379t-325 -139q-66 0 -136.5 26.5t-121.5 76.5v-572h-164v955zM287 227q50 -63 119 -88.5t133 -25.5q132 0 210 96.5t78 241.5q0 83 -16 152t-49 123.5t-90 85t-133 30.5q-252 0 -252 -365v-250z" />
<glyph unicode="&#x3c2;" horiz-adv-x="956" d="M92 473q0 241 131.5 377.5t354.5 136.5q93 0 181 -32t136 -78l-31 -119q-146 84 -291 84q-151 0 -231 -97t-80 -247q0 -77 20.5 -136.5t55 -97t80 -65t95 -45t99 -32t95 -30.5t80 -37t55 -55t20.5 -80q0 -73 -40 -138t-107 -104l-74 41q94 81 94 164q0 22 -22 38.5 t-59 29.5t-85.5 26t-101.5 31t-106.5 42t-102 61.5t-85.5 85.5t-59 119t-22 157z" />
<glyph unicode="&#x3c3;" horiz-adv-x="1099" d="M92 473q0 235 127 358t346 123h484v-141h-222q79 -45 124.5 -143.5t45.5 -200.5q0 -98 -28 -186t-82 -159.5t-142.5 -114t-199.5 -42.5q-97 0 -175 30.5t-129 80.5t-85.5 116.5t-49 136t-14.5 142.5zM262 498q0 -60 10 -114.5t32.5 -104.5t56 -86.5t84.5 -58t114 -21.5 q84 0 147 54.5t92 133t29 164.5q0 68 -16.5 127.5t-50 109t-92 78.5t-136.5 29q-65 0 -118 -27.5t-85 -73t-49.5 -99.5t-17.5 -111z" />
<glyph unicode="&#x3c4;" horiz-adv-x="806" d="M20 813v141h736v-141h-338v-502q0 -202 160 -202q56 0 116 32l41 -73q-79 -91 -215 -91q-127 0 -196.5 73t-69.5 224v539h-234z" />
<glyph unicode="&#x3c5;" horiz-adv-x="1071" d="M143 295v659h164v-600q0 -132 57.5 -186.5t157.5 -54.5q130 0 203.5 97t73.5 255q0 264 -82 489h164q82 -219 82 -454q0 -255 -114.5 -394t-340.5 -139q-166 0 -265.5 87.5t-99.5 240.5z" />
<glyph unicode="&#x3c6;" horiz-adv-x="1376" d="M92 500q0 177 116.5 308.5t287.5 158.5l32 -117q-130 -32 -198 -129.5t-68 -245.5q0 -156 103 -258t239 -104v462q0 48 0.5 78t3.5 71t8 66t14.5 56t23 49.5t34 38t47 30t61.5 17t78 6.5q111 0 206.5 -71.5t149.5 -183.5t54 -232q0 -241 -143.5 -384t-372.5 -149v-471 h-164v471q-141 5 -256 68.5t-185.5 185t-70.5 279.5zM768 113q148 0 247 101t99 261q0 151 -71 259t-183 108q-65 0 -78.5 -61.5t-13.5 -282.5v-385z" />
<glyph unicode="&#x3c7;" horiz-adv-x="987" d="M31 -502l358 723l-358 733h194l271 -614l276 614h184l-364 -727l364 -729h-186l-283 611l-276 -611h-180z" />
<glyph unicode="&#x3c8;" horiz-adv-x="1427" d="M133 377v577h164v-518q0 -80 16.5 -137t55.5 -99.5t107 -64t169 -22.5v1228h164v-1228q160 0 256 97.5t96 254.5q0 264 -82 489h164q82 -219 82 -454q0 -246 -138.5 -387t-377.5 -146v-469h-164v469q-134 0 -234.5 31.5t-160 88.5t-88.5 129.5t-29 160.5z" />
<glyph unicode="&#x3c9;" horiz-adv-x="1507" d="M109 500q0 238 81 454h164q-82 -225 -82 -489q0 -352 215 -352q89 0 137 76.5t48 205.5v219h164v-219q0 -129 47.5 -205.5t136.5 -76.5q215 0 215 352q0 264 -82 489h164q82 -219 82 -454q0 -254 -95.5 -393.5t-277.5 -139.5q-92 0 -169 51t-103 146q-28 -95 -104.5 -146 t-168.5 -51q-182 0 -277 139.5t-95 393.5z" />
<glyph unicode="&#x3ca;" horiz-adv-x="624" d="M-41 1264q0 45 33 77.5t78 32.5t77.5 -32.5t32.5 -77.5q0 -44 -32 -76.5t-78 -32.5t-78.5 32.5t-32.5 76.5zM143 274v680h164v-643q0 -107 33.5 -154.5t105.5 -47.5q57 0 117 32l41 -73q-79 -91 -215 -91q-123 0 -184.5 72t-61.5 225zM309 1264q0 46 32.5 78t76.5 32 q46 0 79 -33t33 -77t-33 -76.5t-79 -32.5q-45 0 -77 32t-32 77z" />
<glyph unicode="&#x3cb;" horiz-adv-x="1075" d="M147 295v659h164v-600q0 -132 57.5 -186.5t157.5 -54.5q130 0 203.5 97t73.5 255q0 264 -82 489h164q82 -219 82 -454q0 -255 -114.5 -394t-340.5 -139q-166 0 -265.5 87.5t-99.5 240.5zM229 1264q0 43 33 76.5t76 33.5t77 -33.5t34 -76.5t-34 -76t-77 -33t-76 33t-33 76 zM637 1264q0 43 32.5 76.5t75.5 33.5t77 -33.5t34 -76.5t-34 -76t-77 -33t-75.5 33t-32.5 76z" />
<glyph unicode="&#x3cc;" horiz-adv-x="1089" d="M92 469q0 240 130 379t345 139q99 0 181 -40.5t136 -109.5t83.5 -159.5t29.5 -192.5q0 -240 -130 -379t-345 -139q-99 0 -181 40.5t-136 109.5t-83.5 159.5t-29.5 192.5zM262 504q0 -77 16.5 -146t50 -127.5t92.5 -93.5t136 -35q86 0 149 53t92 130.5t29 165.5 q0 77 -16.5 145.5t-50 127.5t-92.5 93.5t-136 34.5q-86 0 -149 -53t-92 -130t-29 -165zM440 1096l95 405l165 -37l-184 -387z" />
<glyph unicode="&#x3cd;" horiz-adv-x="1075" d="M147 295v659h164v-600q0 -132 57.5 -186.5t157.5 -54.5q130 0 203.5 97t73.5 255q0 264 -82 489h164q82 -219 82 -454q0 -255 -114.5 -394t-340.5 -139q-166 0 -265.5 87.5t-99.5 240.5zM465 1096l94 405l166 -37l-184 -387z" />
<glyph unicode="&#x3ce;" horiz-adv-x="1507" d="M109 500q0 238 81 454h164q-82 -225 -82 -489q0 -352 215 -352q89 0 137 76.5t48 205.5v219h164v-219q0 -129 47.5 -205.5t136.5 -76.5q215 0 215 352q0 264 -82 489h164q82 -219 82 -454q0 -254 -95.5 -393.5t-277.5 -139.5q-92 0 -169 51t-103 146q-28 -95 -104.5 -146 t-168.5 -51q-182 0 -277 139.5t-95 393.5zM692 1096l94 405l166 -37l-184 -387z" />
<glyph unicode="&#x401;" horiz-adv-x="1122" d="M174 0v1341h813v-151h-639v-436h500v-152h-500v-450h682v-152h-856zM268 1579q0 46 31.5 78.5t77.5 32.5t78 -32.5t32 -78.5t-32 -77.5t-78 -31.5t-77.5 31.5t-31.5 77.5zM705 1579q0 46 31.5 78.5t76.5 32.5q46 0 78.5 -32.5t32.5 -78.5t-32.5 -77.5t-78.5 -31.5 t-77 31.5t-31 77.5z" />
<glyph unicode="&#x402;" horiz-adv-x="1443" d="M51 1190v151h953v-151h-451v-494q85 56 185 91.5t194 35.5q170 0 279.5 -93.5t109.5 -258.5v-459q0 -79 -24 -138.5t-64.5 -93t-87 -49.5t-98.5 -16q-118 0 -197 70l41 74q67 -23 108 -23q73 0 110.5 54.5t37.5 158.5v363q0 134 -72.5 195t-197.5 61q-80 0 -175 -36.5 t-149 -80.5v-551h-174v1190h-328z" />
<glyph unicode="&#x403;" horiz-adv-x="1017" d="M174 0v1341h813v-151h-639v-1190h-174zM399 1483l328 293l111 -125l-385 -228z" />
<glyph unicode="&#x404;" horiz-adv-x="1251" d="M98 672q0 115 25 218t77.5 192t128.5 153.5t184 101.5t237 37q124 0 224.5 -38.5t164.5 -90.5l-35 -135q-99 56 -187 82.5t-190 26.5q-177 0 -306.5 -130t-141.5 -335h643v-152h-637q10 -79 33 -147.5t64.5 -130t98 -105t138 -69t180.5 -25.5q94 0 182.5 36t128.5 81 l49 -88q-6 -8 -17 -20.5t-50.5 -44.5t-84.5 -57t-119.5 -45t-154.5 -20q-138 0 -249.5 44t-182 114.5t-117.5 164.5t-66.5 189t-19.5 193z" />
<glyph unicode="&#x405;" horiz-adv-x="1067" d="M84 137l59 107q69 -53 166.5 -87t194.5 -34q51 0 99.5 11t93 34t71.5 65t27 97q0 53 -29.5 97.5t-77.5 75t-109.5 62t-125.5 58t-125.5 63.5t-109.5 78t-77.5 103t-29.5 137q0 118 58.5 203t156 126t221.5 41q112 0 220.5 -40t168.5 -89l-35 -135q-83 53 -177.5 81 t-180.5 28q-108 0 -180 -54.5t-72 -150.5q0 -43 23.5 -80t63 -65t91 -54t108 -51t113 -52.5t108 -62t91 -75t63 -96.5t23.5 -122q0 -85 -28 -153.5t-72.5 -111.5t-103.5 -71.5t-118.5 -40.5t-120.5 -12q-269 0 -448 170z" />
<glyph unicode="&#x406;" horiz-adv-x="522" d="M174 0v1341h174v-1341h-174z" />
<glyph unicode="&#x407;" horiz-adv-x="522" d="M-27 1579q0 45 33 78t78 33t78 -33t33 -78q0 -44 -32.5 -76.5t-78.5 -32.5t-78.5 32.5t-32.5 76.5zM174 0v1341h174v-1341h-174zM328 1579q0 46 32 78.5t76 32.5q46 0 79.5 -33.5t33.5 -77.5t-33.5 -76.5t-79.5 -32.5q-45 0 -76.5 32t-31.5 77z" />
<glyph unicode="&#x408;" horiz-adv-x="569" d="M-66 -215l41 74q67 -23 109 -23q73 0 110 54.5t37 158.5v1292h175v-1329q0 -79 -24 -138.5t-64.5 -93t-87.5 -49.5t-99 -16q-118 0 -197 70z" />
<glyph unicode="&#x409;" horiz-adv-x="1869" d="M-51 55l47 86q59 -30 108 -30q104 0 119 159l105 1071h747v-587h250q74 0 140 -9.5t130.5 -34.5t110 -64t74 -102.5t28.5 -144.5q0 -92 -29.5 -163.5t-76.5 -115t-112 -71.5t-129 -38.5t-134 -10.5h-426v1190h-414l-92 -916q-14 -148 -69.5 -222.5t-171.5 -74.5 q-124 0 -205 78zM1075 152h187q65 0 111 3.5t98 17t83.5 37t52.5 66t21 101.5q0 57 -20.5 98.5t-53 65.5t-83.5 38t-102 18.5t-118 4.5h-176v-450z" />
<glyph unicode="&#x40a;" horiz-adv-x="1916" d="M174 0v1341h174v-587h600v587h174v-587h250q74 0 140 -9.5t130.5 -34.5t110 -64t74 -102.5t28.5 -144.5q0 -92 -29.5 -163.5t-76.5 -115t-112 -71.5t-129 -38.5t-134 -10.5h-426v602h-600v-602h-174zM1122 152h187q65 0 111 3.5t98 17t83.5 37t52.5 66t21 101.5 q0 57 -20.5 98.5t-53 65.5t-83.5 38t-102 18.5t-118 4.5h-176v-450z" />
<glyph unicode="&#x40b;" horiz-adv-x="1443" d="M51 1190v151h953v-151h-451v-494q85 56 185 91.5t194 35.5q170 0 279.5 -93.5t109.5 -258.5v-471h-174v412q0 134 -72.5 195t-197.5 61q-80 0 -175 -36.5t-149 -80.5v-551h-174v1190h-328z" />
<glyph unicode="&#x40c;" horiz-adv-x="1212" d="M174 0v1341h174v-587h152l432 587h196l-471 -639q404 -215 525 -702h-197q-56 202 -173 357t-284 245h-180v-602h-174zM420 1483l328 293l110 -125l-385 -228z" />
<glyph unicode="&#x40e;" horiz-adv-x="1198" d="M51 1341h193l413 -905l324 905h186l-409 -1071q-26 -64 -53.5 -112t-68 -94.5t-97 -71.5t-125.5 -25q-64 0 -121 21t-90 59l47 84q61 -33 117 -33q136 0 213 142zM350 1696h90q13 -63 59.5 -103.5t121.5 -40.5t121 40t59 104h90q0 -107 -77.5 -190t-192.5 -83t-193 83 t-78 190z" />
<glyph unicode="&#x40f;" horiz-adv-x="1339" d="M174 0v1341h174v-1189h643v1189h174v-1341h-420v-283h-151v283h-420z" />
<glyph unicode="&#x410;" horiz-adv-x="1294" d="M51 0l506 1341h184l502 -1341h-194l-125 348h-559l-123 -348h-191zM418 500h452l-227 637z" />
<glyph unicode="&#x411;" horiz-adv-x="1173" d="M174 0v1341h813v-151h-639v-436h250q74 0 140 -9.5t130.5 -34.5t110 -64t74 -102.5t28.5 -144.5q0 -92 -29.5 -163.5t-76.5 -115t-112 -71.5t-129 -38.5t-134 -10.5h-426zM348 152h187q65 0 111 3.5t98 17t83.5 37t52.5 66t21 101.5q0 57 -20.5 98.5t-53 65.5t-83.5 38 t-102 18.5t-118 4.5h-176v-450z" />
<glyph unicode="&#x412;" horiz-adv-x="1210" d="M174 0v1341h459q190 0 298.5 -92.5t108.5 -255.5q0 -122 -75 -198t-177 -101q43 -5 85 -16.5t87.5 -36t79.5 -58t56 -86t22 -116.5q0 -179 -132.5 -280t-364.5 -101h-447zM342 152h248q80 0 140 10.5t108.5 35t74 69t25.5 108.5q0 56 -21 97.5t-53.5 66t-80.5 39 t-94.5 19.5t-102.5 5h-244v-450zM342 754h225q136 0 214.5 57.5t78.5 157.5q0 109 -61 165t-219 56h-238v-436z" />
<glyph unicode="&#x413;" horiz-adv-x="1017" d="M174 0v1341h813v-151h-639v-1190h-174z" />
<glyph unicode="&#x414;" horiz-adv-x="1316" d="M10 152h21q80 0 129 47t61 176l96 966h797v-1189h152v-435h-152v283h-952v-283h-152v435zM322 152h618v1038h-465l-80 -811q-15 -151 -73 -227z" />
<glyph unicode="&#x415;" horiz-adv-x="1122" d="M174 0v1341h813v-151h-639v-436h500v-152h-500v-450h682v-152h-856z" />
<glyph unicode="&#x416;" horiz-adv-x="1902" d="M31 0q122 488 524 702l-471 639h197l432 -587h151v587h174v-587h152l432 587h197l-471 -639q402 -214 524 -702h-197q-56 202 -172.5 357t-283.5 245h-181v-602h-174v602h-180q-167 -90 -284 -245t-173 -357h-196z" />
<glyph unicode="&#x417;" horiz-adv-x="1044" d="M84 123l59 106q135 -106 301 -106q77 0 138 23t97 61t54.5 84t18.5 96q0 260 -392 260v141q312 25 312 234q0 96 -63 146.5t-160 50.5q-162 0 -289 -105l-37 131q60 54 148 91.5t186 37.5q175 0 285 -89t110 -238q0 -107 -76 -195.5t-186 -108.5q49 -7 96.5 -24t92 -47 t78.5 -68.5t54.5 -93t20.5 -117.5q0 -131 -63.5 -230t-164.5 -147.5t-223 -48.5q-72 0 -139 16t-112 39t-79.5 46t-50.5 39z" />
<glyph unicode="&#x418;" horiz-adv-x="1400" d="M154 0v1341h168v-1050l641 1050h243v-1341h-168v1163l-710 -1163h-174z" />
<glyph unicode="&#x419;" horiz-adv-x="1400" d="M154 0h174l710 1163v-1163h168v1341h-243l-641 -1050v1050h-168v-1341zM426 1696h90q13 -64 59 -104t121 -40t121.5 40.5t59.5 103.5h90q0 -107 -78 -190t-193 -83t-192.5 83t-77.5 190z" />
<glyph unicode="&#x41a;" horiz-adv-x="1212" d="M174 0v1341h174v-587h152l432 587h196l-471 -639q404 -215 525 -702h-197q-56 202 -173 357t-284 245h-180v-602h-174z" />
<glyph unicode="&#x41b;" horiz-adv-x="1331" d="M-51 55l47 86q59 -30 108 -30q104 0 119 159l105 1071h829v-1341h-174v1190h-496l-92 -916q-14 -148 -69.5 -222.5t-171.5 -74.5q-124 0 -205 78z" />
<glyph unicode="&#x41c;" horiz-adv-x="1765" d="M174 0v1341h272l443 -1101l434 1101h268v-1341h-168v1190l-467 -1190h-147l-467 1190v-1190h-168z" />
<glyph unicode="&#x41d;" horiz-adv-x="1380" d="M174 0v1341h174v-587h684v587h174v-1341h-174v602h-684v-602h-174z" />
<glyph unicode="&#x41e;" horiz-adv-x="1443" d="M98 672q0 110 23 210t74 190.5t125 157t184.5 105.5t245.5 39q122 0 223 -41.5t169 -110t115 -160.5t68 -190.5t21 -201.5q0 -110 -23 -210t-74 -191t-125 -157.5t-184.5 -105.5t-245.5 -39q-122 0 -223 41.5t-169 110.5t-115 161t-68 190.5t-21 201.5zM279 717 q0 -104 15 -191.5t49.5 -163.5t87.5 -128.5t133 -82.5t181 -30q95 0 175.5 42.5t133 113t82 161t29.5 187.5q0 131 -25 235.5t-78 186.5t-145.5 127t-218.5 45t-223.5 -72.5t-146.5 -185.5t-49 -244z" />
<glyph unicode="&#x41f;" horiz-adv-x="1339" d="M174 0v1341h991v-1341h-174v1190h-643v-1190h-174z" />
<glyph unicode="&#x420;" horiz-adv-x="1132" d="M174 0v1341h447q98 0 179.5 -22.5t145.5 -69t99.5 -124t35.5 -179.5q0 -109 -38 -193.5t-105 -136t-152 -78t-184 -26.5h-254v-512h-174zM348 664h189q181 0 272.5 59.5t91.5 200.5q0 147 -88.5 206.5t-265.5 59.5h-199v-526z" />
<glyph unicode="&#x421;" horiz-adv-x="1251" d="M98 672q0 115 25 218t77.5 192t128.5 153.5t184 101.5t237 37q124 0 224.5 -38.5t164.5 -90.5l-35 -135q-99 56 -187 82.5t-190 26.5q-186 0 -317 -141.5t-131 -360.5q0 -92 16.5 -175t55 -160.5t97 -133.5t148.5 -89.5t203 -33.5q94 0 182.5 36t128.5 81l49 -88 q-6 -8 -17 -20.5t-50.5 -44.5t-84.5 -57t-119.5 -45t-154.5 -20q-138 0 -249.5 44t-182 114.5t-117.5 164.5t-66.5 189t-19.5 193z" />
<glyph unicode="&#x422;" horiz-adv-x="1136" d="M31 1190v151h1075v-151h-451v-1190h-174v1190h-450z" />
<glyph unicode="&#x423;" horiz-adv-x="1198" d="M51 1341h193l413 -905l324 905h186l-409 -1071q-26 -64 -53.5 -112t-68 -94.5t-97 -71.5t-125.5 -25q-64 0 -121 21t-90 59l47 84q61 -33 117 -33q136 0 213 142z" />
<glyph unicode="&#x424;" horiz-adv-x="1517" d="M82 686q0 114 49.5 211t132.5 162t189.5 103t222.5 42v170h166v-170q119 -4 225 -41.5t189 -104.5t131.5 -171t48.5 -232q0 -114 -49.5 -211.5t-132.5 -162.5t-189.5 -102.5t-222.5 -41.5v-170h-166v170q-119 3 -225 40.5t-189 104.5t-131.5 171.5t-48.5 232.5zM262 664 q0 -168 109 -267t305 -116v778q-199 -19 -306.5 -120t-107.5 -275zM842 281q200 19 306.5 120t106.5 277q0 168 -108.5 266t-304.5 115v-778z" />
<glyph unicode="&#x425;" horiz-adv-x="1175" d="M31 0l450 670l-450 671h202l355 -542l354 542h203l-451 -671l451 -670h-203l-354 541l-355 -541h-202z" />
<glyph unicode="&#x426;" horiz-adv-x="1368" d="M174 0v1341h174v-1189h643v1189h174v-1189h152v-435h-152v283h-991z" />
<glyph unicode="&#x427;" horiz-adv-x="1208" d="M92 870v471h174v-411q0 -134 73 -195t198 -61q79 0 174 36.5t149 80.5v550h174v-1341h-174v645q-85 -56 -185 -91.5t-194 -35.5q-170 0 -279.5 93.5t-109.5 258.5z" />
<glyph unicode="&#x428;" horiz-adv-x="1914" d="M174 0v1341h174v-1189h522v1189h174v-1189h523v1189h174v-1341h-1567z" />
<glyph unicode="&#x429;" horiz-adv-x="1933" d="M174 0v1341h174v-1189h522v1189h174v-1189h523v1189h174v-1189h141v-416h-141v264h-1567z" />
<glyph unicode="&#x42a;" horiz-adv-x="1251" d="M-20 1190v151h477v-587h250q74 0 140 -9.5t130.5 -34.5t110 -64t74 -102.5t28.5 -144.5q0 -92 -29.5 -163.5t-76.5 -115t-112 -71.5t-129 -38.5t-134 -10.5h-426v1190h-303zM457 152h186q65 0 111.5 3.5t98 17t83.5 37t53 66t21 101.5q0 57 -20.5 98.5t-53 65.5t-83.5 38 t-102 18.5t-118 4.5h-176v-450z" />
<glyph unicode="&#x42b;" horiz-adv-x="1593" d="M174 0v1341h174v-587h250q74 0 140 -9.5t130.5 -34.5t110 -64t74 -102.5t28.5 -144.5q0 -92 -29.5 -163.5t-76.5 -115t-112 -71.5t-129 -38.5t-134 -10.5h-426zM348 152h187q65 0 111 3.5t98 17t83.5 37t52.5 66t21 101.5q0 57 -20.5 98.5t-53 65.5t-83.5 38t-102 18.5 t-118 4.5h-176v-450zM1245 0v1341h174v-1341h-174z" />
<glyph unicode="&#x42c;" horiz-adv-x="1142" d="M174 0v1341h174v-587h250q74 0 140 -9.5t130.5 -34.5t110 -64t74 -102.5t28.5 -144.5q0 -92 -29.5 -163.5t-76.5 -115t-112 -71.5t-129 -38.5t-134 -10.5h-426zM348 152h187q65 0 111 3.5t98 17t83.5 37t52.5 66t21 101.5q0 57 -20.5 98.5t-53 65.5t-83.5 38t-102 18.5 t-118 4.5h-176v-450z" />
<glyph unicode="&#x42d;" horiz-adv-x="1251" d="M84 135l59 107q62 -52 149.5 -85.5t180.5 -33.5q116 0 206.5 38.5t148 106.5t91.5 151.5t46 182.5h-664v152h670q-12 205 -141 335t-306 130q-102 0 -190 -26.5t-187 -82.5l-34 135q64 52 164.5 90.5t224.5 38.5q129 0 237 -37t183.5 -101.5t128 -153.5t77.5 -192 t25 -218q0 -98 -19.5 -193t-66.5 -189t-117.5 -164.5t-182 -114.5t-249.5 -44q-136 0 -249 47.5t-185 120.5z" />
<glyph unicode="&#x42e;" horiz-adv-x="1900" d="M174 0v1341h174v-587h209q11 127 54.5 235.5t119.5 196t198 138t277 50.5q122 0 223 -41.5t169 -110t115 -160.5t68 -190.5t21 -201.5q0 -110 -23 -210t-73.5 -191t-125 -157.5t-184.5 -105.5t-245 -39q-114 0 -209.5 36t-162.5 97t-115.5 143.5t-74 172t-32.5 186.5 h-209v-602h-174zM735 717q0 -104 15 -191.5t50 -163.5t88 -128.5t133 -82.5t181 -30q95 0 175.5 42.5t133 113t82 161t29.5 187.5q0 131 -25 235.5t-78 186.5t-145.5 127t-218.5 45q-95 0 -175.5 -42t-133 -112.5t-82 -160.5t-29.5 -187z" />
<glyph unicode="&#x42f;" horiz-adv-x="1220" d="M31 0l413 551q-145 35 -235 136.5t-90 268.5q0 82 26 148t69 109.5t103 72.5t125.5 42t137.5 13h446v-1341h-174v532h-219l-393 -532h-209zM299 934q0 -60 18.5 -105t49.5 -73t78.5 -45.5t100 -24t118.5 -6.5h188v510h-199q-81 0 -141.5 -11.5t-110.5 -39t-76 -79 t-26 -126.5z" />
<glyph unicode="&#x430;" horiz-adv-x="1003" d="M96 250q0 74 30 130.5t75.5 88.5t109.5 52.5t122.5 27t123.5 6.5h139v41q0 129 -55 187.5t-178 58.5q-71 0 -152 -26.5t-129 -57.5l-30 119q71 50 165.5 80t174.5 30q107 0 180 -29t113.5 -86t57.5 -130.5t17 -174.5v-567h-90l-51 113q-50 -64 -132.5 -105t-185.5 -41 q-136 0 -220.5 76.5t-84.5 206.5zM262 268q0 -73 50.5 -119.5t144.5 -46.5q79 0 146 36t93 85v217h-104q-330 0 -330 -172z" />
<glyph unicode="&#x431;" horiz-adv-x="1093" d="M92 631q0 72 6 144.5t24.5 161.5t47.5 167t78.5 154t114.5 130.5t159.5 87.5t208.5 33q70 0 125 -5.5t74 -11.5l20 -5l-30 -119q-62 14 -166 14q-102 0 -184 -35t-133.5 -89t-87.5 -128t-52.5 -143t-22.5 -143q118 143 297 143q132 0 230.5 -66t149 -178.5t50.5 -253.5 q0 -139 -52 -256.5t-157 -191.5t-243 -74q-110 0 -198 53t-144 144.5t-85.5 210.5t-29.5 256zM260 606q0 -67 8 -131t29.5 -131.5t54.5 -117t87.5 -81.5t123.5 -32q75 0 138 53.5t96.5 134t33.5 164.5q0 60 -9.5 114t-32 103t-56 84t-83.5 55.5t-113 20.5q-74 0 -147.5 -34 t-121.5 -89q-8 -66 -8 -113z" />
<glyph unicode="&#x432;" horiz-adv-x="1017" d="M154 0v954h364q169 0 249.5 -64t80.5 -192q0 -62 -39.5 -110.5t-101.5 -73.5q94 -21 156.5 -87t62.5 -153q0 -133 -103.5 -203.5t-292.5 -70.5h-376zM305 135h209q134 0 191 41.5t57 104.5q0 22 -3 39.5t-16 38.5t-35 34.5t-63 23t-98 9.5h-242v-291zM305 553h174 q205 0 205 139q0 58 -43.5 92.5t-138.5 34.5h-197v-266z" />
<glyph unicode="&#x433;" horiz-adv-x="747" d="M154 0v954h542v-141h-379v-813h-163z" />
<glyph unicode="&#x434;" horiz-adv-x="1142" d="M10 141q34 0 59.5 3t58 14.5t54.5 32.5t40 60t24 93l65 610h639v-813h142v-424h-142v283h-798v-283h-142v424zM324 141h462v672h-331l-49 -465q-14 -132 -82 -207z" />
<glyph unicode="&#x435;" horiz-adv-x="1019" d="M92 473q0 233 121.5 373.5t304.5 140.5q182 0 295.5 -115t114.5 -319l-51 -113h-621q16 -156 106.5 -243.5t258.5 -87.5q59 0 126.5 23t106.5 54l41 -73q-60 -72 -152.5 -109t-187.5 -37q-113 0 -203.5 43t-146 115t-84.5 161t-29 187zM258 559h516q0 142 -71.5 217.5 t-176.5 75.5q-118 0 -188.5 -82.5t-79.5 -210.5z" />
<glyph unicode="&#x436;" horiz-adv-x="1503" d="M41 0q39 171 134 308.5t235 215.5l-369 430h199l327 -393h103v393h164v-393h102l328 393h198l-368 -430q140 -78 234.5 -215.5t133.5 -308.5h-184q-80 290 -295 420h-149v-420h-164v420h-150q-215 -130 -295 -420h-184z" />
<glyph unicode="&#x437;" horiz-adv-x="960" d="M82 104l51 93q51 -44 129.5 -69.5t143.5 -25.5q126 0 204 48.5t78 117.5q0 41 -18 70.5t-45.5 45.5t-72 25.5t-86 12t-99.5 2.5h-39v133q159 0 236 40.5t77 113.5q0 131 -231 131q-68 0 -141.5 -22.5t-129.5 -61.5l-30 119q137 110 342 110q151 0 255.5 -67.5 t104.5 -186.5q0 -93 -59.5 -152.5t-147.5 -72.5q37 -2 79 -17.5t82 -42.5t66.5 -73t26.5 -101q0 -77 -33 -136.5t-90 -96.5t-129.5 -55.5t-156.5 -18.5q-107 0 -208 36.5t-159 100.5z" />
<glyph unicode="&#x438;" horiz-adv-x="1148" d="M154 0v954h151v-706l467 706h223v-954h-153v791l-531 -791h-157z" />
<glyph unicode="&#x439;" horiz-adv-x="1148" d="M154 0h157l531 791v-791h153v954h-223l-467 -706v706h-151v-954zM315 1413h91q12 -76 55.5 -117t113.5 -41t114 41.5t56 116.5h91q0 -115 -73.5 -201t-187.5 -86q-80 0 -141 44t-90 108t-29 135z" />
<glyph unicode="&#x43a;" horiz-adv-x="997" d="M154 0v954h163v-393h103l328 393h198l-368 -430q140 -78 234.5 -215.5t133.5 -308.5h-184q-80 290 -295 420h-150v-420h-163z" />
<glyph unicode="&#x43b;" horiz-adv-x="1153" d="M-31 68l41 73q59 -30 105 -30q103 0 121 159l73 684h690v-954h-163v813h-383l-58 -539q-16 -146 -70.5 -221.5t-160.5 -75.5q-116 0 -195 91z" />
<glyph unicode="&#x43c;" horiz-adv-x="1396" d="M154 0v954h258l290 -751l283 751h258v-954h-153v834l-316 -834h-147l-320 831v-831h-153z" />
<glyph unicode="&#x43d;" horiz-adv-x="1105" d="M154 0v954h163v-393h471v393h164v-954h-164v420h-471v-420h-163z" />
<glyph unicode="&#x43e;" horiz-adv-x="1089" d="M92 469q0 240 130 379t345 139q99 0 181 -40.5t136 -109.5t83.5 -159.5t29.5 -192.5q0 -240 -130 -379t-345 -139q-99 0 -181 40.5t-136 109.5t-83.5 159.5t-29.5 192.5zM262 504q0 -77 16.5 -146t50 -127.5t92.5 -93.5t136 -35q86 0 149 53t92 130.5t29 165.5 q0 77 -16.5 145.5t-50 127.5t-92.5 93.5t-136 34.5q-86 0 -149 -53t-92 -130t-29 -165z" />
<glyph unicode="&#x43f;" horiz-adv-x="1075" d="M154 0v954h768v-954h-164v813h-441v-813h-163z" />
<glyph unicode="&#x440;" horiz-adv-x="1120" d="M154 -502v1456h90l51 -112q142 145 303 145q99 0 181 -40.5t136 -109.5t83.5 -159.5t29.5 -192.5q0 -240 -127.5 -379t-325.5 -139q-66 0 -136.5 26.5t-121.5 76.5v-572h-163zM317 227q50 -63 119 -88.5t133 -25.5q132 0 210.5 96.5t78.5 241.5q0 76 -16.5 143.5 t-50 124.5t-92.5 90t-136 33q-69 0 -144 -39.5t-102 -97.5v-478z" />
<glyph unicode="&#x441;" horiz-adv-x="956" d="M92 473q0 118 37 216.5t99.5 162.5t144.5 99.5t172 35.5q92 0 175 -31t138 -79l-31 -119q-42 26 -70 40t-85.5 29t-120.5 15q-129 0 -209 -99.5t-80 -244.5q0 -176 90 -280.5t258 -104.5q60 0 128 21t106 52l41 -73q-60 -72 -152.5 -109t-187.5 -37q-106 0 -193.5 43 t-143.5 115t-86 161.5t-30 186.5z" />
<glyph unicode="&#x442;" horiz-adv-x="944" d="M51 813v141h842v-141h-340v-813h-164v813h-338z" />
<glyph unicode="&#x443;" horiz-adv-x="987" d="M41 954h180l285 -764l276 764h174l-585 -1456h-170l221 512z" />
<glyph unicode="&#x444;" horiz-adv-x="1310" d="M92 473q0 117 39 212.5t106.5 158t153.5 99t184 44.5v522h160v-522q119 -6 214.5 -53.5t152.5 -121t87 -158.5t30 -173q0 -118 -39.5 -213.5t-107.5 -158t-154 -98.5t-183 -44v-471h-160v471q-96 5 -177 37t-136.5 82t-94.5 114.5t-57 133.5t-18 139zM262 498 q0 -78 17.5 -144t53.5 -120.5t97.5 -89t144.5 -42.5v750q-141 -9 -227 -110.5t-86 -243.5zM735 102q139 7 226.5 110t87.5 245q0 77 -18 142.5t-54.5 119.5t-98 88.5t-143.5 42.5v-748z" />
<glyph unicode="&#x445;" horiz-adv-x="987" d="M31 0l362 475l-356 479h196l261 -370l260 370h196l-362 -473l368 -481h-208l-263 371l-266 -371h-188z" />
<glyph unicode="&#x446;" horiz-adv-x="1114" d="M154 0v954h163v-813h441v813h164v-813h141v-424h-141v283h-768z" />
<glyph unicode="&#x447;" horiz-adv-x="1003" d="M51 614v340h164v-280q0 -121 44 -181.5t165 -60.5q65 0 145 40t117 83v399h164v-954h-164v410q-68 -55 -156.5 -89t-183.5 -34q-138 0 -216.5 79t-78.5 248z" />
<glyph unicode="&#x448;" horiz-adv-x="1454" d="M154 0v954h163v-813h328v813h164v-813h328v813h163v-954h-1146z" />
<glyph unicode="&#x449;" horiz-adv-x="1492" d="M154 0v954h163v-813h328v813h164v-813h328v813h163v-813h142v-424h-142v283h-1146z" />
<glyph unicode="&#x44a;" horiz-adv-x="1042" d="M-31 813v141h406v-393h178q215 0 316.5 -68.5t101.5 -213.5q0 -134 -99 -206.5t-286 -72.5h-375v813h-242zM375 141h188q238 0 238 144q0 27 -8 48t-30.5 42.5t-70 33t-117.5 11.5h-200v-279z" />
<glyph unicode="&#x44b;" horiz-adv-x="1404" d="M154 0v954h163v-393h179q215 0 316 -68.5t101 -213.5q0 -134 -99 -206.5t-286 -72.5h-374zM317 141h189q237 0 237 144q0 27 -8 48t-30 42.5t-69.5 33t-117.5 11.5h-201v-279zM1079 0v954h164v-954h-164z" />
<glyph unicode="&#x44c;" horiz-adv-x="985" d="M154 0v954h163v-393h179q215 0 316 -68.5t101 -213.5q0 -134 -99 -206.5t-286 -72.5h-374zM317 141h189q237 0 237 144q0 27 -8 48t-30 42.5t-69.5 33t-117.5 11.5h-201v-279z" />
<glyph unicode="&#x44d;" horiz-adv-x="956" d="M72 94l51 92q38 -31 105.5 -52t127.5 -21q148 0 232 81.5t102 225.5h-450v141h450q-19 121 -98 201t-189 80q-63 0 -121 -15t-88 -29.5t-71 -39.5l-31 119q54 47 140 78.5t178 31.5q88 0 169.5 -35.5t145 -99.5t101.5 -162.5t38 -216.5q0 -97 -28.5 -186.5t-82 -161.5 t-139.5 -115t-192 -43q-95 0 -192 33t-158 94z" />
<glyph unicode="&#x44e;" horiz-adv-x="1548" d="M145 0v954h164v-393h248q25 200 150.5 313t318.5 113q99 0 181 -40.5t136 -109.5t83.5 -159.5t29.5 -192.5q0 -240 -130 -379t-345 -139q-184 0 -299 129t-129 324h-244v-420h-164zM721 504q0 -77 16.5 -146t50 -127.5t92.5 -93.5t136 -35q86 0 149 53t92 130.5t29 165.5 q0 77 -16.5 145.5t-50 127.5t-92.5 93.5t-136 34.5q-86 0 -149 -53t-92 -130t-29 -165z" />
<glyph unicode="&#x44f;" horiz-adv-x="1028" d="M51 0l303 371q-118 18 -184 95t-66 189q0 136 100.5 217.5t284.5 81.5h385v-954h-163v352h-176l-289 -352h-195zM274 649q0 -162 205 -162h232v326h-199q-69 0 -118.5 -15t-74 -40.5t-35 -52t-10.5 -56.5z" />
<glyph unicode="&#x451;" horiz-adv-x="1019" d="M92 473q0 233 121.5 373.5t304.5 140.5q182 0 295.5 -115t114.5 -319l-51 -113h-621q16 -156 106.5 -243.5t258.5 -87.5q59 0 126.5 23t106.5 54l41 -73q-60 -72 -152.5 -109t-187.5 -37q-113 0 -203.5 43t-146 115t-84.5 161t-29 187zM201 1264q0 43 32.5 76.5 t75.5 33.5t77 -33.5t34 -76.5t-34 -76t-77 -33t-75.5 33t-32.5 76zM258 559h516q0 142 -71.5 217.5t-176.5 75.5q-118 0 -188.5 -82.5t-79.5 -210.5zM608 1264q0 43 33 76.5t76 33.5t76.5 -33.5t33.5 -76.5t-33.5 -76t-76.5 -33t-76 33t-33 76z" />
<glyph unicode="&#x452;" horiz-adv-x="1101" d="M31 1178v100h123v231h163v-231h355v-100h-355v-314q68 55 156.5 89t183.5 34q138 0 216.5 -79.5t78.5 -248.5v-647q0 -79 -22.5 -138.5t-61 -93t-83.5 -49.5t-97 -16q-117 0 -196 70l40 74q67 -23 109 -23q73 0 110 54.5t37 158.5v551q0 122 -43.5 182t-164.5 60 q-65 0 -146 -40t-117 -83v-719h-163v1178h-123z" />
<glyph unicode="&#x453;" horiz-adv-x="747" d="M154 0v954h542v-141h-379v-813h-163zM240 1149l227 348l143 -92l-305 -299z" />
<glyph unicode="&#x454;" horiz-adv-x="956" d="M92 473q0 118 37 216.5t99.5 162.5t144.5 99.5t172 35.5q92 0 175 -31t138 -79l-31 -119q-42 26 -70 40t-85.5 29t-120.5 15q-114 0 -190.5 -79.5t-94.5 -201.5h471v-141h-471q19 -143 107 -225t237 -82q60 0 128 21t106 52l41 -73q-60 -72 -152.5 -109t-187.5 -37 q-106 0 -193.5 43t-143.5 115t-86 161.5t-30 186.5z" />
<glyph unicode="&#x455;" horiz-adv-x="892" d="M92 104l51 93q51 -45 127.5 -70t141.5 -25q99 0 161 37t62 105q0 34 -22.5 63.5t-59 49.5t-83 42t-95.5 40.5t-95.5 45.5t-83 56.5t-59 74t-22.5 97.5q0 124 93.5 199t240.5 75q85 0 169 -31.5t138 -78.5l-31 -119q-137 94 -270 94q-85 0 -133 -32.5t-48 -94.5 q0 -37 29 -66.5t75 -51.5t101.5 -44t111.5 -48.5t102 -59.5t75 -83.5t29 -113.5q0 -128 -94 -209.5t-269 -81.5q-93 0 -188.5 36.5t-153.5 100.5z" />
<glyph unicode="&#x456;" horiz-adv-x="526" d="M154 1264q0 46 31 78t77 32t78.5 -32t32.5 -78t-32.5 -77.5t-78.5 -31.5t-77 31.5t-31 77.5zM178 0v954h164v-954h-164z" />
<glyph unicode="&#x457;" horiz-adv-x="526" d="M-20 1264q0 46 32 78t76 32q46 0 78.5 -33t32.5 -77t-32.5 -76.5t-78.5 -32.5q-45 0 -76.5 32t-31.5 77zM180 0v954h164v-954h-164zM328 1264q0 46 32 78t76 32q46 0 78.5 -33t32.5 -77t-32.5 -76.5t-78.5 -32.5q-45 0 -76.5 32t-31.5 77z" />
<glyph unicode="&#x458;" horiz-adv-x="520" d="M-102 -459q78 -69 196 -69q52 0 97 16t83.5 49.5t61 93t22.5 138.5v1185h-163v-1149q0 -104 -37.5 -158.5t-110.5 -54.5q-41 0 -108 23zM168 1264q0 46 31 78t77 32t78.5 -32t32.5 -78t-32.5 -77.5t-78.5 -31.5t-77 31.5t-31 77.5z" />
<glyph unicode="&#x459;" horiz-adv-x="1574" d="M-31 68l41 73q59 -30 105 -30q103 0 121 159l73 684h598v-393h178q215 0 316.5 -68.5t101.5 -213.5q0 -134 -99 -206.5t-286 -72.5h-375v813h-290l-58 -539q-16 -146 -70.5 -221.5t-160.5 -75.5q-116 0 -195 91zM907 141h189q237 0 237 144q0 27 -8 48t-30 42.5t-69.5 33 t-117.5 11.5h-201v-279z" />
<glyph unicode="&#x45a;" horiz-adv-x="1579" d="M143 0v954h164v-393h441v393h163v-393h179q215 0 316 -68.5t101 -213.5q0 -134 -99 -206.5t-286 -72.5h-374v420h-441v-420h-164zM911 141h189q237 0 237 144q0 27 -8 48t-30 42.5t-69.5 33t-117.5 11.5h-201v-279z" />
<glyph unicode="&#x45b;" horiz-adv-x="1101" d="M31 1178v100h123v231h163v-231h355v-100h-355v-314q68 55 156.5 89t183.5 34q138 0 216.5 -79.5t78.5 -248.5v-659h-164v600q0 122 -43.5 182t-164.5 60q-65 0 -146 -40t-117 -83v-719h-163v1178h-123z" />
<glyph unicode="&#x45c;" horiz-adv-x="997" d="M154 0v954h163v-393h103l328 393h198l-368 -430q140 -78 234.5 -215.5t133.5 -308.5h-184q-80 290 -295 420h-150v-420h-163zM338 1149l227 348l144 -92l-306 -299z" />
<glyph unicode="&#x45e;" horiz-adv-x="987" d="M41 954h180l285 -764l276 764h174l-585 -1456h-170l221 512zM252 1413h90q12 -75 56 -116.5t114 -41.5t114 41.5t56 116.5h90q0 -115 -73 -201t-187 -86q-80 0 -141 44t-90 108t-29 135z" />
<glyph unicode="&#x45f;" horiz-adv-x="1085" d="M154 0v954h163v-813h451v813h164v-954h-316v-283h-141v283h-321z" />
<glyph unicode="&#x490;" horiz-adv-x="1017" d="M174 0v1341h662v283h151v-434h-639v-1190h-174z" />
<glyph unicode="&#x491;" horiz-adv-x="747" d="M154 0v954h401v283h141v-424h-379v-813h-163z" />
<glyph unicode="&#x4d9;" horiz-adv-x="1019" d="M72 401l51 113h620q-16 157 -106 244.5t-258 87.5q-59 0 -127 -23t-107 -55l-41 74q60 71 152.5 108t187.5 37q113 0 203.5 -43t146 -115t84.5 -161t29 -187q0 -233 -121.5 -373.5t-304.5 -140.5q-89 0 -163.5 29t-129 83t-85 136.5t-31.5 185.5zM225 395 q0 -142 71.5 -217.5t176.5 -75.5q118 0 188.5 82.5t79.5 210.5h-516z" />
<glyph unicode="&#x1d62;" horiz-adv-x="432" d="M135 553q0 35 23 58.5t57 23.5t57 -23.5t23 -58.5q0 -34 -23 -56t-57 -22t-57 22t-23 56zM152 -260v627h124v-627h-124z" />
<glyph unicode="&#x1d63;" horiz-adv-x="612" d="M147 -260v629h68l37 -76q37 43 87 66.5t95 23.5q66 0 107 -41l-27 -102q-67 24 -104 24q-83 0 -138 -61v-463h-125z" />
<glyph unicode="&#x1d64;" horiz-adv-x="804" d="M127 -63v432h125v-394q0 -72 26.5 -108.5t96.5 -36.5q42 0 86 23t71 51v465h123v-629h-67l-37 76q-46 -46 -105.5 -71.5t-119.5 -25.5q-93 0 -146 53t-53 165z" />
<glyph unicode="&#x1d65;" horiz-adv-x="741" d="M63 367h138l174 -463l170 463h133l-252 -627h-111z" />
<glyph unicode="&#x1e80;" horiz-adv-x="2088" d="M31 1341h192l371 -1134l346 1134h215l354 -1134l363 1134h186l-463 -1341h-186l-367 1124l-362 -1124h-186zM809 1651l111 125l327 -293l-53 -60z" />
<glyph unicode="&#x1e81;" horiz-adv-x="1579" d="M31 954h180l244 -764l252 764h172l258 -764l237 764h174l-344 -954h-145l-273 776l-266 -776h-145zM614 1405l144 92l227 -348l-65 -43z" />
<glyph unicode="&#x1e82;" horiz-adv-x="2088" d="M31 1341h192l371 -1134l346 1134h215l354 -1134l363 1134h186l-463 -1341h-186l-367 1124l-362 -1124h-186zM850 1483l328 293l110 -125l-385 -228z" />
<glyph unicode="&#x1e83;" horiz-adv-x="1579" d="M31 954h180l244 -764l252 764h172l258 -764l237 764h174l-344 -954h-145l-273 776l-266 -776h-145zM612 1149l228 348l143 -92l-305 -299z" />
<glyph unicode="&#x1e84;" horiz-adv-x="2088" d="M31 1341h192l371 -1134l346 1134h215l354 -1134l363 1134h186l-463 -1341h-186l-367 1124l-362 -1124h-186zM723 1579q0 46 31.5 78.5t76.5 32.5q46 0 78.5 -32.5t32.5 -78.5t-32.5 -77.5t-78.5 -31.5t-77 31.5t-31 77.5zM1159 1579q0 46 31.5 78.5t77.5 32.5t78 -32.5 t32 -78.5t-32 -77.5t-78 -31.5t-77.5 31.5t-31.5 77.5z" />
<glyph unicode="&#x1e85;" horiz-adv-x="1579" d="M31 954h180l244 -764l252 764h172l258 -764l237 764h174l-344 -954h-145l-273 776l-266 -776h-145zM477 1264q0 43 33 76.5t76 33.5t76.5 -33.5t33.5 -76.5t-33.5 -76t-76.5 -33t-76 33t-33 76zM885 1264q0 43 32.5 76.5t75.5 33.5t77 -33.5t34 -76.5t-34 -76t-77 -33 t-75.5 33t-32.5 76z" />
<glyph unicode="&#x1ef2;" horiz-adv-x="1212" d="M31 1341h194l385 -634l385 634h187l-490 -772v-569h-174v567zM336 1651l110 125l328 -293l-53 -60z" />
<glyph unicode="&#x1ef3;" horiz-adv-x="987" d="M41 954h180l285 -764l276 764h174l-585 -1456h-170l221 512zM274 1405l144 92l227 -348l-65 -43z" />
<glyph unicode="&#x2000;" horiz-adv-x="969" />
<glyph unicode="&#x2001;" horiz-adv-x="1939" />
<glyph unicode="&#x2002;" horiz-adv-x="969" />
<glyph unicode="&#x2003;" horiz-adv-x="1939" />
<glyph unicode="&#x2004;" horiz-adv-x="646" />
<glyph unicode="&#x2005;" horiz-adv-x="484" />
<glyph unicode="&#x2006;" horiz-adv-x="323" />
<glyph unicode="&#x2007;" horiz-adv-x="323" />
<glyph unicode="&#x2008;" horiz-adv-x="242" />
<glyph unicode="&#x2009;" horiz-adv-x="387" />
<glyph unicode="&#x200a;" horiz-adv-x="107" />
<glyph unicode="&#x2010;" horiz-adv-x="675" d="M92 420v141h492v-141h-492z" />
<glyph unicode="&#x2011;" horiz-adv-x="675" d="M92 420v141h492v-141h-492z" />
<glyph unicode="&#x2012;" horiz-adv-x="675" d="M92 420v141h492v-141h-492z" />
<glyph unicode="&#x2013;" horiz-adv-x="1146" d="M92 420v141h963v-141h-963z" />
<glyph unicode="&#x2014;" horiz-adv-x="2068" d="M92 420v141h1884v-141h-1884z" />
<glyph unicode="&#x2018;" horiz-adv-x="358" d="M33 1020l117 489h79v-489h-196z" />
<glyph unicode="&#x2019;" horiz-adv-x="368" d="M119 1020v489h196l-116 -489h-80z" />
<glyph unicode="&#x201a;" horiz-adv-x="430" d="M139 170h197l-117 -489h-80v489z" />
<glyph unicode="&#x201c;" horiz-adv-x="727" d="M33 1020l117 489h79v-489h-196zM401 1020l117 489h80v-489h-197z" />
<glyph unicode="&#x201d;" horiz-adv-x="737" d="M119 1020v489h196l-116 -489h-80zM487 1020v489h197l-117 -489h-80z" />
<glyph unicode="&#x201e;" horiz-adv-x="798" d="M139 170h197l-117 -489h-80v489zM508 170h197l-117 -489h-80v489z" />
<glyph unicode="&#x2020;" horiz-adv-x="841" d="M72 879v141h272v321h154v-321h272v-141h-272v-1047h-154v1047h-272z" />
<glyph unicode="&#x2021;" horiz-adv-x="841" d="M72 158v141h272v580h-272v141h272v321h154v-321h272v-141h-272v-580h272v-141h-272v-326h-154v326h-272z" />
<glyph unicode="&#x2022;" horiz-adv-x="862" d="M174 528q0 106 75.5 181t182.5 75q106 0 181 -75t75 -181q0 -107 -75.5 -182.5t-182.5 -75.5q-106 0 -181 76t-75 182z" />
<glyph unicode="&#x202f;" horiz-adv-x="387" />
<glyph unicode="&#x2030;" horiz-adv-x="2347" d="M102 999q0 162 87.5 253t224.5 91q150 0 229.5 -100t79.5 -272q0 -151 -87 -244.5t-222 -93.5q-148 0 -230 104t-82 262zM231 1010q0 -111 48 -186.5t145 -75.5q84 0 128 62t44 151q0 54 -9.5 100t-30.5 85.5t-59.5 62t-90.5 22.5q-81 0 -128 -66t-47 -155zM369 0 l725 1309h120l-725 -1309h-120zM870 346q0 162 87.5 253t224.5 91q150 0 229.5 -100.5t79.5 -272.5q0 -151 -87 -244t-222 -93q-148 0 -230 104t-82 262zM999 356q0 -111 48 -186.5t145 -75.5q84 0 128 62t44 151q0 54 -9.5 100t-30.5 85.5t-59.5 62.5t-90.5 23 q-80 0 -127.5 -66.5t-47.5 -155.5zM1624 346q0 162 87 253t224 91q150 0 230 -100.5t80 -272.5q0 -151 -87.5 -244t-222.5 -93q-148 0 -229.5 104t-81.5 262zM1753 356q0 -111 48 -186.5t145 -75.5q84 0 128 62t44 151q0 73 -16.5 131t-61 99t-113.5 41q-80 0 -127 -66.5 t-47 -155.5z" />
<glyph unicode="&#x2039;" horiz-adv-x="600" d="M92 494l354 356l50 -49l-166 -307l168 -308l-52 -47z" />
<glyph unicode="&#x203a;" horiz-adv-x="598" d="M80 186l168 308l-166 307l49 49l354 -356l-354 -355z" />
<glyph unicode="&#x2044;" horiz-adv-x="108" d="M-369 0l725 1309h121l-725 -1309h-121z" />
<glyph unicode="&#x205f;" horiz-adv-x="484" />
<glyph unicode="&#x2070;" horiz-adv-x="794" d="M100 1083q0 88 16.5 164.5t50 140.5t93 101t137.5 37q82 0 142 -41t92 -111t46.5 -148.5t14.5 -168.5q0 -80 -16 -152.5t-49.5 -136t-92.5 -101.5t-137 -38q-67 0 -119.5 28.5t-85 73.5t-54 106.5t-30 121.5t-8.5 124zM233 1102q0 -45 3 -85.5t13.5 -92.5t28.5 -88.5 t51.5 -62t78.5 -25.5q43 0 74 27t47 72.5t23 92.5t7 98q0 33 -1 60t-4.5 67t-10.5 70.5t-19.5 64t-30.5 55t-45 36t-61 14.5q-44 0 -75.5 -29t-48 -77t-23.5 -97t-7 -100z" />
<glyph unicode="&#x2071;" horiz-adv-x="432" d="M135 1462q0 35 23 58.5t57 23.5t57 -23.5t23 -58.5q0 -34 -23 -56t-57 -22t-57 22t-23 56zM152 649v627h124v-627h-124z" />
<glyph unicode="&#x2074;" horiz-adv-x="749" d="M68 854v90l366 557h121v-538h119v-109h-119v-205h-131v205h-356zM205 963h219v362z" />
<glyph unicode="&#x2075;" horiz-adv-x="712" d="M94 653l27 105q74 -8 121 -8q114 0 183 39.5t69 117.5t-47.5 117t-118.5 39q-79 0 -154 -45l-57 31v452h456v-117h-333v-233q62 25 125 25q125 0 194.5 -72t69.5 -178q0 -128 -99.5 -209.5t-273.5 -81.5q-40 0 -80.5 4.5t-61.5 8.5z" />
<glyph unicode="&#x2076;" horiz-adv-x="737" d="M84 1018q0 136 41.5 246.5t131.5 181t216 70.5q38 0 72 -6t49 -12l14 -7l-26 -102q-52 14 -95 14q-52 0 -96 -18.5t-74.5 -49t-53 -70.5t-34 -82t-14.5 -85q77 82 182 82q125 0 196 -76.5t71 -188.5q0 -117 -75.5 -201.5t-209.5 -84.5q-132 0 -213.5 103t-81.5 286z M223 979q3 -97 46.5 -165.5t125.5 -68.5q64 0 99.5 46.5t35.5 109.5q0 67 -40 114.5t-109 47.5q-48 0 -90.5 -23t-67.5 -61z" />
<glyph unicode="&#x2077;" horiz-adv-x="675" d="M68 1384v117h542v-110l-282 -742h-142l291 735h-409z" />
<glyph unicode="&#x2078;" horiz-adv-x="741" d="M80 881q0 126 145 217q-121 80 -121 198q0 108 75.5 169t180.5 61q103 0 180.5 -61t77.5 -167q0 -119 -131 -196q78 -42 122 -91.5t44 -125.5q0 -119 -84 -186.5t-204 -67.5q-117 0 -201 65t-84 185zM215 891q0 -71 47.5 -108.5t114.5 -37.5q60 0 101.5 35.5t41.5 102.5 q0 22 -11 41.5t-26 34t-45.5 32t-53 28.5t-65.5 30q-104 -65 -104 -158zM240 1296q0 -49 37.5 -81t111.5 -68q92 63 92 135q0 59 -32 95t-93 36q-49 0 -82.5 -32t-33.5 -85z" />
<glyph unicode="&#x2079;" horiz-adv-x="737" d="M80 1251q0 120 75 197.5t203 77.5q101 0 171.5 -55.5t101.5 -143t31 -199.5q0 -72 -9.5 -136.5t-36 -130.5t-68 -113t-110.5 -77t-159 -30q-39 0 -72.5 4t-47.5 8l-14 4l25 105q39 -8 94 -8q254 0 266 286q-34 -33 -85 -53t-93 -20q-65 0 -118 26t-86 68t-50.5 91 t-17.5 99zM215 1266q0 -86 47 -132.5t119 -46.5q50 0 88.5 20.5t60.5 49.5q-3 115 -50.5 184.5t-121.5 69.5q-62 0 -102.5 -40.5t-40.5 -104.5z" />
<glyph unicode="&#x207a;" horiz-adv-x="796" d="M92 971v110h250v250h111v-250h252v-110h-252v-252h-111v252h-250z" />
<glyph unicode="&#x207b;" horiz-adv-x="796" d="M92 971v110h613v-110h-613z" />
<glyph unicode="&#x207c;" horiz-adv-x="796" d="M92 840v110h613v-110h-613zM92 1102v110h613v-110h-613z" />
<glyph unicode="&#x207d;" horiz-adv-x="518" d="M78 1069q0 163 88 338t242 299l47 -80q-117 -103 -180.5 -253.5t-63.5 -295.5q0 -144 63.5 -295.5t180.5 -257.5l-37 -61l-12 -4q-161 119 -244.5 280.5t-83.5 329.5z" />
<glyph unicode="&#x207e;" horiz-adv-x="518" d="M43 524q117 106 180.5 257.5t63.5 295.5q0 145 -63.5 295.5t-180.5 253.5l47 80q154 -124 242 -299t88 -338q0 -168 -83.5 -329.5t-244.5 -280.5l-12 4z" />
<glyph unicode="&#x207f;" horiz-adv-x="804" d="M147 649v629h68l37 -76q101 96 227 96q91 0 144 -52.5t53 -164.5v-432h-123v393q0 72 -26.5 108t-98.5 36q-34 0 -82 -24t-74 -50v-463h-125z" />
<glyph unicode="&#x2080;" horiz-adv-x="794" d="M100 174q0 88 16.5 164.5t50 140t93 100.5t137.5 37q82 0 142 -41t92 -111t46.5 -148.5t14.5 -168.5q0 -80 -16 -152.5t-49.5 -136t-92.5 -101.5t-137 -38q-67 0 -119.5 28.5t-85 74t-54 107t-30 121.5t-8.5 124zM233 193q0 -45 3 -85.5t13.5 -92.5t28.5 -89t51.5 -62.5 t78.5 -25.5q43 0 74 27.5t47 73t23 92.5t7 98q0 33 -1 60t-4.5 67t-10.5 70.5t-19.5 64t-30.5 55t-45 36t-61 14.5q-44 0 -75.5 -29t-48 -77t-23.5 -97t-7 -100z" />
<glyph unicode="&#x2081;" horiz-adv-x="518" d="M51 446v76l322 92v-874h-129v706h-193z" />
<glyph unicode="&#x2082;" horiz-adv-x="694" d="M78 -168q62 42 123.5 94.5t125 120t103 144.5t39.5 145q0 71 -43 117.5t-125 46.5q-87 0 -192 -76l-29 104q42 37 106 62.5t136 25.5q119 0 200.5 -75.5t81.5 -200.5q0 -121 -90 -253t-225 -232h348v-115h-559v92z" />
<glyph unicode="&#x2083;" horiz-adv-x="714" d="M86 528q40 38 102.5 63t133.5 25q107 0 181.5 -60t74.5 -155q0 -63 -39.5 -115t-104.5 -79q191 -33 191 -211q0 -122 -106.5 -193t-270.5 -71q-38 0 -78 4t-61 8l-21 4l27 105q70 -9 121 -9q113 0 183 41.5t70 118.5q0 29 -10.5 51.5t-31.5 36.5t-45 23.5t-57.5 14 t-62.5 6t-67 1.5v109q99 3 163 38.5t64 100.5q0 51 -41.5 83t-97.5 32q-87 0 -188 -76z" />
<glyph unicode="&#x2084;" horiz-adv-x="749" d="M68 35l366 557h121v-539h119v-108h-119v-205h-131v205h-356v90zM205 53h219v363z" />
<glyph unicode="&#x2085;" horiz-adv-x="712" d="M94 -256l27 104q74 -8 121 -8q114 0 183 39.5t69 118.5q0 78 -47.5 117t-118.5 39q-79 0 -154 -45l-57 30v453h456v-117h-333v-233q60 24 125 24q125 0 194.5 -72t69.5 -178q0 -128 -99.5 -209t-273.5 -81q-40 0 -80.5 4.5t-61.5 9.5z" />
<glyph unicode="&#x2086;" horiz-adv-x="737" d="M84 109q0 101 24.5 189.5t71.5 158t122.5 109.5t170.5 40q38 0 72 -6t49 -12l14 -6l-26 -103q-52 15 -95 15q-64 0 -116.5 -28t-84 -73.5t-49.5 -97.5t-22 -107q77 82 182 82q125 0 196 -76t71 -188q0 -117 -75.5 -202t-209.5 -85q-132 0 -213.5 103t-81.5 287zM223 70 q3 -97 46.5 -165.5t125.5 -68.5q64 0 99.5 46.5t35.5 109.5q0 67 -40 114.5t-109 47.5q-48 0 -90.5 -23t-67.5 -61z" />
<glyph unicode="&#x2087;" horiz-adv-x="675" d="M68 473v117h542v-111l-282 -741h-142l291 735h-409z" />
<glyph unicode="&#x2088;" horiz-adv-x="741" d="M80 -29q0 126 145 217q-121 80 -121 199q0 108 75 168.5t181 60.5q103 0 180.5 -60.5t77.5 -166.5q0 -119 -131 -196q78 -42 122 -92t44 -126q0 -119 -84 -186.5t-204 -67.5q-117 0 -201 65t-84 185zM215 -18q0 -71 47.5 -108.5t114.5 -37.5q60 0 101.5 35t41.5 102 q0 22 -11 41.5t-26 34t-45.5 32t-53 28.5t-65.5 30q-104 -65 -104 -157zM240 387q0 -49 37.5 -81t111.5 -68q92 63 92 135q0 59 -32 95t-93 36q-49 0 -82.5 -32t-33.5 -85z" />
<glyph unicode="&#x2089;" horiz-adv-x="737" d="M80 342q0 120 75 197t203 77q77 0 136 -31.5t95.5 -86.5t54.5 -125.5t18 -153.5q0 -72 -9.5 -136.5t-36 -130.5t-68 -113t-110.5 -77t-159 -30q-39 0 -72.5 4t-47.5 8l-14 4l25 105q39 -9 94 -9q254 0 266 287q-34 -33 -85.5 -53.5t-92.5 -20.5q-85 0 -149 45 t-93.5 108.5t-29.5 131.5zM215 356q0 -86 46.5 -132t119.5 -46q50 0 88.5 20.5t60.5 49.5q-3 115 -50.5 184.5t-121.5 69.5q-62 0 -102.5 -41t-40.5 -105z" />
<glyph unicode="&#x208a;" horiz-adv-x="796" d="M92 59v111h250v250h111v-250h252v-111h-252v-252h-111v252h-250z" />
<glyph unicode="&#x208b;" horiz-adv-x="796" d="M92 59v111h613v-111h-613z" />
<glyph unicode="&#x208c;" horiz-adv-x="796" d="M92 37h613v-111h-613v111zM92 188v111h613v-111h-613z" />
<glyph unicode="&#x208d;" horiz-adv-x="518" d="M78 156q0 163 88 338t242 299l47 -80q-117 -103 -180.5 -253.5t-63.5 -295.5q0 -144 63.5 -295.5t180.5 -257.5l-37 -62l-12 -4q-161 119 -244.5 280.5t-83.5 330.5z" />
<glyph unicode="&#x208e;" horiz-adv-x="518" d="M43 -389q117 106 180.5 257.5t63.5 295.5q0 145 -63.5 295.5t-180.5 253.5l47 80q154 -124 242 -299t88 -338q0 -169 -83.5 -330.5t-244.5 -280.5l-12 4z" />
<glyph unicode="&#x20ac;" horiz-adv-x="1232" d="M82 494v120h852v-120h-567q88 -371 444 -371q154 0 303 117l45 -86q-3 -4 -8 -10.5t-23.5 -26t-39.5 -37.5t-55.5 -39.5t-72 -37t-89 -26t-105.5 -10.5q-108 0 -199.5 29.5t-155.5 79t-113 118.5t-77 143t-43 157h-96zM82 735v121h96q21 112 67.5 204.5t119 163.5 t176.5 110.5t231 39.5q209 0 367 -129l-35 -135q-105 59 -179.5 84t-174.5 25q-139 0 -248 -100t-146 -263h578v-121h-852z" />
<glyph unicode="&#x2113;" horiz-adv-x="919" d="M51 492v122h135q0 124 11 246t38.5 250t70 223.5t112 157t157.5 61.5q59 0 105.5 -26.5t75 -67t47.5 -93.5t26 -101t7 -93q0 -157 -41 -288t-109 -214.5t-153.5 -129t-176.5 -45.5q0 -57 6.5 -107.5t23.5 -102t44 -88.5t71.5 -60t102.5 -23q70 0 133.5 29.5t89.5 64.5 l41 -74q-60 -81 -137.5 -123.5t-191.5 -42.5q-67 0 -122 22.5t-91.5 63.5t-63.5 90.5t-42.5 112t-23 118.5t-10.5 118h-135zM356 614q93 0 165.5 77.5t108.5 194t36 244.5q0 26 -1 51t-7.5 69.5t-18 76t-35 56t-55.5 24.5q-48 0 -87.5 -87.5t-61 -217t-33 -257.5t-11.5 -231 z" />
<glyph unicode="&#x2116;" horiz-adv-x="2166" d="M154 0v1341h243l641 -1050v1050h168v-1341h-174l-710 1163v-1163h-168zM1458 909q0 158 86.5 249t227.5 91q129 0 206.5 -95t77.5 -232q0 -158 -86 -249t-227 -91q-129 0 -207 95t-78 232zM1481 377v121h553v-121h-553zM1587 932q0 -63 17 -117t59 -91.5t102 -37.5 q77 0 119.5 64t42.5 149q0 47 -10 89t-30.5 78t-56 57.5t-81.5 21.5q-77 0 -119.5 -64t-42.5 -149z" />
<glyph unicode="&#x2122;" horiz-adv-x="1576" d="M92 1276v98h529v-98h-209v-561h-111v561h-209zM741 715v659h179l174 -510l172 510h178v-659h-107v561l-200 -561h-88l-201 561v-561h-107z" />
<glyph unicode="&#x2126;" horiz-adv-x="1478" d="M113 0v152h286q-266 242 -266 606q0 117 40 226t114 196.5t190.5 140.5t257.5 53q122 0 223.5 -36t171 -98t117.5 -146.5t70 -180t22 -200.5q0 -157 -72 -303.5t-194 -257.5h293v-152h-502v152q136 86 215.5 241.5t79.5 337.5q0 90 -29 176.5t-81.5 156.5t-135 112.5 t-180.5 42.5q-85 0 -156.5 -31.5t-119 -83.5t-81 -120.5t-48.5 -141.5t-15 -148q0 -163 86.5 -315t214.5 -229v-150h-501z" />
<glyph unicode="&#x212e;" horiz-adv-x="1425" d="M92 618q0 117 50.5 225.5t135.5 188.5t203.5 128t249.5 48q132 0 246 -54t191 -143.5t121 -206.5t44 -243q0 -17 -4 -41h-1036v-268q78 -101 203.5 -152t261.5 -51q107 0 224.5 58t182.5 143l60 -57q-89 -113 -223 -169.5t-285 -56.5q-181 0 -324.5 86.5t-222 235 t-78.5 329.5zM293 616h837v306q0 8 -37.5 43.5t-52.5 46.5q-139 112 -348 112q-108 0 -221 -57t-178 -143v-308z" />
<glyph unicode="&#x2153;" horiz-adv-x="1544" d="M92 1159v76l322 92v-874h-129v706h-193zM254 0l725 1309h121l-725 -1309h-121zM903 788q40 38 102.5 63.5t133.5 25.5q107 0 181.5 -60t74.5 -155q0 -63 -40 -115.5t-104 -79.5q191 -33 191 -211q0 -122 -106.5 -193t-270.5 -71q-38 0 -78 4t-61 8l-21 4l27 105 q70 -9 121 -9q113 0 183.5 41.5t70.5 118.5q0 35 -16.5 60t-41 39t-64 22t-73.5 10t-80 2v109q99 3 163.5 38.5t64.5 100.5q0 51 -42 83t-98 32q-87 0 -188 -76z" />
<glyph unicode="&#x2154;" horiz-adv-x="1765" d="M92 453v92q62 42 123.5 94.5t125 120t103 144.5t39.5 145q0 70 -43 116.5t-125 46.5q-89 0 -192 -75l-29 104q42 37 106 62.5t136 25.5q119 0 200.5 -75.5t81.5 -200.5q0 -121 -90.5 -253.5t-224.5 -232.5h348v-114h-559zM485 0l725 1309h121l-725 -1309h-121zM1124 788 q40 38 102.5 63.5t133.5 25.5q107 0 181.5 -60t74.5 -155q0 -63 -39.5 -115.5t-103.5 -79.5q190 -33 190 -211q0 -122 -106.5 -193t-270.5 -71q-38 0 -78 4t-61 8l-21 4l27 105q70 -9 121 -9q113 0 183.5 41.5t70.5 118.5q0 35 -16.5 60t-41 39t-64 22t-73.5 10t-80 2v109 q99 3 163.5 38.5t64.5 100.5q0 51 -42 83t-98 32q-87 0 -188 -76z" />
<glyph unicode="&#x215b;" horiz-adv-x="1540" d="M92 1159v76l322 92v-874h-129v706h-193zM264 0l725 1309h121l-725 -1309h-121zM874 231q0 -120 84 -184.5t201 -64.5q120 0 204.5 67.5t84.5 186.5q0 76 -44 125.5t-122 91.5q131 77 131 196q0 106 -77.5 167t-180.5 61q-105 0 -180.5 -61t-75.5 -169q0 -118 121 -198 q-146 -91 -146 -218zM1010 242q0 92 104 157q43 -19 65.5 -30t53 -28.5t45.5 -32t26 -34t11 -41.5q0 -67 -42 -102t-102 -35q-67 0 -114 37.5t-47 108.5zM1034 647q0 52 34 84.5t83 32.5q61 0 93 -36t32 -95q0 -72 -92 -135q-49 24 -76.5 40.5t-50.5 45.5t-23 63z" />
<glyph unicode="&#x215c;" horiz-adv-x="1650" d="M106 1241q40 38 102.5 63t133.5 25q107 0 181.5 -60t74.5 -155q0 -63 -39.5 -115t-103.5 -79q190 -33 190 -211q0 -122 -106.5 -193.5t-270.5 -71.5q-38 0 -78 4t-60 8l-21 5l26 104q70 -8 121 -8q113 0 183.5 41.5t70.5 118.5q0 29 -10.5 51.5t-31.5 36.5t-45 23.5 t-57.5 14t-62.5 6t-67 1.5v108q99 3 163 38.5t64 101.5q0 51 -41.5 82.5t-97.5 31.5q-90 0 -189 -75zM395 0l725 1309h121l-725 -1309h-121zM985 231q0 -120 84 -184.5t201 -64.5q120 0 204.5 67.5t84.5 186.5q0 76 -44 125.5t-122 91.5q131 77 131 196q0 106 -77.5 167 t-180.5 61q-105 0 -180.5 -61t-75.5 -169q0 -119 120 -198q-145 -91 -145 -218zM1120 242q0 92 105 157q42 -19 65 -30t53 -28.5t45 -32t26 -34t11 -41.5q0 -67 -41.5 -102t-101.5 -35q-67 0 -114.5 37.5t-47.5 108.5zM1145 647q0 52 34 84.5t83 32.5q61 0 92.5 -36 t31.5 -95q0 -72 -92 -135q-74 36 -111.5 68t-37.5 81z" />
<glyph unicode="&#x215d;" horiz-adv-x="1662" d="M121 457l26 104q74 -8 121 -8q114 0 183 39.5t69 118.5q0 78 -47.5 116.5t-118.5 38.5q-78 0 -153 -45l-58 31v453h457v-117h-334v-234q62 25 125 25q125 0 194.5 -72t69.5 -178q0 -128 -99 -209.5t-273 -81.5q-40 0 -80.5 5t-60.5 9zM408 0l725 1309h120l-725 -1309 h-120zM997 231q0 -120 84 -184.5t201 -64.5q120 0 204.5 67.5t84.5 186.5q0 76 -44 125.5t-122 91.5q131 77 131 196q0 106 -77.5 167t-180.5 61q-105 0 -180.5 -61t-75.5 -169q0 -118 121 -198q-146 -91 -146 -218zM1133 242q0 92 104 157q43 -19 65.5 -30t53 -28.5 t45.5 -32t26 -34t11 -41.5q0 -67 -42 -102t-102 -35q-67 0 -114 37.5t-47 108.5zM1157 647q0 52 34 84.5t83 32.5q61 0 93 -36t32 -95q0 -72 -92 -135q-49 24 -76.5 40.5t-50.5 45.5t-23 63z" />
<glyph unicode="&#x215e;" horiz-adv-x="1484" d="M92 1186v117h543v-111l-283 -741h-141l291 735h-410zM229 0l725 1309h121l-725 -1309h-121zM819 231q0 -120 84 -184.5t201 -64.5q120 0 204.5 67.5t84.5 186.5q0 76 -44 125.5t-122 91.5q131 77 131 196q0 106 -77.5 167t-180.5 61q-105 0 -180.5 -61t-75.5 -169 q0 -118 121 -198q-146 -91 -146 -218zM954 242q0 92 105 157q43 -19 65.5 -30t53 -28.5t45.5 -32t26 -34t11 -41.5q0 -67 -42 -102t-102 -35q-67 0 -114.5 37.5t-47.5 108.5zM979 647q0 52 34 84.5t83 32.5q61 0 93 -36t32 -95q0 -71 -93 -135q-74 36 -111.5 68t-37.5 81z " />
<glyph unicode="&#x2190;" horiz-adv-x="1331" d="M102 543l441 438l47 -49l-178 -318h817v-141h-821l182 -321l-47 -50z" />
<glyph unicode="&#x2191;" horiz-adv-x="1331" d="M225 686l441 440l438 -440l-49 -47l-318 176v-815h-141v817l-322 -178z" />
<glyph unicode="&#x2192;" horiz-adv-x="1331" d="M102 473v141h818l-179 318l47 49l441 -438l-441 -441l-47 50l181 321h-820z" />
<glyph unicode="&#x2193;" horiz-adv-x="1331" d="M227 440l49 47l322 -178v817h141v-815l318 176l49 -47l-438 -440z" />
<glyph unicode="&#x2196;" horiz-adv-x="1331" d="M266 293v620h621v-67l-352 -101l577 -579l-100 -98l-580 577l-98 -352h-68z" />
<glyph unicode="&#x2197;" horiz-adv-x="1331" d="M219 166l578 579l-353 101v67h621v-620h-68l-100 352l-578 -577z" />
<glyph unicode="&#x2198;" horiz-adv-x="1331" d="M219 803l100 98l578 -579l100 354h68v-621h-621v68l353 100z" />
<glyph unicode="&#x2199;" horiz-adv-x="1331" d="M266 55v621h68l98 -354l580 579l100 -98l-577 -580l352 -100v-68h-621z" />
<glyph unicode="&#x2202;" horiz-adv-x="1052" d="M72 473q0 250 125 382t329 132q74 0 155.5 -26.5t113.5 -67.5q-8 138 -54.5 250t-135.5 183t-206 71q-143 0 -243 -49l-31 118q115 76 299 76q97 0 178 -33t137.5 -87t100.5 -130.5t70 -157t42.5 -173t22.5 -171.5t6 -159q0 -316 -115 -490t-356 -174q-105 0 -191 46 t-138.5 120t-80.5 162t-28 178zM242 498q0 -61 16.5 -125t49.5 -124t92 -98t135 -38q77 0 133 40.5t86 112.5t43.5 154t13.5 180q0 39 -4 109q-28 58 -101.5 95.5t-162.5 37.5q-70 0 -124 -22t-86.5 -56.5t-53.5 -81.5t-29 -91.5t-8 -92.5z" />
<glyph unicode="&#x2206;" horiz-adv-x="1294" d="M51 0l506 1341h184l502 -1341h-1192zM295 152h698l-350 985z" />
<glyph unicode="&#x220f;" horiz-adv-x="1443" d="M72 1190v151h1300v-151h-168v-1358h-174v1358h-616v-1358h-174v1358h-168z" />
<glyph unicode="&#x2211;" horiz-adv-x="1067" d="M72 -16l446 608l-446 598v151h923v-151h-723l445 -598l-445 -608h723v-152h-923v152z" />
<glyph unicode="&#x2212;" horiz-adv-x="1077" d="M72 473v141h934v-141h-934z" />
<glyph unicode="&#x221a;" horiz-adv-x="1173" d="M51 803v151h279l303 -710l479 1558h174l-571 -1802h-152l-362 803h-150z" />
<glyph unicode="&#x221e;" horiz-adv-x="1853" d="M72 569q0 160 112.5 273.5t272.5 113.5q64 0 128 -23.5t129 -71.5t107.5 -86t106.5 -101q58 59 104 101t108.5 87.5t127.5 69.5t129 24q160 0 272.5 -113.5t112.5 -273.5t-111.5 -272.5t-271.5 -112.5q-55 0 -111 18.5t-97.5 41.5t-96.5 69t-83 72.5t-83 81.5 q-53 -52 -84 -81t-85.5 -73.5t-96.5 -68t-97.5 -42t-107.5 -18.5q-159 0 -272 113t-113 272zM240 569q0 -94 67 -161.5t162 -67.5q57 0 130 41.5t125.5 87.5t102.5 100q-42 44 -76 76t-84.5 72t-101 62t-96.5 22q-94 0 -161.5 -68.5t-67.5 -163.5zM1024 569 q82 -88 180 -158.5t180 -70.5q95 0 162.5 67.5t67.5 161.5q0 95 -68 163.5t-162 68.5q-138 0 -360 -232z" />
<glyph unicode="&#x222b;" horiz-adv-x="856" d="M-154 -293l33 119q148 -51 240 -51q51 0 88.5 15t60 40.5t36 65.5t18 82.5t4.5 99.5v1038q0 197 91.5 311.5t278.5 114.5q61 0 138 -21t135 -57l-31 -121q-139 54 -242 54q-51 0 -88.5 -15t-60 -40.5t-36 -65.5t-18 -82.5t-4.5 -99.5v-1039q0 -197 -91.5 -311.5 t-278.5 -114.5q-61 0 -138 21t-135 57z" />
<glyph unicode="&#x2248;" horiz-adv-x="1101" d="M72 266l114 176q2 3 4.5 7t13 15t22.5 19.5t31 15.5t40 7q70 0 262 -57.5t246 -57.5q9 0 18 2.5t20.5 10t20 13.5t24 20.5t24 22.5t29 28t30.5 30l59 -37l-115 -176q-4 -7 -12 -17.5t-36.5 -28t-61.5 -17.5q-70 0 -262 57t-246 57q-9 0 -18 -2.5t-20.5 -10t-20 -13.5 t-24 -20.5t-24 -22.5t-29 -28t-30.5 -30zM72 600l114 176q2 3 4.5 7t13 15t22.5 19.5t31 15.5t40 7q70 0 262 -57.5t246 -57.5q9 0 18 2.5t20.5 10t20 13.5t24 20.5t24 22.5t29 28t30.5 30l59 -37l-115 -176q-4 -7 -12 -17.5t-36.5 -28.5t-61.5 -18q-70 0 -262 57.5 t-246 57.5q-9 0 -18 -2.5t-20.5 -10t-20 -13.5t-24 -20.5t-24 -22.5t-29 -28t-30.5 -30z" />
<glyph unicode="&#x2260;" horiz-adv-x="1077" d="M72 291v141h336l149 223h-485v142h581l144 213h141l-143 -213h211v-142h-308l-149 -223h457v-141h-553l-158 -236h-141l157 236h-239z" />
<glyph unicode="&#x2264;" horiz-adv-x="1077" d="M72 0v141h934v-141h-934zM72 625v131l934 411v-161l-740 -316l740 -315v-162z" />
<glyph unicode="&#x2265;" horiz-adv-x="1077" d="M51 215v162l740 315l-740 316v161l934 -411v-131zM72 0v141h934v-141h-934z" />
<glyph unicode="&#x2460;" horiz-adv-x="1570" d="M82 670q0 143 55.5 273.5t149.5 225t224 150t273 55.5t273.5 -55.5t225 -150t150.5 -225t56 -273.5q0 -191 -94.5 -353t-257 -256t-353.5 -94q-143 0 -273 55.5t-224 149.5t-149.5 224.5t-55.5 273.5zM201 670q0 -159 77.5 -293.5t212 -212.5t293.5 -78t294 78 t213.5 212.5t78.5 293.5t-78.5 294t-213.5 213t-294 78q-119 0 -227 -46t-186 -124.5t-124 -187t-46 -227.5zM567 920h172v-637h117v788l-289 -82v-69z" />
<glyph unicode="&#x2461;" horiz-adv-x="1570" d="M82 670q0 143 55.5 273.5t149.5 225t224 150t273 55.5t273.5 -55.5t225 -150t150.5 -225t56 -273.5q0 -191 -94.5 -353t-257 -256t-353.5 -94q-143 0 -273 55.5t-224 149.5t-149.5 224.5t-55.5 273.5zM201 670q0 -159 77.5 -293.5t212 -212.5t293.5 -78t294 78 t213.5 212.5t78.5 293.5t-78.5 294t-213.5 213t-294 78q-119 0 -227 -46t-186 -124.5t-124 -187t-46 -227.5zM543 293h501v104h-313q122 91 203.5 209t81.5 228q0 113 -73.5 181t-180.5 68q-66 0 -123.5 -23t-93.5 -56l24 -95q97 68 174 68q73 0 112.5 -42t39.5 -106 q0 -61 -35.5 -129.5t-92.5 -129t-113 -108.5t-111 -85v-84z" />
<glyph unicode="&#x2462;" horiz-adv-x="1570" d="M82 670q0 143 55.5 273.5t149.5 225t224 150t273 55.5t273.5 -55.5t225 -150t150.5 -225t56 -273.5q0 -191 -94.5 -353t-257 -256t-353.5 -94q-143 0 -273 55.5t-224 149.5t-149.5 224.5t-55.5 273.5zM201 670q0 -159 77.5 -293.5t212 -212.5t293.5 -78t294 78 t213.5 212.5t78.5 293.5t-78.5 294t-213.5 213t-294 78q-119 0 -227 -46t-186 -124.5t-124 -187t-46 -227.5zM563 993q36 32 91.5 56t117.5 24q96 0 162.5 -53t66.5 -139q0 -59 -36.5 -107t-94.5 -72q72 -10 122 -56t50 -128q0 -110 -94 -172.5t-239 -62.5q-35 0 -71 4 t-54 8l-19 4l23 90q49 -6 106 -6q104 0 167 36.5t63 106.5q0 31 -14.5 52.5t-36.5 33.5t-57 19t-65 8.5t-73 1.5v96q89 5 145 37.5t56 91.5q0 46 -35 73.5t-88 27.5q-81 0 -166 -68z" />
<glyph unicode="&#x2463;" horiz-adv-x="1570" d="M82 670q0 143 55.5 273.5t149.5 225t224 150t273 55.5t273.5 -55.5t225 -150t150.5 -225t56 -273.5q0 -191 -94.5 -353t-257 -256t-353.5 -94q-143 0 -273 55.5t-224 149.5t-149.5 224.5t-55.5 273.5zM201 670q0 -159 77.5 -293.5t212 -212.5t293.5 -78t294 78 t213.5 212.5t78.5 293.5t-78.5 294t-213.5 213t-294 78q-119 0 -227 -46t-186 -124.5t-124 -187t-46 -227.5zM457 467h319v-184h119v184h106v96h-106v486h-109l-329 -502v-80zM580 563l196 328v-328h-196z" />
<glyph unicode="&#x2464;" horiz-adv-x="1570" d="M82 670q0 143 55.5 273.5t149.5 225t224 150t273 55.5t273.5 -55.5t225 -150t150.5 -225t56 -273.5q0 -191 -94.5 -353t-257 -256t-353.5 -94q-143 0 -273 55.5t-224 149.5t-149.5 224.5t-55.5 273.5zM201 670q0 -159 77.5 -293.5t212 -212.5t293.5 -78t294 78 t213.5 212.5t78.5 293.5t-78.5 294t-213.5 213t-294 78q-119 0 -227 -46t-186 -124.5t-124 -187t-46 -227.5zM561 293l23 94q63 -10 106 -10q104 0 166 36.5t62 106.5t-41 102.5t-109 32.5q-75 0 -139 -39l-51 29v406h411v-107h-301v-207q58 21 115 21q112 0 172.5 -63 t60.5 -158q0 -116 -87.5 -188.5t-243.5 -72.5q-34 0 -70 4t-55 8z" />
<glyph unicode="&#x2465;" horiz-adv-x="1570" d="M82 670q0 143 55.5 273.5t149.5 225t224 150t273 55.5t273.5 -55.5t225 -150t150.5 -225t56 -273.5q0 -191 -94.5 -353t-257 -256t-353.5 -94q-143 0 -273 55.5t-224 149.5t-149.5 224.5t-55.5 273.5zM201 670q0 -159 77.5 -293.5t212 -212.5t293.5 -78t294 78 t213.5 212.5t78.5 293.5t-78.5 294t-213.5 213t-294 78q-119 0 -227 -46t-186 -124.5t-124 -187t-46 -227.5zM498 616q0 -165 73 -257.5t193 -92.5q121 0 188.5 76t67.5 182q0 100 -64 169t-176 69q-95 0 -164 -74q3 49 19 96t44.5 88t75.5 66t105 25q17 0 38.5 -3.5 t34.5 -6.5l13 -3l25 92q-45 21 -123 21q-86 0 -154 -36t-110 -98.5t-64 -142t-22 -170.5zM623 582q53 73 143 73q62 0 97.5 -42.5t35.5 -102.5q0 -57 -31.5 -98t-89.5 -41q-73 0 -112.5 61.5t-42.5 149.5z" />
<glyph unicode="&#x2466;" horiz-adv-x="1570" d="M82 670q0 143 55.5 273.5t149.5 225t224 150t273 55.5t273.5 -55.5t225 -150t150.5 -225t56 -273.5q0 -191 -94.5 -353t-257 -256t-353.5 -94q-143 0 -273 55.5t-224 149.5t-149.5 224.5t-55.5 273.5zM201 670q0 -159 77.5 -293.5t212 -212.5t293.5 -78t294 78 t213.5 212.5t78.5 293.5t-78.5 294t-213.5 213t-294 78q-119 0 -227 -46t-186 -124.5t-124 -187t-46 -227.5zM547 942h368l-262 -661h129l254 667v99h-489v-105z" />
<glyph unicode="&#x2467;" horiz-adv-x="1570" d="M82 670q0 143 55.5 273.5t149.5 225t224 150t273 55.5t273.5 -55.5t225 -150t150.5 -225t56 -273.5q0 -191 -94.5 -353t-257 -256t-353.5 -94q-143 0 -273 55.5t-224 149.5t-149.5 224.5t-55.5 273.5zM201 670q0 -159 77.5 -293.5t212 -212.5t293.5 -78t294 78 t213.5 212.5t78.5 293.5t-78.5 294t-213.5 213t-294 78q-119 0 -227 -46t-186 -124.5t-124 -187t-46 -227.5zM526 494q0 -109 75.5 -167.5t180.5 -58.5q107 0 183.5 61.5t76.5 166.5q0 69 -39 113.5t-110 82.5q119 71 119 176q0 96 -70 150.5t-164 54.5t-161.5 -54.5 t-67.5 -152.5q0 -105 108 -178q-131 -81 -131 -194zM647 502q0 83 94 141q48 -21 73 -33.5t54 -31.5t41.5 -38.5t12.5 -43.5q0 -61 -37 -93t-92 -32q-61 0 -103.5 33.5t-42.5 97.5zM670 866q0 48 30.5 77.5t73.5 29.5q55 0 84 -33t29 -86q0 -65 -82 -121q-67 32 -101 61 t-34 72z" />
<glyph unicode="&#x2468;" horiz-adv-x="1570" d="M82 670q0 143 55.5 273.5t149.5 225t224 150t273 55.5t273.5 -55.5t225 -150t150.5 -225t56 -273.5q0 -191 -94.5 -353t-257 -256t-353.5 -94q-143 0 -273 55.5t-224 149.5t-149.5 224.5t-55.5 273.5zM201 670q0 -159 77.5 -293.5t212 -212.5t293.5 -78t294 78 t213.5 212.5t78.5 293.5t-78.5 294t-213.5 213t-294 78q-119 0 -227 -46t-186 -124.5t-124 -187t-46 -227.5zM535 827q0 -98 66 -177t179 -79q37 0 83 18t77 48q-12 -258 -240 -258q-22 0 -43 2t-31 4l-10 2l-22 -94q41 -14 119 -14q81 0 143.5 26.5t100 69t61.5 102 t32.5 117.5t8.5 123q0 155 -69.5 255.5t-203.5 100.5q-116 0 -183.5 -69.5t-67.5 -176.5zM657 840q0 58 36.5 94.5t92.5 36.5q66 0 108.5 -63t45.5 -167q-48 -61 -135 -61q-65 0 -106.5 42t-41.5 118z" />
<glyph unicode="&#x25a0;" horiz-adv-x="1751" d="M205 0v1341h1341v-1341h-1341z" />
<glyph unicode="&#x25aa;" horiz-adv-x="1363" d="M205 0v954h954v-954h-954z" />
<glyph unicode="&#x25ab;" horiz-adv-x="1363" d="M205 0v954h954v-954h-954zM326 121h712v713h-712v-713z" />
<glyph unicode="&#x25b2;" horiz-adv-x="1501" d="M205 0l545 987l546 -987h-1091z" />
<glyph unicode="&#x25b6;" horiz-adv-x="1355" d="M205 -33v1092l987 -545z" />
<glyph unicode="&#x25bc;" horiz-adv-x="1501" d="M205 954h1091l-546 -987z" />
<glyph unicode="&#x25c0;" horiz-adv-x="1355" d="M164 514l987 545v-1092z" />
<glyph unicode="&#x25c6;" horiz-adv-x="1132" d="M205 514l360 363l363 -363l-363 -360z" />
<glyph unicode="&#x25ca;" horiz-adv-x="1097" d="M51 584l432 757h131l433 -757l-433 -760h-131zM229 584l320 -566l319 566l-319 563z" />
<glyph unicode="&#x25cb;" horiz-adv-x="1388" d="M184 477q0 138 68.5 255.5t186 186t255.5 68.5t255.5 -68.5t186 -186t68.5 -255.5t-68.5 -255.5t-186 -186t-255.5 -68.5t-255.5 68.5t-186 186t-68.5 255.5zM305 477q0 -161 114 -275t275 -114q160 0 274.5 114t114.5 275q0 160 -114.5 274.5t-274.5 114.5 q-161 0 -275 -114.5t-114 -274.5z" />
<glyph unicode="&#x25cf;" horiz-adv-x="1388" d="M184 477q0 138 68.5 255.5t186 186t255.5 68.5t255.5 -68.5t186 -186t68.5 -255.5t-68.5 -255.5t-186 -186t-255.5 -68.5t-255.5 68.5t-186 186t-68.5 255.5z" />
<glyph unicode="&#x2612;" horiz-adv-x="1363" d="M205 0v954h954v-954h-954zM326 205l272 272l-272 275v-547zM408 121h548l-274 274zM412 834l270 -273l272 273h-542zM766 479l272 -272v545z" />
<glyph unicode="&#x2660;" horiz-adv-x="1474" d="M205 420q0 51 17 93t48 76.5t70 66.5t89 70.5t99 81t105.5 106t103.5 137.5q54 -85 121 -157.5t122.5 -115.5t111 -87.5t93.5 -79.5t61.5 -83.5t23.5 -107.5q0 -110 -78 -188t-188 -78q-84 0 -149.5 38t-96.5 105q0 -47 11.5 -87.5t37.5 -78t76.5 -59t120.5 -21.5v-51 h-533v51q70 0 120.5 21.5t76 59t36.5 78t11 87.5q-31 -67 -96.5 -105t-147.5 -38q-110 0 -188 78t-78 188z" />
<glyph unicode="&#x2663;" horiz-adv-x="1474" d="M205 420q0 110 78 188t188 78q3 0 9 -1t9 -1q-18 46 -18 102q0 110 78 188.5t188 78.5t188.5 -78.5t78.5 -188.5q0 -44 -21 -102q3 0 10.5 1t10.5 1q110 0 188 -78t78 -188t-78 -188t-188 -78q-84 0 -149.5 38t-96.5 105q0 -47 11.5 -87.5t37.5 -78t76.5 -59t120.5 -21.5 v-51h-533v51q70 0 120.5 21.5t76 59t36.5 78t11 87.5q-31 -67 -96.5 -105t-147.5 -38q-110 0 -188 78t-78 188z" />
<glyph unicode="&#x2665;" horiz-adv-x="1474" d="M205 756q0 110 78 188t188 78t188 -78t78 -188q0 110 78.5 188t188.5 78t188 -78t78 -188q0 -93 -62 -172l-471 -604l-467 595q-65 75 -65 181z" />
<glyph unicode="&#x2666;" horiz-adv-x="1132" d="M205 514l360 557l363 -557l-363 -567z" />
<glyph unicode="&#x2713;" horiz-adv-x="1665" d="M205 870l135 70l365 -727l616 1589l139 -49l-686 -1753h-131z" />
<glyph unicode="&#x2716;" horiz-adv-x="1341" d="M205 805l186 188l281 -280l272 270l180 -182l-270 -271l283 -282l-189 -187l-280 283l-273 -272l-182 180l272 272z" />
<glyph unicode="&#x271a;" horiz-adv-x="1441" d="M205 399v256h385v398h264v-398h383v-256h-383v-399h-264v399h-385z" />
<glyph unicode="&#x274d;" horiz-adv-x="1570" d="M82 670q0 143 55.5 273.5t149.5 225t224 150t273 55.5t273.5 -55.5t225 -150t150.5 -225t56 -273.5q0 -191 -94.5 -353t-257 -256t-353.5 -94q-143 0 -273 55.5t-224 149.5t-149.5 224.5t-55.5 273.5zM201 670q0 -159 77.5 -293.5t212 -212.5t293.5 -78t294 78 t213.5 212.5t78.5 293.5t-78.5 294t-213.5 213t-294 78q-119 0 -227 -46t-186 -124.5t-124 -187t-46 -227.5z" />
<glyph unicode="&#x274f;" horiz-adv-x="1751" d="M205 0v1341h1341v-1341h-1341zM334 129h1081v1081h-1081v-1081z" />
<glyph unicode="&#x2761;" horiz-adv-x="1337" d="M113 653q0 140 54.5 267t146 219.5t218.5 147t267 54.5v-1374q-186 0 -344 92t-250 250t-92 344zM713 -459q78 -69 196 -69q52 0 99 16t87.5 49.5t64.5 93t24 138.5v1572h-174v-1536q0 -104 -37.5 -158.5t-110.5 -54.5q-41 0 -108 23z" />
<glyph unicode="&#x2764;" horiz-adv-x="1933" d="M205 985q0 162 109.5 275.5t271.5 113.5q142 0 249.5 -93t127.5 -232h8q20 139 126.5 232t250.5 93q158 0 269.5 -111.5t111.5 -269.5q0 -136 -89 -243q-31 -38 -673 -783l-664 768q-98 113 -98 250z" />
<glyph unicode="&#x2776;" horiz-adv-x="1570" d="M82 670q0 143 55.5 273.5t149.5 225t224 150t273 55.5t273.5 -55.5t225 -150t150.5 -225t56 -273.5q0 -191 -94.5 -353t-257 -256t-353.5 -94q-143 0 -273 55.5t-224 149.5t-149.5 224.5t-55.5 273.5zM567 920h172v-637h117v788l-289 -82v-69z" />
<glyph unicode="&#x2777;" horiz-adv-x="1570" d="M82 670q0 143 55.5 273.5t149.5 225t224 150t273 55.5t273.5 -55.5t225 -150t150.5 -225t56 -273.5q0 -191 -94.5 -353t-257 -256t-353.5 -94q-143 0 -273 55.5t-224 149.5t-149.5 224.5t-55.5 273.5zM543 293h501v104h-313q122 91 203.5 209t81.5 228q0 113 -73.5 181 t-180.5 68q-66 0 -123.5 -23t-93.5 -56l24 -95q97 68 174 68q73 0 112.5 -42t39.5 -106q0 -61 -35.5 -129.5t-92.5 -129t-113 -108.5t-111 -85v-84z" />
<glyph unicode="&#x2778;" horiz-adv-x="1570" d="M82 670q0 143 55.5 273.5t149.5 225t224 150t273 55.5t273.5 -55.5t225 -150t150.5 -225t56 -273.5q0 -191 -94.5 -353t-257 -256t-353.5 -94q-143 0 -273 55.5t-224 149.5t-149.5 224.5t-55.5 273.5zM563 993l27 -94q85 68 166 68q53 0 88 -27.5t35 -73.5 q0 -59 -56 -91.5t-145 -37.5v-96q43 0 73 -1.5t65 -8.5t57 -19t36.5 -33.5t14.5 -52.5q0 -70 -63 -106.5t-167 -36.5l-106 6l-23 -90q66 -16 144 -16q145 0 239 62.5t94 172.5q0 82 -50 128t-122 56q58 24 94.5 72t36.5 107q0 86 -66.5 139t-162.5 53q-62 0 -117.5 -24 t-91.5 -56z" />
<glyph unicode="&#x2779;" horiz-adv-x="1570" d="M82 670q0 143 55.5 273.5t149.5 225t224 150t273 55.5t273.5 -55.5t225 -150t150.5 -225t56 -273.5q0 -191 -94.5 -353t-257 -256t-353.5 -94q-143 0 -273 55.5t-224 149.5t-149.5 224.5t-55.5 273.5zM457 467h319v-184h119v184h106v96h-106v486h-109l-329 -502v-80z M580 563l196 328v-328h-196z" />
<glyph unicode="&#x277a;" horiz-adv-x="1570" d="M82 670q0 143 55.5 273.5t150 225t224 150t272.5 55.5t273.5 -55.5t225 -150t150.5 -225t56 -273.5q0 -190 -94.5 -352t-257 -256.5t-353.5 -94.5q-190 0 -352 94.5t-256 256.5t-94 352zM561 293q68 -17 144 -17q156 0 243.5 72.5t87.5 188.5q0 95 -60.5 158t-172.5 63 q-57 0 -115 -21v207h301v107h-411v-406l51 -29q64 39 139 39q68 0 109 -32.5t41 -102.5t-62 -106.5t-166 -36.5q-19 0 -45.5 2.5t-43.5 4.5l-17 3z" />
<glyph unicode="&#x277b;" horiz-adv-x="1570" d="M82 670q0 143 55.5 273.5t149.5 225t224 150t273 55.5t273.5 -55.5t225 -150t150.5 -225t56 -273.5q0 -191 -94.5 -353t-257 -256t-353.5 -94q-143 0 -273 55.5t-224 149.5t-149.5 224.5t-55.5 273.5zM498 616q0 -165 73 -257.5t193 -92.5q121 0 188.5 76t67.5 182 q0 100 -64 169t-176 69q-95 0 -164 -74q3 49 19 96t44.5 88t75.5 66t105 25q17 0 38.5 -3.5t34.5 -6.5l13 -3l25 92q-45 21 -123 21q-86 0 -154 -36t-110 -98.5t-64 -142t-22 -170.5zM623 582q53 73 143 73q62 0 97.5 -42.5t35.5 -102.5q0 -57 -31.5 -98t-89.5 -41 q-73 0 -112.5 61.5t-42.5 149.5z" />
<glyph unicode="&#x277c;" horiz-adv-x="1570" d="M82 670q0 143 55.5 273.5t149.5 225t224 150t273 55.5t273.5 -55.5t225 -150t150.5 -225t56 -273.5q0 -191 -94.5 -353t-257 -256t-353.5 -94q-143 0 -273 55.5t-224 149.5t-149.5 224.5t-55.5 273.5zM547 942h368l-262 -661h129l254 667v99h-489v-105z" />
<glyph unicode="&#x277d;" horiz-adv-x="1570" d="M82 670q0 143 55.5 273.5t149.5 225t224 150t273 55.5t273.5 -55.5t225 -150t150.5 -225t56 -273.5q0 -191 -94.5 -353t-257 -256t-353.5 -94q-143 0 -273 55.5t-224 149.5t-149.5 224.5t-55.5 273.5zM526 494q0 -109 75.5 -167.5t180.5 -58.5q107 0 183.5 61.5 t76.5 166.5q0 69 -39 113.5t-110 82.5q119 71 119 176q0 96 -70 150.5t-164 54.5t-161.5 -54.5t-67.5 -152.5q0 -105 108 -178q-131 -81 -131 -194zM647 502q0 83 94 141q48 -21 73 -33.5t54 -31.5t41.5 -38.5t12.5 -43.5q0 -61 -37 -93t-92 -32q-61 0 -103.5 33.5 t-42.5 97.5zM670 866q0 48 30.5 77.5t73.5 29.5q55 0 84 -33t29 -86q0 -65 -82 -121q-67 32 -101 61t-34 72z" />
<glyph unicode="&#x277e;" horiz-adv-x="1570" d="M82 670q0 143 55.5 273.5t149.5 225t224 150t273 55.5t273.5 -55.5t225 -150t150.5 -225t56 -273.5q0 -191 -94.5 -353t-257 -256t-353.5 -94q-143 0 -273 55.5t-224 149.5t-149.5 224.5t-55.5 273.5zM535 827q0 -98 66 -177t179 -79q37 0 83 18t77 48 q-12 -258 -240 -258q-22 0 -43 2t-31 4l-10 2l-22 -94q41 -14 119 -14q81 0 143.5 26.5t100 69t61.5 102t32.5 117.5t8.5 123q0 155 -69.5 255.5t-203.5 100.5q-116 0 -183.5 -69.5t-67.5 -176.5zM657 840q0 58 36.5 94.5t92.5 36.5q66 0 108.5 -63t45.5 -167 q-48 -61 -135 -61q-65 0 -106.5 42t-41.5 118z" />
<glyph unicode="&#xe000;" horiz-adv-x="952" d="M0 0v952h952v-952h-952z" />
<glyph unicode="&#xf8ff;" horiz-adv-x="1343" d="M119 520q0 150 74.5 277.5t202 201.5t276.5 74q112 0 214.5 -44t176.5 -118t118 -176.5t44 -214.5t-44 -214.5t-118 -176.5t-176.5 -118t-214.5 -44q-149 0 -276.5 74t-202 201.5t-74.5 277.5zM213 520q0 -190 135 -324.5t324 -134.5q191 0 327 134.5t136 324.5 t-136.5 326.5t-326.5 136.5q-124 0 -230 -62.5t-167.5 -169t-61.5 -231.5zM397 518q0 151 82 236.5t221 85.5q59 0 113.5 -20.5t85.5 -49.5l-22 -72q-1 1 -13 7t-15.5 8t-15.5 7.5t-18.5 7.5t-19 6.5t-22 6.5t-22.5 4.5t-26 3.5t-27 1q-94 0 -144 -61t-50 -154 q0 -113 52.5 -177.5t164.5 -64.5q39 0 84 13.5t69 33.5l25 -47q-76 -90 -207 -90q-75 0 -133 26.5t-92.5 72t-52 100.5t-17.5 116zM514 1368l37 25l117 -103l116 103l37 -25l-131 -201h-45z" />
<glyph unicode="&#xfb06;" horiz-adv-x="1599" d="M92 104l51 93q51 -45 127.5 -70t141.5 -25q99 0 161 37t62 105q0 34 -22.5 63.5t-59 49.5t-83 42t-95.5 40.5t-95.5 45.5t-83 56.5t-59 74t-22.5 97.5q0 124 93.5 199t240.5 75q35 0 69 -6q-143 143 -143 285q0 138 95 202t261 64q85 0 231.5 -7t227.5 -16v-555h338v-141 h-338v-502q0 -108 41.5 -158.5t128.5 -50.5q62 0 127 25l41 -74q-35 -34 -97.5 -55t-127.5 -21q-139 0 -208 72t-69 225v539h-156v90l156 39v465q-180 16 -278 16q-50 0 -89 -7t-76.5 -24.5t-58 -55t-20.5 -91.5q0 -51 18.5 -99.5t58.5 -96.5t72.5 -80.5t89.5 -83.5l13 -8 l-31 -119q-137 94 -270 94q-85 0 -133 -32.5t-48 -94.5q0 -37 29 -66.5t75 -51.5t101.5 -44t111.5 -48.5t102 -59.5t75 -83.5t29 -113.5q0 -128 -94 -209.5t-269 -81.5q-93 0 -188.5 36.5t-153.5 100.5z" />
<glyph horiz-adv-x="1208" d="M174 0v1341h174v-587h152l432 587h196l-471 -639l443 -602q178 -252 346 -252q74 0 141 31l41 -74q-30 -43 -94.5 -67.5t-144.5 -24.5q-221 0 -426 287l-435 602h-180v-602h-174z" />
<glyph horiz-adv-x="1208" d="M174 0v1341h174v-587h152l432 587h196l-471 -639l443 -602q178 -252 346 -252q74 0 141 31l41 -74q-30 -43 -94.5 -67.5t-144.5 -24.5q-221 0 -426 287l-435 602h-180v-602h-174zM477 -170h174l-94 -369h-80v369z" />
<glyph horiz-adv-x="1443" d="M98 672q0 110 23 210t74 190.5t125 157t184.5 105.5t245.5 39q122 0 223 -41.5t169 -110t115 -160.5t68 -190.5t21 -201.5q0 -90 -15.5 -174t-49.5 -163t-84 -143.5t-122.5 -114.5t-161.5 -77l93 -219q80 -187 264 -187q54 0 116 33l41 -74q-78 -90 -215 -90 q-62 0 -115.5 18t-92 46t-71.5 70t-54.5 82.5t-40.5 89.5l-80 202q-10 0 -32 -1t-32 -1q-122 0 -223 41.5t-169 110.5t-115 161t-68 190.5t-21 201.5zM279 717q0 -104 15 -191.5t49.5 -163.5t87.5 -128.5t133 -82.5t181 -30q95 0 175.5 42.5t133 113t82 161t29.5 187.5 q0 131 -25 235.5t-78 186.5t-145.5 127t-218.5 45t-223.5 -72.5t-146.5 -185.5t-49 -244z" />
<glyph horiz-adv-x="1247" d="M174 0v1341h447q91 0 170.5 -21.5t146 -65t105 -120.5t38.5 -178q0 -165 -90 -266.5t-233 -138.5l329 -451q184 -252 347 -252q74 0 141 31l41 -74q-30 -43 -95 -67.5t-145 -24.5q-221 0 -426 287l-383 532h-219v-532h-174zM348 680h189q84 0 146 11t113.5 38.5t78 78.5 t26.5 126t-26 126.5t-76 79t-110.5 39t-141.5 11.5h-199v-510z" />
<glyph horiz-adv-x="1247" d="M174 0v1341h447q91 0 170.5 -21.5t146 -65t105 -120.5t38.5 -178q0 -165 -90 -266.5t-233 -138.5l329 -451q184 -252 347 -252q74 0 141 31l41 -74q-30 -43 -95 -67.5t-145 -24.5q-221 0 -426 287l-383 532h-219v-532h-174zM348 680h189q84 0 146 11t113.5 38.5t78 78.5 t26.5 126t-26 126.5t-76 79t-110.5 39t-141.5 11.5h-199v-510zM420 1483l328 293l110 -125l-385 -228z" />
<glyph horiz-adv-x="1247" d="M174 0v1341h447q91 0 170.5 -21.5t146 -65t105 -120.5t38.5 -178q0 -165 -90 -266.5t-233 -138.5l329 -451q184 -252 347 -252q74 0 141 31l41 -74q-30 -43 -95 -67.5t-145 -24.5q-221 0 -426 287l-383 532h-219v-532h-174zM270 1716l54 60l270 -205l270 205l54 -60 l-289 -293h-70zM348 680h189q84 0 146 11t113.5 38.5t78 78.5t26.5 126t-26 126.5t-76 79t-110.5 39t-141.5 11.5h-199v-510z" />
<glyph horiz-adv-x="1247" d="M174 0v1341h447q91 0 170.5 -21.5t146 -65t105 -120.5t38.5 -178q0 -165 -90 -266.5t-233 -138.5l329 -451q184 -252 347 -252q74 0 141 31l41 -74q-30 -43 -95 -67.5t-145 -24.5q-221 0 -426 287l-383 532h-219v-532h-174zM348 680h189q84 0 146 11t113.5 38.5t78 78.5 t26.5 126t-26 126.5t-76 79t-110.5 39t-141.5 11.5h-199v-510zM477 -170h174l-94 -369h-80v369z" />
<glyph horiz-adv-x="1118" d="M92 469q0 224 123 371t297 147q91 0 174.5 -41.5t136.5 -103.5l51 112h91v-1067q0 -192 -115.5 -309t-321.5 -117q-98 0 -191 34t-155 93l51 93q45 -26 77.5 -41t86.5 -29t111 -14q78 0 136 24t91.5 67t49.5 98.5t16 123.5v151q-40 -43 -115 -68.5t-162 -25.5 q-99 0 -181 40.5t-136.5 109.5t-84.5 160t-30 192zM262 504q0 -61 10 -116t33.5 -106t58 -88t87.5 -59t118 -22q76 0 142 33t90 81v480q-27 50 -94.5 92.5t-153.5 42.5q-132 0 -211.5 -96.5t-79.5 -241.5z" />
<glyph horiz-adv-x="1118" d="M92 469q0 224 123 371t297 147q91 0 174.5 -41.5t136.5 -103.5l51 112h91v-1067q0 -192 -115.5 -309t-321.5 -117q-98 0 -191 34t-155 93l51 93q45 -26 77.5 -41t86.5 -29t111 -14q78 0 136 24t91.5 67t49.5 98.5t16 123.5v151q-40 -43 -115 -68.5t-162 -25.5 q-99 0 -181 40.5t-136.5 109.5t-84.5 160t-30 192zM262 504q0 -61 10 -116t33.5 -106t58 -88t87.5 -59t118 -22q76 0 142 33t90 81v480q-27 50 -94.5 92.5t-153.5 42.5q-132 0 -211.5 -96.5t-79.5 -241.5zM305 1413h90q12 -75 56 -116.5t114 -41.5t114 41.5t56 116.5h90 q0 -115 -73 -201t-187 -86q-80 0 -141 44t-90 108t-29 135z" />
<glyph horiz-adv-x="1118" d="M92 469q0 224 123 371t297 147q91 0 174.5 -41.5t136.5 -103.5l51 112h91v-1067q0 -192 -115.5 -309t-321.5 -117q-98 0 -191 34t-155 93l51 93q45 -26 77.5 -41t86.5 -29t111 -14q78 0 136 24t91.5 67t49.5 98.5t16 123.5v151q-40 -43 -115 -68.5t-162 -25.5 q-99 0 -181 40.5t-136.5 109.5t-84.5 160t-30 192zM262 504q0 -61 10 -116t33.5 -106t58 -88t87.5 -59t118 -22q76 0 142 33t90 81v480q-27 50 -94.5 92.5t-153.5 42.5q-132 0 -211.5 -96.5t-79.5 -241.5zM303 1149l227 348h72l227 -348l-65 -43l-199 219l-196 -219z" />
<glyph horiz-adv-x="1118" d="M92 469q0 224 123 371t297 147q91 0 174.5 -41.5t136.5 -103.5l51 112h91v-1067q0 -192 -115.5 -309t-321.5 -117q-98 0 -191 34t-155 93l51 93q45 -26 77.5 -41t86.5 -29t111 -14q78 0 136 24t91.5 67t49.5 98.5t16 123.5v151q-40 -43 -115 -68.5t-162 -25.5 q-99 0 -181 40.5t-136.5 109.5t-84.5 160t-30 192zM262 504q0 -61 10 -116t33.5 -106t58 -88t87.5 -59t118 -22q76 0 142 33t90 81v480q-27 50 -94.5 92.5t-153.5 42.5q-132 0 -211.5 -96.5t-79.5 -241.5zM438 1141l94 368h80v-368h-174z" />
<glyph horiz-adv-x="1118" d="M92 469q0 224 123 371t297 147q91 0 174.5 -41.5t136.5 -103.5l51 112h91v-1067q0 -192 -115.5 -309t-321.5 -117q-98 0 -191 34t-155 93l51 93q45 -26 77.5 -41t86.5 -29t111 -14q78 0 136 24t91.5 67t49.5 98.5t16 123.5v151q-40 -43 -115 -68.5t-162 -25.5 q-99 0 -181 40.5t-136.5 109.5t-84.5 160t-30 192zM262 504q0 -61 10 -116t33.5 -106t58 -88t87.5 -59t118 -22q76 0 142 33t90 81v480q-27 50 -94.5 92.5t-153.5 42.5q-132 0 -211.5 -96.5t-79.5 -241.5zM446 1264q0 43 33 76.5t76 33.5t77 -33.5t34 -76.5t-34 -76t-77 -33 t-76 33t-33 76z" />
<glyph horiz-adv-x="1003" d="M154 0v1509h163v-948h103l328 393h198l-368 -430l299 -440q86 -127 163.5 -181.5t163.5 -54.5q84 0 148 31l41 -74q-30 -43 -95 -67.5t-145 -24.5q-223 0 -403 271l-293 436h-140v-420h-163z" />
<glyph horiz-adv-x="1003" d="M154 0v1509h163v-948h103l328 393h198l-368 -430l299 -440q86 -127 163.5 -181.5t163.5 -54.5q84 0 148 31l41 -74q-30 -43 -95 -67.5t-145 -24.5q-223 0 -403 271l-293 436h-140v-420h-163zM426 -170h174l-94 -369h-80v369z" />
<glyph horiz-adv-x="966" d="M-80 -449l41 74q62 -33 117 -33q73 0 135 46.5t100 140.5l99 231l-381 944h180l285 -764l276 764h174l-477 -1185q-21 -53 -39 -90.5t-48 -81.5t-62.5 -71.5t-80.5 -46t-104 -18.5q-137 0 -215 90z" />
<glyph horiz-adv-x="956" d="M-80 -449l41 74q62 -33 117 -33q73 0 135 46.5t100 140.5l99 231l-381 944h180l285 -764l276 764h174l-477 -1185q-21 -53 -39 -90.5t-48 -81.5t-62.5 -71.5t-80.5 -46t-104 -18.5q-137 0 -215 90zM350 1149l228 348l143 -92l-305 -299z" />
<glyph horiz-adv-x="956" d="M-80 -449l41 74q62 -33 117 -33q73 0 135 46.5t100 140.5l99 231l-381 944h180l285 -764l276 764h174l-477 -1185q-21 -53 -39 -90.5t-48 -81.5t-62.5 -71.5t-80.5 -46t-104 -18.5q-137 0 -215 90zM227 1149l228 348h71l228 -348l-66 -43l-199 219l-196 -219z" />
<glyph horiz-adv-x="956" d="M-80 -449l41 74q62 -33 117 -33q73 0 135 46.5t100 140.5l99 231l-381 944h180l285 -764l276 764h174l-477 -1185q-21 -53 -39 -90.5t-48 -81.5t-62.5 -71.5t-80.5 -46t-104 -18.5q-137 0 -215 90zM176 1264q0 43 33 76.5t76 33.5t76.5 -33.5t33.5 -76.5t-33.5 -76 t-76.5 -33t-76 33t-33 76zM584 1264q0 43 32.5 76.5t75.5 33.5t77 -33.5t34 -76.5t-34 -76t-77 -33t-75.5 33t-32.5 76z" />
<glyph horiz-adv-x="956" d="M-80 -449l41 74q62 -33 117 -33q73 0 135 46.5t100 140.5l99 231l-381 944h180l285 -764l276 764h174l-477 -1185q-21 -53 -39 -90.5t-48 -81.5t-62.5 -71.5t-80.5 -46t-104 -18.5q-137 0 -215 90zM264 1405l144 92l227 -348l-66 -43z" />
<glyph horiz-adv-x="665" d="M195 1257q0 49 34 83t84 34q49 0 83 -34t34 -83q0 -50 -34 -84t-83 -34t-83.5 34.5t-34.5 83.5zM213 0l45 901h107l45 -901h-197z" />
<glyph horiz-adv-x="897" d="M82 389q0 -167 134.5 -285t350.5 -118q79 0 170 16l-35 135q-62 -10 -110 -10q-138 0 -235 68t-97 192q0 86 70.5 143t216.5 60h49l-72 311h-90v-194q-88 -7 -157.5 -38t-110.5 -76t-62.5 -97t-21.5 -107zM379 1257q0 49 34.5 83t84.5 34q49 0 82.5 -33.5t33.5 -83.5 t-33.5 -84t-82.5 -34q-50 0 -84.5 34.5t-34.5 83.5z" />
<glyph horiz-adv-x="1413" d="M133 672q0 115 25 218t78.5 192t131.5 153.5t190 101.5t247 37q219 0 326.5 -110.5t107.5 -309.5v-567h-80l-61 113q-50 -64 -132.5 -105t-185.5 -41q-136 0 -220.5 76.5t-84.5 206.5q0 74 30 130.5t75.5 88.5t109.5 52.5t122.5 27t123.5 6.5h139v41q0 124 -81 185 t-218 61q-202 0 -337.5 -139.5t-135.5 -372.5q0 -99 16.5 -184.5t56 -164t100.5 -134t155 -88.5t213 -33q93 0 185 35t151 81l45 -86q-6 -7 -17 -19t-50.5 -42.5t-84.5 -53.5t-119.5 -42t-154.5 -19q-108 0 -200.5 23t-159.5 62t-120.5 94.5t-87.5 117.5t-56.5 132.5 t-32 138t-9.5 137.5zM641 655q0 -73 50.5 -119.5t144.5 -46.5q79 0 146 36t93 85v217h-104q-330 0 -330 -172z" />
<glyph horiz-adv-x="718" d="M113 645q0 256 132 524t365 457l58 -102q-121 -106 -208.5 -254.5t-129 -303.5t-41.5 -304q0 -230 99 -470t280 -405l-50 -88q-249 186 -377 435.5t-128 510.5z" />
<glyph horiz-adv-x="739" d="M72 -213q181 165 280 405t99 470q0 149 -41.5 304t-129 303.5t-208.5 254.5l57 102q233 -189 365.5 -457t132.5 -524q0 -261 -128 -510.5t-378 -435.5z" />
<glyph horiz-adv-x="663" d="M154 -281v1876h438v-114h-279v-1647h279v-115h-438z" />
<glyph horiz-adv-x="684" d="M92 -166h279v1647h-279v114h438v-1876h-438v115z" />
<glyph horiz-adv-x="720" d="M31 602v111h12q168 0 168 196v430q0 89 51.5 152.5t129.5 92t173 28.5v-111q-194 0 -194 -198v-431q0 -144 -123 -219q123 -78 123 -227v-414q0 -198 194 -198v-111q-70 0 -132.5 16.5t-112.5 49t-79.5 86t-29.5 120.5v414q0 103 -44 158t-124 55h-12z" />
<glyph horiz-adv-x="741" d="M176 -186q195 0 195 198v414q0 150 121 227q-121 74 -121 219v431q0 198 -195 198v111q95 0 173 -28.5t129.5 -92t51.5 -152.5v-430q0 -105 45.5 -150.5t135.5 -45.5v-111q-181 0 -181 -213v-414q0 -67 -29.5 -120.5t-79.5 -86t-112.5 -49t-132.5 -16.5v111z" />
<glyph horiz-adv-x="950" d="M92 668l354 356l50 -49l-166 -307l168 -308l-52 -47zM444 668l355 356l49 -49l-166 -307l168 -308l-51 -47z" />
<glyph horiz-adv-x="950" d="M80 362l168 308l-166 307l49 49l354 -356l-354 -355zM432 362l168 308l-166 307l49 49l355 -356l-355 -355z" />
<glyph horiz-adv-x="600" d="M92 668l354 356l50 -49l-166 -307l168 -308l-52 -47z" />
<glyph horiz-adv-x="598" d="M80 360l168 308l-166 307l49 49l354 -356l-354 -355z" />
<glyph horiz-adv-x="675" d="M92 594v141h492v-141h-492z" />
<glyph horiz-adv-x="1146" d="M92 594v141h963v-141h-963z" />
<glyph horiz-adv-x="2068" d="M92 594v141h1884v-141h-1884z" />
<glyph horiz-adv-x="419" d="M92 666q0 50 34 84t83 34q50 0 84.5 -34.5t34.5 -83.5t-34.5 -83t-84.5 -34q-49 0 -83 33.5t-34 83.5z" />
<glyph horiz-adv-x="1460" d="M113 348q0 109 62.5 209.5t182.5 169.5q-74 77 -113.5 146.5t-39.5 152.5q0 163 102.5 255.5t251.5 92.5q167 0 270 -107t103 -313h477v-141h-195q0 -164 -45.5 -306.5t-119.5 -248.5l260 -258l-119 -113l-244 244q-178 -164 -395 -164q-191 0 -314.5 108t-123.5 273z M283 373q0 -119 81.5 -189.5t213.5 -70.5q74 0 143.5 32.5t120.5 90.5l-387 393q-83 -46 -127.5 -114.5t-44.5 -141.5zM371 1067q0 -33 4 -56.5t24 -59t37.5 -59.5t71.5 -82t96.5 -101.5t139.5 -141.5q123 -123 198 -200q111 155 111 446h-273v121q0 125 -56 211t-169 86 q-85 0 -134.5 -50.5t-49.5 -113.5z" />
<glyph horiz-adv-x="1099" d="M31 0l440 1020h158l440 -1020h-184l-92 223h-494l-90 -223h-178zM356 365h379l-190 462z" />
<glyph horiz-adv-x="1062" d="M164 0v1020h401q181 0 254.5 -65t73.5 -191q0 -87 -63.5 -149.5t-127.5 -73.5q269 -54 269 -248q0 -137 -102.5 -215t-323.5 -78h-381zM322 141h182q297 0 297 154q0 84 -71.5 117.5t-209.5 33.5h-198v-305zM322 588h159q242 0 242 162q0 129 -180 129h-221v-291z" />
<glyph horiz-adv-x="1067" d="M92 514q0 245 146 392t374 147q208 0 359 -117l-31 -121q-161 92 -328 92q-76 0 -137 -22.5t-100 -58.5t-65 -85t-37 -99t-11 -103q0 -62 11.5 -119t41 -114t75 -99t118 -68t164.5 -26q79 0 155 21.5t117 51.5l41 -73q-123 -146 -369 -146q-162 0 -282.5 73.5t-181 196.5 t-60.5 277z" />
<glyph horiz-adv-x="1142" d="M164 0v1020h375q129 0 228 -36.5t160.5 -103t92.5 -155t31 -195.5q0 -87 -15 -161t-52 -143.5t-95.5 -118t-151 -78t-211.5 -29.5h-362zM328 141h190q91 0 159.5 24.5t106.5 61.5t61 89t29.5 96t6.5 94q0 52 -8.5 98.5t-34 98.5t-67.5 89.5t-115.5 62t-170.5 24.5h-157 v-738z" />
<glyph horiz-adv-x="1019" d="M164 0v1020h710v-141h-546v-291h387v-142h-387v-305h590v-141h-754z" />
<glyph horiz-adv-x="935" d="M164 0v1020h710v-141h-546v-291h387v-142h-387v-446h-164z" />
<glyph horiz-adv-x="1161" d="M92 514q0 162 73.5 286t196.5 188.5t273 64.5q207 0 358 -117l-30 -121q-161 92 -308 92q-85 0 -153 -22.5t-112 -58.5t-73.5 -85t-42 -99t-12.5 -103q0 -122 38 -216.5t120 -152t198 -57.5q75 0 139.5 29.5t100.5 84.5v179h-223v141h387v-547h-90l-51 113 q-108 -146 -320 -146q-141 0 -250 80.5t-164 203.5t-55 263z" />
</font>
</defs>
</svg>
