<?xml version="1.0" standalone="no"?>
<!DOCTYPE svg PUBLIC "-//W3C//DTD SVG 1.1//EN" "http://www.w3.org/Graphics/SVG/1.1/DTD/svg11.dtd" >
<svg xmlns="http://www.w3.org/2000/svg">
<metadata></metadata>
<defs>
<font id="samo_sans_prolight" horiz-adv-x="1126" >
<font-face units-per-em="2048" ascent="1509" descent="-539" />
<missing-glyph horiz-adv-x="518" />
<glyph unicode="&#x2e;&#x2e;&#x2e;" horiz-adv-x="1728" d="M201 68q0 40 27.5 69t68.5 29q40 0 69 -29t29 -69t-29 -68.5t-69 -28.5q-41 0 -68.5 28.5t-27.5 68.5zM766 68q0 40 27.5 69t68.5 29q40 0 69.5 -29t29.5 -69t-29.5 -68.5t-69.5 -28.5q-41 0 -68.5 28.5t-27.5 68.5zM1331 68q0 40 27.5 69t68.5 29q40 0 69.5 -29 t29.5 -69t-29.5 -68.5t-69.5 -28.5q-41 0 -68.5 28.5t-27.5 68.5z" />
<glyph unicode="ff" horiz-adv-x="1280" d="M72 838v71l143 31v190q0 187 97 289.5t253 102.5q65 0 115 -19l-25 -94q-33 8 -73 8q-122 0 -181 -77t-59 -238v-154h463v193q0 191 88 294t246 103q138 0 235 -63l-24 -95q-99 47 -199 47q-108 0 -163.5 -73.5t-55.5 -239.5v-166h315v-110h-315v-838h-127v838h-463v-838 h-127v838h-143z" />
<glyph unicode="fi" horiz-adv-x="1097" d="M72 838v71l143 31v188q0 189 111.5 299.5t294.5 110.5q93 0 168 -22t116 -50l-24 -94q-112 55 -263 55q-138 0 -207 -83.5t-69 -237.5v-158h588v-948h-127v838h-461v-838h-127v838h-143z" />
<glyph unicode="fl" horiz-adv-x="1112" d="M72 838v71l143 31v195q0 188 111 295.5t295 107.5q43 0 92 -4t122.5 -13t108.5 -12v-1509h-127v1411q-122 16 -199 16q-139 0 -207.5 -81t-68.5 -234v-164h315v-110h-315v-838h-127v838h-143z" />
<glyph unicode="ffi" horiz-adv-x="1687" d="M72 838v71l143 31v190q0 187 97 289.5t253 102.5q65 0 115 -19l-25 -94q-33 8 -73 8q-122 0 -181 -77t-59 -238v-154h463v180q0 189 111 299.5t294 110.5q95 0 170.5 -22t114.5 -50l-22 -94q-117 55 -263 55q-140 0 -209 -83.5t-69 -237.5v-158h590v-948h-127v838h-463 v-838h-127v838h-463v-838h-127v838h-143z" />
<glyph unicode="ffl" horiz-adv-x="1701" d="M72 838v71l143 31v190q0 187 97 289.5t253 102.5q65 0 115 -19l-25 -94q-33 8 -73 8q-122 0 -181 -77t-59 -238v-154h463v187q0 188 110.5 295.5t294.5 107.5q43 0 92 -4t125 -13t109 -12v-1509h-127v1411q-125 16 -199 16q-278 0 -278 -315v-164h328v-110h-328v-838 h-127v838h-463v-838h-127v838h-143z" />
<glyph unicode="&#x17f;t" horiz-adv-x="1275" d="M72 838v71l143 31v201q0 189 93.5 293t252.5 104q142 0 234 -65l-23 -93q-103 47 -199 47q-231 0 -231 -315v-1112h-127v838h-143zM584 838v71l149 33l58 234h63v-228h338v-110h-338v-553q0 -209 172 -209q72 0 133 30l33 -59q-35 -32 -92.5 -51t-116.5 -19 q-256 0 -256 277v584h-143z" />
<glyph unicode="f&#xed;" horiz-adv-x="1150" d="M72 838v71l143 31v195q0 199 83 301t226 102q114 0 217 -65l-22 -93q-102 47 -178 47q-102 0 -150.5 -73.5t-48.5 -241.5v-164h602v-948h-127v838h-475v-838h-127v838h-143zM776 1149l223 340l113 -72l-285 -303z" />
<glyph unicode="f&#x13e;" horiz-adv-x="1116" d="M72 838v71l143 31v195q0 188 111 295.5t295 107.5q43 0 92 -4t122.5 -13t108.5 -12v-1509h-127v1411q-122 16 -199 16q-139 0 -207.5 -81t-68.5 -234v-164h315v-110h-315v-838h-127v838h-143zM1079 1114v395h135l-69 -395h-66z" />
<glyph unicode="fj" horiz-adv-x="1097" d="M72 838v71l143 31v188q0 189 111.5 299.5t294.5 110.5q93 0 168 -22t116 -50l-24 -94q-112 55 -263 55q-138 0 -207 -83.5t-69 -237.5v-158h588v-1196q0 -141 -69 -208.5t-173 -67.5q-107 0 -180 61l33 60q64 -25 112 -25q150 0 150 213v1053h-461v-838h-127v838h-143z " />
<glyph unicode="ffj" horiz-adv-x="1687" d="M72 838v71l143 31v190q0 187 97 289.5t253 102.5q65 0 115 -19l-25 -94q-33 8 -73 8q-122 0 -181 -77t-59 -238v-154h463v135q0 215 106.5 335t298.5 120q95 0 170.5 -22t114.5 -50l-22 -94q-117 55 -263 55q-140 0 -209 -83.5t-69 -237.5v-158h590v-1196 q0 -141 -70 -208.5t-174 -67.5q-108 0 -178 61l33 60q64 -25 110 -25q152 0 152 213v1053h-463v-838h-127v838h-463v-838h-127v838h-143z" />
<glyph unicode="fb" horiz-adv-x="1761" d="M72 838v71l143 31v195q0 188 111 295.5t295 107.5q43 0 92 -4t122.5 -13t108.5 -12v-647q123 117 293 117q187 0 302.5 -140.5t115.5 -355.5q0 -237 -122.5 -375.5t-305.5 -138.5q-83 0 -161.5 36t-137.5 108l-41 -113h-70v1411q-122 16 -199 16q-139 0 -207.5 -81 t-68.5 -234v-164h315v-110h-315v-838h-127v838h-143zM944 221q86 -137 266 -137q138 0 226 105t88 266q0 178 -82.5 294.5t-231.5 116.5q-75 0 -147 -30.5t-119 -83.5v-531z" />
<glyph unicode="ffb" horiz-adv-x="2351" d="M72 838v71l143 31v190q0 187 97 289.5t253 102.5q65 0 115 -19l-25 -94q-33 8 -73 8q-122 0 -181 -77t-59 -238v-154h463v150q0 213 106.5 326.5t298.5 113.5q43 0 92 -4t125 -13t109 -12v-647q123 117 293 117q187 0 302.5 -140.5t115.5 -355.5q0 -237 -122.5 -375.5 t-305.5 -138.5q-83 0 -161.5 36t-137.5 108l-41 -113h-70v1411q-125 16 -199 16q-278 0 -278 -315v-164h315v-110h-315v-838h-127v838h-463v-838h-127v838h-143zM1536 221q86 -137 266 -137q138 0 226 105t88 266q0 178 -82.5 294.5t-231.5 116.5q-75 0 -147 -30.5 t-119 -83.5v-531z" />
<glyph unicode="fh" horiz-adv-x="1740" d="M72 838v71l143 31v195q0 188 111 295.5t295 107.5q43 0 92 -4t122.5 -13t108.5 -12v-657q70 58 160.5 92.5t183.5 34.5q138 0 214.5 -79t76.5 -243v-657h-127v612q0 128 -49.5 191t-171.5 63q-69 0 -153 -38.5t-134 -88.5v-739h-127v1411q-122 16 -199 16 q-139 0 -207.5 -81t-68.5 -234v-164h315v-110h-315v-838h-127v838h-143z" />
<glyph unicode="ffh" horiz-adv-x="2332" d="M72 838v71l143 31v190q0 187 97 289.5t253 102.5q65 0 115 -19l-25 -94q-33 8 -73 8q-122 0 -181 -77t-59 -238v-154h463v150q0 213 106.5 326.5t298.5 113.5q43 0 92 -4t125 -13t109 -12v-657q70 58 160.5 92.5t183.5 34.5q138 0 214.5 -79t76.5 -243v-657h-127v612 q0 128 -49.5 191t-171.5 63q-69 0 -153 -38.5t-134 -88.5v-739h-127v1411q-125 16 -199 16q-278 0 -278 -315v-164h315v-110h-315v-838h-127v838h-463v-838h-127v838h-143z" />
<glyph unicode="fk" horiz-adv-x="1638" d="M72 838v71l143 31v195q0 188 111 295.5t295 107.5q43 0 92 -4t122.5 -13t108.5 -12v-964h133l336 405h154l-369 -438l369 -512h-152l-313 434h-158v-434h-127v1411q-122 16 -199 16q-139 0 -207.5 -81t-68.5 -234v-164h315v-110h-315v-838h-127v838h-143z" />
<glyph unicode="ffk" horiz-adv-x="2228" d="M72 838v71l143 31v190q0 187 97 289.5t253 102.5q65 0 115 -19l-25 -94q-33 8 -73 8q-122 0 -181 -77t-59 -238v-154h463v150q0 213 106.5 326.5t298.5 113.5q43 0 92 -4t125 -13t109 -12v-964h133l336 405h154l-369 -438l369 -512h-152l-313 434h-158v-434h-127v1411 q-125 16 -199 16q-278 0 -278 -315v-164h315v-110h-315v-838h-127v838h-463v-838h-127v838h-143z" />
<glyph unicode="ft" horiz-adv-x="1359" d="M72 838v71l143 31v195q0 191 93 297t259 106q154 0 246 -65l-22 -93q-103 47 -211 47q-119 0 -178.5 -76.5t-59.5 -244.5v-158h473l57 228h64v-228h338v-110h-338v-553q0 -209 172 -209q74 0 133 30l33 -59q-35 -32 -91.5 -51t-115.5 -19q-258 0 -258 277v584h-467v-838 h-127v838h-143z" />
<glyph unicode="&#x105;j" horiz-adv-x="1462" d="M104 246q0 71 28.5 124.5t72 85t105.5 51t119 26t122 6.5h154v73q0 134 -59 194t-179 60q-73 0 -151.5 -24.5t-131.5 -59.5l-24 92q71 49 159.5 77t167.5 28q184 0 264 -97.5t80 -291.5v-590q-114 -42 -182.5 -116.5t-68.5 -162.5q0 -61 45.5 -96t119.5 -35 q76 0 150 34.5t128 89t87 125.5t33 141v968h127v-956q0 -136 -79 -251t-209.5 -180t-279.5 -65q-106 0 -179.5 49.5t-73.5 137.5q0 115 84 203.5t217 144.5l-29 82q-51 -64 -132 -104t-183 -40q-130 0 -216 74.5t-86 202.5zM233 260q0 -84 58 -134t155 -50q85 0 155 36 t104 91v246h-127q-345 0 -345 -189zM1116 1262q0 37 26.5 64.5t63.5 27.5t64.5 -27.5t27.5 -64.5t-27.5 -64t-64.5 -27t-63.5 27t-26.5 64z" />
<glyph unicode="&#x17f;i" horiz-adv-x="1050" d="M72 838v71l143 31v195q0 190 99 296.5t272 106.5q153 0 258 -72l-25 -94q-112 55 -235 55q-122 0 -182 -77.5t-60 -237.5v-1112h-127v838h-143zM741 0v948h127v-948h-127z" />
<glyph unicode="&#x17f;l" horiz-adv-x="1048" d="M72 838v71l143 31v197q0 193 97 297t278 104q33 0 73 -3t69 -6.5t77 -10t74 -9.5v-1509h-127v1413q-100 14 -168 14q-136 0 -191 -76.5t-55 -234.5v-1116h-127v838h-143z" />
<glyph unicode="&#x17f;&#x17f;" horiz-adv-x="1122" d="M72 840v69l143 33v182q0 191 102.5 297.5t282.5 106.5q145 0 258 -66q85 76 217 76q138 0 232 -63l-25 -95q-99 47 -195 47q-107 0 -162 -73.5t-55 -239.5v-1114h-127v840h-143v69l143 33v199q0 145 52 239q-96 41 -197 41q-256 0 -256 -317v-1104h-127v840h-143z" />
<glyph unicode="&#x17f;h" horiz-adv-x="1679" d="M72 838v71l143 31v197q0 193 97 297t278 104q33 0 73 -3t69 -6.5t77 -10t74 -9.5v-657q70 58 160.5 92.5t183.5 34.5q138 0 214.5 -79t76.5 -243v-657h-127v612q0 128 -50 191t-172 63q-69 0 -152.5 -38.5t-133.5 -88.5v-739h-127v1413q-100 14 -168 14 q-136 0 -191 -76.5t-55 -234.5v-1116h-127v838h-143z" />
<glyph unicode=" "  horiz-adv-x="518" />
<glyph unicode="&#x09;" horiz-adv-x="518" />
<glyph unicode="&#xa0;" horiz-adv-x="518" />
<glyph unicode="!" horiz-adv-x="667" d="M236 68q0 40 28 69t68 29t69 -29t29 -69q0 -41 -29 -68t-69 -27t-68 27t-28 68zM254 1341h158l-37 -901h-82z" />
<glyph unicode="&#x22;" horiz-adv-x="620" d="M82 1509h154l-46 -444h-63zM389 1509h154l-47 -444h-62z" />
<glyph unicode="#" horiz-adv-x="1062" d="M80 328v96h135l86 487h-123v97h139l60 333h108l-59 -333h326l59 333h111l-60 -333h119v-97h-135l-86 -487h121v-96h-140l-57 -328h-109l58 328h-328l-57 -328h-109l58 328h-117zM324 424h325l86 487h-325z" />
<glyph unicode="$" horiz-adv-x="1052" d="M96 129l47 82q69 -52 163 -85.5t196 -33.5q53 0 102.5 12t94 37t71.5 70.5t27 105.5q0 52 -23 96.5t-62.5 77t-90.5 62t-107 56t-112 54.5t-107 62t-90.5 74t-62.5 95t-23 120q0 152 98 245.5t260 108.5v182h96v-182q99 -7 189.5 -43t144.5 -80l-28 -106 q-171 110 -353 110q-117 0 -192.5 -63.5t-75.5 -163.5q0 -60 38 -109.5t98.5 -85t133.5 -69.5t146 -71.5t133.5 -81.5t98.5 -110t38 -147q0 -92 -33 -164t-88 -115t-117.5 -66.5t-132.5 -29.5v-182h-96v182q-230 15 -381 156z" />
<glyph unicode="%" horiz-adv-x="1572" d="M104 997q0 158 83 250t216 92q141 0 219 -103t78 -263q0 -153 -82.5 -245.5t-214.5 -92.5q-95 0 -164 51.5t-102 132t-33 178.5zM209 1008q0 -74 19.5 -135.5t67.5 -104.5t118 -43q88 0 136 69.5t48 168.5q0 55 -11 104t-34 91.5t-63.5 67.5t-94.5 25q-85 0 -135.5 -72.5 t-50.5 -170.5zM369 0l725 1309h96l-725 -1309h-96zM874 344q0 158 82.5 250t214.5 92q142 0 219.5 -103t77.5 -264q0 -152 -82.5 -244.5t-214.5 -92.5q-94 0 -163 51.5t-101.5 132.5t-32.5 178zM977 354q0 -116 52 -199t153 -83q88 0 136 69t48 168q0 55 -10.5 104t-33.5 92 t-63.5 68t-95.5 25q-85 0 -135.5 -73t-50.5 -171z" />
<glyph unicode="&#x26;" horiz-adv-x="1306" d="M121 319q0 57 19 108t46 86.5t70 71.5t76 56.5t80 46.5q-49 49 -76.5 80t-60 76t-47.5 91t-15 97q0 155 102.5 246.5t247.5 91.5q158 0 260.5 -97.5t102.5 -248.5q0 -50 -20.5 -97t-49 -80.5t-76 -70t-82.5 -58t-88 -50.5l326 -332q114 161 123 416h125q-7 -139 -51 -270 t-113 -232l264 -262l-92 -88l-252 252q-173 -181 -412 -181q-73 0 -144 22.5t-130.5 64.5t-96 110t-36.5 151zM260 322q0 -117 85 -177.5t208 -60.5q87 0 168.5 39.5t138.5 109.5l-364 371q-111 -66 -151 -102q-85 -78 -85 -180zM342 1065q0 -42 9 -77.5t31.5 -70t38 -53.5 t53.5 -58.5t52 -55.5q68 37 109 63t82.5 62.5t60.5 77t19 89.5q0 85 -63.5 153.5t-170.5 68.5q-95 0 -158 -62t-63 -137z" />
<glyph unicode="'" horiz-adv-x="313" d="M82 1509h154l-46 -444h-63z" />
<glyph unicode="(" horiz-adv-x="714" d="M127 518q0 254 123.5 515.5t351.5 453.5l43 -80q-181 -163 -281 -401t-100 -471q0 -235 100 -474t283 -411l-39 -68q-240 194 -360.5 439t-120.5 497z" />
<glyph unicode=")" horiz-adv-x="731" d="M84 -350q183 172 283 411t100 474q0 233 -100 471t-281 401l43 80q228 -192 351.5 -453.5t123.5 -515.5q0 -252 -120.5 -497t-360.5 -439z" />
<glyph unicode="*" horiz-adv-x="960" d="M115 999l252 146l-209 186l26 47l252 -145l58 276h57v-292l264 90l29 -50l-252 -145l209 -186l-27 -47l-252 145l-57 -274h-55v288l-267 -88z" />
<glyph unicode="+" horiz-adv-x="1064" d="M84 487v111h391v393h111v-393h395v-111h-395v-393h-111v393h-391z" />
<glyph unicode="," horiz-adv-x="499" d="M182 170h154l-90 -479h-64v479z" />
<glyph unicode="-" horiz-adv-x="669" d="M106 434v111h455v-111h-455z" />
<glyph unicode="." horiz-adv-x="497" d="M152 68q0 40 27.5 69t68.5 29q40 0 69 -29t29 -69t-29 -68.5t-69 -28.5q-41 0 -68.5 28.5t-27.5 68.5z" />
<glyph unicode="/" horiz-adv-x="876" d="M121 -285l473 1626h119l-473 -1626h-119z" />
<glyph unicode="0" horiz-adv-x="1054" d="M98 664q0 137 24.5 254.5t74.5 213t135 150.5t196 55q94 0 169.5 -42t123 -110.5t79.5 -162.5t45 -191t13 -202q0 -127 -25 -241.5t-74.5 -210t-134.5 -152t-196 -56.5q-95 0 -171 43.5t-123.5 112.5t-79 162t-44 186t-12.5 191zM238 690q0 -65 5 -127t16.5 -132.5 t34.5 -128.5t55.5 -106.5t82.5 -76t113 -27.5q71 0 126 46.5t86 123t46.5 163t15.5 177.5q0 56 -3 109t-11.5 116.5t-22.5 117t-37.5 105t-55 87.5t-77 58t-100.5 22q-74 0 -129.5 -49t-85.5 -129t-44.5 -168t-14.5 -181z" />
<glyph unicode="1" horiz-adv-x="743" d="M68 1163v70l434 104v-1337h-135v1163h-299z" />
<glyph unicode="2" horiz-adv-x="1011" d="M96 0v92q75 51 152 115t162.5 152t151 177.5t108.5 193t43 196.5q0 130 -78 210.5t-219 80.5q-138 0 -289 -111l-29 106q154 125 351 125q173 0 288 -109t115 -294q0 -107 -48 -225.5t-128 -225.5t-173.5 -200t-193.5 -166h600v-117h-813z" />
<glyph unicode="3" horiz-adv-x="991" d="M109 1214q58 52 145 87.5t188 35.5q149 0 256 -88t107 -229q0 -118 -85 -204.5t-210 -115.5q371 -30 371 -319q0 -122 -76.5 -214t-203.5 -138.5t-284 -46.5q-46 0 -94 4.5t-78.5 9t-33.5 4.5l26 106q84 -10 160 -10q125 0 224 32.5t159.5 99.5t60.5 159q0 47 -15 84.5 t-38 62.5t-60 43.5t-72.5 28t-84.5 15t-87 7t-89 1.5v110q158 10 264.5 76t106.5 184q0 101 -75 159.5t-177 58.5q-148 0 -279 -109z" />
<glyph unicode="4" horiz-adv-x="1052" d="M80 338v92l553 879h127v-858h205v-113h-205v-338h-135v338h-545zM219 451h406v667z" />
<glyph unicode="5" horiz-adv-x="1009" d="M137 0l27 106q86 -10 162 -10q195 0 317.5 78t122.5 219q0 71 -24 125.5t-65.5 86.5t-93 48.5t-110.5 16.5q-126 0 -250 -74l-61 35v678h659v-119h-532v-461q113 53 227 53q179 0 284 -103t105 -263q0 -192 -152.5 -313t-408.5 -121q-46 0 -94 4.5t-79 9t-34 4.5z" />
<glyph unicode="6" horiz-adv-x="1030" d="M96 565q0 125 22 237t69 208.5t114.5 166.5t163 110t209.5 40q102 0 174 -24l-27 -105q-66 12 -127 12q-94 0 -172 -34t-131 -91t-90 -132.5t-53.5 -156.5t-16.5 -165q62 84 147 122t167 38q122 0 212 -54.5t133.5 -143t43.5 -196.5q0 -117 -46.5 -212t-141.5 -154.5 t-224 -59.5q-188 0 -307 160t-119 434zM240 518q0 -117 32.5 -212t102.5 -155.5t168 -60.5q118 0 186 83t68 202q0 127 -73 211t-202 84q-86 0 -160 -40.5t-122 -111.5z" />
<glyph unicode="7" horiz-adv-x="907" d="M53 1190v119h781v-119l-441 -1190h-143l455 1190h-652z" />
<glyph unicode="8" horiz-adv-x="1032" d="M102 344q0 117 70.5 204.5t173.5 143.5q-98 58 -152.5 131t-54.5 181q0 104 53.5 181.5t135.5 114.5t178 37q154 0 260 -92.5t106 -243.5q0 -191 -223 -319q62 -30 106.5 -58.5t87.5 -69.5t65 -95t22 -119q0 -88 -35 -159.5t-93.5 -117t-132 -70t-153.5 -24.5t-153 23.5 t-132 68t-94 118t-35 165.5zM238 358q0 -88 44 -152t109.5 -93t140.5 -29q107 0 185 67.5t78 186.5q0 30 -9 57t-21.5 48t-37.5 43t-44.5 36t-55.5 33.5t-58 30t-65 30t-64 29.5q-84 -44 -143 -116.5t-59 -170.5zM274 1001q0 -34 9.5 -64t31 -55.5t42.5 -44.5t58.5 -40.5 t64 -35t71.5 -34.5q85 47 135.5 113t50.5 145q0 103 -62.5 171.5t-172.5 68.5q-94 0 -161 -61.5t-67 -162.5z" />
<glyph unicode="9" horiz-adv-x="1030" d="M94 922q0 184 110 299.5t296 115.5q108 0 191.5 -46.5t135.5 -129t78.5 -192t26.5 -240.5q0 -98 -11 -185.5t-35.5 -173.5t-67.5 -154.5t-103 -122t-147.5 -82.5t-194.5 -29q-45 0 -84.5 4.5t-61.5 9t-24 4.5l26 106q49 -10 125 -10q102 0 180.5 31t127 82t80 125 t43.5 152.5t12 170.5q-50 -74 -136 -110.5t-174 -36.5q-92 0 -168 35.5t-124 94.5t-74.5 132t-26.5 150zM233 944q0 -146 80 -229.5t211 -83.5q86 0 159.5 39.5t113.5 99.5q0 201 -83 325t-220 124q-115 0 -188 -77.5t-73 -197.5z" />
<glyph unicode=":" horiz-adv-x="667" d="M236 68q0 40 27.5 69t68.5 29q40 0 69 -29t29 -69t-29 -68.5t-69 -28.5q-41 0 -68.5 28.5t-27.5 68.5zM236 852q0 40 27.5 69t68.5 29q40 0 69 -29t29 -69t-29 -68t-69 -28q-41 0 -68.5 28t-27.5 68z" />
<glyph unicode=";" horiz-adv-x="661" d="M236 852q0 40 27.5 69t68.5 29q40 0 69 -29t29 -69t-29 -68t-69 -28q-41 0 -68.5 28t-27.5 68zM258 170h154l-90 -479h-64v479z" />
<glyph unicode="&#x3c;" horiz-adv-x="1064" d="M84 496v104l897 401v-127l-748 -325l748 -328v-127z" />
<glyph unicode="=" horiz-adv-x="1064" d="M84 305v111h897v-111h-897zM84 670v110h897v-110h-897z" />
<glyph unicode="&#x3e;" horiz-adv-x="1064" d="M70 94v127l747 328l-747 325v127l897 -401v-104z" />
<glyph unicode="?" horiz-adv-x="888" d="M154 1339q99 15 163 15q197 0 327 -113t130 -276q0 -121 -93.5 -208.5t-254.5 -97.5v-219h-70l-57 312h39q146 0 222.5 60t76.5 155q0 86 -49.5 150.5t-126.5 95t-168 30.5q-62 0 -111 -8zM283 68q0 40 28 69t68 29t69 -29t29 -69q0 -41 -29 -68t-69 -27t-68 27t-28 68z " />
<glyph unicode="@" horiz-adv-x="1355" d="M125 342q0 151 40.5 278t119.5 222t204 148.5t285 53.5q204 0 309 -102t105 -291v-585h-62l-49 112q-50 -65 -131 -104t-184 -39q-130 0 -215.5 73.5t-85.5 200.5q0 71 28.5 125.5t72 86t105 51t118.5 26t122 6.5h154v70q0 130 -84 194t-223 64q-219 0 -357.5 -148.5 t-138.5 -400.5q0 -100 17.5 -188t58 -167.5t101.5 -136.5t153.5 -90.5t208.5 -33.5q100 0 194 37t148 85l35 -69q-7 -9 -22 -24t-52.5 -42t-82.5 -49t-114.5 -38.5t-144.5 -16.5q-137 0 -247.5 42.5t-181 111.5t-118 161t-67 186t-19.5 191zM590 326q0 -86 58 -135.5 t155 -49.5q85 0 155.5 36t102.5 91v244h-127q-344 0 -344 -186z" />
<glyph unicode="A" horiz-adv-x="1282" d="M66 0l509 1341h136l506 -1341h-152l-133 367h-586l-133 -367h-147zM389 485h500l-250 689z" />
<glyph unicode="B" horiz-adv-x="1189" d="M184 0v1341h426q188 0 294 -93t106 -249q0 -68 -23 -123.5t-62.5 -92t-81.5 -59t-89 -34.5q44 -5 87.5 -16.5t89 -36.5t79 -59t55.5 -86.5t22 -116.5q0 -178 -128 -276.5t-351 -98.5h-424zM313 119h269q366 0 366 250q0 249 -377 249h-258v-499zM313 737h240 q146 0 231.5 64.5t85.5 173.5q0 58 -14 100.5t-47.5 77t-94.5 52.5t-149 18h-252v-486z" />
<glyph unicode="C" horiz-adv-x="1241" d="M111 668q0 116 24 219.5t74 192t122.5 153t176 101t227.5 36.5q119 0 215.5 -37t161.5 -88l-27 -106q-96 56 -181.5 83t-192.5 27q-129 0 -235 -70.5t-166 -194.5t-60 -275q0 -95 17.5 -182t57 -167.5t99 -139t149.5 -93.5t201 -35q101 0 192.5 39t133.5 86l39 -70 q-8 -11 -22.5 -26t-53 -43.5t-82.5 -50.5t-113.5 -39t-144.5 -17q-129 0 -234.5 42.5t-174 112t-115.5 161.5t-67.5 187.5t-20.5 193.5z" />
<glyph unicode="D" horiz-adv-x="1327" d="M184 0v1341h400q135 0 242.5 -36.5t179 -100t119 -153t68.5 -190t21 -216.5q0 -100 -24.5 -193t-76 -175.5t-126 -144t-181 -97t-233.5 -35.5h-389zM319 119h216q272 0 406 136.5t134 397.5q0 90 -14 168.5t-50 154t-93 129t-149.5 86t-211.5 32.5h-238v-1104z" />
<glyph unicode="E" horiz-adv-x="1105" d="M184 0v1341h774v-118h-639v-486h500v-119h-500v-499h682v-119h-817z" />
<glyph unicode="F" horiz-adv-x="1021" d="M184 0v1341h774v-118h-639v-486h500v-119h-500v-618h-135z" />
<glyph unicode="G" horiz-adv-x="1368" d="M113 664q0 111 25 213t78 192t129.5 157t186.5 105.5t242 38.5q130 0 241 -38t175 -87l-27 -106q-187 110 -411 110q-143 0 -259.5 -75.5t-179.5 -200t-63 -268.5q0 -121 31 -228t93 -194t166 -138t238 -51q94 0 172 33.5t119 79.5v350h-307v119h440v-676h-69l-41 119 q-53 -58 -151.5 -104t-225.5 -46q-123 0 -225 41.5t-170.5 110t-116 159.5t-69 188t-21.5 196z" />
<glyph unicode="H" horiz-adv-x="1359" d="M184 0v1341h135v-604h721v604h136v-1341h-136v618h-721v-618h-135z" />
<glyph unicode="I" horiz-adv-x="507" d="M186 0v1341h136v-1341h-136z" />
<glyph unicode="J" horiz-adv-x="557" d="M-47 -219l35 59q58 -24 108 -24q150 0 150 213v1312h135v-1341q0 -73 -21 -129t-57.5 -88t-79.5 -48t-92 -16q-107 0 -178 62z" />
<glyph unicode="K" horiz-adv-x="1196" d="M184 0v1341h135v-604h181l440 604h154l-471 -643l524 -698h-170l-455 618h-203v-618h-135z" />
<glyph unicode="L" horiz-adv-x="1005" d="M184 0v1341h135v-1222h623v-119h-758z" />
<glyph unicode="M" horiz-adv-x="1744" d="M184 0v1341h211l482 -1151l475 1151h209v-1341h-129v1231l-504 -1231h-111l-504 1231v-1231h-129z" />
<glyph unicode="N" horiz-adv-x="1380" d="M184 0v1341h189l694 -1110v1110h129v-1341h-131l-752 1204v-1204h-129z" />
<glyph unicode="O" horiz-adv-x="1431" d="M113 672q0 110 22.5 210.5t72 190t121 155t176.5 104t232 38.5q117 0 215 -41t164.5 -109t113 -159t68 -189t21.5 -200q0 -110 -22 -210t-71 -191t-120.5 -157.5t-177 -105.5t-234.5 -39q-118 0 -216 41.5t-164.5 110.5t-112.5 160.5t-67 190t-21 200.5zM252 709 q0 -103 16 -193t53 -169t92 -135.5t137 -89t185 -32.5q136 0 239.5 79.5t154.5 202t51 263.5q0 129 -27.5 237.5t-83.5 194t-151.5 134t-221.5 48.5q-103 0 -188.5 -45.5t-140.5 -121.5t-85 -172.5t-30 -200.5z" />
<glyph unicode="P" horiz-adv-x="1114" d="M184 0v1341h414q93 0 172.5 -22t143.5 -67t100.5 -121t36.5 -175q0 -107 -37.5 -191t-102.5 -135.5t-147.5 -78.5t-177.5 -27h-267v-524h-135zM319 643h213q179 0 279 72t100 219q0 82 -26.5 139t-78 89.5t-117 46.5t-152.5 14h-218v-580z" />
<glyph unicode="Q" horiz-adv-x="1431" d="M113 672q0 110 22.5 210.5t72 190t121 155t176.5 104t232 38.5q117 0 215 -41t164.5 -109t113 -159t68 -189t21.5 -200q0 -206 -81 -377t-241 -256l265 -254l-129 -88l-205 311q-106 -39 -234 -39q-118 0 -216 41.5t-164.5 110.5t-112.5 160.5t-67 190t-21 200.5z M252 709q0 -103 16 -193t53 -169t92 -135.5t137 -89t185 -32.5q136 0 239.5 79.5t154.5 202t51 263.5q0 129 -27.5 237.5t-83.5 194t-151.5 134t-221.5 48.5q-103 0 -188.5 -45.5t-140.5 -121.5t-85 -172.5t-30 -200.5z" />
<glyph unicode="R" horiz-adv-x="1206" d="M184 0v1341h414q93 0 172.5 -22t143.5 -66t100.5 -118.5t36.5 -171.5q0 -170 -94.5 -271t-243.5 -131l424 -561h-162l-412 549h-244v-549h-135zM319 664h213q379 0 379 276q0 64 -18 112.5t-50 80.5t-79.5 52.5t-102.5 29t-124 8.5h-218v-559z" />
<glyph unicode="S" horiz-adv-x="1050" d="M98 129l47 84q68 -52 161.5 -86.5t195.5 -34.5q53 0 104 13t97 40t74 74.5t28 108.5q0 51 -23.5 93.5t-63 74t-91 60t-108 54.5t-113 53.5t-108 61.5t-91 73.5t-63 94.5t-23.5 121q0 166 115.5 261t300.5 95q108 0 208 -38t162 -87l-26 -106q-167 110 -355 110 q-117 0 -192.5 -63.5t-75.5 -163.5q0 -60 38 -109t98.5 -84.5t133.5 -69t146 -71t133.5 -82t98.5 -110.5t38 -148q0 -80 -26 -146t-68 -108.5t-97.5 -71t-112 -41t-114.5 -12.5q-129 0 -239 42.5t-189 117.5z" />
<glyph unicode="T" horiz-adv-x="1122" d="M43 1223v118h1038v-118h-452v-1223h-135v1223h-451z" />
<glyph unicode="U" horiz-adv-x="1341" d="M166 502v839h135v-847q0 -193 100 -297.5t269 -104.5t269.5 104.5t100.5 297.5v847h136v-839q0 -242 -131 -387.5t-375 -145.5q-241 0 -372.5 146t-131.5 387z" />
<glyph unicode="V" horiz-adv-x="1241" d="M45 1341h150l434 -1173l420 1173h145l-502 -1341h-135z" />
<glyph unicode="W" horiz-adv-x="2076" d="M45 1341h150l387 -1171l376 1171h164l387 -1171l377 1171h144l-457 -1341h-137l-400 1174l-391 -1174h-137z" />
<glyph unicode="X" horiz-adv-x="1161" d="M45 0l453 670l-453 671h160l375 -569l374 569h160l-452 -671l452 -670h-158l-376 567l-377 -567h-158z" />
<glyph unicode="Y" horiz-adv-x="1196" d="M45 1341h154l403 -663l402 663h147l-485 -774v-567h-136v565z" />
<glyph unicode="Z" horiz-adv-x="1103" d="M102 0v125l711 1098h-696v118h852v-120l-713 -1102h748v-119h-902z" />
<glyph unicode="[" horiz-adv-x="657" d="M168 -408v1876h401v-90h-278v-1695h278v-91h-401z" />
<glyph unicode="\" horiz-adv-x="876" d="M162 1341h119l473 -1626h-119z" />
<glyph unicode="]" horiz-adv-x="673" d="M104 -317h279v1695h-279v90h402v-1876h-402v91z" />
<glyph unicode="^" horiz-adv-x="1075" d="M84 592l401 897h103l401 -897h-125l-327 747l-328 -747h-125z" />
<glyph unicode="_" horiz-adv-x="976" d="M25 -152h925v-110h-925v110z" />
<glyph unicode="`" horiz-adv-x="831" d="M188 1417l113 72l223 -340l-53 -35z" />
<glyph unicode="a" horiz-adv-x="987" d="M104 246q0 71 28.5 124.5t72 85t105.5 51t119 26t122 6.5h154v73q0 134 -59 194t-179 60q-73 0 -151.5 -24.5t-131.5 -59.5l-24 92q71 49 159.5 77t167.5 28q184 0 264 -97.5t80 -291.5v-590h-69l-41 113q-51 -64 -132 -104t-183 -40q-130 0 -216 74.5t-86 202.5z M233 260q0 -84 58 -134t155 -50q85 0 155 36t104 91v246h-127q-345 0 -345 -189z" />
<glyph unicode="b" horiz-adv-x="1107" d="M166 0v1509h127v-647q123 117 293 117q187 0 302.5 -140.5t115.5 -355.5q0 -237 -122.5 -375.5t-306.5 -138.5q-83 0 -161.5 36t-137.5 108l-40 -113h-70zM293 221q86 -137 266 -137q138 0 225.5 105t87.5 266q0 179 -82 295t-231 116q-75 0 -147 -30.5t-119 -83.5v-531z " />
<glyph unicode="c" horiz-adv-x="944" d="M104 471q0 118 35.5 215.5t96 160.5t139 97.5t166.5 34.5q86 0 163.5 -28t133.5 -74l-23 -93q-132 82 -272 82q-133 0 -220 -107t-87 -267q0 -191 94 -299.5t262 -108.5q64 0 130 21.5t109 58.5l35 -58q-61 -69 -147.5 -102t-175.5 -33q-132 0 -233.5 68t-153.5 181 t-52 251z" />
<glyph unicode="d" horiz-adv-x="1105" d="M104 465q0 230 121.5 372t304.5 142q166 0 283 -111v641h127v-1509h-70l-41 113q-109 -144 -299 -144q-126 0 -224.5 68t-150 180t-51.5 248zM236 494q0 -110 34 -201t108 -150t177 -59q178 0 258 137v531q-57 57 -119 85.5t-145 28.5q-140 0 -226.5 -104.5t-86.5 -267.5 z" />
<glyph unicode="e" horiz-adv-x="1007" d="M104 471q0 233 118.5 370.5t295.5 137.5q178 0 283.5 -120.5t105.5 -326.5l-39 -86h-637q11 -173 106.5 -269.5t262.5 -96.5q62 0 128.5 23t111.5 61l32 -58q-61 -69 -146.5 -102t-176.5 -33q-138 0 -240.5 68.5t-153.5 180.5t-51 251zM231 541h557q-1 157 -74.5 244 t-193.5 87q-122 0 -201 -92.5t-88 -238.5z" />
<glyph unicode="f" horiz-adv-x="690" d="M72 838v69l143 33v201q0 191 88 294t246 103q138 0 235 -63l-24 -95q-99 47 -199 47q-108 0 -163.5 -73.5t-55.5 -239.5v-166h315v-110h-315v-838h-127v838h-143z" />
<glyph unicode="g" horiz-adv-x="1026" d="M82 -244q0 79 53.5 150.5t136.5 105.5q-61 30 -91.5 80.5t-30.5 108.5q0 98 73 174q-102 102 -102 252q0 86 30 155t80.5 111t112 64t127.5 22q91 0 164 -31h315v-92l-227 27q129 -105 129 -273q0 -140 -101 -238t-264 -98q-122 0 -213 60q-34 -51 -34 -92 q0 -79 55.5 -116.5t185.5 -37.5q68 0 118.5 -3t110 -12t101 -27.5t77.5 -47.5t54.5 -75t18.5 -107q0 -159 -134.5 -253.5t-343.5 -94.5q-182 0 -291.5 79t-109.5 209zM197 -215q0 -104 83 -160.5t224 -56.5q146 0 242 67.5t96 180.5q0 38 -13 65.5t-38 45t-58 28.5t-78 16 t-92 8t-106 5h-8q-59 0 -103 8q-64 -31 -106.5 -86t-42.5 -121zM236 637q0 -67 23.5 -118.5t62 -81.5t84 -45t94.5 -15q105 0 173 69.5t68 174.5q0 120 -75 188t-187 68q-102 0 -172.5 -65t-70.5 -175z" />
<glyph unicode="h" horiz-adv-x="1089" d="M166 0v1509h127v-657q70 58 160.5 92.5t183.5 34.5q138 0 214.5 -79t76.5 -243v-657h-127v612q0 128 -49.5 191t-171.5 63q-69 0 -153 -38.5t-134 -88.5v-739h-127z" />
<glyph unicode="i" horiz-adv-x="505" d="M164 1264q0 37 25.5 63.5t62.5 26.5t63.5 -26.5t26.5 -63.5t-26.5 -62.5t-63.5 -25.5t-62.5 25.5t-25.5 62.5zM186 0v948h127v-948h-127z" />
<glyph unicode="j" horiz-adv-x="507" d="M-86 -463l33 60q64 -25 110 -25q150 0 150 213v1163h127v-1196q0 -141 -69 -208.5t-173 -67.5q-105 0 -178 61zM182 1264q0 37 25.5 63.5t62.5 26.5t63.5 -26.5t26.5 -63.5q0 -38 -26.5 -64t-63.5 -26t-62.5 26t-25.5 64z" />
<glyph unicode="k" horiz-adv-x="985" d="M166 0v1509h127v-964h133l336 403h153l-368 -436l368 -512h-151l-313 434h-158v-434h-127z" />
<glyph unicode="l" horiz-adv-x="458" d="M166 0v1509h127v-1509h-127z" />
<glyph unicode="m" horiz-adv-x="1683" d="M166 0v948h70l40 -112q166 143 342 143q194 0 261 -154q175 154 354 154q289 0 289 -322v-657h-127v612q0 129 -47.5 191.5t-169.5 62.5q-67 0 -144 -38.5t-131 -92.5q4 -78 4 -119v-616h-127v612q0 129 -47.5 191.5t-169.5 62.5q-67 0 -143 -38t-127 -89v-739h-127z" />
<glyph unicode="n" horiz-adv-x="1089" d="M166 0v948h70l40 -112q78 67 172.5 105t188.5 38q138 0 214.5 -79t76.5 -243v-657h-127v612q0 128 -49.5 191t-171.5 63q-69 0 -153 -38.5t-134 -88.5v-739h-127z" />
<glyph unicode="o" horiz-adv-x="1077" d="M104 471q0 239 123.5 373.5t329.5 134.5q127 0 222.5 -67t144.5 -179.5t49 -251.5q0 -239 -124.5 -375.5t-328.5 -136.5q-126 0 -222 68.5t-145 181.5t-49 252zM236 500q0 -115 32 -208.5t104 -154.5t175 -61q90 0 158.5 52.5t102.5 137.5t34 187q0 84 -19 158t-56 133 t-98 93.5t-139 34.5q-90 0 -158 -52t-102 -135.5t-34 -184.5z" />
<glyph unicode="p" horiz-adv-x="1107" d="M166 -502v1450h70l40 -112q143 143 310 143q187 0 302.5 -140.5t115.5 -355.5q0 -238 -125 -376t-318 -138q-72 0 -143.5 28.5t-124.5 84.5v-584h-127zM293 209q50 -65 122 -95t144 -30q138 0 225.5 105t87.5 266q0 179 -82 295t-231 116q-73 0 -150 -39t-116 -100v-518z " />
<glyph unicode="q" horiz-adv-x="1105" d="M104 465q0 228 120 371t296 143q86 0 170 -39.5t139 -103.5l39 112h72v-1450h-127v586q-44 -53 -120.5 -83t-164.5 -30q-126 0 -224 67.5t-149 179t-51 247.5zM236 494q0 -82 20 -155t59 -131t103 -92t145 -34q80 0 148.5 35t101.5 90v520q-39 58 -110 98.5t-156 40.5 q-138 0 -224.5 -105.5t-86.5 -266.5z" />
<glyph unicode="r" horiz-adv-x="737" d="M166 0v950h70l40 -112q60 65 142 99t160 34q80 0 127 -39l-27 -103q-79 23 -123 23q-155 0 -262 -113v-739h-127z" />
<glyph unicode="s" horiz-adv-x="882" d="M104 100l41 72q51 -47 126 -70.5t143 -23.5q107 0 171 45t64 117q0 41 -29 75t-75 59t-101.5 49t-111 51t-101.5 59t-75 79t-29 105q0 119 90 190.5t227 71.5q82 0 159.5 -28t133.5 -72l-24 -95q-131 88 -262 88q-95 0 -147 -39t-52 -106q0 -40 29 -73t75 -57.5 t102 -47.5t112 -50t102 -59t75 -80.5t29 -107.5q0 -124 -91 -203.5t-249 -79.5q-90 0 -181.5 34t-150.5 97z" />
<glyph unicode="t" horiz-adv-x="757" d="M66 838v71l147 33l57 234h64v-228h338v-110h-338v-553q0 -209 172 -209q74 0 133 30l33 -59q-35 -32 -91.5 -51t-115.5 -19q-258 0 -258 277v584h-141z" />
<glyph unicode="u" horiz-adv-x="1087" d="M160 297v651h127v-606q0 -130 49 -195t170 -65q69 0 153 38.5t136 88.5v739h127v-948h-72l-39 113q-78 -68 -172.5 -105t-189.5 -37q-138 0 -213.5 81t-75.5 245z" />
<glyph unicode="v" horiz-adv-x="950" d="M37 948h139l305 -794l297 794h135l-385 -948h-106z" />
<glyph unicode="w" horiz-adv-x="1558" d="M37 948h139l262 -794l277 794h133l278 -794l260 794h136l-346 -948h-107l-293 809l-289 -809h-108z" />
<glyph unicode="x" horiz-adv-x="966" d="M43 0l365 477l-355 471h154l276 -387l281 387h151l-358 -467l367 -481h-160l-285 395l-289 -395h-147z" />
<glyph unicode="y" horiz-adv-x="958" d="M47 948h139l303 -794l299 794h136l-588 -1450h-131l221 514z" />
<glyph unicode="z" horiz-adv-x="919" d="M104 0v115l541 723h-534v110h684v-110l-537 -727h553v-111h-707z" />
<glyph unicode="{" horiz-adv-x="714" d="M43 487v86q93 0 138.5 45.5t45.5 157.5v449q0 129 90 194.5t228 65.5v-86q-94 0 -144.5 -47t-50.5 -158v-449q0 -152 -121 -219q121 -72 121 -223v-436q0 -111 50.5 -158t144.5 -47v-86q-138 0 -228 65.5t-90 194.5v436q0 209 -172 215h-12z" />
<glyph unicode="|" horiz-adv-x="569" d="M223 -285v1794h121v-1794h-121z" />
<glyph unicode="}" horiz-adv-x="733" d="M186 -338q94 0 144.5 47t50.5 158v436q0 153 121 223q-121 67 -121 219v449q0 111 -50.5 158t-144.5 47v86q138 0 228 -65.5t90 -194.5v-449q0 -112 45.5 -157.5t138.5 -45.5v-86h-12q-86 -3 -129 -54t-43 -161v-436q0 -129 -90 -194.5t-228 -65.5v86z" />
<glyph unicode="~" horiz-adv-x="1095" d="M84 442q69 109 109 164q12 18 37.5 35.5t64.5 17.5q61 0 258.5 -58t245.5 -58q28 0 62 29t102 102l49 -29q-78 -119 -111 -166q-12 -18 -37.5 -35.5t-64.5 -17.5q-63 0 -260.5 58.5t-241.5 58.5q-16 0 -32.5 -7.5t-40 -29t-40 -38t-53.5 -56.5z" />
<glyph unicode="&#xa1;" horiz-adv-x="667" d="M236 887q0 41 28 67.5t68 26.5q41 0 69.5 -26.5t28.5 -67.5q0 -40 -29 -69.5t-69 -29.5q-39 0 -67.5 29.5t-28.5 69.5zM254 -387l39 901h82l37 -901h-158z" />
<glyph unicode="&#xa2;" horiz-adv-x="974" d="M104 657q0 213 107.5 347t269.5 157v180h97v-178q146 -11 258 -98l-23 -94q-132 82 -272 82q-131 0 -218 -107t-87 -268q0 -190 93 -299t261 -109q64 0 128 21.5t107 60.5l35 -59q-104 -121 -282 -135v-158h-97v160q-174 21 -275.5 160.5t-101.5 336.5z" />
<glyph unicode="&#xa3;" horiz-adv-x="1114" d="M90 0v70l156 32v525h-150v98h150v217q0 210 103.5 319t289.5 109q183 0 317 -125l-28 -106q-139 110 -295 110q-130 0 -191 -78t-61 -233v-213h389v-98h-389v-508h623v-119h-914z" />
<glyph unicode="&#xa4;" horiz-adv-x="1085" d="M76 229l131 133q-86 116 -86 259q0 141 86 253l-131 130l80 77l127 -129q111 86 272 86q58 0 124.5 -25t117.5 -63l131 131l80 -77l-136 -134q86 -113 86 -249q0 -141 -88 -256l136 -134l-78 -77l-135 131q-108 -86 -271 -86q-57 0 -121.5 24t-111.5 62l-135 -133z M238 621q0 -126 88 -215t213 -89t214 89t89 215q0 124 -89 212.5t-214 88.5t-213 -88t-88 -213z" />
<glyph unicode="&#xa5;" horiz-adv-x="1196" d="M45 1341h152l381 -628h47l376 628h148l-399 -628h251v-97h-800v97h248zM201 399v97h800v-97h-335v-399h-134v399h-331z" />
<glyph unicode="&#xa6;" horiz-adv-x="569" d="M223 -285v791h121v-791h-121zM223 711v798h121v-798h-121z" />
<glyph unicode="&#xa7;" horiz-adv-x="1054" d="M137 598q0 122 92 207l58 -35q-51 -67 -51 -137q0 -48 37.5 -85t97 -62t131.5 -47.5t144.5 -48.5t132 -57.5t97 -81.5t37.5 -114q0 -99 -55.5 -170t-138.5 -103t-182 -32q-105 0 -204 35t-167 102l41 74q62 -45 142.5 -70.5t162.5 -25.5q119 0 192.5 46t73.5 124 q0 42 -35.5 74t-92 54t-124.5 42.5t-136.5 46.5t-125 58.5t-92 85t-35.5 120.5zM166 1090q0 127 98.5 203.5t243.5 76.5q95 0 186 -28t146 -72l-25 -96q-63 36 -144 58.5t-157 22.5q-94 0 -159.5 -42.5t-65.5 -122.5q0 -48 34.5 -83.5t89.5 -57.5t122 -41t134 -42t122 -52.5 t89.5 -80t34.5 -117.5q0 -121 -88 -206l-61 30q53 72 53 140q0 43 -28 76.5t-74 53t-104.5 39.5t-120 36t-120 42.5t-104.5 58t-74 84.5t-28 120z" />
<glyph unicode="&#xa8;" horiz-adv-x="917" d="M172 1264q0 35 26.5 62.5t61.5 27.5t62.5 -27.5t27.5 -62.5t-27.5 -61.5t-62.5 -26.5t-61.5 26.5t-26.5 61.5zM567 1264q0 35 26.5 62.5t61.5 27.5t62.5 -27.5t27.5 -62.5t-27.5 -61.5t-62.5 -26.5t-61.5 26.5t-26.5 61.5z" />
<glyph unicode="&#xa9;" horiz-adv-x="1398" d="M88 582q0 165 81.5 305.5t222 222.5t306.5 82t307.5 -82t223.5 -222.5t82 -305.5q0 -124 -48.5 -237.5t-131 -195t-195.5 -130t-238 -48.5q-166 0 -306.5 81.5t-222 222.5t-81.5 307zM186 582q0 -139 68.5 -257.5t186.5 -187.5t257 -69t257.5 69t187.5 187.5t69 257.5 q0 138 -69 256.5t-187.5 188t-257.5 69.5t-257 -69.5t-186.5 -188t-68.5 -256.5zM354 569q0 180 104 284.5t261 104.5q69 0 130 -21.5t101 -55.5l-26 -80q-99 61 -209 61q-109 0 -179.5 -76.5t-70.5 -197.5q0 -136 72.5 -219.5t216.5 -83.5q105 0 174 59l30 -51 q-85 -105 -243 -105q-166 0 -263.5 109t-97.5 272z" />
<glyph unicode="&#xaa;" horiz-adv-x="774" d="M125 389v96h522v-96h-522zM135 764q0 48 18.5 84t47.5 57t69.5 34t78 17.5t79.5 4.5h90v40q0 154 -143 154q-45 0 -96.5 -17t-90.5 -42l-20 75q46 32 107 52t114 20q121 0 173 -64.5t52 -191.5v-387h-53l-29 74q-65 -92 -196 -92q-88 0 -144.5 48.5t-56.5 133.5zM233 774 q0 -50 35 -79t92 -29q51 0 94 20.5t64 52.5v148h-74q-211 0 -211 -113z" />
<glyph unicode="&#xab;" horiz-adv-x="935" d="M88 494l346 346l37 -39l-197 -307l199 -308l-39 -39zM440 494l346 346l37 -39l-196 -307l198 -308l-39 -39z" />
<glyph unicode="&#xac;" horiz-adv-x="1064" d="M84 489v111h897v-442h-119v331h-778z" />
<glyph unicode="&#xad;" horiz-adv-x="669" d="M106 434v111h455v-111h-455z" />
<glyph unicode="&#xae;" horiz-adv-x="851" d="M74 1018q0 145 103 247.5t249 102.5q145 0 247.5 -102.5t102.5 -247.5q0 -146 -102.5 -248t-247.5 -102q-146 0 -249 102t-103 248zM129 1018q0 -123 87 -210t210 -87q121 0 207 87t86 210q0 122 -86 208.5t-207 86.5q-123 0 -210 -86.5t-87 -208.5zM291 823v402h121 q65 0 107 -32.5t42 -84.5q0 -43 -26.5 -75t-71.5 -44l121 -166h-62l-112 160h-70v-160h-49zM340 1026h61q53 0 80 22t27 54q0 80 -113 80h-55v-156z" />
<glyph unicode="&#xaf;" horiz-adv-x="817" d="M141 1233v96h535v-96h-535z" />
<glyph unicode="&#xb0;" horiz-adv-x="647" d="M74 1133q0 103 73 170t177 67q103 0 175 -67t72 -170q0 -104 -72 -172t-175 -68q-104 0 -177 68t-73 172zM172 1137q0 -68 42 -115t114 -47q68 0 107.5 45t39.5 108q0 68 -42 115t-114 47q-69 0 -108 -44.5t-39 -108.5z" />
<glyph unicode="&#xb1;" horiz-adv-x="1064" d="M84 14v111h897v-111h-897zM84 690v111h391v393h111v-393h395v-111h-395v-393h-111v393h-391z" />
<glyph unicode="&#xb2;" horiz-adv-x="696" d="M86 649v72q61 41 123.5 95.5t126 125t103.5 151.5t40 154q0 84 -47 133.5t-133 49.5q-85 0 -190 -78l-23 86q96 84 231 84q116 0 193.5 -74t77.5 -197q0 -131 -98 -270.5t-234 -241.5h365v-90h-535z" />
<glyph unicode="&#xb3;" horiz-adv-x="716" d="M98 1438q91 84 224 84q99 0 170 -58.5t71 -152.5q0 -67 -43.5 -120t-111.5 -79q204 -30 204 -209q0 -120 -105.5 -191t-264.5 -71q-82 0 -142 12l21 84q63 -6 110 -6q120 0 197.5 46t77.5 130q0 34 -12 59.5t-35 41t-48 25.5t-61 14.5t-64 6t-65 1.5v86q100 5 167 45 t67 112q0 61 -45 96.5t-105 35.5q-84 0 -184 -76z" />
<glyph unicode="&#xb4;" horiz-adv-x="831" d="M307 1149l223 340l113 -72l-285 -303z" />
<glyph unicode="&#xb5;" horiz-adv-x="1093" d="M166 -502v1450h127v-606q0 -129 49.5 -193.5t169.5 -64.5q70 0 154 38t135 89v737h127v-948h-70l-41 113q-80 -67 -174 -105.5t-186 -38.5q-103 0 -164 74v-545h-127z" />
<glyph unicode="&#xb6;" horiz-adv-x="997" d="M115 956q0 160 112.5 272.5t272.5 112.5v-770q-161 0 -273 117t-112 268zM709 -260v1601h135v-1601h-135z" />
<glyph unicode="&#xb7;" horiz-adv-x="421" d="M115 510q0 40 27.5 69t68.5 29q40 0 69 -29t29 -69t-29 -68t-69 -28q-41 0 -68.5 28t-27.5 68z" />
<glyph unicode="&#xb8;" horiz-adv-x="870" d="M297 -461q72 17 122 60t50 86q0 31 -34.5 53.5t-104.5 28.5l39 233h86l-29 -168q79 -13 119.5 -51t40.5 -88q0 -68 -69 -129t-187 -82z" />
<glyph unicode="&#xb9;" horiz-adv-x="512" d="M53 1391v59l293 70v-871h-100v742h-193z" />
<glyph unicode="&#xba;" horiz-adv-x="806" d="M117 909q0 156 81.5 245t215.5 89q125 0 199.5 -94t74.5 -234q0 -156 -81 -244.5t-216 -88.5q-124 0 -199 94t-75 233zM143 389v96h523v-96h-523zM217 928q0 -110 49.5 -186t141.5 -76q83 0 131.5 67t48.5 166q0 109 -49 184.5t-142 75.5q-83 0 -131.5 -66.5 t-48.5 -164.5z" />
<glyph unicode="&#xbb;" horiz-adv-x="935" d="M96 186l199 308l-197 307l37 39l346 -346l-346 -347zM449 186l198 308l-196 307l36 39l347 -346l-347 -347z" />
<glyph unicode="&#xbc;" horiz-adv-x="1441" d="M100 1194v59l293 70v-870h-100v741h-193zM274 0l725 1309h97l-725 -1309h-97zM758 215v70l364 567h95v-549h122v-88h-122v-215h-103v215h-356zM870 303h244v404z" />
<glyph unicode="&#xbd;" horiz-adv-x="1548" d="M100 1194v59l293 70v-870h-100v741h-193zM258 0l725 1309h96l-725 -1309h-96zM909 0v72q61 41 123.5 95.5t126.5 125t104 151.5t40 154q0 83 -47.5 132.5t-133.5 49.5q-85 0 -190 -78l-23 86q96 84 232 84q116 0 193 -73.5t77 -196.5q0 -131 -98 -270.5t-234 -241.5h365 v-90h-535z" />
<glyph unicode="&#xbe;" horiz-adv-x="1538" d="M119 1241q91 84 223 84q99 0 170.5 -58.5t71.5 -152.5q0 -67 -43.5 -120t-112.5 -79q205 -31 205 -208q0 -120 -106 -191.5t-265 -71.5q-76 0 -141 13l20 84q64 -6 111 -6q120 0 197 46t77 130q0 34 -11.5 59.5t-35 40.5t-48 25.5t-61 14.5t-63.5 5.5t-65 1.5v86 q100 5 166.5 45.5t66.5 112.5q0 61 -44.5 96t-104.5 35q-85 0 -185 -76zM414 0l725 1309h96l-725 -1309h-96zM854 215v70l365 567h94v-549h123v-88h-123v-215h-103v215h-356zM967 303h243v404z" />
<glyph unicode="&#xbf;" horiz-adv-x="890" d="M100 -10q0 120 93.5 207.5t255.5 97.5v219h69l57 -311h-38q-146 0 -222.5 -60t-76.5 -155q0 -87 49.5 -151t126.5 -95t168 -31q61 0 110 8l29 -104q-92 -14 -164 -14q-197 0 -327 113t-130 276zM397 887q0 40 29 67t70 27q40 0 68 -26.5t28 -67.5q0 -40 -28.5 -69.5 t-67.5 -29.5q-40 0 -69.5 29.5t-29.5 69.5z" />
<glyph unicode="&#xc0;" horiz-adv-x="1284" d="M66 0l509 1341h136l506 -1341h-152l-133 367h-586l-133 -367h-147zM389 485h500l-250 689zM406 1665l86 98l315 -280l-41 -47z" />
<glyph unicode="&#xc1;" horiz-adv-x="1284" d="M66 0l509 1341h136l506 -1341h-152l-133 367h-586l-133 -367h-147zM389 485h500l-250 689zM457 1483l315 280l88 -98l-362 -229z" />
<glyph unicode="&#xc2;" horiz-adv-x="1284" d="M66 0l509 1341h136l506 -1341h-152l-133 367h-586l-133 -367h-147zM326 1483l288 280h56l288 -280l-43 -47l-272 211l-274 -211zM389 485h500l-250 689z" />
<glyph unicode="&#xc3;" horiz-adv-x="1284" d="M66 0l509 1341h136l506 -1341h-152l-133 367h-586l-133 -367h-147zM336 1462q15 22 49 73.5t51 76.5q35 49 101 49q37 0 111 -41t108 -41q29 0 62.5 32.5t86.5 98.5l51 -33q-51 -83 -100 -151q-35 -49 -98 -49q-38 0 -113.5 39.5t-107.5 39.5t-64.5 -30.5t-85.5 -98.5z M389 485h500l-250 689z" />
<glyph unicode="&#xc4;" horiz-adv-x="1284" d="M66 0l509 1341h136l506 -1341h-152l-133 367h-586l-133 -367h-147zM346 1579q0 37 25.5 63.5t62.5 26.5t63.5 -26.5t26.5 -63.5t-26.5 -62.5t-63.5 -25.5t-62.5 25.5t-25.5 62.5zM389 485h500l-250 689zM762 1579q0 37 25.5 63.5t62.5 26.5t63.5 -26.5t26.5 -63.5 t-26.5 -62.5t-63.5 -25.5t-62.5 25.5t-25.5 62.5z" />
<glyph unicode="&#xc5;" horiz-adv-x="1284" d="M66 0l507 1335q-58 19 -93.5 66t-35.5 112q0 80 57 132.5t138 52.5t138 -52.5t57 -132.5q0 -62 -34 -108.5t-89 -67.5l506 -1337h-152l-133 367h-586l-133 -367h-147zM389 485h500l-250 689zM520 1513q0 -54 32.5 -88t86.5 -34q53 0 85 33.5t32 88.5q0 53 -32 87t-85 34 q-54 0 -86.5 -34.5t-32.5 -86.5z" />
<glyph unicode="&#xc6;" horiz-adv-x="1685" d="M25 0l706 1341h799v-118h-639v-488h502v-117h-502v-499h682v-119h-817v367h-396l-186 -367h-149zM420 483h336v662z" />
<glyph unicode="&#xc7;" horiz-adv-x="1241" d="M111 668q0 116 24 219.5t74 192t122.5 153t176 101t227.5 36.5q119 0 215.5 -37t161.5 -88l-27 -106q-96 56 -181.5 83t-192.5 27q-129 0 -235 -70.5t-166 -194.5t-60 -275q0 -95 17.5 -182t57 -167.5t99 -139t149.5 -93.5t201 -35q101 0 192.5 39t133.5 86l39 -70 q-8 -11 -22 -25.5t-51 -42t-80 -49.5t-109.5 -39.5t-139.5 -19.5l-22 -139q79 -13 119 -51t40 -88q0 -68 -69 -129t-187 -82l-32 57q72 17 122 60t50 86q0 31 -35 53.5t-105 28.5l35 208q-114 11 -207.5 58t-154.5 115.5t-102.5 157t-59.5 179t-18 183.5z" />
<glyph unicode="&#xc8;" horiz-adv-x="1105" d="M184 0v1341h774v-118h-639v-486h500v-119h-500v-499h682v-119h-817zM340 1665l86 98l315 -280l-41 -47z" />
<glyph unicode="&#xc9;" horiz-adv-x="1105" d="M184 0v1341h774v-118h-639v-486h500v-119h-500v-499h682v-119h-817zM412 1483l315 280l88 -98l-362 -229z" />
<glyph unicode="&#xca;" horiz-adv-x="1105" d="M184 0v1341h774v-118h-639v-486h500v-119h-500v-499h682v-119h-817zM266 1483l289 280h55l289 -280l-43 -47l-272 211l-275 -211z" />
<glyph unicode="&#xcb;" horiz-adv-x="1105" d="M184 0v1341h774v-118h-639v-486h500v-119h-500v-499h682v-119h-817zM289 1579q0 37 25.5 63.5t62.5 26.5t63.5 -26.5t26.5 -63.5t-26.5 -62.5t-63.5 -25.5t-62.5 25.5t-25.5 62.5zM705 1579q0 37 25.5 63.5t62.5 26.5t63.5 -26.5t26.5 -63.5t-26.5 -62.5t-63.5 -25.5 t-62.5 25.5t-25.5 62.5z" />
<glyph unicode="&#xcc;" horiz-adv-x="507" d="M16 1665l86 98l316 -280l-41 -47zM186 0v1341h136v-1341h-136z" />
<glyph unicode="&#xcd;" horiz-adv-x="507" d="M90 1483l316 280l88 -98l-363 -229zM186 0v1341h136v-1341h-136z" />
<glyph unicode="&#xce;" horiz-adv-x="507" d="M-63 1483l288 280h56l288 -280l-43 -47l-272 211l-274 -211zM186 0v1341h136v-1341h-136z" />
<glyph unicode="&#xcf;" horiz-adv-x="507" d="M-6 1579q0 37 26.5 63.5t63.5 26.5t63.5 -26.5t26.5 -63.5t-26.5 -62.5t-63.5 -25.5t-63.5 25.5t-26.5 62.5zM186 0v1341h136v-1341h-136zM334 1579q0 37 26.5 63.5t61.5 26.5q38 0 65 -26.5t27 -63.5t-27 -62.5t-65 -25.5q-37 0 -62.5 25.5t-25.5 62.5z" />
<glyph unicode="&#xd0;" horiz-adv-x="1327" d="M39 627v96h145v618h400q135 0 242.5 -36.5t179 -100t119 -153t68.5 -190t21 -216.5q0 -100 -24.5 -193t-76 -175.5t-126 -144t-181 -97t-233.5 -35.5h-389v627h-145zM319 119h216q272 0 406 136.5t134 397.5q0 90 -14 168.5t-50 154t-93 129t-149.5 86t-211.5 32.5h-238 v-500h345v-96h-345v-508z" />
<glyph unicode="&#xd1;" horiz-adv-x="1380" d="M184 0v1341h189l694 -1110v1110h129v-1341h-131l-752 1204v-1204h-129zM414 1462q15 22 49 73.5t51 76.5q35 49 100 49q36 0 111 -41t109 -41q29 0 62.5 32.5t86.5 98.5l51 -33q-51 -83 -100 -151q-35 -49 -98 -49q-38 0 -114 39.5t-108 39.5t-64 -30t-85 -99z" />
<glyph unicode="&#xd2;" horiz-adv-x="1431" d="M113 672q0 110 22.5 210.5t72 190t121 155t176.5 104t232 38.5q117 0 215 -41t164.5 -109t113 -159t68 -189t21.5 -200q0 -110 -22 -210t-71 -191t-120.5 -157.5t-177 -105.5t-234.5 -39q-118 0 -216 41.5t-164.5 110.5t-112.5 160.5t-67 190t-21 200.5zM252 709 q0 -103 16 -193t53 -169t92 -135.5t137 -89t185 -32.5q136 0 239.5 79.5t154.5 202t51 263.5q0 129 -27.5 237.5t-83.5 194t-151.5 134t-221.5 48.5q-103 0 -188.5 -45.5t-140.5 -121.5t-85 -172.5t-30 -200.5zM504 1665l86 98l315 -280l-41 -47z" />
<glyph unicode="&#xd3;" horiz-adv-x="1431" d="M113 672q0 110 22.5 210.5t72 190t121 155t176.5 104t232 38.5q117 0 215 -41t164.5 -109t113 -159t68 -189t21.5 -200q0 -110 -22 -210t-71 -191t-120.5 -157.5t-177 -105.5t-234.5 -39q-118 0 -216 41.5t-164.5 110.5t-112.5 160.5t-67 190t-21 200.5zM252 709 q0 -103 16 -193t53 -169t92 -135.5t137 -89t185 -32.5q136 0 239.5 79.5t154.5 202t51 263.5q0 129 -27.5 237.5t-83.5 194t-151.5 134t-221.5 48.5q-103 0 -188.5 -45.5t-140.5 -121.5t-85 -172.5t-30 -200.5zM524 1483l316 280l88 -98l-363 -229z" />
<glyph unicode="&#xd4;" horiz-adv-x="1431" d="M113 672q0 110 22.5 210.5t72 190t121 155t176.5 104t232 38.5q117 0 215 -41t164.5 -109t113 -159t68 -189t21.5 -200q0 -110 -22 -210t-71 -191t-120.5 -157.5t-177 -105.5t-234.5 -39q-118 0 -216 41.5t-164.5 110.5t-112.5 160.5t-67 190t-21 200.5zM252 709 q0 -103 16 -193t53 -169t92 -135.5t137 -89t185 -32.5q136 0 239.5 79.5t154.5 202t51 263.5q0 129 -27.5 237.5t-83.5 194t-151.5 134t-221.5 48.5q-103 0 -188.5 -45.5t-140.5 -121.5t-85 -172.5t-30 -200.5zM397 1483l289 280h55l289 -280l-43 -47l-272 211l-275 -211z " />
<glyph unicode="&#xd5;" horiz-adv-x="1431" d="M113 672q0 110 22.5 210.5t72 190t121 155t176.5 104t232 38.5q117 0 215 -41t164.5 -109t113 -159t68 -189t21.5 -200q0 -110 -22 -210t-71 -191t-120.5 -157.5t-177 -105.5t-234.5 -39q-118 0 -216 41.5t-164.5 110.5t-112.5 160.5t-67 190t-21 200.5zM252 709 q0 -103 16 -193t53 -169t92 -135.5t137 -89t185 -32.5q136 0 239.5 79.5t154.5 202t51 263.5q0 129 -27.5 237.5t-83.5 194t-151.5 134t-221.5 48.5q-103 0 -188.5 -45.5t-140.5 -121.5t-85 -172.5t-30 -200.5zM424 1462q15 22 49 73.5t51 76.5q35 49 101 49q37 0 111 -41 t108 -41q29 0 62.5 32.5t86.5 98.5l51 -33q-51 -83 -100 -151q-35 -49 -98 -49q-38 0 -113.5 39.5t-107.5 39.5t-64.5 -30.5t-85.5 -98.5z" />
<glyph unicode="&#xd6;" horiz-adv-x="1431" d="M113 672q0 110 22.5 210.5t72 190t121 155t176.5 104t232 38.5q117 0 215 -41t164.5 -109t113 -159t68 -189t21.5 -200q0 -110 -22 -210t-71 -191t-120.5 -157.5t-177 -105.5t-234.5 -39q-118 0 -216 41.5t-164.5 110.5t-112.5 160.5t-67 190t-21 200.5zM252 709 q0 -103 16 -193t53 -169t92 -135.5t137 -89t185 -32.5q136 0 239.5 79.5t154.5 202t51 263.5q0 129 -27.5 237.5t-83.5 194t-151.5 134t-221.5 48.5q-103 0 -188.5 -45.5t-140.5 -121.5t-85 -172.5t-30 -200.5zM418 1579q0 37 25.5 63.5t62.5 26.5t63.5 -26.5t26.5 -63.5 t-26.5 -62.5t-63.5 -25.5t-62.5 25.5t-25.5 62.5zM834 1579q0 37 25.5 63.5t62.5 26.5t63.5 -26.5t26.5 -63.5t-26.5 -62.5t-63.5 -25.5t-62.5 25.5t-25.5 62.5z" />
<glyph unicode="&#xd7;" horiz-adv-x="911" d="M98 274l279 279l-279 276l80 78l277 -276l278 278l78 -78l-279 -278l279 -281l-78 -75l-278 276l-277 -276z" />
<glyph unicode="&#xd8;" horiz-adv-x="1431" d="M113 672q0 110 22.5 210.5t72 190t121 155t176.5 104t232 38.5q193 0 332 -110l88 124l76 -53l-94 -135q89 -99 134.5 -238t45.5 -286q0 -110 -22 -210t-71 -191t-120.5 -157.5t-177 -105.5t-234.5 -39q-196 0 -338 113l-86 -123l-73 53l94 133q-89 100 -133.5 239.5 t-44.5 287.5zM252 709q0 -286 119 -449l622 891q-119 98 -297 98q-103 0 -188.5 -45.5t-140.5 -121.5t-85 -172.5t-30 -200.5zM434 190q117 -100 301 -100q136 0 239.5 79.5t154.5 202t51 263.5q0 284 -123 446z" />
<glyph unicode="&#xd9;" horiz-adv-x="1341" d="M166 502v839h135v-847q0 -193 100 -297.5t269 -104.5t269.5 104.5t100.5 297.5v847h136v-839q0 -242 -131 -387.5t-375 -145.5q-241 0 -372.5 146t-131.5 387zM424 1665l86 98l315 -280l-41 -47z" />
<glyph unicode="&#xda;" horiz-adv-x="1341" d="M166 502v839h135v-847q0 -193 100 -297.5t269 -104.5t269.5 104.5t100.5 297.5v847h136v-839q0 -242 -131 -387.5t-375 -145.5q-241 0 -372.5 146t-131.5 387zM516 1483l315 280l89 -98l-363 -229z" />
<glyph unicode="&#xdb;" horiz-adv-x="1341" d="M166 502v839h135v-847q0 -193 100 -297.5t269 -104.5t269.5 104.5t100.5 297.5v847h136v-839q0 -242 -131 -387.5t-375 -145.5q-241 0 -372.5 146t-131.5 387zM356 1483l289 280h55l289 -280l-43 -47l-272 211l-275 -211z" />
<glyph unicode="&#xdc;" horiz-adv-x="1341" d="M166 502v839h135v-847q0 -193 100 -297.5t269 -104.5t269.5 104.5t100.5 297.5v847h136v-839q0 -242 -131 -387.5t-375 -145.5q-241 0 -372.5 146t-131.5 387zM373 1579q0 37 25.5 63.5t62.5 26.5t63.5 -26.5t26.5 -63.5t-26.5 -62.5t-63.5 -25.5t-62.5 25.5t-25.5 62.5z M788 1579q0 37 26 63.5t63 26.5t63.5 -26.5t26.5 -63.5t-26.5 -62.5t-63.5 -25.5t-63 25.5t-26 62.5z" />
<glyph unicode="&#xdd;" horiz-adv-x="1198" d="M45 1341h154l403 -663l402 663h147l-485 -774v-567h-136v565zM477 1483l316 280l88 -98l-363 -229z" />
<glyph unicode="&#xde;" horiz-adv-x="1138" d="M184 0v1341h135v-305h261q76 0 141.5 -10t127.5 -34t105.5 -62t70 -97.5t26.5 -136.5q0 -88 -29.5 -156.5t-76.5 -110t-112 -68t-129.5 -36.5t-136.5 -10h-248v-315h-135zM319 434h195q68 0 121.5 5t107 20.5t89 41.5t57.5 69.5t22 103.5t-20.5 104.5t-54 71.5t-85.5 43 t-106.5 21.5t-126.5 5.5h-199v-486z" />
<glyph unicode="&#xdf;" horiz-adv-x="1120" d="M72 840v69l143 33v195q0 193 91.5 297t264.5 104q164 0 257.5 -104.5t93.5 -247.5q0 -142 -67 -248.5t-189 -155.5q153 -43 251.5 -149t98.5 -264q0 -184 -94.5 -292t-247.5 -108q-53 0 -117 22t-100 60l37 66q55 -35 147 -35q111 0 177.5 70.5t66.5 201.5 q0 154 -105.5 254.5t-283.5 100.5v110q136 0 215.5 95t79.5 247q0 111 -57 192t-167 81q-66 0 -111.5 -27.5t-69.5 -80t-34 -114t-10 -143.5v-1069h-127v840h-143z" />
<glyph unicode="&#xe0;" horiz-adv-x="987" d="M104 246q0 71 28.5 124.5t72 85t105.5 51t119 26t122 6.5h154v73q0 134 -59 194t-179 60q-73 0 -151.5 -24.5t-131.5 -59.5l-24 92q71 49 159.5 77t167.5 28q184 0 264 -97.5t80 -291.5v-590h-69l-41 113q-51 -64 -132 -104t-183 -40q-130 0 -216 74.5t-86 202.5z M233 260q0 -84 58 -134t155 -50q85 0 155 36t104 91v246h-127q-345 0 -345 -189zM276 1417l113 72l223 -340l-53 -35z" />
<glyph unicode="&#xe1;" horiz-adv-x="987" d="M104 246q0 71 28.5 124.5t72 85t105.5 51t119 26t122 6.5h154v73q0 134 -59 194t-179 60q-73 0 -151.5 -24.5t-131.5 -59.5l-24 92q71 49 159.5 77t167.5 28q184 0 264 -97.5t80 -291.5v-590h-69l-41 113q-51 -64 -132 -104t-183 -40q-130 0 -216 74.5t-86 202.5z M233 260q0 -84 58 -134t155 -50q85 0 155 36t104 91v246h-127q-345 0 -345 -189zM391 1149l223 340l113 -72l-285 -303z" />
<glyph unicode="&#xe2;" horiz-adv-x="987" d="M104 246q0 71 28.5 124.5t72 85t105.5 51t119 26t122 6.5h154v73q0 134 -59 194t-179 60q-73 0 -151.5 -24.5t-131.5 -59.5l-24 92q71 49 159.5 77t167.5 28q184 0 264 -97.5t80 -291.5v-590h-69l-41 113q-51 -64 -132 -104t-183 -40q-130 0 -216 74.5t-86 202.5z M233 260q0 -84 58 -134t155 -50q85 0 155 36t104 91v246h-127q-345 0 -345 -189zM250 1149l223 340h55l224 -340l-52 -35l-200 238l-199 -238z" />
<glyph unicode="&#xe3;" horiz-adv-x="987" d="M104 246q0 71 28.5 124.5t72 85t105.5 51t119 26t122 6.5h154v73q0 134 -59 194t-179 60q-73 0 -151.5 -24.5t-131.5 -59.5l-24 92q71 49 159.5 77t167.5 28q184 0 264 -97.5t80 -291.5v-590h-69l-41 113q-51 -64 -132 -104t-183 -40q-130 0 -216 74.5t-86 202.5z M215 1155q63 96 107 158q34 55 100 55q36 0 90.5 -28.5t89.5 -28.5q32 0 69 35.5t93 105.5l51 -33q-58 -91 -106 -162q-38 -53 -101 -53q-36 0 -91 28t-89 28q-32 0 -69.5 -35.5t-92.5 -104.5zM233 260q0 -84 58 -134t155 -50q85 0 155 36t104 91v246h-127q-345 0 -345 -189 z" />
<glyph unicode="&#xe4;" horiz-adv-x="987" d="M104 246q0 71 28.5 124.5t72 85t105.5 51t119 26t122 6.5h154v73q0 134 -59 194t-179 60q-73 0 -151.5 -24.5t-131.5 -59.5l-24 92q71 49 159.5 77t167.5 28q184 0 264 -97.5t80 -291.5v-590h-69l-41 113q-51 -64 -132 -104t-183 -40q-130 0 -216 74.5t-86 202.5z M215 1264q0 35 26.5 62.5t61.5 27.5t62.5 -27.5t27.5 -62.5t-27.5 -61.5t-62.5 -26.5t-61.5 26.5t-26.5 61.5zM233 260q0 -84 58 -134t155 -50q85 0 155 36t104 91v246h-127q-345 0 -345 -189zM610 1264q0 35 26.5 62.5t61.5 27.5t62.5 -27.5t27.5 -62.5t-27.5 -61.5 t-62.5 -26.5t-61.5 26.5t-26.5 61.5z" />
<glyph unicode="&#xe5;" horiz-adv-x="987" d="M104 246q0 71 28.5 124.5t72 85t105.5 51t119 26t122 6.5h154v73q0 134 -59 194t-179 60q-73 0 -151.5 -24.5t-131.5 -59.5l-24 92q71 49 159.5 77t167.5 28q184 0 264 -97.5t80 -291.5v-590h-69l-41 113q-51 -64 -132 -104t-183 -40q-130 0 -216 74.5t-86 202.5z M233 260q0 -84 58 -134t155 -50q85 0 155 36t104 91v246h-127q-345 0 -345 -189zM305 1276q0 80 57 132t138 52t137.5 -52t56.5 -132q0 -82 -56.5 -135.5t-137.5 -53.5t-138 53.5t-57 135.5zM381 1276q0 -54 32.5 -88.5t86.5 -34.5q53 0 84.5 34t31.5 89q0 53 -31.5 87 t-84.5 34q-54 0 -86.5 -34.5t-32.5 -86.5z" />
<glyph unicode="&#xe6;" horiz-adv-x="1597" d="M102 244q0 60 19.5 108t54 79t77 53t95.5 33.5t101.5 16.5t101.5 5h151v73q0 133 -59 193.5t-178 60.5q-72 0 -150 -25t-133 -59q-4 15 -24 92q71 49 160.5 77t168.5 28q127 0 199 -46t102 -140q53 89 136 137.5t184 48.5q178 0 283.5 -120.5t105.5 -326.5l-39 -86h-637 q11 -173 106.5 -269.5t262.5 -96.5q62 0 128.5 23t111.5 61l32 -58q-61 -69 -146.5 -102t-176.5 -33q-132 0 -226 61t-147 169q-32 -99 -123 -164.5t-237 -65.5q-132 0 -218 73t-86 200zM231 260q0 -85 58.5 -134.5t154.5 -49.5q95 0 168.5 53.5t89.5 157.5v159h-127 q-344 0 -344 -186zM821 541h557q-1 157 -74.5 244t-193.5 87q-122 0 -201 -92.5t-88 -238.5z" />
<glyph unicode="&#xe7;" horiz-adv-x="944" d="M104 471q0 118 35.5 215.5t96 160.5t139 97.5t166.5 34.5q86 0 163.5 -28t133.5 -74l-23 -93q-132 82 -272 82q-133 0 -220 -107t-87 -267q0 -191 94 -299.5t262 -108.5q64 0 130 21.5t109 58.5l35 -58q-58 -66 -140 -99t-169 -36l-22 -139q79 -13 119 -51t40 -88 q0 -68 -69 -129t-187 -82l-32 57q72 17 122 60t50 86q0 31 -35 53.5t-105 28.5l35 210q-169 24 -269 163t-100 331z" />
<glyph unicode="&#xe8;" horiz-adv-x="1007" d="M104 471q0 233 118.5 370.5t295.5 137.5q178 0 283.5 -120.5t105.5 -326.5l-39 -86h-637q11 -173 106.5 -269.5t262.5 -96.5q62 0 128.5 23t111.5 61l32 -58q-61 -69 -146.5 -102t-176.5 -33q-138 0 -240.5 68.5t-153.5 180.5t-51 251zM231 541h557q-1 157 -74.5 244 t-193.5 87q-122 0 -201 -92.5t-88 -238.5zM297 1417l113 72l223 -340l-53 -35z" />
<glyph unicode="&#xe9;" horiz-adv-x="1007" d="M104 471q0 233 118.5 370.5t295.5 137.5q178 0 283.5 -120.5t105.5 -326.5l-39 -86h-637q11 -173 106.5 -269.5t262.5 -96.5q62 0 128.5 23t111.5 61l32 -58q-61 -69 -146.5 -102t-176.5 -33q-138 0 -240.5 68.5t-153.5 180.5t-51 251zM231 541h557q-1 157 -74.5 244 t-193.5 87q-122 0 -201 -92.5t-88 -238.5zM395 1149l223 340l113 -72l-285 -303z" />
<glyph unicode="&#xea;" horiz-adv-x="1007" d="M104 471q0 233 118.5 370.5t295.5 137.5q178 0 283.5 -120.5t105.5 -326.5l-39 -86h-637q11 -173 106.5 -269.5t262.5 -96.5q62 0 128.5 23t111.5 61l32 -58q-61 -69 -146.5 -102t-176.5 -33q-138 0 -240.5 68.5t-153.5 180.5t-51 251zM231 541h557q-1 157 -74.5 244 t-193.5 87q-122 0 -201 -92.5t-88 -238.5zM274 1149l224 340h55l223 -340l-51 -35l-201 238l-198 -238z" />
<glyph unicode="&#xeb;" horiz-adv-x="1007" d="M104 471q0 233 118.5 370.5t295.5 137.5q178 0 283.5 -120.5t105.5 -326.5l-39 -86h-637q11 -173 106.5 -269.5t262.5 -96.5q62 0 128.5 23t111.5 61l32 -58q-61 -69 -146.5 -102t-176.5 -33q-138 0 -240.5 68.5t-153.5 180.5t-51 251zM223 1264q0 35 26.5 62.5 t61.5 27.5t62.5 -27.5t27.5 -62.5t-27.5 -61.5t-62.5 -26.5t-61.5 26.5t-26.5 61.5zM231 541h557q-1 157 -74.5 244t-193.5 87q-122 0 -201 -92.5t-88 -238.5zM618 1264q0 35 27 62.5t62 27.5t62.5 -27.5t27.5 -62.5t-27.5 -61.5t-62.5 -26.5t-62 26.5t-27 61.5z" />
<glyph unicode="&#xec;" horiz-adv-x="505" d="M53 1417l113 72l223 -340l-53 -35zM186 0v948h127v-948h-127z" />
<glyph unicode="&#xed;" horiz-adv-x="505" d="M129 1149l221 340l113 -72l-283 -303zM186 0v948h127v-948h-127z" />
<glyph unicode="&#xee;" horiz-adv-x="505" d="M4 1149l223 340h56l223 -340l-51 -35l-201 238l-199 -238zM186 0v948h127v-948h-127z" />
<glyph unicode="&#xef;" horiz-adv-x="505" d="M-4 1264q0 37 25.5 63.5t62.5 26.5t63.5 -26.5t26.5 -63.5t-26.5 -62.5t-63.5 -25.5t-62.5 25.5t-25.5 62.5zM186 0v948h127v-948h-127zM332 1264q0 37 25.5 63.5t62.5 26.5t63.5 -26.5t26.5 -63.5t-26.5 -62.5t-63.5 -25.5t-62.5 25.5t-25.5 62.5z" />
<glyph unicode="&#xf0;" horiz-adv-x="1110" d="M100 1462q138 66 269 66q164 0 299 -101l192 146l45 -57l-178 -138q134 -132 205.5 -351.5t71.5 -471.5q0 -131 -26.5 -236.5t-79.5 -184.5t-140.5 -122t-202.5 -43q-127 0 -223.5 66t-146.5 175.5t-50 244.5q0 222 117.5 350.5t300.5 128.5q90 0 168.5 -37t132.5 -106 q-55 338 -221 516l-238 -183l-49 60l229 174q-108 84 -239 84q-104 0 -201 -39zM266 483q0 -188 87.5 -297.5t215.5 -109.5q134 0 218.5 110t84.5 340q0 58 -6 117q-44 88 -129.5 136t-181.5 48q-134 0 -211.5 -97t-77.5 -247z" />
<glyph unicode="&#xf1;" horiz-adv-x="1089" d="M166 0v948h70l40 -112q78 67 172.5 105t188.5 38q138 0 214.5 -79t76.5 -243v-657h-127v612q0 128 -49.5 191t-171.5 63q-69 0 -153 -38.5t-134 -88.5v-739h-127zM254 1155q79 120 106 158q34 55 101 55q36 0 90.5 -28.5t89.5 -28.5q32 0 69 35.5t93 105.5l51 -33 q-58 -91 -106 -162q-38 -53 -101 -53q-37 0 -92 28t-88 28q-32 0 -69.5 -35.5t-92.5 -104.5z" />
<glyph unicode="&#xf2;" horiz-adv-x="1077" d="M104 471q0 239 123.5 373.5t329.5 134.5q127 0 222.5 -67t144.5 -179.5t49 -251.5q0 -239 -124.5 -375.5t-328.5 -136.5q-126 0 -222 68.5t-145 181.5t-49 252zM236 500q0 -115 32 -208.5t104 -154.5t175 -61q90 0 158.5 52.5t102.5 137.5t34 187q0 84 -19 158t-56 133 t-98 93.5t-139 34.5q-90 0 -158 -52t-102 -135.5t-34 -184.5zM352 1417l113 72l223 -340l-53 -35z" />
<glyph unicode="&#xf3;" horiz-adv-x="1077" d="M104 471q0 239 123.5 373.5t329.5 134.5q127 0 222.5 -67t144.5 -179.5t49 -251.5q0 -239 -124.5 -375.5t-328.5 -136.5q-126 0 -222 68.5t-145 181.5t-49 252zM236 500q0 -115 32 -208.5t104 -154.5t175 -61q90 0 158.5 52.5t102.5 137.5t34 187q0 84 -19 158t-56 133 t-98 93.5t-139 34.5q-90 0 -158 -52t-102 -135.5t-34 -184.5zM410 1149l223 340l112 -72l-284 -303z" />
<glyph unicode="&#xf4;" horiz-adv-x="1077" d="M104 471q0 239 123.5 373.5t329.5 134.5q127 0 222.5 -67t144.5 -179.5t49 -251.5q0 -239 -124.5 -375.5t-328.5 -136.5q-126 0 -222 68.5t-145 181.5t-49 252zM236 500q0 -115 32 -208.5t104 -154.5t175 -61q90 0 158.5 52.5t102.5 137.5t34 187q0 84 -19 158t-56 133 t-98 93.5t-139 34.5q-90 0 -158 -52t-102 -135.5t-34 -184.5zM289 1149l223 340h55l224 -340l-52 -35l-200 238l-199 -238z" />
<glyph unicode="&#xf5;" horiz-adv-x="1077" d="M104 471q0 239 123.5 373.5t329.5 134.5q127 0 222.5 -67t144.5 -179.5t49 -251.5q0 -239 -124.5 -375.5t-328.5 -136.5q-126 0 -222 68.5t-145 181.5t-49 252zM236 500q0 -115 32 -208.5t104 -154.5t175 -61q90 0 158.5 52.5t102.5 137.5t34 187q0 84 -19 158t-56 133 t-98 93.5t-139 34.5q-90 0 -158 -52t-102 -135.5t-34 -184.5zM246 1155q79 120 106 158q34 55 101 55q36 0 90.5 -28.5t89.5 -28.5q32 0 69 35.5t93 105.5l51 -33q-39 -62 -107 -162q-38 -53 -100 -53q-37 0 -92 28t-88 28q-32 0 -69.5 -35.5t-92.5 -104.5z" />
<glyph unicode="&#xf6;" horiz-adv-x="1077" d="M104 471q0 239 123.5 373.5t329.5 134.5q127 0 222.5 -67t144.5 -179.5t49 -251.5q0 -239 -124.5 -375.5t-328.5 -136.5q-126 0 -222 68.5t-145 181.5t-49 252zM236 500q0 -115 32 -208.5t104 -154.5t175 -61q90 0 158.5 52.5t102.5 137.5t34 187q0 84 -19 158t-56 133 t-98 93.5t-139 34.5q-90 0 -158 -52t-102 -135.5t-34 -184.5zM252 1264q0 35 26.5 62.5t61.5 27.5t62.5 -27.5t27.5 -62.5t-27.5 -61.5t-62.5 -26.5t-61.5 26.5t-26.5 61.5zM647 1264q0 35 26.5 62.5t61.5 27.5t62.5 -27.5t27.5 -62.5t-27.5 -61.5t-62.5 -26.5t-61.5 26.5 t-26.5 61.5z" />
<glyph unicode="&#xf7;" horiz-adv-x="1064" d="M84 487v111h897v-111h-897zM436 166q0 40 27.5 69t68.5 29q40 0 69.5 -29t29.5 -69q0 -39 -29.5 -67.5t-69.5 -28.5q-41 0 -68.5 28t-27.5 68zM436 932q0 40 27.5 69t68.5 29q40 0 69.5 -29t29.5 -69q0 -39 -29.5 -67.5t-69.5 -28.5q-41 0 -68.5 28t-27.5 68z" />
<glyph unicode="&#xf8;" horiz-adv-x="1077" d="M104 471q0 239 123.5 373.5t329.5 134.5q141 0 242 -82l71 100l64 -45l-78 -110q117 -139 117 -361q0 -239 -124.5 -375.5t-328.5 -136.5q-126 0 -225 70l-62 -88l-65 45l68 96q-132 141 -132 379zM236 500q0 -181 75 -299l416 592q-79 79 -197 79q-90 0 -158 -52 t-102 -135.5t-34 -184.5zM365 139q72 -63 182 -63q90 0 158.5 52.5t102.5 137.5t34 187q0 163 -66 274z" />
<glyph unicode="&#xf9;" horiz-adv-x="1087" d="M160 297v651h127v-606q0 -130 49 -195t170 -65q69 0 153 38.5t136 88.5v739h127v-948h-72l-39 113q-78 -68 -172.5 -105t-189.5 -37q-138 0 -213.5 81t-75.5 245zM322 1417l112 72l223 -340l-53 -35z" />
<glyph unicode="&#xfa;" horiz-adv-x="1087" d="M160 297v651h127v-606q0 -130 49 -195t170 -65q69 0 153 38.5t136 88.5v739h127v-948h-72l-39 113q-78 -68 -172.5 -105t-189.5 -37q-138 0 -213.5 81t-75.5 245zM434 1149l223 340l113 -72l-285 -303z" />
<glyph unicode="&#xfb;" horiz-adv-x="1087" d="M160 297v651h127v-606q0 -130 49 -195t170 -65q69 0 153 38.5t136 88.5v739h127v-948h-72l-39 113q-78 -68 -172.5 -105t-189.5 -37q-138 0 -213.5 81t-75.5 245zM295 1149l223 340h55l224 -340l-52 -35l-200 238l-199 -238z" />
<glyph unicode="&#xfc;" horiz-adv-x="1087" d="M160 297v651h127v-606q0 -130 49 -195t170 -65q69 0 153 38.5t136 88.5v739h127v-948h-72l-39 113q-78 -68 -172.5 -105t-189.5 -37q-138 0 -213.5 81t-75.5 245zM266 1264q0 35 26.5 62.5t61.5 27.5t62.5 -27.5t27.5 -62.5t-27.5 -61.5t-62.5 -26.5t-61.5 26.5 t-26.5 61.5zM662 1264q0 35 26.5 62.5t61.5 27.5t62.5 -27.5t27.5 -62.5t-27.5 -61.5t-62.5 -26.5t-61.5 26.5t-26.5 61.5z" />
<glyph unicode="&#xfd;" horiz-adv-x="958" d="M47 948h139l303 -794l299 794h136l-588 -1450h-131l221 514zM365 1149l223 340l112 -72l-284 -303z" />
<glyph unicode="&#xfe;" horiz-adv-x="1107" d="M166 -502v2011h127v-647q126 117 291 117q187 0 303.5 -140.5t116.5 -355.5q0 -239 -125 -375.5t-320 -136.5q-71 0 -143 28t-123 83v-584h-127zM293 209q48 -66 120 -96.5t144 -30.5q139 0 226 105.5t87 267.5q0 116 -34 207.5t-106 147.5t-173 56q-75 0 -146 -30.5 t-118 -83.5v-543z" />
<glyph unicode="&#xff;" horiz-adv-x="958" d="M47 948h139l303 -794l299 794h136l-588 -1450h-131l221 514zM201 1264q0 35 26.5 62.5t61.5 27.5t62.5 -27.5t27.5 -62.5t-27.5 -61.5t-62.5 -26.5t-61.5 26.5t-26.5 61.5zM596 1264q0 35 26.5 62.5t61.5 27.5t62.5 -27.5t27.5 -62.5t-27.5 -61.5t-62.5 -26.5t-61.5 26.5 t-26.5 61.5z" />
<glyph unicode="&#x100;" horiz-adv-x="1284" d="M66 0l509 1341h136l506 -1341h-152l-133 367h-586l-133 -367h-147zM354 1522v96h576v-96h-576zM389 485h500l-250 689z" />
<glyph unicode="&#x101;" horiz-adv-x="987" d="M104 246q0 71 28.5 124.5t72 85t105.5 51t119 26t122 6.5h154v73q0 134 -59 194t-179 60q-73 0 -151.5 -24.5t-131.5 -59.5l-24 92q71 49 159.5 77t167.5 28q184 0 264 -97.5t80 -291.5v-590h-69l-41 113q-51 -64 -132 -104t-183 -40q-130 0 -216 74.5t-86 202.5z M231 1233v96h535v-96h-535zM233 260q0 -84 58 -134t155 -50q85 0 155 36t104 91v246h-127q-345 0 -345 -189z" />
<glyph unicode="&#x102;" horiz-adv-x="1284" d="M66 0l509 1341h136l506 -1341h-152l-133 367h-586l-133 -367h-147zM381 1696h72q11 -70 59 -113t125 -43t124 43t58 113h72q0 -104 -73 -181t-181 -77q-110 0 -183 78t-73 180zM389 485h500l-250 689z" />
<glyph unicode="&#x103;" horiz-adv-x="987" d="M104 246q0 71 28.5 124.5t72 85t105.5 51t119 26t122 6.5h154v73q0 134 -59 194t-179 60q-73 0 -151.5 -24.5t-131.5 -59.5l-24 92q71 49 159.5 77t167.5 28q184 0 264 -97.5t80 -291.5v-590h-69l-41 113q-51 -64 -132 -104t-183 -40q-130 0 -216 74.5t-86 202.5z M233 260q0 -84 58 -134t155 -50q85 0 155 36t104 91v246h-127q-345 0 -345 -189zM250 1413h72q11 -80 57 -125t119 -45t119 45t57 125h71q0 -113 -69.5 -192.5t-177.5 -79.5q-113 0 -180.5 81.5t-67.5 190.5z" />
<glyph unicode="&#x104;" horiz-adv-x="1284" d="M66 0l509 1341h136l506 -1341q-129 -52 -199 -130t-70 -167q0 -61 39.5 -95t95.5 -34q64 0 115 31q15 -30 33 -60q-75 -63 -191 -63q-101 0 -158 58.5t-57 142.5q0 88 64 177t172 150l-129 357h-586l-133 -367h-147zM389 485h500l-250 689z" />
<glyph unicode="&#x105;" horiz-adv-x="987" d="M104 246q0 71 28.5 124.5t72 85t105.5 51t119 26t122 6.5h154v73q0 134 -59 194t-179 60q-73 0 -151.5 -24.5t-131.5 -59.5l-24 92q71 49 159.5 77t167.5 28q184 0 264 -97.5t80 -291.5v-590q-102 -55 -166.5 -135t-64.5 -164q0 -61 35.5 -94t93.5 -33q61 0 109 31 l32 -60q-78 -63 -184 -63q-87 0 -146 48.5t-59 139.5q0 98 71 191.5t200 163.5l-31 88q-51 -64 -132 -104t-183 -40q-130 0 -216 74.5t-86 202.5zM233 260q0 -84 58 -134t155 -50q85 0 155 36t104 91v246h-127q-345 0 -345 -189z" />
<glyph unicode="&#x106;" horiz-adv-x="1241" d="M111 668q0 116 24 219.5t74 192t122.5 153t176 101t227.5 36.5q119 0 215.5 -37t161.5 -88l-27 -106q-96 56 -181.5 83t-192.5 27q-129 0 -235 -70.5t-166 -194.5t-60 -275q0 -95 17.5 -182t57 -167.5t99 -139t149.5 -93.5t201 -35q101 0 192.5 39t133.5 86l39 -70 q-8 -11 -22.5 -26t-53 -43.5t-82.5 -50.5t-113.5 -39t-144.5 -17q-129 0 -234.5 42.5t-174 112t-115.5 161.5t-67.5 187.5t-20.5 193.5zM545 1483l315 280l88 -98l-362 -229z" />
<glyph unicode="&#x107;" horiz-adv-x="944" d="M104 471q0 118 35.5 215.5t96 160.5t139 97.5t166.5 34.5q86 0 163.5 -28t133.5 -74l-23 -93q-132 82 -272 82q-133 0 -220 -107t-87 -267q0 -191 94 -299.5t262 -108.5q64 0 130 21.5t109 58.5l35 -58q-61 -69 -147.5 -102t-175.5 -33q-132 0 -233.5 68t-153.5 181 t-52 251zM399 1149l224 340l112 -72l-284 -303z" />
<glyph unicode="&#x108;" horiz-adv-x="1241" d="M111 668q0 116 24 219.5t74 192t122.5 153t176 101t227.5 36.5q119 0 215.5 -37t161.5 -88l-27 -106q-96 56 -181.5 83t-192.5 27q-129 0 -235 -70.5t-166 -194.5t-60 -275q0 -95 17.5 -182t57 -167.5t99 -139t149.5 -93.5t201 -35q101 0 192.5 39t133.5 86l39 -70 q-8 -11 -22.5 -26t-53 -43.5t-82.5 -50.5t-113.5 -39t-144.5 -17q-129 0 -234.5 42.5t-174 112t-115.5 161.5t-67.5 187.5t-20.5 193.5zM387 1483l289 280h55l289 -280l-43 -47l-272 211l-275 -211z" />
<glyph unicode="&#x109;" horiz-adv-x="944" d="M104 471q0 118 35.5 215.5t96 160.5t139 97.5t166.5 34.5q86 0 163.5 -28t133.5 -74l-23 -93q-132 82 -272 82q-133 0 -220 -107t-87 -267q0 -191 94 -299.5t262 -108.5q64 0 130 21.5t109 58.5l35 -58q-61 -69 -147.5 -102t-175.5 -33q-132 0 -233.5 68t-153.5 181 t-52 251zM285 1149l223 340h55l223 -340l-51 -35l-200 238l-199 -238z" />
<glyph unicode="&#x10a;" horiz-adv-x="1241" d="M111 668q0 116 24 219.5t74 192t122.5 153t176 101t227.5 36.5q119 0 215.5 -37t161.5 -88l-27 -106q-96 56 -181.5 83t-192.5 27q-129 0 -235 -70.5t-166 -194.5t-60 -275q0 -95 17.5 -182t57 -167.5t99 -139t149.5 -93.5t201 -35q101 0 192.5 39t133.5 86l39 -70 q-8 -11 -22.5 -26t-53 -43.5t-82.5 -50.5t-113.5 -39t-144.5 -17q-129 0 -234.5 42.5t-174 112t-115.5 161.5t-67.5 187.5t-20.5 193.5zM608 1579q0 37 25.5 63.5t62.5 26.5t63.5 -26.5t26.5 -63.5t-26.5 -62.5t-63.5 -25.5t-62.5 25.5t-25.5 62.5z" />
<glyph unicode="&#x10b;" horiz-adv-x="944" d="M104 471q0 118 35.5 215.5t96 160.5t139 97.5t166.5 34.5q86 0 163.5 -28t133.5 -74l-23 -93q-132 82 -272 82q-133 0 -220 -107t-87 -267q0 -191 94 -299.5t262 -108.5q64 0 130 21.5t109 58.5l35 -58q-61 -69 -147.5 -102t-175.5 -33q-132 0 -233.5 68t-153.5 181 t-52 251zM449 1264q0 35 26.5 62.5t61.5 27.5t62.5 -27.5t27.5 -62.5t-27.5 -61.5t-62.5 -26.5t-61.5 26.5t-26.5 61.5z" />
<glyph unicode="&#x10c;" horiz-adv-x="1241" d="M111 668q0 116 24 219.5t74 192t122.5 153t176 101t227.5 36.5q119 0 215.5 -37t161.5 -88l-27 -106q-96 56 -181.5 83t-192.5 27q-129 0 -235 -70.5t-166 -194.5t-60 -275q0 -95 17.5 -182t57 -167.5t99 -139t149.5 -93.5t201 -35q101 0 192.5 39t133.5 86l39 -70 q-8 -11 -22.5 -26t-53 -43.5t-82.5 -50.5t-113.5 -39t-144.5 -17q-129 0 -234.5 42.5t-174 112t-115.5 161.5t-67.5 187.5t-20.5 193.5zM381 1716l43 47l274 -211l273 211l43 -47l-289 -280h-55z" />
<glyph unicode="&#x10d;" horiz-adv-x="944" d="M104 471q0 118 35.5 215.5t96 160.5t139 97.5t166.5 34.5q86 0 163.5 -28t133.5 -74l-23 -93q-132 82 -272 82q-133 0 -220 -107t-87 -267q0 -191 94 -299.5t262 -108.5q64 0 130 21.5t109 58.5l35 -58q-61 -69 -147.5 -102t-175.5 -33q-132 0 -233.5 68t-153.5 181 t-52 251zM279 1456l51 33l198 -236l201 236l51 -33l-223 -342h-55z" />
<glyph unicode="&#x10e;" horiz-adv-x="1327" d="M184 0v1341h400q135 0 242.5 -36.5t179 -100t119 -153t68.5 -190t21 -216.5q0 -100 -24.5 -193t-76 -175.5t-126 -144t-181 -97t-233.5 -35.5h-389zM266 1716l43 47l275 -211l272 211l43 -47l-289 -280h-55zM319 119h216q272 0 406 136.5t134 397.5q0 90 -14 168.5 t-50 154t-93 129t-149.5 86t-211.5 32.5h-238v-1104z" />
<glyph unicode="&#x10f;" horiz-adv-x="1122" d="M104 465q0 230 121.5 372t304.5 142q166 0 283 -111v641h127v-1509h-70l-41 113q-109 -144 -299 -144q-126 0 -224.5 68t-150 180t-51.5 248zM236 494q0 -110 34 -201t108 -150t177 -59q178 0 258 137v531q-57 57 -119 85.5t-145 28.5q-140 0 -226.5 -104.5t-86.5 -267.5 zM1085 1114v395h136l-72 -395h-64z" />
<glyph unicode="&#x110;" horiz-adv-x="1327" d="M39 627v96h145v618h400q135 0 242.5 -36.5t179 -100t119 -153t68.5 -190t21 -216.5q0 -100 -24.5 -193t-76 -175.5t-126 -144t-181 -97t-233.5 -35.5h-389v627h-145zM319 119h216q272 0 406 136.5t134 397.5q0 90 -14 168.5t-50 154t-93 129t-149.5 86t-211.5 32.5h-238 v-500h345v-96h-345v-508z" />
<glyph unicode="&#x111;" horiz-adv-x="1105" d="M102 465q0 230 121.5 372t304.5 142q166 0 283 -111v320h-332v80h332v241h127v-241h145v-80h-145v-1188h-70l-41 113q-109 -144 -299 -144q-126 0 -224.5 68t-150 180t-51.5 248zM233 494q0 -110 34 -201t108.5 -150t177.5 -59q178 0 258 137v531q-57 57 -119 85.5 t-145 28.5q-140 0 -227 -104.5t-87 -267.5z" />
<glyph unicode="&#x112;" horiz-adv-x="1105" d="M184 0v1341h774v-118h-639v-486h500v-119h-500v-499h682v-119h-817zM285 1522v96h575v-96h-575z" />
<glyph unicode="&#x113;" horiz-adv-x="1007" d="M104 471q0 233 118.5 370.5t295.5 137.5q178 0 283.5 -120.5t105.5 -326.5l-39 -86h-637q11 -173 106.5 -269.5t262.5 -96.5q62 0 128.5 23t111.5 61l32 -58q-61 -69 -146.5 -102t-176.5 -33q-138 0 -240.5 68.5t-153.5 180.5t-51 251zM231 541h557q-1 157 -74.5 244 t-193.5 87q-122 0 -201 -92.5t-88 -238.5zM250 1233v96h534v-96h-534z" />
<glyph unicode="&#x114;" horiz-adv-x="1105" d="M184 0v1341h774v-118h-639v-486h500v-119h-500v-499h682v-119h-817zM336 1696h72q11 -70 59 -113t125 -43t124 43t58 113h72q0 -104 -73 -181t-181 -77q-110 0 -183 78t-73 180z" />
<glyph unicode="&#x115;" horiz-adv-x="1007" d="M104 471q0 233 118.5 370.5t295.5 137.5q178 0 283.5 -120.5t105.5 -326.5l-39 -86h-637q11 -173 106.5 -269.5t262.5 -96.5q62 0 128.5 23t111.5 61l32 -58q-61 -69 -146.5 -102t-176.5 -33q-138 0 -240.5 68.5t-153.5 180.5t-51 251zM231 541h557q-1 157 -74.5 244 t-193.5 87q-122 0 -201 -92.5t-88 -238.5zM287 1413h71q11 -80 57.5 -125t119.5 -45t119 45t57 125h71q0 -113 -69.5 -192.5t-177.5 -79.5q-113 0 -180.5 81.5t-67.5 190.5z" />
<glyph unicode="&#x116;" horiz-adv-x="1105" d="M184 0v1341h774v-118h-639v-486h500v-119h-500v-499h682v-119h-817zM504 1579q0 37 25.5 63.5t62.5 26.5t63.5 -26.5t26.5 -63.5t-26.5 -62.5t-63.5 -25.5t-62.5 25.5t-25.5 62.5z" />
<glyph unicode="&#x117;" horiz-adv-x="1007" d="M104 471q0 233 118.5 370.5t295.5 137.5q178 0 283.5 -120.5t105.5 -326.5l-39 -86h-637q11 -173 106.5 -269.5t262.5 -96.5q62 0 128.5 23t111.5 61l32 -58q-61 -69 -146.5 -102t-176.5 -33q-138 0 -240.5 68.5t-153.5 180.5t-51 251zM231 541h557q-1 157 -74.5 244 t-193.5 87q-122 0 -201 -92.5t-88 -238.5zM434 1264q0 35 26.5 62.5t61.5 27.5t62.5 -27.5t27.5 -62.5t-27.5 -61.5t-62.5 -26.5t-61.5 26.5t-26.5 61.5z" />
<glyph unicode="&#x118;" horiz-adv-x="1105" d="M184 0v1341h774v-118h-639v-486h500v-119h-500v-499h682v-119q-129 -50 -203.5 -130.5t-74.5 -166.5q0 -65 33 -97t90 -32t108 31q15 -30 33 -60q-75 -63 -184 -63q-87 0 -145 48.5t-58 139.5q0 90 67.5 177t194.5 153h-678z" />
<glyph unicode="&#x119;" horiz-adv-x="1007" d="M104 471q0 233 118.5 370.5t295.5 137.5q178 0 283.5 -120.5t105.5 -326.5l-39 -86h-637q11 -173 106.5 -269.5t262.5 -96.5q62 0 128.5 23t111.5 61l32 -58q-60 -67 -155 -106q-101 -56 -165.5 -135.5t-64.5 -163.5q0 -61 35.5 -94t93.5 -33q61 0 109 31l33 -60 q-78 -63 -185 -63q-87 0 -145.5 48.5t-58.5 139.5q0 79 48 158t138 143q-141 0 -245 68.5t-155 180.5t-51 251zM231 541h557q-1 157 -74.5 244t-193.5 87q-122 0 -201 -92.5t-88 -238.5z" />
<glyph unicode="&#x11a;" horiz-adv-x="1105" d="M184 0v1341h774v-118h-639v-486h500v-119h-500v-499h682v-119h-817zM266 1716l43 47l275 -211l272 211l43 -47l-289 -280h-55z" />
<glyph unicode="&#x11b;" horiz-adv-x="1007" d="M104 471q0 233 118.5 370.5t295.5 137.5q178 0 283.5 -120.5t105.5 -326.5l-39 -86h-637q11 -173 106.5 -269.5t262.5 -96.5q62 0 128.5 23t111.5 61l32 -58q-61 -69 -146.5 -102t-176.5 -33q-138 0 -240.5 68.5t-153.5 180.5t-51 251zM231 541h557q-1 157 -74.5 244 t-193.5 87q-122 0 -201 -92.5t-88 -238.5zM281 1456l51 33l198 -236l201 236l51 -33l-223 -342h-55z" />
<glyph unicode="&#x11c;" horiz-adv-x="1370" d="M113 664q0 111 25 213t78 192t129.5 157t186.5 105.5t242 38.5q130 0 241 -38t175 -87l-27 -106q-187 110 -411 110q-143 0 -259.5 -75.5t-179.5 -200t-63 -268.5q0 -121 31 -228t93 -194t166 -138t238 -51q94 0 172 33.5t119 79.5v350h-307v119h440v-676h-69l-41 119 q-53 -58 -151.5 -104t-225.5 -46q-123 0 -225 41.5t-170.5 110t-116 159.5t-69 188t-21.5 196zM430 1483l289 280h55l289 -280l-43 -47l-272 211l-275 -211z" />
<glyph unicode="&#x11d;" horiz-adv-x="1026" d="M82 -244q0 79 53.5 150.5t136.5 105.5q-61 30 -91.5 80.5t-30.5 108.5q0 98 73 174q-102 102 -102 252q0 86 30 155t80.5 111t112 64t127.5 22q91 0 164 -31h315v-92l-227 27q129 -105 129 -273q0 -140 -101 -238t-264 -98q-122 0 -213 60q-34 -51 -34 -92 q0 -79 55.5 -116.5t185.5 -37.5q68 0 118.5 -3t110 -12t101 -27.5t77.5 -47.5t54.5 -75t18.5 -107q0 -159 -134.5 -253.5t-343.5 -94.5q-182 0 -291.5 79t-109.5 209zM197 -215q0 -104 83 -160.5t224 -56.5q146 0 242 67.5t96 180.5q0 38 -13 65.5t-38 45t-58 28.5t-78 16 t-92 8t-106 5h-8q-59 0 -103 8q-64 -31 -106.5 -86t-42.5 -121zM236 637q0 -67 23.5 -118.5t62 -81.5t84 -45t94.5 -15q105 0 173 69.5t68 174.5q0 120 -75 188t-187 68q-102 0 -172.5 -65t-70.5 -175zM238 1149l223 340h55l223 -340l-51 -35l-201 238l-198 -238z" />
<glyph unicode="&#x11e;" horiz-adv-x="1370" d="M113 664q0 111 25 213t78 192t129.5 157t186.5 105.5t242 38.5q130 0 241 -38t175 -87l-27 -106q-187 110 -411 110q-143 0 -259.5 -75.5t-179.5 -200t-63 -268.5q0 -121 31 -228t93 -194t166 -138t238 -51q94 0 172 33.5t119 79.5v350h-307v119h440v-676h-69l-41 119 q-53 -58 -151.5 -104t-225.5 -46q-123 0 -225 41.5t-170.5 110t-116 159.5t-69 188t-21.5 196zM469 1696h72q11 -70 59 -113t125 -43t124 43t58 113h72q0 -104 -73 -181t-181 -77q-110 0 -183 78t-73 180z" />
<glyph unicode="&#x11f;" horiz-adv-x="1026" d="M82 -244q0 79 53.5 150.5t136.5 105.5q-61 30 -91.5 80.5t-30.5 108.5q0 98 73 174q-102 102 -102 252q0 86 30 155t80.5 111t112 64t127.5 22q91 0 164 -31h315v-92l-227 27q129 -105 129 -273q0 -140 -101 -238t-264 -98q-122 0 -213 60q-34 -51 -34 -92 q0 -79 55.5 -116.5t185.5 -37.5q68 0 118.5 -3t110 -12t101 -27.5t77.5 -47.5t54.5 -75t18.5 -107q0 -159 -134.5 -253.5t-343.5 -94.5q-182 0 -291.5 79t-109.5 209zM197 -215q0 -104 83 -160.5t224 -56.5q146 0 242 67.5t96 180.5q0 38 -13 65.5t-38 45t-58 28.5t-78 16 t-92 8t-106 5h-8q-59 0 -103 8q-64 -31 -106.5 -86t-42.5 -121zM236 637q0 -67 23.5 -118.5t62 -81.5t84 -45t94.5 -15q105 0 173 69.5t68 174.5q0 120 -75 188t-187 68q-102 0 -172.5 -65t-70.5 -175zM246 1413h71q11 -80 57.5 -125t119.5 -45t119 45t57 125h71 q0 -113 -69.5 -192.5t-177.5 -79.5q-113 0 -180.5 81.5t-67.5 190.5z" />
<glyph unicode="&#x120;" horiz-adv-x="1370" d="M113 664q0 111 25 213t78 192t129.5 157t186.5 105.5t242 38.5q130 0 241 -38t175 -87l-27 -106q-187 110 -411 110q-143 0 -259.5 -75.5t-179.5 -200t-63 -268.5q0 -121 31 -228t93 -194t166 -138t238 -51q94 0 172 33.5t119 79.5v350h-307v119h440v-676h-69l-41 119 q-53 -58 -151.5 -104t-225.5 -46q-123 0 -225 41.5t-170.5 110t-116 159.5t-69 188t-21.5 196zM655 1579q0 37 25.5 63.5t62.5 26.5t64 -26.5t27 -63.5q0 -36 -27 -62t-64 -26t-62.5 25.5t-25.5 62.5z" />
<glyph unicode="&#x121;" horiz-adv-x="1026" d="M82 -244q0 79 53.5 150.5t136.5 105.5q-61 30 -91.5 80.5t-30.5 108.5q0 98 73 174q-102 102 -102 252q0 86 30 155t80.5 111t112 64t127.5 22q91 0 164 -31h315v-92l-227 27q129 -105 129 -273q0 -140 -101 -238t-264 -98q-122 0 -213 60q-34 -51 -34 -92 q0 -79 55.5 -116.5t185.5 -37.5q68 0 118.5 -3t110 -12t101 -27.5t77.5 -47.5t54.5 -75t18.5 -107q0 -159 -134.5 -253.5t-343.5 -94.5q-182 0 -291.5 79t-109.5 209zM197 -215q0 -104 83 -160.5t224 -56.5q146 0 242 67.5t96 180.5q0 38 -13 65.5t-38 45t-58 28.5t-78 16 t-92 8t-106 5h-8q-59 0 -103 8q-64 -31 -106.5 -86t-42.5 -121zM236 637q0 -67 23.5 -118.5t62 -81.5t84 -45t94.5 -15q105 0 173 69.5t68 174.5q0 120 -75 188t-187 68q-102 0 -172.5 -65t-70.5 -175zM395 1264q0 35 26.5 62.5t61.5 27.5t62.5 -27.5t27.5 -62.5 t-27.5 -61.5t-62.5 -26.5t-61.5 26.5t-26.5 61.5z" />
<glyph unicode="&#x122;" horiz-adv-x="1370" d="M113 664q0 111 25 213t78 192t129.5 157t186.5 105.5t242 38.5q130 0 241 -38t175 -87l-27 -106q-187 110 -411 110q-143 0 -259.5 -75.5t-179.5 -200t-63 -268.5q0 -121 31 -228t93 -194t166 -138t238 -51q94 0 172 33.5t119 79.5v350h-307v119h440v-676h-69l-41 119 q-53 -58 -151.5 -104t-225.5 -46q-123 0 -225 41.5t-170.5 110t-116 159.5t-69 188t-21.5 196zM670 -170h137l-74 -369h-63v369z" />
<glyph unicode="&#x123;" horiz-adv-x="1026" d="M82 -244q0 79 53.5 150.5t136.5 105.5q-61 30 -91.5 80.5t-30.5 108.5q0 98 73 174q-102 102 -102 252q0 86 30 155t80.5 111t112 64t127.5 22q91 0 164 -31h315v-92l-227 27q129 -105 129 -273q0 -140 -101 -238t-264 -98q-122 0 -213 60q-34 -51 -34 -92 q0 -79 55.5 -116.5t185.5 -37.5q68 0 118.5 -3t110 -12t101 -27.5t77.5 -47.5t54.5 -75t18.5 -107q0 -159 -134.5 -253.5t-343.5 -94.5q-182 0 -291.5 79t-109.5 209zM197 -215q0 -104 83 -160.5t224 -56.5q146 0 242 67.5t96 180.5q0 38 -13 65.5t-38 45t-58 28.5t-78 16 t-92 8t-106 5h-8q-59 0 -103 8q-64 -31 -106.5 -86t-42.5 -121zM236 637q0 -67 23.5 -118.5t62 -81.5t84 -45t94.5 -15q105 0 173 69.5t68 174.5q0 120 -75 188t-187 68q-102 0 -172.5 -65t-70.5 -175zM389 1141l74 368h63v-368h-137z" />
<glyph unicode="&#x124;" horiz-adv-x="1359" d="M184 0v1341h135v-604h721v604h136v-1341h-136v618h-721v-618h-135zM356 1483l289 280h55l289 -280l-43 -47l-272 211l-275 -211z" />
<glyph unicode="&#x125;" horiz-adv-x="1089" d="M-86 1575l289 280h55l289 -280l-43 -47l-273 211l-274 -211zM166 0v1509h127v-657q70 58 160.5 92.5t183.5 34.5q138 0 214.5 -79t76.5 -243v-657h-127v612q0 128 -49.5 191t-171.5 63q-69 0 -153 -38.5t-134 -88.5v-739h-127z" />
<glyph unicode="&#x126;" horiz-adv-x="1359" d="M31 995v90h153v256h135v-256h721v256h136v-256h153v-90h-153v-995h-136v618h-721v-618h-135v995h-153zM319 737h721v258h-721v-258z" />
<glyph unicode="&#x127;" horiz-adv-x="1089" d="M33 1188v80h133v241h127v-241h344v-80h-344v-336q70 58 160.5 92.5t183.5 34.5q138 0 214.5 -79t76.5 -243v-657h-127v612q0 128 -49.5 191t-171.5 63q-69 0 -153 -38.5t-134 -88.5v-739h-127v1188h-133z" />
<glyph unicode="&#x128;" horiz-adv-x="507" d="M-57 1462q15 22 49 73.5t51 76.5q35 49 100 49q37 0 111 -41t108 -41q29 0 63.5 32.5t86.5 98.5l51 -33q-51 -83 -100 -151q-35 -49 -98 -49q-38 0 -114 39.5t-108 39.5t-64 -30t-85 -99zM186 0v1341h136v-1341h-136z" />
<glyph unicode="&#x129;" horiz-adv-x="505" d="M-31 1155q63 96 107 158q34 55 100 55q36 0 90.5 -28.5t89.5 -28.5q32 0 69 35.5t93 105.5l51 -33q-58 -91 -106 -162q-38 -53 -101 -53q-36 0 -91.5 28t-88.5 28q-32 0 -69.5 -35.5t-92.5 -104.5zM186 0v948h127v-948h-127z" />
<glyph unicode="&#x12a;" horiz-adv-x="507" d="M-33 1522v96h576v-96h-576zM186 0v1341h136v-1341h-136z" />
<glyph unicode="&#x12b;" horiz-adv-x="505" d="M35 1233v96h446v-96h-446zM186 0v948h127v-948h-127z" />
<glyph unicode="&#x12c;" horiz-adv-x="507" d="M2 1696h72q11 -70 59 -113t125 -43t124 43t58 113h72q0 -104 -73 -181t-181 -77q-110 0 -183 78t-73 180zM186 0v1341h136v-1341h-136z" />
<glyph unicode="&#x12d;" horiz-adv-x="505" d="M4 1413h72q11 -80 57 -125t119 -45t119 45t57 125h72q0 -113 -70 -192.5t-178 -79.5q-113 0 -180.5 81.5t-67.5 190.5zM186 0v948h127v-948h-127z" />
<glyph unicode="&#x12e;" horiz-adv-x="507" d="M55 -330q0 164 131 301v1370h136v-1341q-81 -90 -114.5 -153t-33.5 -146q0 -61 35.5 -94t93.5 -33q61 0 109 31l32 -60q-78 -63 -184 -63q-87 0 -146 48.5t-59 139.5z" />
<glyph unicode="&#x12f;" horiz-adv-x="505" d="M47 -330q0 161 139 303v975h127v-948q-81 -90 -114 -153t-33 -146q0 -61 35.5 -94t93.5 -33q60 0 108 31l33 -60q-78 -63 -184 -63q-87 0 -146 48.5t-59 139.5zM164 1264q0 37 25.5 63.5t62.5 26.5t63.5 -26.5t26.5 -63.5t-26.5 -62.5t-63.5 -25.5t-62.5 25.5t-25.5 62.5 z" />
<glyph unicode="&#x130;" horiz-adv-x="507" d="M166 1579q0 37 25.5 63.5t62.5 26.5t63.5 -26.5t26.5 -63.5t-26.5 -62.5t-63.5 -25.5t-62.5 25.5t-25.5 62.5zM186 0v1341h136v-1341h-136z" />
<glyph unicode="&#x131;" horiz-adv-x="505" d="M186 0v948h127v-948h-127z" />
<glyph unicode="&#x132;" horiz-adv-x="1050" d="M186 0v1341h136v-1341h-136zM434 -219l35 59q59 -24 109 -24q149 0 149 213v1312h135v-1341q0 -73 -21 -129t-57.5 -88t-79.5 -48t-92 -16q-107 0 -178 62z" />
<glyph unicode="&#x133;" horiz-adv-x="987" d="M164 1264q0 37 25.5 63.5t62.5 26.5t63.5 -26.5t26.5 -63.5t-26.5 -62.5t-63.5 -25.5t-62.5 25.5t-25.5 62.5zM186 0v948h127v-948h-127zM393 -463l33 60q64 -25 111 -25q149 0 149 213v1163h127v-1196q0 -141 -69 -208.5t-173 -67.5q-105 0 -178 61zM662 1264 q0 37 25.5 63.5t62.5 26.5t63.5 -26.5t26.5 -63.5q0 -38 -26.5 -64t-63.5 -26t-62.5 26t-25.5 64z" />
<glyph unicode="&#x134;" horiz-adv-x="559" d="M-47 -219l35 59q58 -24 108 -24q150 0 150 213v1312h135v-1341q0 -73 -21 -129t-57.5 -88t-79.5 -48t-92 -16q-107 0 -178 62zM-10 1483l289 280h55l289 -280l-43 -47l-273 211l-274 -211z" />
<glyph unicode="&#x135;" horiz-adv-x="507" d="M-86 -463l33 60q64 -25 110 -25q150 0 150 213v1163h127v-1196q0 -141 -69 -208.5t-173 -67.5q-105 0 -178 61zM23 1149l223 340h55l223 -340l-51 -35l-201 238l-198 -238z" />
<glyph unicode="&#x136;" horiz-adv-x="1196" d="M184 0v1341h135v-604h181l440 604h154l-471 -643l524 -698h-170l-455 618h-203v-618h-135zM481 -170h137l-73 -369h-64v369z" />
<glyph unicode="&#x137;" horiz-adv-x="985" d="M166 0v1509h127v-964h133l336 403h153l-368 -436l368 -512h-151l-313 434h-158v-434h-127zM393 -170h137l-73 -369h-64v369z" />
<glyph unicode="&#x138;" horiz-adv-x="985" d="M166 0v948h127v-403h133l336 403h153l-368 -436l368 -512h-151l-313 434h-158v-434h-127z" />
<glyph unicode="&#x139;" horiz-adv-x="1005" d="M106 1483l316 280l88 -98l-363 -229zM184 0v1341h135v-1222h623v-119h-758z" />
<glyph unicode="&#x13a;" horiz-adv-x="458" d="M92 1647l316 280l88 -98l-363 -230zM166 0v1509h127v-1509h-127z" />
<glyph unicode="&#x13b;" horiz-adv-x="1005" d="M184 0v1341h135v-1222h623v-119h-758zM463 -170h137l-74 -369h-63v369z" />
<glyph unicode="&#x13c;" horiz-adv-x="458" d="M166 0v1509h127v-1509h-127zM166 -170h137l-74 -369h-63v369z" />
<glyph unicode="&#x13d;" horiz-adv-x="1005" d="M184 0v1341h135v-1222h623v-119h-758zM487 1114v395h142l-80 -395h-62z" />
<glyph unicode="&#x13e;" horiz-adv-x="479" d="M166 0v1509h127v-1509h-127zM442 1114v395h133l-71 -395h-62z" />
<glyph unicode="&#x13f;" horiz-adv-x="1005" d="M184 0v1341h135v-1222h623v-119h-758zM539 733q0 35 26.5 62.5t61.5 27.5t62.5 -27.5t27.5 -62.5t-27.5 -61.5t-62.5 -26.5t-61.5 26.5t-26.5 61.5z" />
<glyph unicode="&#x140;" horiz-adv-x="645" d="M166 0v1509h127v-1509h-127zM434 733q0 35 26.5 62.5t61.5 27.5t62.5 -27.5t27.5 -62.5t-27.5 -61.5t-62.5 -26.5t-61.5 26.5t-26.5 61.5z" />
<glyph unicode="&#x141;" horiz-adv-x="1019" d="M41 498v104l149 88v651h136v-569l342 205v-107l-342 -204v-547h622v-119h-758v586z" />
<glyph unicode="&#x142;" horiz-adv-x="563" d="M66 498v104l149 119v788h127v-686l193 154v-107l-193 -153v-717h-127v616z" />
<glyph unicode="&#x143;" horiz-adv-x="1380" d="M184 0v1341h189l694 -1110v1110h129v-1341h-131l-752 1204v-1204h-129zM545 1483l315 280l88 -98l-362 -229z" />
<glyph unicode="&#x144;" horiz-adv-x="1089" d="M166 0v948h70l40 -112q78 67 172.5 105t188.5 38q138 0 214.5 -79t76.5 -243v-657h-127v612q0 128 -49.5 191t-171.5 63q-69 0 -153 -38.5t-134 -88.5v-739h-127zM422 1149l223 340l113 -72l-285 -303z" />
<glyph unicode="&#x145;" horiz-adv-x="1380" d="M184 0v1341h189l694 -1110v1110h129v-1341h-131l-752 1204v-1204h-129zM612 -170h138l-74 -369h-64v369z" />
<glyph unicode="&#x146;" horiz-adv-x="1089" d="M166 0v948h70l40 -112q78 67 172.5 105t188.5 38q138 0 214.5 -79t76.5 -243v-657h-127v612q0 128 -49.5 191t-171.5 63q-69 0 -153 -38.5t-134 -88.5v-739h-127zM481 -170h137l-73 -369h-64v369z" />
<glyph unicode="&#x147;" horiz-adv-x="1380" d="M184 0v1341h189l694 -1110v1110h129v-1341h-131l-752 1204v-1204h-129zM389 1716l43 47l275 -211l272 211l43 -47l-289 -280h-55z" />
<glyph unicode="&#x148;" horiz-adv-x="1089" d="M166 0v948h70l40 -112q78 67 172.5 105t188.5 38q138 0 214.5 -79t76.5 -243v-657h-127v612q0 128 -49.5 191t-171.5 63q-69 0 -153 -38.5t-134 -88.5v-739h-127zM287 1456l51 33l199 -236l200 236l51 -33l-223 -342h-55z" />
<glyph unicode="&#x149;" horiz-adv-x="1138" d="M18 1030v479h154l-90 -479h-64zM215 0v948h70l41 -112q78 67 172 105t188 38q138 0 214.5 -79t76.5 -243v-657h-127v612q0 128 -49.5 191t-171.5 63q-69 0 -153 -38.5t-134 -88.5v-739h-127z" />
<glyph unicode="&#x14a;" horiz-adv-x="1380" d="M182 0v1341h191l694 -1112v1112h129v-1585q0 -142 -70.5 -211t-175.5 -69q-108 0 -178 61l33 60q64 -25 110 -25q74 0 113 54.5t39 160.5v213l-754 1204v-1204h-131z" />
<glyph unicode="&#x14b;" horiz-adv-x="1089" d="M166 0v948h70l40 -112q79 67 173 105t188 38q138 0 214.5 -79t76.5 -243v-905q0 -142 -69 -210t-173 -68q-105 0 -180 63l33 57q61 -24 112 -24q150 0 150 213v831q0 127 -49 189.5t-170 62.5q-71 0 -154 -38.5t-135 -90.5v-737h-127z" />
<glyph unicode="&#x14c;" horiz-adv-x="1431" d="M113 672q0 110 22.5 210.5t72 190t121 155t176.5 104t232 38.5q117 0 215 -41t164.5 -109t113 -159t68 -189t21.5 -200q0 -110 -22 -210t-71 -191t-120.5 -157.5t-177 -105.5t-234.5 -39q-118 0 -216 41.5t-164.5 110.5t-112.5 160.5t-67 190t-21 200.5zM252 709 q0 -103 16 -193t53 -169t92 -135.5t137 -89t185 -32.5q136 0 239.5 79.5t154.5 202t51 263.5q0 129 -27.5 237.5t-83.5 194t-151.5 134t-221.5 48.5q-103 0 -188.5 -45.5t-140.5 -121.5t-85 -172.5t-30 -200.5zM428 1522v96h576v-96h-576z" />
<glyph unicode="&#x14d;" horiz-adv-x="1077" d="M104 471q0 239 123.5 373.5t329.5 134.5q127 0 222.5 -67t144.5 -179.5t49 -251.5q0 -239 -124.5 -375.5t-328.5 -136.5q-126 0 -222 68.5t-145 181.5t-49 252zM236 500q0 -115 32 -208.5t104 -154.5t175 -61q90 0 158.5 52.5t102.5 137.5t34 187q0 84 -19 158t-56 133 t-98 93.5t-139 34.5q-90 0 -158 -52t-102 -135.5t-34 -184.5zM270 1233v96h535v-96h-535z" />
<glyph unicode="&#x14e;" horiz-adv-x="1431" d="M113 672q0 110 22.5 210.5t72 190t121 155t176.5 104t232 38.5q117 0 215 -41t164.5 -109t113 -159t68 -189t21.5 -200q0 -110 -22 -210t-71 -191t-120.5 -157.5t-177 -105.5t-234.5 -39q-118 0 -216 41.5t-164.5 110.5t-112.5 160.5t-67 190t-21 200.5zM252 709 q0 -103 16 -193t53 -169t92 -135.5t137 -89t185 -32.5q136 0 239.5 79.5t154.5 202t51 263.5q0 129 -27.5 237.5t-83.5 194t-151.5 134t-221.5 48.5q-103 0 -188.5 -45.5t-140.5 -121.5t-85 -172.5t-30 -200.5zM459 1696h71q11 -70 59.5 -113t125.5 -43t124 43t58 113h72 q0 -104 -73 -181t-181 -77q-110 0 -183 78t-73 180z" />
<glyph unicode="&#x14f;" horiz-adv-x="1077" d="M104 471q0 239 123.5 373.5t329.5 134.5q127 0 222.5 -67t144.5 -179.5t49 -251.5q0 -239 -124.5 -375.5t-328.5 -136.5q-126 0 -222 68.5t-145 181.5t-49 252zM236 500q0 -115 32 -208.5t104 -154.5t175 -61q90 0 158.5 52.5t102.5 137.5t34 187q0 84 -19 158t-56 133 t-98 93.5t-139 34.5q-90 0 -158 -52t-102 -135.5t-34 -184.5zM291 1413h71q11 -80 57.5 -125t119.5 -45t119 45t57 125h71q0 -113 -69.5 -192.5t-177.5 -79.5q-113 0 -180.5 81.5t-67.5 190.5z" />
<glyph unicode="&#x150;" horiz-adv-x="1431" d="M113 672q0 110 22.5 210.5t72 190t121 155t176.5 104t232 38.5q117 0 215 -41t164.5 -109t113 -159t68 -189t21.5 -200q0 -110 -22 -210t-71 -191t-120.5 -157.5t-177 -105.5t-234.5 -39q-118 0 -216 41.5t-164.5 110.5t-112.5 160.5t-67 190t-21 200.5zM252 709 q0 -103 16 -193t53 -169t92 -135.5t137 -89t185 -32.5q136 0 239.5 79.5t154.5 202t51 263.5q0 129 -27.5 237.5t-83.5 194t-151.5 134t-221.5 48.5q-103 0 -188.5 -45.5t-140.5 -121.5t-85 -172.5t-30 -200.5zM346 1483l316 280l88 -98l-363 -229zM709 1483l315 280l88 -98 l-362 -229z" />
<glyph unicode="&#x151;" horiz-adv-x="1077" d="M104 471q0 239 123.5 373.5t329.5 134.5q127 0 222.5 -67t144.5 -179.5t49 -251.5q0 -239 -124.5 -375.5t-328.5 -136.5q-126 0 -222 68.5t-145 181.5t-49 252zM236 500q0 -115 32 -208.5t104 -154.5t175 -61q90 0 158.5 52.5t102.5 137.5t34 187q0 84 -19 158t-56 133 t-98 93.5t-139 34.5q-90 0 -158 -52t-102 -135.5t-34 -184.5zM283 1149l221 340l112 -72l-282 -303zM592 1149l223 340l113 -72l-283 -303z" />
<glyph unicode="&#x152;" horiz-adv-x="1900" d="M111 672q0 110 22 209.5t71 189.5t120.5 156t177.5 104.5t235 38.5q117 0 226 -53v24h788v-118h-639v-488h500v-117h-500v-501h682v-117h-852v20q-111 -49 -252 -49q-116 0 -214 43.5t-164 114.5t-112.5 163t-67.5 188t-21 192zM250 709q0 -127 28 -235.5t84 -196 t151 -137.5t220 -50q149 0 244 68v1020q-118 71 -283 71q-82 0 -154.5 -30.5t-124.5 -82.5t-90 -121t-56.5 -147t-18.5 -159z" />
<glyph unicode="&#x153;" horiz-adv-x="1744" d="M104 469q0 240 122.5 375t326.5 135q125 0 214.5 -65.5t137.5 -178.5q49 117 141 180.5t209 63.5q178 0 284.5 -120.5t107.5 -326.5l-41 -86h-637q12 -174 107 -270t263 -96q61 0 128 23t112 61l33 -58q-61 -69 -147 -102t-177 -33q-138 0 -235 65.5t-146 180.5 q-51 -119 -149.5 -182.5t-235.5 -63.5q-127 0 -223 67t-145.5 179.5t-49.5 251.5zM236 498q0 -85 19 -159.5t56.5 -134t98.5 -94t139 -34.5q134 0 212.5 109t78.5 266q0 85 -19.5 159.5t-56.5 133.5t-98.5 93.5t-139.5 34.5q-134 0 -212 -108.5t-78 -265.5zM971 541h555 q-1 156 -74.5 243.5t-191.5 87.5q-123 0 -202 -92.5t-87 -238.5z" />
<glyph unicode="&#x154;" horiz-adv-x="1208" d="M184 0v1341h414q93 0 172.5 -22t143.5 -66t100.5 -118.5t36.5 -171.5q0 -170 -94.5 -271t-243.5 -131l424 -561h-162l-412 549h-244v-549h-135zM319 664h213q379 0 379 276q0 64 -18 112.5t-50 80.5t-79.5 52.5t-102.5 29t-124 8.5h-218v-559zM432 1483l316 280l88 -98 l-363 -229z" />
<glyph unicode="&#x155;" horiz-adv-x="737" d="M166 0v950h70l40 -112q60 65 142 99t160 34q80 0 127 -39l-27 -103q-79 23 -123 23q-155 0 -262 -113v-739h-127zM270 1149l224 340l112 -72l-284 -303z" />
<glyph unicode="&#x156;" horiz-adv-x="1208" d="M184 0v1341h414q93 0 172.5 -22t143.5 -66t100.5 -118.5t36.5 -171.5q0 -170 -94.5 -271t-243.5 -131l424 -561h-162l-412 549h-244v-549h-135zM319 664h213q379 0 379 276q0 64 -18 112.5t-50 80.5t-79.5 52.5t-102.5 29t-124 8.5h-218v-559zM481 -170h137l-73 -369h-64 v369z" />
<glyph unicode="&#x157;" horiz-adv-x="737" d="M166 0v950h70l40 -112q60 65 142 99t160 34q80 0 127 -39l-27 -103q-79 23 -123 23q-155 0 -262 -113v-739h-127zM166 -170h137l-74 -369h-63v369z" />
<glyph unicode="&#x158;" horiz-adv-x="1208" d="M184 0v1341h414q93 0 172.5 -22t143.5 -66t100.5 -118.5t36.5 -171.5q0 -170 -94.5 -271t-243.5 -131l424 -561h-162l-412 549h-244v-549h-135zM266 1716l43 47l275 -211l272 211l43 -47l-289 -280h-55zM319 664h213q379 0 379 276q0 64 -18 112.5t-50 80.5t-79.5 52.5 t-102.5 29t-124 8.5h-218v-559z" />
<glyph unicode="&#x159;" horiz-adv-x="737" d="M166 0v950h70l40 -112q60 65 142 99t160 34q80 0 127 -39l-27 -103q-79 23 -123 23q-155 0 -262 -113v-739h-127zM168 1456l51 33l199 -236l200 236l52 -33l-224 -342h-55z" />
<glyph unicode="&#x15a;" horiz-adv-x="1052" d="M98 129l47 84q68 -52 161.5 -86.5t195.5 -34.5q53 0 104 13t97 40t74 74.5t28 108.5q0 51 -23.5 93.5t-63 74t-91 60t-108 54.5t-113 53.5t-108 61.5t-91 73.5t-63 94.5t-23.5 121q0 166 115.5 261t300.5 95q108 0 208 -38t162 -87l-26 -106q-167 110 -355 110 q-117 0 -192.5 -63.5t-75.5 -163.5q0 -60 38 -109t98.5 -84.5t133.5 -69t146 -71t133.5 -82t98.5 -110.5t38 -148q0 -80 -26 -146t-68 -108.5t-97.5 -71t-112 -41t-114.5 -12.5q-129 0 -239 42.5t-189 117.5zM330 1483l315 280l88 -98l-362 -229z" />
<glyph unicode="&#x15b;" horiz-adv-x="882" d="M104 100l41 72q51 -47 126 -70.5t143 -23.5q107 0 171 45t64 117q0 41 -29 75t-75 59t-101.5 49t-111 51t-101.5 59t-75 79t-29 105q0 119 90 190.5t227 71.5q82 0 159.5 -28t133.5 -72l-24 -95q-131 88 -262 88q-95 0 -147 -39t-52 -106q0 -40 29 -73t75 -57.5 t102 -47.5t112 -50t102 -59t75 -80.5t29 -107.5q0 -124 -91 -203.5t-249 -79.5q-90 0 -181.5 34t-150.5 97zM305 1149l223 340l113 -72l-285 -303z" />
<glyph unicode="&#x15c;" horiz-adv-x="1052" d="M98 129l47 84q68 -52 161.5 -86.5t195.5 -34.5q53 0 104 13t97 40t74 74.5t28 108.5q0 51 -23.5 93.5t-63 74t-91 60t-108 54.5t-113 53.5t-108 61.5t-91 73.5t-63 94.5t-23.5 121q0 166 115.5 261t300.5 95q108 0 208 -38t162 -87l-26 -106q-167 110 -355 110 q-117 0 -192.5 -63.5t-75.5 -163.5q0 -60 38 -109t98.5 -84.5t133.5 -69t146 -71t133.5 -82t98.5 -110.5t38 -148q0 -80 -26 -146t-68 -108.5t-97.5 -71t-112 -41t-114.5 -12.5q-129 0 -239 42.5t-189 117.5zM205 1483l289 280h55l289 -280l-43 -47l-273 211l-274 -211z" />
<glyph unicode="&#x15d;" horiz-adv-x="882" d="M104 100l41 72q51 -47 126 -70.5t143 -23.5q107 0 171 45t64 117q0 41 -29 75t-75 59t-101.5 49t-111 51t-101.5 59t-75 79t-29 105q0 119 90 190.5t227 71.5q82 0 159.5 -28t133.5 -72l-24 -95q-131 88 -262 88q-95 0 -147 -39t-52 -106q0 -40 29 -73t75 -57.5 t102 -47.5t112 -50t102 -59t75 -80.5t29 -107.5q0 -124 -91 -203.5t-249 -79.5q-90 0 -181.5 34t-150.5 97zM188 1149l224 340h55l223 -340l-51 -35l-201 238l-198 -238z" />
<glyph unicode="&#x15e;" horiz-adv-x="1052" d="M98 129l47 84q68 -52 161.5 -86.5t195.5 -34.5q53 0 104 13t97 40t74 74.5t28 108.5q0 51 -23.5 93.5t-63 74t-91 60t-108 54.5t-113 53.5t-108 61.5t-91 73.5t-63 94.5t-23.5 121q0 166 115.5 261t300.5 95q108 0 208 -38t162 -87l-26 -106q-167 110 -355 110 q-117 0 -192.5 -63.5t-75.5 -163.5q0 -60 38 -109t98.5 -84.5t133.5 -69t146 -71t133.5 -82t98.5 -110.5t38 -148q0 -95 -35.5 -169t-94.5 -117t-125 -65.5t-138 -25.5l-23 -139q79 -13 119.5 -51t40.5 -88q0 -68 -69 -129t-187 -82l-33 57q72 17 122 60t50 86 q0 31 -34.5 53.5t-104.5 28.5l33 206q-222 18 -367 156z" />
<glyph unicode="&#x15f;" horiz-adv-x="882" d="M104 100l41 72q51 -47 126 -70.5t143 -23.5q107 0 171 45t64 117q0 41 -29 75t-75 59t-101.5 49t-111 51t-101.5 59t-75 79t-29 105q0 119 90 190.5t227 71.5q82 0 159.5 -28t133.5 -72l-24 -95q-131 88 -262 88q-95 0 -147 -39t-52 -106q0 -40 29 -73t75 -57.5 t102 -47.5t112 -50t102 -59t75 -80.5t29 -107.5q0 -118 -82.5 -196t-228.5 -85l-23 -139q79 -13 119.5 -51t40.5 -88q0 -68 -69 -129t-187 -82l-33 57q72 17 122 60t50 86q0 31 -34.5 53.5t-104.5 28.5l35 206q-79 8 -153.5 41t-123.5 86z" />
<glyph unicode="&#x160;" horiz-adv-x="1052" d="M98 129l47 84q68 -52 161.5 -86.5t195.5 -34.5q53 0 104 13t97 40t74 74.5t28 108.5q0 51 -23.5 93.5t-63 74t-91 60t-108 54.5t-113 53.5t-108 61.5t-91 73.5t-63 94.5t-23.5 121q0 166 115.5 261t300.5 95q108 0 208 -38t162 -87l-26 -106q-167 110 -355 110 q-117 0 -192.5 -63.5t-75.5 -163.5q0 -60 38 -109t98.5 -84.5t133.5 -69t146 -71t133.5 -82t98.5 -110.5t38 -148q0 -80 -26 -146t-68 -108.5t-97.5 -71t-112 -41t-114.5 -12.5q-129 0 -239 42.5t-189 117.5zM205 1716l43 47l274 -211l273 211l43 -47l-289 -280h-55z" />
<glyph unicode="&#x161;" horiz-adv-x="882" d="M104 100l41 72q51 -47 126 -70.5t143 -23.5q107 0 171 45t64 117q0 41 -29 75t-75 59t-101.5 49t-111 51t-101.5 59t-75 79t-29 105q0 119 90 190.5t227 71.5q82 0 159.5 -28t133.5 -72l-24 -95q-131 88 -262 88q-95 0 -147 -39t-52 -106q0 -40 29 -73t75 -57.5 t102 -47.5t112 -50t102 -59t75 -80.5t29 -107.5q0 -124 -91 -203.5t-249 -79.5q-90 0 -181.5 34t-150.5 97zM176 1456l51 33l199 -236l201 236l51 -33l-223 -342h-56z" />
<glyph unicode="&#x162;" horiz-adv-x="1124" d="M43 1223v118h1038v-118h-452v-1223h-135v1223h-451zM489 -170h138l-74 -369h-64v369z" />
<glyph unicode="&#x163;" horiz-adv-x="757" d="M66 838v71l147 33l57 234h64v-228h338v-110h-338v-553q0 -209 172 -209q74 0 133 30l33 -59q-35 -32 -91.5 -51t-115.5 -19q-258 0 -258 277v584h-141zM311 -170h138l-74 -369h-64v369z" />
<glyph unicode="&#x164;" horiz-adv-x="1124" d="M43 1223v118h1038v-118h-452v-1223h-135v1223h-451zM250 1716l43 47l274 -211l273 211l43 -47l-289 -280h-55z" />
<glyph unicode="&#x165;" horiz-adv-x="757" d="M66 838v71l147 33l57 234h64v-228h338v-110h-338v-553q0 -209 172 -209q74 0 133 30l33 -59q-35 -32 -91.5 -51t-115.5 -19q-258 0 -258 277v584h-141zM483 1114v395h131l-71 -395h-60z" />
<glyph unicode="&#x166;" horiz-adv-x="1124" d="M43 1223v118h1038v-118h-452v-500h309v-96h-309v-627h-135v627h-310v96h310v500h-451z" />
<glyph unicode="&#x167;" horiz-adv-x="757" d="M66 838v71l147 33l57 234h64v-228h338v-110h-338v-271h252v-82h-252v-200q0 -209 172 -209q74 0 133 30l33 -59q-35 -32 -91.5 -51t-115.5 -19q-258 0 -258 277v231h-125v82h125v271h-141z" />
<glyph unicode="&#x168;" horiz-adv-x="1341" d="M166 502v839h135v-847q0 -193 100 -297.5t269 -104.5t269.5 104.5t100.5 297.5v847h136v-839q0 -242 -131 -387.5t-375 -145.5q-241 0 -372.5 146t-131.5 387zM383 1462q15 22 49 73.5t51 76.5q35 49 101 49q36 0 111 -41t108 -41q29 0 62.5 32.5t86.5 98.5l52 -33 q-45 -74 -101 -151q-35 -49 -98 -49q-38 0 -113.5 39.5t-107.5 39.5t-64.5 -30.5t-85.5 -98.5z" />
<glyph unicode="&#x169;" horiz-adv-x="1087" d="M160 297v651h127v-606q0 -130 49 -195t170 -65q69 0 153 38.5t136 88.5v739h127v-948h-72l-39 113q-78 -68 -172.5 -105t-189.5 -37q-138 0 -213.5 81t-75.5 245zM252 1155q79 120 106 158q34 55 101 55q36 0 90.5 -28.5t89.5 -28.5q32 0 69 35.5t93 105.5l51 -33 q-39 -62 -107 -162q-38 -53 -100 -53q-37 0 -92 28t-88 28q-32 0 -69.5 -35.5t-92.5 -104.5z" />
<glyph unicode="&#x16a;" horiz-adv-x="1341" d="M166 502v839h135v-847q0 -193 100 -297.5t269 -104.5t269.5 104.5t100.5 297.5v847h136v-839q0 -242 -131 -387.5t-375 -145.5q-241 0 -372.5 146t-131.5 387zM389 1522v96h576v-96h-576z" />
<glyph unicode="&#x16b;" horiz-adv-x="1087" d="M160 297v651h127v-606q0 -130 49 -195t170 -65q69 0 153 38.5t136 88.5v739h127v-948h-72l-39 113q-78 -68 -172.5 -105t-189.5 -37q-138 0 -213.5 81t-75.5 245zM276 1233v96h535v-96h-535z" />
<glyph unicode="&#x16c;" horiz-adv-x="1341" d="M166 502v839h135v-847q0 -193 100 -297.5t269 -104.5t269.5 104.5t100.5 297.5v847h136v-839q0 -242 -131 -387.5t-375 -145.5q-241 0 -372.5 146t-131.5 387zM420 1696h72q11 -70 59 -113t125 -43t124 43t58 113h72q0 -104 -73 -181t-181 -77q-110 0 -183 78t-73 180z " />
<glyph unicode="&#x16d;" horiz-adv-x="1087" d="M160 297v651h127v-606q0 -130 49 -195t170 -65q69 0 153 38.5t136 88.5v739h127v-948h-72l-39 113q-78 -68 -172.5 -105t-189.5 -37q-138 0 -213.5 81t-75.5 245zM303 1413h72q11 -80 57 -125t119 -45t119 45t57 125h72q0 -113 -70 -192.5t-178 -79.5q-113 0 -180.5 81.5 t-67.5 190.5z" />
<glyph unicode="&#x16e;" horiz-adv-x="1341" d="M166 502v839h135v-847q0 -193 100 -297.5t269 -104.5t269.5 104.5t100.5 297.5v847h136v-839q0 -242 -131 -387.5t-375 -145.5q-241 0 -372.5 146t-131.5 387zM475 1513q0 80 57 132.5t138 52.5t137.5 -52.5t56.5 -132.5q0 -82 -56.5 -135t-137.5 -53t-138 53t-57 135z M551 1513q0 -54 32.5 -88t86.5 -34q53 0 84.5 33.5t31.5 88.5q0 53 -31.5 87t-84.5 34q-54 0 -86.5 -34.5t-32.5 -86.5z" />
<glyph unicode="&#x16f;" horiz-adv-x="1087" d="M160 297v651h127v-606q0 -130 49 -195t170 -65q69 0 153 38.5t136 88.5v739h127v-948h-72l-39 113q-78 -68 -172.5 -105t-189.5 -37q-138 0 -213.5 81t-75.5 245zM352 1276q0 80 57 132t138 52t137.5 -52t56.5 -132q0 -82 -56.5 -135.5t-137.5 -53.5t-138 53.5t-57 135.5 zM428 1276q0 -54 32.5 -88.5t86.5 -34.5q53 0 85 34t32 89q0 53 -32 87t-85 34q-54 0 -86.5 -34.5t-32.5 -86.5z" />
<glyph unicode="&#x170;" horiz-adv-x="1341" d="M166 502v839h135v-847q0 -193 100 -297.5t269 -104.5t269.5 104.5t100.5 297.5v847h136v-839q0 -242 -131 -387.5t-375 -145.5q-241 0 -372.5 146t-131.5 387zM317 1483l316 280l88 -98l-363 -229zM680 1483l315 280l88 -98l-362 -229z" />
<glyph unicode="&#x171;" horiz-adv-x="1087" d="M160 297v651h127v-606q0 -130 49 -195t170 -65q69 0 153 38.5t136 88.5v739h127v-948h-72l-39 113q-78 -68 -172.5 -105t-189.5 -37q-138 0 -213.5 81t-75.5 245zM319 1149l222 340l112 -72l-282 -303zM629 1149l223 340l113 -72l-283 -303z" />
<glyph unicode="&#x172;" horiz-adv-x="1341" d="M166 502v839h135v-847q0 -193 100 -297.5t269 -104.5t269.5 104.5t100.5 297.5v847h136v-839q0 -192 -83.5 -324.5t-242.5 -181.5q-95 -49 -157 -130t-62 -165q0 -61 35.5 -94t93.5 -33q60 0 108 31l33 -60q-78 -63 -184 -63q-87 0 -146 48.5t-59 139.5q0 79 47.5 157 t136.5 142h-26q-241 0 -372.5 146t-131.5 387z" />
<glyph unicode="&#x173;" horiz-adv-x="1087" d="M160 297v651h127v-606q0 -130 49 -195t170 -65q69 0 153 38.5t136 88.5v739h127v-948q-101 -56 -165.5 -135.5t-64.5 -163.5q0 -61 35.5 -94t93.5 -33q61 0 109 31l33 -60q-78 -63 -185 -63q-87 0 -146 48.5t-59 139.5q0 96 71 190.5t198 162.5l-31 90 q-78 -68 -172.5 -105t-189.5 -37q-138 0 -213.5 81t-75.5 245z" />
<glyph unicode="&#x174;" horiz-adv-x="2078" d="M45 1341h150l387 -1171l376 1171h164l387 -1171l377 1171h144l-457 -1341h-137l-400 1174l-391 -1174h-137zM721 1483l289 280h55l289 -280l-43 -47l-273 211l-274 -211z" />
<glyph unicode="&#x175;" horiz-adv-x="1558" d="M37 950h139l262 -796l277 796h133l278 -796l260 796h136l-346 -950h-107l-293 811l-289 -811h-108zM530 1149l224 340h55l223 -340l-51 -35l-201 238l-198 -238z" />
<glyph unicode="&#x176;" horiz-adv-x="1198" d="M45 1341h154l403 -663l402 663h147l-485 -774v-567h-136v565zM287 1483l288 280h56l289 -280l-43 -47l-273 211l-274 -211z" />
<glyph unicode="&#x177;" horiz-adv-x="958" d="M47 948h139l303 -794l299 794h136l-588 -1450h-131l221 514zM238 1149l223 340h55l223 -340l-51 -35l-201 238l-198 -238z" />
<glyph unicode="&#x178;" horiz-adv-x="1198" d="M45 1341h154l403 -663l402 663h147l-485 -774v-567h-136v565zM303 1579q0 37 25.5 63.5t62.5 26.5t63.5 -26.5t26.5 -63.5t-26.5 -62.5t-63.5 -25.5t-62.5 25.5t-25.5 62.5zM719 1579q0 37 25.5 63.5t62.5 26.5t63.5 -26.5t26.5 -63.5t-26.5 -62.5t-63.5 -25.5 t-62.5 25.5t-25.5 62.5z" />
<glyph unicode="&#x179;" horiz-adv-x="1105" d="M102 0v125l711 1098h-696v118h852v-120l-713 -1102h748v-119h-902zM342 1483l315 280l88 -98l-362 -229z" />
<glyph unicode="&#x17a;" horiz-adv-x="919" d="M104 0v115l541 725h-534v110h684v-110l-537 -729h553v-111h-707zM311 1149l224 340l112 -72l-285 -303z" />
<glyph unicode="&#x17b;" horiz-adv-x="1105" d="M102 0v125l711 1098h-696v118h852v-120l-713 -1102h748v-119h-902zM467 1579q0 37 25.5 63.5t62.5 26.5t63.5 -26.5t26.5 -63.5t-26.5 -62.5t-63.5 -25.5t-62.5 25.5t-25.5 62.5z" />
<glyph unicode="&#x17c;" horiz-adv-x="919" d="M104 0v115l541 725h-534v110h684v-110l-537 -729h553v-111h-707zM371 1264q0 35 26.5 62.5t61.5 27.5t62.5 -27.5t27.5 -62.5t-27.5 -61.5t-62.5 -26.5t-61.5 26.5t-26.5 61.5z" />
<glyph unicode="&#x17d;" horiz-adv-x="1105" d="M102 0v125l711 1098h-696v118h852v-120l-713 -1102h748v-119h-902zM238 1716l43 47l274 -211l272 211l43 -47l-288 -280h-56z" />
<glyph unicode="&#x17e;" horiz-adv-x="919" d="M104 0v115l541 725h-534v110h684v-110l-537 -729h553v-111h-707zM211 1456l51 33l199 -236l201 236l51 -33l-224 -342h-55z" />
<glyph unicode="&#x17f;" horiz-adv-x="595" d="M72 840v69l143 33v199q0 190 87.5 293.5t244.5 103.5q137 0 231 -63l-24 -95q-99 47 -195 47q-107 0 -162 -73.5t-55 -239.5v-1114h-127v840h-143z" />
<glyph unicode="&#x192;" horiz-adv-x="976" d="M-281 -451l35 62q93 -39 191 -39q38 0 64.5 8t57.5 32.5t54.5 71t51 124t52 190t51.5 270t56 363.5h-195v112h211l27 193q58 434 405 434q55 0 121 -18.5t117 -51.5l-25 -96q-122 51 -231 51q-37 0 -69 -9.5t-56 -25t-44.5 -40.5t-34.5 -50t-26 -60.5t-19 -64t-14 -68.5 t-10 -67t-8 -66.5t-8 -60.5h313v-112h-327q-39 -257 -72.5 -438t-70 -313t-71.5 -210.5t-81.5 -124.5t-94 -61.5t-114.5 -15.5q-65 0 -132.5 23.5t-103.5 57.5z" />
<glyph unicode="&#x1fc;" horiz-adv-x="1687" d="M25 0l706 1341h799v-118h-639v-488h502v-117h-502v-499h682v-119h-817v367h-396l-186 -367h-149zM420 483h336v662zM719 1483l315 280l88 -98l-362 -229z" />
<glyph unicode="&#x1fd;" horiz-adv-x="1597" d="M102 244q0 60 19.5 108t54 79t77 53t95.5 33.5t101.5 16.5t101.5 5h151v73q0 133 -59 193.5t-178 60.5q-72 0 -150 -25t-133 -59q-4 15 -24 92q71 49 160.5 77t168.5 28q127 0 199 -46t102 -140q53 89 136 137.5t184 48.5q178 0 283.5 -120.5t105.5 -326.5l-39 -86h-637 q11 -173 106.5 -269.5t262.5 -96.5q62 0 128.5 23t111.5 61l32 -58q-61 -69 -146.5 -102t-176.5 -33q-132 0 -226 61t-147 169q-32 -99 -123 -164.5t-237 -65.5q-132 0 -218 73t-86 200zM231 260q0 -85 58.5 -134.5t154.5 -49.5q95 0 168.5 53.5t89.5 157.5v159h-127 q-344 0 -344 -186zM696 1149l224 340l112 -72l-284 -303zM821 541h557q-1 157 -74.5 244t-193.5 87q-122 0 -201 -92.5t-88 -238.5z" />
<glyph unicode="&#x1fe;" horiz-adv-x="1431" d="M113 672q0 110 22.5 210.5t72 190t121 155t176.5 104t232 38.5q193 0 332 -110l88 124l76 -53l-94 -135q89 -99 134.5 -238t45.5 -286q0 -110 -22 -210t-71 -191t-120.5 -157.5t-177 -105.5t-234.5 -39q-196 0 -338 113l-86 -123l-73 53l94 133q-89 100 -133.5 239.5 t-44.5 287.5zM252 709q0 -286 119 -449l622 891q-119 98 -297 98q-103 0 -188.5 -45.5t-140.5 -121.5t-85 -172.5t-30 -200.5zM434 190q117 -100 301 -100q136 0 239.5 79.5t154.5 202t51 263.5q0 284 -123 446zM524 1483l316 280l88 -98l-363 -229z" />
<glyph unicode="&#x1ff;" horiz-adv-x="1077" d="M104 471q0 239 123.5 373.5t329.5 134.5q141 0 242 -82l71 100l64 -45l-78 -110q117 -139 117 -361q0 -239 -124.5 -375.5t-328.5 -136.5q-126 0 -225 70l-62 -88l-65 45l68 96q-132 141 -132 379zM236 500q0 -181 75 -299l416 592q-79 79 -197 79q-90 0 -158 -52 t-102 -135.5t-34 -184.5zM365 139q72 -63 182 -63q90 0 158.5 52.5t102.5 137.5t34 187q0 163 -66 274zM410 1149l223 340l112 -72l-284 -303z" />
<glyph unicode="&#x218;" horiz-adv-x="1052" d="M98 129l47 84q68 -52 161.5 -86.5t195.5 -34.5q53 0 104 13t97 40t74 74.5t28 108.5q0 51 -23.5 93.5t-63 74t-91 60t-108 54.5t-113 53.5t-108 61.5t-91 73.5t-63 94.5t-23.5 121q0 166 115.5 261t300.5 95q108 0 208 -38t162 -87l-26 -106q-167 110 -355 110 q-117 0 -192.5 -63.5t-75.5 -163.5q0 -60 38 -109t98.5 -84.5t133.5 -69t146 -71t133.5 -82t98.5 -110.5t38 -148q0 -80 -26 -146t-68 -108.5t-97.5 -71t-112 -41t-114.5 -12.5q-129 0 -239 42.5t-189 117.5zM463 -170h137l-74 -369h-63v369z" />
<glyph unicode="&#x219;" horiz-adv-x="882" d="M104 100l41 72q51 -47 126 -70.5t143 -23.5q107 0 171 45t64 117q0 41 -29 75t-75 59t-101.5 49t-111 51t-101.5 59t-75 79t-29 105q0 119 90 190.5t227 71.5q82 0 159.5 -28t133.5 -72l-24 -95q-131 88 -262 88q-95 0 -147 -39t-52 -106q0 -40 29 -73t75 -57.5 t102 -47.5t112 -50t102 -59t75 -80.5t29 -107.5q0 -124 -91 -203.5t-249 -79.5q-90 0 -181.5 34t-150.5 97zM377 -170h137l-74 -369h-63v369z" />
<glyph unicode="&#x21a;" horiz-adv-x="1124" d="M43 1223v118h1038v-118h-452v-1223h-135v1223h-451zM489 -170h138l-74 -369h-64v369z" />
<glyph unicode="&#x21b;" horiz-adv-x="757" d="M66 838v71l147 33l57 234h64v-228h338v-110h-338v-553q0 -209 172 -209q74 0 133 30l33 -59q-35 -32 -91.5 -51t-115.5 -19q-258 0 -258 277v584h-141zM311 -170h138l-74 -369h-64v369z" />
<glyph unicode="&#x237;" horiz-adv-x="501" d="M-86 -463l33 60q64 -25 110 -25q150 0 150 213v1163h127v-1196q0 -141 -69 -208.5t-173 -67.5q-105 0 -178 61z" />
<glyph unicode="&#x2b0;" horiz-adv-x="794" d="M156 649v981h98v-411q94 71 211 71q194 0 194 -213v-428h-96v400q0 77 -30.5 115t-102.5 38q-40 0 -91 -23.5t-85 -54.5v-475h-98z" />
<glyph unicode="&#x2b2;" horiz-adv-x="440" d="M-8 362l26 50q54 -21 78 -21q86 0 86 129v754h99v-774q0 -94 -46 -139.5t-114 -45.5q-76 0 -129 47zM168 1464q0 29 17.5 47.5t45.5 18.5t47 -18.5t19 -47.5q0 -26 -19 -44.5t-47 -18.5q-27 0 -45 18t-18 45z" />
<glyph unicode="&#x2b3;" horiz-adv-x="602" d="M154 649v625h55l29 -74q40 41 90 64.5t98 23.5q47 0 92 -31l-22 -79q-50 16 -84 16q-95 0 -160 -68v-477h-98z" />
<glyph unicode="&#x2b7;" d="M76 1272h108l160 -488l170 488h98l170 -490l162 490h105l-230 -623h-82l-176 498l-178 -498h-82z" />
<glyph unicode="&#x2b8;" horiz-adv-x="735" d="M78 1274h108l187 -494l186 494h105l-381 -944h-105l144 336z" />
<glyph unicode="&#x2bc;" horiz-adv-x="364" d="M131 1030v479h154l-90 -479h-64z" />
<glyph unicode="&#x2c6;" horiz-adv-x="884" d="M193 1149l223 340h55l223 -340l-51 -35l-201 238l-198 -238z" />
<glyph unicode="&#x2c7;" horiz-adv-x="884" d="M193 1456l51 33l198 -236l201 236l51 -33l-223 -342h-55z" />
<glyph unicode="&#x2d8;" horiz-adv-x="856" d="M180 1413h72q11 -80 57 -125t119 -45t119 45t57 125h72q0 -113 -70 -192.5t-178 -79.5q-113 0 -180.5 81.5t-67.5 190.5z" />
<glyph unicode="&#x2d9;" horiz-adv-x="727" d="M274 1264q0 35 26.5 62.5t61.5 27.5t63 -27.5t28 -62.5t-27.5 -61.5t-63.5 -26.5q-35 0 -61.5 26.5t-26.5 61.5z" />
<glyph unicode="&#x2da;" horiz-adv-x="753" d="M182 1276q0 80 57 132t138 52t137.5 -52t56.5 -132q0 -82 -56.5 -135.5t-137.5 -53.5t-138 53.5t-57 135.5zM258 1276q0 -54 32.5 -88.5t86.5 -34.5q53 0 85 34t32 89q0 53 -32 87t-85 34q-54 0 -86.5 -34.5t-32.5 -86.5z" />
<glyph unicode="&#x2db;" horiz-adv-x="702" d="M248 -330q0 106 84.5 208t236.5 171l27 -49q-101 -55 -165 -135t-64 -164q0 -61 35.5 -94t93.5 -33q60 0 108 31l33 -60q-78 -63 -184 -63q-87 0 -146 48.5t-59 139.5z" />
<glyph unicode="&#x2dc;" horiz-adv-x="876" d="M137 1155q63 96 107 158q34 55 100 55q36 0 90.5 -28.5t89.5 -28.5q32 0 69 35.5t93 105.5l51 -33q-58 -91 -106 -162q-38 -53 -101 -53q-36 0 -91 28t-89 28q-32 0 -69.5 -35.5t-92.5 -104.5z" />
<glyph unicode="&#x2dd;" horiz-adv-x="931" d="M203 1149l221 340l113 -72l-283 -303zM512 1149l223 340l113 -72l-283 -303z" />
<glyph unicode="&#x2e3;" horiz-adv-x="733" d="M70 649l237 314l-229 309h117l174 -240l174 240h116l-235 -307l242 -316h-123l-178 246l-181 -246h-114z" />
<glyph unicode="&#x326;" horiz-adv-x="727" d="M293 -170h137l-74 -369h-63v369z" />
<glyph unicode="&#x384;" horiz-adv-x="831" d="M373 1102l92 395l131 -29l-164 -381z" />
<glyph unicode="&#x385;" horiz-adv-x="917" d="M133 1264q0 37 25 63.5t63 26.5q37 0 63.5 -26.5t26.5 -63.5q0 -38 -26.5 -64t-63.5 -26q-38 0 -63 26t-25 64zM373 1102l92 395l131 -29l-164 -381zM606 1264q0 37 25 63.5t63 26.5q37 0 63.5 -26.5t26.5 -63.5q0 -38 -26.5 -64t-63.5 -26q-38 0 -63 26t-25 64z" />
<glyph unicode="&#x386;" horiz-adv-x="1288" d="M66 0l509 1341h136l506 -1341h-152l-133 367h-586l-133 -367h-147zM115 1010l92 395l131 -29l-164 -381zM389 485h500l-250 689z" />
<glyph unicode="&#x387;" horiz-adv-x="411" d="M117 516q0 35 26.5 62.5t61.5 27.5t62.5 -27.5t27.5 -62.5t-27.5 -61.5t-62.5 -26.5t-61.5 26.5t-26.5 61.5z" />
<glyph unicode="&#x388;" horiz-adv-x="1280" d="M37 1010l92 395l131 -29l-164 -381zM358 0v1341h775v-118h-639v-486h499v-119h-499v-499h682v-119h-818z" />
<glyph unicode="&#x389;" horiz-adv-x="1554" d="M37 1010l92 395l131 -29l-164 -381zM379 0v1341h135v-604h721v604h135v-1341h-135v618h-721v-618h-135z" />
<glyph unicode="&#x38a;" horiz-adv-x="700" d="M37 1010l92 395l131 -29l-164 -381zM377 0v1341h135v-1341h-135z" />
<glyph unicode="&#x38c;" horiz-adv-x="1513" d="M37 1010l92 395l131 -29l-164 -381zM195 672q0 110 22.5 210.5t72 190t121 155t176.5 104t232 38.5q117 0 215 -41t164.5 -109t113 -159t68 -189t21.5 -200q0 -110 -22 -210t-71 -191t-120.5 -157.5t-177 -105.5t-234.5 -39q-118 0 -216 41.5t-164.5 110.5t-112.5 160.5 t-67 190t-21 200.5zM334 709q0 -103 16 -193t53 -169t92 -135.5t137 -89t185 -32.5q136 0 239.5 79.5t154.5 202t51 263.5q0 129 -27.5 237.5t-83.5 194t-151.5 134t-221.5 48.5q-103 0 -188.5 -45.5t-140.5 -121.5t-85 -172.5t-30 -200.5z" />
<glyph unicode="&#x38e;" horiz-adv-x="1513" d="M37 1010l92 395l131 -29l-164 -381zM360 1341h154l404 -663l401 663h147l-485 -774v-567h-135v565z" />
<glyph unicode="&#x38f;" horiz-adv-x="1513" d="M37 1010l92 395l131 -29l-164 -381zM172 0v119h311q-142 125 -215 288t-73 347q0 125 41 237t115 196t184.5 133.5t242.5 49.5q136 0 247 -50.5t183 -138.5t111 -205t39 -251q0 -165 -74 -322t-213 -284h318v-119h-484v119q147 98 230.5 264t83.5 350q0 137 -55 254.5 t-159 189.5t-235 72q-100 0 -184 -44.5t-139 -120t-85 -172t-30 -201.5q0 -172 91 -337t232 -257v-117h-483z" />
<glyph unicode="&#x390;" horiz-adv-x="606" d="M-45 1264q0 37 25 63.5t63 26.5q37 0 63.5 -26.5t26.5 -63.5q0 -38 -26.5 -64t-63.5 -26q-38 0 -63 26t-25 64zM158 258v690h127v-659q0 -110 32.5 -157.5t104.5 -47.5q55 0 115 35l32 -60q-70 -79 -190 -79q-111 0 -166 67.5t-55 210.5zM195 1102l92 395l131 -29 l-164 -381zM428 1264q0 37 25 63.5t63 26.5q37 0 63.5 -26.5t26.5 -63.5q0 -38 -26.5 -64t-63.5 -26q-38 0 -63 26t-25 64z" />
<glyph unicode="&#x391;" horiz-adv-x="1284" d="M66 0l509 1341h136l506 -1341h-152l-133 367h-586l-133 -367h-147zM389 485h500l-250 689z" />
<glyph unicode="&#x392;" horiz-adv-x="1189" d="M184 0v1341h426q188 0 294 -93t106 -249q0 -68 -23 -123.5t-62.5 -92t-81.5 -59t-89 -34.5q44 -5 87.5 -16.5t89 -36.5t79 -59t55.5 -86.5t22 -116.5q0 -178 -128 -276.5t-351 -98.5h-424zM313 119h269q366 0 366 250q0 249 -377 249h-258v-499zM313 737h240 q146 0 231.5 64.5t85.5 173.5q0 58 -14 100.5t-47.5 77t-94.5 52.5t-149 18h-252v-486z" />
<glyph unicode="&#x393;" horiz-adv-x="1007" d="M184 0v1341h774v-118h-639v-1223h-135z" />
<glyph unicode="&#x394;" horiz-adv-x="1282" d="M66 0l509 1341h136l506 -1341h-1151zM256 119h766l-383 1055z" />
<glyph unicode="&#x395;" horiz-adv-x="1105" d="M184 0v1341h774v-118h-639v-486h500v-119h-500v-499h682v-119h-817z" />
<glyph unicode="&#x396;" horiz-adv-x="1105" d="M102 0v125l711 1098h-696v118h852v-120l-713 -1102h748v-119h-902z" />
<glyph unicode="&#x397;" horiz-adv-x="1359" d="M184 0v1341h135v-604h721v604h136v-1341h-136v618h-721v-618h-135z" />
<glyph unicode="&#x398;" horiz-adv-x="1431" d="M113 672q0 110 22.5 210.5t72 190t121 155t176.5 104t232 38.5q117 0 215 -41t164.5 -109t113 -159t68 -189t21.5 -200q0 -110 -22 -210t-71 -191t-120.5 -157.5t-177 -105.5t-234.5 -39q-118 0 -216 41.5t-164.5 110.5t-112.5 160.5t-67 190t-21 200.5zM252 709 q0 -103 16 -193t53 -169t92 -135.5t137 -89t185 -32.5q136 0 239.5 79.5t154.5 202t51 263.5q0 129 -27.5 237.5t-83.5 194t-151.5 134t-221.5 48.5q-103 0 -188.5 -45.5t-140.5 -121.5t-85 -172.5t-30 -200.5zM457 618v113h514v-113h-514z" />
<glyph unicode="&#x399;" horiz-adv-x="507" d="M186 0v1341h136v-1341h-136z" />
<glyph unicode="&#x39a;" horiz-adv-x="1196" d="M184 0v1341h135v-604h181l440 604h154l-471 -643l524 -698h-170l-455 618h-203v-618h-135z" />
<glyph unicode="&#x39b;" horiz-adv-x="1282" d="M66 0l509 1341h136l506 -1341h-152l-426 1174l-426 -1174h-147z" />
<glyph unicode="&#x39c;" horiz-adv-x="1744" d="M184 0v1341h211l482 -1151l475 1151h209v-1341h-129v1231l-504 -1231h-111l-504 1231v-1231h-129z" />
<glyph unicode="&#x39d;" horiz-adv-x="1380" d="M184 0v1341h189l694 -1110v1110h129v-1341h-131l-752 1204v-1204h-129z" />
<glyph unicode="&#x39e;" horiz-adv-x="1069" d="M98 0v117h873v-117h-873zM119 1223v118h829v-118h-829zM260 618v117h528v-117h-528z" />
<glyph unicode="&#x39f;" horiz-adv-x="1431" d="M113 672q0 110 22.5 210.5t72 190t121 155t176.5 104t232 38.5q117 0 215 -41t164.5 -109t113 -159t68 -189t21.5 -200q0 -110 -22 -210t-71 -191t-120.5 -157.5t-177 -105.5t-234.5 -39q-118 0 -216 41.5t-164.5 110.5t-112.5 160.5t-67 190t-21 200.5zM252 709 q0 -103 16 -193t53 -169t92 -135.5t137 -89t185 -32.5q136 0 239.5 79.5t154.5 202t51 263.5q0 129 -27.5 237.5t-83.5 194t-151.5 134t-221.5 48.5q-103 0 -188.5 -45.5t-140.5 -121.5t-85 -172.5t-30 -200.5z" />
<glyph unicode="&#x3a0;" horiz-adv-x="1325" d="M184 0v1341h957v-1341h-135v1223h-687v-1223h-135z" />
<glyph unicode="&#x3a1;" horiz-adv-x="1116" d="M184 0v1341h414q93 0 172.5 -22t143.5 -67t100.5 -121t36.5 -175q0 -107 -37.5 -191t-102.5 -135.5t-147.5 -78.5t-177.5 -27h-267v-524h-135zM319 643h213q179 0 279 72t100 219q0 82 -26.5 139t-78 89.5t-117 46.5t-152.5 14h-218v-580z" />
<glyph unicode="&#x3a3;" horiz-adv-x="1107" d="M119 0v121l448 553l-448 547v120h844v-118h-691l449 -549l-449 -555h736v-119h-889z" />
<glyph unicode="&#x3a4;" horiz-adv-x="1124" d="M43 1223v118h1038v-118h-452v-1223h-135v1223h-451z" />
<glyph unicode="&#x3a5;" horiz-adv-x="1198" d="M45 1341h154l403 -663l402 663h147l-485 -774v-567h-136v565z" />
<glyph unicode="&#x3a6;" horiz-adv-x="1499" d="M94 680q0 94 33 177t90 143t132 104t160.5 67t174.5 25v174h129v-174q119 -3 224.5 -40t187.5 -102.5t130 -166.5t48 -223q0 -118 -50.5 -217t-134 -163t-188.5 -100.5t-217 -38.5v-176h-129v176q-93 2 -180 25.5t-161.5 69t-130 108.5t-87 148.5t-31.5 183.5zM233 670 q0 -185 123.5 -291.5t327.5 -120.5v823q-199 -13 -325 -119.5t-126 -291.5zM813 258q200 13 325.5 121t125.5 295q0 185 -124 290.5t-327 116.5v-823z" />
<glyph unicode="&#x3a7;" horiz-adv-x="1163" d="M45 0l453 670l-453 671h160l375 -569l374 569h160l-452 -671l452 -670h-158l-376 567l-377 -567h-158z" />
<glyph unicode="&#x3a8;" horiz-adv-x="1404" d="M86 997v334h139v-260q0 -113 20 -196t66.5 -147.5t127.5 -101t198 -44.5v749h129v-749q195 14 303.5 119t108.5 288v342h139v-352q0 -114 -43 -210t-118 -161.5t-175.5 -103.5t-214.5 -43v-461h-129v461q-158 4 -282.5 69.5t-196.5 186.5t-72 280z" />
<glyph unicode="&#x3aa;" horiz-adv-x="507" d="M-6 1579q0 37 26.5 63.5t63.5 26.5t63.5 -26.5t26.5 -63.5t-26.5 -62.5t-63.5 -25.5t-63.5 25.5t-26.5 62.5zM186 0v1341h136v-1341h-136zM334 1579q0 37 26.5 63.5t61.5 26.5q38 0 65 -26.5t27 -63.5t-27 -62.5t-65 -25.5q-37 0 -62.5 25.5t-25.5 62.5z" />
<glyph unicode="&#x3ab;" horiz-adv-x="1198" d="M45 1341h154l403 -663l402 663h147l-485 -774v-567h-136v565zM303 1579q0 37 25.5 63.5t62.5 26.5t63.5 -26.5t26.5 -63.5t-26.5 -62.5t-63.5 -25.5t-62.5 25.5t-25.5 62.5zM719 1579q0 37 25.5 63.5t62.5 26.5t63.5 -26.5t26.5 -63.5t-26.5 -62.5t-63.5 -25.5 t-62.5 25.5t-25.5 62.5z" />
<glyph unicode="&#x3ac;" horiz-adv-x="1212" d="M104 469q0 241 115.5 375.5t298.5 134.5q87 0 172.5 -39.5t140.5 -103.5l41 112h70v-659q0 -111 28 -158t97 -47q51 0 98 35l33 -60q-64 -79 -172 -79q-151 0 -197 147q-108 -158 -303 -158q-84 0 -160 34.5t-134.5 97.5t-93 158.5t-34.5 209.5zM236 489 q0 -174 90 -289.5t254 -115.5q75 0 140.5 38t94.5 101v504q-39 56 -111 97.5t-153 41.5q-153 0 -234 -108t-81 -269zM535 1102l92 395l131 -29l-164 -381z" />
<glyph unicode="&#x3ad;" horiz-adv-x="937" d="M115 264q0 50 20 92t51 68t69.5 44.5t72 26.5t63.5 9q-44 5 -87 21.5t-80 44.5t-60 71t-23 94q0 114 94.5 179t251.5 65q81 0 168.5 -28t143.5 -74l-25 -93q-57 39 -132.5 61.5t-139.5 22.5q-100 0 -165 -38.5t-65 -116.5q0 -82 96 -126t255 -44v-111h-54 q-71 0 -121.5 -6t-100 -23t-75.5 -53.5t-26 -91.5q0 -79 79.5 -126.5t204.5 -47.5q175 0 291 80l37 -66q-61 -65 -159.5 -96t-194.5 -31q-77 0 -145.5 17.5t-124 52.5t-87.5 92t-32 131zM408 1102l92 395l131 -29l-164 -381z" />
<glyph unicode="&#x3ae;" horiz-adv-x="1089" d="M166 0v948h70l40 -112q78 67 172.5 105t188.5 38q138 0 214.5 -79t76.5 -243v-1159h-127v1114q0 128 -49.5 191t-171.5 63q-69 0 -153 -38.5t-134 -88.5v-739h-127zM469 1102l92 395l131 -29l-164 -381z" />
<glyph unicode="&#x3af;" horiz-adv-x="606" d="M158 258v690h127v-659q0 -110 32.5 -157.5t104.5 -47.5q55 0 115 35l32 -60q-70 -79 -190 -79q-111 0 -166 67.5t-55 210.5zM186 1102l93 395l131 -29l-164 -381z" />
<glyph unicode="&#x3b0;" horiz-adv-x="1062" d="M158 297v651h127v-606q0 -258 229 -258q138 0 220.5 103t82.5 274q0 258 -82 487h127q82 -225 82 -459q0 -249 -113.5 -384.5t-326.5 -135.5q-159 0 -252.5 87.5t-93.5 240.5zM233 1264q0 37 25.5 63.5t63.5 26.5q37 0 63.5 -26.5t26.5 -63.5q0 -38 -26.5 -64t-63.5 -26 q-38 0 -63.5 26t-25.5 64zM473 1102l92 395l131 -29l-164 -381zM707 1264q0 37 25 63.5t63 26.5q37 0 63.5 -26.5t26.5 -63.5q0 -38 -26.5 -64t-63.5 -26q-38 0 -63 26t-25 64z" />
<glyph unicode="&#x3b1;" horiz-adv-x="1212" d="M104 469q0 241 115.5 375.5t298.5 134.5q87 0 172.5 -39.5t140.5 -103.5l41 112h70v-682q0 -98 29.5 -140t95.5 -42q51 0 98 35l33 -60q-64 -79 -172 -79q-151 0 -197 147q-108 -158 -303 -158q-84 0 -160 34.5t-134.5 97.5t-93 158.5t-34.5 209.5zM236 489 q0 -174 90 -289.5t254 -115.5q75 0 140.5 38t94.5 101v504q-39 56 -111 97.5t-153 41.5q-153 0 -234 -108t-81 -269z" />
<glyph unicode="&#x3b2;" horiz-adv-x="1075" d="M166 -500v1635q0 193 91.5 298t262.5 105q84 0 152.5 -30t111.5 -79.5t65.5 -112t22.5 -130.5q0 -279 -256 -404q71 -21 132.5 -56t111.5 -85t78.5 -119t28.5 -149q0 -186 -102.5 -295t-270.5 -109q-88 0 -169 34t-132 85v-588h-127zM293 190q42 -42 120 -75t162 -33 q116 0 188.5 73t72.5 203q0 153 -107.5 252t-284.5 99v110q73 0 132 32t93 82.5t52 107.5t18 112q0 38 -5.5 73.5t-20.5 72.5t-39 64t-64 44.5t-92 17.5q-66 0 -111.5 -30t-69.5 -85.5t-34 -119.5t-10 -146v-854z" />
<glyph unicode="&#x3b3;" horiz-adv-x="980" d="M33 948h139l311 -825q166 280 232.5 458.5t66.5 366.5h127q0 -199 -90 -421t-284 -513v-516h-127v522z" />
<glyph unicode="&#x3b4;" horiz-adv-x="1079" d="M106 473q0 231 108 355t298 145q-138 74 -189 112q-113 90 -114 201q0 123 99 187.5t249 64.5q68 0 144.5 -18t132.5 -50l-25 -94q-145 54 -242 54q-98 0 -164.5 -39.5t-66.5 -114.5q0 -38 27 -75.5t75.5 -72.5t98 -64t114.5 -66.5t105 -65.5q219 -153 219 -449 q0 -227 -114 -369.5t-322 -142.5q-110 0 -195.5 42.5t-136 114.5t-76 159.5t-25.5 185.5zM238 494q0 -84 19 -157t56 -131t98 -91t140 -33q133 0 213 111.5t80 267.5q0 143 -55.5 256t-159.5 164h-19q-99 0 -173 -32t-116.5 -88t-62.5 -123t-20 -144z" />
<glyph unicode="&#x3b5;" horiz-adv-x="937" d="M115 264q0 50 20 92t51 68t69.5 44.5t72 26.5t63.5 9q-44 5 -87 21.5t-80 44.5t-60 71t-23 94q0 114 94.5 179t251.5 65q81 0 168.5 -28t143.5 -74l-25 -93q-57 39 -132.5 61.5t-139.5 22.5q-100 0 -165 -38.5t-65 -116.5q0 -82 96 -126t255 -44v-111h-54 q-71 0 -121.5 -6t-100 -23t-75.5 -53.5t-26 -91.5q0 -79 79.5 -126.5t204.5 -47.5q175 0 291 80l37 -66q-61 -65 -159.5 -96t-194.5 -31q-77 0 -145.5 17.5t-124 52.5t-87.5 92t-32 131z" />
<glyph unicode="&#x3b6;" horiz-adv-x="880" d="M100 477q0 130 51.5 267.5t137 257t184.5 219.5t205 178h-483v110h622v-110q-100 -69 -201.5 -172.5t-188.5 -223.5t-141.5 -254.5t-54.5 -250.5q0 -100 33.5 -172.5t87.5 -112t118.5 -66t129.5 -44.5t119 -39t87.5 -58t33.5 -92q0 -68 -37.5 -128t-95.5 -95l-60 33 q90 77 90 159q0 28 -27.5 49t-72 34.5t-102 32t-117 38.5t-117 57t-102 84.5t-72 124.5t-27.5 174z" />
<glyph unicode="&#x3b7;" horiz-adv-x="1089" d="M166 0v948h70l40 -112q78 67 172.5 105t188.5 38q138 0 214.5 -79t76.5 -243v-1159h-127v1114q0 128 -49.5 191t-171.5 63q-69 0 -153 -38.5t-134 -88.5v-739h-127z" />
<glyph unicode="&#x3b8;" horiz-adv-x="1077" d="M104 764q0 370 119 572t332 202q134 0 229 -96.5t142 -267t47 -400.5q0 -176 -26 -321t-78.5 -254t-137 -169.5t-194.5 -60.5q-92 0 -166 42.5t-123.5 115.5t-82 175t-47 216.5t-14.5 245.5zM236 805h606q-14 620 -314 620q-96 0 -162.5 -80.5t-97.5 -217.5t-32 -322z M238 702q3 -135 22.5 -245t56 -195t95.5 -131.5t137 -46.5q91 0 156.5 83t98 220t36.5 315h-602z" />
<glyph unicode="&#x3b9;" horiz-adv-x="606" d="M158 258v690h127v-659q0 -110 32.5 -157.5t104.5 -47.5q55 0 115 35l32 -60q-70 -79 -190 -79q-111 0 -166 67.5t-55 210.5z" />
<glyph unicode="&#x3ba;" horiz-adv-x="985" d="M166 0v948h127v-520l469 520h153l-380 -409l380 -539h-151l-320 453l-151 -164v-289h-127z" />
<glyph unicode="&#x3bb;" horiz-adv-x="999" d="M-10 1460q75 78 192 78q49 0 89.5 -15.5t68.5 -38.5t54 -63t43 -76t38 -90l498 -1255h-131l-303 803l-303 -803h-140l381 944l-123 299q-44 104 -93.5 148.5t-119.5 44.5q-58 0 -116 -35z" />
<glyph unicode="&#x3bc;" horiz-adv-x="1087" d="M160 297v651h127v-606q0 -130 49 -195t170 -65q69 0 153 38.5t136 88.5v739h127v-948h-72l-39 113q-78 -68 -172.5 -105t-189.5 -37q-138 0 -213.5 81t-75.5 245z" />
<glyph unicode="&#x3bd;" horiz-adv-x="980" d="M33 948h139l311 -825q166 280 232.5 458.5t66.5 366.5h127q0 -202 -92 -426.5t-293 -521.5h-108z" />
<glyph unicode="&#x3be;" horiz-adv-x="888" d="M106 477q0 187 99.5 298t279.5 151q-153 43 -231 127t-78 190q0 134 102.5 214.5t260.5 80.5q68 0 143 -18t131 -50l-25 -92q-140 52 -241 52t-170.5 -52t-69.5 -155q0 -93 116.5 -171.5t307.5 -78.5v-111q-218 0 -354.5 -95t-136.5 -267q0 -88 26 -155.5t68.5 -106 t97 -68.5t111.5 -45.5t111.5 -35t97 -38t68.5 -53.5t26 -84q0 -69 -36.5 -128.5t-94.5 -96.5l-60 32q90 83 90 162q0 28 -27.5 49t-72.5 34t-102.5 31.5t-117 38.5t-117 57t-102.5 85t-72.5 125t-27.5 174z" />
<glyph unicode="&#x3bf;" horiz-adv-x="1067" d="M102 471q0 239 123.5 373.5t329.5 134.5q127 0 222.5 -67t144.5 -179.5t49 -251.5q0 -239 -124.5 -375.5t-328.5 -136.5q-126 0 -222 68.5t-145 181.5t-49 252zM233 500q0 -115 32 -208.5t104.5 -154.5t175.5 -61q90 0 158.5 52.5t102.5 137.5t34 187q0 84 -19 158 t-56 133t-98 93.5t-139 34.5q-90 0 -158.5 -52t-102.5 -135.5t-34 -184.5z" />
<glyph unicode="&#x3c0;" horiz-adv-x="1198" d="M45 838v110h1057v-110h-262v-549q1 -109 34.5 -157t106.5 -48q57 0 117 35l32 -60q-70 -79 -192 -79q-225 0 -225 278v580h-346v-838h-127v838h-195z" />
<glyph unicode="&#x3c1;" horiz-adv-x="1083" d="M141 459q0 520 418 520q188 0 304 -137.5t116 -358.5q0 -239 -124.5 -375.5t-319.5 -136.5q-71 0 -143.5 28t-123.5 83v-584h-127v961zM268 209q48 -66 120 -96.5t144 -30.5q139 0 226.5 105.5t87.5 267.5q0 187 -79.5 299t-227.5 112q-139 0 -205 -103.5t-66 -283.5 v-270z" />
<glyph unicode="&#x3c2;" horiz-adv-x="940" d="M104 477q0 234 126.5 368t332.5 134q88 0 168.5 -28t132.5 -72l-22 -95q-140 82 -283 82q-149 0 -236 -103.5t-87 -262.5q0 -79 21 -141t56 -101t80.5 -68.5t96 -47.5t101 -33.5t96 -31t80.5 -35.5t56 -52t21 -76q0 -69 -37 -128.5t-96 -96.5l-60 32q90 81 90 162 q0 28 -27.5 49t-72 34t-102 31.5t-117 38.5t-117 57t-102 85t-72 125t-27.5 174z" />
<glyph unicode="&#x3c3;" horiz-adv-x="1093" d="M104 473q0 234 121.5 354.5t329.5 120.5h471v-110h-240q88 -46 137.5 -147.5t49.5 -221.5q0 -104 -28 -194t-81.5 -158.5t-137.5 -108t-189 -39.5q-110 0 -195.5 43t-136 116t-76 160.5t-25.5 184.5zM236 494q0 -84 19 -156.5t56 -130t98 -90.5t140 -33q88 0 156 53.5 t102.5 138.5t34.5 185q0 165 -79 269t-233 104q-135 0 -214.5 -97.5t-79.5 -242.5z" />
<glyph unicode="&#x3c4;" horiz-adv-x="794" d="M33 838v110h698v-110h-338v-549q0 -205 156 -205q60 0 123 35l33 -60q-73 -79 -197 -79q-116 0 -179 68.5t-63 209.5v580h-233z" />
<glyph unicode="&#x3c5;" horiz-adv-x="1062" d="M158 297v651h127v-606q0 -258 229 -258q138 0 220.5 103t82.5 274q0 258 -82 487h127q82 -225 82 -459q0 -249 -113.5 -384.5t-326.5 -135.5q-159 0 -252.5 87.5t-93.5 240.5z" />
<glyph unicode="&#x3c6;" horiz-adv-x="1353" d="M100 483q0 184 110 318.5t273 161.5l27 -91q-131 -32 -204 -139t-73 -264q0 -111 53 -199.5t138.5 -136t185.5 -49.5v498q0 55 1 89t4.5 77.5t10.5 69.5t19 56t30 47t43.5 32t60.5 21.5t79 6.5q103 0 194.5 -68t145 -180.5t53.5 -238.5q0 -243 -142.5 -381.5 t-371.5 -143.5v-473h-127v473q-141 4 -256 66.5t-184.5 179.5t-69.5 268zM737 84q165 0 274 106t109 283q0 165 -80 279t-194 114q-74 0 -91.5 -63t-17.5 -271v-448z" />
<glyph unicode="&#x3c7;" horiz-adv-x="960" d="M39 -502l362 729l-356 723h152l286 -628l289 628h143l-358 -719l365 -733h-146l-299 639l-297 -639h-141z" />
<glyph unicode="&#x3c8;" horiz-adv-x="1419" d="M147 385v563h127v-518q0 -175 93 -260t292 -88v1259h127v-1259q173 0 281.5 105.5t108.5 279.5q0 257 -80 481h127q80 -217 80 -452q0 -246 -140.5 -384t-376.5 -141v-473h-127v473q-251 1 -381.5 112t-130.5 302z" />
<glyph unicode="&#x3c9;" horiz-adv-x="1492" d="M119 489q0 234 82 459h127q-82 -229 -82 -487q0 -175 60.5 -276t176.5 -101q94 0 146.5 76.5t52.5 208.5v245h127v-243q0 -133 53 -210t148 -77q115 0 176 101.5t61 275.5q0 258 -82 487h127q82 -225 82 -459q0 -248 -94.5 -384t-267.5 -136q-93 0 -167.5 53t-99.5 150 q-27 -98 -99.5 -150.5t-164.5 -52.5q-173 0 -267.5 136t-94.5 384z" />
<glyph unicode="&#x3ca;" horiz-adv-x="606" d="M-18 1264q0 37 26.5 63.5t63.5 26.5t63.5 -26.5t26.5 -63.5t-26.5 -62.5t-63.5 -25.5q-38 0 -64 25.5t-26 62.5zM158 258v690h127v-659q0 -110 32.5 -157.5t104.5 -47.5q55 0 115 35l32 -60q-70 -79 -190 -79q-111 0 -166 67.5t-55 210.5zM317 1264q0 37 27 63.5t64 26.5 t63.5 -26.5t26.5 -63.5t-26.5 -62.5t-63.5 -25.5q-38 0 -64.5 25.5t-26.5 62.5z" />
<glyph unicode="&#x3cb;" horiz-adv-x="1062" d="M158 297v651h127v-606q0 -258 229 -258q138 0 220.5 103t82.5 274q0 258 -82 487h127q82 -225 82 -459q0 -249 -113.5 -384.5t-326.5 -135.5q-159 0 -252.5 87.5t-93.5 240.5zM250 1264q0 35 26.5 62.5t61.5 27.5t62.5 -27.5t27.5 -62.5t-27.5 -61.5t-62.5 -26.5 t-61.5 26.5t-26.5 61.5zM645 1264q0 35 26.5 62.5t61.5 27.5t62.5 -27.5t27.5 -62.5t-27.5 -61.5t-62.5 -26.5t-61.5 26.5t-26.5 61.5z" />
<glyph unicode="&#x3cc;" horiz-adv-x="1077" d="M104 471q0 239 123.5 373.5t329.5 134.5q127 0 222.5 -67t144.5 -179.5t49 -251.5q0 -239 -124.5 -375.5t-328.5 -136.5q-126 0 -222 68.5t-145 181.5t-49 252zM236 500q0 -115 32 -208.5t104 -154.5t175 -61q90 0 158.5 52.5t102.5 137.5t34 187q0 84 -19 158t-56 133 t-98 93.5t-139 34.5q-90 0 -158 -52t-102 -135.5t-34 -184.5zM449 1102l92 395l131 -29l-164 -381z" />
<glyph unicode="&#x3cd;" horiz-adv-x="1062" d="M158 297v651h127v-606q0 -258 229 -258q138 0 220.5 103t82.5 274q0 258 -82 487h127q82 -225 82 -459q0 -249 -113.5 -384.5t-326.5 -135.5q-159 0 -252.5 87.5t-93.5 240.5zM473 1102l92 395l131 -29l-164 -381z" />
<glyph unicode="&#x3ce;" horiz-adv-x="1492" d="M119 489q0 234 82 459h127q-82 -229 -82 -487q0 -175 60.5 -276t176.5 -101q94 0 146.5 76.5t52.5 208.5v245h127v-243q0 -133 53 -210t148 -77q115 0 176 101.5t61 275.5q0 258 -82 487h127q82 -225 82 -459q0 -248 -94.5 -384t-267.5 -136q-93 0 -167.5 53t-99.5 150 q-27 -98 -99.5 -150.5t-164.5 -52.5q-173 0 -267.5 136t-94.5 384zM696 1102l92 395l132 -29l-164 -381z" />
<glyph unicode="&#x401;" horiz-adv-x="1105" d="M184 0v1341h774v-118h-639v-486h500v-119h-500v-499h682v-119h-817zM289 1579q0 37 25.5 63.5t62.5 26.5t63.5 -26.5t26.5 -63.5t-26.5 -62.5t-63.5 -25.5t-62.5 25.5t-25.5 62.5zM705 1579q0 37 25.5 63.5t62.5 26.5t63.5 -26.5t26.5 -63.5t-26.5 -62.5t-63.5 -25.5 t-62.5 25.5t-25.5 62.5z" />
<glyph unicode="&#x402;" horiz-adv-x="1435" d="M66 1223v118h915v-118h-453v-543q83 56 188 91.5t204 35.5q164 0 270 -89.5t106 -250.5v-469q0 -142 -71.5 -211.5t-177.5 -69.5t-179 64l33 59q61 -24 111 -24q149 0 149 213v395q0 134 -77.5 198t-204.5 64q-86 0 -188 -36.5t-163 -86.5v-563h-135v1223h-327z" />
<glyph unicode="&#x403;" horiz-adv-x="1007" d="M184 0v1341h774v-118h-639v-1223h-135zM418 1483l315 280l88 -98l-362 -229z" />
<glyph unicode="&#x404;" horiz-adv-x="1241" d="M111 668q0 116 24 219.5t74 192t122.5 153t176 101t227.5 36.5q119 0 215.5 -37t161.5 -88l-27 -106q-96 56 -181.5 83t-192.5 27q-190 0 -321.5 -147t-139.5 -367h647v-117h-643q8 -85 30.5 -160t64 -143t99.5 -117t141.5 -77.5t184.5 -28.5t192.5 39t133.5 86l39 -70 q-8 -11 -22.5 -26t-53 -43.5t-82.5 -50.5t-113.5 -39t-144.5 -17q-129 0 -234.5 42.5t-174 112t-115.5 161.5t-67.5 187.5t-20.5 193.5z" />
<glyph unicode="&#x405;" horiz-adv-x="1052" d="M98 129l47 84q68 -52 161.5 -86.5t195.5 -34.5q53 0 104 13t97 40t74 74.5t28 108.5q0 51 -23.5 93.5t-63 74t-91 60t-108 54.5t-113 53.5t-108 61.5t-91 73.5t-63 94.5t-23.5 121q0 166 115.5 261t300.5 95q108 0 208 -38t162 -87l-26 -106q-167 110 -355 110 q-117 0 -192.5 -63.5t-75.5 -163.5q0 -60 38 -109t98.5 -84.5t133.5 -69t146 -71t133.5 -82t98.5 -110.5t38 -148q0 -80 -26 -146t-68 -108.5t-97.5 -71t-112 -41t-114.5 -12.5q-129 0 -239 42.5t-189 117.5z" />
<glyph unicode="&#x406;" horiz-adv-x="507" d="M186 0v1341h136v-1341h-136z" />
<glyph unicode="&#x407;" horiz-adv-x="507" d="M-6 1579q0 37 26.5 63.5t63.5 26.5t63.5 -26.5t26.5 -63.5t-26.5 -62.5t-63.5 -25.5t-63.5 25.5t-26.5 62.5zM186 0v1341h136v-1341h-136zM334 1579q0 37 26.5 63.5t61.5 26.5q38 0 65 -26.5t27 -63.5t-27 -62.5t-65 -25.5q-37 0 -62.5 25.5t-25.5 62.5z" />
<glyph unicode="&#x408;" horiz-adv-x="559" d="M-47 -219l35 59q58 -24 108 -24q150 0 150 213v1312h135v-1341q0 -73 -21 -129t-57.5 -88t-79.5 -48t-92 -16q-107 0 -178 62z" />
<glyph unicode="&#x409;" horiz-adv-x="1871" d="M-33 49l37 70q53 -33 111 -33q55 0 84.5 43t38.5 133l108 1079h717v-604h258q95 0 176 -18t149.5 -56.5t108 -108.5t39.5 -165q0 -88 -28 -157t-73 -112t-108 -70.5t-127 -38.5t-135 -11h-395v1223h-457l-96 -928q-16 -164 -65.5 -238.5t-159.5 -74.5q-116 0 -183 67z M1063 119h209q67 0 120 6t104 22.5t84.5 44t54 72.5t20.5 105t-20 104.5t-54 72t-85.5 44t-107 22.5t-126.5 6h-199v-499z" />
<glyph unicode="&#x40a;" horiz-adv-x="1908" d="M184 0v1341h135v-604h646v604h135v-604h258q95 0 176 -18t149.5 -56.5t108 -108.5t39.5 -165q0 -88 -28 -157t-73 -112t-108 -70.5t-127 -38.5t-135 -11h-395v618h-646v-618h-135zM1100 119h209q67 0 120 6t104 22.5t84.5 44t54 72.5t20.5 105t-20.5 104.5t-54 72 t-85.5 44t-107.5 22.5t-126.5 6h-198v-499z" />
<glyph unicode="&#x40b;" horiz-adv-x="1435" d="M66 1223v118h915v-118h-453v-545q82 58 187 93.5t203 35.5q165 0 271.5 -90t106.5 -250v-467h-135v422q0 135 -78 199.5t-204 64.5q-86 0 -187 -37t-164 -86v-563h-135v1223h-327z" />
<glyph unicode="&#x40c;" horiz-adv-x="1196" d="M184 0v1341h135v-604h183l438 604h154l-471 -643q399 -213 522 -698h-152q-59 212 -179 370t-292 248h-203v-618h-135zM432 1483l316 280l88 -98l-363 -229z" />
<glyph unicode="&#x40e;" horiz-adv-x="1210" d="M66 1341h149l444 -952l359 952h143l-428 -1089q-55 -138 -128 -209.5t-193 -71.5q-55 0 -107 18.5t-84 51.5l37 65q51 -32 117 -32q71 0 125 37t98 125zM367 1696h71q11 -70 59.5 -113t125.5 -43t124 43t58 113h72q0 -104 -73 -181t-181 -77q-110 0 -183 78t-73 180z" />
<glyph unicode="&#x40f;" horiz-adv-x="1320" d="M182 0v1341h135v-1224h684v1224h134v-1341h-416v-283h-119v283h-418z" />
<glyph unicode="&#x410;" horiz-adv-x="1284" d="M66 0l509 1341h136l506 -1341h-152l-133 367h-586l-133 -367h-147zM389 485h500l-250 689z" />
<glyph unicode="&#x411;" horiz-adv-x="1159" d="M184 0v1341h774v-118h-639v-486h259q95 0 176 -18t149.5 -56.5t108 -108.5t39.5 -165q0 -88 -28 -157t-73 -112t-108 -70.5t-127 -38.5t-135 -11h-396zM319 119h209q67 0 120 6t104 22.5t84.5 44t54 72.5t20.5 105t-20 104.5t-54 72t-85.5 44t-107 22.5t-126.5 6h-199 v-499z" />
<glyph unicode="&#x412;" horiz-adv-x="1189" d="M184 0v1341h426q188 0 294 -93t106 -249q0 -68 -23 -123.5t-62.5 -92t-81.5 -59t-89 -34.5q44 -5 87.5 -16.5t89 -36.5t79 -59t55.5 -86.5t22 -116.5q0 -178 -128 -276.5t-351 -98.5h-424zM313 119h269q366 0 366 250q0 249 -377 249h-258v-499zM313 737h240 q146 0 231.5 64.5t85.5 173.5q0 58 -14 100.5t-47.5 77t-94.5 52.5t-149 18h-252v-486z" />
<glyph unicode="&#x413;" horiz-adv-x="1007" d="M184 0v1341h774v-118h-639v-1223h-135z" />
<glyph unicode="&#x414;" horiz-adv-x="1312" d="M25 117h38q72 0 116.5 58.5t58.5 203.5l98 962h760v-1224h139v-400h-119v283h-973v-283h-118v400zM293 117h670v1106h-504l-90 -887q-15 -148 -76 -219z" />
<glyph unicode="&#x415;" horiz-adv-x="1105" d="M184 0v1341h774v-118h-639v-486h500v-119h-500v-499h682v-119h-817z" />
<glyph unicode="&#x416;" horiz-adv-x="1888" d="M49 0q123 485 522 698l-469 643h152l440 -604h183v604h135v-604h182l438 604h154l-471 -643q398 -211 522 -698h-151q-57 211 -178 369t-294 249h-202v-618h-135v618h-205q-172 -90 -292 -248t-179 -370h-152z" />
<glyph unicode="&#x417;" horiz-adv-x="1034" d="M88 119l47 82q144 -109 307 -109q153 0 241.5 80.5t88.5 202.5q0 282 -418 282v113q71 5 129 22t106 47.5t74.5 79t26.5 111.5q0 109 -71 164t-175 55q-157 0 -282 -104l-29 102q59 53 143 88t181 35q159 0 265.5 -86.5t106.5 -232.5q0 -120 -80 -208.5t-198 -109.5 q44 -5 89.5 -18t95.5 -40.5t87.5 -65.5t62.5 -97t25 -131q0 -127 -61.5 -222t-159.5 -141.5t-217 -46.5q-82 0 -154.5 19t-122 49.5t-71 47t-37.5 32.5z" />
<glyph unicode="&#x418;" horiz-adv-x="1380" d="M168 0v1341h129v-1110l694 1110h189v-1341h-129v1204l-752 -1204h-131z" />
<glyph unicode="&#x419;" horiz-adv-x="1380" d="M168 0h131l752 1204v-1204h129v1341h-189l-694 -1110v1110h-129v-1341zM426 1696h72q11 -70 59 -113t125 -43t124 43t58 113h72q0 -104 -73 -181t-181 -77q-110 0 -183 78t-73 180z" />
<glyph unicode="&#x41a;" horiz-adv-x="1196" d="M184 0v1341h135v-604h183l438 604h154l-471 -643q399 -213 522 -698h-152q-59 212 -179 370t-292 248h-203v-618h-135z" />
<glyph unicode="&#x41b;" horiz-adv-x="1323" d="M-33 49l37 70q53 -33 111 -33q55 0 84.5 43t38.5 133l108 1079h793v-1341h-133v1223h-535l-100 -963q-15 -143 -67.5 -210.5t-153.5 -67.5q-116 0 -183 67z" />
<glyph unicode="&#x41c;" horiz-adv-x="1744" d="M184 0v1341h211l482 -1151l475 1151h209v-1341h-129v1231l-504 -1231h-111l-504 1231v-1231h-129z" />
<glyph unicode="&#x41d;" horiz-adv-x="1359" d="M184 0v1341h135v-604h721v604h136v-1341h-136v618h-721v-618h-135z" />
<glyph unicode="&#x41e;" horiz-adv-x="1431" d="M113 672q0 110 22.5 210.5t72 190t121 155t176.5 104t232 38.5q117 0 215 -41t164.5 -109t113 -159t68 -189t21.5 -200q0 -110 -22 -210t-71 -191t-120.5 -157.5t-177 -105.5t-234.5 -39q-118 0 -216 41.5t-164.5 110.5t-112.5 160.5t-67 190t-21 200.5zM252 709 q0 -103 16 -193t53 -169t92 -135.5t137 -89t185 -32.5q136 0 239.5 79.5t154.5 202t51 263.5q0 129 -27.5 237.5t-83.5 194t-151.5 134t-221.5 48.5q-103 0 -188.5 -45.5t-140.5 -121.5t-85 -172.5t-30 -200.5z" />
<glyph unicode="&#x41f;" horiz-adv-x="1325" d="M184 0v1341h957v-1341h-135v1223h-687v-1223h-135z" />
<glyph unicode="&#x420;" horiz-adv-x="1116" d="M184 0v1341h414q93 0 172.5 -22t143.5 -67t100.5 -121t36.5 -175q0 -107 -37.5 -191t-102.5 -135.5t-147.5 -78.5t-177.5 -27h-267v-524h-135zM319 643h213q179 0 279 72t100 219q0 82 -26.5 139t-78 89.5t-117 46.5t-152.5 14h-218v-580z" />
<glyph unicode="&#x421;" horiz-adv-x="1241" d="M111 668q0 116 24 219.5t74 192t122.5 153t176 101t227.5 36.5q119 0 215.5 -37t161.5 -88l-27 -106q-96 56 -181.5 83t-192.5 27q-129 0 -235 -70.5t-166 -194.5t-60 -275q0 -95 17.5 -182t57 -167.5t99 -139t149.5 -93.5t201 -35q101 0 192.5 39t133.5 86l39 -70 q-8 -11 -22.5 -26t-53 -43.5t-82.5 -50.5t-113.5 -39t-144.5 -17q-129 0 -234.5 42.5t-174 112t-115.5 161.5t-67.5 187.5t-20.5 193.5z" />
<glyph unicode="&#x422;" horiz-adv-x="1124" d="M43 1223v118h1038v-118h-452v-1223h-135v1223h-451z" />
<glyph unicode="&#x423;" horiz-adv-x="1208" d="M66 1341h149l444 -952l359 952h143l-428 -1089q-55 -138 -128 -209.5t-193 -71.5q-55 0 -107 18.5t-84 51.5l37 65q51 -32 117 -32q71 0 125 37t98 125z" />
<glyph unicode="&#x424;" horiz-adv-x="1497" d="M94 680q0 94 33 177t90 143t132 104t160.5 67t174.5 25v174h129v-174q119 -3 224.5 -40t187.5 -102.5t130 -166.5t48 -223q0 -118 -50.5 -217t-134 -163t-188.5 -100.5t-217 -38.5v-176h-129v176q-93 2 -180 25.5t-161.5 69t-130 108.5t-87 148.5t-31.5 183.5zM233 670 q0 -185 123.5 -291.5t327.5 -120.5v823q-199 -13 -325 -119.5t-126 -291.5zM813 258q200 13 325.5 121t125.5 295q0 185 -124 290.5t-327 116.5v-823z" />
<glyph unicode="&#x425;" horiz-adv-x="1163" d="M45 0l453 670l-453 671h160l375 -569l374 569h160l-452 -671l452 -670h-158l-376 567l-377 -567h-158z" />
<glyph unicode="&#x426;" horiz-adv-x="1351" d="M182 0v1341h135v-1224h684v1224h134v-1224h139v-400h-119v283h-973z" />
<glyph unicode="&#x427;" horiz-adv-x="1193" d="M106 872v469h136v-423q0 -135 78 -199t204 -64q86 0 187 36t163 85v565h136v-1341h-136v662q-83 -58 -187 -94t-202 -36q-165 0 -272 90t-107 250z" />
<glyph unicode="&#x428;" horiz-adv-x="1894" d="M182 0v1341h135v-1224h562v1224h135v-1224h561v1224h135v-1341h-1528z" />
<glyph unicode="&#x429;" horiz-adv-x="1918" d="M182 0v1341h135v-1224h562v1224h135v-1224h561v1224h135v-1224h133v-385h-112v268h-1549z" />
<glyph unicode="&#x42a;" horiz-adv-x="1243" d="M-6 1223v118h440v-604h258q95 0 176 -18t149.5 -56.5t108 -108.5t39.5 -165q0 -88 -28 -157t-73 -112t-108 -70.5t-127 -38.5t-135 -11h-395v1223h-305zM434 119h209q67 0 120 6t104 22.5t84.5 44t54 72.5t20.5 105t-20 104.5t-54 72t-85.5 44t-107 22.5t-126.5 6h-199 v-499z" />
<glyph unicode="&#x42b;" horiz-adv-x="1572" d="M184 0v1341h135v-604h259q95 0 176 -18t149.5 -56.5t108 -108.5t39.5 -165q0 -88 -28 -157t-73 -112t-108 -70.5t-127 -38.5t-135 -11h-396zM319 119h209q67 0 120 6t104 22.5t84.5 44t54 72.5t20.5 105t-20 104.5t-54 72t-85.5 44t-107 22.5t-126.5 6h-199v-499zM1253 0 v1341h136v-1341h-136z" />
<glyph unicode="&#x42c;" d="M184 0v1341h135v-604h259q95 0 176 -18t149.5 -56.5t108 -108.5t39.5 -165q0 -88 -28 -157t-73 -112t-108 -70.5t-127 -38.5t-135 -11h-396zM319 119h209q67 0 120 6t104 22.5t84.5 44t54 72.5t20.5 105t-20 104.5t-54 72t-85.5 44t-107 22.5t-126.5 6h-199v-499z" />
<glyph unicode="&#x42d;" horiz-adv-x="1241" d="M96 133l45 84q59 -52 150 -88.5t190 -36.5q119 0 212.5 42t153 116t94 166.5t44.5 201.5h-659v119h663q-9 219 -139.5 365.5t-321.5 146.5q-107 0 -191.5 -26.5t-180.5 -83.5l-27 106q65 51 161.5 88t215.5 37q154 0 275.5 -55.5t196.5 -152.5t113.5 -222.5t38.5 -271.5 q0 -98 -20.5 -193t-67.5 -188t-115.5 -162.5t-174 -112.5t-234.5 -43q-139 0 -249 48t-173 116z" />
<glyph unicode="&#x42e;" horiz-adv-x="1884" d="M184 0v1341h135v-606h248q6 102 32.5 194t77 173.5t121.5 140.5t171.5 93t220.5 34q117 0 215 -41t164.5 -109t113 -159t68 -189t21.5 -200q0 -110 -22 -210t-71 -191t-120.5 -157.5t-177 -105.5t-234.5 -39q-112 0 -206.5 37t-160 100t-113 147t-72 175.5t-30.5 189.5 h-246v-618h-135zM705 709q0 -103 16 -193t53 -169t92 -135.5t137 -89t185 -32.5q83 0 155 30t124 82.5t90 121.5t56.5 148.5t18.5 162.5q0 103 -16.5 192.5t-53.5 168t-92.5 134t-137 87.5t-183.5 32q-103 0 -188.5 -45.5t-140.5 -121.5t-85 -172.5t-30 -200.5z" />
<glyph unicode="&#x42f;" horiz-adv-x="1206" d="M55 0l424 561q-150 30 -244 131t-94 271q0 97 36.5 171.5t100.5 118.5t143.5 66t172.5 22h414v-1341h-136v549h-245l-410 -549h-162zM281 940q0 -148 99.5 -212t278.5 -64h213v559h-217q-69 0 -124 -8.5t-102.5 -29t-79.5 -52.5t-50 -80.5t-18 -112.5z" />
<glyph unicode="&#x430;" horiz-adv-x="987" d="M104 246q0 71 28.5 124.5t72 85t105.5 51t119 26t122 6.5h154v73q0 134 -59 194t-179 60q-73 0 -151.5 -24.5t-131.5 -59.5l-24 92q71 49 159.5 77t167.5 28q184 0 264 -97.5t80 -291.5v-590h-69l-41 113q-51 -64 -132 -104t-183 -40q-130 0 -216 74.5t-86 202.5z M233 260q0 -84 58 -134t155 -50q85 0 155 36t104 91v246h-127q-345 0 -345 -189z" />
<glyph unicode="&#x431;" horiz-adv-x="1079" d="M104 618q0 79 7 157.5t26 168.5t48 168.5t77.5 153t110.5 127t150.5 84.5t193.5 32q130 0 190 -20l-24 -92q-60 12 -150 12q-100 0 -181 -36.5t-133 -94t-90 -137t-56.5 -157.5t-26.5 -163q54 76 134 117t175 41q194 0 307 -133.5t113 -358.5q0 -144 -50.5 -260 t-149.5 -186t-230 -70q-103 0 -187.5 51t-139.5 139t-84.5 205.5t-29.5 251.5zM233 598q0 -74 11 -146t36 -139.5t61 -118t91 -81.5t121 -31q83 0 150.5 55t104 144t36.5 192q0 176 -79.5 284.5t-232.5 108.5q-86 0 -164 -40t-128 -113q-7 -65 -7 -115z" />
<glyph unicode="&#x432;" horiz-adv-x="1005" d="M166 0v948h326q165 0 249 -58.5t84 -189.5q0 -67 -44 -118.5t-113 -75.5q103 -18 168 -81.5t65 -154.5q0 -136 -102 -203t-285 -67h-348zM285 106h215q142 0 208 44.5t66 119.5q0 80 -57 124t-199 44h-233v-332zM285 539h178q235 0 235 161q0 142 -223 142h-190v-303z " />
<glyph unicode="&#x433;" horiz-adv-x="737" d="M166 0v948h506v-110h-379v-838h-127z" />
<glyph unicode="&#x434;" horiz-adv-x="1130" d="M29 111q42 0 69 3t51 12.5t39 25t28 43t22 63t18 88.5l66 602h604v-837h129v-394h-111v283h-805v-283h-110v394zM295 111h504v727h-367l-57 -529q-14 -135 -80 -198z" />
<glyph unicode="&#x435;" horiz-adv-x="1007" d="M104 471q0 233 118.5 370.5t295.5 137.5q178 0 283.5 -120.5t105.5 -326.5l-39 -86h-637q11 -173 106.5 -269.5t262.5 -96.5q62 0 128.5 23t111.5 61l32 -58q-61 -69 -146.5 -102t-176.5 -33q-138 0 -240.5 68.5t-153.5 180.5t-51 251zM231 541h557q-1 157 -74.5 244 t-193.5 87q-122 0 -201 -92.5t-88 -238.5z" />
<glyph unicode="&#x436;" horiz-adv-x="1497" d="M61 0q44 169 138 302.5t231 209.5l-369 436h156l334 -403h133v403h127v-403h133l336 403h154l-369 -436q139 -76 233 -209.5t136 -302.5h-142q-88 301 -315 434h-166v-434h-127v434h-164q-231 -136 -315 -434h-144z" />
<glyph unicode="&#x437;" horiz-adv-x="950" d="M96 98l41 74q51 -47 131 -71.5t150 -24.5q123 0 206 51.5t83 130.5q0 41 -14.5 72t-44.5 50t-62 31t-81 17t-85.5 6.5t-91.5 1.5v105q156 0 242.5 44t86.5 128q0 42 -20 73t-55.5 48t-77 24.5t-90.5 7.5q-69 0 -140.5 -22.5t-126.5 -59.5l-24 93q132 102 321 102 q92 0 168.5 -27t126 -84t49.5 -135q0 -99 -67.5 -158.5t-161.5 -72.5q38 -2 82 -15t90.5 -39t76.5 -74t30 -110q0 -74 -32 -131t-87.5 -92t-124 -52.5t-145.5 -17.5q-102 0 -198.5 32t-154.5 95z" />
<glyph unicode="&#x438;" horiz-adv-x="1136" d="M166 0v948h117v-760l516 760h172v-948h-119v821l-565 -821h-121z" />
<glyph unicode="&#x439;" horiz-adv-x="1136" d="M166 0v948h117v-760l516 760h172v-948h-119v821l-565 -821h-121zM322 1413h71q11 -80 57 -125t119 -45t119 45t57 125h72q0 -113 -70 -192.5t-178 -79.5q-113 0 -180 81t-67 191z" />
<glyph unicode="&#x43a;" horiz-adv-x="985" d="M166 0v950h127v-405h133l336 405h153l-368 -438q138 -76 232 -209.5t136 -302.5h-143q-85 300 -315 434h-164v-434h-127z" />
<glyph unicode="&#x43b;" horiz-adv-x="1146" d="M-18 57l32 60q56 -33 109 -33q56 0 86.5 42t40.5 134l76 688h653v-948h-127v838h-416l-59 -557q-18 -156 -67 -227.5t-152 -71.5q-107 0 -176 75z" />
<glyph unicode="&#x43c;" horiz-adv-x="1384" d="M166 0v948h199l329 -788l324 788h201v-948h-119v862l-352 -862h-109l-356 864v-864h-117z" />
<glyph unicode="&#x43d;" horiz-adv-x="1093" d="M166 0v948h127v-405h508v405h127v-948h-127v432h-508v-432h-127z" />
<glyph unicode="&#x43e;" horiz-adv-x="1077" d="M104 471q0 239 123.5 373.5t329.5 134.5q127 0 222.5 -67t144.5 -179.5t49 -251.5q0 -239 -124.5 -375.5t-328.5 -136.5q-126 0 -222 68.5t-145 181.5t-49 252zM236 500q0 -115 32 -208.5t104 -154.5t175 -61q90 0 158.5 52.5t102.5 137.5t34 187q0 84 -19 158t-56 133 t-98 93.5t-139 34.5q-90 0 -158 -52t-102 -135.5t-34 -184.5z" />
<glyph unicode="&#x43f;" horiz-adv-x="1062" d="M166 0v948h731v-948h-127v838h-477v-838h-127z" />
<glyph unicode="&#x440;" horiz-adv-x="1107" d="M166 -502v1450h70l40 -112q143 143 310 143q187 0 302.5 -140.5t115.5 -355.5q0 -238 -125 -376t-318 -138q-72 0 -143.5 28.5t-124.5 84.5v-584h-127zM293 209q50 -65 122 -95t144 -30q138 0 225.5 105t87.5 266q0 179 -82 295t-231 116q-73 0 -150 -39t-116 -100v-518z " />
<glyph unicode="&#x441;" horiz-adv-x="944" d="M104 471q0 118 35.5 215.5t96 160.5t139 97.5t166.5 34.5q86 0 163.5 -28t133.5 -74l-23 -93q-132 82 -272 82q-133 0 -220 -107t-87 -267q0 -191 94 -299.5t262 -108.5q64 0 130 21.5t109 58.5l35 -58q-61 -69 -147.5 -102t-175.5 -33q-132 0 -233.5 68t-153.5 181 t-52 251z" />
<glyph unicode="&#x442;" horiz-adv-x="931" d="M63 838v110h803v-110h-338v-838h-127v838h-338z" />
<glyph unicode="&#x443;" horiz-adv-x="958" d="M47 948h139l303 -794l299 794h136l-588 -1450h-131l221 514z" />
<glyph unicode="&#x444;" horiz-adv-x="1296" d="M104 469q0 118 39 213t106.5 156.5t153 97t183.5 43.5v530h125v-530q119 -6 213.5 -52.5t151.5 -119t86.5 -156.5t29.5 -172q0 -95 -25.5 -175t-70.5 -138t-106 -100.5t-131 -65.5t-148 -29v-475h-125v475q-96 5 -176.5 36.5t-136 80.5t-94.5 112.5t-57 131t-18 137.5z M236 492q0 -80 20 -149.5t60 -127.5t109.5 -95t160.5 -44v796q-161 -10 -255.5 -120.5t-94.5 -259.5zM711 76q159 9 254.5 120t95.5 261q0 79 -20 148.5t-60.5 127t-109.5 94t-160 43.5v-794z" />
<glyph unicode="&#x445;" horiz-adv-x="966" d="M43 0l365 477l-355 471h154l276 -387l281 387h151l-358 -467l367 -481h-160l-285 395l-289 -395h-147z" />
<glyph unicode="&#x446;" horiz-adv-x="1101" d="M166 0v948h127v-837h477v837h127v-837h129v-394h-111v283h-749z" />
<glyph unicode="&#x447;" horiz-adv-x="991" d="M63 625v323h127v-280q0 -127 49 -189.5t171 -62.5q70 0 153.5 38t134.5 89v405h127v-948h-127v428q-72 -57 -162 -91t-182 -34q-138 0 -214.5 79t-76.5 243z" />
<glyph unicode="&#x448;" horiz-adv-x="1441" d="M166 0v948h127v-837h364v837h127v-837h365v837h127v-948h-1110z" />
<glyph unicode="&#x449;" horiz-adv-x="1480" d="M166 0v948h127v-837h364v837h127v-837h365v837h127v-837h129v-394h-111v283h-1128z" />
<glyph unicode="&#x44a;" horiz-adv-x="1032" d="M-29 838v110h381v-403h193q203 0 302 -67.5t99 -205.5q0 -136 -99 -204t-278 -68h-344v838h-254zM352 111h197q266 0 266 163q0 78 -59 119t-203 41h-201v-323z" />
<glyph unicode="&#x44b;" horiz-adv-x="1370" d="M166 0v948h127v-403h192q402 0 402 -273q0 -136 -99 -204t-278 -68h-344zM293 111h196q267 0 267 163q0 78 -59 119t-203 41h-201v-323zM1071 0v948h127v-948h-127z" />
<glyph unicode="&#x44c;" horiz-adv-x="970" d="M166 0v948h127v-403h192q402 0 402 -273q0 -136 -99 -204t-278 -68h-344zM293 111h196q267 0 267 163q0 78 -59 119t-203 41h-201v-323z" />
<glyph unicode="&#x44d;" horiz-adv-x="944" d="M78 92l39 72q44 -37 110.5 -58.5t128.5 -21.5q156 0 246.5 91.5t104.5 256.5h-461v111h459q-14 140 -100 231.5t-206 91.5q-146 0 -274 -82l-25 93q56 45 135 73.5t166 28.5t165.5 -34.5t139.5 -97.5t97.5 -160.5t36.5 -215.5q0 -138 -51 -251t-150.5 -181t-230.5 -68 q-92 0 -181 29.5t-149 91.5z" />
<glyph unicode="&#x44e;" horiz-adv-x="1525" d="M160 0v948h127v-403h268q20 205 141 319.5t310 114.5q126 0 222 -67.5t144.5 -179.5t48.5 -251q0 -239 -124 -375.5t-328 -136.5q-182 0 -293.5 131.5t-122.5 333.5h-266v-434h-127zM684 500q0 -115 32 -208.5t104 -154.5t175 -61q90 0 158.5 52.5t102.5 137.5t34 187 q0 84 -19 158t-55.5 133t-97.5 93.5t-139 34.5q-90 0 -158.5 -52t-102.5 -135.5t-34 -184.5z" />
<glyph unicode="&#x44f;" horiz-adv-x="1015" d="M66 0l313 381q-123 19 -190.5 92t-67.5 184q0 138 100.5 214.5t276.5 76.5h352v-948h-127v367h-205l-301 -367h-151zM252 657q0 -184 246 -184h225v365h-205q-139 0 -202.5 -51t-63.5 -130z" />
<glyph unicode="&#x451;" horiz-adv-x="1007" d="M104 471q0 233 118.5 370.5t295.5 137.5q178 0 283.5 -120.5t105.5 -326.5l-39 -86h-637q11 -173 106.5 -269.5t262.5 -96.5q62 0 128.5 23t111.5 61l32 -58q-61 -69 -146.5 -102t-176.5 -33q-138 0 -240.5 68.5t-153.5 180.5t-51 251zM221 1264q0 35 26.5 62.5 t61.5 27.5t62.5 -27.5t27.5 -62.5t-27.5 -61.5t-62.5 -26.5t-61.5 26.5t-26.5 61.5zM231 541h557q-1 157 -74.5 244t-193.5 87q-122 0 -201 -92.5t-88 -238.5zM616 1264q0 35 27 62.5t62 27.5t62.5 -27.5t27.5 -62.5t-27.5 -61.5t-62.5 -26.5t-62 26.5t-27 61.5z" />
<glyph unicode="&#x452;" horiz-adv-x="1089" d="M33 1188v80h133v241h127v-241h344v-80h-344v-334q160 125 344 125q138 0 214.5 -79t76.5 -243v-661q0 -142 -69 -210.5t-173 -68.5t-180 64l33 57q61 -24 112 -24q150 0 150 213v587q0 127 -49 189.5t-170 62.5q-71 0 -154.5 -38t-134.5 -89v-739h-127v1188h-133z" />
<glyph unicode="&#x453;" horiz-adv-x="737" d="M166 0v948h506v-110h-379v-838h-127zM250 1149l223 340l113 -72l-285 -303z" />
<glyph unicode="&#x454;" horiz-adv-x="944" d="M104 471q0 118 35.5 215.5t96 160.5t139 97.5t166.5 34.5q86 0 163.5 -28t133.5 -74l-23 -93q-132 82 -272 82q-122 0 -206 -90t-99 -231h475v-111h-475q14 -165 106 -257.5t248 -92.5q64 0 130 21.5t109 58.5l35 -58q-61 -69 -147.5 -102t-175.5 -33q-132 0 -233.5 68 t-153.5 181t-52 251z" />
<glyph unicode="&#x455;" horiz-adv-x="882" d="M104 100l41 72q51 -47 126 -70.5t143 -23.5q107 0 171 45t64 117q0 41 -29 75t-75 59t-101.5 49t-111 51t-101.5 59t-75 79t-29 105q0 119 90 190.5t227 71.5q82 0 159.5 -28t133.5 -72l-24 -95q-131 88 -262 88q-95 0 -147 -39t-52 -106q0 -40 29 -73t75 -57.5 t102 -47.5t112 -50t102 -59t75 -80.5t29 -107.5q0 -124 -91 -203.5t-249 -79.5q-90 0 -181.5 34t-150.5 97z" />
<glyph unicode="&#x456;" horiz-adv-x="505" d="M164 1264q0 37 25.5 63.5t62.5 26.5t63.5 -26.5t26.5 -63.5t-26.5 -62.5t-63.5 -25.5t-62.5 25.5t-25.5 62.5zM186 0v948h127v-948h-127z" />
<glyph unicode="&#x457;" horiz-adv-x="505" d="M-4 1264q0 37 25.5 63.5t62.5 26.5t63.5 -26.5t26.5 -63.5t-26.5 -62.5t-63.5 -25.5t-62.5 25.5t-25.5 62.5zM182 0v948h127v-948h-127zM332 1264q0 37 25.5 63.5t62.5 26.5t63.5 -26.5t26.5 -63.5t-26.5 -62.5t-63.5 -25.5t-62.5 25.5t-25.5 62.5z" />
<glyph unicode="&#x458;" horiz-adv-x="507" d="M-86 -463l33 60q64 -25 110 -25q150 0 150 213v1163h127v-1196q0 -141 -69 -208.5t-173 -67.5q-105 0 -178 61zM182 1264q0 37 25.5 63.5t62.5 26.5t63.5 -26.5t26.5 -63.5q0 -38 -26.5 -64t-63.5 -26t-62.5 26t-25.5 64z" />
<glyph unicode="&#x459;" horiz-adv-x="1579" d="M-18 57l32 60q56 -33 109 -33q56 0 86.5 42t40.5 134l76 688h573v-403h193q203 0 302 -67.5t99 -205.5q0 -136 -99 -204t-278 -68h-344v838h-336l-59 -551q-18 -159 -67 -232t-152 -73q-101 0 -176 75zM899 111h197q266 0 266 163q0 78 -59 119t-203 41h-201v-323z" />
<glyph unicode="&#x45a;" horiz-adv-x="1558" d="M158 0v948h127v-403h469v403h127v-403h192q402 0 402 -273q0 -136 -99 -204t-278 -68h-344v434h-469v-434h-127zM881 111h196q266 0 266 163q0 78 -59 119t-203 41h-200v-323z" />
<glyph unicode="&#x45b;" horiz-adv-x="1089" d="M33 1188v80h133v241h127v-241h344v-80h-344v-336q70 58 160.5 92.5t183.5 34.5q138 0 214.5 -79t76.5 -243v-657h-127v612q0 128 -49.5 191t-171.5 63q-69 0 -153 -38.5t-134 -88.5v-739h-127v1188h-133z" />
<glyph unicode="&#x45c;" horiz-adv-x="985" d="M166 0v948h127v-403h133l336 403h153l-368 -436q138 -76 232 -209.5t136 -302.5h-143q-85 300 -315 434h-164v-434h-127zM348 1149l223 340l113 -72l-285 -303z" />
<glyph unicode="&#x45e;" horiz-adv-x="958" d="M47 948h139l303 -794l299 794h136l-588 -1450h-131l221 514zM250 1413h72q11 -80 57 -125t119 -45t119 45t57 125h71q0 -113 -69.5 -192.5t-177.5 -79.5q-113 0 -180.5 81.5t-67.5 190.5z" />
<glyph unicode="&#x45f;" horiz-adv-x="1069" d="M166 0v948h127v-837h483v837h127v-948h-309v-283h-111v283h-317z" />
<glyph unicode="&#x490;" horiz-adv-x="1017" d="M182 0v1341h656v283h118v-401h-639v-1223h-135z" />
<glyph unicode="&#x491;" horiz-adv-x="741" d="M166 0v948h395v289h111v-399h-379v-838h-127z" />
<glyph unicode="&#x4d9;" horiz-adv-x="1007" d="M84 420l39 86h637q-11 173 -106.5 269.5t-262.5 96.5q-62 0 -128 -23t-111 -61l-33 58q61 69 146.5 102t176.5 33q138 0 240.5 -68.5t153.5 -180.5t51 -251q0 -233 -118.5 -372.5t-295.5 -139.5t-283 122t-106 329zM203 412q1 -157 75 -246.5t193 -89.5q121 0 200.5 94.5 t88.5 241.5h-557z" />
<glyph unicode="&#x1d62;" horiz-adv-x="425" d="M147 555q0 29 18.5 47.5t45.5 18.5q28 0 46.5 -18.5t18.5 -47.5q0 -28 -18.5 -45.5t-46.5 -17.5q-27 0 -45.5 18t-18.5 45zM162 -260v622h98v-622h-98z" />
<glyph unicode="&#x1d63;" horiz-adv-x="602" d="M154 -260v625h55l29 -74q40 41 90 64.5t98 23.5q47 0 92 -31l-22 -80q-53 17 -84 17q-95 0 -160 -68v-477h-98z" />
<glyph unicode="&#x1d64;" horiz-adv-x="790" d="M133 -63v428h98v-400q0 -153 125 -153q42 0 95 20t90 53v480h96v-625h-53l-31 74q-101 -95 -225 -95q-92 0 -143.5 55t-51.5 163z" />
<glyph unicode="&#x1d65;" horiz-adv-x="731" d="M72 362h108l189 -489l184 489h106l-251 -622h-84z" />
<glyph unicode="&#x1e80;" horiz-adv-x="2078" d="M45 1341h150l387 -1171l376 1171h164l387 -1171l377 1171h144l-457 -1341h-137l-400 1174l-391 -1174h-137zM815 1665l86 98l316 -280l-41 -47z" />
<glyph unicode="&#x1e81;" horiz-adv-x="1558" d="M37 950h139l262 -796l277 796h133l278 -796l260 796h136l-346 -950h-107l-293 811l-289 -811h-108zM618 1417l113 72l223 -340l-53 -35z" />
<glyph unicode="&#x1e82;" horiz-adv-x="2078" d="M45 1341h150l387 -1171l376 1171h164l387 -1171l377 1171h144l-457 -1341h-137l-400 1174l-391 -1174h-137zM866 1483l316 280l88 -98l-363 -229z" />
<glyph unicode="&#x1e83;" horiz-adv-x="1558" d="M37 950h139l262 -796l277 796h133l278 -796l260 796h136l-346 -950h-107l-293 811l-289 -811h-108zM614 1149l224 340l112 -72l-284 -303z" />
<glyph unicode="&#x1e84;" horiz-adv-x="2078" d="M45 1341h150l387 -1171l376 1171h164l387 -1171l377 1171h144l-457 -1341h-137l-400 1174l-391 -1174h-137zM748 1579q0 37 25.5 63.5t62.5 26.5t63.5 -26.5t26.5 -63.5t-26.5 -62.5t-63.5 -25.5t-62.5 25.5t-25.5 62.5zM1163 1579q0 37 25.5 63.5t62.5 26.5t63.5 -26.5 t26.5 -63.5t-26.5 -62.5t-63.5 -25.5t-62.5 25.5t-25.5 62.5z" />
<glyph unicode="&#x1e85;" horiz-adv-x="1558" d="M37 950h139l262 -796l277 796h133l278 -796l260 796h136l-346 -950h-107l-293 811l-289 -811h-108zM489 1264q0 35 27 62.5t62 27.5t62.5 -27.5t27.5 -62.5t-27.5 -61.5t-62.5 -26.5t-62 26.5t-27 61.5zM885 1264q0 35 26.5 62.5t61.5 27.5t62.5 -27.5t27.5 -62.5 t-27.5 -61.5t-62.5 -26.5t-61.5 26.5t-26.5 61.5z" />
<glyph unicode="&#x1ef2;" horiz-adv-x="1198" d="M45 1341h154l403 -663l402 663h147l-485 -774v-567h-136v565zM342 1665l86 98l315 -280l-41 -47z" />
<glyph unicode="&#x1ef3;" horiz-adv-x="958" d="M47 948h139l303 -794l299 794h136l-588 -1450h-131l221 514zM274 1417l113 72l223 -340l-53 -35z" />
<glyph unicode="&#x2000;" horiz-adv-x="963" />
<glyph unicode="&#x2001;" horiz-adv-x="1927" />
<glyph unicode="&#x2002;" horiz-adv-x="963" />
<glyph unicode="&#x2003;" horiz-adv-x="1927" />
<glyph unicode="&#x2004;" horiz-adv-x="642" />
<glyph unicode="&#x2005;" horiz-adv-x="481" />
<glyph unicode="&#x2006;" horiz-adv-x="321" />
<glyph unicode="&#x2007;" horiz-adv-x="321" />
<glyph unicode="&#x2008;" horiz-adv-x="240" />
<glyph unicode="&#x2009;" horiz-adv-x="385" />
<glyph unicode="&#x200a;" horiz-adv-x="107" />
<glyph unicode="&#x2010;" horiz-adv-x="669" d="M106 434v111h455v-111h-455z" />
<glyph unicode="&#x2011;" horiz-adv-x="669" d="M106 434v111h455v-111h-455z" />
<glyph unicode="&#x2012;" horiz-adv-x="669" d="M106 434v111h455v-111h-455z" />
<glyph unicode="&#x2013;" horiz-adv-x="1140" d="M106 434v111h926v-111h-926z" />
<glyph unicode="&#x2014;" horiz-adv-x="2062" d="M106 434v111h1848v-111h-1848z" />
<glyph unicode="&#x2018;" horiz-adv-x="358" d="M66 1030l90 479h63v-479h-153z" />
<glyph unicode="&#x2019;" horiz-adv-x="364" d="M131 1030v479h154l-90 -479h-64z" />
<glyph unicode="&#x201a;" horiz-adv-x="407" d="M145 170h154l-90 -479h-64v479z" />
<glyph unicode="&#x201c;" horiz-adv-x="708" d="M66 1030l90 479h63v-479h-153zM416 1030l90 479h63v-479h-153z" />
<glyph unicode="&#x201d;" horiz-adv-x="714" d="M131 1030v479h154l-90 -479h-64zM481 1030v479h154l-90 -479h-64z" />
<glyph unicode="&#x201e;" horiz-adv-x="757" d="M145 170h154l-90 -479h-64v479zM496 170h153l-90 -479h-63v479z" />
<glyph unicode="&#x2020;" horiz-adv-x="835" d="M68 893v113h288v335h121v-335h289v-113h-289v-1061h-121v1061h-288z" />
<glyph unicode="&#x2021;" horiz-adv-x="835" d="M68 172v111h288v610h-288v113h288v335h121v-335h289v-113h-289v-610h289v-111h-289v-340h-121v340h-288z" />
<glyph unicode="&#x2022;" horiz-adv-x="856" d="M170 528q0 106 75.5 181t182.5 75q106 0 181 -75t75 -181q0 -107 -75.5 -182.5t-182.5 -75.5q-106 0 -181 76t-75 182z" />
<glyph unicode="&#x202f;" horiz-adv-x="385" />
<glyph unicode="&#x2030;" horiz-adv-x="2316" d="M104 997q0 158 83 250t216 92q141 0 219 -103t78 -263q0 -153 -82.5 -245.5t-214.5 -92.5q-95 0 -164 51.5t-102 132t-33 178.5zM209 1008q0 -74 19.5 -135.5t67.5 -104.5t118 -43q88 0 136 69.5t48 168.5q0 55 -11 104t-34 91.5t-63.5 67.5t-94.5 25q-85 0 -135.5 -72.5 t-50.5 -170.5zM369 0l725 1309h96l-725 -1309h-96zM874 344q0 158 82.5 250t214.5 92q142 0 219.5 -103t77.5 -264q0 -152 -82.5 -244.5t-214.5 -92.5q-94 0 -163 51.5t-101.5 132.5t-32.5 178zM977 354q0 -116 52 -199t153 -83q88 0 136 69t48 168q0 55 -10.5 104t-33.5 92 t-63.5 68t-95.5 25q-85 0 -135.5 -73t-50.5 -171zM1618 344q0 158 82.5 250t214.5 92q142 0 219.5 -103t77.5 -264q0 -152 -82.5 -244.5t-214.5 -92.5q-94 0 -163 51.5t-101.5 132.5t-32.5 178zM1720 354q0 -74 19.5 -135.5t67.5 -104t118 -42.5q88 0 136 69t48 168 q0 55 -11 104.5t-33.5 92t-63 67.5t-94.5 25q-85 0 -136 -73t-51 -171z" />
<glyph unicode="&#x2039;" horiz-adv-x="585" d="M88 494l346 346l37 -39l-197 -307l199 -308l-39 -39z" />
<glyph unicode="&#x203a;" horiz-adv-x="583" d="M96 186l199 308l-197 307l37 39l346 -346l-346 -347z" />
<glyph unicode="&#x2044;" horiz-adv-x="102" d="M-360 0l725 1309h96l-725 -1309h-96z" />
<glyph unicode="&#x205f;" horiz-adv-x="481" />
<glyph unicode="&#x2070;" horiz-adv-x="786" d="M111 1081q0 89 16 166t49 140t88.5 99t128.5 36q62 0 111 -27.5t80.5 -72t53 -105.5t30 -124.5t8.5 -131.5q0 -66 -9.5 -126.5t-31.5 -116.5t-54.5 -97t-80.5 -65.5t-107 -24.5q-61 0 -110.5 28t-81 73t-52.5 105t-29.5 120.5t-8.5 123.5zM215 1100q0 -49 4 -95t16.5 -99 t32 -91.5t54.5 -64t81 -25.5q59 0 98.5 51t54.5 119.5t15 146.5q0 51 -3.5 97t-15.5 101t-31.5 94.5t-55 66t-82.5 26.5q-45 0 -79 -30.5t-52.5 -80t-27.5 -104.5t-9 -112z" />
<glyph unicode="&#x2071;" horiz-adv-x="425" d="M147 1464q0 29 18.5 47.5t45.5 18.5q28 0 46.5 -18.5t18.5 -47.5q0 -28 -18.5 -45.5t-46.5 -17.5q-27 0 -45.5 18t-18.5 45zM162 649v623h98v-623h-98z" />
<glyph unicode="&#x2074;" horiz-adv-x="727" d="M66 864v70l364 567h94v-549h123v-88h-123v-215h-102v215h-356zM178 952h244v404z" />
<glyph unicode="&#x2075;" horiz-adv-x="714" d="M111 651l20 84q68 -8 111 -8q120 0 195 47t75 133q0 84 -51 126t-129 42q-83 0 -156 -47l-47 27v444h436v-92h-340v-272q61 28 137 28q118 0 187 -67.5t69 -173.5q0 -126 -99 -205.5t-267 -79.5q-71 0 -141 14z" />
<glyph unicode="&#x2076;" horiz-adv-x="735" d="M98 1018q0 80 14.5 152.5t45 135t74.5 108t106.5 71.5t136.5 26q51 0 121 -20l-21 -80q-47 10 -88 10q-68 0 -122.5 -29t-88.5 -78t-53 -108t-22 -123q77 86 192 86q119 0 187.5 -74.5t68.5 -183.5q0 -121 -72 -201.5t-198 -80.5q-124 0 -202.5 104.5t-78.5 284.5z M207 985q3 -109 51 -185.5t133 -76.5q71 0 112.5 51t41.5 121q0 77 -44.5 128.5t-121.5 51.5q-105 0 -172 -90z" />
<glyph unicode="&#x2077;" horiz-adv-x="659" d="M72 1409v92h516v-88l-283 -764h-110l288 760h-411z" />
<glyph unicode="&#x2078;" horiz-adv-x="745" d="M94 879q0 72 43.5 128t108.5 93q-127 78 -127 200q0 102 71.5 162t171.5 60q102 0 173 -62t71 -162q0 -124 -135 -202q82 -43 127 -92t45 -127q0 -114 -81 -180t-193 -66q-71 0 -132 26t-102 84t-41 138zM203 887q0 -79 51.5 -121.5t124.5 -42.5q65 0 111.5 39.5 t46.5 111.5q0 41 -32.5 77t-75.5 59.5t-105 48.5q-52 -28 -86.5 -72t-34.5 -100zM227 1298q0 -57 40.5 -91.5t121.5 -73.5q111 64 111 155q0 63 -37 103.5t-105 40.5q-54 0 -92.5 -37t-38.5 -97z" />
<glyph unicode="&#x2079;" horiz-adv-x="735" d="M88 1249q0 121 73 197t195 76q94 0 159.5 -52.5t96.5 -140.5t31 -203q0 -77 -10 -144t-36 -131t-66.5 -109.5t-105.5 -73t-149 -27.5q-83 0 -118 14l20 82q37 -6 86 -6q74 0 128.5 26t85 72.5t45 102t16.5 123.5q-37 -37 -89.5 -57.5t-99.5 -20.5q-119 0 -190.5 82.5 t-71.5 189.5zM195 1264q0 -90 49 -140.5t129 -50.5q101 0 166 80q-3 122 -53.5 199.5t-131.5 77.5q-70 0 -114.5 -47t-44.5 -119z" />
<glyph unicode="&#x207a;" horiz-adv-x="790" d="M100 981v86h250v250h88v-250h250v-86h-250v-252h-88v252h-250z" />
<glyph unicode="&#x207b;" horiz-adv-x="790" d="M100 981v88h590v-88h-590z" />
<glyph unicode="&#x207c;" horiz-adv-x="790" d="M100 854v88h588v-88h-588zM100 1108v86h588v-86h-588z" />
<glyph unicode="&#x207d;" horiz-adv-x="514" d="M88 1071q0 163 81.5 333t231.5 296l37 -62q-117 -105 -181 -257.5t-64 -301.5q0 -148 63.5 -299.5t181.5 -261.5l-39 -53q-156 126 -233.5 284t-77.5 322z" />
<glyph unicode="&#x207e;" horiz-adv-x="514" d="M61 518q118 111 182 262t64 299q0 149 -64.5 301.5t-181.5 257.5l37 62q150 -126 232 -296t82 -333t-78 -321.5t-234 -284.5z" />
<glyph unicode="&#x207f;" horiz-adv-x="794" d="M154 649v625h55l29 -74q103 92 227 92q91 0 141.5 -53t50.5 -160v-430h-96v402q0 72 -26.5 109.5t-94.5 37.5q-41 0 -96.5 -20t-91.5 -54v-475h-98z" />
<glyph unicode="&#x2080;" horiz-adv-x="786" d="M111 172q0 89 16 166t49 139.5t88.5 98.5t128.5 36q62 0 111 -27.5t80.5 -72t53 -105t30 -124t8.5 -131.5q0 -83 -16 -157.5t-48.5 -137t-89 -99.5t-129.5 -37q-61 0 -110.5 28t-81 73t-52.5 105.5t-29.5 121t-8.5 123.5zM215 190q0 -49 4 -95t16.5 -98.5t32 -91 t54.5 -64t81 -25.5q59 0 98.5 51t54.5 119.5t15 146.5q0 51 -3.5 97t-15.5 101t-31.5 94.5t-55 66t-82.5 26.5q-45 0 -79 -30.5t-52.5 -80.5t-27.5 -105t-9 -112z" />
<glyph unicode="&#x2081;" horiz-adv-x="512" d="M53 481v60l293 69v-870h-100v741h-193z" />
<glyph unicode="&#x2082;" horiz-adv-x="696" d="M86 -188q61 41 123.5 95.5t126 125t103.5 151.5t40 154q0 83 -47 132.5t-133 49.5q-85 0 -190 -78l-23 86q96 84 231 84q116 0 193.5 -73.5t77.5 -196.5q0 -131 -98 -270.5t-234 -241.5h365v-90h-535v72z" />
<glyph unicode="&#x2083;" horiz-adv-x="716" d="M98 528q91 84 224 84q99 0 170 -58.5t71 -152.5q0 -67 -43 -119.5t-112 -78.5q204 -30 204 -209q0 -120 -105.5 -191t-264.5 -71q-82 0 -142 12l21 84q63 -6 110 -6q120 0 197.5 46t77.5 130q0 34 -12 59.5t-35 40.5t-48 25.5t-61 14.5t-63.5 5.5t-65.5 1.5v86 q100 5 167 45.5t67 112.5q0 61 -45 96t-105 35q-84 0 -184 -76z" />
<glyph unicode="&#x2084;" horiz-adv-x="727" d="M66 25l364 567h94v-549h123v-88h-123v-215h-102v215h-356v70zM178 43h244v403z" />
<glyph unicode="&#x2085;" horiz-adv-x="714" d="M111 -258l20 84q68 -8 111 -8q120 0 195 47t75 133q0 84 -51 126t-129 42q-83 0 -156 -47l-47 26v445h436v-92h-340v-273q63 29 137 29q118 0 187 -68t69 -174q0 -126 -99 -205t-267 -79q-71 0 -141 14z" />
<glyph unicode="&#x2086;" horiz-adv-x="735" d="M98 109q0 80 14.5 152.5t45 135t74.5 108t106.5 71.5t136.5 26q51 0 121 -20l-21 -80q-47 10 -88 10q-68 0 -122.5 -29t-88.5 -78t-53 -108t-22 -123q77 86 192 86q119 0 187.5 -74.5t68.5 -183.5q0 -121 -72 -202t-198 -81q-124 0 -202.5 105t-78.5 285zM207 76 q3 -109 51 -185.5t133 -76.5q71 0 112.5 51t41.5 121q0 77 -44.5 128.5t-121.5 51.5q-105 0 -172 -90z" />
<glyph unicode="&#x2087;" horiz-adv-x="659" d="M72 498v92h516v-88l-283 -764h-110l288 760h-411z" />
<glyph unicode="&#x2088;" horiz-adv-x="745" d="M94 -31q0 72 43.5 128t108.5 93q-127 78 -127 201q0 102 71.5 161.5t171.5 59.5q102 0 173 -61.5t71 -161.5q0 -125 -135 -203q82 -43 127 -92t45 -127q0 -114 -81 -180t-193 -66q-71 0 -132 26t-102 84t-41 138zM203 -23q0 -79 51.5 -121t124.5 -42q65 0 111.5 39.5 t46.5 111.5q0 41 -32.5 77t-75.5 59.5t-105 48.5q-52 -28 -86.5 -72.5t-34.5 -100.5zM227 389q0 -57 41 -92.5t121 -73.5q111 64 111 156q0 63 -37 103t-105 40q-54 0 -92.5 -36.5t-38.5 -96.5z" />
<glyph unicode="&#x2089;" horiz-adv-x="735" d="M88 340q0 121 73 196.5t195 75.5q140 0 213.5 -109.5t73.5 -285.5q0 -77 -10 -144t-36 -131t-66.5 -109.5t-105.5 -73t-149 -27.5q-83 0 -118 14l20 82q37 -6 86 -6q60 0 107 17.5t77.5 46.5t51 71t29.5 88t10 100q-36 -36 -89 -56.5t-100 -20.5q-119 0 -190.5 82.5 t-71.5 189.5zM195 354q0 -90 49 -140t129 -50q101 0 166 80q-3 122 -53.5 199t-131.5 77q-70 0 -114.5 -47t-44.5 -119z" />
<glyph unicode="&#x208a;" horiz-adv-x="790" d="M100 70v86h250v250h88v-250h250v-86h-250v-252h-88v252h-250z" />
<glyph unicode="&#x208b;" horiz-adv-x="790" d="M100 70v88h590v-88h-590z" />
<glyph unicode="&#x208c;" horiz-adv-x="790" d="M100 29h588v-88h-588v88zM100 195v86h588v-86h-588z" />
<glyph unicode="&#x208d;" horiz-adv-x="514" d="M88 158q0 163 81.5 332.5t231.5 295.5l37 -61q-117 -105 -181 -257.5t-64 -301.5q0 -148 63.5 -299.5t181.5 -261.5l-39 -54q-156 126 -233.5 284.5t-77.5 322.5z" />
<glyph unicode="&#x208e;" horiz-adv-x="514" d="M61 -395q118 111 182 262t64 299q0 149 -64.5 301.5t-181.5 257.5l37 61q151 -127 232.5 -296t81.5 -332t-78 -322t-234 -285z" />
<glyph unicode="&#x20ac;" horiz-adv-x="1212" d="M76 518v96h819v-96h-578q17 -91 51 -165.5t88 -134.5t135 -93t183 -33q172 0 313 123l35 -68q-7 -10 -20.5 -25.5t-48 -43.5t-76 -50.5t-106.5 -39.5t-136 -17q-103 0 -191 31t-149.5 83t-108.5 123.5t-74 148t-40 161.5h-96zM76 735v96h96q18 116 61.5 212.5t112 170.5 t169.5 115t226 41q205 0 355 -125l-27 -106q-96 59 -170.5 84.5t-179.5 25.5q-156 0 -267.5 -116.5t-142.5 -301.5h586v-96h-819z" />
<glyph unicode="&#x2113;" horiz-adv-x="915" d="M63 502v100h132q0 96 7.5 195t23.5 208.5t45.5 204.5t69.5 172t99.5 121.5t130.5 44.5q77 0 132 -54t78.5 -131.5t23.5 -168.5q0 -131 -27 -243.5t-73.5 -192.5t-107.5 -137t-129 -86t-138 -31q2 -85 15 -154.5t41 -131.5t80.5 -97t125.5 -35q70 0 131 30.5t90 69.5 l35 -59q-114 -156 -309 -156q-76 0 -135 32.5t-95.5 83.5t-61 123.5t-35.5 142t-15 149.5h-134zM330 602q95 3 173.5 77.5t123.5 202t45 279.5q0 44 -6 88t-19 87.5t-38.5 70.5t-59.5 27q-53 0 -97 -82t-69.5 -205.5t-39 -252.5t-13.5 -239v-53z" />
<glyph unicode="&#x2116;" horiz-adv-x="2156" d="M170 0v1341h188l695 -1110v1110h129v-1341h-131l-752 1204v-1204h-129zM1464 909q0 156 81.5 245t215.5 89q125 0 200 -94t75 -234q0 -156 -81 -244.5t-216 -88.5q-124 0 -199.5 94t-75.5 233zM1491 389v96h522v-96h-522zM1565 928q0 -110 49 -186t141 -76q83 0 131.5 67 t48.5 166q0 110 -48.5 185t-141.5 75q-83 0 -131.5 -66.5t-48.5 -164.5z" />
<glyph unicode="&#x2122;" horiz-adv-x="1576" d="M86 1292v78h528v-78h-219v-577h-90v577h-219zM743 715v655h144l200 -534l199 534h141v-655h-84v577l-223 -577h-69l-222 577v-577h-86z" />
<glyph unicode="&#x2126;" horiz-adv-x="1464" d="M125 0v119h311q-142 125 -215.5 288t-73.5 347q0 125 41 237t115 196t185 133.5t243 49.5q136 0 247 -50.5t183 -138.5t111 -205t39 -251q0 -165 -74 -322t-213 -284h317v-119h-483v119q147 98 230 264t83 350q0 102 -32.5 196t-90 165t-142 113t-183.5 42 q-100 0 -184 -44.5t-139 -120t-85 -172t-30 -201.5q0 -172 91 -337t232 -257v-117h-483z" />
<glyph unicode="&#x212e;" horiz-adv-x="1419" d="M88 618q0 117 50.5 225.5t135.5 188.5t203.5 128t249.5 48q132 0 246 -54t191 -143.5t121 -206.5t44 -243l-4 -41h-1036v-268q78 -101 203.5 -152t261.5 -51q107 0 224.5 58t182.5 143l60 -57q-89 -113 -223 -169.5t-285 -56.5q-181 0 -324.5 86.5t-222 235t-78.5 329.5z M289 616h837v306q0 8 -37.5 43.5t-52.5 46.5q-139 112 -348 112q-108 0 -221 -57t-178 -143v-308z" />
<glyph unicode="&#x2153;" horiz-adv-x="1533" d="M100 1194v59l293 70v-870h-100v741h-193zM258 0l725 1309h96l-725 -1309h-96zM907 788q91 84 223 84q99 0 170.5 -58t71.5 -152q0 -67 -43.5 -120t-111.5 -79q204 -30 204 -209q0 -120 -105.5 -191t-264.5 -71q-82 0 -142 12l21 84q63 -6 110 -6q120 0 197.5 46t77.5 130 q0 34 -12 59.5t-35 41t-48 25.5t-61 14.5t-64 6t-65 1.5v86q100 5 167 45t67 112q0 61 -45 96t-105 35q-86 0 -184 -75z" />
<glyph unicode="&#x2154;" horiz-adv-x="1759" d="M100 453v71q48 32 97 72.5t104 96t96.5 112t69 122t27.5 124.5q0 83 -47.5 132.5t-133.5 49.5q-85 0 -190 -78l-23 86q96 84 232 84q116 0 193 -73.5t77 -196.5q0 -131 -98 -270.5t-234 -241.5h365v-90h-535zM494 0l725 1309h96l-725 -1309h-96zM1133 788q91 84 223 84 q99 0 170 -58t71 -152q0 -67 -43.5 -120t-111.5 -79q205 -31 205 -209q0 -120 -106 -191t-265 -71q-81 0 -141 12l20 84q64 -6 111 -6q120 0 197 46t77 130q0 34 -12 59.5t-35 41t-48 25.5t-61 14.5t-64 6t-65 1.5v86q100 5 167 45t67 112q0 61 -45 96t-105 35 q-86 0 -184 -75z" />
<glyph unicode="&#x215b;" horiz-adv-x="1529" d="M100 1194v59l293 70v-870h-100v741h-193zM268 0l725 1309h97l-725 -1309h-97zM879 229q0 72 43 128.5t108 93.5q-127 78 -127 200q0 102 72 161.5t172 59.5q102 0 173 -61.5t71 -161.5q0 -124 -136 -203q82 -43 127 -92t45 -127q0 -114 -81 -179.5t-193 -65.5 q-71 0 -132 26t-101.5 83.5t-40.5 137.5zM987 238q0 -79 51.5 -121.5t124.5 -42.5q65 0 111.5 39.5t46.5 111.5q0 41 -32.5 77t-75.5 59.5t-105 48.5q-52 -28 -86.5 -72t-34.5 -100zM1012 649q0 -57 41 -92.5t121 -73.5q110 63 110 156q0 63 -36.5 103t-104.5 40 q-54 0 -92.5 -36.5t-38.5 -96.5z" />
<glyph unicode="&#x215c;" horiz-adv-x="1648" d="M119 1241q91 84 223 84q99 0 170.5 -58.5t71.5 -152.5q0 -67 -43.5 -120t-112.5 -79q205 -31 205 -208q0 -120 -106 -191.5t-265 -71.5q-76 0 -141 13l20 84q64 -6 111 -6q120 0 197 46t77 130q0 34 -11.5 59.5t-35 40.5t-48 25.5t-61 14.5t-63.5 5.5t-65 1.5v86 q100 5 166.5 45.5t66.5 112.5q0 61 -44.5 96t-104.5 35q-85 0 -185 -76zM408 0l725 1309h96l-725 -1309h-96zM997 229q0 72 43.5 128.5t108.5 93.5q-127 78 -127 200q0 102 72 161.5t172 59.5q102 0 172.5 -61.5t70.5 -161.5q0 -125 -135 -203q82 -43 127 -92t45 -127 q0 -114 -81 -179.5t-193 -65.5q-71 0 -132 26t-102 83.5t-41 137.5zM1106 238q0 -79 51.5 -121.5t124.5 -42.5q65 0 111.5 39.5t46.5 111.5q0 41 -32.5 77t-75.5 59.5t-105 48.5q-52 -28 -86.5 -72t-34.5 -100zM1130 649q0 -57 41 -92.5t121 -73.5q111 64 111 156 q0 63 -36.5 103t-104.5 40q-55 0 -93.5 -36.5t-38.5 -96.5z" />
<glyph unicode="&#x215d;" horiz-adv-x="1658" d="M129 455l21 84q67 -9 110 -9q120 0 195 47.5t75 133.5q0 84 -51 126t-129 42q-81 0 -155 -48l-48 27v445h437v-93h-340v-272q63 29 137 29q118 0 187 -68t69 -174q0 -126 -99.5 -205.5t-267.5 -79.5q-66 0 -141 15zM416 0l725 1309h96l-725 -1309h-96zM1006 229 q0 72 43 128.5t108 93.5q-127 78 -127 200q0 102 72 161.5t172 59.5q102 0 173 -61.5t71 -161.5q0 -124 -136 -203q82 -43 127 -92t45 -127q0 -114 -81 -179.5t-193 -65.5q-71 0 -132 26t-101.5 83.5t-40.5 137.5zM1114 238q0 -79 51.5 -121.5t124.5 -42.5q65 0 111.5 39.5 t46.5 111.5q0 41 -32.5 77t-75.5 59.5t-105 48.5q-52 -28 -86.5 -72t-34.5 -100zM1139 649q0 -57 40.5 -92.5t120.5 -73.5q111 64 111 156q0 63 -36.5 103t-104.5 40q-54 0 -92.5 -36.5t-38.5 -96.5z" />
<glyph unicode="&#x215e;" horiz-adv-x="1476" d="M100 1210v93h516v-89l-282 -763h-111l289 759h-412zM236 0l725 1309h96l-725 -1309h-96zM825 229q0 72 43.5 128.5t108.5 93.5q-127 78 -127 200q0 102 72 161.5t172 59.5q102 0 172.5 -61.5t70.5 -161.5q0 -125 -135 -203q82 -43 127 -92t45 -127q0 -114 -81 -179.5 t-193 -65.5q-71 0 -132 26t-102 83.5t-41 137.5zM934 238q0 -79 51.5 -121.5t124.5 -42.5q65 0 111.5 39.5t46.5 111.5q0 41 -32.5 77t-75.5 59.5t-105 48.5q-52 -28 -86.5 -72t-34.5 -100zM958 649q0 -57 41 -92.5t121 -73.5q111 64 111 156q0 63 -36.5 103t-104.5 40 q-55 0 -93.5 -36.5t-38.5 -96.5z" />
<glyph unicode="&#x2190;" horiz-adv-x="1331" d="M121 543l403 403l39 -39l-198 -309h845v-111h-848l201 -311l-39 -39z" />
<glyph unicode="&#x2191;" horiz-adv-x="1331" d="M260 684l406 406l403 -406l-39 -37l-309 199v-846h-111v848l-311 -201z" />
<glyph unicode="&#x2192;" horiz-adv-x="1331" d="M121 487v111h846l-199 309l39 39l403 -403l-403 -406l-39 39l201 311h-848z" />
<glyph unicode="&#x2193;" horiz-adv-x="1331" d="M262 406l39 36l311 -200v848h111v-846l309 198l39 -36l-403 -406z" />
<glyph unicode="&#x2196;" horiz-adv-x="1331" d="M285 330v571h569v-55l-358 -78l598 -600l-78 -76l-600 598l-78 -360h-53z" />
<glyph unicode="&#x2197;" horiz-adv-x="1331" d="M238 168l598 600l-359 78v55h570v-571h-54l-78 360l-600 -598z" />
<glyph unicode="&#x2198;" horiz-adv-x="1331" d="M238 815l77 76l600 -598l78 360h54v-571h-570v55l359 78z" />
<glyph unicode="&#x2199;" horiz-adv-x="1331" d="M285 82v571h53l78 -360l600 598l78 -76l-598 -600l358 -78v-55h-569z" />
<glyph unicode="&#x2202;" horiz-adv-x="1044" d="M86 475q0 250 118.5 380t315.5 130q84 0 167.5 -32t121.5 -87q-10 114 -40.5 212.5t-82 176.5t-129.5 123t-174 45q-53 0 -116.5 -12.5t-106.5 -34.5l-25 94q56 35 129.5 50.5t136.5 15.5q94 0 172.5 -31.5t135 -85t100.5 -128.5t71 -156.5t44.5 -175.5t24.5 -179.5 t7 -173.5q0 -299 -111.5 -467t-332.5 -168q-80 0 -149.5 28.5t-119.5 77.5t-86 113.5t-53.5 137t-17.5 147.5zM217 498q0 -73 19.5 -144.5t56.5 -132.5t99 -99t138 -38q65 0 116 28t84.5 75.5t55 116t30.5 144t9 164.5q0 2 -6 107q-36 71 -115 112t-174 41q-82 0 -144 -31 t-98 -85t-53.5 -119t-17.5 -139z" />
<glyph unicode="&#x2206;" horiz-adv-x="1284" d="M66 0l509 1341h136l506 -1341h-1151zM256 119h766l-383 1055z" />
<glyph unicode="&#x220f;" horiz-adv-x="1431" d="M84 1212v119h1264v-119h-170v-1380h-136v1380h-655v-1380h-135v1380h-168z" />
<glyph unicode="&#x2211;" horiz-adv-x="1058" d="M86 -47l449 639l-449 618v121h883v-119h-727l448 -620l-448 -641h733v-119h-889v121z" />
<glyph unicode="&#x2212;" horiz-adv-x="1064" d="M84 487v111h897v-111h-897z" />
<glyph unicode="&#x221a;" horiz-adv-x="1173" d="M59 831v117h250l324 -753l497 1607h136l-572 -1802h-110l-375 831h-150z" />
<glyph unicode="&#x221e;" horiz-adv-x="1824" d="M84 569q0 153 107.5 262t259.5 109q27 0 55 -5.5t51.5 -12.5t51.5 -22t47.5 -26t48 -33.5t44 -35t45 -40t41 -38.5t41 -40.5l37.5 -37.5q40 41 55 56.5t56 54.5t64.5 57t64 46.5t72 41.5t71.5 24t78 11q152 0 259.5 -109t107.5 -262t-106.5 -260.5t-258.5 -107.5 q-29 0 -57.5 5.5t-52.5 12t-52.5 22t-48 26t-48 33t-43 34.5t-43.5 40t-40 38.5t-40.5 41t-37.5 38.5q-119 -119 -160 -154q-161 -136 -302 -137q-152 0 -259.5 108.5t-107.5 259.5zM211 569q0 -100 73.5 -173.5t174.5 -73.5q50 0 104 23.5t107.5 67.5t87.5 76.5t78 79.5 q-108 112 -163 157q-118 93 -214 93q-102 0 -175 -74t-73 -176zM987 569q43 -46 78 -79.5t88.5 -76.5t109 -67t105.5 -24q100 0 173 73.5t73 173.5q0 101 -73 175.5t-173 74.5q-66 0 -143.5 -45.5t-116 -81.5t-107.5 -109q-4 -3 -5.5 -5t-4 -4.5z" />
<glyph unicode="&#x222b;" horiz-adv-x="841" d="M-133 -299l27 94q128 -51 227 -51q118 0 166.5 76.5t48.5 234.5v1080q0 194 87 298.5t257 104.5q59 0 129.5 -19.5t124.5 -52.5l-27 -94q-127 53 -227 53q-117 0 -166 -77t-49 -234v-1081q0 -193 -87.5 -298.5t-256.5 -105.5q-59 0 -129.5 19.5t-124.5 52.5z" />
<glyph unicode="&#x2248;" horiz-adv-x="1095" d="M84 274q69 109 109 164q12 19 37.5 36.5t64.5 17.5q61 0 258.5 -58.5t245.5 -58.5q28 0 62 29t102 102l49 -29q-78 -119 -111 -166q-12 -18 -37.5 -35.5t-64.5 -17.5q-63 0 -260.5 58.5t-241.5 58.5q-16 0 -32.5 -7.5t-40 -29t-40 -38t-53.5 -56.5zM84 608 q69 109 109 164q12 18 37.5 35.5t64.5 17.5q61 0 258.5 -58t245.5 -58q28 0 62 29t102 102l49 -29q-78 -119 -111 -166q-12 -18 -37.5 -35.5t-64.5 -17.5q-63 0 -260.5 58.5t-241.5 58.5q-16 0 -32.5 -7.5t-40 -29t-40 -38t-53.5 -56.5z" />
<glyph unicode="&#x2260;" horiz-adv-x="1064" d="M84 305v111h319l172 254h-491v110h565l156 230h110l-155 -230h221v-110h-295l-172 -254h467v-111h-541l-168 -250h-110l168 250h-246z" />
<glyph unicode="&#x2264;" horiz-adv-x="1064" d="M84 14v111h897v-111h-897zM84 637v104l897 402v-127l-748 -326l748 -328v-126z" />
<glyph unicode="&#x2265;" horiz-adv-x="1071" d="M76 238v127l747 327l-747 326v127l897 -402v-104zM84 14v111h897v-111h-897z" />
<glyph unicode="&#x2460;" horiz-adv-x="1570" d="M86 670q0 143 55 272.5t148.5 223t222.5 149t272 55.5q190 0 351.5 -93.5t255.5 -255t94 -351.5t-94 -351t-255.5 -254.5t-351.5 -93.5t-351 93.5t-254 254.5t-93 351zM182 670q0 -164 80.5 -302.5t219 -219t302.5 -80.5q123 0 235 47.5t193 128t129 192t48 234.5 t-48 235t-129 192.5t-193 128.5t-235 48q-164 0 -303 -81t-219 -220t-80 -303zM584 948v58l262 61v-784h-92v665h-170z" />
<glyph unicode="&#x2461;" horiz-adv-x="1570" d="M86 670q0 143 55 272.5t148.5 223t222.5 149t272 55.5q190 0 351.5 -93.5t255.5 -255t94 -351.5t-94 -351t-255.5 -254.5t-351.5 -93.5t-351 93.5t-254 254.5t-93 351zM182 670q0 -164 80.5 -302.5t219 -219t302.5 -80.5q123 0 235 47.5t193 128t129 192t48 234.5 t-48 235t-129 192.5t-193 128.5t-235 48q-164 0 -303 -81t-219 -220t-80 -303zM551 1001q88 76 211 76q103 0 172.5 -65t69.5 -176q0 -118 -87.5 -242.5t-209.5 -216.5h325v-84h-479v65q55 38 111 87.5t113 112.5t92.5 135t35.5 136q0 74 -43 119t-119 45q-78 0 -172 -67z " />
<glyph unicode="&#x2462;" horiz-adv-x="1570" d="M86 670q0 143 55 272.5t148.5 223t222.5 149t272 55.5q190 0 351.5 -93.5t255.5 -255t94 -351.5t-94 -351t-255.5 -254.5t-351.5 -93.5t-351 93.5t-254 254.5t-93 351zM182 670q0 -164 80.5 -302.5t219 -219t302.5 -80.5q123 0 235 47.5t193 128t129 192t48 234.5 t-48 235t-129 192.5t-193 128.5t-235 48q-164 0 -303 -81t-219 -220t-80 -303zM571 993q84 76 201 76q89 0 152 -51.5t63 -136.5q0 -61 -38 -109t-99 -72q75 -9 127.5 -53t52.5 -129q0 -110 -93.5 -172.5t-234.5 -62.5q-45 0 -129 12l21 74q45 -4 96 -4q108 0 177 41t69 116 q0 29 -10 51t-30.5 35.5t-42.5 22t-54.5 12.5t-57 5t-59.5 1v78q90 7 148.5 42.5t58.5 100.5q0 54 -39 84.5t-94 30.5q-79 0 -162 -67z" />
<glyph unicode="&#x2463;" horiz-adv-x="1570" d="M86 670q0 143 55 272.5t148.5 223t222.5 149t272 55.5q190 0 351.5 -93.5t255.5 -255t94 -351.5t-94 -351t-255.5 -254.5t-351.5 -93.5t-351 93.5t-254 254.5t-93 351zM182 670q0 -164 80.5 -302.5t219 -219t302.5 -80.5q123 0 235 47.5t193 128t129 192t48 234.5 t-48 235t-129 192.5t-193 128.5t-235 48q-164 0 -303 -81t-219 -220t-80 -303zM469 475v64l326 510h86v-494h110v-80h-110v-192h-95v192h-317zM571 555h215v356z" />
<glyph unicode="&#x2464;" horiz-adv-x="1570" d="M86 670q0 143 55 272.5t148.5 223t222.5 149t272 55.5q190 0 351.5 -93.5t255.5 -255t94 -351.5t-94 -351t-255.5 -254.5t-351.5 -93.5t-351 93.5t-254 254.5t-93 351zM182 670q0 -164 80.5 -302.5t219 -219t302.5 -80.5q123 0 235 47.5t193 128t129 192t48 234.5 t-48 235t-129 192.5t-193 128.5t-235 48q-164 0 -303 -81t-219 -220t-80 -303zM569 289l19 76q57 -9 96 -9q109 0 176.5 43t67.5 119q0 74 -44.5 110t-115.5 36q-79 0 -141 -41l-43 26v400h393v-86h-305v-240q62 25 125 25q104 0 165.5 -61t61.5 -157q0 -114 -89 -185 t-239 -71q-52 0 -127 15z" />
<glyph unicode="&#x2465;" horiz-adv-x="1570" d="M86 670q0 143 55 272.5t148.5 223t222.5 149t272 55.5q190 0 351.5 -93.5t255.5 -255t94 -351.5t-94 -351t-255.5 -254.5t-351.5 -93.5t-351 93.5t-254 254.5t-93 351zM182 670q0 -164 80.5 -302.5t219 -219t302.5 -80.5q123 0 235 47.5t193 128t129 192t48 234.5 t-48 235t-129 192.5t-193 128.5t-235 48q-164 0 -303 -81t-219 -220t-80 -303zM510 616q0 123 36.5 221.5t115 160t188.5 61.5q68 0 111 -17l-21 -73q-41 10 -78 10q-61 0 -110.5 -26t-79.5 -69.5t-47 -96t-19 -109.5q36 39 82 57.5t88 18.5q107 0 169.5 -67.5t62.5 -166.5 q0 -108 -65 -180t-179 -72q-113 0 -183.5 93.5t-70.5 254.5zM610 588q3 -99 46 -167.5t120 -68.5q63 0 99 45.5t36 108.5q0 69 -39 115.5t-108 46.5q-91 0 -154 -80z" />
<glyph unicode="&#x2466;" horiz-adv-x="1570" d="M86 670q0 143 55 272.5t148.5 223t222.5 149t272 55.5q190 0 351.5 -93.5t255.5 -255t94 -351.5t-94 -351t-255.5 -254.5t-351.5 -93.5t-351 93.5t-254 254.5t-93 351zM182 670q0 -164 80.5 -302.5t219 -219t302.5 -80.5q123 0 235 47.5t193 128t129 192t48 234.5 t-48 235t-129 192.5t-193 128.5t-235 48q-164 0 -303 -81t-219 -220t-80 -303zM559 961v86h465v-80l-254 -686h-102l260 680h-369z" />
<glyph unicode="&#x2467;" horiz-adv-x="1570" d="M86 670q0 143 55 272.5t148.5 223t222.5 149t272 55.5q190 0 351.5 -93.5t255.5 -255t94 -351.5t-94 -351t-255.5 -254.5t-351.5 -93.5t-351 93.5t-254 254.5t-93 351zM182 670q0 -164 80.5 -302.5t219 -219t302.5 -80.5q123 0 235 47.5t193 128t129 192t48 234.5 t-48 235t-129 192.5t-193 128.5t-235 48q-164 0 -303 -81t-219 -220t-80 -303zM537 494q0 121 135 198q-113 70 -113 178q0 93 64 146t155 53t155 -55t64 -144q0 -113 -120 -182q72 -39 112.5 -83.5t40.5 -112.5q0 -102 -73.5 -162t-174.5 -60q-100 0 -172.5 58.5 t-72.5 165.5zM635 500q0 -70 46 -108t112 -38q59 0 100 35.5t41 102.5q0 52 -50 88t-141 73q-46 -24 -77 -63.5t-31 -89.5zM655 870q0 -27 11.5 -49t35.5 -40.5t44.5 -30t56.5 -27.5q96 59 96 137q0 56 -32.5 92.5t-92.5 36.5q-48 0 -83.5 -33t-35.5 -86z" />
<glyph unicode="&#x2468;" horiz-adv-x="1570" d="M86 670q0 143 55 272.5t148.5 223t222.5 149t272 55.5q190 0 351.5 -93.5t255.5 -255t94 -351.5t-94 -351t-255.5 -254.5t-351.5 -93.5t-351 93.5t-254 254.5t-93 351zM182 670q0 -164 80.5 -302.5t219 -219t302.5 -80.5q123 0 235 47.5t193 128t129 192t48 234.5 t-48 235t-129 192.5t-193 128.5t-235 48q-164 0 -303 -81t-219 -220t-80 -303zM543 825q0 109 66 176.5t177 67.5q124 0 190 -97.5t66 -254.5q0 -69 -9 -129t-32 -118t-59.5 -98.5t-95 -65.5t-133.5 -25q-47 0 -107 12l19 76q32 -9 75 -9q237 0 248 289q-34 -32 -81 -50.5 t-87 -18.5q-109 0 -173 74t-64 171zM641 840q0 -80 44 -126t114 -46q93 0 149 71q-3 109 -48 178.5t-116 69.5q-63 0 -103 -42t-40 -105z" />
<glyph unicode="&#x25a0;" horiz-adv-x="1751" d="M205 0v1341h1341v-1341h-1341z" />
<glyph unicode="&#x25aa;" horiz-adv-x="1363" d="M207 0v950h950v-950h-950z" />
<glyph unicode="&#x25ab;" horiz-adv-x="1363" d="M207 0v950h950v-950h-950zM309 104h744v744h-744v-744z" />
<glyph unicode="&#x25b2;" horiz-adv-x="1501" d="M205 0l545 987l546 -987h-1091z" />
<glyph unicode="&#x25b6;" horiz-adv-x="1355" d="M205 -33v1092l987 -545z" />
<glyph unicode="&#x25bc;" horiz-adv-x="1501" d="M205 954h1091l-546 -987z" />
<glyph unicode="&#x25c0;" horiz-adv-x="1355" d="M164 514l987 545v-1092z" />
<glyph unicode="&#x25c6;" horiz-adv-x="1132" d="M205 514l360 363l363 -363l-363 -360z" />
<glyph unicode="&#x25ca;" horiz-adv-x="1091" d="M70 578l426 753h98l428 -753l-428 -754h-98zM207 578l338 -598l338 598l-338 598z" />
<glyph unicode="&#x25cb;" horiz-adv-x="1388" d="M186 477q0 137 68.5 253.5t185.5 184.5t254 68q209 0 357.5 -148.5t148.5 -357.5q0 -137 -68 -254t-184.5 -185.5t-253.5 -68.5t-254 68.5t-185.5 185.5t-68.5 254zM287 477q0 -169 119 -288t288 -119q110 0 203.5 54.5t148 148t54.5 204.5q0 167 -119.5 286.5 t-286.5 119.5q-168 0 -287.5 -119.5t-119.5 -286.5z" />
<glyph unicode="&#x25cf;" horiz-adv-x="1388" d="M186 477q0 137 68.5 253.5t185.5 184.5t254 68q209 0 357.5 -148.5t148.5 -357.5q0 -137 -68 -254t-184.5 -185.5t-253.5 -68.5t-254 68.5t-185.5 185.5t-68.5 254z" />
<glyph unicode="&#x25fc;" horiz-adv-x="952" d="M0 0v952h952v-952h-952z" />
<glyph unicode="&#x2612;" horiz-adv-x="1363" d="M205 0v950h952v-950h-952zM309 174l301 301l-301 301v-602zM379 102h604l-301 301zM383 846l299 -299l299 299h-598zM752 475l301 -299v600z" />
<glyph unicode="&#x2660;" horiz-adv-x="1474" d="M205 420q0 51 17 93t48 76.5t70 66.5t89 70.5t99 81t105.5 106t103.5 137.5q54 -85 121 -157.5t122.5 -115.5t111 -87.5t93.5 -79.5t61.5 -83.5t23.5 -107.5q0 -110 -78 -188t-188 -78q-84 0 -149.5 38t-96.5 105q0 -47 11.5 -87.5t37.5 -78t76.5 -59t120.5 -21.5v-51 h-533v51q70 0 120.5 21.5t76 59t36.5 78t11 87.5q-31 -67 -96.5 -105t-147.5 -38q-110 0 -188 78t-78 188z" />
<glyph unicode="&#x2663;" horiz-adv-x="1474" d="M205 420q0 110 78 188t188 78q3 0 9 -1t9 -1q-18 46 -18 102q0 110 78 188.5t188 78.5t188.5 -78.5t78.5 -188.5q0 -44 -21 -102l21 2q110 0 188 -78t78 -188t-78 -188t-188 -78q-84 0 -149.5 38t-96.5 105q0 -47 11.5 -87.5t37.5 -78t76.5 -59t120.5 -21.5v-51h-533v51 q70 0 120.5 21.5t76 59t36.5 78t11 87.5q-31 -67 -96.5 -105t-147.5 -38q-110 0 -188 78t-78 188z" />
<glyph unicode="&#x2665;" horiz-adv-x="1474" d="M205 756q0 110 78 188t188 78t188 -78t78 -188q0 110 78.5 188t188.5 78t188 -78t78 -188q0 -93 -62 -172l-471 -604l-467 595q-65 75 -65 181z" />
<glyph unicode="&#x2666;" horiz-adv-x="1132" d="M205 514l360 557l363 -557l-363 -567z" />
<glyph unicode="&#x2713;" horiz-adv-x="1665" d="M205 870l135 70l365 -727l616 1589l139 -49l-686 -1753h-131z" />
<glyph unicode="&#x2716;" horiz-adv-x="1341" d="M205 805l186 188l281 -280l272 270l180 -182l-270 -271l283 -282l-189 -187l-280 283l-273 -272l-182 180l272 272z" />
<glyph unicode="&#x271a;" horiz-adv-x="1441" d="M205 399v256h385v398h264v-398h383v-256h-383v-399h-264v399h-385z" />
<glyph unicode="&#x274d;" horiz-adv-x="1570" d="M86 670q0 143 55 272.5t148.5 223t222.5 149t272 55.5q190 0 351.5 -93.5t255.5 -255t94 -351.5t-94 -351t-255.5 -254.5t-351.5 -93.5t-351 93.5t-254 254.5t-93 351zM182 670q0 -164 80.5 -302.5t219 -219t302.5 -80.5q123 0 235 47.5t193 128t129 192t48 234.5 t-48 235t-129 192.5t-193 128.5t-235 48q-164 0 -303 -81t-219 -220t-80 -303z" />
<glyph unicode="&#x274f;" horiz-adv-x="1751" d="M205 0v1341h1341v-1341h-1341zM313 109h1123v1122h-1123v-1122z" />
<glyph unicode="&#x2761;" horiz-adv-x="1316" d="M113 653q0 140 54.5 267t146 219.5t218.5 147t267 54.5v-1374q-186 0 -344 92t-250 250t-92 344zM717 -463l35 60q64 -25 110 -25q150 0 150 215v1554h135v-1585q0 -73 -21 -129t-57.5 -88t-79.5 -47.5t-92 -15.5q-107 0 -180 61z" />
<glyph unicode="&#x2764;" horiz-adv-x="1933" d="M205 985q0 162 109.5 275.5t271.5 113.5q142 0 249.5 -93t127.5 -232h8q20 139 126.5 232t250.5 93q158 0 269.5 -111.5t111.5 -269.5q0 -136 -89 -243l-673 -783l-664 768q-98 113 -98 250z" />
<glyph unicode="&#x2776;" horiz-adv-x="1570" d="M86 670q0 143 55 272.5t148.5 223t222.5 149t272 55.5q190 0 351.5 -93.5t255.5 -255t94 -351.5t-94 -351t-255.5 -254.5t-351.5 -93.5t-351 93.5t-254 254.5t-93 351zM582 948h170v-665h94v784l-264 -61v-58z" />
<glyph unicode="&#x2777;" horiz-adv-x="1570" d="M84 670q0 142 55.5 271.5t149 223.5t223.5 149.5t272 55.5q189 0 350.5 -94t256 -255.5t94.5 -350.5q0 -190 -94.5 -351t-255.5 -254.5t-351 -93.5t-351.5 93.5t-255 254.5t-93.5 351zM551 1001l20 -77q89 67 172 67q76 0 118 -44t42 -118q0 -64 -35.5 -135.5t-92 -134.5 t-112.5 -112.5t-110 -86.5v-67h479v86h-325q121 88 209 213.5t88 243.5q0 111 -69.5 176t-172.5 65q-123 0 -211 -76z" />
<glyph unicode="&#x2778;" horiz-adv-x="1570" d="M84 670q0 142 55.5 271.5t149 223.5t223.5 149.5t272 55.5q189 0 350.5 -94t256 -255.5t94.5 -350.5q0 -190 -94.5 -351t-255.5 -254.5t-351 -93.5t-351.5 93.5t-255 254.5t-93.5 351zM571 993l23 -78q81 68 162 68q56 0 94.5 -29.5t38.5 -85.5q0 -64 -59.5 -100 t-147.5 -41v-80q35 0 59.5 -1t57 -5t54.5 -12.5t42.5 -22t30.5 -35.5t10 -51q0 -74 -69.5 -116t-176.5 -42q-23 0 -47.5 2t-37.5 4l-13 1l-19 -76q1 0 47 -6t82 -6q142 0 236 62.5t94 172.5q0 84 -52 128.5t-126 55.5q60 24 97.5 72t37.5 109q0 85 -64 136.5t-153 51.5 q-117 0 -201 -76z" />
<glyph unicode="&#x2779;" horiz-adv-x="1570" d="M86 670q0 143 55 272.5t148.5 223t222.5 149t272 55.5q190 0 351.5 -93.5t255.5 -255t94 -351.5t-94 -351t-255.5 -254.5t-351.5 -93.5t-351 93.5t-254 254.5t-93 351zM469 475h315v-192h97v192h110v82h-110v492h-86l-326 -508v-66zM571 557l213 352v-352h-213z" />
<glyph unicode="&#x277a;" horiz-adv-x="1570" d="M84 670q0 142 55.5 271.5t149 223.5t223.5 149.5t272 55.5q189 0 350.5 -94t256 -255.5t94.5 -350.5q0 -190 -94.5 -351t-255.5 -254.5t-351 -93.5t-351.5 93.5t-255 254.5t-93.5 351zM567 289q90 -15 129 -15q150 0 239 71t89 185q0 95 -62.5 156.5t-166.5 61.5 q-64 0 -123 -25v238h305v88h-393v-402l43 -24q62 41 139 41q72 0 117 -36t45 -110q0 -76 -68 -118t-176 -42q-18 0 -42 2t-39 4l-15 3z" />
<glyph unicode="&#x277b;" horiz-adv-x="1570" d="M84 670q0 142 55.5 271.5t149 223.5t223.5 149.5t272 55.5q189 0 350.5 -94t256 -255.5t94.5 -350.5q0 -190 -94.5 -351t-255.5 -254.5t-351 -93.5t-351.5 93.5t-255 254.5t-93.5 351zM510 616q0 -162 70 -256t184 -94t179 73t65 181q0 99 -62.5 166.5t-169.5 67.5 q-101 0 -170 -74q7 121 72 209t182 88q17 0 37 -2.5t31 -4.5l12 -3l21 75q-51 17 -111 17q-110 0 -188.5 -61.5t-115 -160t-36.5 -221.5zM610 588q29 35 70 56.5t84 21.5q68 0 106.5 -46t38.5 -114q0 -63 -35.5 -108.5t-99.5 -45.5q-75 0 -118 69t-46 167z" />
<glyph unicode="&#x277c;" horiz-adv-x="1570" d="M86 670q0 143 55 272.5t148.5 223t222.5 149t272 55.5q190 0 351.5 -93.5t255.5 -255t94 -351.5t-94 -351t-255.5 -254.5t-351.5 -93.5t-351 93.5t-254 254.5t-93 351zM557 961h369l-260 -680h104l254 686v80h-467v-86z" />
<glyph unicode="&#x277d;" horiz-adv-x="1570" d="M86 670q0 143 55 272.5t148.5 223t222.5 149t272 55.5q190 0 351.5 -93.5t255.5 -255t94 -351.5t-94 -351t-255.5 -254.5t-351.5 -93.5t-351 93.5t-254 254.5t-93 351zM537 494q0 -108 71.5 -166t173.5 -58t175 59.5t73 162.5q0 68 -40.5 112.5t-112.5 83.5 q120 69 120 182q0 89 -64 144t-155 55t-155 -53t-64 -146q0 -107 111 -178q-58 -33 -95.5 -83.5t-37.5 -114.5zM635 500q0 92 108 153q36 -15 57.5 -25t50 -26.5t43.5 -31t26.5 -35t11.5 -43.5q0 -66 -41 -102t-100 -36q-65 0 -110.5 38t-45.5 108zM657 868q0 53 34.5 86 t82.5 33q59 0 91 -36t32 -91q0 -78 -96 -137q-70 33 -107 64.5t-37 80.5z" />
<glyph unicode="&#x277e;" horiz-adv-x="1570" d="M84 670q0 142 55.5 271.5t149 223.5t223.5 149.5t272 55.5q189 0 350.5 -94t256 -255.5t94.5 -350.5q0 -190 -94.5 -351t-255.5 -254.5t-351 -93.5t-351.5 93.5t-255 254.5t-93.5 351zM543 825q0 -97 63.5 -171t171.5 -74q43 0 89.5 18t78.5 51q-11 -287 -246 -287 q-19 0 -38.5 2t-29.5 4l-9 1l-19 -78q60 -12 107 -12q76 0 135 25t95 66t59.5 99t32.5 118t9 130q0 158 -66 255t-192 97q-111 0 -176 -67.5t-65 -176.5zM643 838q0 65 39 107t100 42q71 0 116 -69.5t48 -178.5q-26 -29 -65 -49t-82 -20q-70 0 -113 45t-43 123z" />
<glyph unicode="&#xf8ff;" horiz-adv-x="1343" d="M119 520q0 150 74.5 277.5t202 201.5t276.5 74q112 0 214.5 -44t176.5 -118t118 -176.5t44 -214.5t-44 -214.5t-118 -176.5t-176.5 -118t-214.5 -44q-149 0 -276.5 74t-202 201.5t-74.5 277.5zM213 520q0 -190 135 -324.5t324 -134.5q191 0 327 134.5t136 324.5 t-136.5 326.5t-326.5 136.5q-124 0 -230 -62.5t-167.5 -169t-61.5 -231.5zM397 518q0 151 82 236.5t221 85.5q59 0 113.5 -20.5t85.5 -49.5l-22 -72q-1 1 -13 7t-15.5 8t-15.5 7.5t-18.5 7.5t-19 6.5t-22 6.5t-22.5 4.5t-26 3.5t-27 1q-94 0 -144 -61t-50 -154 q0 -113 52.5 -177.5t164.5 -64.5q39 0 84 13.5t69 33.5l25 -47q-76 -90 -207 -90q-75 0 -133 26.5t-92.5 72t-52 100.5t-17.5 116zM514 1368l37 25l117 -103l116 103l37 -25l-131 -201h-45z" />
<glyph unicode="&#xfb06;" horiz-adv-x="1583" d="M104 100l41 72q51 -47 126 -70.5t143 -23.5q107 0 171 45t64 117q0 41 -29 75t-75 59t-101.5 49t-111 51t-101.5 59t-75 79t-29 105q0 119 90 190.5t227 71.5q41 0 93 -10q-154 150 -154 297q0 133 93 198.5t255 65.5q197 0 430 -21v-561h336v-110h-338v-553 q0 -209 172 -209q74 0 133 30l33 -59q-35 -32 -91.5 -51t-115.5 -19q-258 0 -258 277v584h-141v71l143 31v487q-249 17 -293 17q-256 0 -256 -197q0 -92 63.5 -179.5t188.5 -188.5l-24 -95q-131 88 -262 88q-95 0 -147 -39t-52 -106q0 -40 29 -73t75 -57.5t102 -47.5 t112 -50t102 -59t75 -80.5t29 -107.5q0 -124 -91 -203.5t-249 -79.5q-90 0 -181.5 34t-150.5 97z" />
<glyph horiz-adv-x="1193" d="M182 0v1341h135v-606h183l440 606h154l-471 -645l464 -626q178 -242 334 -242q79 0 140 33l34 -58q-32 -38 -89.5 -60t-125.5 -22q-107 0 -210.5 76.5t-219.5 233.5l-428 587h-205v-618h-135z" />
<glyph horiz-adv-x="1193" d="M182 0v1341h135v-606h183l440 606h154l-471 -645l464 -626q178 -242 334 -242q79 0 140 33l34 -58q-32 -38 -89.5 -60t-125.5 -22q-107 0 -210.5 76.5t-219.5 233.5l-428 587h-205v-618h-135zM487 -170h138l-74 -369h-64v369z" />
<glyph horiz-adv-x="1431" d="M113 672q0 110 22.5 210.5t72 190t121 155t176.5 104t232 38.5q117 0 215 -41t164.5 -109t113 -159t68 -189t21.5 -200q0 -156 -43.5 -290t-142.5 -240t-244 -146l96 -232q44 -104 108 -149t152 -45q54 0 117 35l33 -60q-34 -37 -86 -57t-107 -20q-132 0 -212 74.5 t-134 207.5l-88 223q-50 -4 -74 -4q-118 0 -216 41.5t-164.5 110.5t-112.5 160.5t-67 190t-21 200.5zM252 709q0 -103 16 -193t53 -169t92 -135.5t137 -89t185 -32.5q136 0 239.5 79.5t154.5 202t51 263.5q0 129 -27.5 237.5t-83.5 194t-151.5 134t-221.5 48.5 q-103 0 -188.5 -45.5t-140.5 -121.5t-85 -172.5t-30 -200.5z" />
<glyph horiz-adv-x="1226" d="M182 0v1341h416q92 0 171.5 -22t143.5 -66t101 -118.5t37 -171.5q0 -169 -93.5 -269.5t-242.5 -132.5l364 -491q179 -242 334 -242q83 0 139 33l35 -60q-32 -38 -89.5 -59t-125.5 -21q-111 0 -205.5 67.5t-199.5 211.5l-402 549h-248v-549h-135zM317 664h215 q379 0 379 276q0 64 -18 112.5t-50 80.5t-79.5 52.5t-102.5 29t-124 8.5h-220v-559z" />
<glyph horiz-adv-x="1228" d="M182 0v1341h416q92 0 171.5 -22t143.5 -66t101 -118.5t37 -171.5q0 -169 -93.5 -269.5t-242.5 -132.5l364 -491q179 -242 334 -242q83 0 139 33l35 -60q-32 -38 -89.5 -59t-125.5 -21q-111 0 -205.5 67.5t-199.5 211.5l-402 549h-248v-549h-135zM317 664h215 q379 0 379 276q0 64 -18 112.5t-50 80.5t-79.5 52.5t-102.5 29t-124 8.5h-220v-559zM438 1483l316 280l88 -98l-363 -229z" />
<glyph horiz-adv-x="1228" d="M182 0v1341h416q92 0 171.5 -22t143.5 -66t101 -118.5t37 -171.5q0 -169 -93.5 -269.5t-242.5 -132.5l364 -491q179 -242 334 -242q83 0 139 33l35 -60q-32 -38 -89.5 -59t-125.5 -21q-111 0 -205.5 67.5t-199.5 211.5l-402 549h-248v-549h-135zM272 1716l43 47l275 -211 l272 211l43 -47l-289 -280h-55zM317 664h215q379 0 379 276q0 64 -18 112.5t-50 80.5t-79.5 52.5t-102.5 29t-124 8.5h-220v-559z" />
<glyph horiz-adv-x="1228" d="M182 0v1341h416q92 0 171.5 -22t143.5 -66t101 -118.5t37 -171.5q0 -169 -93.5 -269.5t-242.5 -132.5l364 -491q179 -242 334 -242q83 0 139 33l35 -60q-32 -38 -89.5 -59t-125.5 -21q-111 0 -205.5 67.5t-199.5 211.5l-402 549h-248v-549h-135zM317 664h215 q379 0 379 276q0 64 -18 112.5t-50 80.5t-79.5 52.5t-102.5 29t-124 8.5h-220v-559zM487 -170h138l-74 -369h-64v369z" />
<glyph horiz-adv-x="1105" d="M104 465q0 228 120 371t296 143q86 0 170 -39.5t139 -103.5l39 112h72v-1083q0 -180 -109.5 -290t-298.5 -110q-94 0 -184.5 31.5t-152.5 91.5l41 72q131 -88 276 -88q151 0 226 84.5t75 224.5v195q-45 -51 -120.5 -78t-164.5 -27q-126 0 -224 67.5t-149 179t-51 247.5z M236 494q0 -82 20 -155t59 -131t103 -92t145 -34t149 35.5t101 91.5v518q-39 58 -110 98.5t-156 40.5q-138 0 -224.5 -105.5t-86.5 -266.5z" />
<glyph horiz-adv-x="1105" d="M104 465q0 228 120 371t296 143q86 0 170 -39.5t139 -103.5l39 112h72v-1083q0 -180 -109.5 -290t-298.5 -110q-94 0 -184.5 31.5t-152.5 91.5l41 72q131 -88 276 -88q151 0 226 84.5t75 224.5v195q-45 -51 -120.5 -78t-164.5 -27q-126 0 -224 67.5t-149 179t-51 247.5z M236 494q0 -82 20 -155t59 -131t103 -92t145 -34t149 35.5t101 91.5v518q-39 58 -110 98.5t-156 40.5q-138 0 -224.5 -105.5t-86.5 -266.5zM311 1413h72q11 -80 57 -125t119 -45t119 45t57 125h72q0 -113 -70 -192.5t-178 -79.5q-113 0 -180.5 81.5t-67.5 190.5z" />
<glyph horiz-adv-x="1105" d="M104 465q0 228 120 371t296 143q86 0 170 -39.5t139 -103.5l39 112h72v-1083q0 -180 -109.5 -290t-298.5 -110q-94 0 -184.5 31.5t-152.5 91.5l41 72q131 -88 276 -88q151 0 226 84.5t75 224.5v195q-45 -51 -120.5 -78t-164.5 -27q-126 0 -224 67.5t-149 179t-51 247.5z M236 494q0 -82 20 -155t59 -131t103 -92t145 -34t149 35.5t101 91.5v518q-39 58 -110 98.5t-156 40.5q-138 0 -224.5 -105.5t-86.5 -266.5zM309 1149l223 340h56l223 -340l-51 -35l-201 238l-199 -238z" />
<glyph horiz-adv-x="1105" d="M104 465q0 228 120 371t296 143q86 0 170 -39.5t139 -103.5l39 112h72v-1083q0 -180 -109.5 -290t-298.5 -110q-94 0 -184.5 31.5t-152.5 91.5l41 72q131 -88 276 -88q151 0 226 84.5t75 224.5v195q-45 -51 -120.5 -78t-164.5 -27q-126 0 -224 67.5t-149 179t-51 247.5z M236 494q0 -82 20 -155t59 -131t103 -92t145 -34t149 35.5t101 91.5v518q-39 58 -110 98.5t-156 40.5q-138 0 -224.5 -105.5t-86.5 -266.5zM457 1141l73 368h64v-368h-137z" />
<glyph horiz-adv-x="1105" d="M104 465q0 228 120 371t296 143q86 0 170 -39.5t139 -103.5l39 112h72v-1083q0 -180 -109.5 -290t-298.5 -110q-94 0 -184.5 31.5t-152.5 91.5l41 72q131 -88 276 -88q151 0 226 84.5t75 224.5v195q-45 -51 -120.5 -78t-164.5 -27q-126 0 -224 67.5t-149 179t-51 247.5z M236 494q0 -82 20 -155t59 -131t103 -92t145 -34t149 35.5t101 91.5v518q-39 58 -110 98.5t-156 40.5q-138 0 -224.5 -105.5t-86.5 -266.5zM461 1264q0 35 26.5 62.5t61.5 27.5t62.5 -27.5t27.5 -62.5t-27.5 -61.5t-62.5 -26.5t-61.5 26.5t-26.5 61.5z" />
<glyph horiz-adv-x="987" d="M166 0v1509h127v-966h133l334 405h155l-368 -438l297 -424q178 -258 342 -258q86 0 145 33l33 -58q-31 -38 -89 -60t-126 -22q-84 0 -160.5 43t-161.5 142l-378 526h-156v-432h-127z" />
<glyph horiz-adv-x="987" d="M166 0v1509h127v-966h133l334 405h155l-368 -438l297 -424q178 -258 342 -258q86 0 145 33l33 -58q-31 -38 -89 -60t-126 -22q-84 0 -160.5 43t-161.5 142l-378 526h-156v-432h-127zM434 -170h137l-73 -369h-64v369z" />
<glyph horiz-adv-x="946" d="M-63 -453l32 60q56 -35 115 -35q149 0 229 192l105 248l-379 936h139l305 -794l297 794h135l-483 -1196q-21 -52 -40 -90t-46.5 -76.5t-58 -63t-72 -39.5t-90.5 -15q-115 0 -188 79z" />
<glyph horiz-adv-x="940" d="M-63 -453l32 60q56 -35 115 -35q149 0 229 192l105 248l-379 936h139l305 -794l297 794h135l-483 -1196q-21 -52 -40 -90t-46.5 -76.5t-58 -63t-72 -39.5t-90.5 -15q-115 0 -188 79zM356 1149l224 340l112 -72l-284 -303z" />
<glyph horiz-adv-x="940" d="M-63 -453l32 60q56 -35 115 -35q149 0 229 192l105 248l-379 936h139l305 -794l297 794h135l-483 -1196q-21 -52 -40 -90t-46.5 -76.5t-58 -63t-72 -39.5t-90.5 -15q-115 0 -188 79zM229 1149l224 340h55l223 -340l-51 -35l-201 238l-198 -238z" />
<glyph horiz-adv-x="940" d="M-63 -453l32 60q56 -35 115 -35q149 0 229 192l105 248l-379 936h139l305 -794l297 794h135l-483 -1196q-21 -52 -40 -90t-46.5 -76.5t-58 -63t-72 -39.5t-90.5 -15q-115 0 -188 79zM193 1264q0 35 26.5 62.5t61.5 27.5t62.5 -27.5t27.5 -62.5t-27.5 -61.5t-62.5 -26.5 t-61.5 26.5t-26.5 61.5zM588 1264q0 35 26.5 62.5t61.5 27.5t62.5 -27.5t27.5 -62.5t-27.5 -61.5t-62.5 -26.5t-61.5 26.5t-26.5 61.5z" />
<glyph horiz-adv-x="940" d="M-63 -453l32 60q56 -35 115 -35q149 0 229 192l105 248l-379 936h139l305 -794l297 794h135l-483 -1196q-21 -52 -40 -90t-46.5 -76.5t-58 -63t-72 -39.5t-90.5 -15q-115 0 -188 79zM268 1417l113 72l223 -340l-53 -35z" />
<glyph horiz-adv-x="667" d="M221 1274q0 41 28.5 67.5t69.5 26.5q40 0 68.5 -26.5t28.5 -67.5q0 -40 -28.5 -69t-68.5 -29t-69 29t-29 69zM240 0l36 901h82l39 -901h-157z" />
<glyph horiz-adv-x="890" d="M100 377q0 120 93.5 207.5t255.5 97.5v219h69l57 -311h-38q-146 0 -222.5 -60t-76.5 -155q0 -87 49.5 -151t126.5 -95t168 -31q61 0 110 8l29 -104q-92 -14 -164 -14q-197 0 -327 113t-130 276zM397 1274q0 40 29 67t70 27q40 0 68 -26.5t28 -67.5q0 -40 -28 -69t-68 -29 t-69.5 29t-29.5 69z" />
<glyph horiz-adv-x="1384" d="M139 664q0 151 40.5 278t119.5 222t204 148.5t285 53.5q204 0 309 -102t105 -291v-586h-61l-49 113q-50 -65 -131.5 -104.5t-184.5 -39.5q-130 0 -215.5 74t-85.5 201q0 71 28.5 125.5t72 86t105.5 51t119 26t122 6.5h153v69q0 130 -84 194t-223 64q-219 0 -357.5 -148 t-138.5 -400q0 -100 17.5 -188t58 -168t101.5 -137t153.5 -90.5t208.5 -33.5q100 0 193.5 37.5t148.5 85.5l35 -70q-7 -9 -22 -24t-52.5 -42t-82.5 -49t-114.5 -38.5t-144.5 -16.5q-137 0 -247.5 43t-181 112t-118 161t-67 186t-19.5 191zM604 647q0 -86 58 -135t155 -49 q85 0 155.5 36t102.5 91v244h-127q-344 0 -344 -187z" />
<glyph horiz-adv-x="714" d="M127 645q0 254 123.5 515.5t351.5 453.5l43 -80q-181 -163 -281 -401t-100 -471q0 -235 100 -474t283 -411l-39 -68q-240 194 -360.5 439t-120.5 497z" />
<glyph horiz-adv-x="731" d="M84 -223q183 172 283 411t100 474q0 233 -100 471t-281 401l43 80q228 -192 351.5 -453.5t123.5 -515.5q0 -252 -120.5 -497t-360.5 -439z" />
<glyph horiz-adv-x="657" d="M168 -281v1876h401v-90h-278v-1695h278v-91h-401z" />
<glyph horiz-adv-x="673" d="M104 -190h279v1695h-279v90h402v-1876h-402v91z" />
<glyph horiz-adv-x="714" d="M43 614v86q93 0 138.5 45.5t45.5 157.5v449q0 129 90 194.5t228 65.5v-86q-94 0 -144.5 -47t-50.5 -158v-449q0 -151 -123 -219q123 -71 123 -223v-436q0 -111 50.5 -158t144.5 -47v-86q-138 0 -228 65.5t-90 194.5v436q0 209 -172 215h-12z" />
<glyph horiz-adv-x="733" d="M186 -211q94 0 144.5 47t50.5 158v436q0 153 121 223q-121 67 -121 219v449q0 111 -50.5 158t-144.5 47v86q138 0 228 -65.5t90 -194.5v-449q0 -110 42.5 -155.5t129.5 -47.5h12v-86h-12q-86 -3 -129 -54t-43 -161v-436q0 -129 -90 -194.5t-228 -65.5v86z" />
<glyph horiz-adv-x="935" d="M88 668l346 346l37 -39l-197 -307l199 -308l-39 -38zM440 668l346 346l37 -39l-196 -307l198 -308l-39 -38z" />
<glyph horiz-adv-x="935" d="M96 362l199 308l-197 307l37 39l346 -346l-346 -346zM449 362l198 308l-196 307l36 39l347 -346l-347 -346z" />
<glyph horiz-adv-x="585" d="M88 668l346 346l37 -39l-197 -307l199 -308l-39 -38z" />
<glyph horiz-adv-x="583" d="M96 360l199 308l-197 307l37 39l346 -346l-346 -346z" />
<glyph horiz-adv-x="669" d="M106 608v111h455v-111h-455z" />
<glyph horiz-adv-x="1140" d="M106 608v111h926v-111h-926z" />
<glyph horiz-adv-x="2062" d="M106 608v111h1848v-111h-1848z" />
<glyph horiz-adv-x="421" d="M115 664q0 40 27.5 69t68.5 29q40 0 69 -29t29 -69t-29 -68.5t-69 -28.5q-41 0 -68.5 28.5t-27.5 68.5z" />
<glyph horiz-adv-x="1429" d="M121 340q0 115 70.5 210t189.5 163q-46 51 -65.5 74t-51 68t-44.5 88t-13 91q0 159 99 247.5t241 88.5q164 0 261 -105t97 -317h475v-110h-192q0 -343 -170 -592l264 -260l-92 -88l-250 247q-177 -174 -401 -174q-178 0 -298 102t-120 267zM254 358q0 -130 87 -202 t224 -72q85 0 161.5 39.5t129.5 103.5l-399 408q-91 -48 -147 -121t-56 -156zM334 1067q0 -25 3.5 -46t8.5 -40.5t20.5 -44t29 -45t45 -56t58 -64t79 -81t95.5 -96t120.5 -121t142.5 -143.5q127 189 127 508h-277v123q0 296 -258 296q-88 0 -141 -59.5t-53 -130.5z" />
<glyph horiz-adv-x="1097" d="M49 0l440 1014h119l441 -1014h-144l-100 238h-520l-99 -238h-137zM332 348h426l-213 510z" />
<glyph horiz-adv-x="1052" d="M176 0v1016h348q178 0 261 -63t83 -189q0 -91 -61 -152.5t-139 -76.5q37 -6 70 -14.5t72.5 -27.5t67.5 -45t47 -68t19 -95q0 -136 -103 -210.5t-313 -74.5h-352zM299 111h195q319 0 319 180q0 94 -84 132t-231 38h-199v-350zM299 571h160q138 0 208 46t70 133 q0 78 -56.5 116.5t-178.5 38.5h-203v-334z" />
<glyph horiz-adv-x="1056" d="M104 512q0 243 142 387.5t358 144.5q198 0 342 -108l-24 -94q-152 90 -320 90q-90 0 -161.5 -33.5t-115 -90.5t-66.5 -127.5t-23 -148.5q0 -90 24.5 -168.5t73 -142t129.5 -100.5t186 -37q81 0 157.5 22t121.5 58l33 -58q-116 -135 -355 -135q-223 0 -362.5 151.5 t-139.5 389.5z" />
<glyph horiz-adv-x="1130" d="M176 0v1016h350q126 0 223.5 -38.5t157 -106.5t89.5 -155t30 -190q0 -85 -14.5 -158t-51.5 -142.5t-94 -118t-147 -78t-205 -29.5h-338zM303 111h205q93 0 164 25.5t112.5 64t67.5 93t34.5 104.5t8.5 106q0 58 -10.5 110.5t-38.5 107t-72.5 94t-118.5 64.5t-170 25h-182 v-794z" />
<glyph horiz-adv-x="1007" d="M176 0v1016h674v-111h-547v-334h387v-110h-387v-350h590v-111h-717z" />
<glyph horiz-adv-x="923" d="M176 0v1016h674v-111h-547v-334h387v-110h-387v-461h-127z" />
<glyph horiz-adv-x="1148" d="M104 512q0 122 42 223.5t113.5 168.5t165.5 103.5t200 36.5q207 0 348 -108l-23 -94q-155 90 -311 90q-98 0 -176.5 -33t-127 -89.5t-74 -126.5t-25.5 -148q0 -202 101.5 -326.5t274.5 -124.5q80 0 148.5 32.5t107.5 92.5v211h-223v110h350v-530h-69l-41 113 q-55 -72 -138.5 -108t-179.5 -36q-132 0 -239 74t-165.5 198t-58.5 271z" />
<glyph horiz-adv-x="1167" d="M176 0v1016h127v-445h561v445h127v-1016h-127v461h-561v-461h-127z" />
<glyph horiz-adv-x="499" d="M186 0v1016h127v-1016h-127z" />
<glyph horiz-adv-x="514" d="M-84 -219l33 57q61 -24 112 -24q150 0 150 213v989h127v-1020q0 -142 -69 -210.5t-173 -68.5t-180 64z" />
<glyph horiz-adv-x="1044" d="M176 0v1016h127v-445h135l393 445h154l-432 -475l432 -541h-151l-373 461h-158v-461h-127z" />
<glyph horiz-adv-x="894" d="M176 0v1016h127v-905h549v-111h-676z" />
<glyph horiz-adv-x="1486" d="M176 0v1014h186l386 -854l376 854h187v-1014h-119v901l-393 -901h-107l-399 903v-903h-117z" />
<glyph horiz-adv-x="1189" d="M176 0v1014h164l555 -824v824h119v-1014h-123l-598 881v-881h-117z" />
<glyph horiz-adv-x="1198" d="M104 512q0 254 141.5 393t372.5 139q140 0 249.5 -69.5t168 -188t58.5 -264.5q0 -114 -32 -213.5t-92.5 -175.5t-157 -120t-216.5 -44q-96 0 -178 31.5t-139 84.5t-97 123t-59 147t-19 157zM236 532q0 -63 12.5 -124t41.5 -120.5t71 -104t107 -72t144 -27.5 q69 0 127.5 25t99 66t69 95t42 112.5t13.5 117.5q0 63 -12.5 123t-41.5 116.5t-71 99t-106.5 68t-143.5 25.5q-87 0 -156 -34.5t-110.5 -92t-63.5 -127.5t-22 -146z" />
<glyph horiz-adv-x="983" d="M176 0v1016h346q196 0 291.5 -73.5t95.5 -227.5q0 -164 -106 -249t-332 -85h-168v-381h-127zM303 494h195q152 0 216 56.5t64 156.5t-63.5 149t-214.5 49h-197v-411z" />
<glyph horiz-adv-x="1198" d="M104 512q0 254 141.5 393t372.5 139q140 0 249.5 -69.5t168 -188t58.5 -264.5q0 -175 -74 -313t-213 -199l235 -225l-131 -88l-188 287q-73 -15 -127 -15q-96 0 -178 31.5t-139 84.5t-97 123t-59 147t-19 157zM236 532q0 -63 12.5 -124t41.5 -120.5t71 -104t107 -72 t144 -27.5q69 0 127.5 25t99 66t69 95t42 112.5t13.5 117.5q0 63 -12.5 123t-41.5 116.5t-71 99t-106.5 68t-143.5 25.5q-87 0 -156 -34.5t-110.5 -92t-63.5 -127.5t-22 -146z" />
<glyph horiz-adv-x="1064" d="M176 0v1016h346q196 0 291.5 -72t95.5 -223q0 -248 -266 -299l350 -422h-153l-336 406h-201v-406h-127zM303 514h195q153 0 216.5 51t63.5 148t-63.5 144.5t-214.5 47.5h-197v-391z" />
<glyph horiz-adv-x="929" d="M102 106l41 74q129 -96 297 -96q117 0 185.5 49t68.5 121q0 43 -24.5 77t-65 56t-92 44.5t-105 40.5t-105 45t-92 57.5t-65 79t-24.5 108.5q0 126 101 204t243 78q93 0 178 -27.5t143 -72.5l-24 -94q-138 79 -291 82q-101 0 -161 -43.5t-60 -112.5q0 -49 31.5 -87 t82.5 -63.5t112 -48t122.5 -48t112.5 -56.5t82.5 -80.5t31.5 -113.5q0 -140 -101 -225t-261 -85q-104 0 -198 34.5t-163 102.5z" />
<glyph horiz-adv-x="1013" d="M63 905v111h887v-111h-381v-905h-127v905h-379z" />
<glyph horiz-adv-x="1136" d="M147 420v594h127v-596q0 -160 80 -248t215 -88q133 0 212 89t79 243v600h127v-590q0 -221 -111 -337t-309 -116q-195 0 -307.5 115t-112.5 334z" />
<glyph horiz-adv-x="1091" d="M45 1014h143l363 -862l356 862h137l-440 -1014h-119z" />
<glyph horiz-adv-x="1726" d="M45 1014h143l301 -862l302 862h147l307 -862l295 862h139l-381 -1014h-116l-320 883l-319 -883h-119z" />
<glyph horiz-adv-x="1054" d="M45 0l401 506l-401 508h160l321 -422l322 422h160l-404 -508l404 -506h-160l-322 422l-321 -422h-160z" />
<glyph horiz-adv-x="1046" d="M45 1014h143l340 -484l332 484h139l-411 -584v-430h-127v430z" />
<glyph horiz-adv-x="966" d="M96 0v115l598 790h-594v111h740v-111l-594 -794h618v-111h-768z" />
<glyph horiz-adv-x="1097" d="M49 0l440 1014h119l441 -1014h-144l-100 238h-520l-99 -238h-137zM332 348h426l-213 510zM391 1190l223 340l113 -72l-285 -303z" />
<glyph horiz-adv-x="1097" d="M49 0l440 1014h119l441 -1014h-144l-100 238h-520l-99 -238h-137zM297 1454h72q11 -80 57 -125t119 -45t119 45t57 125h72q0 -113 -70 -192.5t-178 -79.5q-113 0 -180.5 81.5t-67.5 190.5zM332 348h426l-213 510z" />
<glyph horiz-adv-x="1097" d="M49 0l440 1014h119l441 -1014h-144l-100 238h-520l-99 -238h-137zM295 1190l223 340h55l224 -340l-52 -35l-200 238l-199 -238zM332 348h426l-213 510z" />
<glyph horiz-adv-x="1097" d="M49 0l440 1014h119l441 -1014h-144l-100 238h-520l-99 -238h-137zM260 1305q0 35 26.5 62.5t61.5 27.5t62.5 -27.5t27.5 -62.5t-27.5 -61.5t-62.5 -26.5t-61.5 26.5t-26.5 61.5zM332 348h426l-213 510zM655 1305q0 35 26.5 62.5t61.5 27.5t63 -27.5t28 -62.5t-27.5 -61.5 t-63.5 -26.5q-35 0 -61.5 26.5t-26.5 61.5z" />
<glyph horiz-adv-x="1097" d="M49 0l440 1014h119l441 -1014h-144l-100 238h-520l-99 -238h-137zM332 348h426l-213 510zM354 1458l113 72l223 -340l-53 -35z" />
</font>
</defs>
</svg>
